<?xml version="1.0" encoding="utf-8" standalone="no"?>
<!DOCTYPE svg PUBLIC "-//W3C//DTD SVG 1.1//EN"
  "http://www.w3.org/Graphics/SVG/1.1/DTD/svg11.dtd">
<svg xmlns:xlink="http://www.w3.org/1999/xlink" width="525.51375pt" height="505.853125pt" viewBox="0 0 525.51375 505.853125" xmlns="http://www.w3.org/2000/svg" version="1.1">
 <metadata>
  <rdf:RDF xmlns:dc="http://purl.org/dc/elements/1.1/" xmlns:cc="http://creativecommons.org/ns#" xmlns:rdf="http://www.w3.org/1999/02/22-rdf-syntax-ns#">
   <cc:Work>
    <dc:type rdf:resource="http://purl.org/dc/dcmitype/StillImage"/>
    <dc:date>2025-12-31T13:45:29.053843</dc:date>
    <dc:format>image/svg+xml</dc:format>
    <dc:creator>
     <cc:Agent>
      <dc:title>Matplotlib v3.10.6, https://matplotlib.org/</dc:title>
     </cc:Agent>
    </dc:creator>
   </cc:Work>
  </rdf:RDF>
 </metadata>
 <defs>
  <style type="text/css">*{stroke-linejoin: round; stroke-linecap: butt}</style>
 </defs>
 <g id="figure_1">
  <g id="patch_1">
   <path d="M 0 505.853125 
L 525.51375 505.853125 
L 525.51375 0 
L 0 0 
L 0 505.853125 
z
" style="fill: none"/>
  </g>
  <g id="axes_1">
   <g id="patch_2">
    <path d="M 71.91375 450.72 
L 518.31375 450.72 
L 518.31375 7.2 
L 71.91375 7.2 
L 71.91375 450.72 
z
" style="fill: none"/>
   </g>
   <g id="patch_3">
    <path d="M 92.204659 450.72 
L 96.521874 450.72 
L 96.521874 449.975026 
L 92.204659 449.975026 
z
" clip-path="url(#p4bd75cc6f4)" style="fill: #808080"/>
   </g>
   <g id="patch_4">
    <path d="M 96.521874 450.72 
L 100.839088 450.72 
L 100.839088 450.72 
L 96.521874 450.72 
z
" clip-path="url(#p4bd75cc6f4)" style="fill: #808080"/>
   </g>
   <g id="patch_5">
    <path d="M 100.839088 450.72 
L 105.156303 450.72 
L 105.156303 450.72 
L 100.839088 450.72 
z
" clip-path="url(#p4bd75cc6f4)" style="fill: #808080"/>
   </g>
   <g id="patch_6">
    <path d="M 105.156303 450.72 
L 109.473518 450.72 
L 109.473518 450.72 
L 105.156303 450.72 
z
" clip-path="url(#p4bd75cc6f4)" style="fill: #808080"/>
   </g>
   <g id="patch_7">
    <path d="M 109.473518 450.72 
L 113.790733 450.72 
L 113.790733 450.72 
L 109.473518 450.72 
z
" clip-path="url(#p4bd75cc6f4)" style="fill: #808080"/>
   </g>
   <g id="patch_8">
    <path d="M 113.790733 450.72 
L 118.107947 450.72 
L 118.107947 450.72 
L 113.790733 450.72 
z
" clip-path="url(#p4bd75cc6f4)" style="fill: #808080"/>
   </g>
   <g id="patch_9">
    <path d="M 118.107947 450.72 
L 122.425162 450.72 
L 122.425162 450.72 
L 118.107947 450.72 
z
" clip-path="url(#p4bd75cc6f4)" style="fill: #808080"/>
   </g>
   <g id="patch_10">
    <path d="M 122.425162 450.72 
L 126.742377 450.72 
L 126.742377 450.72 
L 122.425162 450.72 
z
" clip-path="url(#p4bd75cc6f4)" style="fill: #808080"/>
   </g>
   <g id="patch_11">
    <path d="M 126.742377 450.72 
L 131.059591 450.72 
L 131.059591 450.72 
L 126.742377 450.72 
z
" clip-path="url(#p4bd75cc6f4)" style="fill: #808080"/>
   </g>
   <g id="patch_12">
    <path d="M 131.059591 450.72 
L 135.376806 450.72 
L 135.376806 449.975026 
L 131.059591 449.975026 
z
" clip-path="url(#p4bd75cc6f4)" style="fill: #808080"/>
   </g>
   <g id="patch_13">
    <path d="M 135.376806 450.72 
L 139.694021 450.72 
L 139.694021 449.975026 
L 135.376806 449.975026 
z
" clip-path="url(#p4bd75cc6f4)" style="fill: #808080"/>
   </g>
   <g id="patch_14">
    <path d="M 139.694021 450.72 
L 144.011235 450.72 
L 144.011235 450.72 
L 139.694021 450.72 
z
" clip-path="url(#p4bd75cc6f4)" style="fill: #808080"/>
   </g>
   <g id="patch_15">
    <path d="M 144.011235 450.72 
L 148.32845 450.72 
L 148.32845 450.72 
L 144.011235 450.72 
z
" clip-path="url(#p4bd75cc6f4)" style="fill: #808080"/>
   </g>
   <g id="patch_16">
    <path d="M 148.32845 450.72 
L 152.645665 450.72 
L 152.645665 450.72 
L 148.32845 450.72 
z
" clip-path="url(#p4bd75cc6f4)" style="fill: #808080"/>
   </g>
   <g id="patch_17">
    <path d="M 152.645665 450.72 
L 156.96288 450.72 
L 156.96288 449.230053 
L 152.645665 449.230053 
z
" clip-path="url(#p4bd75cc6f4)" style="fill: #808080"/>
   </g>
   <g id="patch_18">
    <path d="M 156.96288 450.72 
L 161.280094 450.72 
L 161.280094 450.72 
L 156.96288 450.72 
z
" clip-path="url(#p4bd75cc6f4)" style="fill: #808080"/>
   </g>
   <g id="patch_19">
    <path d="M 161.280094 450.72 
L 165.597309 450.72 
L 165.597309 450.72 
L 161.280094 450.72 
z
" clip-path="url(#p4bd75cc6f4)" style="fill: #808080"/>
   </g>
   <g id="patch_20">
    <path d="M 165.597309 450.72 
L 169.914524 450.72 
L 169.914524 450.72 
L 165.597309 450.72 
z
" clip-path="url(#p4bd75cc6f4)" style="fill: #808080"/>
   </g>
   <g id="patch_21">
    <path d="M 169.914524 450.72 
L 174.231738 450.72 
L 174.231738 449.230053 
L 169.914524 449.230053 
z
" clip-path="url(#p4bd75cc6f4)" style="fill: #808080"/>
   </g>
   <g id="patch_22">
    <path d="M 174.231738 450.72 
L 178.548953 450.72 
L 178.548953 448.485079 
L 174.231738 448.485079 
z
" clip-path="url(#p4bd75cc6f4)" style="fill: #808080"/>
   </g>
   <g id="patch_23">
    <path d="M 178.548953 450.72 
L 182.866168 450.72 
L 182.866168 449.230053 
L 178.548953 449.230053 
z
" clip-path="url(#p4bd75cc6f4)" style="fill: #808080"/>
   </g>
   <g id="patch_24">
    <path d="M 182.866168 450.72 
L 187.183382 450.72 
L 187.183382 450.72 
L 182.866168 450.72 
z
" clip-path="url(#p4bd75cc6f4)" style="fill: #808080"/>
   </g>
   <g id="patch_25">
    <path d="M 187.183382 450.72 
L 191.500597 450.72 
L 191.500597 449.230053 
L 187.183382 449.230053 
z
" clip-path="url(#p4bd75cc6f4)" style="fill: #808080"/>
   </g>
   <g id="patch_26">
    <path d="M 191.500597 450.72 
L 195.817812 450.72 
L 195.817812 448.485079 
L 191.500597 448.485079 
z
" clip-path="url(#p4bd75cc6f4)" style="fill: #808080"/>
   </g>
   <g id="patch_27">
    <path d="M 195.817812 450.72 
L 200.135027 450.72 
L 200.135027 449.975026 
L 195.817812 449.975026 
z
" clip-path="url(#p4bd75cc6f4)" style="fill: #808080"/>
   </g>
   <g id="patch_28">
    <path d="M 200.135027 450.72 
L 204.452241 450.72 
L 204.452241 447.740106 
L 200.135027 447.740106 
z
" clip-path="url(#p4bd75cc6f4)" style="fill: #808080"/>
   </g>
   <g id="patch_29">
    <path d="M 204.452241 450.72 
L 208.769456 450.72 
L 208.769456 449.975026 
L 204.452241 449.975026 
z
" clip-path="url(#p4bd75cc6f4)" style="fill: #808080"/>
   </g>
   <g id="patch_30">
    <path d="M 208.769456 450.72 
L 213.086671 450.72 
L 213.086671 448.485079 
L 208.769456 448.485079 
z
" clip-path="url(#p4bd75cc6f4)" style="fill: #808080"/>
   </g>
   <g id="patch_31">
    <path d="M 213.086671 450.72 
L 217.403885 450.72 
L 217.403885 445.505185 
L 213.086671 445.505185 
z
" clip-path="url(#p4bd75cc6f4)" style="fill: #808080"/>
   </g>
   <g id="patch_32">
    <path d="M 217.403885 450.72 
L 221.7211 450.72 
L 221.7211 445.505185 
L 217.403885 445.505185 
z
" clip-path="url(#p4bd75cc6f4)" style="fill: #808080"/>
   </g>
   <g id="patch_33">
    <path d="M 221.7211 450.72 
L 226.038315 450.72 
L 226.038315 447.740106 
L 221.7211 447.740106 
z
" clip-path="url(#p4bd75cc6f4)" style="fill: #808080"/>
   </g>
   <g id="patch_34">
    <path d="M 226.038315 450.72 
L 230.355529 450.72 
L 230.355529 445.505185 
L 226.038315 445.505185 
z
" clip-path="url(#p4bd75cc6f4)" style="fill: #808080"/>
   </g>
   <g id="patch_35">
    <path d="M 230.355529 450.72 
L 234.672744 450.72 
L 234.672744 444.760212 
L 230.355529 444.760212 
z
" clip-path="url(#p4bd75cc6f4)" style="fill: #808080"/>
   </g>
   <g id="patch_36">
    <path d="M 234.672744 450.72 
L 238.989959 450.72 
L 238.989959 442.525291 
L 234.672744 442.525291 
z
" clip-path="url(#p4bd75cc6f4)" style="fill: #808080"/>
   </g>
   <g id="patch_37">
    <path d="M 238.989959 450.72 
L 243.307174 450.72 
L 243.307174 441.035344 
L 238.989959 441.035344 
z
" clip-path="url(#p4bd75cc6f4)" style="fill: #808080"/>
   </g>
   <g id="patch_38">
    <path d="M 243.307174 450.72 
L 247.624388 450.72 
L 247.624388 436.565503 
L 243.307174 436.565503 
z
" clip-path="url(#p4bd75cc6f4)" style="fill: #808080"/>
   </g>
   <g id="patch_39">
    <path d="M 247.624388 450.72 
L 251.941603 450.72 
L 251.941603 441.035344 
L 247.624388 441.035344 
z
" clip-path="url(#p4bd75cc6f4)" style="fill: #808080"/>
   </g>
   <g id="patch_40">
    <path d="M 251.941603 450.72 
L 256.258818 450.72 
L 256.258818 437.310476 
L 251.941603 437.310476 
z
" clip-path="url(#p4bd75cc6f4)" style="fill: #808080"/>
   </g>
   <g id="patch_41">
    <path d="M 256.258818 450.72 
L 260.576032 450.72 
L 260.576032 423.900952 
L 256.258818 423.900952 
z
" clip-path="url(#p4bd75cc6f4)" style="fill: #808080"/>
   </g>
   <g id="patch_42">
    <path d="M 260.576032 450.72 
L 264.893247 450.72 
L 264.893247 421.666032 
L 260.576032 421.666032 
z
" clip-path="url(#p4bd75cc6f4)" style="fill: #808080"/>
   </g>
   <g id="patch_43">
    <path d="M 264.893247 450.72 
L 269.210462 450.72 
L 269.210462 407.511534 
L 264.893247 407.511534 
z
" clip-path="url(#p4bd75cc6f4)" style="fill: #808080"/>
   </g>
   <g id="patch_44">
    <path d="M 269.210462 450.72 
L 273.527676 450.72 
L 273.527676 400.806772 
L 269.210462 400.806772 
z
" clip-path="url(#p4bd75cc6f4)" style="fill: #808080"/>
   </g>
   <g id="patch_45">
    <path d="M 273.527676 450.72 
L 277.844891 450.72 
L 277.844891 381.43746 
L 273.527676 381.43746 
z
" clip-path="url(#p4bd75cc6f4)" style="fill: #808080"/>
   </g>
   <g id="patch_46">
    <path d="M 277.844891 450.72 
L 282.162106 450.72 
L 282.162106 344.188783 
L 277.844891 344.188783 
z
" clip-path="url(#p4bd75cc6f4)" style="fill: #808080"/>
   </g>
   <g id="patch_47">
    <path d="M 282.162106 450.72 
L 286.479321 450.72 
L 286.479321 303.960212 
L 282.162106 303.960212 
z
" clip-path="url(#p4bd75cc6f4)" style="fill: #808080"/>
   </g>
   <g id="patch_48">
    <path d="M 286.479321 450.72 
L 290.796535 450.72 
L 290.796535 205.623704 
L 286.479321 205.623704 
z
" clip-path="url(#p4bd75cc6f4)" style="fill: #808080"/>
   </g>
   <g id="patch_49">
    <path d="M 290.796535 450.72 
L 295.11375 450.72 
L 295.11375 81.958095 
L 290.796535 81.958095 
z
" clip-path="url(#p4bd75cc6f4)" style="fill: #808080"/>
   </g>
   <g id="patch_50">
    <path d="M 295.11375 450.72 
L 299.430965 450.72 
L 299.430965 28.32 
L 295.11375 28.32 
z
" clip-path="url(#p4bd75cc6f4)" style="fill: #808080"/>
   </g>
   <g id="patch_51">
    <path d="M 299.430965 450.72 
L 303.748179 450.72 
L 303.748179 64.823704 
L 299.430965 64.823704 
z
" clip-path="url(#p4bd75cc6f4)" style="fill: #808080"/>
   </g>
   <g id="patch_52">
    <path d="M 303.748179 450.72 
L 308.065394 450.72 
L 308.065394 196.684021 
L 303.748179 196.684021 
z
" clip-path="url(#p4bd75cc6f4)" style="fill: #808080"/>
   </g>
   <g id="patch_53">
    <path d="M 308.065394 450.72 
L 312.382609 450.72 
L 312.382609 307.685079 
L 308.065394 307.685079 
z
" clip-path="url(#p4bd75cc6f4)" style="fill: #808080"/>
   </g>
   <g id="patch_54">
    <path d="M 312.382609 450.72 
L 316.699824 450.72 
L 316.699824 356.10836 
L 312.382609 356.10836 
z
" clip-path="url(#p4bd75cc6f4)" style="fill: #808080"/>
   </g>
   <g id="patch_55">
    <path d="M 316.699824 450.72 
L 321.017038 450.72 
L 321.017038 381.43746 
L 316.699824 381.43746 
z
" clip-path="url(#p4bd75cc6f4)" style="fill: #808080"/>
   </g>
   <g id="patch_56">
    <path d="M 321.017038 450.72 
L 325.334253 450.72 
L 325.334253 409.746455 
L 321.017038 409.746455 
z
" clip-path="url(#p4bd75cc6f4)" style="fill: #808080"/>
   </g>
   <g id="patch_57">
    <path d="M 325.334253 450.72 
L 329.651468 450.72 
L 329.651468 422.411005 
L 325.334253 422.411005 
z
" clip-path="url(#p4bd75cc6f4)" style="fill: #808080"/>
   </g>
   <g id="patch_58">
    <path d="M 329.651468 450.72 
L 333.968682 450.72 
L 333.968682 427.62582 
L 329.651468 427.62582 
z
" clip-path="url(#p4bd75cc6f4)" style="fill: #808080"/>
   </g>
   <g id="patch_59">
    <path d="M 333.968682 450.72 
L 338.285897 450.72 
L 338.285897 432.095661 
L 333.968682 432.095661 
z
" clip-path="url(#p4bd75cc6f4)" style="fill: #808080"/>
   </g>
   <g id="patch_60">
    <path d="M 338.285897 450.72 
L 342.603112 450.72 
L 342.603112 436.565503 
L 338.285897 436.565503 
z
" clip-path="url(#p4bd75cc6f4)" style="fill: #808080"/>
   </g>
   <g id="patch_61">
    <path d="M 342.603112 450.72 
L 346.920326 450.72 
L 346.920326 435.820529 
L 342.603112 435.820529 
z
" clip-path="url(#p4bd75cc6f4)" style="fill: #808080"/>
   </g>
   <g id="patch_62">
    <path d="M 346.920326 450.72 
L 351.237541 450.72 
L 351.237541 445.505185 
L 346.920326 445.505185 
z
" clip-path="url(#p4bd75cc6f4)" style="fill: #808080"/>
   </g>
   <g id="patch_63">
    <path d="M 351.237541 450.72 
L 355.554756 450.72 
L 355.554756 444.760212 
L 351.237541 444.760212 
z
" clip-path="url(#p4bd75cc6f4)" style="fill: #808080"/>
   </g>
   <g id="patch_64">
    <path d="M 355.554756 450.72 
L 359.871971 450.72 
L 359.871971 444.760212 
L 355.554756 444.760212 
z
" clip-path="url(#p4bd75cc6f4)" style="fill: #808080"/>
   </g>
   <g id="patch_65">
    <path d="M 359.871971 450.72 
L 364.189185 450.72 
L 364.189185 438.800423 
L 359.871971 438.800423 
z
" clip-path="url(#p4bd75cc6f4)" style="fill: #808080"/>
   </g>
   <g id="patch_66">
    <path d="M 364.189185 450.72 
L 368.5064 450.72 
L 368.5064 436.565503 
L 364.189185 436.565503 
z
" clip-path="url(#p4bd75cc6f4)" style="fill: #808080"/>
   </g>
   <g id="patch_67">
    <path d="M 368.5064 450.72 
L 372.823615 450.72 
L 372.823615 433.585608 
L 368.5064 433.585608 
z
" clip-path="url(#p4bd75cc6f4)" style="fill: #808080"/>
   </g>
   <g id="patch_68">
    <path d="M 372.823615 450.72 
L 377.140829 450.72 
L 377.140829 440.29037 
L 372.823615 440.29037 
z
" clip-path="url(#p4bd75cc6f4)" style="fill: #808080"/>
   </g>
   <g id="patch_69">
    <path d="M 377.140829 450.72 
L 381.458044 450.72 
L 381.458044 434.330582 
L 377.140829 434.330582 
z
" clip-path="url(#p4bd75cc6f4)" style="fill: #808080"/>
   </g>
   <g id="patch_70">
    <path d="M 381.458044 450.72 
L 385.775259 450.72 
L 385.775259 445.505185 
L 381.458044 445.505185 
z
" clip-path="url(#p4bd75cc6f4)" style="fill: #808080"/>
   </g>
   <g id="patch_71">
    <path d="M 385.775259 450.72 
L 390.092473 450.72 
L 390.092473 444.760212 
L 385.775259 444.760212 
z
" clip-path="url(#p4bd75cc6f4)" style="fill: #808080"/>
   </g>
   <g id="patch_72">
    <path d="M 390.092473 450.72 
L 394.409688 450.72 
L 394.409688 443.270265 
L 390.092473 443.270265 
z
" clip-path="url(#p4bd75cc6f4)" style="fill: #808080"/>
   </g>
   <g id="patch_73">
    <path d="M 394.409688 450.72 
L 398.726903 450.72 
L 398.726903 448.485079 
L 394.409688 448.485079 
z
" clip-path="url(#p4bd75cc6f4)" style="fill: #808080"/>
   </g>
   <g id="patch_74">
    <path d="M 398.726903 450.72 
L 403.044118 450.72 
L 403.044118 447.740106 
L 398.726903 447.740106 
z
" clip-path="url(#p4bd75cc6f4)" style="fill: #808080"/>
   </g>
   <g id="patch_75">
    <path d="M 403.044118 450.72 
L 407.361332 450.72 
L 407.361332 450.72 
L 403.044118 450.72 
z
" clip-path="url(#p4bd75cc6f4)" style="fill: #808080"/>
   </g>
   <g id="patch_76">
    <path d="M 407.361332 450.72 
L 411.678547 450.72 
L 411.678547 449.230053 
L 407.361332 449.230053 
z
" clip-path="url(#p4bd75cc6f4)" style="fill: #808080"/>
   </g>
   <g id="patch_77">
    <path d="M 411.678547 450.72 
L 415.995762 450.72 
L 415.995762 450.72 
L 411.678547 450.72 
z
" clip-path="url(#p4bd75cc6f4)" style="fill: #808080"/>
   </g>
   <g id="patch_78">
    <path d="M 415.995762 450.72 
L 420.312976 450.72 
L 420.312976 450.72 
L 415.995762 450.72 
z
" clip-path="url(#p4bd75cc6f4)" style="fill: #808080"/>
   </g>
   <g id="patch_79">
    <path d="M 420.312976 450.72 
L 424.630191 450.72 
L 424.630191 450.72 
L 420.312976 450.72 
z
" clip-path="url(#p4bd75cc6f4)" style="fill: #808080"/>
   </g>
   <g id="patch_80">
    <path d="M 424.630191 450.72 
L 428.947406 450.72 
L 428.947406 450.72 
L 424.630191 450.72 
z
" clip-path="url(#p4bd75cc6f4)" style="fill: #808080"/>
   </g>
   <g id="patch_81">
    <path d="M 428.947406 450.72 
L 433.26462 450.72 
L 433.26462 450.72 
L 428.947406 450.72 
z
" clip-path="url(#p4bd75cc6f4)" style="fill: #808080"/>
   </g>
   <g id="patch_82">
    <path d="M 433.26462 450.72 
L 437.581835 450.72 
L 437.581835 449.975026 
L 433.26462 449.975026 
z
" clip-path="url(#p4bd75cc6f4)" style="fill: #808080"/>
   </g>
   <g id="patch_83">
    <path d="M 437.581835 450.72 
L 441.89905 450.72 
L 441.89905 449.975026 
L 437.581835 449.975026 
z
" clip-path="url(#p4bd75cc6f4)" style="fill: #808080"/>
   </g>
   <g id="patch_84">
    <path d="M 441.89905 450.72 
L 446.216265 450.72 
L 446.216265 450.72 
L 441.89905 450.72 
z
" clip-path="url(#p4bd75cc6f4)" style="fill: #808080"/>
   </g>
   <g id="patch_85">
    <path d="M 446.216265 450.72 
L 450.533479 450.72 
L 450.533479 450.72 
L 446.216265 450.72 
z
" clip-path="url(#p4bd75cc6f4)" style="fill: #808080"/>
   </g>
   <g id="patch_86">
    <path d="M 450.533479 450.72 
L 454.850694 450.72 
L 454.850694 450.72 
L 450.533479 450.72 
z
" clip-path="url(#p4bd75cc6f4)" style="fill: #808080"/>
   </g>
   <g id="patch_87">
    <path d="M 454.850694 450.72 
L 459.167909 450.72 
L 459.167909 450.72 
L 454.850694 450.72 
z
" clip-path="url(#p4bd75cc6f4)" style="fill: #808080"/>
   </g>
   <g id="patch_88">
    <path d="M 459.167909 450.72 
L 463.485123 450.72 
L 463.485123 450.72 
L 459.167909 450.72 
z
" clip-path="url(#p4bd75cc6f4)" style="fill: #808080"/>
   </g>
   <g id="patch_89">
    <path d="M 463.485123 450.72 
L 467.802338 450.72 
L 467.802338 450.72 
L 463.485123 450.72 
z
" clip-path="url(#p4bd75cc6f4)" style="fill: #808080"/>
   </g>
   <g id="patch_90">
    <path d="M 467.802338 450.72 
L 472.119553 450.72 
L 472.119553 450.72 
L 467.802338 450.72 
z
" clip-path="url(#p4bd75cc6f4)" style="fill: #808080"/>
   </g>
   <g id="patch_91">
    <path d="M 472.119553 450.72 
L 476.436767 450.72 
L 476.436767 450.72 
L 472.119553 450.72 
z
" clip-path="url(#p4bd75cc6f4)" style="fill: #808080"/>
   </g>
   <g id="patch_92">
    <path d="M 476.436767 450.72 
L 480.753982 450.72 
L 480.753982 450.72 
L 476.436767 450.72 
z
" clip-path="url(#p4bd75cc6f4)" style="fill: #808080"/>
   </g>
   <g id="patch_93">
    <path d="M 480.753982 450.72 
L 485.071197 450.72 
L 485.071197 450.72 
L 480.753982 450.72 
z
" clip-path="url(#p4bd75cc6f4)" style="fill: #808080"/>
   </g>
   <g id="patch_94">
    <path d="M 485.071197 450.72 
L 489.388412 450.72 
L 489.388412 450.72 
L 485.071197 450.72 
z
" clip-path="url(#p4bd75cc6f4)" style="fill: #808080"/>
   </g>
   <g id="patch_95">
    <path d="M 489.388412 450.72 
L 493.705626 450.72 
L 493.705626 449.975026 
L 489.388412 449.975026 
z
" clip-path="url(#p4bd75cc6f4)" style="fill: #808080"/>
   </g>
   <g id="patch_96">
    <path d="M 493.705626 450.72 
L 498.022841 450.72 
L 498.022841 450.72 
L 493.705626 450.72 
z
" clip-path="url(#p4bd75cc6f4)" style="fill: #808080"/>
   </g>
   <g id="patch_97">
    <path d="M 92.204659 450.72 
L 96.521874 450.72 
L 96.521874 449.975026 
L 92.204659 449.975026 
z
" clip-path="url(#p4bd75cc6f4)" style="fill: #ff0000"/>
   </g>
   <g id="patch_98">
    <path d="M 96.521874 450.72 
L 100.839088 450.72 
L 100.839088 450.72 
L 96.521874 450.72 
z
" clip-path="url(#p4bd75cc6f4)" style="fill: #ff0000"/>
   </g>
   <g id="patch_99">
    <path d="M 100.839088 450.72 
L 105.156303 450.72 
L 105.156303 450.72 
L 100.839088 450.72 
z
" clip-path="url(#p4bd75cc6f4)" style="fill: #ff0000"/>
   </g>
   <g id="patch_100">
    <path d="M 105.156303 450.72 
L 109.473518 450.72 
L 109.473518 450.72 
L 105.156303 450.72 
z
" clip-path="url(#p4bd75cc6f4)" style="fill: #ff0000"/>
   </g>
   <g id="patch_101">
    <path d="M 109.473518 450.72 
L 113.790733 450.72 
L 113.790733 450.72 
L 109.473518 450.72 
z
" clip-path="url(#p4bd75cc6f4)" style="fill: #ff0000"/>
   </g>
   <g id="patch_102">
    <path d="M 113.790733 450.72 
L 118.107947 450.72 
L 118.107947 450.72 
L 113.790733 450.72 
z
" clip-path="url(#p4bd75cc6f4)" style="fill: #ff0000"/>
   </g>
   <g id="patch_103">
    <path d="M 118.107947 450.72 
L 122.425162 450.72 
L 122.425162 450.72 
L 118.107947 450.72 
z
" clip-path="url(#p4bd75cc6f4)" style="fill: #ff0000"/>
   </g>
   <g id="patch_104">
    <path d="M 122.425162 450.72 
L 126.742377 450.72 
L 126.742377 450.72 
L 122.425162 450.72 
z
" clip-path="url(#p4bd75cc6f4)" style="fill: #ff0000"/>
   </g>
   <g id="patch_105">
    <path d="M 126.742377 450.72 
L 131.059591 450.72 
L 131.059591 450.72 
L 126.742377 450.72 
z
" clip-path="url(#p4bd75cc6f4)" style="fill: #ff0000"/>
   </g>
   <g id="patch_106">
    <path d="M 131.059591 450.72 
L 135.376806 450.72 
L 135.376806 449.975026 
L 131.059591 449.975026 
z
" clip-path="url(#p4bd75cc6f4)" style="fill: #ff0000"/>
   </g>
   <g id="patch_107">
    <path d="M 135.376806 450.72 
L 139.694021 450.72 
L 139.694021 450.72 
L 135.376806 450.72 
z
" clip-path="url(#p4bd75cc6f4)" style="fill: #ff0000"/>
   </g>
   <g id="patch_108">
    <path d="M 139.694021 450.72 
L 144.011235 450.72 
L 144.011235 450.72 
L 139.694021 450.72 
z
" clip-path="url(#p4bd75cc6f4)" style="fill: #ff0000"/>
   </g>
   <g id="patch_109">
    <path d="M 144.011235 450.72 
L 148.32845 450.72 
L 148.32845 450.72 
L 144.011235 450.72 
z
" clip-path="url(#p4bd75cc6f4)" style="fill: #ff0000"/>
   </g>
   <g id="patch_110">
    <path d="M 148.32845 450.72 
L 152.645665 450.72 
L 152.645665 450.72 
L 148.32845 450.72 
z
" clip-path="url(#p4bd75cc6f4)" style="fill: #ff0000"/>
   </g>
   <g id="patch_111">
    <path d="M 152.645665 450.72 
L 156.96288 450.72 
L 156.96288 449.975026 
L 152.645665 449.975026 
z
" clip-path="url(#p4bd75cc6f4)" style="fill: #ff0000"/>
   </g>
   <g id="patch_112">
    <path d="M 156.96288 450.72 
L 161.280094 450.72 
L 161.280094 450.72 
L 156.96288 450.72 
z
" clip-path="url(#p4bd75cc6f4)" style="fill: #ff0000"/>
   </g>
   <g id="patch_113">
    <path d="M 161.280094 450.72 
L 165.597309 450.72 
L 165.597309 450.72 
L 161.280094 450.72 
z
" clip-path="url(#p4bd75cc6f4)" style="fill: #ff0000"/>
   </g>
   <g id="patch_114">
    <path d="M 165.597309 450.72 
L 169.914524 450.72 
L 169.914524 450.72 
L 165.597309 450.72 
z
" clip-path="url(#p4bd75cc6f4)" style="fill: #ff0000"/>
   </g>
   <g id="patch_115">
    <path d="M 169.914524 450.72 
L 174.231738 450.72 
L 174.231738 449.975026 
L 169.914524 449.975026 
z
" clip-path="url(#p4bd75cc6f4)" style="fill: #ff0000"/>
   </g>
   <g id="patch_116">
    <path d="M 174.231738 450.72 
L 178.548953 450.72 
L 178.548953 448.485079 
L 174.231738 448.485079 
z
" clip-path="url(#p4bd75cc6f4)" style="fill: #ff0000"/>
   </g>
   <g id="patch_117">
    <path d="M 178.548953 450.72 
L 182.866168 450.72 
L 182.866168 449.230053 
L 178.548953 449.230053 
z
" clip-path="url(#p4bd75cc6f4)" style="fill: #ff0000"/>
   </g>
   <g id="patch_118">
    <path d="M 182.866168 450.72 
L 187.183382 450.72 
L 187.183382 450.72 
L 182.866168 450.72 
z
" clip-path="url(#p4bd75cc6f4)" style="fill: #ff0000"/>
   </g>
   <g id="patch_119">
    <path d="M 187.183382 450.72 
L 191.500597 450.72 
L 191.500597 449.230053 
L 187.183382 449.230053 
z
" clip-path="url(#p4bd75cc6f4)" style="fill: #ff0000"/>
   </g>
   <g id="patch_120">
    <path d="M 191.500597 450.72 
L 195.817812 450.72 
L 195.817812 448.485079 
L 191.500597 448.485079 
z
" clip-path="url(#p4bd75cc6f4)" style="fill: #ff0000"/>
   </g>
   <g id="patch_121">
    <path d="M 195.817812 450.72 
L 200.135027 450.72 
L 200.135027 449.975026 
L 195.817812 449.975026 
z
" clip-path="url(#p4bd75cc6f4)" style="fill: #ff0000"/>
   </g>
   <g id="patch_122">
    <path d="M 200.135027 450.72 
L 204.452241 450.72 
L 204.452241 448.485079 
L 200.135027 448.485079 
z
" clip-path="url(#p4bd75cc6f4)" style="fill: #ff0000"/>
   </g>
   <g id="patch_123">
    <path d="M 204.452241 450.72 
L 208.769456 450.72 
L 208.769456 450.72 
L 204.452241 450.72 
z
" clip-path="url(#p4bd75cc6f4)" style="fill: #ff0000"/>
   </g>
   <g id="patch_124">
    <path d="M 208.769456 450.72 
L 213.086671 450.72 
L 213.086671 449.230053 
L 208.769456 449.230053 
z
" clip-path="url(#p4bd75cc6f4)" style="fill: #ff0000"/>
   </g>
   <g id="patch_125">
    <path d="M 213.086671 450.72 
L 217.403885 450.72 
L 217.403885 447.740106 
L 213.086671 447.740106 
z
" clip-path="url(#p4bd75cc6f4)" style="fill: #ff0000"/>
   </g>
   <g id="patch_126">
    <path d="M 217.403885 450.72 
L 221.7211 450.72 
L 221.7211 447.740106 
L 217.403885 447.740106 
z
" clip-path="url(#p4bd75cc6f4)" style="fill: #ff0000"/>
   </g>
   <g id="patch_127">
    <path d="M 221.7211 450.72 
L 226.038315 450.72 
L 226.038315 448.485079 
L 221.7211 448.485079 
z
" clip-path="url(#p4bd75cc6f4)" style="fill: #ff0000"/>
   </g>
   <g id="patch_128">
    <path d="M 226.038315 450.72 
L 230.355529 450.72 
L 230.355529 447.740106 
L 226.038315 447.740106 
z
" clip-path="url(#p4bd75cc6f4)" style="fill: #ff0000"/>
   </g>
   <g id="patch_129">
    <path d="M 230.355529 450.72 
L 234.672744 450.72 
L 234.672744 446.250159 
L 230.355529 446.250159 
z
" clip-path="url(#p4bd75cc6f4)" style="fill: #ff0000"/>
   </g>
   <g id="patch_130">
    <path d="M 234.672744 450.72 
L 238.989959 450.72 
L 238.989959 446.995132 
L 234.672744 446.995132 
z
" clip-path="url(#p4bd75cc6f4)" style="fill: #ff0000"/>
   </g>
   <g id="patch_131">
    <path d="M 238.989959 450.72 
L 243.307174 450.72 
L 243.307174 445.505185 
L 238.989959 445.505185 
z
" clip-path="url(#p4bd75cc6f4)" style="fill: #ff0000"/>
   </g>
   <g id="patch_132">
    <path d="M 243.307174 450.72 
L 247.624388 450.72 
L 247.624388 444.015238 
L 243.307174 444.015238 
z
" clip-path="url(#p4bd75cc6f4)" style="fill: #ff0000"/>
   </g>
   <g id="patch_133">
    <path d="M 247.624388 450.72 
L 251.941603 450.72 
L 251.941603 445.505185 
L 247.624388 445.505185 
z
" clip-path="url(#p4bd75cc6f4)" style="fill: #ff0000"/>
   </g>
   <g id="patch_134">
    <path d="M 251.941603 450.72 
L 256.258818 450.72 
L 256.258818 444.015238 
L 251.941603 444.015238 
z
" clip-path="url(#p4bd75cc6f4)" style="fill: #ff0000"/>
   </g>
   <g id="patch_135">
    <path d="M 256.258818 450.72 
L 260.576032 450.72 
L 260.576032 438.800423 
L 256.258818 438.800423 
z
" clip-path="url(#p4bd75cc6f4)" style="fill: #ff0000"/>
   </g>
   <g id="patch_136">
    <path d="M 260.576032 450.72 
L 264.893247 450.72 
L 264.893247 441.035344 
L 260.576032 441.035344 
z
" clip-path="url(#p4bd75cc6f4)" style="fill: #ff0000"/>
   </g>
   <g id="patch_137">
    <path d="M 264.893247 450.72 
L 269.210462 450.72 
L 269.210462 438.05545 
L 264.893247 438.05545 
z
" clip-path="url(#p4bd75cc6f4)" style="fill: #ff0000"/>
   </g>
   <g id="patch_138">
    <path d="M 269.210462 450.72 
L 273.527676 450.72 
L 273.527676 437.310476 
L 269.210462 437.310476 
z
" clip-path="url(#p4bd75cc6f4)" style="fill: #ff0000"/>
   </g>
   <g id="patch_139">
    <path d="M 273.527676 450.72 
L 277.844891 450.72 
L 277.844891 434.330582 
L 273.527676 434.330582 
z
" clip-path="url(#p4bd75cc6f4)" style="fill: #ff0000"/>
   </g>
   <g id="patch_140">
    <path d="M 277.844891 450.72 
L 282.162106 450.72 
L 282.162106 432.095661 
L 277.844891 432.095661 
z
" clip-path="url(#p4bd75cc6f4)" style="fill: #ff0000"/>
   </g>
   <g id="patch_141">
    <path d="M 282.162106 450.72 
L 286.479321 450.72 
L 286.479321 424.645926 
L 282.162106 424.645926 
z
" clip-path="url(#p4bd75cc6f4)" style="fill: #ff0000"/>
   </g>
   <g id="patch_142">
    <path d="M 286.479321 450.72 
L 290.796535 450.72 
L 290.796535 434.330582 
L 286.479321 434.330582 
z
" clip-path="url(#p4bd75cc6f4)" style="fill: #ff0000"/>
   </g>
   <g id="patch_143">
    <path d="M 290.796535 450.72 
L 295.11375 450.72 
L 295.11375 446.995132 
L 290.796535 446.995132 
z
" clip-path="url(#p4bd75cc6f4)" style="fill: #ff0000"/>
   </g>
   <g id="patch_144">
    <path d="M 295.11375 450.72 
L 299.430965 450.72 
L 299.430965 450.72 
L 295.11375 450.72 
z
" clip-path="url(#p4bd75cc6f4)" style="fill: #ff0000"/>
   </g>
   <g id="patch_145">
    <path d="M 299.430965 450.72 
L 303.748179 450.72 
L 303.748179 450.72 
L 299.430965 450.72 
z
" clip-path="url(#p4bd75cc6f4)" style="fill: #ff0000"/>
   </g>
   <g id="patch_146">
    <path d="M 303.748179 450.72 
L 308.065394 450.72 
L 308.065394 449.975026 
L 303.748179 449.975026 
z
" clip-path="url(#p4bd75cc6f4)" style="fill: #ff0000"/>
   </g>
   <g id="patch_147">
    <path d="M 308.065394 450.72 
L 312.382609 450.72 
L 312.382609 439.545397 
L 308.065394 439.545397 
z
" clip-path="url(#p4bd75cc6f4)" style="fill: #ff0000"/>
   </g>
   <g id="patch_148">
    <path d="M 312.382609 450.72 
L 316.699824 450.72 
L 316.699824 444.015238 
L 312.382609 444.015238 
z
" clip-path="url(#p4bd75cc6f4)" style="fill: #ff0000"/>
   </g>
   <g id="patch_149">
    <path d="M 316.699824 450.72 
L 321.017038 450.72 
L 321.017038 441.035344 
L 316.699824 441.035344 
z
" clip-path="url(#p4bd75cc6f4)" style="fill: #ff0000"/>
   </g>
   <g id="patch_150">
    <path d="M 321.017038 450.72 
L 325.334253 450.72 
L 325.334253 446.250159 
L 321.017038 446.250159 
z
" clip-path="url(#p4bd75cc6f4)" style="fill: #ff0000"/>
   </g>
   <g id="patch_151">
    <path d="M 325.334253 450.72 
L 329.651468 450.72 
L 329.651468 445.505185 
L 325.334253 445.505185 
z
" clip-path="url(#p4bd75cc6f4)" style="fill: #ff0000"/>
   </g>
   <g id="patch_152">
    <path d="M 329.651468 450.72 
L 333.968682 450.72 
L 333.968682 446.250159 
L 329.651468 446.250159 
z
" clip-path="url(#p4bd75cc6f4)" style="fill: #ff0000"/>
   </g>
   <g id="patch_153">
    <path d="M 333.968682 450.72 
L 338.285897 450.72 
L 338.285897 446.995132 
L 333.968682 446.995132 
z
" clip-path="url(#p4bd75cc6f4)" style="fill: #ff0000"/>
   </g>
   <g id="patch_154">
    <path d="M 338.285897 450.72 
L 342.603112 450.72 
L 342.603112 449.230053 
L 338.285897 449.230053 
z
" clip-path="url(#p4bd75cc6f4)" style="fill: #ff0000"/>
   </g>
   <g id="patch_155">
    <path d="M 342.603112 450.72 
L 346.920326 450.72 
L 346.920326 448.485079 
L 342.603112 448.485079 
z
" clip-path="url(#p4bd75cc6f4)" style="fill: #ff0000"/>
   </g>
   <g id="patch_156">
    <path d="M 346.920326 450.72 
L 351.237541 450.72 
L 351.237541 450.72 
L 346.920326 450.72 
z
" clip-path="url(#p4bd75cc6f4)" style="fill: #ff0000"/>
   </g>
   <g id="patch_157">
    <path d="M 351.237541 450.72 
L 355.554756 450.72 
L 355.554756 450.72 
L 351.237541 450.72 
z
" clip-path="url(#p4bd75cc6f4)" style="fill: #ff0000"/>
   </g>
   <g id="patch_158">
    <path d="M 355.554756 450.72 
L 359.871971 450.72 
L 359.871971 449.230053 
L 355.554756 449.230053 
z
" clip-path="url(#p4bd75cc6f4)" style="fill: #ff0000"/>
   </g>
   <g id="patch_159">
    <path d="M 359.871971 450.72 
L 364.189185 450.72 
L 364.189185 447.740106 
L 359.871971 447.740106 
z
" clip-path="url(#p4bd75cc6f4)" style="fill: #ff0000"/>
   </g>
   <g id="patch_160">
    <path d="M 364.189185 450.72 
L 368.5064 450.72 
L 368.5064 449.975026 
L 364.189185 449.975026 
z
" clip-path="url(#p4bd75cc6f4)" style="fill: #ff0000"/>
   </g>
   <g id="patch_161">
    <path d="M 368.5064 450.72 
L 372.823615 450.72 
L 372.823615 449.975026 
L 368.5064 449.975026 
z
" clip-path="url(#p4bd75cc6f4)" style="fill: #ff0000"/>
   </g>
   <g id="patch_162">
    <path d="M 372.823615 450.72 
L 377.140829 450.72 
L 377.140829 449.230053 
L 372.823615 449.230053 
z
" clip-path="url(#p4bd75cc6f4)" style="fill: #ff0000"/>
   </g>
   <g id="patch_163">
    <path d="M 377.140829 450.72 
L 381.458044 450.72 
L 381.458044 449.230053 
L 377.140829 449.230053 
z
" clip-path="url(#p4bd75cc6f4)" style="fill: #ff0000"/>
   </g>
   <g id="patch_164">
    <path d="M 381.458044 450.72 
L 385.775259 450.72 
L 385.775259 449.975026 
L 381.458044 449.975026 
z
" clip-path="url(#p4bd75cc6f4)" style="fill: #ff0000"/>
   </g>
   <g id="patch_165">
    <path d="M 385.775259 450.72 
L 390.092473 450.72 
L 390.092473 450.72 
L 385.775259 450.72 
z
" clip-path="url(#p4bd75cc6f4)" style="fill: #ff0000"/>
   </g>
   <g id="patch_166">
    <path d="M 390.092473 450.72 
L 394.409688 450.72 
L 394.409688 450.72 
L 390.092473 450.72 
z
" clip-path="url(#p4bd75cc6f4)" style="fill: #ff0000"/>
   </g>
   <g id="patch_167">
    <path d="M 394.409688 450.72 
L 398.726903 450.72 
L 398.726903 449.975026 
L 394.409688 449.975026 
z
" clip-path="url(#p4bd75cc6f4)" style="fill: #ff0000"/>
   </g>
   <g id="patch_168">
    <path d="M 398.726903 450.72 
L 403.044118 450.72 
L 403.044118 448.485079 
L 398.726903 448.485079 
z
" clip-path="url(#p4bd75cc6f4)" style="fill: #ff0000"/>
   </g>
   <g id="patch_169">
    <path d="M 403.044118 450.72 
L 407.361332 450.72 
L 407.361332 450.72 
L 403.044118 450.72 
z
" clip-path="url(#p4bd75cc6f4)" style="fill: #ff0000"/>
   </g>
   <g id="patch_170">
    <path d="M 407.361332 450.72 
L 411.678547 450.72 
L 411.678547 450.72 
L 407.361332 450.72 
z
" clip-path="url(#p4bd75cc6f4)" style="fill: #ff0000"/>
   </g>
   <g id="patch_171">
    <path d="M 411.678547 450.72 
L 415.995762 450.72 
L 415.995762 450.72 
L 411.678547 450.72 
z
" clip-path="url(#p4bd75cc6f4)" style="fill: #ff0000"/>
   </g>
   <g id="patch_172">
    <path d="M 415.995762 450.72 
L 420.312976 450.72 
L 420.312976 450.72 
L 415.995762 450.72 
z
" clip-path="url(#p4bd75cc6f4)" style="fill: #ff0000"/>
   </g>
   <g id="patch_173">
    <path d="M 420.312976 450.72 
L 424.630191 450.72 
L 424.630191 450.72 
L 420.312976 450.72 
z
" clip-path="url(#p4bd75cc6f4)" style="fill: #ff0000"/>
   </g>
   <g id="patch_174">
    <path d="M 424.630191 450.72 
L 428.947406 450.72 
L 428.947406 450.72 
L 424.630191 450.72 
z
" clip-path="url(#p4bd75cc6f4)" style="fill: #ff0000"/>
   </g>
   <g id="patch_175">
    <path d="M 428.947406 450.72 
L 433.26462 450.72 
L 433.26462 450.72 
L 428.947406 450.72 
z
" clip-path="url(#p4bd75cc6f4)" style="fill: #ff0000"/>
   </g>
   <g id="patch_176">
    <path d="M 433.26462 450.72 
L 437.581835 450.72 
L 437.581835 450.72 
L 433.26462 450.72 
z
" clip-path="url(#p4bd75cc6f4)" style="fill: #ff0000"/>
   </g>
   <g id="patch_177">
    <path d="M 437.581835 450.72 
L 441.89905 450.72 
L 441.89905 450.72 
L 437.581835 450.72 
z
" clip-path="url(#p4bd75cc6f4)" style="fill: #ff0000"/>
   </g>
   <g id="patch_178">
    <path d="M 441.89905 450.72 
L 446.216265 450.72 
L 446.216265 450.72 
L 441.89905 450.72 
z
" clip-path="url(#p4bd75cc6f4)" style="fill: #ff0000"/>
   </g>
   <g id="patch_179">
    <path d="M 446.216265 450.72 
L 450.533479 450.72 
L 450.533479 450.72 
L 446.216265 450.72 
z
" clip-path="url(#p4bd75cc6f4)" style="fill: #ff0000"/>
   </g>
   <g id="patch_180">
    <path d="M 450.533479 450.72 
L 454.850694 450.72 
L 454.850694 450.72 
L 450.533479 450.72 
z
" clip-path="url(#p4bd75cc6f4)" style="fill: #ff0000"/>
   </g>
   <g id="patch_181">
    <path d="M 454.850694 450.72 
L 459.167909 450.72 
L 459.167909 450.72 
L 454.850694 450.72 
z
" clip-path="url(#p4bd75cc6f4)" style="fill: #ff0000"/>
   </g>
   <g id="patch_182">
    <path d="M 459.167909 450.72 
L 463.485123 450.72 
L 463.485123 450.72 
L 459.167909 450.72 
z
" clip-path="url(#p4bd75cc6f4)" style="fill: #ff0000"/>
   </g>
   <g id="patch_183">
    <path d="M 463.485123 450.72 
L 467.802338 450.72 
L 467.802338 450.72 
L 463.485123 450.72 
z
" clip-path="url(#p4bd75cc6f4)" style="fill: #ff0000"/>
   </g>
   <g id="patch_184">
    <path d="M 467.802338 450.72 
L 472.119553 450.72 
L 472.119553 450.72 
L 467.802338 450.72 
z
" clip-path="url(#p4bd75cc6f4)" style="fill: #ff0000"/>
   </g>
   <g id="patch_185">
    <path d="M 472.119553 450.72 
L 476.436767 450.72 
L 476.436767 450.72 
L 472.119553 450.72 
z
" clip-path="url(#p4bd75cc6f4)" style="fill: #ff0000"/>
   </g>
   <g id="patch_186">
    <path d="M 476.436767 450.72 
L 480.753982 450.72 
L 480.753982 450.72 
L 476.436767 450.72 
z
" clip-path="url(#p4bd75cc6f4)" style="fill: #ff0000"/>
   </g>
   <g id="patch_187">
    <path d="M 480.753982 450.72 
L 485.071197 450.72 
L 485.071197 450.72 
L 480.753982 450.72 
z
" clip-path="url(#p4bd75cc6f4)" style="fill: #ff0000"/>
   </g>
   <g id="patch_188">
    <path d="M 485.071197 450.72 
L 489.388412 450.72 
L 489.388412 450.72 
L 485.071197 450.72 
z
" clip-path="url(#p4bd75cc6f4)" style="fill: #ff0000"/>
   </g>
   <g id="patch_189">
    <path d="M 489.388412 450.72 
L 493.705626 450.72 
L 493.705626 450.72 
L 489.388412 450.72 
z
" clip-path="url(#p4bd75cc6f4)" style="fill: #ff0000"/>
   </g>
   <g id="patch_190">
    <path d="M 493.705626 450.72 
L 498.022841 450.72 
L 498.022841 450.72 
L 493.705626 450.72 
z
" clip-path="url(#p4bd75cc6f4)" style="fill: #ff0000"/>
   </g>
   <g id="matplotlib.axis_1">
    <g id="xtick_1">
     <g id="line2d_1">
      <defs>
       <path id="m08df1a6b3f" d="M 0 0 
L 0 3.5 
" style="stroke: #000000; stroke-width: 0.8"/>
      </defs>
      <g>
       <use xlink:href="#m08df1a6b3f" x="126.742377" y="450.72" style="stroke: #000000; stroke-width: 0.8"/>
      </g>
     </g>
     <g id="text_1">
      <!-- −2 -->
      <g transform="translate(113.474408 471.397187) scale(0.18 -0.18)">
       <defs>
        <path id="DejaVuSans-2212" d="M 678 2272 
L 4684 2272 
L 4684 1741 
L 678 1741 
L 678 2272 
z
" transform="scale(0.015625)"/>
        <path id="DejaVuSans-32" d="M 1228 531 
L 3431 531 
L 3431 0 
L 469 0 
L 469 531 
Q 828 903 1448 1529 
Q 2069 2156 2228 2338 
Q 2531 2678 2651 2914 
Q 2772 3150 2772 3378 
Q 2772 3750 2511 3984 
Q 2250 4219 1831 4219 
Q 1534 4219 1204 4116 
Q 875 4013 500 3803 
L 500 4441 
Q 881 4594 1212 4672 
Q 1544 4750 1819 4750 
Q 2544 4750 2975 4387 
Q 3406 4025 3406 3419 
Q 3406 3131 3298 2873 
Q 3191 2616 2906 2266 
Q 2828 2175 2409 1742 
Q 1991 1309 1228 531 
z
" transform="scale(0.015625)"/>
       </defs>
       <use xlink:href="#DejaVuSans-2212"/>
       <use xlink:href="#DejaVuSans-32" transform="translate(83.789062 0)"/>
      </g>
     </g>
    </g>
    <g id="xtick_2">
     <g id="line2d_2">
      <g>
       <use xlink:href="#m08df1a6b3f" x="213.086671" y="450.72" style="stroke: #000000; stroke-width: 0.8"/>
      </g>
     </g>
     <g id="text_2">
      <!-- −1 -->
      <g transform="translate(199.818702 471.397187) scale(0.18 -0.18)">
       <defs>
        <path id="DejaVuSans-31" d="M 794 531 
L 1825 531 
L 1825 4091 
L 703 3866 
L 703 4441 
L 1819 4666 
L 2450 4666 
L 2450 531 
L 3481 531 
L 3481 0 
L 794 0 
L 794 531 
z
" transform="scale(0.015625)"/>
       </defs>
       <use xlink:href="#DejaVuSans-2212"/>
       <use xlink:href="#DejaVuSans-31" transform="translate(83.789062 0)"/>
      </g>
     </g>
    </g>
    <g id="xtick_3">
     <g id="line2d_3">
      <g>
       <use xlink:href="#m08df1a6b3f" x="299.430965" y="450.72" style="stroke: #000000; stroke-width: 0.8"/>
      </g>
     </g>
     <g id="text_3">
      <!-- 0 -->
      <g transform="translate(293.704715 471.397187) scale(0.18 -0.18)">
       <defs>
        <path id="DejaVuSans-30" d="M 2034 4250 
Q 1547 4250 1301 3770 
Q 1056 3291 1056 2328 
Q 1056 1369 1301 889 
Q 1547 409 2034 409 
Q 2525 409 2770 889 
Q 3016 1369 3016 2328 
Q 3016 3291 2770 3770 
Q 2525 4250 2034 4250 
z
M 2034 4750 
Q 2819 4750 3233 4129 
Q 3647 3509 3647 2328 
Q 3647 1150 3233 529 
Q 2819 -91 2034 -91 
Q 1250 -91 836 529 
Q 422 1150 422 2328 
Q 422 3509 836 4129 
Q 1250 4750 2034 4750 
z
" transform="scale(0.015625)"/>
       </defs>
       <use xlink:href="#DejaVuSans-30"/>
      </g>
     </g>
    </g>
    <g id="xtick_4">
     <g id="line2d_4">
      <g>
       <use xlink:href="#m08df1a6b3f" x="385.775259" y="450.72" style="stroke: #000000; stroke-width: 0.8"/>
      </g>
     </g>
     <g id="text_4">
      <!-- 1 -->
      <g transform="translate(380.049009 471.397187) scale(0.18 -0.18)">
       <use xlink:href="#DejaVuSans-31"/>
      </g>
     </g>
    </g>
    <g id="xtick_5">
     <g id="line2d_5">
      <g>
       <use xlink:href="#m08df1a6b3f" x="472.119553" y="450.72" style="stroke: #000000; stroke-width: 0.8"/>
      </g>
     </g>
     <g id="text_5">
      <!-- 2 -->
      <g transform="translate(466.393303 471.397187) scale(0.18 -0.18)">
       <use xlink:href="#DejaVuSans-32"/>
      </g>
     </g>
    </g>
    <g id="text_6">
     <!-- Fold Change, log2 -->
     <g transform="translate(193.785625 494.3375) scale(0.2 -0.2)">
      <defs>
       <path id="DejaVuSans-Bold-46" d="M 588 4666 
L 3834 4666 
L 3834 3756 
L 1791 3756 
L 1791 2888 
L 3713 2888 
L 3713 1978 
L 1791 1978 
L 1791 0 
L 588 0 
L 588 4666 
z
" transform="scale(0.015625)"/>
       <path id="DejaVuSans-Bold-6f" d="M 2203 2784 
Q 1831 2784 1636 2517 
Q 1441 2250 1441 1747 
Q 1441 1244 1636 976 
Q 1831 709 2203 709 
Q 2569 709 2762 976 
Q 2956 1244 2956 1747 
Q 2956 2250 2762 2517 
Q 2569 2784 2203 2784 
z
M 2203 3584 
Q 3106 3584 3614 3096 
Q 4122 2609 4122 1747 
Q 4122 884 3614 396 
Q 3106 -91 2203 -91 
Q 1297 -91 786 396 
Q 275 884 275 1747 
Q 275 2609 786 3096 
Q 1297 3584 2203 3584 
z
" transform="scale(0.015625)"/>
       <path id="DejaVuSans-Bold-6c" d="M 538 4863 
L 1656 4863 
L 1656 0 
L 538 0 
L 538 4863 
z
" transform="scale(0.015625)"/>
       <path id="DejaVuSans-Bold-64" d="M 2919 2988 
L 2919 4863 
L 4044 4863 
L 4044 0 
L 2919 0 
L 2919 506 
Q 2688 197 2409 53 
Q 2131 -91 1766 -91 
Q 1119 -91 703 423 
Q 288 938 288 1747 
Q 288 2556 703 3070 
Q 1119 3584 1766 3584 
Q 2128 3584 2408 3439 
Q 2688 3294 2919 2988 
z
M 2181 722 
Q 2541 722 2730 984 
Q 2919 1247 2919 1747 
Q 2919 2247 2730 2509 
Q 2541 2772 2181 2772 
Q 1825 2772 1636 2509 
Q 1447 2247 1447 1747 
Q 1447 1247 1636 984 
Q 1825 722 2181 722 
z
" transform="scale(0.015625)"/>
       <path id="DejaVuSans-Bold-20" transform="scale(0.015625)"/>
       <path id="DejaVuSans-Bold-43" d="M 4288 256 
Q 3956 84 3597 -3 
Q 3238 -91 2847 -91 
Q 1681 -91 1000 561 
Q 319 1213 319 2328 
Q 319 3447 1000 4098 
Q 1681 4750 2847 4750 
Q 3238 4750 3597 4662 
Q 3956 4575 4288 4403 
L 4288 3438 
Q 3953 3666 3628 3772 
Q 3303 3878 2944 3878 
Q 2300 3878 1931 3465 
Q 1563 3053 1563 2328 
Q 1563 1606 1931 1193 
Q 2300 781 2944 781 
Q 3303 781 3628 887 
Q 3953 994 4288 1222 
L 4288 256 
z
" transform="scale(0.015625)"/>
       <path id="DejaVuSans-Bold-68" d="M 4056 2131 
L 4056 0 
L 2931 0 
L 2931 347 
L 2931 1625 
Q 2931 2084 2911 2256 
Q 2891 2428 2841 2509 
Q 2775 2619 2662 2680 
Q 2550 2741 2406 2741 
Q 2056 2741 1856 2470 
Q 1656 2200 1656 1722 
L 1656 0 
L 538 0 
L 538 4863 
L 1656 4863 
L 1656 2988 
Q 1909 3294 2193 3439 
Q 2478 3584 2822 3584 
Q 3428 3584 3742 3212 
Q 4056 2841 4056 2131 
z
" transform="scale(0.015625)"/>
       <path id="DejaVuSans-Bold-61" d="M 2106 1575 
Q 1756 1575 1579 1456 
Q 1403 1338 1403 1106 
Q 1403 894 1545 773 
Q 1688 653 1941 653 
Q 2256 653 2472 879 
Q 2688 1106 2688 1447 
L 2688 1575 
L 2106 1575 
z
M 3816 1997 
L 3816 0 
L 2688 0 
L 2688 519 
Q 2463 200 2181 54 
Q 1900 -91 1497 -91 
Q 953 -91 614 226 
Q 275 544 275 1050 
Q 275 1666 698 1953 
Q 1122 2241 2028 2241 
L 2688 2241 
L 2688 2328 
Q 2688 2594 2478 2717 
Q 2269 2841 1825 2841 
Q 1466 2841 1156 2769 
Q 847 2697 581 2553 
L 581 3406 
Q 941 3494 1303 3539 
Q 1666 3584 2028 3584 
Q 2975 3584 3395 3211 
Q 3816 2838 3816 1997 
z
" transform="scale(0.015625)"/>
       <path id="DejaVuSans-Bold-6e" d="M 4056 2131 
L 4056 0 
L 2931 0 
L 2931 347 
L 2931 1631 
Q 2931 2084 2911 2256 
Q 2891 2428 2841 2509 
Q 2775 2619 2662 2680 
Q 2550 2741 2406 2741 
Q 2056 2741 1856 2470 
Q 1656 2200 1656 1722 
L 1656 0 
L 538 0 
L 538 3500 
L 1656 3500 
L 1656 2988 
Q 1909 3294 2193 3439 
Q 2478 3584 2822 3584 
Q 3428 3584 3742 3212 
Q 4056 2841 4056 2131 
z
" transform="scale(0.015625)"/>
       <path id="DejaVuSans-Bold-67" d="M 2919 594 
Q 2688 288 2409 144 
Q 2131 0 1766 0 
Q 1125 0 706 504 
Q 288 1009 288 1791 
Q 288 2575 706 3076 
Q 1125 3578 1766 3578 
Q 2131 3578 2409 3434 
Q 2688 3291 2919 2981 
L 2919 3500 
L 4044 3500 
L 4044 353 
Q 4044 -491 3511 -936 
Q 2978 -1381 1966 -1381 
Q 1638 -1381 1331 -1331 
Q 1025 -1281 716 -1178 
L 716 -306 
Q 1009 -475 1290 -558 
Q 1572 -641 1856 -641 
Q 2406 -641 2662 -400 
Q 2919 -159 2919 353 
L 2919 594 
z
M 2181 2772 
Q 1834 2772 1640 2515 
Q 1447 2259 1447 1791 
Q 1447 1309 1634 1061 
Q 1822 813 2181 813 
Q 2531 813 2725 1069 
Q 2919 1325 2919 1791 
Q 2919 2259 2725 2515 
Q 2531 2772 2181 2772 
z
" transform="scale(0.015625)"/>
       <path id="DejaVuSans-Bold-65" d="M 4031 1759 
L 4031 1441 
L 1416 1441 
Q 1456 1047 1700 850 
Q 1944 653 2381 653 
Q 2734 653 3104 758 
Q 3475 863 3866 1075 
L 3866 213 
Q 3469 63 3072 -14 
Q 2675 -91 2278 -91 
Q 1328 -91 801 392 
Q 275 875 275 1747 
Q 275 2603 792 3093 
Q 1309 3584 2216 3584 
Q 3041 3584 3536 3087 
Q 4031 2591 4031 1759 
z
M 2881 2131 
Q 2881 2450 2695 2645 
Q 2509 2841 2209 2841 
Q 1884 2841 1681 2658 
Q 1478 2475 1428 2131 
L 2881 2131 
z
" transform="scale(0.015625)"/>
       <path id="DejaVuSans-Bold-2c" d="M 653 1209 
L 1778 1209 
L 1778 256 
L 1006 -909 
L 341 -909 
L 653 256 
L 653 1209 
z
" transform="scale(0.015625)"/>
       <path id="DejaVuSans-Bold-32" d="M 1844 884 
L 3897 884 
L 3897 0 
L 506 0 
L 506 884 
L 2209 2388 
Q 2438 2594 2547 2791 
Q 2656 2988 2656 3200 
Q 2656 3528 2436 3728 
Q 2216 3928 1850 3928 
Q 1569 3928 1234 3808 
Q 900 3688 519 3450 
L 519 4475 
Q 925 4609 1322 4679 
Q 1719 4750 2100 4750 
Q 2938 4750 3402 4381 
Q 3866 4013 3866 3353 
Q 3866 2972 3669 2642 
Q 3472 2313 2841 1759 
L 1844 884 
z
" transform="scale(0.015625)"/>
      </defs>
      <use xlink:href="#DejaVuSans-Bold-46"/>
      <use xlink:href="#DejaVuSans-Bold-6f" transform="translate(64.310547 0)"/>
      <use xlink:href="#DejaVuSans-Bold-6c" transform="translate(133.011719 0)"/>
      <use xlink:href="#DejaVuSans-Bold-64" transform="translate(167.289062 0)"/>
      <use xlink:href="#DejaVuSans-Bold-20" transform="translate(238.871094 0)"/>
      <use xlink:href="#DejaVuSans-Bold-43" transform="translate(273.685547 0)"/>
      <use xlink:href="#DejaVuSans-Bold-68" transform="translate(347.074219 0)"/>
      <use xlink:href="#DejaVuSans-Bold-61" transform="translate(418.265625 0)"/>
      <use xlink:href="#DejaVuSans-Bold-6e" transform="translate(485.746094 0)"/>
      <use xlink:href="#DejaVuSans-Bold-67" transform="translate(556.9375 0)"/>
      <use xlink:href="#DejaVuSans-Bold-65" transform="translate(628.519531 0)"/>
      <use xlink:href="#DejaVuSans-Bold-2c" transform="translate(696.341797 0)"/>
      <use xlink:href="#DejaVuSans-Bold-20" transform="translate(734.330078 0)"/>
      <use xlink:href="#DejaVuSans-Bold-6c" transform="translate(769.144531 0)"/>
      <use xlink:href="#DejaVuSans-Bold-6f" transform="translate(803.421875 0)"/>
      <use xlink:href="#DejaVuSans-Bold-67" transform="translate(872.123047 0)"/>
      <use xlink:href="#DejaVuSans-Bold-32" transform="translate(943.705078 0)"/>
     </g>
    </g>
   </g>
   <g id="matplotlib.axis_2">
    <g id="ytick_1">
     <g id="line2d_6">
      <defs>
       <path id="me9c0e127ff" d="M 0 0 
L -3.5 0 
" style="stroke: #000000; stroke-width: 0.8"/>
      </defs>
      <g>
       <use xlink:href="#me9c0e127ff" x="71.91375" y="450.72" style="stroke: #000000; stroke-width: 0.8"/>
      </g>
     </g>
     <g id="text_7">
      <!-- 0 -->
      <g transform="translate(53.46125 457.558594) scale(0.18 -0.18)">
       <use xlink:href="#DejaVuSans-30"/>
      </g>
     </g>
    </g>
    <g id="ytick_2">
     <g id="line2d_7">
      <g>
       <use xlink:href="#me9c0e127ff" x="71.91375" y="376.222646" style="stroke: #000000; stroke-width: 0.8"/>
      </g>
     </g>
     <g id="text_8">
      <!-- 100 -->
      <g transform="translate(30.55625 383.061239) scale(0.18 -0.18)">
       <use xlink:href="#DejaVuSans-31"/>
       <use xlink:href="#DejaVuSans-30" transform="translate(63.623047 0)"/>
       <use xlink:href="#DejaVuSans-30" transform="translate(127.246094 0)"/>
      </g>
     </g>
    </g>
    <g id="ytick_3">
     <g id="line2d_8">
      <g>
       <use xlink:href="#me9c0e127ff" x="71.91375" y="301.725291" style="stroke: #000000; stroke-width: 0.8"/>
      </g>
     </g>
     <g id="text_9">
      <!-- 200 -->
      <g transform="translate(30.55625 308.563885) scale(0.18 -0.18)">
       <use xlink:href="#DejaVuSans-32"/>
       <use xlink:href="#DejaVuSans-30" transform="translate(63.623047 0)"/>
       <use xlink:href="#DejaVuSans-30" transform="translate(127.246094 0)"/>
      </g>
     </g>
    </g>
    <g id="ytick_4">
     <g id="line2d_9">
      <g>
       <use xlink:href="#me9c0e127ff" x="71.91375" y="227.227937" style="stroke: #000000; stroke-width: 0.8"/>
      </g>
     </g>
     <g id="text_10">
      <!-- 300 -->
      <g transform="translate(30.55625 234.06653) scale(0.18 -0.18)">
       <defs>
        <path id="DejaVuSans-33" d="M 2597 2516 
Q 3050 2419 3304 2112 
Q 3559 1806 3559 1356 
Q 3559 666 3084 287 
Q 2609 -91 1734 -91 
Q 1441 -91 1130 -33 
Q 819 25 488 141 
L 488 750 
Q 750 597 1062 519 
Q 1375 441 1716 441 
Q 2309 441 2620 675 
Q 2931 909 2931 1356 
Q 2931 1769 2642 2001 
Q 2353 2234 1838 2234 
L 1294 2234 
L 1294 2753 
L 1863 2753 
Q 2328 2753 2575 2939 
Q 2822 3125 2822 3475 
Q 2822 3834 2567 4026 
Q 2313 4219 1838 4219 
Q 1578 4219 1281 4162 
Q 984 4106 628 3988 
L 628 4550 
Q 988 4650 1302 4700 
Q 1616 4750 1894 4750 
Q 2613 4750 3031 4423 
Q 3450 4097 3450 3541 
Q 3450 3153 3228 2886 
Q 3006 2619 2597 2516 
z
" transform="scale(0.015625)"/>
       </defs>
       <use xlink:href="#DejaVuSans-33"/>
       <use xlink:href="#DejaVuSans-30" transform="translate(63.623047 0)"/>
       <use xlink:href="#DejaVuSans-30" transform="translate(127.246094 0)"/>
      </g>
     </g>
    </g>
    <g id="ytick_5">
     <g id="line2d_10">
      <g>
       <use xlink:href="#me9c0e127ff" x="71.91375" y="152.730582" style="stroke: #000000; stroke-width: 0.8"/>
      </g>
     </g>
     <g id="text_11">
      <!-- 400 -->
      <g transform="translate(30.55625 159.569176) scale(0.18 -0.18)">
       <defs>
        <path id="DejaVuSans-34" d="M 2419 4116 
L 825 1625 
L 2419 1625 
L 2419 4116 
z
M 2253 4666 
L 3047 4666 
L 3047 1625 
L 3713 1625 
L 3713 1100 
L 3047 1100 
L 3047 0 
L 2419 0 
L 2419 1100 
L 313 1100 
L 313 1709 
L 2253 4666 
z
" transform="scale(0.015625)"/>
       </defs>
       <use xlink:href="#DejaVuSans-34"/>
       <use xlink:href="#DejaVuSans-30" transform="translate(63.623047 0)"/>
       <use xlink:href="#DejaVuSans-30" transform="translate(127.246094 0)"/>
      </g>
     </g>
    </g>
    <g id="ytick_6">
     <g id="line2d_11">
      <g>
       <use xlink:href="#me9c0e127ff" x="71.91375" y="78.233228" style="stroke: #000000; stroke-width: 0.8"/>
      </g>
     </g>
     <g id="text_12">
      <!-- 500 -->
      <g transform="translate(30.55625 85.071821) scale(0.18 -0.18)">
       <defs>
        <path id="DejaVuSans-35" d="M 691 4666 
L 3169 4666 
L 3169 4134 
L 1269 4134 
L 1269 2991 
Q 1406 3038 1543 3061 
Q 1681 3084 1819 3084 
Q 2600 3084 3056 2656 
Q 3513 2228 3513 1497 
Q 3513 744 3044 326 
Q 2575 -91 1722 -91 
Q 1428 -91 1123 -41 
Q 819 9 494 109 
L 494 744 
Q 775 591 1075 516 
Q 1375 441 1709 441 
Q 2250 441 2565 725 
Q 2881 1009 2881 1497 
Q 2881 1984 2565 2268 
Q 2250 2553 1709 2553 
Q 1456 2553 1204 2497 
Q 953 2441 691 2322 
L 691 4666 
z
" transform="scale(0.015625)"/>
       </defs>
       <use xlink:href="#DejaVuSans-35"/>
       <use xlink:href="#DejaVuSans-30" transform="translate(63.623047 0)"/>
       <use xlink:href="#DejaVuSans-30" transform="translate(127.246094 0)"/>
      </g>
     </g>
    </g>
    <g id="text_13">
     <!-- #cCREs -->
     <g transform="translate(22.396875 271.089687) rotate(-90) scale(0.2 -0.2)">
      <defs>
       <path id="DejaVuSans-Bold-23" d="M 2847 4594 
L 2547 3391 
L 3372 3391 
L 3675 4594 
L 4366 4594 
L 4063 3391 
L 4928 3391 
L 4928 2725 
L 3897 2725 
L 3681 1869 
L 4569 1869 
L 4569 1197 
L 3519 1197 
L 3219 0 
L 2528 0 
L 2828 1197 
L 2003 1197 
L 1703 0 
L 1006 0 
L 1306 1197 
L 434 1197 
L 434 1869 
L 1459 1869 
L 1678 2725 
L 794 2725 
L 794 3391 
L 1850 3391 
L 2150 4594 
L 2847 4594 
z
M 3200 2725 
L 2375 2725 
L 2156 1869 
L 2981 1869 
L 3200 2725 
z
" transform="scale(0.015625)"/>
       <path id="DejaVuSans-Bold-63" d="M 3366 3391 
L 3366 2478 
Q 3138 2634 2908 2709 
Q 2678 2784 2431 2784 
Q 1963 2784 1702 2511 
Q 1441 2238 1441 1747 
Q 1441 1256 1702 982 
Q 1963 709 2431 709 
Q 2694 709 2930 787 
Q 3166 866 3366 1019 
L 3366 103 
Q 3103 6 2833 -42 
Q 2563 -91 2291 -91 
Q 1344 -91 809 395 
Q 275 881 275 1747 
Q 275 2613 809 3098 
Q 1344 3584 2291 3584 
Q 2566 3584 2833 3536 
Q 3100 3488 3366 3391 
z
" transform="scale(0.015625)"/>
       <path id="DejaVuSans-Bold-52" d="M 2297 2597 
Q 2675 2597 2839 2737 
Q 3003 2878 3003 3200 
Q 3003 3519 2839 3656 
Q 2675 3794 2297 3794 
L 1791 3794 
L 1791 2597 
L 2297 2597 
z
M 1791 1766 
L 1791 0 
L 588 0 
L 588 4666 
L 2425 4666 
Q 3347 4666 3776 4356 
Q 4206 4047 4206 3378 
Q 4206 2916 3982 2619 
Q 3759 2322 3309 2181 
Q 3556 2125 3751 1926 
Q 3947 1728 4147 1325 
L 4800 0 
L 3519 0 
L 2950 1159 
Q 2778 1509 2601 1637 
Q 2425 1766 2131 1766 
L 1791 1766 
z
" transform="scale(0.015625)"/>
       <path id="DejaVuSans-Bold-45" d="M 588 4666 
L 3834 4666 
L 3834 3756 
L 1791 3756 
L 1791 2888 
L 3713 2888 
L 3713 1978 
L 1791 1978 
L 1791 909 
L 3903 909 
L 3903 0 
L 588 0 
L 588 4666 
z
" transform="scale(0.015625)"/>
       <path id="DejaVuSans-Bold-73" d="M 3272 3391 
L 3272 2541 
Q 2913 2691 2578 2766 
Q 2244 2841 1947 2841 
Q 1628 2841 1473 2761 
Q 1319 2681 1319 2516 
Q 1319 2381 1436 2309 
Q 1553 2238 1856 2203 
L 2053 2175 
Q 2913 2066 3209 1816 
Q 3506 1566 3506 1031 
Q 3506 472 3093 190 
Q 2681 -91 1863 -91 
Q 1516 -91 1145 -36 
Q 775 19 384 128 
L 384 978 
Q 719 816 1070 734 
Q 1422 653 1784 653 
Q 2113 653 2278 743 
Q 2444 834 2444 1013 
Q 2444 1163 2330 1236 
Q 2216 1309 1875 1350 
L 1678 1375 
Q 931 1469 631 1722 
Q 331 1975 331 2491 
Q 331 3047 712 3315 
Q 1094 3584 1881 3584 
Q 2191 3584 2531 3537 
Q 2872 3491 3272 3391 
z
" transform="scale(0.015625)"/>
      </defs>
      <use xlink:href="#DejaVuSans-Bold-23"/>
      <use xlink:href="#DejaVuSans-Bold-63" transform="translate(83.789062 0)"/>
      <use xlink:href="#DejaVuSans-Bold-43" transform="translate(143.066406 0)"/>
      <use xlink:href="#DejaVuSans-Bold-52" transform="translate(216.455078 0)"/>
      <use xlink:href="#DejaVuSans-Bold-45" transform="translate(293.457031 0)"/>
      <use xlink:href="#DejaVuSans-Bold-73" transform="translate(361.767578 0)"/>
     </g>
    </g>
   </g>
   <g id="patch_191">
    <path d="M 71.91375 450.72 
L 71.91375 7.2 
" style="fill: none; stroke: #000000; stroke-linejoin: miter; stroke-linecap: square"/>
   </g>
   <g id="patch_192">
    <path d="M 71.91375 450.72 
L 518.31375 450.72 
" style="fill: none; stroke: #000000; stroke-linejoin: miter; stroke-linecap: square"/>
   </g>
   <g id="legend_1">
    <g id="patch_193">
     <path d="M 271.84875 74.44125 
L 505.71375 74.44125 
Q 509.31375 74.44125 509.31375 70.84125 
L 509.31375 19.8 
Q 509.31375 16.2 505.71375 16.2 
L 271.84875 16.2 
Q 268.24875 16.2 268.24875 19.8 
L 268.24875 70.84125 
Q 268.24875 74.44125 271.84875 74.44125 
L 271.84875 74.44125 
z
" style="fill: none; opacity: 0.8; stroke: #cccccc; stroke-linejoin: miter"/>
    </g>
    <g id="patch_194">
     <path d="M 275.44875 37.077187 
L 311.44875 37.077187 
L 311.44875 24.477187 
L 275.44875 24.477187 
z
" style="fill: #808080"/>
    </g>
    <g id="text_14">
     <!-- Active -->
     <g transform="translate(325.84875 37.077187) scale(0.18 -0.18)">
      <defs>
       <path id="DejaVuSans-41" d="M 2188 4044 
L 1331 1722 
L 3047 1722 
L 2188 4044 
z
M 1831 4666 
L 2547 4666 
L 4325 0 
L 3669 0 
L 3244 1197 
L 1141 1197 
L 716 0 
L 50 0 
L 1831 4666 
z
" transform="scale(0.015625)"/>
       <path id="DejaVuSans-63" d="M 3122 3366 
L 3122 2828 
Q 2878 2963 2633 3030 
Q 2388 3097 2138 3097 
Q 1578 3097 1268 2742 
Q 959 2388 959 1747 
Q 959 1106 1268 751 
Q 1578 397 2138 397 
Q 2388 397 2633 464 
Q 2878 531 3122 666 
L 3122 134 
Q 2881 22 2623 -34 
Q 2366 -91 2075 -91 
Q 1284 -91 818 406 
Q 353 903 353 1747 
Q 353 2603 823 3093 
Q 1294 3584 2113 3584 
Q 2378 3584 2631 3529 
Q 2884 3475 3122 3366 
z
" transform="scale(0.015625)"/>
       <path id="DejaVuSans-74" d="M 1172 4494 
L 1172 3500 
L 2356 3500 
L 2356 3053 
L 1172 3053 
L 1172 1153 
Q 1172 725 1289 603 
Q 1406 481 1766 481 
L 2356 481 
L 2356 0 
L 1766 0 
Q 1100 0 847 248 
Q 594 497 594 1153 
L 594 3053 
L 172 3053 
L 172 3500 
L 594 3500 
L 594 4494 
L 1172 4494 
z
" transform="scale(0.015625)"/>
       <path id="DejaVuSans-69" d="M 603 3500 
L 1178 3500 
L 1178 0 
L 603 0 
L 603 3500 
z
M 603 4863 
L 1178 4863 
L 1178 4134 
L 603 4134 
L 603 4863 
z
" transform="scale(0.015625)"/>
       <path id="DejaVuSans-76" d="M 191 3500 
L 800 3500 
L 1894 563 
L 2988 3500 
L 3597 3500 
L 2284 0 
L 1503 0 
L 191 3500 
z
" transform="scale(0.015625)"/>
       <path id="DejaVuSans-65" d="M 3597 1894 
L 3597 1613 
L 953 1613 
Q 991 1019 1311 708 
Q 1631 397 2203 397 
Q 2534 397 2845 478 
Q 3156 559 3463 722 
L 3463 178 
Q 3153 47 2828 -22 
Q 2503 -91 2169 -91 
Q 1331 -91 842 396 
Q 353 884 353 1716 
Q 353 2575 817 3079 
Q 1281 3584 2069 3584 
Q 2775 3584 3186 3129 
Q 3597 2675 3597 1894 
z
M 3022 2063 
Q 3016 2534 2758 2815 
Q 2500 3097 2075 3097 
Q 1594 3097 1305 2825 
Q 1016 2553 972 2059 
L 3022 2063 
z
" transform="scale(0.015625)"/>
      </defs>
      <use xlink:href="#DejaVuSans-41"/>
      <use xlink:href="#DejaVuSans-63" transform="translate(66.658203 0)"/>
      <use xlink:href="#DejaVuSans-74" transform="translate(121.638672 0)"/>
      <use xlink:href="#DejaVuSans-69" transform="translate(160.847656 0)"/>
      <use xlink:href="#DejaVuSans-76" transform="translate(188.630859 0)"/>
      <use xlink:href="#DejaVuSans-65" transform="translate(247.810547 0)"/>
     </g>
    </g>
    <g id="patch_195">
     <path d="M 275.44875 63.497812 
L 311.44875 63.497812 
L 311.44875 50.897812 
L 275.44875 50.897812 
z
" style="fill: #ff0000"/>
    </g>
    <g id="text_15">
     <!-- Differentially active -->
     <g transform="translate(325.84875 63.497812) scale(0.18 -0.18)">
      <defs>
       <path id="DejaVuSans-44" d="M 1259 4147 
L 1259 519 
L 2022 519 
Q 2988 519 3436 956 
Q 3884 1394 3884 2338 
Q 3884 3275 3436 3711 
Q 2988 4147 2022 4147 
L 1259 4147 
z
M 628 4666 
L 1925 4666 
Q 3281 4666 3915 4102 
Q 4550 3538 4550 2338 
Q 4550 1131 3912 565 
Q 3275 0 1925 0 
L 628 0 
L 628 4666 
z
" transform="scale(0.015625)"/>
       <path id="DejaVuSans-66" d="M 2375 4863 
L 2375 4384 
L 1825 4384 
Q 1516 4384 1395 4259 
Q 1275 4134 1275 3809 
L 1275 3500 
L 2222 3500 
L 2222 3053 
L 1275 3053 
L 1275 0 
L 697 0 
L 697 3053 
L 147 3053 
L 147 3500 
L 697 3500 
L 697 3744 
Q 697 4328 969 4595 
Q 1241 4863 1831 4863 
L 2375 4863 
z
" transform="scale(0.015625)"/>
       <path id="DejaVuSans-72" d="M 2631 2963 
Q 2534 3019 2420 3045 
Q 2306 3072 2169 3072 
Q 1681 3072 1420 2755 
Q 1159 2438 1159 1844 
L 1159 0 
L 581 0 
L 581 3500 
L 1159 3500 
L 1159 2956 
Q 1341 3275 1631 3429 
Q 1922 3584 2338 3584 
Q 2397 3584 2469 3576 
Q 2541 3569 2628 3553 
L 2631 2963 
z
" transform="scale(0.015625)"/>
       <path id="DejaVuSans-6e" d="M 3513 2113 
L 3513 0 
L 2938 0 
L 2938 2094 
Q 2938 2591 2744 2837 
Q 2550 3084 2163 3084 
Q 1697 3084 1428 2787 
Q 1159 2491 1159 1978 
L 1159 0 
L 581 0 
L 581 3500 
L 1159 3500 
L 1159 2956 
Q 1366 3272 1645 3428 
Q 1925 3584 2291 3584 
Q 2894 3584 3203 3211 
Q 3513 2838 3513 2113 
z
" transform="scale(0.015625)"/>
       <path id="DejaVuSans-61" d="M 2194 1759 
Q 1497 1759 1228 1600 
Q 959 1441 959 1056 
Q 959 750 1161 570 
Q 1363 391 1709 391 
Q 2188 391 2477 730 
Q 2766 1069 2766 1631 
L 2766 1759 
L 2194 1759 
z
M 3341 1997 
L 3341 0 
L 2766 0 
L 2766 531 
Q 2569 213 2275 61 
Q 1981 -91 1556 -91 
Q 1019 -91 701 211 
Q 384 513 384 1019 
Q 384 1609 779 1909 
Q 1175 2209 1959 2209 
L 2766 2209 
L 2766 2266 
Q 2766 2663 2505 2880 
Q 2244 3097 1772 3097 
Q 1472 3097 1187 3025 
Q 903 2953 641 2809 
L 641 3341 
Q 956 3463 1253 3523 
Q 1550 3584 1831 3584 
Q 2591 3584 2966 3190 
Q 3341 2797 3341 1997 
z
" transform="scale(0.015625)"/>
       <path id="DejaVuSans-6c" d="M 603 4863 
L 1178 4863 
L 1178 0 
L 603 0 
L 603 4863 
z
" transform="scale(0.015625)"/>
       <path id="DejaVuSans-79" d="M 2059 -325 
Q 1816 -950 1584 -1140 
Q 1353 -1331 966 -1331 
L 506 -1331 
L 506 -850 
L 844 -850 
Q 1081 -850 1212 -737 
Q 1344 -625 1503 -206 
L 1606 56 
L 191 3500 
L 800 3500 
L 1894 763 
L 2988 3500 
L 3597 3500 
L 2059 -325 
z
" transform="scale(0.015625)"/>
       <path id="DejaVuSans-20" transform="scale(0.015625)"/>
      </defs>
      <use xlink:href="#DejaVuSans-44"/>
      <use xlink:href="#DejaVuSans-69" transform="translate(77.001953 0)"/>
      <use xlink:href="#DejaVuSans-66" transform="translate(104.785156 0)"/>
      <use xlink:href="#DejaVuSans-66" transform="translate(139.990234 0)"/>
      <use xlink:href="#DejaVuSans-65" transform="translate(175.195312 0)"/>
      <use xlink:href="#DejaVuSans-72" transform="translate(236.71875 0)"/>
      <use xlink:href="#DejaVuSans-65" transform="translate(275.582031 0)"/>
      <use xlink:href="#DejaVuSans-6e" transform="translate(337.105469 0)"/>
      <use xlink:href="#DejaVuSans-74" transform="translate(400.484375 0)"/>
      <use xlink:href="#DejaVuSans-69" transform="translate(439.693359 0)"/>
      <use xlink:href="#DejaVuSans-61" transform="translate(467.476562 0)"/>
      <use xlink:href="#DejaVuSans-6c" transform="translate(528.755859 0)"/>
      <use xlink:href="#DejaVuSans-6c" transform="translate(556.539062 0)"/>
      <use xlink:href="#DejaVuSans-79" transform="translate(584.322266 0)"/>
      <use xlink:href="#DejaVuSans-20" transform="translate(643.501953 0)"/>
      <use xlink:href="#DejaVuSans-61" transform="translate(675.289062 0)"/>
      <use xlink:href="#DejaVuSans-63" transform="translate(736.568359 0)"/>
      <use xlink:href="#DejaVuSans-74" transform="translate(791.548828 0)"/>
      <use xlink:href="#DejaVuSans-69" transform="translate(830.757812 0)"/>
      <use xlink:href="#DejaVuSans-76" transform="translate(858.541016 0)"/>
      <use xlink:href="#DejaVuSans-65" transform="translate(917.720703 0)"/>
     </g>
    </g>
   </g>
  </g>
 </g>
 <defs>
  <clipPath id="p4bd75cc6f4">
   <rect x="71.91375" y="7.2" width="446.4" height="443.52"/>
  </clipPath>
 </defs>
</svg>
