<?xml version="1.0" encoding="utf-8" standalone="no"?>
<!DOCTYPE svg PUBLIC "-//W3C//DTD SVG 1.1//EN"
  "http://www.w3.org/Graphics/SVG/1.1/DTD/svg11.dtd">
<svg xmlns:xlink="http://www.w3.org/1999/xlink" width="555.565082pt" height="531.727507pt" viewBox="0 0 555.565082 531.727507" xmlns="http://www.w3.org/2000/svg" version="1.1">
 <metadata>
  <rdf:RDF xmlns:dc="http://purl.org/dc/elements/1.1/" xmlns:cc="http://creativecommons.org/ns#" xmlns:rdf="http://www.w3.org/1999/02/22-rdf-syntax-ns#">
   <cc:Work>
    <dc:type rdf:resource="http://purl.org/dc/dcmitype/StillImage"/>
    <dc:date>2026-01-06T15:42:42.647763</dc:date>
    <dc:format>image/svg+xml</dc:format>
    <dc:creator>
     <cc:Agent>
      <dc:title>Matplotlib v3.10.6, https://matplotlib.org/</dc:title>
     </cc:Agent>
    </dc:creator>
   </cc:Work>
  </rdf:RDF>
 </metadata>
 <defs>
  <style type="text/css">*{stroke-linejoin: round; stroke-linecap: butt}</style>
 </defs>
 <g id="figure_1">
  <g id="patch_1">
   <path d="M 0 531.727507 
L 555.565082 531.727507 
L 555.565082 0 
L 0 0 
L 0 531.727507 
z
" style="fill: none"/>
  </g>
  <g id="axes_1">
   <g id="patch_2">
    <path d="M 94.81875 215.638594 
L 541.21875 215.638594 
L 541.21875 14.038594 
L 94.81875 14.038594 
L 94.81875 215.638594 
z
" style="fill: none"/>
   </g>
   <g id="matplotlib.axis_1">
    <g id="xtick_1">
     <g id="line2d_1">
      <defs>
       <path id="ma0461177ab" d="M 0 0 
L 0 3.5 
" style="stroke: #000000; stroke-width: 0.8"/>
      </defs>
      <g>
       <use xlink:href="#ma0461177ab" x="105.97875" y="215.638594" style="stroke: #000000; stroke-width: 0.8"/>
      </g>
     </g>
    </g>
    <g id="xtick_2">
     <g id="line2d_2">
      <g>
       <use xlink:href="#ma0461177ab" x="530.05875" y="215.638594" style="stroke: #000000; stroke-width: 0.8"/>
      </g>
     </g>
    </g>
   </g>
   <g id="matplotlib.axis_2">
    <g id="ytick_1">
     <g id="line2d_3">
      <defs>
       <path id="ma989956c2a" d="M 0 0 
L -3.5 0 
" style="stroke: #000000; stroke-width: 0.8"/>
      </defs>
      <g>
       <use xlink:href="#ma989956c2a" x="94.81875" y="215.638594" style="stroke: #000000; stroke-width: 0.8"/>
      </g>
     </g>
     <g id="text_1">
      <!-- 0 -->
      <g transform="translate(76.36625 222.477187) scale(0.18 -0.18)">
       <defs>
        <path id="DejaVuSans-30" d="M 2034 4250 
Q 1547 4250 1301 3770 
Q 1056 3291 1056 2328 
Q 1056 1369 1301 889 
Q 1547 409 2034 409 
Q 2525 409 2770 889 
Q 3016 1369 3016 2328 
Q 3016 3291 2770 3770 
Q 2525 4250 2034 4250 
z
M 2034 4750 
Q 2819 4750 3233 4129 
Q 3647 3509 3647 2328 
Q 3647 1150 3233 529 
Q 2819 -91 2034 -91 
Q 1250 -91 836 529 
Q 422 1150 422 2328 
Q 422 3509 836 4129 
Q 1250 4750 2034 4750 
z
" transform="scale(0.015625)"/>
       </defs>
       <use xlink:href="#DejaVuSans-30"/>
      </g>
     </g>
    </g>
    <g id="ytick_2">
     <g id="line2d_4">
      <g>
       <use xlink:href="#ma989956c2a" x="94.81875" y="14.038594" style="stroke: #000000; stroke-width: 0.8"/>
      </g>
     </g>
     <g id="text_2">
      <!-- 8000 -->
      <g transform="translate(42.00875 20.877187) scale(0.18 -0.18)">
       <defs>
        <path id="DejaVuSans-38" d="M 2034 2216 
Q 1584 2216 1326 1975 
Q 1069 1734 1069 1313 
Q 1069 891 1326 650 
Q 1584 409 2034 409 
Q 2484 409 2743 651 
Q 3003 894 3003 1313 
Q 3003 1734 2745 1975 
Q 2488 2216 2034 2216 
z
M 1403 2484 
Q 997 2584 770 2862 
Q 544 3141 544 3541 
Q 544 4100 942 4425 
Q 1341 4750 2034 4750 
Q 2731 4750 3128 4425 
Q 3525 4100 3525 3541 
Q 3525 3141 3298 2862 
Q 3072 2584 2669 2484 
Q 3125 2378 3379 2068 
Q 3634 1759 3634 1313 
Q 3634 634 3220 271 
Q 2806 -91 2034 -91 
Q 1263 -91 848 271 
Q 434 634 434 1313 
Q 434 1759 690 2068 
Q 947 2378 1403 2484 
z
M 1172 3481 
Q 1172 3119 1398 2916 
Q 1625 2713 2034 2713 
Q 2441 2713 2670 2916 
Q 2900 3119 2900 3481 
Q 2900 3844 2670 4047 
Q 2441 4250 2034 4250 
Q 1625 4250 1398 4047 
Q 1172 3844 1172 3481 
z
" transform="scale(0.015625)"/>
       </defs>
       <use xlink:href="#DejaVuSans-38"/>
       <use xlink:href="#DejaVuSans-30" transform="translate(63.623047 0)"/>
       <use xlink:href="#DejaVuSans-30" transform="translate(127.246094 0)"/>
       <use xlink:href="#DejaVuSans-30" transform="translate(190.869141 0)"/>
      </g>
     </g>
    </g>
    <g id="text_3">
     <!-- DNA reads -->
     <g transform="translate(33.849375 174.301094) rotate(-90) scale(0.2 -0.2)">
      <defs>
       <path id="DejaVuSans-Bold-44" d="M 1791 3756 
L 1791 909 
L 2222 909 
Q 2959 909 3348 1275 
Q 3738 1641 3738 2338 
Q 3738 3031 3350 3393 
Q 2963 3756 2222 3756 
L 1791 3756 
z
M 588 4666 
L 1856 4666 
Q 2919 4666 3439 4514 
Q 3959 4363 4331 4000 
Q 4659 3684 4818 3271 
Q 4978 2859 4978 2338 
Q 4978 1809 4818 1395 
Q 4659 981 4331 666 
Q 3956 303 3431 151 
Q 2906 0 1856 0 
L 588 0 
L 588 4666 
z
" transform="scale(0.015625)"/>
       <path id="DejaVuSans-Bold-4e" d="M 588 4666 
L 1931 4666 
L 3628 1466 
L 3628 4666 
L 4769 4666 
L 4769 0 
L 3425 0 
L 1728 3200 
L 1728 0 
L 588 0 
L 588 4666 
z
" transform="scale(0.015625)"/>
       <path id="DejaVuSans-Bold-41" d="M 3419 850 
L 1538 850 
L 1241 0 
L 31 0 
L 1759 4666 
L 3194 4666 
L 4922 0 
L 3713 0 
L 3419 850 
z
M 1838 1716 
L 3116 1716 
L 2478 3572 
L 1838 1716 
z
" transform="scale(0.015625)"/>
       <path id="DejaVuSans-Bold-20" transform="scale(0.015625)"/>
       <path id="DejaVuSans-Bold-72" d="M 3138 2547 
Q 2991 2616 2845 2648 
Q 2700 2681 2553 2681 
Q 2122 2681 1889 2404 
Q 1656 2128 1656 1613 
L 1656 0 
L 538 0 
L 538 3500 
L 1656 3500 
L 1656 2925 
Q 1872 3269 2151 3426 
Q 2431 3584 2822 3584 
Q 2878 3584 2943 3579 
Q 3009 3575 3134 3559 
L 3138 2547 
z
" transform="scale(0.015625)"/>
       <path id="DejaVuSans-Bold-65" d="M 4031 1759 
L 4031 1441 
L 1416 1441 
Q 1456 1047 1700 850 
Q 1944 653 2381 653 
Q 2734 653 3104 758 
Q 3475 863 3866 1075 
L 3866 213 
Q 3469 63 3072 -14 
Q 2675 -91 2278 -91 
Q 1328 -91 801 392 
Q 275 875 275 1747 
Q 275 2603 792 3093 
Q 1309 3584 2216 3584 
Q 3041 3584 3536 3087 
Q 4031 2591 4031 1759 
z
M 2881 2131 
Q 2881 2450 2695 2645 
Q 2509 2841 2209 2841 
Q 1884 2841 1681 2658 
Q 1478 2475 1428 2131 
L 2881 2131 
z
" transform="scale(0.015625)"/>
       <path id="DejaVuSans-Bold-61" d="M 2106 1575 
Q 1756 1575 1579 1456 
Q 1403 1338 1403 1106 
Q 1403 894 1545 773 
Q 1688 653 1941 653 
Q 2256 653 2472 879 
Q 2688 1106 2688 1447 
L 2688 1575 
L 2106 1575 
z
M 3816 1997 
L 3816 0 
L 2688 0 
L 2688 519 
Q 2463 200 2181 54 
Q 1900 -91 1497 -91 
Q 953 -91 614 226 
Q 275 544 275 1050 
Q 275 1666 698 1953 
Q 1122 2241 2028 2241 
L 2688 2241 
L 2688 2328 
Q 2688 2594 2478 2717 
Q 2269 2841 1825 2841 
Q 1466 2841 1156 2769 
Q 847 2697 581 2553 
L 581 3406 
Q 941 3494 1303 3539 
Q 1666 3584 2028 3584 
Q 2975 3584 3395 3211 
Q 3816 2838 3816 1997 
z
" transform="scale(0.015625)"/>
       <path id="DejaVuSans-Bold-64" d="M 2919 2988 
L 2919 4863 
L 4044 4863 
L 4044 0 
L 2919 0 
L 2919 506 
Q 2688 197 2409 53 
Q 2131 -91 1766 -91 
Q 1119 -91 703 423 
Q 288 938 288 1747 
Q 288 2556 703 3070 
Q 1119 3584 1766 3584 
Q 2128 3584 2408 3439 
Q 2688 3294 2919 2988 
z
M 2181 722 
Q 2541 722 2730 984 
Q 2919 1247 2919 1747 
Q 2919 2247 2730 2509 
Q 2541 2772 2181 2772 
Q 1825 2772 1636 2509 
Q 1447 2247 1447 1747 
Q 1447 1247 1636 984 
Q 1825 722 2181 722 
z
" transform="scale(0.015625)"/>
       <path id="DejaVuSans-Bold-73" d="M 3272 3391 
L 3272 2541 
Q 2913 2691 2578 2766 
Q 2244 2841 1947 2841 
Q 1628 2841 1473 2761 
Q 1319 2681 1319 2516 
Q 1319 2381 1436 2309 
Q 1553 2238 1856 2203 
L 2053 2175 
Q 2913 2066 3209 1816 
Q 3506 1566 3506 1031 
Q 3506 472 3093 190 
Q 2681 -91 1863 -91 
Q 1516 -91 1145 -36 
Q 775 19 384 128 
L 384 978 
Q 719 816 1070 734 
Q 1422 653 1784 653 
Q 2113 653 2278 743 
Q 2444 834 2444 1013 
Q 2444 1163 2330 1236 
Q 2216 1309 1875 1350 
L 1678 1375 
Q 931 1469 631 1722 
Q 331 1975 331 2491 
Q 331 3047 712 3315 
Q 1094 3584 1881 3584 
Q 2191 3584 2531 3537 
Q 2872 3491 3272 3391 
z
" transform="scale(0.015625)"/>
      </defs>
      <use xlink:href="#DejaVuSans-Bold-44"/>
      <use xlink:href="#DejaVuSans-Bold-4e" transform="translate(83.007812 0)"/>
      <use xlink:href="#DejaVuSans-Bold-41" transform="translate(166.699219 0)"/>
      <use xlink:href="#DejaVuSans-Bold-20" transform="translate(244.091797 0)"/>
      <use xlink:href="#DejaVuSans-Bold-72" transform="translate(278.90625 0)"/>
      <use xlink:href="#DejaVuSans-Bold-65" transform="translate(328.222656 0)"/>
      <use xlink:href="#DejaVuSans-Bold-61" transform="translate(396.044922 0)"/>
      <use xlink:href="#DejaVuSans-Bold-64" transform="translate(463.525391 0)"/>
      <use xlink:href="#DejaVuSans-Bold-73" transform="translate(535.107422 0)"/>
     </g>
    </g>
   </g>
   <g id="patch_3">
    <path d="M 186.33075 214.958194 
L 204.18675 214.958194 
L 204.18675 214.958194 
L 186.33075 214.958194 
L 186.33075 214.958194 
z
" clip-path="url(#pdd41594e7b)" style="fill: #ebbd73; stroke: #696969; stroke-linejoin: miter"/>
   </g>
   <g id="line2d_5">
    <path d="M 195.25875 214.958194 
L 195.25875 214.958194 
" clip-path="url(#pdd41594e7b)" style="fill: none; stroke: #696969"/>
   </g>
   <g id="line2d_6">
    <path d="M 195.25875 214.958194 
L 195.25875 214.958194 
" clip-path="url(#pdd41594e7b)" style="fill: none; stroke: #696969"/>
   </g>
   <g id="line2d_7">
    <path d="M 190.79475 214.958194 
L 199.72275 214.958194 
" clip-path="url(#pdd41594e7b)" style="fill: none; stroke: #696969; stroke-linecap: square"/>
   </g>
   <g id="line2d_8">
    <path d="M 190.79475 214.958194 
L 199.72275 214.958194 
" clip-path="url(#pdd41594e7b)" style="fill: none; stroke: #696969; stroke-linecap: square"/>
   </g>
   <g id="patch_4">
    <path d="M 208.65075 215.285794 
L 226.50675 215.285794 
L 226.50675 213.874594 
L 208.65075 213.874594 
L 208.65075 215.285794 
z
" clip-path="url(#pdd41594e7b)" style="fill: #ebbd73; stroke: #696969; stroke-linejoin: miter"/>
   </g>
   <g id="line2d_9">
    <path d="M 217.57875 215.285794 
L 217.57875 215.638594 
" clip-path="url(#pdd41594e7b)" style="fill: none; stroke: #696969"/>
   </g>
   <g id="line2d_10">
    <path d="M 217.57875 213.874594 
L 217.57875 211.984594 
" clip-path="url(#pdd41594e7b)" style="fill: none; stroke: #696969"/>
   </g>
   <g id="line2d_11">
    <path d="M 213.11475 215.638594 
L 222.04275 215.638594 
" clip-path="url(#pdd41594e7b)" style="fill: none; stroke: #696969; stroke-linecap: square"/>
   </g>
   <g id="line2d_12">
    <path d="M 213.11475 211.984594 
L 222.04275 211.984594 
" clip-path="url(#pdd41594e7b)" style="fill: none; stroke: #696969; stroke-linecap: square"/>
   </g>
   <g id="patch_5">
    <path d="M 230.97075 213.824194 
L 248.82675 213.824194 
L 248.82675 205.659394 
L 230.97075 205.659394 
L 230.97075 213.824194 
z
" clip-path="url(#pdd41594e7b)" style="fill: #ebbd73; stroke: #696969; stroke-linejoin: miter"/>
   </g>
   <g id="line2d_13">
    <path d="M 239.89875 213.824194 
L 239.89875 215.638594 
" clip-path="url(#pdd41594e7b)" style="fill: none; stroke: #696969"/>
   </g>
   <g id="line2d_14">
    <path d="M 239.89875 205.659394 
L 239.89875 193.412194 
" clip-path="url(#pdd41594e7b)" style="fill: none; stroke: #696969"/>
   </g>
   <g id="line2d_15">
    <path d="M 235.43475 215.638594 
L 244.36275 215.638594 
" clip-path="url(#pdd41594e7b)" style="fill: none; stroke: #696969; stroke-linecap: square"/>
   </g>
   <g id="line2d_16">
    <path d="M 235.43475 193.412194 
L 244.36275 193.412194 
" clip-path="url(#pdd41594e7b)" style="fill: none; stroke: #696969; stroke-linecap: square"/>
   </g>
   <g id="patch_6">
    <path d="M 253.29075 206.062594 
L 271.14675 206.062594 
L 271.14675 185.978194 
L 253.29075 185.978194 
L 253.29075 206.062594 
z
" clip-path="url(#pdd41594e7b)" style="fill: #ebbd73; stroke: #696969; stroke-linejoin: miter"/>
   </g>
   <g id="line2d_17">
    <path d="M 262.21875 206.062594 
L 262.21875 215.638594 
" clip-path="url(#pdd41594e7b)" style="fill: none; stroke: #696969"/>
   </g>
   <g id="line2d_18">
    <path d="M 262.21875 185.978194 
L 262.21875 155.889394 
" clip-path="url(#pdd41594e7b)" style="fill: none; stroke: #696969"/>
   </g>
   <g id="line2d_19">
    <path d="M 257.75475 215.638594 
L 266.68275 215.638594 
" clip-path="url(#pdd41594e7b)" style="fill: none; stroke: #696969; stroke-linecap: square"/>
   </g>
   <g id="line2d_20">
    <path d="M 257.75475 155.889394 
L 266.68275 155.889394 
" clip-path="url(#pdd41594e7b)" style="fill: none; stroke: #696969; stroke-linecap: square"/>
   </g>
   <g id="patch_7">
    <path d="M 275.61075 195.150994 
L 293.46675 195.150994 
L 293.46675 165.692194 
L 275.61075 165.692194 
L 275.61075 195.150994 
z
" clip-path="url(#pdd41594e7b)" style="fill: #ebbd73; stroke: #696969; stroke-linejoin: miter"/>
   </g>
   <g id="line2d_21">
    <path d="M 284.53875 195.150994 
L 284.53875 215.638594 
" clip-path="url(#pdd41594e7b)" style="fill: none; stroke: #696969"/>
   </g>
   <g id="line2d_22">
    <path d="M 284.53875 165.692194 
L 284.53875 121.566994 
" clip-path="url(#pdd41594e7b)" style="fill: none; stroke: #696969"/>
   </g>
   <g id="line2d_23">
    <path d="M 280.07475 215.638594 
L 289.00275 215.638594 
" clip-path="url(#pdd41594e7b)" style="fill: none; stroke: #696969; stroke-linecap: square"/>
   </g>
   <g id="line2d_24">
    <path d="M 280.07475 121.566994 
L 289.00275 121.566994 
" clip-path="url(#pdd41594e7b)" style="fill: none; stroke: #696969; stroke-linecap: square"/>
   </g>
   <g id="patch_8">
    <path d="M 297.93075 187.540594 
L 315.78675 187.540594 
L 315.78675 149.375194 
L 297.93075 149.375194 
L 297.93075 187.540594 
z
" clip-path="url(#pdd41594e7b)" style="fill: #ebbd73; stroke: #696969; stroke-linejoin: miter"/>
   </g>
   <g id="line2d_25">
    <path d="M 306.85875 187.540594 
L 306.85875 215.562994 
" clip-path="url(#pdd41594e7b)" style="fill: none; stroke: #696969"/>
   </g>
   <g id="line2d_26">
    <path d="M 306.85875 149.375194 
L 306.85875 92.158594 
" clip-path="url(#pdd41594e7b)" style="fill: none; stroke: #696969"/>
   </g>
   <g id="line2d_27">
    <path d="M 302.39475 215.562994 
L 311.32275 215.562994 
" clip-path="url(#pdd41594e7b)" style="fill: none; stroke: #696969; stroke-linecap: square"/>
   </g>
   <g id="line2d_28">
    <path d="M 302.39475 92.158594 
L 311.32275 92.158594 
" clip-path="url(#pdd41594e7b)" style="fill: none; stroke: #696969; stroke-linecap: square"/>
   </g>
   <g id="patch_9">
    <path d="M 320.25075 183.256594 
L 338.10675 183.256594 
L 338.10675 139.131394 
L 320.25075 139.131394 
L 320.25075 183.256594 
z
" clip-path="url(#pdd41594e7b)" style="fill: #ebbd73; stroke: #696969; stroke-linejoin: miter"/>
   </g>
   <g id="line2d_29">
    <path d="M 329.17875 183.256594 
L 329.17875 215.613394 
" clip-path="url(#pdd41594e7b)" style="fill: none; stroke: #696969"/>
   </g>
   <g id="line2d_30">
    <path d="M 329.17875 139.131394 
L 329.17875 73.006594 
" clip-path="url(#pdd41594e7b)" style="fill: none; stroke: #696969"/>
   </g>
   <g id="line2d_31">
    <path d="M 324.71475 215.613394 
L 333.64275 215.613394 
" clip-path="url(#pdd41594e7b)" style="fill: none; stroke: #696969; stroke-linecap: square"/>
   </g>
   <g id="line2d_32">
    <path d="M 324.71475 73.006594 
L 333.64275 73.006594 
" clip-path="url(#pdd41594e7b)" style="fill: none; stroke: #696969; stroke-linecap: square"/>
   </g>
   <g id="patch_10">
    <path d="M 342.57075 183.647194 
L 360.42675 183.647194 
L 360.42675 137.316994 
L 342.57075 137.316994 
L 342.57075 183.647194 
z
" clip-path="url(#pdd41594e7b)" style="fill: #ebbd73; stroke: #696969; stroke-linejoin: miter"/>
   </g>
   <g id="line2d_33">
    <path d="M 351.49875 183.647194 
L 351.49875 215.537794 
" clip-path="url(#pdd41594e7b)" style="fill: none; stroke: #696969"/>
   </g>
   <g id="line2d_34">
    <path d="M 351.49875 137.316994 
L 351.49875 67.916194 
" clip-path="url(#pdd41594e7b)" style="fill: none; stroke: #696969"/>
   </g>
   <g id="line2d_35">
    <path d="M 347.03475 215.537794 
L 355.96275 215.537794 
" clip-path="url(#pdd41594e7b)" style="fill: none; stroke: #696969; stroke-linecap: square"/>
   </g>
   <g id="line2d_36">
    <path d="M 347.03475 67.916194 
L 355.96275 67.916194 
" clip-path="url(#pdd41594e7b)" style="fill: none; stroke: #696969; stroke-linecap: square"/>
   </g>
   <g id="patch_11">
    <path d="M 364.89075 183.565294 
L 382.74675 183.565294 
L 382.74675 138.091894 
L 364.89075 138.091894 
L 364.89075 183.565294 
z
" clip-path="url(#pdd41594e7b)" style="fill: #ebbd73; stroke: #696969; stroke-linejoin: miter"/>
   </g>
   <g id="line2d_37">
    <path d="M 373.81875 183.565294 
L 373.81875 214.126594 
" clip-path="url(#pdd41594e7b)" style="fill: none; stroke: #696969"/>
   </g>
   <g id="line2d_38">
    <path d="M 373.81875 138.091894 
L 373.81875 71.620594 
" clip-path="url(#pdd41594e7b)" style="fill: none; stroke: #696969"/>
   </g>
   <g id="line2d_39">
    <path d="M 369.35475 214.126594 
L 378.28275 214.126594 
" clip-path="url(#pdd41594e7b)" style="fill: none; stroke: #696969; stroke-linecap: square"/>
   </g>
   <g id="line2d_40">
    <path d="M 369.35475 71.620594 
L 378.28275 71.620594 
" clip-path="url(#pdd41594e7b)" style="fill: none; stroke: #696969; stroke-linecap: square"/>
   </g>
   <g id="patch_12">
    <path d="M 387.21075 189.644794 
L 405.06675 189.644794 
L 405.06675 158.119594 
L 387.21075 158.119594 
L 387.21075 189.644794 
z
" clip-path="url(#pdd41594e7b)" style="fill: #ebbd73; stroke: #696969; stroke-linejoin: miter"/>
   </g>
   <g id="line2d_41">
    <path d="M 396.13875 189.644794 
L 396.13875 208.078594 
" clip-path="url(#pdd41594e7b)" style="fill: none; stroke: #696969"/>
   </g>
   <g id="line2d_42">
    <path d="M 396.13875 158.119594 
L 396.13875 112.746994 
" clip-path="url(#pdd41594e7b)" style="fill: none; stroke: #696969"/>
   </g>
   <g id="line2d_43">
    <path d="M 391.67475 208.078594 
L 400.60275 208.078594 
" clip-path="url(#pdd41594e7b)" style="fill: none; stroke: #696969; stroke-linecap: square"/>
   </g>
   <g id="line2d_44">
    <path d="M 391.67475 112.746994 
L 400.60275 112.746994 
" clip-path="url(#pdd41594e7b)" style="fill: none; stroke: #696969; stroke-linecap: square"/>
   </g>
   <g id="patch_13">
    <path d="M 409.53075 204.928594 
L 427.38675 204.928594 
L 427.38675 171.765394 
L 409.53075 171.765394 
L 409.53075 204.928594 
z
" clip-path="url(#pdd41594e7b)" style="fill: #ebbd73; stroke: #696969; stroke-linejoin: miter"/>
   </g>
   <g id="line2d_45">
    <path d="M 418.45875 204.928594 
L 418.45875 212.866594 
" clip-path="url(#pdd41594e7b)" style="fill: none; stroke: #696969"/>
   </g>
   <g id="line2d_46">
    <path d="M 418.45875 171.765394 
L 418.45875 146.842594 
" clip-path="url(#pdd41594e7b)" style="fill: none; stroke: #696969"/>
   </g>
   <g id="line2d_47">
    <path d="M 413.99475 212.866594 
L 422.92275 212.866594 
" clip-path="url(#pdd41594e7b)" style="fill: none; stroke: #696969; stroke-linecap: square"/>
   </g>
   <g id="line2d_48">
    <path d="M 413.99475 146.842594 
L 422.92275 146.842594 
" clip-path="url(#pdd41594e7b)" style="fill: none; stroke: #696969; stroke-linecap: square"/>
   </g>
   <g id="patch_14">
    <path d="M 431.85075 210.453694 
L 449.70675 210.453694 
L 449.70675 197.897794 
L 431.85075 197.897794 
L 431.85075 210.453694 
z
" clip-path="url(#pdd41594e7b)" style="fill: #ebbd73; stroke: #696969; stroke-linejoin: miter"/>
   </g>
   <g id="line2d_49">
    <path d="M 440.77875 210.453694 
L 440.77875 215.134594 
" clip-path="url(#pdd41594e7b)" style="fill: none; stroke: #696969"/>
   </g>
   <g id="line2d_50">
    <path d="M 440.77875 197.897794 
L 440.77875 191.270194 
" clip-path="url(#pdd41594e7b)" style="fill: none; stroke: #696969"/>
   </g>
   <g id="line2d_51">
    <path d="M 436.31475 215.134594 
L 445.24275 215.134594 
" clip-path="url(#pdd41594e7b)" style="fill: none; stroke: #696969; stroke-linecap: square"/>
   </g>
   <g id="line2d_52">
    <path d="M 436.31475 191.270194 
L 445.24275 191.270194 
" clip-path="url(#pdd41594e7b)" style="fill: none; stroke: #696969; stroke-linecap: square"/>
   </g>
   <g id="line2d_53">
    <path d="M 186.33075 214.958194 
L 204.18675 214.958194 
" clip-path="url(#pdd41594e7b)" style="fill: none; stroke: #696969"/>
   </g>
   <g id="line2d_54">
    <path d="M 208.65075 214.806994 
L 226.50675 214.806994 
" clip-path="url(#pdd41594e7b)" style="fill: none; stroke: #696969"/>
   </g>
   <g id="line2d_55">
    <path d="M 230.97075 210.951394 
L 248.82675 210.951394 
" clip-path="url(#pdd41594e7b)" style="fill: none; stroke: #696969"/>
   </g>
   <g id="line2d_56">
    <path d="M 253.29075 197.973394 
L 271.14675 197.973394 
" clip-path="url(#pdd41594e7b)" style="fill: none; stroke: #696969"/>
   </g>
   <g id="line2d_57">
    <path d="M 275.61075 182.777794 
L 293.46675 182.777794 
" clip-path="url(#pdd41594e7b)" style="fill: none; stroke: #696969"/>
   </g>
   <g id="line2d_58">
    <path d="M 297.93075 171.387394 
L 315.78675 171.387394 
" clip-path="url(#pdd41594e7b)" style="fill: none; stroke: #696969"/>
   </g>
   <g id="line2d_59">
    <path d="M 320.25075 165.213394 
L 338.10675 165.213394 
" clip-path="url(#pdd41594e7b)" style="fill: none; stroke: #696969"/>
   </g>
   <g id="line2d_60">
    <path d="M 342.57075 164.230594 
L 360.42675 164.230594 
" clip-path="url(#pdd41594e7b)" style="fill: none; stroke: #696969"/>
   </g>
   <g id="line2d_61">
    <path d="M 364.89075 162.252394 
L 382.74675 162.252394 
" clip-path="url(#pdd41594e7b)" style="fill: none; stroke: #696969"/>
   </g>
   <g id="line2d_62">
    <path d="M 387.21075 172.092994 
L 405.06675 172.092994 
" clip-path="url(#pdd41594e7b)" style="fill: none; stroke: #696969"/>
   </g>
   <g id="line2d_63">
    <path d="M 409.53075 196.410994 
L 427.38675 196.410994 
" clip-path="url(#pdd41594e7b)" style="fill: none; stroke: #696969"/>
   </g>
   <g id="line2d_64">
    <path d="M 431.85075 202.937794 
L 449.70675 202.937794 
" clip-path="url(#pdd41594e7b)" style="fill: none; stroke: #696969"/>
   </g>
   <g id="patch_15">
    <path d="M 94.81875 215.638594 
L 94.81875 14.038594 
" style="fill: none; stroke: #000000; stroke-linejoin: miter; stroke-linecap: square"/>
   </g>
   <g id="patch_16">
    <path d="M 94.81875 215.638594 
L 541.21875 215.638594 
" style="fill: none; stroke: #000000; stroke-linejoin: miter; stroke-linecap: square"/>
   </g>
  </g>
  <g id="axes_2">
   <g id="patch_17">
    <path d="M 94.81875 457.558594 
L 541.21875 457.558594 
L 541.21875 255.958594 
L 94.81875 255.958594 
L 94.81875 457.558594 
z
" style="fill: none"/>
   </g>
   <g id="patch_18">
    <path d="M 184.09875 457.558594 
L 206.41875 457.558594 
L 206.41875 457.55053 
L 184.09875 457.55053 
z
" clip-path="url(#p99e1a3abcd)" style="fill: #3d9f95; fill-opacity: 0.75; stroke: #000000; stroke-linejoin: miter"/>
   </g>
   <g id="patch_19">
    <path d="M 206.41875 457.558594 
L 228.73875 457.558594 
L 228.73875 452.841154 
L 206.41875 452.841154 
z
" clip-path="url(#p99e1a3abcd)" style="fill: #3d9f95; fill-opacity: 0.75; stroke: #000000; stroke-linejoin: miter"/>
   </g>
   <g id="patch_20">
    <path d="M 228.73875 457.558594 
L 251.05875 457.558594 
L 251.05875 403.60237 
L 228.73875 403.60237 
z
" clip-path="url(#p99e1a3abcd)" style="fill: #3d9f95; fill-opacity: 0.75; stroke: #000000; stroke-linejoin: miter"/>
   </g>
   <g id="patch_21">
    <path d="M 251.05875 457.558594 
L 273.37875 457.558594 
L 273.37875 311.132482 
L 251.05875 311.132482 
z
" clip-path="url(#p99e1a3abcd)" style="fill: #3d9f95; fill-opacity: 0.75; stroke: #000000; stroke-linejoin: miter"/>
   </g>
   <g id="patch_22">
    <path d="M 273.37875 457.558594 
L 295.69875 457.558594 
L 295.69875 295.738306 
L 273.37875 295.738306 
z
" clip-path="url(#p99e1a3abcd)" style="fill: #3d9f95; fill-opacity: 0.75; stroke: #000000; stroke-linejoin: miter"/>
   </g>
   <g id="patch_23">
    <path d="M 295.69875 457.558594 
L 318.01875 457.558594 
L 318.01875 306.63277 
L 295.69875 306.63277 
z
" clip-path="url(#p99e1a3abcd)" style="fill: #3d9f95; fill-opacity: 0.75; stroke: #000000; stroke-linejoin: miter"/>
   </g>
   <g id="patch_24">
    <path d="M 318.01875 457.558594 
L 340.33875 457.558594 
L 340.33875 377.789506 
L 318.01875 377.789506 
z
" clip-path="url(#p99e1a3abcd)" style="fill: #3d9f95; fill-opacity: 0.75; stroke: #000000; stroke-linejoin: miter"/>
   </g>
   <g id="patch_25">
    <path d="M 340.33875 457.558594 
L 362.65875 457.558594 
L 362.65875 430.310338 
L 340.33875 430.310338 
z
" clip-path="url(#p99e1a3abcd)" style="fill: #3d9f95; fill-opacity: 0.75; stroke: #000000; stroke-linejoin: miter"/>
   </g>
   <g id="patch_26">
    <path d="M 362.65875 457.558594 
L 384.97875 457.558594 
L 384.97875 455.461954 
L 362.65875 455.461954 
z
" clip-path="url(#p99e1a3abcd)" style="fill: #3d9f95; fill-opacity: 0.75; stroke: #000000; stroke-linejoin: miter"/>
   </g>
   <g id="patch_27">
    <path d="M 384.97875 457.558594 
L 407.29875 457.558594 
L 407.29875 457.373122 
L 384.97875 457.373122 
z
" clip-path="url(#p99e1a3abcd)" style="fill: #3d9f95; fill-opacity: 0.75; stroke: #000000; stroke-linejoin: miter"/>
   </g>
   <g id="patch_28">
    <path d="M 407.29875 457.558594 
L 429.61875 457.558594 
L 429.61875 457.453762 
L 407.29875 457.453762 
z
" clip-path="url(#p99e1a3abcd)" style="fill: #3d9f95; fill-opacity: 0.75; stroke: #000000; stroke-linejoin: miter"/>
   </g>
   <g id="patch_29">
    <path d="M 429.61875 457.558594 
L 451.93875 457.558594 
L 451.93875 457.477954 
L 429.61875 457.477954 
z
" clip-path="url(#p99e1a3abcd)" style="fill: #3d9f95; fill-opacity: 0.75; stroke: #000000; stroke-linejoin: miter"/>
   </g>
   <g id="matplotlib.axis_3">
    <g id="xtick_3">
     <g id="line2d_65">
      <g>
       <use xlink:href="#ma0461177ab" x="105.97875" y="457.558594" style="stroke: #000000; stroke-width: 0.8"/>
      </g>
     </g>
     <g id="text_4">
      <!-- 0 -->
      <g transform="translate(105.441791 482.327966) rotate(-45) scale(0.18 -0.18)">
       <use xlink:href="#DejaVuSans-30"/>
      </g>
     </g>
    </g>
    <g id="xtick_4">
     <g id="line2d_66">
      <g>
       <use xlink:href="#ma0461177ab" x="530.05875" y="457.558594" style="stroke: #000000; stroke-width: 0.8"/>
      </g>
     </g>
     <g id="text_5">
      <!-- 100 -->
      <g transform="translate(521.42365 498.524247) rotate(-45) scale(0.18 -0.18)">
       <defs>
        <path id="DejaVuSans-31" d="M 794 531 
L 1825 531 
L 1825 4091 
L 703 3866 
L 703 4441 
L 1819 4666 
L 2450 4666 
L 2450 531 
L 3481 531 
L 3481 0 
L 794 0 
L 794 531 
z
" transform="scale(0.015625)"/>
       </defs>
       <use xlink:href="#DejaVuSans-31"/>
       <use xlink:href="#DejaVuSans-30" transform="translate(63.623047 0)"/>
       <use xlink:href="#DejaVuSans-30" transform="translate(127.246094 0)"/>
      </g>
     </g>
    </g>
    <g id="text_6">
     <!-- %GC -->
     <g transform="translate(292.451562 520.368132) scale(0.2 -0.2)">
      <defs>
       <path id="DejaVuSans-Bold-25" d="M 4959 1925 
Q 4738 1925 4616 1733 
Q 4494 1541 4494 1184 
Q 4494 825 4614 633 
Q 4734 441 4959 441 
Q 5184 441 5303 633 
Q 5422 825 5422 1184 
Q 5422 1541 5301 1733 
Q 5181 1925 4959 1925 
z
M 4959 2450 
Q 5541 2450 5875 2112 
Q 6209 1775 6209 1184 
Q 6209 594 5875 251 
Q 5541 -91 4959 -91 
Q 4378 -91 4042 251 
Q 3706 594 3706 1184 
Q 3706 1772 4042 2111 
Q 4378 2450 4959 2450 
z
M 2094 -91 
L 1403 -91 
L 4319 4750 
L 5013 4750 
L 2094 -91 
z
M 1453 4750 
Q 2034 4750 2367 4411 
Q 2700 4072 2700 3481 
Q 2700 2891 2367 2550 
Q 2034 2209 1453 2209 
Q 872 2209 539 2550 
Q 206 2891 206 3481 
Q 206 4072 539 4411 
Q 872 4750 1453 4750 
z
M 1453 4225 
Q 1228 4225 1106 4031 
Q 984 3838 984 3481 
Q 984 3122 1106 2926 
Q 1228 2731 1453 2731 
Q 1678 2731 1798 2926 
Q 1919 3122 1919 3481 
Q 1919 3838 1797 4031 
Q 1675 4225 1453 4225 
z
" transform="scale(0.015625)"/>
       <path id="DejaVuSans-Bold-47" d="M 4781 347 
Q 4331 128 3847 18 
Q 3363 -91 2847 -91 
Q 1681 -91 1000 561 
Q 319 1213 319 2328 
Q 319 3456 1012 4103 
Q 1706 4750 2913 4750 
Q 3378 4750 3804 4662 
Q 4231 4575 4609 4403 
L 4609 3438 
Q 4219 3659 3833 3768 
Q 3447 3878 3059 3878 
Q 2341 3878 1952 3476 
Q 1563 3075 1563 2328 
Q 1563 1588 1938 1184 
Q 2313 781 3003 781 
Q 3191 781 3352 804 
Q 3513 828 3641 878 
L 3641 1784 
L 2906 1784 
L 2906 2591 
L 4781 2591 
L 4781 347 
z
" transform="scale(0.015625)"/>
       <path id="DejaVuSans-Bold-43" d="M 4288 256 
Q 3956 84 3597 -3 
Q 3238 -91 2847 -91 
Q 1681 -91 1000 561 
Q 319 1213 319 2328 
Q 319 3447 1000 4098 
Q 1681 4750 2847 4750 
Q 3238 4750 3597 4662 
Q 3956 4575 4288 4403 
L 4288 3438 
Q 3953 3666 3628 3772 
Q 3303 3878 2944 3878 
Q 2300 3878 1931 3465 
Q 1563 3053 1563 2328 
Q 1563 1606 1931 1193 
Q 2300 781 2944 781 
Q 3303 781 3628 887 
Q 3953 994 4288 1222 
L 4288 256 
z
" transform="scale(0.015625)"/>
      </defs>
      <use xlink:href="#DejaVuSans-Bold-25"/>
      <use xlink:href="#DejaVuSans-Bold-47" transform="translate(100.195312 0)"/>
      <use xlink:href="#DejaVuSans-Bold-43" transform="translate(182.275391 0)"/>
     </g>
    </g>
   </g>
   <g id="matplotlib.axis_4">
    <g id="ytick_3">
     <g id="line2d_67">
      <g>
       <use xlink:href="#ma989956c2a" x="94.81875" y="457.558594" style="stroke: #000000; stroke-width: 0.8"/>
      </g>
     </g>
     <g id="text_7">
      <!-- 0 -->
      <g transform="translate(76.36625 464.397187) scale(0.18 -0.18)">
       <use xlink:href="#DejaVuSans-30"/>
      </g>
     </g>
    </g>
    <g id="ytick_4">
     <g id="line2d_68">
      <g>
       <use xlink:href="#ma989956c2a" x="94.81875" y="255.958594" style="stroke: #000000; stroke-width: 0.8"/>
      </g>
     </g>
     <g id="text_8">
      <!-- 25000 -->
      <g transform="translate(30.55625 262.797187) scale(0.18 -0.18)">
       <defs>
        <path id="DejaVuSans-32" d="M 1228 531 
L 3431 531 
L 3431 0 
L 469 0 
L 469 531 
Q 828 903 1448 1529 
Q 2069 2156 2228 2338 
Q 2531 2678 2651 2914 
Q 2772 3150 2772 3378 
Q 2772 3750 2511 3984 
Q 2250 4219 1831 4219 
Q 1534 4219 1204 4116 
Q 875 4013 500 3803 
L 500 4441 
Q 881 4594 1212 4672 
Q 1544 4750 1819 4750 
Q 2544 4750 2975 4387 
Q 3406 4025 3406 3419 
Q 3406 3131 3298 2873 
Q 3191 2616 2906 2266 
Q 2828 2175 2409 1742 
Q 1991 1309 1228 531 
z
" transform="scale(0.015625)"/>
        <path id="DejaVuSans-35" d="M 691 4666 
L 3169 4666 
L 3169 4134 
L 1269 4134 
L 1269 2991 
Q 1406 3038 1543 3061 
Q 1681 3084 1819 3084 
Q 2600 3084 3056 2656 
Q 3513 2228 3513 1497 
Q 3513 744 3044 326 
Q 2575 -91 1722 -91 
Q 1428 -91 1123 -41 
Q 819 9 494 109 
L 494 744 
Q 775 591 1075 516 
Q 1375 441 1709 441 
Q 2250 441 2565 725 
Q 2881 1009 2881 1497 
Q 2881 1984 2565 2268 
Q 2250 2553 1709 2553 
Q 1456 2553 1204 2497 
Q 953 2441 691 2322 
L 691 4666 
z
" transform="scale(0.015625)"/>
       </defs>
       <use xlink:href="#DejaVuSans-32"/>
       <use xlink:href="#DejaVuSans-35" transform="translate(63.623047 0)"/>
       <use xlink:href="#DejaVuSans-30" transform="translate(127.246094 0)"/>
       <use xlink:href="#DejaVuSans-30" transform="translate(190.869141 0)"/>
       <use xlink:href="#DejaVuSans-30" transform="translate(254.492188 0)"/>
      </g>
     </g>
    </g>
    <g id="text_9">
     <!-- cCREs -->
     <g transform="translate(22.396875 390.508594) rotate(-90) scale(0.2 -0.2)">
      <defs>
       <path id="DejaVuSans-Bold-63" d="M 3366 3391 
L 3366 2478 
Q 3138 2634 2908 2709 
Q 2678 2784 2431 2784 
Q 1963 2784 1702 2511 
Q 1441 2238 1441 1747 
Q 1441 1256 1702 982 
Q 1963 709 2431 709 
Q 2694 709 2930 787 
Q 3166 866 3366 1019 
L 3366 103 
Q 3103 6 2833 -42 
Q 2563 -91 2291 -91 
Q 1344 -91 809 395 
Q 275 881 275 1747 
Q 275 2613 809 3098 
Q 1344 3584 2291 3584 
Q 2566 3584 2833 3536 
Q 3100 3488 3366 3391 
z
" transform="scale(0.015625)"/>
       <path id="DejaVuSans-Bold-52" d="M 2297 2597 
Q 2675 2597 2839 2737 
Q 3003 2878 3003 3200 
Q 3003 3519 2839 3656 
Q 2675 3794 2297 3794 
L 1791 3794 
L 1791 2597 
L 2297 2597 
z
M 1791 1766 
L 1791 0 
L 588 0 
L 588 4666 
L 2425 4666 
Q 3347 4666 3776 4356 
Q 4206 4047 4206 3378 
Q 4206 2916 3982 2619 
Q 3759 2322 3309 2181 
Q 3556 2125 3751 1926 
Q 3947 1728 4147 1325 
L 4800 0 
L 3519 0 
L 2950 1159 
Q 2778 1509 2601 1637 
Q 2425 1766 2131 1766 
L 1791 1766 
z
" transform="scale(0.015625)"/>
       <path id="DejaVuSans-Bold-45" d="M 588 4666 
L 3834 4666 
L 3834 3756 
L 1791 3756 
L 1791 2888 
L 3713 2888 
L 3713 1978 
L 1791 1978 
L 1791 909 
L 3903 909 
L 3903 0 
L 588 0 
L 588 4666 
z
" transform="scale(0.015625)"/>
      </defs>
      <use xlink:href="#DejaVuSans-Bold-63"/>
      <use xlink:href="#DejaVuSans-Bold-43" transform="translate(59.277344 0)"/>
      <use xlink:href="#DejaVuSans-Bold-52" transform="translate(132.666016 0)"/>
      <use xlink:href="#DejaVuSans-Bold-45" transform="translate(209.667969 0)"/>
      <use xlink:href="#DejaVuSans-Bold-73" transform="translate(277.978516 0)"/>
     </g>
    </g>
   </g>
   <g id="patch_30">
    <path d="M 94.81875 457.558594 
L 94.81875 255.958594 
" style="fill: none; stroke: #000000; stroke-linejoin: miter; stroke-linecap: square"/>
   </g>
   <g id="patch_31">
    <path d="M 94.81875 457.558594 
L 541.21875 457.558594 
" style="fill: none; stroke: #000000; stroke-linejoin: miter; stroke-linecap: square"/>
   </g>
  </g>
 </g>
 <defs>
  <clipPath id="pdd41594e7b">
   <rect x="94.81875" y="14.038594" width="446.4" height="201.6"/>
  </clipPath>
  <clipPath id="p99e1a3abcd">
   <rect x="94.81875" y="255.958594" width="446.4" height="201.6"/>
  </clipPath>
 </defs>
</svg>
