<?xml version="1.0" encoding="utf-8" standalone="no"?>
<!DOCTYPE svg PUBLIC "-//W3C//DTD SVG 1.1//EN"
  "http://www.w3.org/Graphics/SVG/1.1/DTD/svg11.dtd">
<svg xmlns:xlink="http://www.w3.org/1999/xlink" width="567.982187pt" height="565.441219pt" viewBox="0 0 567.982187 565.441219" xmlns="http://www.w3.org/2000/svg" version="1.1">
 <metadata>
  <rdf:RDF xmlns:dc="http://purl.org/dc/elements/1.1/" xmlns:cc="http://creativecommons.org/ns#" xmlns:rdf="http://www.w3.org/1999/02/22-rdf-syntax-ns#">
   <cc:Work>
    <dc:type rdf:resource="http://purl.org/dc/dcmitype/StillImage"/>
    <dc:date>2025-12-31T13:43:33.817719</dc:date>
    <dc:format>image/svg+xml</dc:format>
    <dc:creator>
     <cc:Agent>
      <dc:title>Matplotlib v3.10.6, https://matplotlib.org/</dc:title>
     </cc:Agent>
    </dc:creator>
   </cc:Work>
  </rdf:RDF>
 </metadata>
 <defs>
  <style type="text/css">*{stroke-linejoin: round; stroke-linecap: butt}</style>
 </defs>
 <g id="figure_1">
  <g id="patch_1">
   <path d="M 0 565.441219 
L 567.982187 565.441219 
L 567.982187 0 
L 0 0 
L 0 565.441219 
z
" style="fill: none"/>
  </g>
  <g id="axes_1">
   <g id="patch_2">
    <path d="M 64.092188 503.020594 
L 560.782187 503.020594 
L 560.782187 14.038594 
L 64.092188 14.038594 
L 64.092188 503.020594 
z
" style="fill: none"/>
   </g>
   <g id="PathCollection_1">
    <path d="M 0 568.549889 
C 0.824429 568.549889 1.615203 568.22234 2.198162 567.639381 
C 2.781121 567.056421 3.108671 566.265648 3.108671 565.441219 
C 3.108671 564.61679 2.781121 563.826016 2.198162 563.243057 
C 1.615203 562.660097 0.824429 562.332548 0 562.332548 
C -0.824429 562.332548 -1.615203 562.660097 -2.198162 563.243057 
C -2.781121 563.826016 -3.108671 564.61679 -3.108671 565.441219 
C -3.108671 566.265648 -2.781121 567.056421 -2.198162 567.639381 
C -1.615203 568.22234 -0.824429 568.549889 0 568.549889 
" clip-path="url(#p4e1ca4dd34)" style="fill: none; stroke: #000000"/>
   </g>
   <g id="PathCollection_2">
    <path d="M 0 569.228387 
C 1.004369 569.228387 1.967736 568.829347 2.677932 568.119151 
C 3.388128 567.408955 3.787168 566.445587 3.787168 565.441219 
C 3.787168 564.43685 3.388128 563.473482 2.677932 562.763287 
C 1.967736 562.053091 1.004369 561.654051 0 561.654051 
C -1.004369 561.654051 -1.967736 562.053091 -2.677932 562.763287 
C -3.388128 563.473482 -3.787168 564.43685 -3.787168 565.441219 
C -3.787168 566.445587 -3.388128 567.408955 -2.677932 568.119151 
C -1.967736 568.829347 -1.004369 569.228387 0 569.228387 
" clip-path="url(#p4e1ca4dd34)" style="fill: none; stroke: #000000"/>
   </g>
   <g id="PathCollection_3">
    <path d="M 0 570.839212 
C 1.431565 570.839212 2.804689 570.270445 3.816958 569.258176 
C 4.829227 568.245907 5.397993 566.872783 5.397993 565.441219 
C 5.397993 564.009654 4.829227 562.63653 3.816958 561.624261 
C 2.804689 560.611992 1.431565 560.043225 0 560.043225 
C -1.431565 560.043225 -2.804689 560.611992 -3.816958 561.624261 
C -4.829227 562.63653 -5.397993 564.009654 -5.397993 565.441219 
C -5.397993 566.872783 -4.829227 568.245907 -3.816958 569.258176 
C -2.804689 570.270445 -1.431565 570.839212 0 570.839212 
" clip-path="url(#p4e1ca4dd34)" style="fill: none; stroke: #000000"/>
   </g>
   <g id="matplotlib.axis_1">
    <g id="xtick_1">
     <g id="line2d_1">
      <defs>
       <path id="m4f8c3728a1" d="M 0 0 
L 0 3.5 
" style="stroke: #000000; stroke-width: 0.8"/>
      </defs>
      <g>
       <use xlink:href="#m4f8c3728a1" x="79.889299" y="503.020594" style="stroke: #000000; stroke-width: 0.8"/>
      </g>
     </g>
     <g id="text_1">
      <!-- −2.0 -->
      <g transform="translate(58.034768 523.697781) scale(0.18 -0.18)">
       <defs>
        <path id="DejaVuSans-2212" d="M 678 2272 
L 4684 2272 
L 4684 1741 
L 678 1741 
L 678 2272 
z
" transform="scale(0.015625)"/>
        <path id="DejaVuSans-32" d="M 1228 531 
L 3431 531 
L 3431 0 
L 469 0 
L 469 531 
Q 828 903 1448 1529 
Q 2069 2156 2228 2338 
Q 2531 2678 2651 2914 
Q 2772 3150 2772 3378 
Q 2772 3750 2511 3984 
Q 2250 4219 1831 4219 
Q 1534 4219 1204 4116 
Q 875 4013 500 3803 
L 500 4441 
Q 881 4594 1212 4672 
Q 1544 4750 1819 4750 
Q 2544 4750 2975 4387 
Q 3406 4025 3406 3419 
Q 3406 3131 3298 2873 
Q 3191 2616 2906 2266 
Q 2828 2175 2409 1742 
Q 1991 1309 1228 531 
z
" transform="scale(0.015625)"/>
        <path id="DejaVuSans-2e" d="M 684 794 
L 1344 794 
L 1344 0 
L 684 0 
L 684 794 
z
" transform="scale(0.015625)"/>
        <path id="DejaVuSans-30" d="M 2034 4250 
Q 1547 4250 1301 3770 
Q 1056 3291 1056 2328 
Q 1056 1369 1301 889 
Q 1547 409 2034 409 
Q 2525 409 2770 889 
Q 3016 1369 3016 2328 
Q 3016 3291 2770 3770 
Q 2525 4250 2034 4250 
z
M 2034 4750 
Q 2819 4750 3233 4129 
Q 3647 3509 3647 2328 
Q 3647 1150 3233 529 
Q 2819 -91 2034 -91 
Q 1250 -91 836 529 
Q 422 1150 422 2328 
Q 422 3509 836 4129 
Q 1250 4750 2034 4750 
z
" transform="scale(0.015625)"/>
       </defs>
       <use xlink:href="#DejaVuSans-2212"/>
       <use xlink:href="#DejaVuSans-32" transform="translate(83.789062 0)"/>
       <use xlink:href="#DejaVuSans-2e" transform="translate(147.412109 0)"/>
       <use xlink:href="#DejaVuSans-30" transform="translate(179.199219 0)"/>
      </g>
     </g>
    </g>
    <g id="xtick_2">
     <g id="line2d_2">
      <g>
       <use xlink:href="#m4f8c3728a1" x="517.204502" y="503.020594" style="stroke: #000000; stroke-width: 0.8"/>
      </g>
     </g>
     <g id="text_2">
      <!-- 1.5 -->
      <g transform="translate(502.89169 523.697781) scale(0.18 -0.18)">
       <defs>
        <path id="DejaVuSans-31" d="M 794 531 
L 1825 531 
L 1825 4091 
L 703 3866 
L 703 4441 
L 1819 4666 
L 2450 4666 
L 2450 531 
L 3481 531 
L 3481 0 
L 794 0 
L 794 531 
z
" transform="scale(0.015625)"/>
        <path id="DejaVuSans-35" d="M 691 4666 
L 3169 4666 
L 3169 4134 
L 1269 4134 
L 1269 2991 
Q 1406 3038 1543 3061 
Q 1681 3084 1819 3084 
Q 2600 3084 3056 2656 
Q 3513 2228 3513 1497 
Q 3513 744 3044 326 
Q 2575 -91 1722 -91 
Q 1428 -91 1123 -41 
Q 819 9 494 109 
L 494 744 
Q 775 591 1075 516 
Q 1375 441 1709 441 
Q 2250 441 2565 725 
Q 2881 1009 2881 1497 
Q 2881 1984 2565 2268 
Q 2250 2553 1709 2553 
Q 1456 2553 1204 2497 
Q 953 2441 691 2322 
L 691 4666 
z
" transform="scale(0.015625)"/>
       </defs>
       <use xlink:href="#DejaVuSans-31"/>
       <use xlink:href="#DejaVuSans-2e" transform="translate(63.623047 0)"/>
       <use xlink:href="#DejaVuSans-35" transform="translate(95.410156 0)"/>
      </g>
     </g>
    </g>
    <g id="text_3">
     <!-- $\log_{2}\!\left(\frac{\mathrm{RNA}}{\mathrm{DNA}}\right)$ replicate 1 -->
     <g transform="translate(201.637187 550.441219) scale(0.2 -0.2)">
      <defs>
       <path id="DejaVuSans-6c" d="M 603 4863 
L 1178 4863 
L 1178 0 
L 603 0 
L 603 4863 
z
" transform="scale(0.015625)"/>
       <path id="DejaVuSans-6f" d="M 1959 3097 
Q 1497 3097 1228 2736 
Q 959 2375 959 1747 
Q 959 1119 1226 758 
Q 1494 397 1959 397 
Q 2419 397 2687 759 
Q 2956 1122 2956 1747 
Q 2956 2369 2687 2733 
Q 2419 3097 1959 3097 
z
M 1959 3584 
Q 2709 3584 3137 3096 
Q 3566 2609 3566 1747 
Q 3566 888 3137 398 
Q 2709 -91 1959 -91 
Q 1206 -91 779 398 
Q 353 888 353 1747 
Q 353 2609 779 3096 
Q 1206 3584 1959 3584 
z
" transform="scale(0.015625)"/>
       <path id="DejaVuSans-67" d="M 2906 1791 
Q 2906 2416 2648 2759 
Q 2391 3103 1925 3103 
Q 1463 3103 1205 2759 
Q 947 2416 947 1791 
Q 947 1169 1205 825 
Q 1463 481 1925 481 
Q 2391 481 2648 825 
Q 2906 1169 2906 1791 
z
M 3481 434 
Q 3481 -459 3084 -895 
Q 2688 -1331 1869 -1331 
Q 1566 -1331 1297 -1286 
Q 1028 -1241 775 -1147 
L 775 -588 
Q 1028 -725 1275 -790 
Q 1522 -856 1778 -856 
Q 2344 -856 2625 -561 
Q 2906 -266 2906 331 
L 2906 616 
Q 2728 306 2450 153 
Q 2172 0 1784 0 
Q 1141 0 747 490 
Q 353 981 353 1791 
Q 353 2603 747 3093 
Q 1141 3584 1784 3584 
Q 2172 3584 2450 3431 
Q 2728 3278 2906 2969 
L 2906 3500 
L 3481 3500 
L 3481 434 
z
" transform="scale(0.015625)"/>
       <path id="STIXSizeOneSym-Regular-28" d="M 2445 -858 
L 2445 -1050 
Q 1728 -371 1309 630 
Q 890 1632 890 2886 
Q 890 4122 1309 5136 
Q 1728 6150 2445 6822 
L 2445 6630 
Q 1408 5363 1408 2886 
Q 1408 410 2445 -858 
z
" transform="scale(0.015625)"/>
       <path id="DejaVuSans-52" d="M 2841 2188 
Q 3044 2119 3236 1894 
Q 3428 1669 3622 1275 
L 4263 0 
L 3584 0 
L 2988 1197 
Q 2756 1666 2539 1819 
Q 2322 1972 1947 1972 
L 1259 1972 
L 1259 0 
L 628 0 
L 628 4666 
L 2053 4666 
Q 2853 4666 3247 4331 
Q 3641 3997 3641 3322 
Q 3641 2881 3436 2590 
Q 3231 2300 2841 2188 
z
M 1259 4147 
L 1259 2491 
L 2053 2491 
Q 2509 2491 2742 2702 
Q 2975 2913 2975 3322 
Q 2975 3731 2742 3939 
Q 2509 4147 2053 4147 
L 1259 4147 
z
" transform="scale(0.015625)"/>
       <path id="DejaVuSans-4e" d="M 628 4666 
L 1478 4666 
L 3547 763 
L 3547 4666 
L 4159 4666 
L 4159 0 
L 3309 0 
L 1241 3903 
L 1241 0 
L 628 0 
L 628 4666 
z
" transform="scale(0.015625)"/>
       <path id="DejaVuSans-41" d="M 2188 4044 
L 1331 1722 
L 3047 1722 
L 2188 4044 
z
M 1831 4666 
L 2547 4666 
L 4325 0 
L 3669 0 
L 3244 1197 
L 1141 1197 
L 716 0 
L 50 0 
L 1831 4666 
z
" transform="scale(0.015625)"/>
       <path id="DejaVuSans-44" d="M 1259 4147 
L 1259 519 
L 2022 519 
Q 2988 519 3436 956 
Q 3884 1394 3884 2338 
Q 3884 3275 3436 3711 
Q 2988 4147 2022 4147 
L 1259 4147 
z
M 628 4666 
L 1925 4666 
Q 3281 4666 3915 4102 
Q 4550 3538 4550 2338 
Q 4550 1131 3912 565 
Q 3275 0 1925 0 
L 628 0 
L 628 4666 
z
" transform="scale(0.015625)"/>
       <path id="STIXSizeOneSym-Regular-29" d="M 550 6630 
L 550 6822 
Q 1267 6144 1686 5142 
Q 2106 4141 2106 2886 
Q 2106 1651 1686 636 
Q 1267 -378 550 -1050 
L 550 -858 
Q 1587 410 1587 2886 
Q 1587 5363 550 6630 
z
" transform="scale(0.015625)"/>
       <path id="DejaVuSans-Bold-20" transform="scale(0.015625)"/>
       <path id="DejaVuSans-Bold-72" d="M 3138 2547 
Q 2991 2616 2845 2648 
Q 2700 2681 2553 2681 
Q 2122 2681 1889 2404 
Q 1656 2128 1656 1613 
L 1656 0 
L 538 0 
L 538 3500 
L 1656 3500 
L 1656 2925 
Q 1872 3269 2151 3426 
Q 2431 3584 2822 3584 
Q 2878 3584 2943 3579 
Q 3009 3575 3134 3559 
L 3138 2547 
z
" transform="scale(0.015625)"/>
       <path id="DejaVuSans-Bold-65" d="M 4031 1759 
L 4031 1441 
L 1416 1441 
Q 1456 1047 1700 850 
Q 1944 653 2381 653 
Q 2734 653 3104 758 
Q 3475 863 3866 1075 
L 3866 213 
Q 3469 63 3072 -14 
Q 2675 -91 2278 -91 
Q 1328 -91 801 392 
Q 275 875 275 1747 
Q 275 2603 792 3093 
Q 1309 3584 2216 3584 
Q 3041 3584 3536 3087 
Q 4031 2591 4031 1759 
z
M 2881 2131 
Q 2881 2450 2695 2645 
Q 2509 2841 2209 2841 
Q 1884 2841 1681 2658 
Q 1478 2475 1428 2131 
L 2881 2131 
z
" transform="scale(0.015625)"/>
       <path id="DejaVuSans-Bold-70" d="M 1656 506 
L 1656 -1331 
L 538 -1331 
L 538 3500 
L 1656 3500 
L 1656 2988 
Q 1888 3294 2169 3439 
Q 2450 3584 2816 3584 
Q 3463 3584 3878 3070 
Q 4294 2556 4294 1747 
Q 4294 938 3878 423 
Q 3463 -91 2816 -91 
Q 2450 -91 2169 54 
Q 1888 200 1656 506 
z
M 2400 2772 
Q 2041 2772 1848 2508 
Q 1656 2244 1656 1747 
Q 1656 1250 1848 986 
Q 2041 722 2400 722 
Q 2759 722 2948 984 
Q 3138 1247 3138 1747 
Q 3138 2247 2948 2509 
Q 2759 2772 2400 2772 
z
" transform="scale(0.015625)"/>
       <path id="DejaVuSans-Bold-6c" d="M 538 4863 
L 1656 4863 
L 1656 0 
L 538 0 
L 538 4863 
z
" transform="scale(0.015625)"/>
       <path id="DejaVuSans-Bold-69" d="M 538 3500 
L 1656 3500 
L 1656 0 
L 538 0 
L 538 3500 
z
M 538 4863 
L 1656 4863 
L 1656 3950 
L 538 3950 
L 538 4863 
z
" transform="scale(0.015625)"/>
       <path id="DejaVuSans-Bold-63" d="M 3366 3391 
L 3366 2478 
Q 3138 2634 2908 2709 
Q 2678 2784 2431 2784 
Q 1963 2784 1702 2511 
Q 1441 2238 1441 1747 
Q 1441 1256 1702 982 
Q 1963 709 2431 709 
Q 2694 709 2930 787 
Q 3166 866 3366 1019 
L 3366 103 
Q 3103 6 2833 -42 
Q 2563 -91 2291 -91 
Q 1344 -91 809 395 
Q 275 881 275 1747 
Q 275 2613 809 3098 
Q 1344 3584 2291 3584 
Q 2566 3584 2833 3536 
Q 3100 3488 3366 3391 
z
" transform="scale(0.015625)"/>
       <path id="DejaVuSans-Bold-61" d="M 2106 1575 
Q 1756 1575 1579 1456 
Q 1403 1338 1403 1106 
Q 1403 894 1545 773 
Q 1688 653 1941 653 
Q 2256 653 2472 879 
Q 2688 1106 2688 1447 
L 2688 1575 
L 2106 1575 
z
M 3816 1997 
L 3816 0 
L 2688 0 
L 2688 519 
Q 2463 200 2181 54 
Q 1900 -91 1497 -91 
Q 953 -91 614 226 
Q 275 544 275 1050 
Q 275 1666 698 1953 
Q 1122 2241 2028 2241 
L 2688 2241 
L 2688 2328 
Q 2688 2594 2478 2717 
Q 2269 2841 1825 2841 
Q 1466 2841 1156 2769 
Q 847 2697 581 2553 
L 581 3406 
Q 941 3494 1303 3539 
Q 1666 3584 2028 3584 
Q 2975 3584 3395 3211 
Q 3816 2838 3816 1997 
z
" transform="scale(0.015625)"/>
       <path id="DejaVuSans-Bold-74" d="M 1759 4494 
L 1759 3500 
L 2913 3500 
L 2913 2700 
L 1759 2700 
L 1759 1216 
Q 1759 972 1856 886 
Q 1953 800 2241 800 
L 2816 800 
L 2816 0 
L 1856 0 
Q 1194 0 917 276 
Q 641 553 641 1216 
L 641 2700 
L 84 2700 
L 84 3500 
L 641 3500 
L 641 4494 
L 1759 4494 
z
" transform="scale(0.015625)"/>
       <path id="DejaVuSans-Bold-31" d="M 750 831 
L 1813 831 
L 1813 3847 
L 722 3622 
L 722 4441 
L 1806 4666 
L 2950 4666 
L 2950 831 
L 4013 831 
L 4013 0 
L 750 0 
L 750 831 
z
" transform="scale(0.015625)"/>
      </defs>
      <use xlink:href="#DejaVuSans-6c" transform="translate(0 0.16875)"/>
      <use xlink:href="#DejaVuSans-6f" transform="translate(27.783203 0.16875)"/>
      <use xlink:href="#DejaVuSans-67" transform="translate(88.964844 0.16875)"/>
      <use xlink:href="#DejaVuSans-32" transform="translate(153.398438 -16.2375) scale(0.7)"/>
      <use xlink:href="#STIXSizeOneSym-Regular-28" transform="translate(200.668945 -20.5375) scale(1.083892)"/>
      <use xlink:href="#DejaVuSans-52" transform="translate(254.388443 43.965625) scale(0.7)"/>
      <use xlink:href="#DejaVuSans-4e" transform="translate(303.026138 43.965625) scale(0.7)"/>
      <use xlink:href="#DejaVuSans-41" transform="translate(355.38942 43.965625) scale(0.7)"/>
      <use xlink:href="#DejaVuSans-44" transform="translate(251.388443 -38.31875) scale(0.7)"/>
      <use xlink:href="#DejaVuSans-4e" transform="translate(305.28981 -38.31875) scale(0.7)"/>
      <use xlink:href="#DejaVuSans-41" transform="translate(357.653091 -38.31875) scale(0.7)"/>
      <use xlink:href="#STIXSizeOneSym-Regular-29" transform="translate(418.038834 -20.5375) scale(1.083892)"/>
      <use xlink:href="#DejaVuSans-Bold-20" transform="translate(468.758331 0.16875)"/>
      <use xlink:href="#DejaVuSans-Bold-72" transform="translate(503.572784 0.16875)"/>
      <use xlink:href="#DejaVuSans-Bold-65" transform="translate(552.889191 0.16875)"/>
      <use xlink:href="#DejaVuSans-Bold-70" transform="translate(620.711456 0.16875)"/>
      <use xlink:href="#DejaVuSans-Bold-6c" transform="translate(692.293488 0.16875)"/>
      <use xlink:href="#DejaVuSans-Bold-69" transform="translate(726.570831 0.16875)"/>
      <use xlink:href="#DejaVuSans-Bold-63" transform="translate(760.848175 0.16875)"/>
      <use xlink:href="#DejaVuSans-Bold-61" transform="translate(820.125519 0.16875)"/>
      <use xlink:href="#DejaVuSans-Bold-74" transform="translate(887.605988 0.16875)"/>
      <use xlink:href="#DejaVuSans-Bold-65" transform="translate(935.408722 0.16875)"/>
      <use xlink:href="#DejaVuSans-Bold-20" transform="translate(1003.230988 0.16875)"/>
      <use xlink:href="#DejaVuSans-Bold-31" transform="translate(1038.045441 0.16875)"/>
      <path d="M 251.388443 18.965625 
L 251.388443 25.215625 
L 405.538834 25.215625 
L 405.538834 18.965625 
L 251.388443 18.965625 
z
"/>
     </g>
    </g>
   </g>
   <g id="matplotlib.axis_2">
    <g id="ytick_1">
     <g id="line2d_3">
      <defs>
       <path id="m28965f0668" d="M 0 0 
L -3.5 0 
" style="stroke: #000000; stroke-width: 0.8"/>
      </defs>
      <g>
       <use xlink:href="#m28965f0668" x="64.092188" y="503.020594" style="stroke: #000000; stroke-width: 0.8"/>
      </g>
     </g>
     <g id="text_4">
      <!-- −1 -->
      <g transform="translate(30.55625 509.859187) scale(0.18 -0.18)">
       <use xlink:href="#DejaVuSans-2212"/>
       <use xlink:href="#DejaVuSans-31" transform="translate(83.789062 0)"/>
      </g>
     </g>
    </g>
    <g id="ytick_2">
     <g id="line2d_4">
      <g>
       <use xlink:href="#m28965f0668" x="64.092188" y="14.038594" style="stroke: #000000; stroke-width: 0.8"/>
      </g>
     </g>
     <g id="text_5">
      <!-- 1 -->
      <g transform="translate(45.639688 20.877187) scale(0.18 -0.18)">
       <use xlink:href="#DejaVuSans-31"/>
      </g>
     </g>
    </g>
    <g id="text_6">
     <!-- Pearson's correlation (r) -->
     <g transform="translate(22.396875 396.126469) rotate(-90) scale(0.2 -0.2)">
      <defs>
       <path id="DejaVuSans-Bold-50" d="M 588 4666 
L 2584 4666 
Q 3475 4666 3951 4270 
Q 4428 3875 4428 3144 
Q 4428 2409 3951 2014 
Q 3475 1619 2584 1619 
L 1791 1619 
L 1791 0 
L 588 0 
L 588 4666 
z
M 1791 3794 
L 1791 2491 
L 2456 2491 
Q 2806 2491 2997 2661 
Q 3188 2831 3188 3144 
Q 3188 3456 2997 3625 
Q 2806 3794 2456 3794 
L 1791 3794 
z
" transform="scale(0.015625)"/>
       <path id="DejaVuSans-Bold-73" d="M 3272 3391 
L 3272 2541 
Q 2913 2691 2578 2766 
Q 2244 2841 1947 2841 
Q 1628 2841 1473 2761 
Q 1319 2681 1319 2516 
Q 1319 2381 1436 2309 
Q 1553 2238 1856 2203 
L 2053 2175 
Q 2913 2066 3209 1816 
Q 3506 1566 3506 1031 
Q 3506 472 3093 190 
Q 2681 -91 1863 -91 
Q 1516 -91 1145 -36 
Q 775 19 384 128 
L 384 978 
Q 719 816 1070 734 
Q 1422 653 1784 653 
Q 2113 653 2278 743 
Q 2444 834 2444 1013 
Q 2444 1163 2330 1236 
Q 2216 1309 1875 1350 
L 1678 1375 
Q 931 1469 631 1722 
Q 331 1975 331 2491 
Q 331 3047 712 3315 
Q 1094 3584 1881 3584 
Q 2191 3584 2531 3537 
Q 2872 3491 3272 3391 
z
" transform="scale(0.015625)"/>
       <path id="DejaVuSans-Bold-6f" d="M 2203 2784 
Q 1831 2784 1636 2517 
Q 1441 2250 1441 1747 
Q 1441 1244 1636 976 
Q 1831 709 2203 709 
Q 2569 709 2762 976 
Q 2956 1244 2956 1747 
Q 2956 2250 2762 2517 
Q 2569 2784 2203 2784 
z
M 2203 3584 
Q 3106 3584 3614 3096 
Q 4122 2609 4122 1747 
Q 4122 884 3614 396 
Q 3106 -91 2203 -91 
Q 1297 -91 786 396 
Q 275 884 275 1747 
Q 275 2609 786 3096 
Q 1297 3584 2203 3584 
z
" transform="scale(0.015625)"/>
       <path id="DejaVuSans-Bold-6e" d="M 4056 2131 
L 4056 0 
L 2931 0 
L 2931 347 
L 2931 1631 
Q 2931 2084 2911 2256 
Q 2891 2428 2841 2509 
Q 2775 2619 2662 2680 
Q 2550 2741 2406 2741 
Q 2056 2741 1856 2470 
Q 1656 2200 1656 1722 
L 1656 0 
L 538 0 
L 538 3500 
L 1656 3500 
L 1656 2988 
Q 1909 3294 2193 3439 
Q 2478 3584 2822 3584 
Q 3428 3584 3742 3212 
Q 4056 2841 4056 2131 
z
" transform="scale(0.015625)"/>
       <path id="DejaVuSans-Bold-27" d="M 1350 4666 
L 1350 2931 
L 609 2931 
L 609 4666 
L 1350 4666 
z
" transform="scale(0.015625)"/>
       <path id="DejaVuSans-Bold-28" d="M 2413 -844 
L 1484 -844 
Q 1006 -72 778 623 
Q 550 1319 550 2003 
Q 550 2688 779 3389 
Q 1009 4091 1484 4856 
L 2413 4856 
Q 2013 4116 1813 3408 
Q 1613 2700 1613 2009 
Q 1613 1319 1811 609 
Q 2009 -100 2413 -844 
z
" transform="scale(0.015625)"/>
       <path id="DejaVuSans-Bold-29" d="M 513 -844 
Q 913 -100 1113 609 
Q 1313 1319 1313 2009 
Q 1313 2700 1113 3408 
Q 913 4116 513 4856 
L 1441 4856 
Q 1916 4091 2145 3389 
Q 2375 2688 2375 2003 
Q 2375 1319 2147 623 
Q 1919 -72 1441 -844 
L 513 -844 
z
" transform="scale(0.015625)"/>
      </defs>
      <use xlink:href="#DejaVuSans-Bold-50"/>
      <use xlink:href="#DejaVuSans-Bold-65" transform="translate(73.291016 0)"/>
      <use xlink:href="#DejaVuSans-Bold-61" transform="translate(141.113281 0)"/>
      <use xlink:href="#DejaVuSans-Bold-72" transform="translate(208.59375 0)"/>
      <use xlink:href="#DejaVuSans-Bold-73" transform="translate(257.910156 0)"/>
      <use xlink:href="#DejaVuSans-Bold-6f" transform="translate(317.431641 0)"/>
      <use xlink:href="#DejaVuSans-Bold-6e" transform="translate(386.132812 0)"/>
      <use xlink:href="#DejaVuSans-Bold-27" transform="translate(457.324219 0)"/>
      <use xlink:href="#DejaVuSans-Bold-73" transform="translate(487.939453 0)"/>
      <use xlink:href="#DejaVuSans-Bold-20" transform="translate(547.460938 0)"/>
      <use xlink:href="#DejaVuSans-Bold-63" transform="translate(582.275391 0)"/>
      <use xlink:href="#DejaVuSans-Bold-6f" transform="translate(641.552734 0)"/>
      <use xlink:href="#DejaVuSans-Bold-72" transform="translate(710.253906 0)"/>
      <use xlink:href="#DejaVuSans-Bold-72" transform="translate(759.570312 0)"/>
      <use xlink:href="#DejaVuSans-Bold-65" transform="translate(808.886719 0)"/>
      <use xlink:href="#DejaVuSans-Bold-6c" transform="translate(876.708984 0)"/>
      <use xlink:href="#DejaVuSans-Bold-61" transform="translate(910.986328 0)"/>
      <use xlink:href="#DejaVuSans-Bold-74" transform="translate(978.466797 0)"/>
      <use xlink:href="#DejaVuSans-Bold-69" transform="translate(1026.269531 0)"/>
      <use xlink:href="#DejaVuSans-Bold-6f" transform="translate(1060.546875 0)"/>
      <use xlink:href="#DejaVuSans-Bold-6e" transform="translate(1129.248047 0)"/>
      <use xlink:href="#DejaVuSans-Bold-20" transform="translate(1200.439453 0)"/>
      <use xlink:href="#DejaVuSans-Bold-28" transform="translate(1235.253906 0)"/>
      <use xlink:href="#DejaVuSans-Bold-72" transform="translate(1280.957031 0)"/>
      <use xlink:href="#DejaVuSans-Bold-29" transform="translate(1330.273438 0)"/>
     </g>
    </g>
   </g>
   <g id="line2d_5">
    <path d="M 348.197167 270.940919 
L 421.093905 166.73234 
L 538.205369 256.875177 
" clip-path="url(#p4e1ca4dd34)" style="fill: none; stroke: #ff0000; stroke-width: 2; stroke-linecap: square"/>
   </g>
   <g id="line2d_6">
    <path d="M 86.669006 159.561837 
L 220.431641 64.072662 
L 340.398886 43.746299 
L 412.580567 293.492635 
" clip-path="url(#p4e1ca4dd34)" style="fill: none; stroke: #808080; stroke-width: 2; stroke-linecap: square"/>
   </g>
   <g id="line2d_7">
    <path d="M 64.092188 258.529594 
L 560.782187 258.529594 
" clip-path="url(#p4e1ca4dd34)" style="fill: none; stroke-dasharray: 3.7,1.6; stroke-dashoffset: 0; stroke: #808080"/>
   </g>
   <g id="patch_3">
    <path d="M 64.092188 503.020594 
L 64.092188 14.038594 
" style="fill: none; stroke: #000000; stroke-linejoin: miter; stroke-linecap: square"/>
   </g>
   <g id="patch_4">
    <path d="M 64.092188 503.020594 
L 560.782187 503.020594 
" style="fill: none; stroke: #000000; stroke-linejoin: miter; stroke-linecap: square"/>
   </g>
   <g id="PathCollection_4">
    <path d="M 348.197167 274.094979 
C 349.033633 274.094979 349.835953 273.762648 350.427424 273.171176 
C 351.018895 272.579705 351.351227 271.777386 351.351227 270.940919 
C 351.351227 270.104452 351.018895 269.302133 350.427424 268.710661 
C 349.835953 268.11919 349.033633 267.786858 348.197167 267.786858 
C 347.3607 267.786858 346.55838 268.11919 345.966909 268.710661 
C 345.375438 269.302133 345.043106 270.104452 345.043106 270.940919 
C 345.043106 271.777386 345.375438 272.579705 345.966909 273.171176 
C 346.55838 273.762648 347.3607 274.094979 348.197167 274.094979 
z
" clip-path="url(#p4e1ca4dd34)" style="fill: #ff0000; fill-opacity: 0.8; stroke: #000000; stroke-opacity: 0.8"/>
    <path d="M 421.093905 171.819313 
C 422.442986 171.819313 423.736994 171.283318 424.690938 170.329373 
C 425.644883 169.375429 426.180878 168.081421 426.180878 166.73234 
C 426.180878 165.383258 425.644883 164.089251 424.690938 163.135306 
C 423.736994 162.181362 422.442986 161.645366 421.093905 161.645366 
C 419.744823 161.645366 418.450815 162.181362 417.496871 163.135306 
C 416.542926 164.089251 416.006931 165.383258 416.006931 166.73234 
C 416.006931 168.081421 416.542926 169.375429 417.496871 170.329373 
C 418.450815 171.283318 419.744823 171.819313 421.093905 171.819313 
z
" clip-path="url(#p4e1ca4dd34)" style="fill: #ff0000; fill-opacity: 0.8; stroke: #000000; stroke-opacity: 0.8"/>
    <path d="M 538.205369 260.008937 
C 539.036452 260.008937 539.833608 259.678744 540.421272 259.09108 
C 541.008937 258.503415 541.339129 257.70626 541.339129 256.875177 
C 541.339129 256.044094 541.008937 255.246938 540.421272 254.659274 
C 539.833608 254.071609 539.036452 253.741417 538.205369 253.741417 
C 537.374286 253.741417 536.577131 254.071609 535.989466 254.659274 
C 535.401802 255.246938 535.071609 256.044094 535.071609 256.875177 
C 535.071609 257.70626 535.401802 258.503415 535.989466 259.09108 
C 536.577131 259.678744 537.374286 260.008937 538.205369 260.008937 
z
" clip-path="url(#p4e1ca4dd34)" style="fill: #ff0000; fill-opacity: 0.8; stroke: #000000; stroke-opacity: 0.8"/>
   </g>
   <g id="PathCollection_5">
    <path d="M 86.669006 162.798313 
C 87.527329 162.798313 88.350614 162.457298 88.95754 161.850371 
C 89.564466 161.243445 89.905482 160.420161 89.905482 159.561837 
C 89.905482 158.703514 89.564466 157.880229 88.95754 157.273303 
C 88.350614 156.666376 87.527329 156.325361 86.669006 156.325361 
C 85.810682 156.325361 84.987398 156.666376 84.380471 157.273303 
C 83.773545 157.880229 83.432529 158.703514 83.432529 159.561837 
C 83.432529 160.420161 83.773545 161.243445 84.380471 161.850371 
C 84.987398 162.457298 85.810682 162.798313 86.669006 162.798313 
z
" clip-path="url(#p4e1ca4dd34)" style="fill: #808080; fill-opacity: 0.8; stroke: #000000; stroke-opacity: 0.8"/>
    <path d="M 220.431641 69.767161 
C 221.94184 69.767161 223.390388 69.167153 224.45826 68.099281 
C 225.526132 67.031409 226.12614 65.582861 226.12614 64.072662 
C 226.12614 62.562463 225.526132 61.113915 224.45826 60.046043 
C 223.390388 58.978171 221.94184 58.378163 220.431641 58.378163 
C 218.921442 58.378163 217.472894 58.978171 216.405022 60.046043 
C 215.33715 61.113915 214.737142 62.562463 214.737142 64.072662 
C 214.737142 65.582861 215.33715 67.031409 216.405022 68.099281 
C 217.472894 69.167153 218.921442 69.767161 220.431641 69.767161 
z
" clip-path="url(#p4e1ca4dd34)" style="fill: #808080; fill-opacity: 0.8; stroke: #000000; stroke-opacity: 0.8"/>
    <path d="M 340.398886 51.329174 
C 342.409888 51.329174 344.338796 50.530194 345.760789 49.108201 
C 347.182782 47.686208 347.981762 45.757301 347.981762 43.746299 
C 347.981762 41.735296 347.182782 39.806389 345.760789 38.384396 
C 344.338796 36.962403 342.409888 36.163423 340.398886 36.163423 
C 338.387884 36.163423 336.458977 36.962403 335.036983 38.384396 
C 333.61499 39.806389 332.816011 41.735296 332.816011 43.746299 
C 332.816011 45.757301 333.61499 47.686208 335.036983 49.108201 
C 336.458977 50.530194 338.387884 51.329174 340.398886 51.329174 
z
" clip-path="url(#p4e1ca4dd34)" style="fill: #808080; fill-opacity: 0.8; stroke: #000000; stroke-opacity: 0.8"/>
    <path d="M 412.580567 297.571472 
C 413.662287 297.571472 414.699848 297.1417 415.46474 296.376809 
C 416.229632 295.611917 416.659404 294.574355 416.659404 293.492635 
C 416.659404 292.410915 416.229632 291.373354 415.46474 290.608462 
C 414.699848 289.84357 413.662287 289.413798 412.580567 289.413798 
C 411.498846 289.413798 410.461285 289.84357 409.696393 290.608462 
C 408.931502 291.373354 408.50173 292.410915 408.50173 293.492635 
C 408.50173 294.574355 408.931502 295.611917 409.696393 296.376809 
C 410.461285 297.1417 411.498846 297.571472 412.580567 297.571472 
z
" clip-path="url(#p4e1ca4dd34)" style="fill: #808080; fill-opacity: 0.8; stroke: #000000; stroke-opacity: 0.8"/>
   </g>
   <g id="legend_1">
    <g id="text_7">
     <!-- Number of cCREs -->
     <g transform="translate(80.292188 350.974031) scale(0.18 -0.18)">
      <defs>
       <path id="DejaVuSans-75" d="M 544 1381 
L 544 3500 
L 1119 3500 
L 1119 1403 
Q 1119 906 1312 657 
Q 1506 409 1894 409 
Q 2359 409 2629 706 
Q 2900 1003 2900 1516 
L 2900 3500 
L 3475 3500 
L 3475 0 
L 2900 0 
L 2900 538 
Q 2691 219 2414 64 
Q 2138 -91 1772 -91 
Q 1169 -91 856 284 
Q 544 659 544 1381 
z
M 1991 3584 
L 1991 3584 
z
" transform="scale(0.015625)"/>
       <path id="DejaVuSans-6d" d="M 3328 2828 
Q 3544 3216 3844 3400 
Q 4144 3584 4550 3584 
Q 5097 3584 5394 3201 
Q 5691 2819 5691 2113 
L 5691 0 
L 5113 0 
L 5113 2094 
Q 5113 2597 4934 2840 
Q 4756 3084 4391 3084 
Q 3944 3084 3684 2787 
Q 3425 2491 3425 1978 
L 3425 0 
L 2847 0 
L 2847 2094 
Q 2847 2600 2669 2842 
Q 2491 3084 2119 3084 
Q 1678 3084 1418 2786 
Q 1159 2488 1159 1978 
L 1159 0 
L 581 0 
L 581 3500 
L 1159 3500 
L 1159 2956 
Q 1356 3278 1631 3431 
Q 1906 3584 2284 3584 
Q 2666 3584 2933 3390 
Q 3200 3197 3328 2828 
z
" transform="scale(0.015625)"/>
       <path id="DejaVuSans-62" d="M 3116 1747 
Q 3116 2381 2855 2742 
Q 2594 3103 2138 3103 
Q 1681 3103 1420 2742 
Q 1159 2381 1159 1747 
Q 1159 1113 1420 752 
Q 1681 391 2138 391 
Q 2594 391 2855 752 
Q 3116 1113 3116 1747 
z
M 1159 2969 
Q 1341 3281 1617 3432 
Q 1894 3584 2278 3584 
Q 2916 3584 3314 3078 
Q 3713 2572 3713 1747 
Q 3713 922 3314 415 
Q 2916 -91 2278 -91 
Q 1894 -91 1617 61 
Q 1341 213 1159 525 
L 1159 0 
L 581 0 
L 581 4863 
L 1159 4863 
L 1159 2969 
z
" transform="scale(0.015625)"/>
       <path id="DejaVuSans-65" d="M 3597 1894 
L 3597 1613 
L 953 1613 
Q 991 1019 1311 708 
Q 1631 397 2203 397 
Q 2534 397 2845 478 
Q 3156 559 3463 722 
L 3463 178 
Q 3153 47 2828 -22 
Q 2503 -91 2169 -91 
Q 1331 -91 842 396 
Q 353 884 353 1716 
Q 353 2575 817 3079 
Q 1281 3584 2069 3584 
Q 2775 3584 3186 3129 
Q 3597 2675 3597 1894 
z
M 3022 2063 
Q 3016 2534 2758 2815 
Q 2500 3097 2075 3097 
Q 1594 3097 1305 2825 
Q 1016 2553 972 2059 
L 3022 2063 
z
" transform="scale(0.015625)"/>
       <path id="DejaVuSans-72" d="M 2631 2963 
Q 2534 3019 2420 3045 
Q 2306 3072 2169 3072 
Q 1681 3072 1420 2755 
Q 1159 2438 1159 1844 
L 1159 0 
L 581 0 
L 581 3500 
L 1159 3500 
L 1159 2956 
Q 1341 3275 1631 3429 
Q 1922 3584 2338 3584 
Q 2397 3584 2469 3576 
Q 2541 3569 2628 3553 
L 2631 2963 
z
" transform="scale(0.015625)"/>
       <path id="DejaVuSans-20" transform="scale(0.015625)"/>
       <path id="DejaVuSans-66" d="M 2375 4863 
L 2375 4384 
L 1825 4384 
Q 1516 4384 1395 4259 
Q 1275 4134 1275 3809 
L 1275 3500 
L 2222 3500 
L 2222 3053 
L 1275 3053 
L 1275 0 
L 697 0 
L 697 3053 
L 147 3053 
L 147 3500 
L 697 3500 
L 697 3744 
Q 697 4328 969 4595 
Q 1241 4863 1831 4863 
L 2375 4863 
z
" transform="scale(0.015625)"/>
       <path id="DejaVuSans-63" d="M 3122 3366 
L 3122 2828 
Q 2878 2963 2633 3030 
Q 2388 3097 2138 3097 
Q 1578 3097 1268 2742 
Q 959 2388 959 1747 
Q 959 1106 1268 751 
Q 1578 397 2138 397 
Q 2388 397 2633 464 
Q 2878 531 3122 666 
L 3122 134 
Q 2881 22 2623 -34 
Q 2366 -91 2075 -91 
Q 1284 -91 818 406 
Q 353 903 353 1747 
Q 353 2603 823 3093 
Q 1294 3584 2113 3584 
Q 2378 3584 2631 3529 
Q 2884 3475 3122 3366 
z
" transform="scale(0.015625)"/>
       <path id="DejaVuSans-43" d="M 4122 4306 
L 4122 3641 
Q 3803 3938 3442 4084 
Q 3081 4231 2675 4231 
Q 1875 4231 1450 3742 
Q 1025 3253 1025 2328 
Q 1025 1406 1450 917 
Q 1875 428 2675 428 
Q 3081 428 3442 575 
Q 3803 722 4122 1019 
L 4122 359 
Q 3791 134 3420 21 
Q 3050 -91 2638 -91 
Q 1578 -91 968 557 
Q 359 1206 359 2328 
Q 359 3453 968 4101 
Q 1578 4750 2638 4750 
Q 3056 4750 3426 4639 
Q 3797 4528 4122 4306 
z
" transform="scale(0.015625)"/>
       <path id="DejaVuSans-45" d="M 628 4666 
L 3578 4666 
L 3578 4134 
L 1259 4134 
L 1259 2753 
L 3481 2753 
L 3481 2222 
L 1259 2222 
L 1259 531 
L 3634 531 
L 3634 0 
L 628 0 
L 628 4666 
z
" transform="scale(0.015625)"/>
       <path id="DejaVuSans-73" d="M 2834 3397 
L 2834 2853 
Q 2591 2978 2328 3040 
Q 2066 3103 1784 3103 
Q 1356 3103 1142 2972 
Q 928 2841 928 2578 
Q 928 2378 1081 2264 
Q 1234 2150 1697 2047 
L 1894 2003 
Q 2506 1872 2764 1633 
Q 3022 1394 3022 966 
Q 3022 478 2636 193 
Q 2250 -91 1575 -91 
Q 1294 -91 989 -36 
Q 684 19 347 128 
L 347 722 
Q 666 556 975 473 
Q 1284 391 1588 391 
Q 1994 391 2212 530 
Q 2431 669 2431 922 
Q 2431 1156 2273 1281 
Q 2116 1406 1581 1522 
L 1381 1569 
Q 847 1681 609 1914 
Q 372 2147 372 2553 
Q 372 3047 722 3315 
Q 1072 3584 1716 3584 
Q 2034 3584 2315 3537 
Q 2597 3491 2834 3397 
z
" transform="scale(0.015625)"/>
      </defs>
      <use xlink:href="#DejaVuSans-4e"/>
      <use xlink:href="#DejaVuSans-75" transform="translate(74.804688 0)"/>
      <use xlink:href="#DejaVuSans-6d" transform="translate(138.183594 0)"/>
      <use xlink:href="#DejaVuSans-62" transform="translate(235.595703 0)"/>
      <use xlink:href="#DejaVuSans-65" transform="translate(299.072266 0)"/>
      <use xlink:href="#DejaVuSans-72" transform="translate(360.595703 0)"/>
      <use xlink:href="#DejaVuSans-20" transform="translate(401.708984 0)"/>
      <use xlink:href="#DejaVuSans-6f" transform="translate(433.496094 0)"/>
      <use xlink:href="#DejaVuSans-66" transform="translate(494.677734 0)"/>
      <use xlink:href="#DejaVuSans-20" transform="translate(529.882812 0)"/>
      <use xlink:href="#DejaVuSans-63" transform="translate(561.669922 0)"/>
      <use xlink:href="#DejaVuSans-43" transform="translate(616.650391 0)"/>
      <use xlink:href="#DejaVuSans-52" transform="translate(686.474609 0)"/>
      <use xlink:href="#DejaVuSans-45" transform="translate(755.957031 0)"/>
      <use xlink:href="#DejaVuSans-73" transform="translate(819.140625 0)"/>
     </g>
    </g>
    <g id="PathCollection_6">
     <path d="M 102.956719 375.778327 
C 103.781148 375.778327 104.571921 375.450778 105.154881 374.867818 
C 105.73784 374.284859 106.065389 373.494085 106.065389 372.669656 
C 106.065389 371.845227 105.73784 371.054454 105.154881 370.471494 
C 104.571921 369.888535 103.781148 369.560986 102.956719 369.560986 
C 102.13229 369.560986 101.341516 369.888535 100.758557 370.471494 
C 100.175597 371.054454 99.848048 371.845227 99.848048 372.669656 
C 99.848048 373.494085 100.175597 374.284859 100.758557 374.867818 
C 101.341516 375.450778 102.13229 375.778327 102.956719 375.778327 
L 102.956719 375.778327 
z
" style="fill: none; stroke: #000000"/>
    </g>
    <g id="text_8">
     <!-- 100 -->
     <g transform="translate(135.356719 377.394656) scale(0.18 -0.18)">
      <use xlink:href="#DejaVuSans-31"/>
      <use xlink:href="#DejaVuSans-30" transform="translate(63.623047 0)"/>
      <use xlink:href="#DejaVuSans-30" transform="translate(127.246094 0)"/>
     </g>
    </g>
    <g id="PathCollection_7">
     <path d="M 102.956719 402.877449 
C 103.961087 402.877449 104.924455 402.478409 105.634651 401.768213 
C 106.344847 401.058018 106.743887 400.09465 106.743887 399.090281 
C 106.743887 398.085913 106.344847 397.122545 105.634651 396.412349 
C 104.924455 395.702153 103.961087 395.303113 102.956719 395.303113 
C 101.95235 395.303113 100.988982 395.702153 100.278787 396.412349 
C 99.568591 397.122545 99.169551 398.085913 99.169551 399.090281 
C 99.169551 400.09465 99.568591 401.058018 100.278787 401.768213 
C 100.988982 402.478409 101.95235 402.877449 102.956719 402.877449 
L 102.956719 402.877449 
z
" style="fill: none; stroke: #000000"/>
    </g>
    <g id="text_9">
     <!-- 1000 -->
     <g transform="translate(135.356719 403.815281) scale(0.18 -0.18)">
      <use xlink:href="#DejaVuSans-31"/>
      <use xlink:href="#DejaVuSans-30" transform="translate(63.623047 0)"/>
      <use xlink:href="#DejaVuSans-30" transform="translate(127.246094 0)"/>
      <use xlink:href="#DejaVuSans-30" transform="translate(190.869141 0)"/>
     </g>
    </g>
    <g id="PathCollection_8">
     <path d="M 102.956719 430.9089 
C 104.388283 430.9089 105.761407 430.340133 106.773676 429.327864 
C 107.785945 428.315595 108.354712 426.942471 108.354712 425.510906 
C 108.354712 424.079342 107.785945 422.706218 106.773676 421.693949 
C 105.761407 420.68168 104.388283 420.112913 102.956719 420.112913 
C 101.525154 420.112913 100.15203 420.68168 99.139761 421.693949 
C 98.127492 422.706218 97.558725 424.079342 97.558725 425.510906 
C 97.558725 426.942471 98.127492 428.315595 99.139761 429.327864 
C 100.15203 430.340133 101.525154 430.9089 102.956719 430.9089 
L 102.956719 430.9089 
z
" style="fill: none; stroke: #000000"/>
    </g>
    <g id="text_10">
     <!-- 10000 -->
     <g transform="translate(135.356719 430.235906) scale(0.18 -0.18)">
      <use xlink:href="#DejaVuSans-31"/>
      <use xlink:href="#DejaVuSans-30" transform="translate(63.623047 0)"/>
      <use xlink:href="#DejaVuSans-30" transform="translate(127.246094 0)"/>
      <use xlink:href="#DejaVuSans-30" transform="translate(190.869141 0)"/>
      <use xlink:href="#DejaVuSans-30" transform="translate(254.492188 0)"/>
     </g>
    </g>
    <g id="line2d_8">
     <path d="M 84.956719 450.356531 
L 102.956719 450.356531 
L 120.956719 450.356531 
" style="fill: none; stroke: #ff0000; stroke-width: 2; stroke-linecap: square"/>
    </g>
    <g id="text_11">
     <!-- Active -->
     <g transform="translate(135.356719 456.656531) scale(0.18 -0.18)">
      <defs>
       <path id="DejaVuSans-74" d="M 1172 4494 
L 1172 3500 
L 2356 3500 
L 2356 3053 
L 1172 3053 
L 1172 1153 
Q 1172 725 1289 603 
Q 1406 481 1766 481 
L 2356 481 
L 2356 0 
L 1766 0 
Q 1100 0 847 248 
Q 594 497 594 1153 
L 594 3053 
L 172 3053 
L 172 3500 
L 594 3500 
L 594 4494 
L 1172 4494 
z
" transform="scale(0.015625)"/>
       <path id="DejaVuSans-69" d="M 603 3500 
L 1178 3500 
L 1178 0 
L 603 0 
L 603 3500 
z
M 603 4863 
L 1178 4863 
L 1178 4134 
L 603 4134 
L 603 4863 
z
" transform="scale(0.015625)"/>
       <path id="DejaVuSans-76" d="M 191 3500 
L 800 3500 
L 1894 563 
L 2988 3500 
L 3597 3500 
L 2284 0 
L 1503 0 
L 191 3500 
z
" transform="scale(0.015625)"/>
      </defs>
      <use xlink:href="#DejaVuSans-41"/>
      <use xlink:href="#DejaVuSans-63" transform="translate(66.658203 0)"/>
      <use xlink:href="#DejaVuSans-74" transform="translate(121.638672 0)"/>
      <use xlink:href="#DejaVuSans-69" transform="translate(160.847656 0)"/>
      <use xlink:href="#DejaVuSans-76" transform="translate(188.630859 0)"/>
      <use xlink:href="#DejaVuSans-65" transform="translate(247.810547 0)"/>
     </g>
    </g>
    <g id="line2d_9">
     <path d="M 84.956719 476.777156 
L 102.956719 476.777156 
L 120.956719 476.777156 
" style="fill: none; stroke: #808080; stroke-width: 2; stroke-linecap: square"/>
    </g>
    <g id="text_12">
     <!-- Non-active -->
     <g transform="translate(135.356719 483.077156) scale(0.18 -0.18)">
      <defs>
       <path id="DejaVuSans-6e" d="M 3513 2113 
L 3513 0 
L 2938 0 
L 2938 2094 
Q 2938 2591 2744 2837 
Q 2550 3084 2163 3084 
Q 1697 3084 1428 2787 
Q 1159 2491 1159 1978 
L 1159 0 
L 581 0 
L 581 3500 
L 1159 3500 
L 1159 2956 
Q 1366 3272 1645 3428 
Q 1925 3584 2291 3584 
Q 2894 3584 3203 3211 
Q 3513 2838 3513 2113 
z
" transform="scale(0.015625)"/>
       <path id="DejaVuSans-2d" d="M 313 2009 
L 1997 2009 
L 1997 1497 
L 313 1497 
L 313 2009 
z
" transform="scale(0.015625)"/>
       <path id="DejaVuSans-61" d="M 2194 1759 
Q 1497 1759 1228 1600 
Q 959 1441 959 1056 
Q 959 750 1161 570 
Q 1363 391 1709 391 
Q 2188 391 2477 730 
Q 2766 1069 2766 1631 
L 2766 1759 
L 2194 1759 
z
M 3341 1997 
L 3341 0 
L 2766 0 
L 2766 531 
Q 2569 213 2275 61 
Q 1981 -91 1556 -91 
Q 1019 -91 701 211 
Q 384 513 384 1019 
Q 384 1609 779 1909 
Q 1175 2209 1959 2209 
L 2766 2209 
L 2766 2266 
Q 2766 2663 2505 2880 
Q 2244 3097 1772 3097 
Q 1472 3097 1187 3025 
Q 903 2953 641 2809 
L 641 3341 
Q 956 3463 1253 3523 
Q 1550 3584 1831 3584 
Q 2591 3584 2966 3190 
Q 3341 2797 3341 1997 
z
" transform="scale(0.015625)"/>
      </defs>
      <use xlink:href="#DejaVuSans-4e"/>
      <use xlink:href="#DejaVuSans-6f" transform="translate(74.804688 0)"/>
      <use xlink:href="#DejaVuSans-6e" transform="translate(135.986328 0)"/>
      <use xlink:href="#DejaVuSans-2d" transform="translate(199.365234 0)"/>
      <use xlink:href="#DejaVuSans-61" transform="translate(235.449219 0)"/>
      <use xlink:href="#DejaVuSans-63" transform="translate(296.728516 0)"/>
      <use xlink:href="#DejaVuSans-74" transform="translate(351.708984 0)"/>
      <use xlink:href="#DejaVuSans-69" transform="translate(390.917969 0)"/>
      <use xlink:href="#DejaVuSans-76" transform="translate(418.701172 0)"/>
      <use xlink:href="#DejaVuSans-65" transform="translate(477.880859 0)"/>
     </g>
    </g>
   </g>
  </g>
 </g>
 <defs>
  <clipPath id="p4e1ca4dd34">
   <rect x="64.092188" y="14.038594" width="496.69" height="488.982"/>
  </clipPath>
 </defs>
</svg>
