<?xml version="1.0" encoding="UTF-8"?>
<svg xmlns="http://www.w3.org/2000/svg" xmlns:xlink="http://www.w3.org/1999/xlink" viewBox="0 0 595.28 328.32">
  <defs>
    <style>
      .cls-1 {
        stroke-width: .07px;
      }

      .cls-1, .cls-2, .cls-3, .cls-4, .cls-5, .cls-6, .cls-7, .cls-8, .cls-9, .cls-10, .cls-11, .cls-12, .cls-13, .cls-14, .cls-15, .cls-16, .cls-17, .cls-18, .cls-19, .cls-20, .cls-21, .cls-22, .cls-23, .cls-24, .cls-25, .cls-26, .cls-27, .cls-28, .cls-29, .cls-30, .cls-31, .cls-32, .cls-33, .cls-34, .cls-35, .cls-36, .cls-37, .cls-38, .cls-39, .cls-40, .cls-41, .cls-42, .cls-43, .cls-44, .cls-45, .cls-46, .cls-47, .cls-48, .cls-49, .cls-50, .cls-51, .cls-52, .cls-53, .cls-54, .cls-55, .cls-56, .cls-57, .cls-58, .cls-59, .cls-60, .cls-61, .cls-62, .cls-63, .cls-64, .cls-65, .cls-66, .cls-67, .cls-68, .cls-69, .cls-70 {
        stroke-miterlimit: 10;
      }

      .cls-1, .cls-2, .cls-4, .cls-5, .cls-7, .cls-71, .cls-9, .cls-11, .cls-12, .cls-14, .cls-17, .cls-19, .cls-20, .cls-72, .cls-21, .cls-22, .cls-23, .cls-24, .cls-26, .cls-27, .cls-28, .cls-31, .cls-32, .cls-33, .cls-34, .cls-36, .cls-37, .cls-38, .cls-41, .cls-73, .cls-43, .cls-44, .cls-45, .cls-47, .cls-48, .cls-49, .cls-53, .cls-54, .cls-55, .cls-56, .cls-57, .cls-58, .cls-59, .cls-61, .cls-63, .cls-64, .cls-68 {
        fill: none;
      }

      .cls-1, .cls-26, .cls-28, .cls-41 {
        stroke: #a8a9ac;
      }

      .cls-2 {
        stroke: #00a651;
      }

      .cls-2, .cls-12, .cls-24, .cls-32 {
        opacity: .5;
        stroke-width: 2.08px;
      }

      .cls-3 {
        stroke-width: .95px;
      }

      .cls-3, .cls-6, .cls-13, .cls-16, .cls-74, .cls-39, .cls-75 {
        fill: #d1d3d4;
      }

      .cls-3, .cls-8, .cls-71, .cls-10, .cls-25, .cls-35, .cls-39, .cls-50, .cls-60 {
        stroke: #fff;
      }

      .cls-4 {
        stroke-dasharray: 1.51 1.51;
      }

      .cls-4, .cls-5, .cls-7, .cls-9, .cls-11, .cls-14, .cls-19, .cls-20, .cls-21, .cls-22, .cls-27, .cls-29, .cls-30, .cls-34, .cls-36, .cls-37, .cls-38, .cls-42, .cls-43, .cls-45, .cls-46, .cls-47, .cls-51, .cls-52, .cls-53, .cls-54, .cls-55, .cls-56, .cls-57, .cls-59, .cls-64, .cls-65, .cls-66, .cls-68, .cls-69, .cls-70 {
        stroke: #bcbec0;
      }

      .cls-76, .cls-77, .cls-78, .cls-30, .cls-79, .cls-42, .cls-80 {
        fill: #fff;
      }

      .cls-76, .cls-81 {
        font-size: 7px;
      }

      .cls-76, .cls-81, .cls-82, .cls-83, .cls-80 {
        font-family: ArialMT, Arial;
      }

      .cls-5 {
        stroke-dasharray: 1.51 1.51;
      }

      .cls-6 {
        stroke-width: .69px;
      }

      .cls-6, .cls-13, .cls-16, .cls-17, .cls-33, .cls-61 {
        stroke: #d1d3d4;
      }

      .cls-84 {
        fill: url(#linear-gradient-2);
      }

      .cls-7, .cls-8, .cls-10, .cls-60 {
        stroke-width: .75px;
      }

      .cls-8, .cls-18 {
        fill: #f16623;
      }

      .cls-71 {
        stroke-width: 1.31px;
      }

      .cls-71, .cls-85, .cls-86, .cls-73, .cls-87 {
        stroke-linejoin: round;
      }

      .cls-71, .cls-85, .cls-86, .cls-62, .cls-87, .cls-67 {
        stroke-linecap: round;
      }

      .cls-88 {
        fill: #f1f2f2;
      }

      .cls-9 {
        stroke-dasharray: 1.42 1.42;
      }

      .cls-10, .cls-15, .cls-35, .cls-89 {
        fill: #9e2064;
      }

      .cls-11 {
        stroke-dasharray: 1.46 1.46;
      }

      .cls-90, .cls-91, .cls-92, .cls-81, .cls-82, .cls-83 {
        fill: #231f20;
      }

      .cls-12 {
        stroke: #fbb040;
      }

      .cls-13 {
        stroke-width: .57px;
      }

      .cls-14 {
        stroke-dasharray: 1.5 1.5;
      }

      .cls-15 {
        stroke: #9e2064;
        stroke-width: .49px;
      }

      .cls-16 {
        stroke-width: .79px;
      }

      .cls-17 {
        stroke-width: 2.01px;
      }

      .cls-93 {
        fill: #9e1f63;
      }

      .cls-18 {
        stroke: #f16623;
        stroke-width: .58px;
      }

      .cls-19 {
        stroke-dasharray: 1.5 1.5;
      }

      .cls-20, .cls-46 {
        stroke-width: .64px;
      }

      .cls-78 {
        font-size: 11px;
      }

      .cls-78, .cls-91, .cls-79 {
        font-family: Arial-BoldMT, Arial;
      }

      .cls-78, .cls-91, .cls-79, .cls-75 {
        font-weight: 700;
      }

      .cls-21 {
        stroke-dasharray: 1.55 1.55;
      }

      .cls-22 {
        stroke-dasharray: 1.39 1.39;
      }

      .cls-23 {
        stroke: #a7a9ac;
        stroke-width: .54px;
      }

      .cls-24 {
        stroke: #ee2a7b;
      }

      .cls-25, .cls-29, .cls-46, .cls-50, .cls-51, .cls-52, .cls-94, .cls-65, .cls-66, .cls-69, .cls-70 {
        fill: #bcbec0;
      }

      .cls-25, .cls-35 {
        stroke-width: .03px;
      }

      .cls-95 {
        fill: url(#linear-gradient-3);
      }

      .cls-26 {
        stroke-width: .07px;
      }

      .cls-91, .cls-79 {
        font-size: 8px;
      }

      .cls-27 {
        stroke-dasharray: 1.16 1.16;
      }

      .cls-28 {
        stroke-width: .06px;
      }

      .cls-29 {
        stroke-width: 1.07px;
      }

      .cls-30 {
        stroke-width: 1.55px;
      }

      .cls-31 {
        stroke-width: .25px;
      }

      .cls-31, .cls-44, .cls-48 {
        stroke: #231f20;
      }

      .cls-32 {
        stroke: #27aae1;
      }

      .cls-33 {
        stroke-width: 1.33px;
      }

      .cls-34 {
        stroke-dasharray: 1.46 1.46;
      }

      .cls-92 {
        font-family: Arial-Black, Arial;
        font-weight: 800;
      }

      .cls-92, .cls-80 {
        font-size: 6.41px;
      }

      .cls-37 {
        stroke-dasharray: 1.42 1.42;
      }

      .cls-96 {
        fill: #a7a9ac;
      }

      .cls-38 {
        stroke-dasharray: 1.7 1.7;
      }

      .cls-85 {
        stroke-width: 1.15px;
      }

      .cls-85, .cls-86, .cls-87 {
        fill: #e6e7e8;
        stroke: #e6e7e8;
      }

      .cls-39 {
        stroke-width: .48px;
      }

      .cls-40 {
        stroke: #293c90;
        stroke-width: .43px;
      }

      .cls-40, .cls-60 {
        fill: #293c90;
      }

      .cls-41 {
        stroke-width: .1px;
      }

      .cls-97 {
        fill: #0e2c4d;
      }

      .cls-42 {
        stroke-width: 1.55px;
      }

      .cls-86 {
        stroke-width: .93px;
      }

      .cls-98 {
        fill: #6d6e71;
      }

      .cls-73 {
        stroke: #6d6e71;
        stroke-width: 7px;
      }

      .cls-43 {
        stroke-dasharray: 1.43 1.43;
      }

      .cls-44, .cls-64 {
        stroke-width: .5px;
      }

      .cls-45 {
        stroke-dasharray: 1.16 1.16;
      }

      .cls-99 {
        fill: #2a3b90;
      }

      .cls-47 {
        stroke-dasharray: 1.16 1.16;
      }

      .cls-48 {
        stroke-linecap: square;
        stroke-width: .31px;
      }

      .cls-49, .cls-58 {
        stroke: #f26522;
      }

      .cls-100 {
        fill: #58595b;
      }

      .cls-101 {
        fill: #269297;
      }

      .cls-50 {
        stroke-width: .13px;
      }

      .cls-51 {
        stroke-width: .39px;
      }

      .cls-52 {
        stroke-width: .97px;
      }

      .cls-53 {
        stroke-dasharray: 1.25 1.25;
      }

      .cls-54 {
        stroke-dasharray: 1.66 1.66;
      }

      .cls-55 {
        stroke-dasharray: 1.48 1.48;
      }

      .cls-56 {
        stroke-dasharray: 1.16 1.16;
      }

      .cls-75 {
        font-family: Bahnschrift-Bold, Bahnschrift;
        font-size: 13.6px;
        font-variation-settings: 'wght' 700, 'wdth' 100;
      }

      .cls-57 {
        stroke-dasharray: 1.51 1.51;
      }

      .cls-58 {
        stroke-width: 3px;
      }

      .cls-82 {
        font-size: 5.63px;
      }

      .cls-59 {
        stroke-dasharray: 1.16 1.16;
      }

      .cls-83 {
        font-size: 12px;
      }

      .cls-61 {
        stroke-width: .89px;
      }

      .cls-102 {
        fill: url(#linear-gradient);
      }

      .cls-62 {
        stroke-width: 1.29px;
      }

      .cls-62, .cls-67 {
        fill: #00a651;
        stroke: #269297;
      }

      .cls-63 {
        stroke: #9e1f63;
        stroke-width: 3.81px;
      }

      .cls-87 {
        stroke-width: .59px;
      }

      .cls-103 {
        fill: #f26522;
      }

      .cls-65 {
        stroke-width: .33px;
      }

      .cls-66 {
        stroke-width: .92px;
      }

      .cls-67 {
        stroke-width: 2.58px;
      }

      .cls-68 {
        stroke-dasharray: 1.5 1.5;
      }

      .cls-70 {
        stroke-width: 1.05px;
      }
    </style>
    <linearGradient id="linear-gradient" x1="442.56" y1="428.23" x2="458.18" y2="428.23" gradientTransform="translate(-10.65 -315.17)" gradientUnits="userSpaceOnUse">
      <stop offset="0" stop-color="#fff"/>
      <stop offset=".14" stop-color="#fff" stop-opacity=".99"/>
      <stop offset=".26" stop-color="#fff" stop-opacity=".94"/>
      <stop offset=".39" stop-color="#fff" stop-opacity=".87"/>
      <stop offset=".51" stop-color="#fff" stop-opacity=".76"/>
      <stop offset=".63" stop-color="#fff" stop-opacity=".63"/>
      <stop offset=".74" stop-color="#fff" stop-opacity=".47"/>
      <stop offset=".86" stop-color="#fff" stop-opacity=".27"/>
      <stop offset=".97" stop-color="#fff" stop-opacity=".06"/>
      <stop offset="1" stop-color="#fff" stop-opacity="0"/>
    </linearGradient>
    <linearGradient id="linear-gradient-2" x1="264.85" y1="310.36" x2="292.75" y2="310.36" gradientTransform="translate(43.05 -25.73)" gradientUnits="userSpaceOnUse">
      <stop offset="0" stop-color="#fff"/>
      <stop offset=".32" stop-color="#fff" stop-opacity=".99"/>
      <stop offset=".45" stop-color="#fff" stop-opacity=".96"/>
      <stop offset=".56" stop-color="#fff" stop-opacity=".91"/>
      <stop offset=".64" stop-color="#fff" stop-opacity=".84"/>
      <stop offset=".72" stop-color="#fff" stop-opacity=".75"/>
      <stop offset=".78" stop-color="#fff" stop-opacity=".64"/>
      <stop offset=".84" stop-color="#fff" stop-opacity=".51"/>
      <stop offset=".9" stop-color="#fff" stop-opacity=".35"/>
      <stop offset=".95" stop-color="#fff" stop-opacity=".18"/>
      <stop offset="1" stop-color="#fff" stop-opacity="0"/>
    </linearGradient>
    <linearGradient id="linear-gradient-3" x1="414.28" y1="194.65" x2="438.91" y2="194.65" gradientTransform="translate(-77.79 53.44)" gradientUnits="userSpaceOnUse">
      <stop offset="0" stop-color="#fff"/>
      <stop offset=".12" stop-color="#fff" stop-opacity=".91"/>
      <stop offset=".36" stop-color="#fff" stop-opacity=".69"/>
      <stop offset=".7" stop-color="#fff" stop-opacity=".34"/>
      <stop offset="1" stop-color="#fff" stop-opacity="0"/>
    </linearGradient>
  </defs>
  <g id="Layer_1" data-name="Layer 1">
    <text class="cls-79" transform="translate(304.35 328.32)"><tspan x="0" y="0">Optimization</tspan></text>
  </g>
  <g id="boxes">
    <rect class="cls-66" x="476.07" y="149.7" width="114.36" height="156.49" rx="6.52" ry="6.52"/>
    <rect class="cls-30" x="476.15" y="179.37" width="114.21" height="126.82" rx="6.52" ry="6.52"/>
    <rect class="cls-52" x="476.27" y="23.84" width="114.21" height="88.53" rx="6.52" ry="6.52"/>
    <rect class="cls-30" x="476.27" y="50.88" width="114.21" height="73.65" rx="6.52" ry="6.52"/>
    <rect class="cls-69" x="3.92" y="23.84" width="68.86" height="282.9" rx="6.52" ry="6.52"/>
    <rect class="cls-29" x="78.41" y="23.84" width="110.95" height="282.9" rx="6.52" ry="6.52"/>
    <rect class="cls-70" x="195.21" y="23.84" width="275.63" height="88.61" rx="6.52" ry="6.52"/>
    <rect class="cls-69" x="195.21" y="149.7" width="275.63" height="156.49" rx="6.52" ry="6.52"/>
    <rect class="cls-30" x="195.21" y="50.88" width="275.63" height="73.65" rx="6.52" ry="6.52"/>
    <rect class="cls-30" x="78.59" y="50.88" width="110.59" height="255.86" rx="6.52" ry="6.52"/>
    <rect class="cls-30" x="3.92" y="50.88" width="68.86" height="255.86" rx="6.52" ry="6.52"/>
    <rect class="cls-42" x="195.21" y="178.81" width="275.63" height="127.93" rx="6.52" ry="6.52"/>
    <g>
      <path class="cls-88" d="M528.67,125.05v5.67c-.38.07-.86.13-1.4.13h-173.69c-.55,0-1.02-.05-1.4-.13v-8.67h4.97l-9.97-17.27-9.97,17.27h4.97v8.79h-162.83c-.75,0-1.31-.13-1.69-.26v-14.66h4.97l-9.97-17.27-9.97,17.27h4.97v15.85c0,5.17,5.02,9.07,11.69,9.07h347.93c6.61,0,11.4-3.42,11.4-8.14v-7.65h-10Z"/>
      <g>
        <polyline class="cls-36" points="529.42 125.05 528.67 125.05 528.67 125.8"/>
        <line class="cls-22" x1="528.67" y1="127.19" x2="528.67" y2="129.27"/>
        <path class="cls-36" d="M528.67,129.97v.75c-.22.04-.47.08-.74.1"/>
        <polyline class="cls-14" points="526.43 130.84 489.64 130.84 353.66 130.84"/>
        <path class="cls-36" d="M352.91,130.82c-.27-.02-.52-.06-.74-.1v-.75"/>
        <line class="cls-43" x1="352.17" y1="128.53" x2="352.17" y2="123.52"/>
        <polyline class="cls-36" points="352.17 122.8 352.17 122.05 352.92 122.05"/>
        <line class="cls-56" x1="354.08" y1="122.05" x2="355.81" y2="122.05"/>
        <polyline class="cls-36" points="356.39 122.05 357.14 122.05 356.77 121.4"/>
        <line class="cls-9" x1="356.06" y1="120.17" x2="347.9" y2="106.04"/>
        <polyline class="cls-36" points="347.54 105.43 347.17 104.78 346.79 105.43"/>
        <line class="cls-9" x1="346.09" y1="106.66" x2="337.93" y2="120.79"/>
        <polyline class="cls-36" points="337.57 121.4 337.2 122.05 337.95 122.05"/>
        <line class="cls-27" x1="339.1" y1="122.05" x2="340.84" y2="122.05"/>
        <polyline class="cls-36" points="341.42 122.05 342.17 122.05 342.17 122.8"/>
        <line class="cls-11" x1="342.17" y1="124.26" x2="342.17" y2="129.36"/>
        <polyline class="cls-36" points="342.17 130.09 342.17 130.84 341.42 130.84"/>
        <path class="cls-19" d="M339.92,130.84h-160.58c-.07,0-.15,0-.22,0"/>
        <path class="cls-36" d="M178.38,130.77c-.29-.05-.53-.12-.72-.18v-.75"/>
        <line class="cls-34" x1="177.65" y1="128.37" x2="177.65" y2="117.4"/>
        <polyline class="cls-36" points="177.65 116.67 177.65 115.92 178.4 115.92"/>
        <line class="cls-45" x1="179.56" y1="115.92" x2="181.3" y2="115.92"/>
        <polyline class="cls-36" points="181.88 115.92 182.63 115.92 182.25 115.27"/>
        <line class="cls-37" x1="181.54" y1="114.04" x2="173.38" y2="99.91"/>
        <polyline class="cls-36" points="173.03 99.3 172.65 98.65 172.28 99.3"/>
        <line class="cls-37" x1="171.57" y1="100.53" x2="163.41" y2="114.65"/>
        <polyline class="cls-36" points="163.06 115.27 162.68 115.92 163.43 115.92"/>
        <line class="cls-45" x1="164.59" y1="115.92" x2="166.33" y2="115.92"/>
        <polyline class="cls-36" points="166.9 115.92 167.65 115.92 167.65 116.67"/>
        <path class="cls-4" d="M167.65,118.17v13.6c0,5.17,5.02,9.07,11.69,9.07h347.93c6.61,0,11.4-3.42,11.4-8.14v-6.15"/>
        <polyline class="cls-36" points="538.67 125.8 538.67 125.05 537.92 125.05"/>
        <line class="cls-38" x1="536.22" y1="125.05" x2="530.27" y2="125.05"/>
      </g>
    </g>
    <text class="cls-91" transform="translate(322.6 138.78)"><tspan x="0" y="0">Optimization</tspan></text>
    <g>
      <path class="cls-88" d="M528.67,306.84v5.26c-1.1.27-2.83.53-5.07.53H250.44c-2.24,0-3.96-.26-5.07-.53v-9.26h4.97l-9.97-17.27-9.97,17.27h4.97v9.79h-94.28c-1.15,0-1.99-.21-2.51-.4v-38.48h4.97l-9.97-17.27-9.97,17.27h4.97v39.81c0,5.17,5.38,9.07,12.51,9.07h382.51c9.43,0,15.07-3.04,15.07-8.14v-7.65h-10Z"/>
      <g>
        <polyline class="cls-36" points="529.42 306.84 528.67 306.84 528.67 307.59"/>
        <line class="cls-53" x1="528.67" y1="308.84" x2="528.67" y2="310.72"/>
        <path class="cls-36" d="M528.67,311.35v.75c-.22.05-.46.11-.73.16"/>
        <path class="cls-57" d="M526.45,312.48c-.82.09-1.78.15-2.85.15H250.44c-1.41,0-2.62-.1-3.59-.25"/>
        <path class="cls-36" d="M246.1,312.26c-.27-.05-.51-.1-.73-.16v-.75"/>
        <line class="cls-21" x1="245.37" y1="309.8" x2="245.37" y2="304.37"/>
        <polyline class="cls-36" points="245.37 303.59 245.37 302.84 246.12 302.84"/>
        <line class="cls-59" x1="247.28" y1="302.84" x2="249.02" y2="302.84"/>
        <polyline class="cls-36" points="249.6 302.84 250.35 302.84 249.97 302.19"/>
        <line class="cls-9" x1="249.26" y1="300.96" x2="241.1" y2="286.83"/>
        <polyline class="cls-36" points="240.75 286.22 240.37 285.57 240 286.22"/>
        <line class="cls-9" x1="239.29" y1="287.45" x2="231.13" y2="301.58"/>
        <polyline class="cls-36" points="230.78 302.19 230.4 302.84 231.15 302.84"/>
        <line class="cls-47" x1="232.31" y1="302.84" x2="234.04" y2="302.84"/>
        <polyline class="cls-36" points="234.62 302.84 235.37 302.84 235.37 303.59"/>
        <line class="cls-54" x1="235.37" y1="305.25" x2="235.37" y2="311.05"/>
        <polyline class="cls-36" points="235.37 311.88 235.37 312.63 234.62 312.63"/>
        <path class="cls-5" d="M233.11,312.63h-92.02c-.38,0-.73-.02-1.05-.06"/>
        <path class="cls-36" d="M139.3,312.44c-.28-.06-.52-.14-.72-.21v-.75"/>
        <line class="cls-55" x1="138.58" y1="310" x2="138.58" y2="275.24"/>
        <polyline class="cls-36" points="138.58 274.5 138.58 273.75 139.33 273.75"/>
        <line class="cls-27" x1="140.49" y1="273.75" x2="142.22" y2="273.75"/>
        <polyline class="cls-36" points="142.8 273.75 143.55 273.75 143.18 273.1"/>
        <line class="cls-37" x1="142.47" y1="271.87" x2="134.31" y2="257.74"/>
        <polyline class="cls-36" points="133.96 257.13 133.58 256.48 133.21 257.13"/>
        <line class="cls-37" x1="132.5" y1="258.36" x2="124.34" y2="272.49"/>
        <polyline class="cls-36" points="123.98 273.1 123.61 273.75 124.36 273.75"/>
        <line class="cls-56" x1="125.52" y1="273.75" x2="127.25" y2="273.75"/>
        <polyline class="cls-36" points="127.83 273.75 128.58 273.75 128.58 274.5"/>
        <path class="cls-68" d="M128.58,276v37.55c0,5.17,5.38,9.07,12.51,9.07h382.51c9.43,0,15.07-3.04,15.07-8.14v-6.15"/>
        <polyline class="cls-36" points="538.67 307.59 538.67 306.84 537.92 306.84"/>
        <line class="cls-38" x1="536.22" y1="306.84" x2="530.27" y2="306.84"/>
      </g>
    </g>
    <g>
      <text class="cls-83" transform="translate(22.05 14.95)"><tspan x="0" y="0">Library</tspan></text>
      <g>
        <path class="cls-20" d="M21.08,9.7l-7.73,3.59c-.15.07-.33.09-.49.04l-7.53-2.12s-.62.96-.65,1.3c-.05.46.65,1.39.65,1.39"/>
        <path class="cls-20" d="M21.08,15.2l-7.68,3.57c-.19.09-.4.1-.59.05l-7.48-2.11s-.65-.83-.65-1.32c0-.36.65-1.49.65-1.49l7.48,2.11c.2.06.4.04.59-.05l7.68-3.57"/>
        <path class="cls-20" d="M5.63,8.49s-.87.95-.87,1.37.57,1.34.57,1.34"/>
        <path class="cls-46" d="M21.08,7.12l-7.97,3.7-7.46-2.1c-.11-.03-.13-.19-.02-.24l7.75-3.62,7.7,2.25Z"/>
        <polygon class="cls-77" points="13.21 5.99 16.57 7.03 13.78 8.45 10.6 7.33 13.21 5.99"/>
      </g>
    </g>
    <text class="cls-83" transform="translate(103.54 14.95)"><tspan x="0" y="0">Experiment</tspan></text>
    <g>
      <path class="cls-36" d="M97.53,6.68v.32c0,.08-.06.14-.14.14s-.15.07-.15.15v5.69s0,.02,0,.04l-1.48,5.73c-.02.06-.07.11-.14.11h-.56c-.07,0-.12-.04-.14-.11l-1.45-5.67s0-.02,0-.04v-5.77c0-.07-.05-.13-.12-.14l-.16-.02c-.07,0-.12-.07-.12-.14v-.28s.02-.09.06-.12c.02-.02.05-.03.08-.03h4.19c.08,0,.14.06.14.15Z"/>
      <path class="cls-51" d="M98.75,5.45l-.43-.41c-.07-.07-.08-.19,0-.26l2.04-2.04c.07-.07.19-.07.26,0l.4.4c.07.07.07.19,0,.26l-2,2.05c-.07.07-.19.07-.26,0Z"/>
      <path class="cls-51" d="M101.84,2.75l.18.18c.07.07.07.17,0,.24l-3.1,3.1c-.07.07-.17.07-.24,0l-.13-.13c-.06-.06-.07-.17,0-.23l3.04-3.15c.06-.07.17-.07.24,0Z"/>
      <path class="cls-51" d="M98.64,6.21s-.3.36-.45.44-.66.17-.66.17"/>
    </g>
    <text class="cls-78" transform="translate(216.99 167.44)"><tspan x="0" y="0">Determining Activity and Differential Activity</tspan></text>
    <text class="cls-78" transform="translate(274.44 41.65) scale(.98 1)"><tspan x="0" y="0">cCRE-BC Associations</tspan></text>
    <text class="cls-78" transform="translate(20.01 34.37)"><tspan x="0" y="0">Design</tspan><tspan x="-7.95" y="13.2">Principles</tspan></text>
    <text class="cls-78" transform="translate(104.93 41.65) scale(.98 1)"><tspan x="0" y="0">Expression</tspan></text>
    <text class="cls-78" transform="translate(502.94 33.95) scale(.98 1)"><tspan x="0" y="0">Association </tspan><tspan x="-9.78" y="14.34">Qualitiy Metrics</tspan></text>
    <g>
      <path class="cls-97" d="M499.92,16.81l-.02-6.73-3.23,5.54h-1.15l-3.22-5.4v6.58h-2.39V5.6h2.1l4.11,6.97,4.05-6.97h2.09l.03,11.21h-2.39Z"/>
      <path class="cls-97" d="M513.26,9.67c0,2.5-1.84,4.05-4.77,4.05h-2.21v3.09h-2.54V5.6h4.76c2.94,0,4.77,1.55,4.77,4.07ZM510.69,9.67c0-1.23-.79-1.95-2.34-1.95h-2.07v3.89h2.07c1.55,0,2.34-.72,2.34-1.94Z"/>
      <path class="cls-97" d="M520.89,16.81l-2.12-3.12h-2.34v3.12h-2.54V5.6h4.76c2.94,0,4.77,1.55,4.77,4.07,0,1.68-.83,2.91-2.26,3.54l2.47,3.6h-2.73ZM518.51,7.71h-2.07v3.91h2.07c1.55,0,2.34-.74,2.34-1.95s-.79-1.95-2.34-1.95Z"/>
      <path class="cls-97" d="M531.49,14.41h-5.1l-.97,2.4h-2.61l4.9-11.21h2.51l4.92,11.21h-2.67l-.97-2.4ZM530.69,12.44l-1.74-4.29-1.74,4.29h3.49Z"/>
      <path class="cls-101" d="M567.28,10.91c0-3.44,2.56-5.9,6.01-5.9,1.91,0,3.51.72,4.55,2.02l-1.64,1.56c-.74-.88-1.68-1.34-2.78-1.34-2.07,0-3.54,1.5-3.54,3.65s1.47,3.65,3.54,3.65c1.11,0,2.04-.46,2.78-1.35l1.64,1.56c-1.04,1.32-2.64,2.04-4.57,2.04-3.43,0-5.99-2.46-5.99-5.9Z"/>
      <path class="cls-101" d="M559.54,5.01c-3.33,0-6.03,2.64-6.03,5.9s2.7,5.9,6.03,5.9,6.03-2.64,6.03-5.9-2.7-5.9-6.03-5.9ZM559.61,14.64c-1.98,0-3.59-1.66-3.59-3.7s1.61-3.7,3.59-3.7,3.59,1.66,3.59,3.7-1.61,3.7-3.59,3.7Z"/>
      <g>
        <line class="cls-67" x1="566.04" y1="15.66" x2="571.03" y2="18.85"/>
        <line class="cls-62" x1="563.05" y1="13.76" x2="568.04" y2="16.94"/>
      </g>
      <path class="cls-12" d="M535.69,12.63c5.92,0,11.05-6.04,17.41-6.04"/>
      <path class="cls-24" d="M535.69,15.64c5.89.26,11.16-6.05,17.41-6.04"/>
      <path class="cls-2" d="M535.69,9.61c5.86,0,11.14,6.04,17.41,6.04"/>
      <path class="cls-32" d="M535.69,6.65c5.83-.06,11.2,6.23,17.41,6.04"/>
    </g>
    <text class="cls-83" transform="translate(310.69 14.95)"><tspan x="0" y="0">Analysis</tspan></text>
    <g>
      <path class="cls-65" d="M296.72,14.37h-11.93v-7.96h11.93v7.96h0ZM297.22,4.92h-12.93c-.55,0-.99.45-.99.99v8.95c0,.55.45.99.99.99h4.97v1.49h-2.24v1.49h7.46v-1.49h-2.24v-1.49h4.97c.55,0,.99-.45.99-.99V5.91c0-.55-.45-.99-.99-.99h0Z"/>
      <path class="cls-65" d="M305.17,7.41h-4.97v-1.49h4.97v1.49h0ZM305.17,9.89h-4.97v-1.49h4.97v1.49h0ZM302.68,17.36c-.42,0-.75-.32-.75-.75s.32-.75.75-.75.75.32.75.75-.32.75-.75.75h0ZM305.17,4.92h-4.97c-.55,0-.99.45-.99.99v11.94c0,.55.45.99.99.99h4.97c.55,0,.99-.45.99-.99V5.91c0-.55-.45-.99-.99-.99h0Z"/>
    </g>
    <text class="cls-91" transform="translate(322.6 320.56)"><tspan x="0" y="0">Optimization</tspan></text>
    <text class="cls-78" transform="translate(513.39 160.23)"><tspan x="0" y="0">Activity </tspan><tspan x="-21.09" y="14">Qualitiy Metrics</tspan></text>
  </g>
  <g id="arrows">
    <g>
      <line class="cls-73" x1="133.86" y1="76.09" x2="133.86" y2="164.73"/>
      <polygon class="cls-98" points="125.13 162.17 133.86 177.28 142.59 162.17 125.13 162.17"/>
    </g>
    <g>
      <line class="cls-73" x1="66.29" y1="64.53" x2="76.41" y2="64.53"/>
      <polygon class="cls-98" points="73.86 73.26 88.97 64.53 73.86 55.81 73.86 73.26"/>
    </g>
    <g>
      <line class="cls-73" x1="281.32" y1="88.4" x2="291.44" y2="88.4"/>
      <polygon class="cls-98" points="288.89 97.13 304 88.4 288.89 79.68 288.89 97.13"/>
    </g>
    <g>
      <line class="cls-73" x1="183.06" y1="88.4" x2="193.17" y2="88.4"/>
      <polygon class="cls-98" points="190.62 97.13 205.73 88.4 190.62 79.68 190.62 97.13"/>
    </g>
    <g>
      <line class="cls-73" x1="150.67" y1="244.56" x2="193.17" y2="244.56"/>
      <polygon class="cls-98" points="190.62 253.29 205.73 244.56 190.62 235.84 190.62 253.29"/>
    </g>
    <g>
      <line class="cls-73" x1="263.04" y1="243.35" x2="273.16" y2="243.35"/>
      <polygon class="cls-98" points="270.61 252.08 285.72 243.35 270.61 234.63 270.61 252.08"/>
    </g>
    <g>
      <line class="cls-73" x1="362.22" y1="242.59" x2="372.34" y2="242.59"/>
      <polygon class="cls-98" points="369.79 251.32 384.9 242.59 369.79 233.86 369.79 251.32"/>
    </g>
    <g>
      <line class="cls-73" x1="464.54" y1="88.4" x2="474.66" y2="88.4"/>
      <polygon class="cls-98" points="472.1 97.13 487.21 88.4 472.1 79.68 472.1 97.13"/>
    </g>
    <g>
      <line class="cls-73" x1="394" y1="88.4" x2="404.12" y2="88.4"/>
      <polygon class="cls-98" points="401.57 97.13 416.68 88.4 401.57 79.68 401.57 97.13"/>
    </g>
    <g>
      <line class="cls-73" x1="464.54" y1="242.35" x2="474.66" y2="242.35"/>
      <polygon class="cls-98" points="472.1 251.07 487.21 242.35 472.1 233.62 472.1 251.07"/>
    </g>
    <g>
      <path class="cls-73" d="M133.88,72.44v12.66c0,2.49,3.52,4.52,7.88,4.52h5.81"/>
      <polygon class="cls-98" points="145.01 98.36 160.13 89.65 145.03 80.9 145.01 98.36"/>
    </g>
    <g>
      <line class="cls-73" x1="133.86" y1="203.95" x2="133.86" y2="223.05"/>
      <polygon class="cls-98" points="125.13 220.49 133.86 235.6 142.59 220.49 125.13 220.49"/>
    </g>
  </g>
  <g id="icons">
    <line class="cls-48" x1="233.46" y1="215.89" x2="227.74" y2="221.6"/>
    <line class="cls-48" x1="233.46" y1="221.6" x2="227.74" y2="215.9"/>
    <text class="cls-75" transform="translate(22.6 72.2)"><tspan x="0" y="0">CGAT</tspan></text>
    <g>
      <path class="cls-74" d="M269.12,267.18c-.15,0-.55.1-.85.2-.33.1-.65.22-.98.35-.65.27-1.28.59-1.88.96-.6.37-1.17.8-1.7,1.26-.54.46-1,.99-1.46,1.54l-.02.02c-.29.35-.81.39-1.16.1-.32-.27-.38-.73-.16-1.08.88-1.35,2.04-2.56,3.35-3.52.66-.48,1.35-.92,2.09-1.29.36-.19.74-.36,1.13-.52.42-.15.74-.3,1.34-.41.66-.12,1.29.31,1.41.96s-.31,1.29-.96,1.41c-.05,0-.11.02-.16.02Z"/>
      <polygon class="cls-74" points="259.78 269.29 260.07 274.26 264.24 271.52 259.78 269.29"/>
    </g>
    <g>
      <path class="cls-85" d="M342.8,84.21h10.18c1.67,0,3.03,1.36,3.03,3.03v15.28c0,.18-.15.33-.33.33h-15.59c-.18,0-.33-.15-.33-.33v-15.28c0-1.67,1.36-3.03,3.03-3.03Z" transform="translate(695.79 187.06) rotate(180)"/>
      <line class="cls-71" x1="352.51" y1="86.38" x2="352.51" y2="100.32"/>
      <line class="cls-71" x1="347.89" y1="86.38" x2="347.89" y2="100.32"/>
      <line class="cls-71" x1="343.47" y1="86.38" x2="343.47" y2="100.32"/>
      <rect class="cls-86" x="351.77" y="74.8" width="19.36" height="1.32" rx=".47" ry=".47" transform="translate(164.75 387.94) rotate(-69.6)"/>
      <rect class="cls-87" x="359.83" y="74.93" width="5.88" height="1.77" rx=".47" ry=".47" transform="translate(165.27 389.41) rotate(-69.6)"/>
    </g>
    <g>
      <path class="cls-85" d="M368.11,101.65h10.18c1.67,0,3.03,1.36,3.03,3.03v15.28c0,.18-.15.33-.33.33h-15.59c-.18,0-.33-.15-.33-.33v-15.28c0-1.67,1.36-3.03,3.03-3.03Z" transform="translate(746.4 221.94) rotate(180)"/>
      <line class="cls-71" x1="377.81" y1="103.82" x2="377.81" y2="117.76"/>
      <line class="cls-71" x1="373.2" y1="103.82" x2="373.2" y2="117.76"/>
      <line class="cls-71" x1="368.77" y1="103.82" x2="368.77" y2="117.76"/>
      <rect class="cls-86" x="377.07" y="92.24" width="19.36" height="1.32" rx=".47" ry=".47" transform="translate(164.89 423.02) rotate(-69.6)"/>
      <rect class="cls-87" x="385.13" y="92.37" width="5.88" height="1.77" rx=".47" ry=".47" transform="translate(165.41 424.49) rotate(-69.6)"/>
    </g>
    <path class="cls-23" d="M145.07,70.55c-4.89,0-8.86-2.08-8.86-4.64s3.98-4.64,8.86-4.64h25.07c4.89,0,8.86,2.08,8.86,4.64s-3.98,4.64-8.86,4.64h-25.07Z"/>
    <g>
      <path class="cls-85" d="M308.98,100.83h10.18c1.67,0,3.03,1.36,3.03,3.03v15.28c0,.18-.15.33-.33.33h-15.59c-.18,0-.33-.15-.33-.33v-15.28c0-1.67,1.36-3.03,3.03-3.03Z" transform="translate(628.13 220.29) rotate(180)"/>
      <line class="cls-71" x1="318.68" y1="103" x2="318.68" y2="116.93"/>
      <line class="cls-71" x1="314.07" y1="103" x2="314.07" y2="116.93"/>
      <line class="cls-71" x1="309.64" y1="103" x2="309.64" y2="116.93"/>
      <rect class="cls-86" x="317.94" y="91.41" width="19.36" height="1.32" rx=".47" ry=".47" transform="translate(127.13 367.06) rotate(-69.6)"/>
      <rect class="cls-87" x="326" y="91.55" width="5.88" height="1.77" rx=".47" ry=".47" transform="translate(127.66 368.53) rotate(-69.6)"/>
    </g>
    <rect class="cls-93" x="287.75" y="264.98" width="29.23" height="10.69"/>
    <g>
      <path class="cls-85" d="M231.71,228.42h10.18c1.67,0,3.03,1.36,3.03,3.03v15.28c0,.18-.15.33-.33.33h-15.59c-.18,0-.33-.15-.33-.33v-15.28c0-1.67,1.36-3.03,3.03-3.03Z" transform="translate(473.6 475.47) rotate(180)"/>
      <line class="cls-71" x1="241.42" y1="230.59" x2="241.42" y2="244.52"/>
      <line class="cls-71" x1="236.8" y1="230.59" x2="236.8" y2="244.52"/>
      <line class="cls-71" x1="232.37" y1="230.59" x2="232.37" y2="244.52"/>
      <rect class="cls-86" x="240.67" y="219" width="19.36" height="1.32" rx=".47" ry=".47" transform="translate(-42.79 377.76) rotate(-69.6)"/>
      <rect class="cls-87" x="248.74" y="219.14" width="5.88" height="1.77" rx=".47" ry=".47" transform="translate(-42.27 379.23) rotate(-69.6)"/>
    </g>
    <g>
      <path class="cls-85" d="M253.44,275.72h10.18c1.67,0,3.03,1.36,3.03,3.03v15.28c0,.18-.15.33-.33.33h-15.59c-.18,0-.33-.15-.33-.33v-15.28c0-1.67,1.36-3.03,3.03-3.03Z" transform="translate(517.07 570.08) rotate(180)"/>
      <line class="cls-71" x1="263.15" y1="277.89" x2="263.15" y2="291.83"/>
      <line class="cls-71" x1="258.53" y1="277.89" x2="258.53" y2="291.83"/>
      <line class="cls-71" x1="254.11" y1="277.89" x2="254.11" y2="291.83"/>
      <rect class="cls-86" x="262.41" y="266.31" width="19.36" height="1.32" rx=".47" ry=".47" transform="translate(-72.97 428.95) rotate(-69.6)"/>
      <rect class="cls-87" x="270.47" y="266.44" width="5.88" height="1.77" rx=".47" ry=".47" transform="translate(-72.45 430.42) rotate(-69.6)"/>
    </g>
    <g>
      <path class="cls-85" d="M211.65,276.35h10.18c1.67,0,3.03,1.36,3.03,3.03v15.28c0,.18-.15.33-.33.33h-15.59c-.18,0-.33-.15-.33-.33v-15.28c0-1.67,1.36-3.03,3.03-3.03Z" transform="translate(433.49 571.33) rotate(180)"/>
      <line class="cls-71" x1="221.36" y1="278.52" x2="221.36" y2="292.45"/>
      <line class="cls-71" x1="216.75" y1="278.52" x2="216.75" y2="292.45"/>
      <line class="cls-71" x1="212.32" y1="278.52" x2="212.32" y2="292.45"/>
      <rect class="cls-86" x="220.62" y="266.93" width="19.36" height="1.32" rx=".47" ry=".47" transform="translate(-100.78 390.19) rotate(-69.6)"/>
      <rect class="cls-87" x="228.68" y="267.07" width="5.88" height="1.77" rx=".47" ry=".47" transform="translate(-100.26 391.66) rotate(-69.6)"/>
    </g>
    <g>
      <rect class="cls-8" x="481.41" y="229.56" width="10.66" height="5.03"/>
      <rect class="cls-10" x="485.82" y="232.07" width="10.66" height="5.03"/>
      <rect class="cls-60" x="491.14" y="234.59" width="10.66" height="5.03"/>
    </g>
    <path class="cls-50" d="M498.96,189.96c.28.17,1.22-.17,1.37.83.2,1.25-.61,1.13-1.31,1.47-.42.2-2.2,3.98-2.72,4.59-.08.34.52.56.09,1.36-.3.56-.91.72-1.5.49-.41-.17-.35-.62-.83-.68-1.57-.19-3.53.16-5.14,0-.64,1.25-2.43.94-2.22-.58.03-.22.24-.37.17-.6l-2.64-4.72c-1.07.34-1.87-1.08-1.06-1.87.41-.41.88-.18,1.07-.35l2.66-4.63c-.38-.75-.29-1.87.71-1.96,1.06-.1.95.7,1.5.76,1.54.19,3.47-.15,5.05,0,.31-.06.39-.58.8-.7.54-.17,1.09-.04,1.39.45.49.81-.13,1.11-.01,1.51l2.62,4.63ZM494.22,184.72h-5.26l2.63,1.5,2.63-1.5ZM493.47,187.3l1.07-2.04-2.25,1.34c0,.11,1.11.74,1.18.7ZM491,186.55l-2.25-1.18.97,1.93c.08.06,1.35-.67,1.29-.75ZM487.46,188.64v-3.06l-2.58,4.45c.11.15.38-.08.5-.14.71-.38,1.39-.83,2.08-1.25ZM495.19,188.26v-2.68c-.25.31-1.24,1.8-1.19,2.08l1.19.6ZM495.73,185.58v3.11l2.68,1.45-2.68-4.56ZM488.1,188.26l1.18-.7-1.18-1.88v2.58ZM493.04,187.73c-.05-.06-1.34-.74-1.42-.74-.1,0-1.38.75-1.42.84-.1.12.02.19.05.27.32.75.97,1.56,1.35,2.3.2-.36,1.6-2.46,1.44-2.67ZM491,190.73l-1.45-2.57c-.19.15-1.45.75-1.45.9v1.66h2.9ZM495.19,190.73v-1.66c0-.09-1.38-.83-1.61-.91l-1.4,2.58h3.01ZM497.98,190.73c-.67-.56-1.53-.9-2.25-1.4v1.4s2.25,0,2.25,0ZM485.21,190.73h2.25l-.05-1.29-2.2,1.29ZM487.46,191.38h-2.36l2.36,1.4v-1.4ZM491,191.38h-2.9v1.82c.34.03,1.28.85,1.51.71.12-.08,1.5-2.44,1.39-2.53ZM495.19,191.38h-3.01l1.45,2.58c.09,0,1.45-.79,1.5-.86.11-.16.01-1.43.05-1.71ZM498.09,191.38h-2.36v1.4s2.36-1.4,2.36-1.4ZM493.03,194.37c.12-.17-1.21-2.39-1.49-2.67-.08.43-1.53,2.48-1.39,2.68.41.02,1.12.76,1.45.75.28,0,1.06-.72,1.44-.76ZM495.73,196.53l2.68-4.56-2.68,1.45v3.11ZM487.46,193.42c-.81-.35-1.54-.87-2.31-1.29-.08-.04-.18-.22-.27-.05l2.58,4.45v-3.11ZM488.1,193.84v2.58l1.18-1.88-1.18-.7ZM495.19,193.84l-1.29.7,1.29,1.99v-2.68ZM491,195.46l-1.29-.65-.97,1.93,2.25-1.29ZM493.47,194.81l-1.29.75,2.36,1.29-1.07-2.04ZM489.07,197.39h5.05l-2.52-1.5-2.52,1.5Z"/>
    <polyline class="cls-63" points="334.18 75.37 336.57 76.82 338.96 75.37 341.35 76.82 343.74 75.37 346.14 76.82"/>
    <g>
      <rect class="cls-96" x="345.2" y="74.48" width="9.21" height="3.83"/>
      <rect class="cls-77" x="345.41" y="74.48" width=".77" height="3.83"/>
      <rect class="cls-77" x="346.86" y="74.48" width="1.11" height="3.83"/>
      <rect class="cls-77" x="348.4" y="74.48" width=".61" height="3.83"/>
      <rect class="cls-77" x="349.81" y="74.48" width=".96" height="3.83"/>
      <rect class="cls-77" x="350.98" y="74.48" width=".75" height="3.83"/>
      <rect class="cls-77" x="352.55" y="74.48" width="1.35" height="3.83"/>
      <rect class="cls-1" x="345.2" y="74.48" width="9.21" height="3.83"/>
    </g>
    <polyline class="cls-58" points="222.31 205.66 224.7 207.1 227.08 205.66 229.47 207.1 231.87 205.66 234.26 207.1"/>
    <g>
      <rect class="cls-96" x="232.85" y="203.95" width="11.7" height="4.86"/>
      <rect class="cls-77" x="233.11" y="203.95" width=".98" height="4.86"/>
      <rect class="cls-77" x="234.95" y="203.95" width="1.41" height="4.86"/>
      <rect class="cls-77" x="236.9" y="203.95" width=".77" height="4.86"/>
      <rect class="cls-77" x="238.7" y="203.95" width="1.22" height="4.86"/>
      <rect class="cls-77" x="240.18" y="203.95" width=".96" height="4.86"/>
      <rect class="cls-77" x="242.18" y="203.95" width="1.71" height="4.86"/>
      <rect class="cls-1" x="232.85" y="203.95" width="11.7" height="4.86"/>
    </g>
    <g>
      <line class="cls-40" x1="124.35" y1="139.04" x2="125.48" y2="140.16"/>
      <line class="cls-40" x1="127.61" y1="137.68" x2="127.61" y2="139.28"/>
      <line class="cls-40" x1="130.88" y1="139.04" x2="129.75" y2="140.16"/>
      <line class="cls-40" x1="132.23" y1="142.3" x2="130.64" y2="142.3"/>
      <line class="cls-40" x1="130.88" y1="145.56" x2="129.75" y2="144.43"/>
      <line class="cls-40" x1="127.61" y1="146.91" x2="127.61" y2="145.32"/>
      <line class="cls-40" x1="124.35" y1="145.56" x2="125.48" y2="144.43"/>
      <line class="cls-40" x1="123" y1="142.3" x2="124.59" y2="142.3"/>
      <g>
        <circle class="cls-40" cx="132.23" cy="142.3" r=".69"/>
        <circle class="cls-40" cx="130.88" cy="145.56" r=".69"/>
        <circle class="cls-40" cx="127.61" cy="146.91" r=".69"/>
        <circle class="cls-40" cx="124.35" cy="139.04" r=".69"/>
        <circle class="cls-40" cx="124.35" cy="145.56" r=".69"/>
        <circle class="cls-40" cx="127.61" cy="137.68" r=".69"/>
        <circle class="cls-40" cx="123" cy="142.3" r=".69"/>
        <circle class="cls-40" cx="130.88" cy="139.04" r=".69"/>
      </g>
      <circle class="cls-40" cx="127.61" cy="142.3" r="3.32"/>
    </g>
    <g>
      <line class="cls-18" x1="119.15" y1="117.5" x2="121.22" y2="119.57"/>
      <line class="cls-18" x1="125.14" y1="115.02" x2="125.14" y2="117.94"/>
      <line class="cls-18" x1="131.12" y1="117.5" x2="129.05" y2="119.56"/>
      <line class="cls-18" x1="133.59" y1="123.48" x2="130.67" y2="123.48"/>
      <line class="cls-18" x1="131.12" y1="129.46" x2="129.05" y2="127.39"/>
      <line class="cls-18" x1="125.14" y1="131.94" x2="125.14" y2="129.02"/>
      <line class="cls-18" x1="119.15" y1="129.46" x2="121.22" y2="127.39"/>
      <line class="cls-18" x1="116.68" y1="123.48" x2="119.6" y2="123.48"/>
      <g>
        <circle class="cls-18" cx="133.59" cy="123.48" r="1.26"/>
        <circle class="cls-18" cx="131.12" cy="129.46" r="1.26" transform="translate(-20.86 25.28) rotate(-10.21)"/>
        <circle class="cls-18" cx="125.14" cy="131.94" r="1.26"/>
        <circle class="cls-18" cx="119.15" cy="117.5" r="1.26" transform="translate(-18.93 22.97) rotate(-10.21)"/>
        <circle class="cls-18" cx="119.15" cy="129.46" r="1.26"/>
        <circle class="cls-18" cx="125.14" cy="115.02" r="1.26" transform="translate(-40.73 152.15) rotate(-55.21)"/>
        <circle class="cls-18" cx="116.68" cy="123.48" r="1.26"/>
        <circle class="cls-18" cx="131.12" cy="117.5" r="1.26" transform="translate(-18.74 25.09) rotate(-10.21)"/>
      </g>
      <circle class="cls-18" cx="125.14" cy="123.48" r="6.09"/>
    </g>
    <g>
      <line class="cls-15" x1="140.3" y1="123.85" x2="142.95" y2="126.49"/>
      <line class="cls-15" x1="147.95" y1="120.69" x2="147.95" y2="124.42"/>
      <line class="cls-15" x1="155.59" y1="123.85" x2="152.95" y2="126.49"/>
      <line class="cls-15" x1="158.75" y1="131.49" x2="155.02" y2="131.49"/>
      <line class="cls-15" x1="155.59" y1="139.13" x2="152.95" y2="136.49"/>
      <line class="cls-15" x1="147.95" y1="142.3" x2="147.95" y2="138.57"/>
      <line class="cls-15" x1="140.3" y1="139.13" x2="142.95" y2="136.49"/>
      <line class="cls-15" x1="137.14" y1="131.49" x2="140.87" y2="131.49"/>
      <g>
        <circle class="cls-15" cx="158.75" cy="131.49" r="1.61"/>
        <circle class="cls-15" cx="155.59" cy="139.13" r="1.61" transform="translate(-22.19 29.77) rotate(-10.21)"/>
        <circle class="cls-15" cx="147.95" cy="142.3" r="1.61"/>
        <circle class="cls-15" cx="140.3" cy="123.85" r="1.61" transform="translate(-19.72 26.82) rotate(-10.21)"/>
        <circle class="cls-15" cx="140.3" cy="139.13" r="1.61"/>
        <circle class="cls-15" cx="147.95" cy="120.69" r="1.61" transform="translate(-35.58 173.31) rotate(-55.21)"/>
        <circle class="cls-15" cx="137.14" cy="131.49" r="1.61"/>
        <circle class="cls-15" cx="155.59" cy="123.85" r="1.61" transform="translate(-19.48 29.53) rotate(-10.21)"/>
      </g>
      <circle class="cls-15" cx="147.95" cy="131.49" r="7.78"/>
    </g>
    <rect class="cls-103" x="287.75" y="254.07" width="29.23" height="10.69"/>
    <text class="cls-76" transform="translate(288.86 261.92)"><tspan x="0" y="0">cCRE 2a2</tspan></text>
    <text class="cls-76" transform="translate(288.86 273.18)"><tspan x="0" y="0">cCRE 3</tspan></text>
    <rect class="cls-90" x="287.75" y="275.97" width="29.23" height="10.69"/>
    <text class="cls-76" transform="translate(288.86 284.17)"><tspan x="0" y="0">cCRE 4</tspan></text>
    <rect class="cls-90" x="287.75" y="286.87" width="29.23" height="10.69"/>
    <text class="cls-76" transform="translate(288.86 295.08)"><tspan x="0" y="0">cCRE 5</tspan></text>
    <g>
      <rect class="cls-93" x="259.27" y="81.5" width="12.85" height="3.53"/>
      <g>
        <rect class="cls-96" x="272.23" y="81.49" width="8.51" height="3.54"/>
        <rect class="cls-77" x="272.43" y="81.49" width=".71" height="3.54"/>
        <rect class="cls-77" x="273.76" y="81.49" width="1.02" height="3.54"/>
        <rect class="cls-77" x="275.19" y="81.49" width=".56" height="3.54"/>
        <rect class="cls-77" x="276.49" y="81.49" width=".89" height="3.54"/>
        <rect class="cls-77" x="277.57" y="81.49" width=".7" height="3.54"/>
        <rect class="cls-77" x="279.03" y="81.49" width="1.25" height="3.54"/>
        <rect class="cls-28" x="272.23" y="81.49" width="8.51" height="3.54"/>
      </g>
    </g>
    <rect class="cls-93" x="256.67" y="92.42" width="12.85" height="3.53"/>
    <g>
      <rect class="cls-96" x="269.52" y="92.42" width="8.51" height="3.54" transform="translate(547.55 188.37) rotate(180)"/>
      <rect class="cls-77" x="277.13" y="92.42" width=".71" height="3.54" transform="translate(554.96 188.37) rotate(180)"/>
      <rect class="cls-77" x="276.09" y="92.42" width=".42" height="3.54" transform="translate(552.59 188.37) rotate(180)"/>
      <rect class="cls-77" x="274.52" y="92.42" width=".56" height="3.54" transform="translate(549.6 188.37) rotate(180)"/>
      <rect class="cls-77" x="272.88" y="92.42" width=".89" height="3.54" transform="translate(546.66 188.37) rotate(180)"/>
      <rect class="cls-77" x="271.99" y="92.42" width=".7" height="3.54" transform="translate(544.69 188.37) rotate(180)"/>
      <rect class="cls-77" x="270.62" y="92.42" width="1.25" height="3.54" transform="translate(542.48 188.37) rotate(180)"/>
      <rect class="cls-28" x="269.52" y="92.42" width="8.51" height="3.54" transform="translate(547.55 188.37) rotate(180)"/>
    </g>
    <g>
      <rect class="cls-93" x="254.72" y="87.33" width="12.85" height="3.53"/>
      <g>
        <rect class="cls-96" x="267.69" y="87.33" width="8.51" height="3.54"/>
        <rect class="cls-77" x="267.88" y="87.33" width=".71" height="3.54"/>
        <rect class="cls-77" x="268.7" y="87.33" width="1.02" height="3.54"/>
        <rect class="cls-77" x="271.07" y="87.33" width=".56" height="3.54"/>
        <rect class="cls-77" x="272.69" y="87.33" width=".89" height="3.54"/>
        <rect class="cls-77" x="273.92" y="87.33" width=".7" height="3.54"/>
        <rect class="cls-77" x="275.1" y="87.33" width=".62" height="3.54"/>
        <rect class="cls-28" x="267.69" y="87.33" width="8.51" height="3.54"/>
      </g>
    </g>
    <g>
      <rect class="cls-96" x="246.72" y="92.46" width="8.51" height="3.54"/>
      <rect class="cls-77" x="246.91" y="92.46" width=".71" height="3.54"/>
      <rect class="cls-77" x="248.23" y="92.46" width="1.04" height="3.54"/>
      <rect class="cls-77" x="249.67" y="92.46" width=".56" height="3.54"/>
      <rect class="cls-77" x="250.98" y="92.46" width=".89" height="3.54"/>
      <rect class="cls-77" x="252.06" y="92.46" width=".7" height="3.54"/>
      <rect class="cls-77" x="253.23" y="92.46" width=".7" height="3.54"/>
      <rect class="cls-77" x="254.13" y="92.46" width=".62" height="3.54"/>
      <rect class="cls-28" x="246.72" y="92.46" width="8.51" height="3.54"/>
    </g>
    <g>
      <rect class="cls-96" x="245" y="86.26" width="8.51" height="3.54"/>
      <rect class="cls-77" x="245.19" y="86.26" width=".71" height="3.54"/>
      <rect class="cls-77" x="246.53" y="86.26" width="1.02" height="3.54"/>
      <rect class="cls-77" x="247.95" y="86.26" width=".56" height="3.54"/>
      <rect class="cls-77" x="249.25" y="86.26" width=".89" height="3.54"/>
      <rect class="cls-77" x="250.34" y="86.26" width=".7" height="3.54"/>
      <rect class="cls-77" x="251.79" y="86.26" width="1.25" height="3.54"/>
      <rect class="cls-28" x="245" y="86.26" width="8.51" height="3.54"/>
    </g>
    <g>
      <rect class="cls-96" x="248.5" y="81.49" width="8.51" height="3.54" transform="translate(505.51 166.52) rotate(180)"/>
      <rect class="cls-77" x="256.11" y="81.49" width=".71" height="3.54" transform="translate(512.92 166.52) rotate(180)"/>
      <rect class="cls-77" x="254.46" y="81.49" width="1.02" height="3.54" transform="translate(509.94 166.52) rotate(180)"/>
      <rect class="cls-77" x="253.15" y="81.49" width="1.02" height="3.54" transform="translate(507.33 166.52) rotate(180)"/>
      <rect class="cls-77" x="251.87" y="81.49" width=".89" height="3.54" transform="translate(504.62 166.52) rotate(180)"/>
      <rect class="cls-77" x="250.98" y="81.49" width="1.18" height="3.54" transform="translate(503.13 166.52) rotate(180)"/>
      <rect class="cls-77" x="248.97" y="81.49" width=".62" height="3.54" transform="translate(498.57 166.52) rotate(180)"/>
      <rect class="cls-77" x="249.66" y="81.49" width=".62" height="3.54" transform="translate(499.95 166.52) rotate(180)"/>
      <rect class="cls-28" x="248.5" y="81.49" width="8.51" height="3.54" transform="translate(505.51 166.52) rotate(180)"/>
    </g>
    <line class="cls-7" x1="394.29" y1="207.22" x2="394.29" y2="288.66"/>
    <line class="cls-7" x1="394.29" y1="288.66" x2="458.5" y2="288.66"/>
    <path class="cls-94" d="M407.76,277.77c0,2.8-5.61,1.5-5.61,9.26,0-7.77-5.61-6.47-5.61-9.26,0-2.69,5.61-4.12,5.61-8.94,0,4.82,5.62,6.24,5.61,8.94Z"/>
    <path class="cls-103" d="M441.48,243.51c0,5.07-6.22,5.88-6.22,16.78,0-10.89-6.21-11.7-6.22-16.78,0-4.87,5.91-4.07,6.22-16.18.3,12.11,6.23,11.31,6.22,16.18Z"/>
    <path class="cls-103" d="M455.76,258.14c0,5.07-6.22,5.88-6.22,16.78,0-10.89-6.21-11.7-6.22-16.78,0-4.87,5.91-4.07,6.22-16.18.3,12.11,6.23,11.31,6.22,16.18Z"/>
    <path class="cls-99" d="M425.71,271.73c0,3.77-5.61,2.02-5.61,12.49,0-10.47-5.61-8.71-5.61-12.49,0-3.63,5.61-5.55,5.61-12.04,0,6.49,5.62,8.41,5.61,12.04Z"/>
    <polyline class="cls-44" points="401.38 255.53 401.38 253.39 420.1 253.39 420.1 255.53"/>
    <text class="cls-82" transform="translate(416.81 210.43)"><tspan x="0" y="0">***</tspan></text>
    <polyline class="cls-44" points="401.38 212.23 401.38 210.4 435.26 210.4 435.26 212.23"/>
    <polyline class="cls-44" points="435.26 218.98 435.26 216.81 449.54 216.81 449.54 218.98"/>
    <text class="cls-82" transform="translate(424.12 202.72)"><tspan x="0" y="0">**</tspan></text>
    <text class="cls-82" transform="translate(439.12 216.97)"><tspan x="0" y="0">***</tspan></text>
    <g>
      <path class="cls-13" d="M36.47,130.11l2.26.24c1.46.15,5,1.64,5,3.39v3.71l4.61-.34.41.19v7.19h-13.49c-.44-.11-.92-.09-1.37-.16-1.94-.29-4.14-1.27-4.66-3.36-.09-.36-.08-.71-.19-1.05v-6.44c1-2.48,4.21-3.23,6.64-3.29l.18-.08h.6ZM35.25,130.95c-1.36.09-3.23.54-4.32,1.37-1.96,1.49-.88,3.07.94,3.92,2.59,1.2,6.87,1.13,9.39-.25,1.61-.88,2.3-2.24.63-3.56s-4.66-1.61-6.64-1.48ZM48,137.9c-2.45.26-4.91.34-7.38.37-2.24.03-4.48.03-6.7-.41-1.47-.29-2.96-.77-4.04-1.84v4.23c0,.2.26.93.36,1.14.09.18.82,1.2.99,1.07-.15-.33-.13-.91.25-1.07.77-.32.38,1.36.54,1.6.09.13,1.1.39,1.31.45v-3.18c0-.25.82-.4.82.15v3.18l1.27.07v-2.06c0-.27.75-.33.75.07v1.99h1.27v-3.41c0-.06.31-.26.41-.26.1,0,.34.23.34.26v3.41h1.35c-.05-.11-.08-.21-.08-.33-.01-.42-.06-1.51.04-1.84.16-.53.79-.21.79-.03v2.21h1.27v-3.41c0-.07.28-.28.41-.27.09,0,.34.23.34.27v3.41h1.27v-1.99c0-.4.82-.44.82-.07v2.06h1.27v-3.41c0-.06.31-.26.41-.26.1,0,.34.23.34.26v3.41h1.57v-5.77Z"/>
      <path class="cls-13" d="M35.48,132.22c1.21-.12,4,.09,4.5,1.45.61,1.64-2.11,2.3-3.25,2.36-1.22.06-4.21-.39-3.93-2.13.16-1.02,1.79-1.58,2.68-1.67Z"/>
    </g>
    <g>
      <rect class="cls-74" x="20.88" y="205.45" width="35.07" height="11.41"/>
      <rect class="cls-77" x="21.67" y="205.45" width="2.93" height="11.41"/>
      <rect class="cls-77" x="27.17" y="205.45" width="4.22" height="11.41"/>
      <rect class="cls-77" x="33.04" y="205.45" width="2.32" height="11.41"/>
      <rect class="cls-77" x="38.41" y="205.45" width="3.67" height="11.41"/>
      <rect class="cls-77" x="42.87" y="205.45" width="2.87" height="11.41"/>
      <rect class="cls-77" x="48.86" y="205.45" width="5.13" height="11.41"/>
      <rect class="cls-72" x="20.88" y="205.45" width="35.07" height="11.41"/>
    </g>
    <g>
      <line class="cls-61" x1="21.66" y1="285.6" x2="55.16" y2="285.6"/>
      <rect class="cls-6" x="32.34" y="281.9" width="14.13" height="6.33"/>
      <g>
        <polyline class="cls-33" points="32.45 285.6 32.45 276.63 37.7 276.63"/>
        <polygon class="cls-74" points="36.34 281.27 44.37 276.63 36.34 271.99 36.34 281.27"/>
      </g>
    </g>
    <polyline class="cls-44" points="401.38 204.27 401.38 202.69 449.54 202.69 449.54 204.27"/>
    <g>
      <rect class="cls-16" x="24.06" y="172.77" width="7.13" height="7.13"/>
      <rect class="cls-16" x="39.09" y="166.22" width="13.68" height="13.68"/>
      <g>
        <line class="cls-74" x1="32.35" y1="177.7" x2="38.45" y2="175.68"/>
        <g>
          <line class="cls-17" x1="32.35" y1="177.7" x2="34.34" y2="177.04"/>
          <polygon class="cls-74" points="34.45 180.18 38.45 175.68 32.56 174.47 34.45 180.18"/>
        </g>
      </g>
    </g>
    <g>
      <polyline class="cls-33" points="139.58 194.8 139.58 183.59 147.8 183.59"/>
      <polygon class="cls-74" points="146.44 188.23 154.47 183.59 146.44 178.95 146.44 188.23"/>
    </g>
    <rect class="cls-99" x="305.39" y="90.52" width="8.1" height="3.82"/>
    <g>
      <rect class="cls-96" x="313.54" y="90.52" width="9.21" height="3.83"/>
      <rect class="cls-77" x="313.74" y="90.52" width=".77" height="3.83"/>
      <rect class="cls-77" x="315.19" y="90.52" width="1.11" height="3.83"/>
      <rect class="cls-77" x="316.73" y="90.52" width=".61" height="3.83"/>
      <rect class="cls-77" x="318.14" y="90.52" width=".96" height="3.83"/>
      <rect class="cls-77" x="319.31" y="90.52" width=".75" height="3.83"/>
      <rect class="cls-77" x="320.88" y="90.52" width="1.35" height="3.83"/>
      <rect class="cls-28" x="313.54" y="90.52" width="9.21" height="3.83"/>
    </g>
    <rect class="cls-99" x="204.04" y="268.72" width="8.1" height="3.82"/>
    <g>
      <rect class="cls-96" x="212.18" y="268.72" width="9.21" height="3.83"/>
      <rect class="cls-77" x="212.39" y="268.72" width=".77" height="3.83"/>
      <rect class="cls-77" x="213.84" y="268.72" width="1.11" height="3.83"/>
      <rect class="cls-77" x="215.38" y="268.72" width=".61" height="3.83"/>
      <rect class="cls-77" x="216.79" y="268.72" width=".96" height="3.83"/>
      <rect class="cls-77" x="217.96" y="268.72" width=".75" height="3.83"/>
      <rect class="cls-77" x="219.53" y="268.72" width="1.35" height="3.83"/>
      <rect class="cls-28" x="212.18" y="268.72" width="9.21" height="3.83"/>
    </g>
    <rect class="cls-103" x="361.04" y="89.59" width="8.1" height="3.82"/>
    <rect class="cls-93" x="361.04" y="94.72" width="8.1" height="3.82"/>
    <g>
      <rect class="cls-96" x="373.87" y="92.07" width="9.21" height="3.83"/>
      <rect class="cls-77" x="374.08" y="92.07" width=".77" height="3.83"/>
      <rect class="cls-77" x="375.52" y="92.07" width="1.11" height="3.83"/>
      <rect class="cls-77" x="377.06" y="92.07" width=".61" height="3.83"/>
      <rect class="cls-77" x="378.47" y="92.07" width=".96" height="3.83"/>
      <rect class="cls-77" x="379.64" y="92.07" width=".75" height="3.83"/>
      <rect class="cls-77" x="381.22" y="92.07" width="1.35" height="3.83"/>
      <rect class="cls-28" x="373.87" y="92.07" width="9.21" height="3.83"/>
    </g>
    <line class="cls-31" x1="369.14" y1="91.5" x2="373.87" y2="93.99"/>
    <line class="cls-31" x1="369.14" y1="96.76" x2="373.87" y2="93.99"/>
    <g>
      <rect class="cls-96" x="233.46" y="219.17" width="11.7" height="4.86" transform="translate(478.61 443.21) rotate(180)"/>
      <rect class="cls-77" x="243.91" y="219.17" width=".98" height="4.86" transform="translate(488.8 443.21) rotate(180)"/>
      <rect class="cls-77" x="241.65" y="219.17" width="1.41" height="4.86" transform="translate(484.7 443.21) rotate(180)"/>
      <rect class="cls-77" x="240.32" y="219.17" width=".77" height="4.86" transform="translate(481.42 443.21) rotate(180)"/>
      <rect class="cls-77" x="238.08" y="219.17" width="1.22" height="4.86" transform="translate(477.38 443.21) rotate(180)"/>
      <rect class="cls-77" x="236.86" y="219.17" width=".96" height="4.86" transform="translate(474.67 443.21) rotate(180)"/>
      <rect class="cls-77" x="234.11" y="219.17" width="1.71" height="4.86" transform="translate(469.93 443.21) rotate(180)"/>
      <rect class="cls-26" x="233.46" y="219.17" width="11.7" height="4.86" transform="translate(478.61 443.21) rotate(180)"/>
    </g>
    <g>
      <rect class="cls-96" x="233.46" y="213.42" width="11.7" height="4.86"/>
      <rect class="cls-77" x="233.72" y="213.42" width=".98" height="4.86"/>
      <rect class="cls-77" x="235.55" y="213.42" width="1.41" height="4.86"/>
      <rect class="cls-77" x="237.51" y="213.42" width=".77" height="4.86"/>
      <rect class="cls-77" x="239.3" y="213.42" width="1.22" height="4.86"/>
      <rect class="cls-77" x="240.79" y="213.42" width=".96" height="4.86"/>
      <rect class="cls-77" x="242.79" y="213.42" width="1.71" height="4.86"/>
      <rect class="cls-26" x="233.46" y="213.42" width="11.7" height="4.86"/>
    </g>
    <rect class="cls-103" x="217.75" y="213.42" width="9.99" height="4.71" transform="translate(445.49 431.55) rotate(180)"/>
    <rect class="cls-99" x="217.75" y="219.25" width="9.99" height="4.71" transform="translate(445.49 443.21) rotate(180)"/>
    <path class="cls-74" d="M151.49,178.52c.88,0,1.83.47,2.4,1.12.56.6.94,1.21,1.45,1.55,1.14.79,2.52.27,3.39-.82.92-1.24,2.87-1.94,4.24-.93,1.21.89,1.78,2.58,3.48,2.57-1.64.16-2.5-1.54-3.66-2.29-1.31-.76-2.75-.11-3.57,1.09-.87,1.37-2.88,2.2-4.42,1.22-1.29-.77-1.8-2.29-3.33-2.19-.92.02-.89-1.39.03-1.33h0Z"/>
    <path class="cls-74" d="M151.49,175.2c.88,0,1.83.47,2.4,1.12.56.6.94,1.21,1.45,1.55,1.14.79,2.52.27,3.39-.82.92-1.24,2.87-1.94,4.24-.93,1.21.89,1.78,2.58,3.48,2.57-1.64.16-2.5-1.54-3.66-2.29-1.31-.76-2.75-.11-3.57,1.09-.87,1.37-2.88,2.2-4.42,1.22-1.29-.77-1.8-2.29-3.33-2.19-.92.02-.89-1.39.03-1.33h0Z"/>
    <path class="cls-74" d="M151.49,172.54c.88,0,1.83.47,2.4,1.12.56.6.94,1.21,1.45,1.55,1.14.79,2.52.27,3.39-.82.92-1.24,2.87-1.94,4.24-.93,1.21.89,1.78,2.58,3.48,2.57-1.64.16-2.5-1.54-3.66-2.29-1.31-.76-2.75-.11-3.57,1.09-.87,1.37-2.88,2.2-4.42,1.22-1.29-.77-1.8-2.29-3.33-2.19-.92.02-.89-1.39.03-1.33h0Z"/>
    <rect class="cls-77" x="158.48" y="58.51" width="1.49" height="7.4"/>
    <g>
      <rect class="cls-96" x="159.97" y="58.51" width="15.91" height="7.4"/>
      <rect class="cls-77" x="161.27" y="58.51" width="2.14" height="7.4"/>
      <rect class="cls-77" x="164.25" y="58.51" width="1.18" height="7.4"/>
      <rect class="cls-77" x="166.98" y="58.51" width="1.86" height="7.4"/>
      <rect class="cls-77" x="169.24" y="58.51" width="1.46" height="7.4"/>
      <rect class="cls-77" x="172.28" y="58.51" width="2.61" height="7.4"/>
      <rect class="cls-41" x="159.97" y="58.51" width="15.91" height="7.4"/>
    </g>
    <rect class="cls-103" x="141.13" y="58.53" width="18.84" height="7.39"/>
    <text class="cls-80" transform="translate(142.17 64.52)"><tspan x="0" y="0">cCRE</tspan></text>
    <text class="cls-92" transform="translate(162.92 64.52)"><tspan x="0" y="0">BC</tspan></text>
    <path class="cls-51" d="M145.92,245.07c.1.26,0,.55,0,.81-.04,1.79.03,3.58,0,5.37-.09.31-.26.45-.57.52-.06.01-.22,0-.23,0-.01,0-.02.17-.08.26-.09.13-.22.19-.38.2-.17.02-1.06.02-1.17-.03-.06-.03-.1-.09-.16-.13-4.07,0-8.15-.1-12.22-.03-.2.32-1.27.28-1.61.21-.22-.04-.25-.21-.31-.23-.1-.03-.32-.02-.49-.06-.42-.11-1.98-1.23-2.4-1.55-.38-.29-.48-.44-.51-.93-.15-2.14.12-4.44,0-6.6,0-.6.42-1.08,1.01-1.2h6.11s.13-.03.13-.06c0-.16-.02-.39,0-.54.02-.17.2-.32.33-.43.58-.52,1.41-1.12,2.04-1.58.29-.21.56-.45.93-.49.86-.09,1.82.11,2.69.03,1.2.06,2.4.1,3.6.15.77.03,1.77-.21,2.08.71.24,1.47.56,2.93.8,4.4.04.23.11.53.12.75,0,.04,0,.08-.03.1M144.1,243.73c0-.1,0-.2-.01-.3-.14-1.15-.58-2.37-.73-3.53-.07-.34-.62-.2-.91-.21-1.4-.06-2.81-.08-4.22-.11-.18,0-.48-.13-.48.19l.76,3.65c.02.13.17.31.31.31h5.3ZM135.69,247.16v-2.9c0-.11-.13-.35-.24-.41-.81-.56-1.55-1.24-2.41-1.72-1.8-.01-3.65-.13-5.45-.05-.19,0-.55.03-.72.08-.27.09-.56.4-.58.69v6.77c.03.08.08.12.13.17.51.5,1.48.94,2.05,1.43.11.2.32.41.57.41h7.08l-.04-.4h-5.62c-.67-.02-1.21-.32-1.29-1.03-.06-.52-.06-1.79,0-2.3.03-.27.22-.58.48-.68.03-.01.25-.06.26-.06h5.77ZM137.88,247.7c.1-.08-.35-.24-.42-.22-2.41.03-4.84-.04-7.25.04-.25.08-.35.28-.38.53-.05.53-.05,1.63,0,2.16.02.19.08.42.26.52,0-.09-.03-.18-.04-.27-.03-.67-.05-1.61,0-2.27.01-.14.03-.39.18-.43l7.64-.05Z"/>
    <g>
      <line class="cls-51" x1="163.24" y1="93.98" x2="163.2" y2="94.31"/>
      <path class="cls-51" d="M180.71,88.04c.1.26,0,.55,0,.81-.04,1.79.03,3.58,0,5.37-.09.31-.26.45-.57.52-.06.01-.22,0-.23,0-.01,0-.02.17-.08.26-.09.13-.22.19-.38.2-.17.02-1.06.02-1.17-.03-.06-.03-.1-.09-.16-.13-4.07,0-8.15-.1-12.22-.03-.2.32-1.27.28-1.61.21-.22-.04-.25-.21-.31-.23-.1-.03-.32-.02-.49-.06-.42-.11-1.98-1.23-2.4-1.55-.38-.29-.48-.44-.51-.93-.15-2.14.12-4.44,0-6.6,0-.6.42-1.08,1.01-1.2h6.11s.13-.03.13-.06c0-.16-.02-.39,0-.54.02-.17.2-.32.33-.43.58-.52,1.41-1.12,2.04-1.58.29-.21.56-.45.93-.49.86-.09,1.82.11,2.69.03,1.2.06,2.4.1,3.6.15.77.03,1.77-.21,2.08.71.24,1.47.56,2.93.8,4.4.04.23.11.53.12.75,0,.04,0,.08-.03.1M178.89,86.7c0-.1,0-.2-.01-.3-.14-1.15-.58-2.37-.73-3.53-.07-.34-.62-.2-.91-.21-1.4-.06-2.81-.08-4.22-.11-.18,0-.48-.13-.48.19l.76,3.65c.02.13.17.31.31.31h5.3ZM170.48,90.13v-2.9c0-.11-.13-.35-.24-.41-.81-.56-1.55-1.24-2.41-1.72-1.8-.01-3.65-.13-5.45-.05-.19,0-.55.03-.72.08-.27.09-.56.4-.58.69v6.77c.03.08.08.12.13.17.51.5,1.48.94,2.05,1.43.11.2.32.41.57.41h7.08l-.04-.4h-5.62c-.67-.02-1.21-.32-1.29-1.03-.06-.52-.06-1.79,0-2.3.03-.27.22-.58.48-.68.03-.01.25-.06.26-.06h5.77ZM172.66,90.67c.1-.08-.35-.24-.42-.22-2.41.03-4.84-.04-7.25.04-.25.08-.35.28-.38.53-.05.53-.05,1.63,0,2.16.02.19.08.42.26.52,0-.09-.03-.18-.04-.27-.03-.67-.05-1.61,0-2.27.01-.14.03-.39.18-.43l7.64-.05Z"/>
    </g>
    <path class="cls-50" d="M498.96,212.16c.28.17,1.22-.17,1.37.83.2,1.25-.61,1.13-1.31,1.47-.42.2-2.2,3.98-2.72,4.59-.08.34.52.56.09,1.36-.3.56-.91.72-1.5.49-.41-.17-.35-.62-.83-.68-1.57-.19-3.53.16-5.14,0-.64,1.25-2.43.94-2.22-.58.03-.22.24-.37.17-.6l-2.64-4.72c-1.07.34-1.87-1.08-1.06-1.87.41-.41.88-.18,1.07-.35l2.66-4.63c-.38-.75-.29-1.87.71-1.96,1.06-.1.95.7,1.5.76,1.54.19,3.47-.15,5.05,0,.31-.06.39-.58.8-.7.54-.17,1.09-.04,1.39.45.49.81-.13,1.11-.01,1.51l2.62,4.63ZM494.22,206.92h-5.26l2.63,1.5,2.63-1.5ZM493.47,209.49l1.07-2.04-2.25,1.34c0,.11,1.11.74,1.18.7ZM491,208.74l-2.25-1.18.97,1.93c.08.06,1.35-.67,1.29-.75ZM487.46,210.83v-3.06l-2.58,4.45c.11.15.38-.08.5-.14.71-.38,1.39-.83,2.08-1.25ZM495.19,210.46v-2.68c-.25.31-1.24,1.8-1.19,2.08l1.19.6ZM495.73,207.78v3.11l2.68,1.45-2.68-4.56ZM488.1,210.46l1.18-.7-1.18-1.88v2.58ZM493.04,209.93c-.05-.06-1.34-.74-1.42-.74-.1,0-1.38.75-1.42.84-.1.12.02.19.05.27.32.75.97,1.56,1.35,2.3.2-.36,1.6-2.46,1.44-2.67ZM491,212.93l-1.45-2.57c-.19.15-1.45.75-1.45.9v1.66h2.9ZM495.19,212.93v-1.66c0-.09-1.38-.83-1.61-.91l-1.4,2.58h3.01ZM497.98,212.93c-.67-.56-1.53-.9-2.25-1.4v1.4s2.25,0,2.25,0ZM485.21,212.93h2.25l-.05-1.29-2.2,1.29ZM487.46,213.57h-2.36l2.36,1.4v-1.4ZM491,213.57h-2.9v1.82c.34.03,1.28.85,1.51.71.12-.08,1.5-2.44,1.39-2.53ZM495.19,213.57h-3.01l1.45,2.58c.09,0,1.45-.79,1.5-.86.11-.16.01-1.43.05-1.71ZM498.09,213.57h-2.36v1.4s2.36-1.4,2.36-1.4ZM493.03,216.57c.12-.17-1.21-2.39-1.49-2.67-.08.43-1.53,2.48-1.39,2.68.41.02,1.12.76,1.45.75.28,0,1.06-.72,1.44-.76ZM495.73,218.72l2.68-4.56-2.68,1.45v3.11ZM487.46,215.61c-.81-.35-1.54-.87-2.31-1.29-.08-.04-.18-.22-.27-.05l2.58,4.45v-3.11ZM488.1,216.04v2.58l1.18-1.88-1.18-.7ZM495.19,216.04l-1.29.7,1.29,1.99v-2.68ZM491,217.65l-1.29-.65-.97,1.93,2.25-1.29ZM493.47,217.01l-1.29.75,2.36,1.29-1.07-2.04ZM489.07,219.58h5.05l-2.52-1.5-2.52,1.5Z"/>
    <g>
      <path class="cls-94" d="M497.28,260.31c-.07-.07,0-.8.2-.8h2.21c-.26-5.96-6.33-9.97-11.94-7.85-3.14,1.18-5.71,4.41-5.64,7.85h2.21c.27,0,.27.8,0,.8h-3.09s-.22-.14-.31-.16c-.24-6.85,6.35-11.74,12.93-9.77,3.21.96,5.94,3.81,6.73,7.09.1.43.61,2.84-.03,2.84-.45,0-3.17.12-3.29,0Z"/>
      <path class="cls-94" d="M494.2,255.08l-1.85,5.2c-.09.81.75,1.1.14,2.27-1.01,1.95-4.26.49-3.14-1.66.53-1.01,1.32-.75,1.7-1.11.69-.64,1.95-3.4,2.72-4.39.13-.16.16-.36.43-.3Z"/>
      <path class="cls-94" d="M491.23,253.86c-.92.61-.79-2.17-.45-2.27.89-.26.63,2.15.45,2.27Z"/>
      <path class="cls-94" d="M487.49,254.94s-.39.12-.45.11c-.12-.02-1.55-1.6-.89-1.93.43-.21,1.49,1.61,1.34,1.81Z"/>
      <path class="cls-94" d="M497.24,254.96c.32-.09.62.36.52.52-.04.07-1.21.97-1.29,1.01-.35.16-.77-.17-.61-.47.04-.08,1.29-1.03,1.38-1.05Z"/>
      <path class="cls-94" d="M494.33,254.94c-.16-.21.77-1.6,1-1.75.26-.17.72.05.48.49-.11.19-.77,1.2-.88,1.28-.16.12-.54.07-.61-.02Z"/>
      <path class="cls-94" d="M484.35,254.95c.33-.09,1.79.97,1.6,1.34-.09.18-.27.27-.48.22-.25-.07-1.88-1.35-1.12-1.55Z"/>
      <path class="cls-94" d="M492.59,253.87c-.06-.08.35-1.88.87-1.74.4.11-.22,1.82-.42,1.86-.04,0-.44-.1-.46-.12Z"/>
      <path class="cls-94" d="M498.62,256.96s.13.32.13.33c0,.11-1.72,1.05-1.87.53s1.61-.97,1.74-.87Z"/>
      <path class="cls-94" d="M488.81,252.15c.07.04.42,1.36.43,1.52.01.21-.27.33-.34.33-.22,0-.76-1.72-.6-1.87.15.02.41-.05.52.02Z"/>
      <path class="cls-94" d="M484.81,258.03c-.17.13-1.73-.58-1.74-.74l.13-.33c.18-.14,1.58.43,1.68.66.03.06-.06.39-.07.41Z"/>
    </g>
    <g>
      <path class="cls-94" d="M490.77,290.8c-.13,0-.3-.03-.4-.13-.22-.19-.24-.54-.05-.75l1.05-1.21c.19-.22.54-.24.75-.05s.24.54.05.75l-1.05,1.21c-.08.11-.22.16-.35.19h0Z"/>
      <path class="cls-94" d="M489.13,290.19c-.19.03-.35-.03-.51-.16-.27-.24-.3-.67-.05-.94l1.24-1.43c.24-.27.67-.3.94-.05.27.24.3.67.05.94l-1.24,1.43c-.11.13-.27.22-.43.22h0Z"/>
      <path class="cls-94" d="M487.44,289.19c-.22.03-.43-.05-.59-.19-.32-.3-.38-.81-.08-1.13l1.24-1.43c.3-.32.81-.38,1.13-.08.32.3.38.81.08,1.13l-1.24,1.43c-.13.16-.35.27-.54.27h0Z"/>
      <path class="cls-94" d="M485.47,288.19c-.22.03-.43-.05-.59-.19-.32-.3-.38-.81-.08-1.13l1.43-1.61c.3-.32.81-.38,1.13-.08.32.3.38.81.08,1.13l-1.43,1.61c-.16.16-.35.24-.54.27h0Z"/>
      <path class="cls-94" d="M479.93,282.27l2.07,1.27c.24.16.59.08.73-.19l2.5-4.15c.16-.24.08-.59-.19-.73l-2.04-1.27-3.07,5.06h0Z"/>
      <path class="cls-94" d="M497.36,285.8l-4.33-3.71-.3-.27-1.86,2.13c-.27.32-.65.51-1.08.54h-.13c-.4,0-.78-.13-1.05-.4-.67-.59-.73-1.61-.16-2.29l1.59-1.83c-1.24-.16-2.82.48-4.47-.32l-2.34,3.88,1.83,2.13.7-.81c.24-.3.62-.46,1.02-.46h0c.32,0,.65.11.89.32.3.24.43.59.46.97.13-.05.3-.08.46-.08.32,0,.65.11.89.32.3.27.46.62.46,1,.11-.03.24-.05.35-.05h0c.3,0,.56.11.81.3.24.22.38.51.4.83.08-.03.19-.05.3-.05h0c.27,0,.51.08.7.27.22.19.35.46.38.73.03.3-.08.57-.27.78l-.91,1.05.38.3c.19.11.4.19.65.16.59-.05,1.02-.57.97-1.16v-.03c.08.03.19.03.27.03.59-.05,1.02-.57.97-1.16v-.03c.08.03.19.03.27.03.59-.05,1.02-.57.97-1.16,0-.05-.03-.11-.03-.16.16.08.35.13.56.11.59-.05,1.02-.57.97-1.16.03-.3-.11-.54-.3-.73h0Z"/>
      <path class="cls-94" d="M503.28,282.27l-2.07,1.27c-.24.16-.59.08-.73-.19l-2.5-4.15c-.16-.24-.08-.59.19-.73l2.07-1.27,3.04,5.06h0Z"/>
      <path class="cls-94" d="M497.66,279.74c-2.23.81-3.85.03-5.65-.32-.03,0-.13-.03-.13-.03-.32-.03-.67.08-.91.35l-2.13,2.42c-.4.46-.35,1.13.11,1.51.24.19.51.3.81.27.27-.03.54-.13.73-.38l2.21-2.53,5.03,4.33h0c.13.13.19.19.3.35l1.94-2.23-2.29-3.74h0Z"/>
    </g>
    <g>
      <path class="cls-74" d="M48.03,100.45v7.56c0,.3-.24.55-.55.55h-13.14c-.51,0-.75-.65-.35-.97,3.13-2.53,7.1-3.96,8.89-7.9.41-.91.44-2.3,1.79-1.65,1.01.49,2.08,1.34,3.08,1.95.16.1.27.28.27.47Z"/>
      <g>
        <path class="cls-74" d="M32.74,89.23c1.11.11,2.6.73,3.58,1.27.25.14.98.72,1.14.75s.29-.25.44-.18c.1.04,1.47,1.42,1.55,1.55.2.3-.1.35-.08.5.01.08.73,1.06.86,1.29.46.82,1.27,2.72,1.27,3.62v1.25l-1.34-2.48c-.58-.92-1.24-1.78-1.97-2.58-.19.13-.42.57-.67.5-.11-.03-1.52-1.44-1.56-1.54-.21-.44.52-.66.39-.86-.08,0-.15-.03-.21-.09-1.45-1.29-3.18-2.22-4.94-3.01.5.03,1.05-.05,1.55,0Z"/>
        <path class="cls-74" d="M28.79,101.09v-.17c.19-.71.79-1,1.25-1.46,1.95-1.92,3.85-3.88,5.8-5.81.1-.08.14,0,.22.04.15.1,1.07,1.06,1.07,1.16l-.08.18-6.83,6.74c-.6.37-1.25-.08-1.42-.69Z"/>
      </g>
      <g>
        <path class="cls-74" d="M46.83,95.58l-3.69,1.21,3.31-2.06c.07,0,.46.74.38.85Z"/>
        <path class="cls-74" d="M44.25,92.75c-.61,1.12-1.1,2.3-1.68,3.43-.05.1-.08.24-.21.26l.99-3.87c.17-.24.68.16.9.17Z"/>
        <path class="cls-74" d="M39.62,98.08c0,.13-.3.15-.4.16-.86.11-1.76.09-2.61.27v-.69s3.01.26,3.01.26Z"/>
        <path class="cls-74" d="M39.7,98.77c-.49.57-1.07,1.57-1.59,2.06-.22.2-.6-.28-.52-.43l2.11-1.63Z"/>
      </g>
    </g>
    <g>
      <path class="cls-35" d="M496.89,94.8l-.17-1.56-1.9,1.91.1.9-2.77,2.77c-.24-.12-.52-.21-.81-.21-.95,0-1.73.78-1.73,1.73s.78,1.73,1.73,1.73,1.73-.78,1.73-1.73c0-.29-.07-.55-.19-.8l2.77-2.77.9.1,1.9-1.91-1.56-.17h0Z"/>
      <path class="cls-25" d="M497.03,97.37l-.23.24-.33-.03-.36-.05c.48.83.78,1.78.78,2.82,0,3.05-2.49,5.54-5.54,5.54s-5.54-2.49-5.54-5.54,2.49-5.54,5.54-5.54c1.02,0,1.99.28,2.82.78l-.03-.35-.05-.35.24-.24.12-.12c-.94-.49-1.97-.76-3.1-.76-3.64,0-6.58,2.95-6.58,6.58s2.94,6.58,6.58,6.58,6.58-2.95,6.58-6.58c0-1.13-.28-2.17-.78-3.08l-.12.1h0Z"/>
      <path class="cls-25" d="M494.24,99.17c.16.36.23.76.23,1.18,0,1.72-1.4,3.12-3.12,3.12s-3.12-1.4-3.12-3.12,1.4-3.12,3.12-3.12c.42,0,.81.09,1.18.23l.78-.78c-.59-.31-1.25-.49-1.96-.49-2.29,0-4.16,1.87-4.16,4.16s1.87,4.16,4.16,4.16,4.16-1.87,4.16-4.16c0-.71-.17-1.37-.48-1.96l-.78.78h0Z"/>
    </g>
    <g>
      <ellipse class="cls-39" cx="139.22" cy="197.59" rx="10.48" ry="2.45"/>
      <rect class="cls-74" x="128.98" y="193.99" width="20.45" height="3.6"/>
      <ellipse class="cls-3" cx="139.22" cy="193.99" rx="10.48" ry="2.45"/>
    </g>
    <rect class="cls-103" x="287.75" y="243.43" width="29.23" height="10.69"/>
    <text class="cls-76" transform="translate(288.86 251.28)"><tspan x="0" y="0">cCRE 2a1</tspan></text>
    <rect class="cls-103" x="233.88" y="92.46" width="12.85" height="3.53"/>
    <rect class="cls-103" x="232.19" y="86.27" width="12.85" height="3.53"/>
    <rect class="cls-103" x="235.85" y="81.5" width="12.85" height="3.53"/>
    <g>
      <rect class="cls-96" x="244.65" y="75.65" width="8.51" height="3.54" transform="translate(497.82 154.85) rotate(180)"/>
      <rect class="cls-77" x="252.26" y="75.65" width=".71" height="3.54" transform="translate(505.23 154.85) rotate(180)"/>
      <rect class="cls-77" x="250.61" y="75.65" width="1.02" height="3.54" transform="translate(502.25 154.85) rotate(180)"/>
      <rect class="cls-77" x="249.65" y="75.65" width=".56" height="3.54" transform="translate(499.86 154.85) rotate(180)"/>
      <rect class="cls-77" x="248.02" y="75.65" width=".89" height="3.54" transform="translate(496.93 154.85) rotate(180)"/>
      <rect class="cls-77" x="247.13" y="75.65" width=".7" height="3.54" transform="translate(494.96 154.85) rotate(180)"/>
      <rect class="cls-77" x="245.13" y="75.65" width="1.25" height="3.54" transform="translate(491.5 154.85) rotate(180)"/>
      <rect class="cls-28" x="244.65" y="75.65" width="8.51" height="3.54" transform="translate(497.82 154.85) rotate(180)"/>
    </g>
    <rect class="cls-103" x="232.01" y="75.66" width="12.85" height="3.53"/>
    <g>
      <rect class="cls-99" x="205.69" y="97.36" width="21.12" height="7.91"/>
      <text class="cls-76" transform="translate(205.9 103.82)"><tspan x="0" y="0">cCRE 1</tspan></text>
    </g>
    <g>
      <rect class="cls-103" x="230.21" y="97.55" width="21.12" height="7.91"/>
      <text class="cls-76" transform="translate(230.47 103.92)"><tspan x="0" y="0">cCRE 2</tspan></text>
    </g>
    <g>
      <rect class="cls-93" x="253" y="97.46" width="21.12" height="7.91"/>
      <text class="cls-76" transform="translate(253.22 103.92)"><tspan x="0" y="0">cCRE 3</tspan></text>
    </g>
    <rect class="cls-99" x="287.75" y="232.81" width="29.23" height="10.69"/>
    <text class="cls-76" transform="translate(288.86 240.66)"><tspan x="0" y="0">cCRE 1</tspan></text>
    <rect class="cls-94" x="287.75" y="222.01" width="29.23" height="10.69"/>
    <text class="cls-76" transform="translate(288.86 229.87)"><tspan x="0" y="0">Ctrl</tspan></text>
    <rect class="cls-93" x="419.7" y="99.06" width="22.25" height="10.69"/>
    <text class="cls-76" transform="translate(420.55 106.91)"><tspan x="0" y="0">cCRE 3</tspan></text>
    <rect class="cls-100" x="419.7" y="109.75" width="22.25" height="10.69"/>
    <text class="cls-76" transform="translate(420.55 117.6)"><tspan x="0" y="0">cCRE 4</tspan></text>
    <rect class="cls-103" x="419.7" y="88.42" width="22.25" height="10.69"/>
    <text class="cls-76" transform="translate(420.55 96.27)"><tspan x="0" y="0">cCRE 2</tspan></text>
    <rect class="cls-99" x="419.7" y="77.8" width="22.25" height="10.69"/>
    <text class="cls-76" transform="translate(420.55 85.65)"><tspan x="0" y="0">cCRE 1</tspan></text>
    <rect class="cls-99" x="209.67" y="92.48" width="12.85" height="3.53"/>
    <g>
      <rect class="cls-96" x="222.47" y="92.47" width="8.51" height="3.54" transform="translate(453.45 188.49) rotate(180)"/>
      <rect class="cls-77" x="230.08" y="92.47" width=".71" height="3.54" transform="translate(460.87 188.49) rotate(180)"/>
      <rect class="cls-77" x="228.43" y="92.47" width="1.02" height="3.54" transform="translate(457.89 188.49) rotate(180)"/>
      <rect class="cls-77" x="227.47" y="92.47" width=".56" height="3.54" transform="translate(455.5 188.49) rotate(180)"/>
      <rect class="cls-77" x="225.84" y="92.47" width=".89" height="3.54" transform="translate(452.56 188.49) rotate(180)"/>
      <rect class="cls-77" x="224.95" y="92.47" width=".7" height="3.54" transform="translate(450.59 188.49) rotate(180)"/>
      <rect class="cls-77" x="222.95" y="92.47" width="1.25" height="3.54" transform="translate(447.14 188.49) rotate(180)"/>
      <rect class="cls-28" x="222.47" y="92.47" width="8.51" height="3.54" transform="translate(453.45 188.49) rotate(180)"/>
    </g>
    <rect class="cls-99" x="207.73" y="88.06" width="12.85" height="3.53"/>
    <g>
      <rect class="cls-96" x="220.52" y="88.05" width="8.51" height="3.54" transform="translate(449.56 179.65) rotate(180)"/>
      <rect class="cls-77" x="228.13" y="88.05" width=".71" height="3.54" transform="translate(456.98 179.65) rotate(180)"/>
      <rect class="cls-77" x="226.81" y="88.05" width="1.02" height="3.54" transform="translate(454.64 179.65) rotate(180)"/>
      <rect class="cls-77" x="225.52" y="88.05" width=".56" height="3.54" transform="translate(451.61 179.65) rotate(180)"/>
      <rect class="cls-77" x="223.57" y="88.05" width="1.21" height="3.54" transform="translate(448.35 179.65) rotate(180)"/>
      <rect class="cls-77" x="221" y="88.05" width="1.68" height="3.54" transform="translate(443.67 179.65) rotate(180)"/>
      <rect class="cls-28" x="220.52" y="88.05" width="8.51" height="3.54" transform="translate(449.56 179.65) rotate(180)"/>
    </g>
    <line class="cls-49" x1="268.98" y1="264.34" x2="268.98" y2="267.39"/>
    <g>
      <path class="cls-74" d="M39.85,234.28c.59-.04,1.25.33,1.03,1-.17.52-1.18,1.33-1.6,1.74-4.07,4.02-6.73,8.13-9,13.38-.11.26-.43,1.17-.59,1.31-.25.21-.59.15-.78-.1-.26-.33-.53-.94-.76-1.33-1.36-2.28-2.65-4.11-4.55-5.98-.37-.36-.74-.48-.59-1.09.35-1.39,2.52-.52,3.38-.17.84.34,1.64.77,2.46,1.18,1.94-2.24,3.93-4.48,6.08-6.53.72-.68,1.47-1.36,2.25-1.97.68-.53,1.81-1.37,2.68-1.44Z"/>
      <g>
        <path class="cls-74" d="M43.63,235.08c2.39,2.53,4.77,4.36,6.85,6.96s4.03,5.6,5.64,8.66"/>
        <path class="cls-74" d="M44.6,234.16c4.45,2.63,8.44,6.31,10.85,10.99.84,1.53,1.56,3.13,2.03,4.83.23.84-.26,1.71-1.09,1.94-.61.17-1.24-.05-1.63-.51-1.09-1.27-2.07-2.56-3.05-3.85-1.73-2.27-4.03-5.29-5.96-7.43-1.08-1.24-2.2-2.59-3.08-4.15-.37-.66-.14-1.5.52-1.87.46-.26,1-.23,1.42.04h0Z"/>
      </g>
      <g>
        <path class="cls-74" d="M56.11,235.08c-2.39,2.53-4.77,4.36-6.85,6.96s-4.03,5.6-5.64,8.66"/>
        <path class="cls-74" d="M57.08,236c-1.72,2.9-4.2,5.16-6.11,7.76-1.97,2.57-3.77,5.23-5.78,7.8-1.24,1.57-3.75.2-3.14-1.68,1.42-4.17,3.89-7.98,7-11.1,1.89-1.77,3.98-3.25,6.11-4.63,1.18-.79,2.66.65,1.92,1.84h0Z"/>
      </g>
    </g>
    <path class="cls-103" d="M238.95,267.39c4.59,0,9.18-12.35,13.77-12.35,4.23,0,8.45,12.35,12.68,12.35"/>
    <rect class="cls-64" x="419.76" y="77.8" width="40.44" height="42.65"/>
    <line class="cls-64" x1="419.76" y1="88.42" x2="460.2" y2="88.42"/>
    <line class="cls-64" x1="419.76" y1="99.06" x2="460.2" y2="99.06"/>
    <line class="cls-64" x1="419.76" y1="109.76" x2="460.2" y2="109.76"/>
    <rect class="cls-64" x="287.75" y="222.11" width="72.58" height="75.45"/>
    <line class="cls-64" x1="287.75" y1="232.71" x2="359.21" y2="232.71"/>
    <line class="cls-64" x1="287.75" y1="243.5" x2="359.21" y2="243.5"/>
    <line class="cls-64" x1="287.75" y1="254.12" x2="359.21" y2="254.12"/>
    <line class="cls-64" x1="287.75" y1="264.98" x2="359.21" y2="264.98"/>
    <line class="cls-64" x1="287.75" y1="275.67" x2="359.21" y2="275.67"/>
    <line class="cls-64" x1="287.75" y1="286.66" x2="355.99" y2="286.66"/>
    <line class="cls-64" x1="326.73" y1="297.62" x2="326.73" y2="221.97"/>
    <line class="cls-64" x1="336.48" y1="297.62" x2="336.48" y2="221.97"/>
    <line class="cls-64" x1="316.97" y1="275.42" x2="316.97" y2="221.97"/>
    <line class="cls-64" x1="355.99" y1="275.42" x2="355.99" y2="221.97"/>
    <line class="cls-64" x1="346.24" y1="297.62" x2="346.24" y2="221.97"/>
    <g>
      <path class="cls-50" d="M498.96,73.87c.28.17,1.22-.17,1.37.83.2,1.25-.61,1.13-1.31,1.47-.42.2-2.2,3.98-2.72,4.59-.08.34.52.56.09,1.36-.3.56-.91.72-1.5.49-.41-.17-.35-.62-.83-.68-1.57-.19-3.53.16-5.14,0-.64,1.25-2.43.94-2.22-.58.03-.22.24-.37.17-.6l-2.64-4.72c-1.07.34-1.87-1.08-1.06-1.87.41-.41.88-.18,1.07-.35l2.66-4.63c-.38-.75-.29-1.87.71-1.96,1.06-.1.95.7,1.5.76,1.54.19,3.47-.15,5.05,0,.31-.06.39-.58.8-.7.54-.17,1.09-.04,1.39.45.49.81-.13,1.11-.01,1.51l2.62,4.63ZM494.22,68.63h-5.26l2.63,1.5,2.63-1.5ZM493.47,71.2l1.07-2.04-2.25,1.34c0,.11,1.11.74,1.18.7ZM491,70.45l-2.25-1.18.97,1.93c.08.06,1.35-.67,1.29-.75ZM487.46,72.55v-3.06l-2.58,4.45c.11.15.38-.08.5-.14.71-.38,1.39-.83,2.08-1.25ZM495.19,72.17v-2.68c-.25.31-1.24,1.8-1.19,2.08l1.19.6ZM495.73,69.49v3.11l2.68,1.45-2.68-4.56ZM488.1,72.17l1.18-.7-1.18-1.88v2.58ZM493.04,71.64c-.05-.06-1.34-.74-1.42-.74-.1,0-1.38.75-1.42.84-.1.12.02.19.05.27.32.75.97,1.56,1.35,2.3.2-.36,1.6-2.46,1.44-2.67ZM491,74.64l-1.45-2.57c-.19.15-1.45.75-1.45.9v1.66h2.9ZM495.19,74.64v-1.66c0-.09-1.38-.83-1.61-.91l-1.4,2.58h3.01ZM497.98,74.64c-.67-.56-1.53-.9-2.25-1.4v1.4s2.25,0,2.25,0ZM485.21,74.64h2.25l-.05-1.29-2.2,1.29ZM487.46,75.28h-2.36l2.36,1.4v-1.4ZM491,75.28h-2.9v1.82c.34.03,1.28.85,1.51.71.12-.08,1.5-2.44,1.39-2.53ZM495.19,75.28h-3.01l1.45,2.58c.09,0,1.45-.79,1.5-.86.11-.16.01-1.43.05-1.71ZM498.09,75.28h-2.36v1.4s2.36-1.4,2.36-1.4ZM493.03,78.28c.12-.17-1.21-2.39-1.49-2.67-.08.43-1.53,2.48-1.39,2.68.41.02,1.12.76,1.45.75.28,0,1.06-.72,1.44-.76ZM495.73,80.44l2.68-4.56-2.68,1.45v3.11ZM487.46,77.32c-.81-.35-1.54-.87-2.31-1.29-.08-.04-.18-.22-.27-.05l2.58,4.45v-3.11ZM488.1,77.75v2.58l1.18-1.88-1.18-.7ZM495.19,77.75l-1.29.7,1.29,1.99v-2.68ZM491,79.36l-1.29-.65-.97,1.93,2.25-1.29ZM493.47,78.72l-1.29.75,2.36,1.29-1.07-2.04ZM489.07,81.29h5.05l-2.52-1.5-2.52,1.5Z"/>
      <circle class="cls-89" cx="483.91" cy="75.05" r="1.06"/>
      <circle class="cls-99" cx="495.46" cy="81.61" r="1.06"/>
      <circle class="cls-103" cx="495.46" cy="68.26" r="1.06"/>
    </g>
    <circle class="cls-89" cx="483.91" cy="191.06" r="1.06"/>
    <circle class="cls-99" cx="499.15" cy="191.06" r="1.06"/>
    <circle class="cls-103" cx="487.69" cy="197.74" r="1.06"/>
    <circle class="cls-89" cx="495.47" cy="206.56" r="1.06"/>
    <circle class="cls-99" cx="499.27" cy="213.25" r="1.06"/>
    <circle class="cls-103" cx="483.91" cy="213.25" r="1.06"/>
  </g>
  <g id="text">
    <g id="small_text" data-name="small text">
      <text class="cls-81" transform="translate(320.4 220.48) rotate(-45)"><tspan x="0" y="0">DNA</tspan></text>
      <text class="cls-81" transform="translate(319.89 203.44)"><tspan x="0" y="0">Rep1</tspan></text>
      <text class="cls-81" transform="translate(339.4 203.44)"><tspan x="0" y="0">Rep2</tspan></text>
      <text class="cls-81" transform="translate(330.65 220.48) rotate(-45)"><tspan x="0" y="0">RNA</tspan></text>
      <text class="cls-81" transform="translate(340.9 220.48) rotate(-45)"><tspan x="0" y="0">DNA</tspan></text>
      <text class="cls-81" transform="translate(351.15 220.48) rotate(-45)"><tspan x="0" y="0">RNA</tspan></text>
      <text class="cls-81" transform="translate(319.74 230.23)"><tspan x="0" y="0">2</tspan></text>
      <text class="cls-81" transform="translate(329.89 230.23)"><tspan x="0" y="0">1</tspan></text>
      <text class="cls-81" transform="translate(319.74 241.02)"><tspan x="0" y="0">3</tspan></text>
      <text class="cls-81" transform="translate(329.89 241.02)"><tspan x="0" y="0">3</tspan></text>
      <text class="cls-81" transform="translate(317.8 251.64)"><tspan x="0" y="0">10</tspan></text>
      <text class="cls-81" transform="translate(327.94 251.64)"><tspan x="0" y="0">37</tspan></text>
      <text class="cls-81" transform="translate(317.8 262.29)"><tspan x="0" y="0">13</tspan></text>
      <text class="cls-81" transform="translate(327.94 262.29)"><tspan x="0" y="0">21</tspan></text>
      <text class="cls-81" transform="translate(317.8 273.54)"><tspan x="0" y="0">12</tspan></text>
      <text class="cls-81" transform="translate(327.94 273.54)"><tspan x="0" y="0">17</tspan></text>
      <text class="cls-81" transform="translate(339.1 230.23)"><tspan x="0" y="0">4</tspan></text>
      <text class="cls-81" transform="translate(349.24 230.23)"><tspan x="0" y="0">3</tspan></text>
      <text class="cls-81" transform="translate(339.1 241.02)"><tspan x="0" y="0">5</tspan></text>
      <text class="cls-81" transform="translate(349.24 241.02)"><tspan x="0" y="0">7</tspan></text>
      <text class="cls-81" transform="translate(337.41 251.64)"><tspan x="0" y="0">11</tspan></text>
      <text class="cls-81" transform="translate(347.3 251.64)"><tspan x="0" y="0">31</tspan></text>
      <text class="cls-81" transform="translate(337.15 262.29)"><tspan x="0" y="0">15</tspan></text>
      <text class="cls-81" transform="translate(347.3 262.29)"><tspan x="0" y="0">24</tspan></text>
      <text class="cls-81" transform="translate(339.1 273.54)"><tspan x="0" y="0">9</tspan></text>
      <text class="cls-81" transform="translate(347.3 273.54)"><tspan x="0" y="0">13</tspan></text>
      <text class="cls-81" transform="translate(317.8 283.44)"><tspan x="0" y="0">15</tspan></text>
      <text class="cls-81" transform="translate(327.94 283.44)"><tspan x="0" y="0">42</tspan></text>
      <text class="cls-81" transform="translate(337.15 283.44)"><tspan x="0" y="0">12</tspan></text>
      <text class="cls-81" transform="translate(347.3 283.44)"><tspan x="0" y="0">17</tspan></text>
      <text class="cls-81" transform="translate(319.74 293.78)"><tspan x="0" y="0">3</tspan></text>
      <text class="cls-81" transform="translate(329.89 293.78)"><tspan x="0" y="0">7</tspan></text>
      <text class="cls-81" transform="translate(339.1 293.78)"><tspan x="0" y="0">7</tspan></text>
      <text class="cls-81" transform="translate(349.24 293.78)"><tspan x="0" y="0">8</tspan></text>
      <text class="cls-81" transform="translate(214.05 233.45)"><tspan x="0" y="0">Low alignment</tspan><tspan x="-2.15" y="8.4">and sequencing</tspan><tspan x="12.45" y="16.8">quality</tspan></text>
      <text class="cls-81" transform="translate(200.56 283.42)"><tspan x="0" y="0">Low BC or</tspan><tspan x="-2.14" y="8.4">DNA counts</tspan></text>
      <text class="cls-81" transform="translate(248.23 283.42)"><tspan x="0" y="0">Outlier</tspan><tspan x="3.7" y="8.4">BCs</tspan></text>
      <text class="cls-81" transform="translate(410.41 295.73)"><tspan x="0" y="0">cCRE1</tspan></text>
      <text class="cls-81" transform="translate(406.02 251.97)"><tspan x="0" y="0">n.s</tspan></text>
      <text class="cls-81" transform="translate(395.73 295.45)"><tspan x="0" y="0">Neg</tspan><tspan x=".98" y="8.4">Ctrl</tspan></text>
      <text class="cls-81" transform="translate(392.18 259.03) rotate(-90)"><tspan x="0" y="0">Activity</tspan></text>
      <text class="cls-81" transform="translate(432.83 295.95)"><tspan x="0" y="0">cCRE2</tspan></text>
      <text class="cls-81" transform="translate(424.85 225.53)"><tspan x="0" y="0">Allele 1</tspan></text>
      <text class="cls-81" transform="translate(441.07 238.56)"><tspan x="0" y="0">Allele 2</tspan></text>
      <text class="cls-81" transform="translate(340.45 90.79)"><tspan x="0" y="0">Low</tspan><tspan x="-3.7" y="8.4">quality</tspan></text>
      <text class="cls-81" transform="translate(307.65 108.06)"><tspan x="0" y="0">Low</tspan><tspan x="-15.17" y="8.4">reproducibility</tspan></text>
      <text class="cls-81" transform="translate(356.09 112.91)"><tspan x="0" y="0">Promiscuity</tspan></text>
      <text class="cls-81" transform="translate(442.86 75.68)"><tspan x="0" y="0">#BCs</tspan></text>
      <text class="cls-81" transform="translate(448.95 85.56)"><tspan x="0" y="0">2</tspan></text>
      <text class="cls-81" transform="translate(448.95 96.2)"><tspan x="0" y="0">9</tspan></text>
      <text class="cls-81" transform="translate(448.95 107.42)"><tspan x="0" y="0">4</tspan></text>
      <text class="cls-81" transform="translate(448.95 118.11)"><tspan x="0" y="0">7</tspan></text>
    </g>
    <g id="headers">
      <text class="cls-91" transform="translate(83.83 89.1)"><tspan x="0" y="0">DNA-seq</tspan></text>
      <text class="cls-91" transform="translate(83.83 241.65)"><tspan x="0" y="0">DNA-seq</tspan><tspan x="0" y="8">RNA-seq</tspan></text>
      <text class="cls-91" transform="translate(316.08 191.12)"><tspan x="0" y="0">Counts</tspan></text>
      <text class="cls-91" transform="translate(387.94 191.06)"><tspan x="0" y="0">Statistical model</tspan></text>
      <text class="cls-91" transform="translate(90.83 67.64)"><tspan x="0" y="0">Construct</tspan></text>
      <text class="cls-91" transform="translate(201.17 64.53)"><tspan x="0" y="0">BC to cCRE mapping</tspan></text>
      <text class="cls-91" transform="translate(83.83 190.8)"><tspan x="0" y="0">Transcription</tspan></text>
      <text class="cls-91" transform="translate(503.98 77.83)"><tspan x="0" y="0">cCRE-BC complexity</tspan><tspan x="0" y="25">Specificity</tspan></text>
      <text class="cls-91" transform="translate(227.16 191.05)"><tspan x="0" y="0">Filters</tspan></text>
      <text class="cls-91" transform="translate(333.3 64.53)"><tspan x="0" y="0">Filters</tspan></text>
      <text class="cls-91" transform="translate(419.74 64.53)"><tspan x="0" y="0">Counts</tspan></text>
      <text class="cls-91" transform="translate(83.83 139.95)"><tspan x="0" y="0">Delivery</tspan></text>
      <text class="cls-91" transform="translate(503.98 193.86)"><tspan x="0" y="0">DNA complexity</tspan><tspan x="0" y="22">RNA complexity</tspan><tspan x="0" y="44">Reproducibility</tspan><tspan x="0" y="66">Dynamic range</tspan><tspan x="0" y="88">Concordance with </tspan><tspan x="0" y="98">endogenous signals</tspan></text>
      <text class="cls-91" transform="translate(8.11 79.64)"><tspan x="0" y="0">cCRE sequence</tspan><tspan x="7.49" y="36">DNA source</tspan><tspan x="-1.1" y="72">Fragment length</tspan><tspan x="8" y="108">Library size</tspan><tspan x="10.46" y="144">Barcoding</tspan><tspan x="13.79" y="180">Controls</tspan><tspan x="12.45" y="216">Promoter</tspan></text>
    </g>
    <rect class="cls-102" x="431.91" y="92.15" width="15.62" height="41.81" transform="translate(326.67 552.78) rotate(-90)"/>
    <rect class="cls-84" x="307.9" y="249.5" width="27.9" height="70.25" transform="translate(37.23 606.48) rotate(-90)"/>
    <rect class="cls-95" x="336.48" y="197.59" width="24.63" height="100.99" transform="translate(697.6 496.17) rotate(180)"/>
  </g>
</svg>