<svg width="96" height="96" xmlns="http://www.w3.org/2000/svg" xmlns:xlink="http://www.w3.org/1999/xlink" xml:space="preserve" overflow="hidden"><g transform="translate(-1140 -251)"><path d="M1228 298C1228 294.7 1225.3 292 1222 292L1203 292C1201.4 292 1200.1 290.7 1200 289.1 1200.1 287.3 1203 283.7 1203 270 1203 266.7 1200.3 264 1197 264 1193.7 264 1191 266.7 1191 270 1191 285.2 1173.3 293.8 1173 294L1173 326C1180.1 326 1180.6 334 1194 334 1198.5 334 1212 334 1212 334 1215.3 334 1218 331.3 1218 328 1218 326.4 1217.4 325 1216.4 324 1216.6 324 1216.8 324 1217 324 1220.3 324 1223 321.3 1223 318 1223 316.4 1222.4 314.9 1221.3 313.8 1224 313.2 1226 310.8 1226 308 1226 306.3 1225.3 304.7 1224.1 303.6 1226.4 302.8 1228 300.6 1228 298Z" fill="#0C7E67"/><path d="M1163 289 1148 289 1148 331 1163 331C1165.2 331 1167 329.2 1167 327L1167 293C1167 290.8 1165.2 289 1163 289Z" fill="#0C7E67"/></g></svg>