<svg width="96" height="96" xmlns="http://www.w3.org/2000/svg" xmlns:xlink="http://www.w3.org/1999/xlink" xml:space="preserve" overflow="hidden"><g transform="translate(-1152 -514)"><path d="M1240 563C1239.99 566.31 1237.31 568.99 1234 569L1215 569C1213.39 569.028 1212.08 570.295 1212 571.9 1212.1 573.7 1215 577.3 1215 591 1215 594.314 1212.31 597 1209 597 1205.69 597 1203 594.314 1203 591 1203 575.8 1185.3 567.2 1185 567L1185 535C1192.1 535 1192.6 527 1206 527L1224 527C1227.31 527.01 1229.99 529.69 1230 533 1230.02 534.494 1229.45 535.934 1228.4 537L1229 537C1232.31 537.01 1234.99 539.69 1235 543 1235.01 544.57 1234.4 546.082 1233.3 547.2 1236.52 547.901 1238.56 551.08 1237.86 554.301 1237.61 555.49 1236.99 556.571 1236.1 557.4 1238.46 558.241 1240.03 560.492 1240 563Z" fill="#C25630"/><path d="M1175 572 1160 572 1160 530 1175 530C1177.21 530.007 1178.99 531.794 1179 534L1179 568C1178.99 570.206 1177.21 571.993 1175 572Z" fill="#C25630"/></g></svg>