<?xml version="1.0" encoding="utf-8" standalone="no"?>
<!DOCTYPE svg PUBLIC "-//W3C//DTD SVG 1.1//EN"
  "http://www.w3.org/Graphics/SVG/1.1/DTD/svg11.dtd">
<svg xmlns:xlink="http://www.w3.org/1999/xlink" width="423.99625pt" height="351.99625pt" viewBox="0 0 423.99625 351.99625" xmlns="http://www.w3.org/2000/svg" version="1.1">
 <metadata>
  <rdf:RDF xmlns:dc="http://purl.org/dc/elements/1.1/" xmlns:cc="http://creativecommons.org/ns#" xmlns:rdf="http://www.w3.org/1999/02/22-rdf-syntax-ns#">
   <cc:Work>
    <dc:type rdf:resource="http://purl.org/dc/dcmitype/StillImage"/>
    <dc:date>2026-01-04T15:50:41.480571</dc:date>
    <dc:format>image/svg+xml</dc:format>
    <dc:creator>
     <cc:Agent>
      <dc:title>Matplotlib v3.10.6, https://matplotlib.org/</dc:title>
     </cc:Agent>
    </dc:creator>
   </cc:Work>
  </rdf:RDF>
 </metadata>
 <defs>
  <style type="text/css">*{stroke-linejoin: round; stroke-linecap: butt}</style>
 </defs>
 <g id="figure_1">
  <g id="patch_1">
   <path d="M 0 351.99625 
L 423.99625 351.99625 
L 423.99625 0 
L 0 0 
L 0 351.99625 
z
" style="fill: none"/>
  </g>
  <g id="axes_1">
   <g id="patch_2">
    <path d="M 30.55625 321.44 
L 416.79625 321.44 
L 416.79625 7.2 
L 30.55625 7.2 
L 30.55625 321.44 
z
" style="fill: none"/>
   </g>
   <g id="PathCollection_1">
    <path d="M 399.239886 293.162244 
C 400.425911 293.162244 401.563518 292.691032 402.402164 291.852386 
C 403.24081 291.01374 403.712022 289.876133 403.712022 288.690108 
C 403.712022 287.504084 403.24081 286.366477 402.402164 285.527831 
C 401.563518 284.689185 400.425911 284.217973 399.239886 284.217973 
C 398.053862 284.217973 396.916255 284.689185 396.077609 285.527831 
C 395.238963 286.366477 394.76775 287.504084 394.76775 288.690108 
C 394.76775 289.876133 395.238963 291.01374 396.077609 291.852386 
C 396.916255 292.691032 398.053862 293.162244 399.239886 293.162244 
z
" clip-path="url(#pcb902e1fbe)" style="fill: #edd1cb; stroke: #ffffff; stroke-width: 0.715542"/>
    <path d="M 283.914367 311.6285 
C 285.100391 311.6285 286.237999 311.157287 287.076644 310.318641 
C 287.91529 309.479995 288.386503 308.342388 288.386503 307.156364 
C 288.386503 305.970339 287.91529 304.832732 287.076644 303.994086 
C 286.237999 303.15544 285.100391 302.684228 283.914367 302.684228 
C 282.728342 302.684228 281.590735 303.15544 280.752089 303.994086 
C 279.913443 304.832732 279.442231 305.970339 279.442231 307.156364 
C 279.442231 308.342388 279.913443 309.479995 280.752089 310.318641 
C 281.590735 311.157287 282.728342 311.6285 283.914367 311.6285 
z
" clip-path="url(#pcb902e1fbe)" style="fill: #edd1cb; stroke: #ffffff; stroke-width: 0.715542"/>
    <path d="M 274.062111 25.955772 
C 275.248136 25.955772 276.385743 25.48456 277.224389 24.645914 
C 278.063035 23.807268 278.534247 22.669661 278.534247 21.483636 
C 278.534247 20.297612 278.063035 19.160005 277.224389 18.321359 
C 276.385743 17.482713 275.248136 17.0115 274.062111 17.0115 
C 272.876087 17.0115 271.73848 17.482713 270.899834 18.321359 
C 270.061188 19.160005 269.589975 20.297612 269.589975 21.483636 
C 269.589975 22.669661 270.061188 23.807268 270.899834 24.645914 
C 271.73848 25.48456 272.876087 25.955772 274.062111 25.955772 
z
" clip-path="url(#pcb902e1fbe)" style="fill: #edd1cb; stroke: #ffffff; stroke-width: 0.715542"/>
    <path d="M 45.876546 245.410636 
L 48.112614 243.174568 
L 50.348682 245.410636 
L 52.58475 243.174568 
L 50.348682 240.9385 
L 52.58475 238.702432 
L 50.348682 236.466364 
L 48.112614 238.702432 
L 45.876546 236.466364 
L 43.640478 238.702432 
L 45.876546 240.9385 
L 43.640478 243.174568 
z
" clip-path="url(#pcb902e1fbe)" style="fill: #2d1e3e; stroke: #ffffff; stroke-width: 0.715542"/>
    <path d="M 61.883587 245.970639 
L 64.119655 243.734571 
L 66.355723 245.970639 
L 68.591791 243.734571 
L 66.355723 241.498503 
L 68.591791 239.262435 
L 66.355723 237.026367 
L 64.119655 239.262435 
L 61.883587 237.026367 
L 59.647519 239.262435 
L 61.883587 241.498503 
L 59.647519 243.734571 
z
" clip-path="url(#pcb902e1fbe)" style="fill: #2d1e3e; stroke: #ffffff; stroke-width: 0.715542"/>
    <path d="M 196.202782 239.854286 
L 198.43885 237.618218 
L 200.674918 239.854286 
L 202.910986 237.618218 
L 200.674918 235.38215 
L 202.910986 233.146082 
L 200.674918 230.910014 
L 198.43885 233.146082 
L 196.202782 230.910014 
L 193.966714 233.146082 
L 196.202782 235.38215 
L 193.966714 237.618218 
z
" clip-path="url(#pcb902e1fbe)" style="fill: #2d1e3e; stroke: #ffffff; stroke-width: 0.715542"/>
   </g>
   <g id="matplotlib.axis_1">
    <g id="text_1">
     <!-- PC1 (25.9%) -->
     <g transform="translate(154.735625 340.636875) scale(0.2 -0.2)">
      <defs>
       <path id="DejaVuSans-Bold-50" d="M 588 4666 
L 2584 4666 
Q 3475 4666 3951 4270 
Q 4428 3875 4428 3144 
Q 4428 2409 3951 2014 
Q 3475 1619 2584 1619 
L 1791 1619 
L 1791 0 
L 588 0 
L 588 4666 
z
M 1791 3794 
L 1791 2491 
L 2456 2491 
Q 2806 2491 2997 2661 
Q 3188 2831 3188 3144 
Q 3188 3456 2997 3625 
Q 2806 3794 2456 3794 
L 1791 3794 
z
" transform="scale(0.015625)"/>
       <path id="DejaVuSans-Bold-43" d="M 4288 256 
Q 3956 84 3597 -3 
Q 3238 -91 2847 -91 
Q 1681 -91 1000 561 
Q 319 1213 319 2328 
Q 319 3447 1000 4098 
Q 1681 4750 2847 4750 
Q 3238 4750 3597 4662 
Q 3956 4575 4288 4403 
L 4288 3438 
Q 3953 3666 3628 3772 
Q 3303 3878 2944 3878 
Q 2300 3878 1931 3465 
Q 1563 3053 1563 2328 
Q 1563 1606 1931 1193 
Q 2300 781 2944 781 
Q 3303 781 3628 887 
Q 3953 994 4288 1222 
L 4288 256 
z
" transform="scale(0.015625)"/>
       <path id="DejaVuSans-Bold-31" d="M 750 831 
L 1813 831 
L 1813 3847 
L 722 3622 
L 722 4441 
L 1806 4666 
L 2950 4666 
L 2950 831 
L 4013 831 
L 4013 0 
L 750 0 
L 750 831 
z
" transform="scale(0.015625)"/>
       <path id="DejaVuSans-Bold-20" transform="scale(0.015625)"/>
       <path id="DejaVuSans-Bold-28" d="M 2413 -844 
L 1484 -844 
Q 1006 -72 778 623 
Q 550 1319 550 2003 
Q 550 2688 779 3389 
Q 1009 4091 1484 4856 
L 2413 4856 
Q 2013 4116 1813 3408 
Q 1613 2700 1613 2009 
Q 1613 1319 1811 609 
Q 2009 -100 2413 -844 
z
" transform="scale(0.015625)"/>
       <path id="DejaVuSans-Bold-32" d="M 1844 884 
L 3897 884 
L 3897 0 
L 506 0 
L 506 884 
L 2209 2388 
Q 2438 2594 2547 2791 
Q 2656 2988 2656 3200 
Q 2656 3528 2436 3728 
Q 2216 3928 1850 3928 
Q 1569 3928 1234 3808 
Q 900 3688 519 3450 
L 519 4475 
Q 925 4609 1322 4679 
Q 1719 4750 2100 4750 
Q 2938 4750 3402 4381 
Q 3866 4013 3866 3353 
Q 3866 2972 3669 2642 
Q 3472 2313 2841 1759 
L 1844 884 
z
" transform="scale(0.015625)"/>
       <path id="DejaVuSans-Bold-35" d="M 678 4666 
L 3669 4666 
L 3669 3781 
L 1638 3781 
L 1638 3059 
Q 1775 3097 1914 3117 
Q 2053 3138 2203 3138 
Q 3056 3138 3531 2711 
Q 4006 2284 4006 1522 
Q 4006 766 3489 337 
Q 2972 -91 2053 -91 
Q 1656 -91 1267 -14 
Q 878 63 494 219 
L 494 1166 
Q 875 947 1217 837 
Q 1559 728 1863 728 
Q 2300 728 2551 942 
Q 2803 1156 2803 1522 
Q 2803 1891 2551 2103 
Q 2300 2316 1863 2316 
Q 1603 2316 1309 2248 
Q 1016 2181 678 2041 
L 678 4666 
z
" transform="scale(0.015625)"/>
       <path id="DejaVuSans-Bold-2e" d="M 653 1209 
L 1778 1209 
L 1778 0 
L 653 0 
L 653 1209 
z
" transform="scale(0.015625)"/>
       <path id="DejaVuSans-Bold-39" d="M 641 103 
L 641 966 
Q 928 831 1190 764 
Q 1453 697 1709 697 
Q 2247 697 2547 995 
Q 2847 1294 2900 1881 
Q 2688 1725 2447 1647 
Q 2206 1569 1925 1569 
Q 1209 1569 770 1986 
Q 331 2403 331 3084 
Q 331 3838 820 4291 
Q 1309 4744 2131 4744 
Q 3044 4744 3544 4128 
Q 4044 3513 4044 2388 
Q 4044 1231 3459 570 
Q 2875 -91 1856 -91 
Q 1528 -91 1228 -42 
Q 928 6 641 103 
z
M 2125 2350 
Q 2441 2350 2600 2554 
Q 2759 2759 2759 3169 
Q 2759 3575 2600 3781 
Q 2441 3988 2125 3988 
Q 1809 3988 1650 3781 
Q 1491 3575 1491 3169 
Q 1491 2759 1650 2554 
Q 1809 2350 2125 2350 
z
" transform="scale(0.015625)"/>
       <path id="DejaVuSans-Bold-25" d="M 4959 1925 
Q 4738 1925 4616 1733 
Q 4494 1541 4494 1184 
Q 4494 825 4614 633 
Q 4734 441 4959 441 
Q 5184 441 5303 633 
Q 5422 825 5422 1184 
Q 5422 1541 5301 1733 
Q 5181 1925 4959 1925 
z
M 4959 2450 
Q 5541 2450 5875 2112 
Q 6209 1775 6209 1184 
Q 6209 594 5875 251 
Q 5541 -91 4959 -91 
Q 4378 -91 4042 251 
Q 3706 594 3706 1184 
Q 3706 1772 4042 2111 
Q 4378 2450 4959 2450 
z
M 2094 -91 
L 1403 -91 
L 4319 4750 
L 5013 4750 
L 2094 -91 
z
M 1453 4750 
Q 2034 4750 2367 4411 
Q 2700 4072 2700 3481 
Q 2700 2891 2367 2550 
Q 2034 2209 1453 2209 
Q 872 2209 539 2550 
Q 206 2891 206 3481 
Q 206 4072 539 4411 
Q 872 4750 1453 4750 
z
M 1453 4225 
Q 1228 4225 1106 4031 
Q 984 3838 984 3481 
Q 984 3122 1106 2926 
Q 1228 2731 1453 2731 
Q 1678 2731 1798 2926 
Q 1919 3122 1919 3481 
Q 1919 3838 1797 4031 
Q 1675 4225 1453 4225 
z
" transform="scale(0.015625)"/>
       <path id="DejaVuSans-Bold-29" d="M 513 -844 
Q 913 -100 1113 609 
Q 1313 1319 1313 2009 
Q 1313 2700 1113 3408 
Q 913 4116 513 4856 
L 1441 4856 
Q 1916 4091 2145 3389 
Q 2375 2688 2375 2003 
Q 2375 1319 2147 623 
Q 1919 -72 1441 -844 
L 513 -844 
z
" transform="scale(0.015625)"/>
      </defs>
      <use xlink:href="#DejaVuSans-Bold-50"/>
      <use xlink:href="#DejaVuSans-Bold-43" transform="translate(73.291016 0)"/>
      <use xlink:href="#DejaVuSans-Bold-31" transform="translate(146.679688 0)"/>
      <use xlink:href="#DejaVuSans-Bold-20" transform="translate(216.259766 0)"/>
      <use xlink:href="#DejaVuSans-Bold-28" transform="translate(251.074219 0)"/>
      <use xlink:href="#DejaVuSans-Bold-32" transform="translate(296.777344 0)"/>
      <use xlink:href="#DejaVuSans-Bold-35" transform="translate(366.357422 0)"/>
      <use xlink:href="#DejaVuSans-Bold-2e" transform="translate(435.9375 0)"/>
      <use xlink:href="#DejaVuSans-Bold-39" transform="translate(473.925781 0)"/>
      <use xlink:href="#DejaVuSans-Bold-25" transform="translate(543.505859 0)"/>
      <use xlink:href="#DejaVuSans-Bold-29" transform="translate(643.701172 0)"/>
     </g>
    </g>
   </g>
   <g id="matplotlib.axis_2">
    <g id="text_2">
     <!-- PC2 (21.9%) -->
     <g transform="translate(22.396875 233.260625) rotate(-90) scale(0.2 -0.2)">
      <use xlink:href="#DejaVuSans-Bold-50"/>
      <use xlink:href="#DejaVuSans-Bold-43" transform="translate(73.291016 0)"/>
      <use xlink:href="#DejaVuSans-Bold-32" transform="translate(146.679688 0)"/>
      <use xlink:href="#DejaVuSans-Bold-20" transform="translate(216.259766 0)"/>
      <use xlink:href="#DejaVuSans-Bold-28" transform="translate(251.074219 0)"/>
      <use xlink:href="#DejaVuSans-Bold-32" transform="translate(296.777344 0)"/>
      <use xlink:href="#DejaVuSans-Bold-31" transform="translate(366.357422 0)"/>
      <use xlink:href="#DejaVuSans-Bold-2e" transform="translate(435.9375 0)"/>
      <use xlink:href="#DejaVuSans-Bold-39" transform="translate(473.925781 0)"/>
      <use xlink:href="#DejaVuSans-Bold-25" transform="translate(543.505859 0)"/>
      <use xlink:href="#DejaVuSans-Bold-29" transform="translate(643.701172 0)"/>
     </g>
    </g>
   </g>
   <g id="line2d_1"/>
   <g id="line2d_2"/>
   <g id="patch_3">
    <path d="M 30.55625 321.44 
L 30.55625 7.2 
" style="fill: none; stroke: #000000; stroke-linejoin: miter; stroke-linecap: square"/>
   </g>
   <g id="patch_4">
    <path d="M 30.55625 321.44 
L 416.79625 321.44 
" style="fill: none; stroke: #000000; stroke-linejoin: miter; stroke-linecap: square"/>
   </g>
   <g id="legend_1">
    <g id="patch_5">
     <path d="M 298.449063 100.861875 
L 404.19625 100.861875 
Q 407.79625 100.861875 407.79625 97.261875 
L 407.79625 19.8 
Q 407.79625 16.2 404.19625 16.2 
L 298.449063 16.2 
Q 294.849063 16.2 294.849063 19.8 
L 294.849063 97.261875 
Q 294.849063 100.861875 298.449063 100.861875 
L 298.449063 100.861875 
z
" style="fill: none; opacity: 0.8; stroke: #cccccc; stroke-linejoin: miter"/>
    </g>
    <g id="text_3">
     <!-- Cell type -->
     <g transform="translate(311.532812 37.077187) scale(0.18 -0.18)">
      <defs>
       <path id="DejaVuSans-43" d="M 4122 4306 
L 4122 3641 
Q 3803 3938 3442 4084 
Q 3081 4231 2675 4231 
Q 1875 4231 1450 3742 
Q 1025 3253 1025 2328 
Q 1025 1406 1450 917 
Q 1875 428 2675 428 
Q 3081 428 3442 575 
Q 3803 722 4122 1019 
L 4122 359 
Q 3791 134 3420 21 
Q 3050 -91 2638 -91 
Q 1578 -91 968 557 
Q 359 1206 359 2328 
Q 359 3453 968 4101 
Q 1578 4750 2638 4750 
Q 3056 4750 3426 4639 
Q 3797 4528 4122 4306 
z
" transform="scale(0.015625)"/>
       <path id="DejaVuSans-65" d="M 3597 1894 
L 3597 1613 
L 953 1613 
Q 991 1019 1311 708 
Q 1631 397 2203 397 
Q 2534 397 2845 478 
Q 3156 559 3463 722 
L 3463 178 
Q 3153 47 2828 -22 
Q 2503 -91 2169 -91 
Q 1331 -91 842 396 
Q 353 884 353 1716 
Q 353 2575 817 3079 
Q 1281 3584 2069 3584 
Q 2775 3584 3186 3129 
Q 3597 2675 3597 1894 
z
M 3022 2063 
Q 3016 2534 2758 2815 
Q 2500 3097 2075 3097 
Q 1594 3097 1305 2825 
Q 1016 2553 972 2059 
L 3022 2063 
z
" transform="scale(0.015625)"/>
       <path id="DejaVuSans-6c" d="M 603 4863 
L 1178 4863 
L 1178 0 
L 603 0 
L 603 4863 
z
" transform="scale(0.015625)"/>
       <path id="DejaVuSans-20" transform="scale(0.015625)"/>
       <path id="DejaVuSans-74" d="M 1172 4494 
L 1172 3500 
L 2356 3500 
L 2356 3053 
L 1172 3053 
L 1172 1153 
Q 1172 725 1289 603 
Q 1406 481 1766 481 
L 2356 481 
L 2356 0 
L 1766 0 
Q 1100 0 847 248 
Q 594 497 594 1153 
L 594 3053 
L 172 3053 
L 172 3500 
L 594 3500 
L 594 4494 
L 1172 4494 
z
" transform="scale(0.015625)"/>
       <path id="DejaVuSans-79" d="M 2059 -325 
Q 1816 -950 1584 -1140 
Q 1353 -1331 966 -1331 
L 506 -1331 
L 506 -850 
L 844 -850 
Q 1081 -850 1212 -737 
Q 1344 -625 1503 -206 
L 1606 56 
L 191 3500 
L 800 3500 
L 1894 763 
L 2988 3500 
L 3597 3500 
L 2059 -325 
z
" transform="scale(0.015625)"/>
       <path id="DejaVuSans-70" d="M 1159 525 
L 1159 -1331 
L 581 -1331 
L 581 3500 
L 1159 3500 
L 1159 2969 
Q 1341 3281 1617 3432 
Q 1894 3584 2278 3584 
Q 2916 3584 3314 3078 
Q 3713 2572 3713 1747 
Q 3713 922 3314 415 
Q 2916 -91 2278 -91 
Q 1894 -91 1617 61 
Q 1341 213 1159 525 
z
M 3116 1747 
Q 3116 2381 2855 2742 
Q 2594 3103 2138 3103 
Q 1681 3103 1420 2742 
Q 1159 2381 1159 1747 
Q 1159 1113 1420 752 
Q 1681 391 2138 391 
Q 2594 391 2855 752 
Q 3116 1113 3116 1747 
z
" transform="scale(0.015625)"/>
      </defs>
      <use xlink:href="#DejaVuSans-43"/>
      <use xlink:href="#DejaVuSans-65" transform="translate(69.824219 0)"/>
      <use xlink:href="#DejaVuSans-6c" transform="translate(131.347656 0)"/>
      <use xlink:href="#DejaVuSans-6c" transform="translate(159.130859 0)"/>
      <use xlink:href="#DejaVuSans-20" transform="translate(186.914062 0)"/>
      <use xlink:href="#DejaVuSans-74" transform="translate(218.701172 0)"/>
      <use xlink:href="#DejaVuSans-79" transform="translate(257.910156 0)"/>
      <use xlink:href="#DejaVuSans-70" transform="translate(317.089844 0)"/>
      <use xlink:href="#DejaVuSans-65" transform="translate(380.566406 0)"/>
     </g>
    </g>
    <g id="line2d_3">
     <defs>
      <path id="mcaa6708859" d="M 0 4.472136 
C 1.186024 4.472136 2.323632 4.000923 3.162278 3.162278 
C 4.000923 2.323632 4.472136 1.186024 4.472136 0 
C 4.472136 -1.186024 4.000923 -2.323632 3.162278 -3.162278 
C 2.323632 -4.000923 1.186024 -4.472136 0 -4.472136 
C -1.186024 -4.472136 -2.323632 -4.000923 -3.162278 -3.162278 
C -4.000923 -2.323632 -4.472136 -1.186024 -4.472136 0 
C -4.472136 1.186024 -4.000923 2.323632 -3.162278 3.162278 
C -2.323632 4.000923 -1.186024 4.472136 0 4.472136 
z
" style="stroke: #ffffff; stroke-width: 0.715542"/>
     </defs>
     <g>
      <use xlink:href="#mcaa6708859" x="320.049062" y="57.197812" style="fill: #edd1cb; stroke: #ffffff; stroke-width: 0.715542"/>
     </g>
    </g>
    <g id="text_4">
     <!-- cell 1 -->
     <g transform="translate(352.449062 63.497812) scale(0.18 -0.18)">
      <defs>
       <path id="DejaVuSans-63" d="M 3122 3366 
L 3122 2828 
Q 2878 2963 2633 3030 
Q 2388 3097 2138 3097 
Q 1578 3097 1268 2742 
Q 959 2388 959 1747 
Q 959 1106 1268 751 
Q 1578 397 2138 397 
Q 2388 397 2633 464 
Q 2878 531 3122 666 
L 3122 134 
Q 2881 22 2623 -34 
Q 2366 -91 2075 -91 
Q 1284 -91 818 406 
Q 353 903 353 1747 
Q 353 2603 823 3093 
Q 1294 3584 2113 3584 
Q 2378 3584 2631 3529 
Q 2884 3475 3122 3366 
z
" transform="scale(0.015625)"/>
       <path id="DejaVuSans-31" d="M 794 531 
L 1825 531 
L 1825 4091 
L 703 3866 
L 703 4441 
L 1819 4666 
L 2450 4666 
L 2450 531 
L 3481 531 
L 3481 0 
L 794 0 
L 794 531 
z
" transform="scale(0.015625)"/>
      </defs>
      <use xlink:href="#DejaVuSans-63"/>
      <use xlink:href="#DejaVuSans-65" transform="translate(54.980469 0)"/>
      <use xlink:href="#DejaVuSans-6c" transform="translate(116.503906 0)"/>
      <use xlink:href="#DejaVuSans-6c" transform="translate(144.287109 0)"/>
      <use xlink:href="#DejaVuSans-20" transform="translate(172.070312 0)"/>
      <use xlink:href="#DejaVuSans-31" transform="translate(203.857422 0)"/>
     </g>
    </g>
    <g id="line2d_4">
     <defs>
      <path id="mad9c180f97" d="M -2.236068 4.472136 
L 0 2.236068 
L 2.236068 4.472136 
L 4.472136 2.236068 
L 2.236068 0 
L 4.472136 -2.236068 
L 2.236068 -4.472136 
L 0 -2.236068 
L -2.236068 -4.472136 
L -4.472136 -2.236068 
L -2.236068 0 
L -4.472136 2.236068 
z
" style="stroke: #ffffff; stroke-width: 0.715542; stroke-linejoin: miter"/>
     </defs>
     <g>
      <use xlink:href="#mad9c180f97" x="320.049062" y="83.618437" style="fill: #2d1e3e; stroke: #ffffff; stroke-width: 0.715542; stroke-linejoin: miter"/>
     </g>
    </g>
    <g id="text_5">
     <!-- cell 2 -->
     <g transform="translate(352.449062 89.918437) scale(0.18 -0.18)">
      <defs>
       <path id="DejaVuSans-32" d="M 1228 531 
L 3431 531 
L 3431 0 
L 469 0 
L 469 531 
Q 828 903 1448 1529 
Q 2069 2156 2228 2338 
Q 2531 2678 2651 2914 
Q 2772 3150 2772 3378 
Q 2772 3750 2511 3984 
Q 2250 4219 1831 4219 
Q 1534 4219 1204 4116 
Q 875 4013 500 3803 
L 500 4441 
Q 881 4594 1212 4672 
Q 1544 4750 1819 4750 
Q 2544 4750 2975 4387 
Q 3406 4025 3406 3419 
Q 3406 3131 3298 2873 
Q 3191 2616 2906 2266 
Q 2828 2175 2409 1742 
Q 1991 1309 1228 531 
z
" transform="scale(0.015625)"/>
      </defs>
      <use xlink:href="#DejaVuSans-63"/>
      <use xlink:href="#DejaVuSans-65" transform="translate(54.980469 0)"/>
      <use xlink:href="#DejaVuSans-6c" transform="translate(116.503906 0)"/>
      <use xlink:href="#DejaVuSans-6c" transform="translate(144.287109 0)"/>
      <use xlink:href="#DejaVuSans-20" transform="translate(172.070312 0)"/>
      <use xlink:href="#DejaVuSans-32" transform="translate(203.857422 0)"/>
     </g>
    </g>
   </g>
  </g>
 </g>
 <defs>
  <clipPath id="pcb902e1fbe">
   <rect x="30.55625" y="7.2" width="386.24" height="314.24"/>
  </clipPath>
 </defs>
</svg>
