<?xml version="1.0" encoding="utf-8" standalone="no"?>
<!DOCTYPE svg PUBLIC "-//W3C//DTD SVG 1.1//EN"
  "http://www.w3.org/Graphics/SVG/1.1/DTD/svg11.dtd">
<svg xmlns:xlink="http://www.w3.org/1999/xlink" width="641.914375pt" height="505.696875pt" viewBox="0 0 641.914375 505.696875" xmlns="http://www.w3.org/2000/svg" version="1.1">
 <metadata>
  <rdf:RDF xmlns:dc="http://purl.org/dc/elements/1.1/" xmlns:cc="http://creativecommons.org/ns#" xmlns:rdf="http://www.w3.org/1999/02/22-rdf-syntax-ns#">
   <cc:Work>
    <dc:type rdf:resource="http://purl.org/dc/dcmitype/StillImage"/>
    <dc:date>2025-12-17T14:06:24.594413</dc:date>
    <dc:format>image/svg+xml</dc:format>
    <dc:creator>
     <cc:Agent>
      <dc:title>Matplotlib v3.10.6, https://matplotlib.org/</dc:title>
     </cc:Agent>
    </dc:creator>
   </cc:Work>
  </rdf:RDF>
 </metadata>
 <defs>
  <style type="text/css">*{stroke-linejoin: round; stroke-linecap: butt}</style>
 </defs>
 <g id="figure_1">
  <g id="patch_1">
   <path d="M 0 505.696875 
L 641.914375 505.696875 
L 641.914375 0 
L 0 0 
L 0 505.696875 
z
" style="fill: none"/>
  </g>
  <g id="axes_1">
   <g id="patch_2">
    <path d="M 112.148125 450.72 
L 558.548125 450.72 
L 558.548125 7.2 
L 112.148125 7.2 
L 112.148125 450.72 
z
" style="fill: none"/>
   </g>
   <g id="matplotlib.axis_1">
    <g id="xtick_1">
     <g id="line2d_1">
      <defs>
       <path id="ma77880e9c0" d="M 0 0 
L 0 3.5 
" style="stroke: #000000; stroke-width: 0.8"/>
      </defs>
      <g>
       <use xlink:href="#ma77880e9c0" x="142.979766" y="450.72" style="stroke: #000000; stroke-width: 0.8"/>
      </g>
     </g>
     <g id="text_1">
      <!-- 1 -->
      <g transform="translate(137.253516 471.397187) scale(0.18 -0.18)">
       <defs>
        <path id="DejaVuSans-31" d="M 794 531 
L 1825 531 
L 1825 4091 
L 703 3866 
L 703 4441 
L 1819 4666 
L 2450 4666 
L 2450 531 
L 3481 531 
L 3481 0 
L 794 0 
L 794 531 
z
" transform="scale(0.015625)"/>
       </defs>
       <use xlink:href="#DejaVuSans-31"/>
      </g>
     </g>
    </g>
    <g id="xtick_2">
     <g id="line2d_2">
      <g>
       <use xlink:href="#ma77880e9c0" x="169.331596" y="450.72" style="stroke: #000000; stroke-width: 0.8"/>
      </g>
     </g>
     <g id="text_2">
      <!-- 2 -->
      <g transform="translate(163.605346 471.397187) scale(0.18 -0.18)">
       <defs>
        <path id="DejaVuSans-32" d="M 1228 531 
L 3431 531 
L 3431 0 
L 469 0 
L 469 531 
Q 828 903 1448 1529 
Q 2069 2156 2228 2338 
Q 2531 2678 2651 2914 
Q 2772 3150 2772 3378 
Q 2772 3750 2511 3984 
Q 2250 4219 1831 4219 
Q 1534 4219 1204 4116 
Q 875 4013 500 3803 
L 500 4441 
Q 881 4594 1212 4672 
Q 1544 4750 1819 4750 
Q 2544 4750 2975 4387 
Q 3406 4025 3406 3419 
Q 3406 3131 3298 2873 
Q 3191 2616 2906 2266 
Q 2828 2175 2409 1742 
Q 1991 1309 1228 531 
z
" transform="scale(0.015625)"/>
       </defs>
       <use xlink:href="#DejaVuSans-32"/>
      </g>
     </g>
    </g>
    <g id="xtick_3">
     <g id="line2d_3">
      <g>
       <use xlink:href="#ma77880e9c0" x="195.683426" y="450.72" style="stroke: #000000; stroke-width: 0.8"/>
      </g>
     </g>
     <g id="text_3">
      <!-- 3 -->
      <g transform="translate(189.957176 471.397187) scale(0.18 -0.18)">
       <defs>
        <path id="DejaVuSans-33" d="M 2597 2516 
Q 3050 2419 3304 2112 
Q 3559 1806 3559 1356 
Q 3559 666 3084 287 
Q 2609 -91 1734 -91 
Q 1441 -91 1130 -33 
Q 819 25 488 141 
L 488 750 
Q 750 597 1062 519 
Q 1375 441 1716 441 
Q 2309 441 2620 675 
Q 2931 909 2931 1356 
Q 2931 1769 2642 2001 
Q 2353 2234 1838 2234 
L 1294 2234 
L 1294 2753 
L 1863 2753 
Q 2328 2753 2575 2939 
Q 2822 3125 2822 3475 
Q 2822 3834 2567 4026 
Q 2313 4219 1838 4219 
Q 1578 4219 1281 4162 
Q 984 4106 628 3988 
L 628 4550 
Q 988 4650 1302 4700 
Q 1616 4750 1894 4750 
Q 2613 4750 3031 4423 
Q 3450 4097 3450 3541 
Q 3450 3153 3228 2886 
Q 3006 2619 2597 2516 
z
" transform="scale(0.015625)"/>
       </defs>
       <use xlink:href="#DejaVuSans-33"/>
      </g>
     </g>
    </g>
    <g id="xtick_4">
     <g id="line2d_4">
      <g>
       <use xlink:href="#ma77880e9c0" x="222.035256" y="450.72" style="stroke: #000000; stroke-width: 0.8"/>
      </g>
     </g>
     <g id="text_4">
      <!-- 4 -->
      <g transform="translate(216.309006 471.397187) scale(0.18 -0.18)">
       <defs>
        <path id="DejaVuSans-34" d="M 2419 4116 
L 825 1625 
L 2419 1625 
L 2419 4116 
z
M 2253 4666 
L 3047 4666 
L 3047 1625 
L 3713 1625 
L 3713 1100 
L 3047 1100 
L 3047 0 
L 2419 0 
L 2419 1100 
L 313 1100 
L 313 1709 
L 2253 4666 
z
" transform="scale(0.015625)"/>
       </defs>
       <use xlink:href="#DejaVuSans-34"/>
      </g>
     </g>
    </g>
    <g id="xtick_5">
     <g id="line2d_5">
      <g>
       <use xlink:href="#ma77880e9c0" x="248.387086" y="450.72" style="stroke: #000000; stroke-width: 0.8"/>
      </g>
     </g>
     <g id="text_5">
      <!-- 5 -->
      <g transform="translate(242.660836 471.397187) scale(0.18 -0.18)">
       <defs>
        <path id="DejaVuSans-35" d="M 691 4666 
L 3169 4666 
L 3169 4134 
L 1269 4134 
L 1269 2991 
Q 1406 3038 1543 3061 
Q 1681 3084 1819 3084 
Q 2600 3084 3056 2656 
Q 3513 2228 3513 1497 
Q 3513 744 3044 326 
Q 2575 -91 1722 -91 
Q 1428 -91 1123 -41 
Q 819 9 494 109 
L 494 744 
Q 775 591 1075 516 
Q 1375 441 1709 441 
Q 2250 441 2565 725 
Q 2881 1009 2881 1497 
Q 2881 1984 2565 2268 
Q 2250 2553 1709 2553 
Q 1456 2553 1204 2497 
Q 953 2441 691 2322 
L 691 4666 
z
" transform="scale(0.015625)"/>
       </defs>
       <use xlink:href="#DejaVuSans-35"/>
      </g>
     </g>
    </g>
    <g id="xtick_6">
     <g id="line2d_6">
      <g>
       <use xlink:href="#ma77880e9c0" x="274.738916" y="450.72" style="stroke: #000000; stroke-width: 0.8"/>
      </g>
     </g>
     <g id="text_6">
      <!-- 6 -->
      <g transform="translate(269.012666 471.397187) scale(0.18 -0.18)">
       <defs>
        <path id="DejaVuSans-36" d="M 2113 2584 
Q 1688 2584 1439 2293 
Q 1191 2003 1191 1497 
Q 1191 994 1439 701 
Q 1688 409 2113 409 
Q 2538 409 2786 701 
Q 3034 994 3034 1497 
Q 3034 2003 2786 2293 
Q 2538 2584 2113 2584 
z
M 3366 4563 
L 3366 3988 
Q 3128 4100 2886 4159 
Q 2644 4219 2406 4219 
Q 1781 4219 1451 3797 
Q 1122 3375 1075 2522 
Q 1259 2794 1537 2939 
Q 1816 3084 2150 3084 
Q 2853 3084 3261 2657 
Q 3669 2231 3669 1497 
Q 3669 778 3244 343 
Q 2819 -91 2113 -91 
Q 1303 -91 875 529 
Q 447 1150 447 2328 
Q 447 3434 972 4092 
Q 1497 4750 2381 4750 
Q 2619 4750 2861 4703 
Q 3103 4656 3366 4563 
z
" transform="scale(0.015625)"/>
       </defs>
       <use xlink:href="#DejaVuSans-36"/>
      </g>
     </g>
    </g>
    <g id="xtick_7">
     <g id="line2d_7">
      <g>
       <use xlink:href="#ma77880e9c0" x="301.090746" y="450.72" style="stroke: #000000; stroke-width: 0.8"/>
      </g>
     </g>
     <g id="text_7">
      <!-- 7 -->
      <g transform="translate(295.364496 471.397187) scale(0.18 -0.18)">
       <defs>
        <path id="DejaVuSans-37" d="M 525 4666 
L 3525 4666 
L 3525 4397 
L 1831 0 
L 1172 0 
L 2766 4134 
L 525 4134 
L 525 4666 
z
" transform="scale(0.015625)"/>
       </defs>
       <use xlink:href="#DejaVuSans-37"/>
      </g>
     </g>
    </g>
    <g id="xtick_8">
     <g id="line2d_8">
      <g>
       <use xlink:href="#ma77880e9c0" x="327.442576" y="450.72" style="stroke: #000000; stroke-width: 0.8"/>
      </g>
     </g>
     <g id="text_8">
      <!-- 8 -->
      <g transform="translate(321.716326 471.397187) scale(0.18 -0.18)">
       <defs>
        <path id="DejaVuSans-38" d="M 2034 2216 
Q 1584 2216 1326 1975 
Q 1069 1734 1069 1313 
Q 1069 891 1326 650 
Q 1584 409 2034 409 
Q 2484 409 2743 651 
Q 3003 894 3003 1313 
Q 3003 1734 2745 1975 
Q 2488 2216 2034 2216 
z
M 1403 2484 
Q 997 2584 770 2862 
Q 544 3141 544 3541 
Q 544 4100 942 4425 
Q 1341 4750 2034 4750 
Q 2731 4750 3128 4425 
Q 3525 4100 3525 3541 
Q 3525 3141 3298 2862 
Q 3072 2584 2669 2484 
Q 3125 2378 3379 2068 
Q 3634 1759 3634 1313 
Q 3634 634 3220 271 
Q 2806 -91 2034 -91 
Q 1263 -91 848 271 
Q 434 634 434 1313 
Q 434 1759 690 2068 
Q 947 2378 1403 2484 
z
M 1172 3481 
Q 1172 3119 1398 2916 
Q 1625 2713 2034 2713 
Q 2441 2713 2670 2916 
Q 2900 3119 2900 3481 
Q 2900 3844 2670 4047 
Q 2441 4250 2034 4250 
Q 1625 4250 1398 4047 
Q 1172 3844 1172 3481 
z
" transform="scale(0.015625)"/>
       </defs>
       <use xlink:href="#DejaVuSans-38"/>
      </g>
     </g>
    </g>
    <g id="xtick_9">
     <g id="line2d_9">
      <g>
       <use xlink:href="#ma77880e9c0" x="353.794406" y="450.72" style="stroke: #000000; stroke-width: 0.8"/>
      </g>
     </g>
     <g id="text_9">
      <!-- 9 -->
      <g transform="translate(348.068156 471.397187) scale(0.18 -0.18)">
       <defs>
        <path id="DejaVuSans-39" d="M 703 97 
L 703 672 
Q 941 559 1184 500 
Q 1428 441 1663 441 
Q 2288 441 2617 861 
Q 2947 1281 2994 2138 
Q 2813 1869 2534 1725 
Q 2256 1581 1919 1581 
Q 1219 1581 811 2004 
Q 403 2428 403 3163 
Q 403 3881 828 4315 
Q 1253 4750 1959 4750 
Q 2769 4750 3195 4129 
Q 3622 3509 3622 2328 
Q 3622 1225 3098 567 
Q 2575 -91 1691 -91 
Q 1453 -91 1209 -44 
Q 966 3 703 97 
z
M 1959 2075 
Q 2384 2075 2632 2365 
Q 2881 2656 2881 3163 
Q 2881 3666 2632 3958 
Q 2384 4250 1959 4250 
Q 1534 4250 1286 3958 
Q 1038 3666 1038 3163 
Q 1038 2656 1286 2365 
Q 1534 2075 1959 2075 
z
" transform="scale(0.015625)"/>
       </defs>
       <use xlink:href="#DejaVuSans-39"/>
      </g>
     </g>
    </g>
    <g id="xtick_10">
     <g id="line2d_10">
      <g>
       <use xlink:href="#ma77880e9c0" x="380.146236" y="450.72" style="stroke: #000000; stroke-width: 0.8"/>
      </g>
     </g>
     <g id="text_10">
      <!-- 10 -->
      <g transform="translate(368.693736 471.397187) scale(0.18 -0.18)">
       <defs>
        <path id="DejaVuSans-30" d="M 2034 4250 
Q 1547 4250 1301 3770 
Q 1056 3291 1056 2328 
Q 1056 1369 1301 889 
Q 1547 409 2034 409 
Q 2525 409 2770 889 
Q 3016 1369 3016 2328 
Q 3016 3291 2770 3770 
Q 2525 4250 2034 4250 
z
M 2034 4750 
Q 2819 4750 3233 4129 
Q 3647 3509 3647 2328 
Q 3647 1150 3233 529 
Q 2819 -91 2034 -91 
Q 1250 -91 836 529 
Q 422 1150 422 2328 
Q 422 3509 836 4129 
Q 1250 4750 2034 4750 
z
" transform="scale(0.015625)"/>
       </defs>
       <use xlink:href="#DejaVuSans-31"/>
       <use xlink:href="#DejaVuSans-30" transform="translate(63.623047 0)"/>
      </g>
     </g>
    </g>
    <g id="xtick_11">
     <g id="line2d_11">
      <g>
       <use xlink:href="#ma77880e9c0" x="406.498066" y="450.72" style="stroke: #000000; stroke-width: 0.8"/>
      </g>
     </g>
     <g id="text_11">
      <!-- 11 -->
      <g transform="translate(395.045566 471.397187) scale(0.18 -0.18)">
       <use xlink:href="#DejaVuSans-31"/>
       <use xlink:href="#DejaVuSans-31" transform="translate(63.623047 0)"/>
      </g>
     </g>
    </g>
    <g id="xtick_12">
     <g id="line2d_12">
      <g>
       <use xlink:href="#ma77880e9c0" x="432.849896" y="450.72" style="stroke: #000000; stroke-width: 0.8"/>
      </g>
     </g>
     <g id="text_12">
      <!-- 12 -->
      <g transform="translate(421.397396 471.397187) scale(0.18 -0.18)">
       <use xlink:href="#DejaVuSans-31"/>
       <use xlink:href="#DejaVuSans-32" transform="translate(63.623047 0)"/>
      </g>
     </g>
    </g>
    <g id="xtick_13">
     <g id="line2d_13">
      <g>
       <use xlink:href="#ma77880e9c0" x="459.201726" y="450.72" style="stroke: #000000; stroke-width: 0.8"/>
      </g>
     </g>
     <g id="text_13">
      <!-- 13 -->
      <g transform="translate(447.749226 471.397187) scale(0.18 -0.18)">
       <use xlink:href="#DejaVuSans-31"/>
       <use xlink:href="#DejaVuSans-33" transform="translate(63.623047 0)"/>
      </g>
     </g>
    </g>
    <g id="xtick_14">
     <g id="line2d_14">
      <g>
       <use xlink:href="#ma77880e9c0" x="485.553556" y="450.72" style="stroke: #000000; stroke-width: 0.8"/>
      </g>
     </g>
     <g id="text_14">
      <!-- 14 -->
      <g transform="translate(474.101056 471.397187) scale(0.18 -0.18)">
       <use xlink:href="#DejaVuSans-31"/>
       <use xlink:href="#DejaVuSans-34" transform="translate(63.623047 0)"/>
      </g>
     </g>
    </g>
    <g id="xtick_15">
     <g id="line2d_15">
      <g>
       <use xlink:href="#ma77880e9c0" x="511.905386" y="450.72" style="stroke: #000000; stroke-width: 0.8"/>
      </g>
     </g>
     <g id="text_15">
      <!-- 15 -->
      <g transform="translate(500.452886 471.397187) scale(0.18 -0.18)">
       <use xlink:href="#DejaVuSans-31"/>
       <use xlink:href="#DejaVuSans-35" transform="translate(63.623047 0)"/>
      </g>
     </g>
    </g>
    <g id="text_16">
     <!-- G stretch -->
     <g transform="translate(283.387188 494.3375) scale(0.2 -0.2)">
      <defs>
       <path id="DejaVuSans-Bold-47" d="M 4781 347 
Q 4331 128 3847 18 
Q 3363 -91 2847 -91 
Q 1681 -91 1000 561 
Q 319 1213 319 2328 
Q 319 3456 1012 4103 
Q 1706 4750 2913 4750 
Q 3378 4750 3804 4662 
Q 4231 4575 4609 4403 
L 4609 3438 
Q 4219 3659 3833 3768 
Q 3447 3878 3059 3878 
Q 2341 3878 1952 3476 
Q 1563 3075 1563 2328 
Q 1563 1588 1938 1184 
Q 2313 781 3003 781 
Q 3191 781 3352 804 
Q 3513 828 3641 878 
L 3641 1784 
L 2906 1784 
L 2906 2591 
L 4781 2591 
L 4781 347 
z
" transform="scale(0.015625)"/>
       <path id="DejaVuSans-Bold-20" transform="scale(0.015625)"/>
       <path id="DejaVuSans-Bold-73" d="M 3272 3391 
L 3272 2541 
Q 2913 2691 2578 2766 
Q 2244 2841 1947 2841 
Q 1628 2841 1473 2761 
Q 1319 2681 1319 2516 
Q 1319 2381 1436 2309 
Q 1553 2238 1856 2203 
L 2053 2175 
Q 2913 2066 3209 1816 
Q 3506 1566 3506 1031 
Q 3506 472 3093 190 
Q 2681 -91 1863 -91 
Q 1516 -91 1145 -36 
Q 775 19 384 128 
L 384 978 
Q 719 816 1070 734 
Q 1422 653 1784 653 
Q 2113 653 2278 743 
Q 2444 834 2444 1013 
Q 2444 1163 2330 1236 
Q 2216 1309 1875 1350 
L 1678 1375 
Q 931 1469 631 1722 
Q 331 1975 331 2491 
Q 331 3047 712 3315 
Q 1094 3584 1881 3584 
Q 2191 3584 2531 3537 
Q 2872 3491 3272 3391 
z
" transform="scale(0.015625)"/>
       <path id="DejaVuSans-Bold-74" d="M 1759 4494 
L 1759 3500 
L 2913 3500 
L 2913 2700 
L 1759 2700 
L 1759 1216 
Q 1759 972 1856 886 
Q 1953 800 2241 800 
L 2816 800 
L 2816 0 
L 1856 0 
Q 1194 0 917 276 
Q 641 553 641 1216 
L 641 2700 
L 84 2700 
L 84 3500 
L 641 3500 
L 641 4494 
L 1759 4494 
z
" transform="scale(0.015625)"/>
       <path id="DejaVuSans-Bold-72" d="M 3138 2547 
Q 2991 2616 2845 2648 
Q 2700 2681 2553 2681 
Q 2122 2681 1889 2404 
Q 1656 2128 1656 1613 
L 1656 0 
L 538 0 
L 538 3500 
L 1656 3500 
L 1656 2925 
Q 1872 3269 2151 3426 
Q 2431 3584 2822 3584 
Q 2878 3584 2943 3579 
Q 3009 3575 3134 3559 
L 3138 2547 
z
" transform="scale(0.015625)"/>
       <path id="DejaVuSans-Bold-65" d="M 4031 1759 
L 4031 1441 
L 1416 1441 
Q 1456 1047 1700 850 
Q 1944 653 2381 653 
Q 2734 653 3104 758 
Q 3475 863 3866 1075 
L 3866 213 
Q 3469 63 3072 -14 
Q 2675 -91 2278 -91 
Q 1328 -91 801 392 
Q 275 875 275 1747 
Q 275 2603 792 3093 
Q 1309 3584 2216 3584 
Q 3041 3584 3536 3087 
Q 4031 2591 4031 1759 
z
M 2881 2131 
Q 2881 2450 2695 2645 
Q 2509 2841 2209 2841 
Q 1884 2841 1681 2658 
Q 1478 2475 1428 2131 
L 2881 2131 
z
" transform="scale(0.015625)"/>
       <path id="DejaVuSans-Bold-63" d="M 3366 3391 
L 3366 2478 
Q 3138 2634 2908 2709 
Q 2678 2784 2431 2784 
Q 1963 2784 1702 2511 
Q 1441 2238 1441 1747 
Q 1441 1256 1702 982 
Q 1963 709 2431 709 
Q 2694 709 2930 787 
Q 3166 866 3366 1019 
L 3366 103 
Q 3103 6 2833 -42 
Q 2563 -91 2291 -91 
Q 1344 -91 809 395 
Q 275 881 275 1747 
Q 275 2613 809 3098 
Q 1344 3584 2291 3584 
Q 2566 3584 2833 3536 
Q 3100 3488 3366 3391 
z
" transform="scale(0.015625)"/>
       <path id="DejaVuSans-Bold-68" d="M 4056 2131 
L 4056 0 
L 2931 0 
L 2931 347 
L 2931 1625 
Q 2931 2084 2911 2256 
Q 2891 2428 2841 2509 
Q 2775 2619 2662 2680 
Q 2550 2741 2406 2741 
Q 2056 2741 1856 2470 
Q 1656 2200 1656 1722 
L 1656 0 
L 538 0 
L 538 4863 
L 1656 4863 
L 1656 2988 
Q 1909 3294 2193 3439 
Q 2478 3584 2822 3584 
Q 3428 3584 3742 3212 
Q 4056 2841 4056 2131 
z
" transform="scale(0.015625)"/>
      </defs>
      <use xlink:href="#DejaVuSans-Bold-47"/>
      <use xlink:href="#DejaVuSans-Bold-20" transform="translate(82.080078 0)"/>
      <use xlink:href="#DejaVuSans-Bold-73" transform="translate(116.894531 0)"/>
      <use xlink:href="#DejaVuSans-Bold-74" transform="translate(176.416016 0)"/>
      <use xlink:href="#DejaVuSans-Bold-72" transform="translate(224.21875 0)"/>
      <use xlink:href="#DejaVuSans-Bold-65" transform="translate(273.535156 0)"/>
      <use xlink:href="#DejaVuSans-Bold-74" transform="translate(341.357422 0)"/>
      <use xlink:href="#DejaVuSans-Bold-63" transform="translate(389.160156 0)"/>
      <use xlink:href="#DejaVuSans-Bold-68" transform="translate(448.4375 0)"/>
     </g>
    </g>
   </g>
   <g id="matplotlib.axis_2">
    <g id="ytick_1">
     <g id="line2d_16">
      <defs>
       <path id="ma341d8ea44" d="M 0 0 
L -3.5 0 
" style="stroke: #ffc25f; stroke-width: 0.8"/>
      </defs>
      <g>
       <use xlink:href="#ma341d8ea44" x="112.148125" y="430.56" style="fill: #ffc25f; stroke: #ffc25f; stroke-width: 0.8"/>
      </g>
     </g>
     <g id="text_17">
      <!-- 0 -->
      <g style="fill: #ffc25f" transform="translate(93.695625 437.398594) scale(0.18 -0.18)">
       <use xlink:href="#DejaVuSans-30"/>
      </g>
     </g>
    </g>
    <g id="ytick_2">
     <g id="line2d_17">
      <g>
       <use xlink:href="#ma341d8ea44" x="112.148125" y="375.089283" style="fill: #ffc25f; stroke: #ffc25f; stroke-width: 0.8"/>
      </g>
     </g>
     <g id="text_18">
      <!-- 20,000 -->
      <g style="fill: #ffc25f" transform="translate(42.165 381.927877) scale(0.18 -0.18)">
       <defs>
        <path id="DejaVuSans-2c" d="M 750 794 
L 1409 794 
L 1409 256 
L 897 -744 
L 494 -744 
L 750 256 
L 750 794 
z
" transform="scale(0.015625)"/>
       </defs>
       <use xlink:href="#DejaVuSans-32"/>
       <use xlink:href="#DejaVuSans-30" transform="translate(63.623047 0)"/>
       <use xlink:href="#DejaVuSans-2c" transform="translate(127.246094 0)"/>
       <use xlink:href="#DejaVuSans-30" transform="translate(159.033203 0)"/>
       <use xlink:href="#DejaVuSans-30" transform="translate(222.65625 0)"/>
       <use xlink:href="#DejaVuSans-30" transform="translate(286.279297 0)"/>
      </g>
     </g>
    </g>
    <g id="ytick_3">
     <g id="line2d_18">
      <g>
       <use xlink:href="#ma341d8ea44" x="112.148125" y="319.618566" style="fill: #ffc25f; stroke: #ffc25f; stroke-width: 0.8"/>
      </g>
     </g>
     <g id="text_19">
      <!-- 40,000 -->
      <g style="fill: #ffc25f" transform="translate(42.165 326.45716) scale(0.18 -0.18)">
       <use xlink:href="#DejaVuSans-34"/>
       <use xlink:href="#DejaVuSans-30" transform="translate(63.623047 0)"/>
       <use xlink:href="#DejaVuSans-2c" transform="translate(127.246094 0)"/>
       <use xlink:href="#DejaVuSans-30" transform="translate(159.033203 0)"/>
       <use xlink:href="#DejaVuSans-30" transform="translate(222.65625 0)"/>
       <use xlink:href="#DejaVuSans-30" transform="translate(286.279297 0)"/>
      </g>
     </g>
    </g>
    <g id="ytick_4">
     <g id="line2d_19">
      <g>
       <use xlink:href="#ma341d8ea44" x="112.148125" y="264.147849" style="fill: #ffc25f; stroke: #ffc25f; stroke-width: 0.8"/>
      </g>
     </g>
     <g id="text_20">
      <!-- 60,000 -->
      <g style="fill: #ffc25f" transform="translate(42.165 270.986443) scale(0.18 -0.18)">
       <use xlink:href="#DejaVuSans-36"/>
       <use xlink:href="#DejaVuSans-30" transform="translate(63.623047 0)"/>
       <use xlink:href="#DejaVuSans-2c" transform="translate(127.246094 0)"/>
       <use xlink:href="#DejaVuSans-30" transform="translate(159.033203 0)"/>
       <use xlink:href="#DejaVuSans-30" transform="translate(222.65625 0)"/>
       <use xlink:href="#DejaVuSans-30" transform="translate(286.279297 0)"/>
      </g>
     </g>
    </g>
    <g id="ytick_5">
     <g id="line2d_20">
      <g>
       <use xlink:href="#ma341d8ea44" x="112.148125" y="208.677132" style="fill: #ffc25f; stroke: #ffc25f; stroke-width: 0.8"/>
      </g>
     </g>
     <g id="text_21">
      <!-- 80,000 -->
      <g style="fill: #ffc25f" transform="translate(42.165 215.515726) scale(0.18 -0.18)">
       <use xlink:href="#DejaVuSans-38"/>
       <use xlink:href="#DejaVuSans-30" transform="translate(63.623047 0)"/>
       <use xlink:href="#DejaVuSans-2c" transform="translate(127.246094 0)"/>
       <use xlink:href="#DejaVuSans-30" transform="translate(159.033203 0)"/>
       <use xlink:href="#DejaVuSans-30" transform="translate(222.65625 0)"/>
       <use xlink:href="#DejaVuSans-30" transform="translate(286.279297 0)"/>
      </g>
     </g>
    </g>
    <g id="ytick_6">
     <g id="line2d_21">
      <g>
       <use xlink:href="#ma341d8ea44" x="112.148125" y="153.206415" style="fill: #ffc25f; stroke: #ffc25f; stroke-width: 0.8"/>
      </g>
     </g>
     <g id="text_22">
      <!-- 100,000 -->
      <g style="fill: #ffc25f" transform="translate(30.7125 160.045009) scale(0.18 -0.18)">
       <use xlink:href="#DejaVuSans-31"/>
       <use xlink:href="#DejaVuSans-30" transform="translate(63.623047 0)"/>
       <use xlink:href="#DejaVuSans-30" transform="translate(127.246094 0)"/>
       <use xlink:href="#DejaVuSans-2c" transform="translate(190.869141 0)"/>
       <use xlink:href="#DejaVuSans-30" transform="translate(222.65625 0)"/>
       <use xlink:href="#DejaVuSans-30" transform="translate(286.279297 0)"/>
       <use xlink:href="#DejaVuSans-30" transform="translate(349.902344 0)"/>
      </g>
     </g>
    </g>
    <g id="ytick_7">
     <g id="line2d_22">
      <g>
       <use xlink:href="#ma341d8ea44" x="112.148125" y="97.735699" style="fill: #ffc25f; stroke: #ffc25f; stroke-width: 0.8"/>
      </g>
     </g>
     <g id="text_23">
      <!-- 120,000 -->
      <g style="fill: #ffc25f" transform="translate(30.7125 104.574292) scale(0.18 -0.18)">
       <use xlink:href="#DejaVuSans-31"/>
       <use xlink:href="#DejaVuSans-32" transform="translate(63.623047 0)"/>
       <use xlink:href="#DejaVuSans-30" transform="translate(127.246094 0)"/>
       <use xlink:href="#DejaVuSans-2c" transform="translate(190.869141 0)"/>
       <use xlink:href="#DejaVuSans-30" transform="translate(222.65625 0)"/>
       <use xlink:href="#DejaVuSans-30" transform="translate(286.279297 0)"/>
       <use xlink:href="#DejaVuSans-30" transform="translate(349.902344 0)"/>
      </g>
     </g>
    </g>
    <g id="ytick_8">
     <g id="line2d_23">
      <g>
       <use xlink:href="#ma341d8ea44" x="112.148125" y="42.264982" style="fill: #ffc25f; stroke: #ffc25f; stroke-width: 0.8"/>
      </g>
     </g>
     <g id="text_24">
      <!-- 140,000 -->
      <g style="fill: #ffc25f" transform="translate(30.7125 49.103575) scale(0.18 -0.18)">
       <use xlink:href="#DejaVuSans-31"/>
       <use xlink:href="#DejaVuSans-34" transform="translate(63.623047 0)"/>
       <use xlink:href="#DejaVuSans-30" transform="translate(127.246094 0)"/>
       <use xlink:href="#DejaVuSans-2c" transform="translate(190.869141 0)"/>
       <use xlink:href="#DejaVuSans-30" transform="translate(222.65625 0)"/>
       <use xlink:href="#DejaVuSans-30" transform="translate(286.279297 0)"/>
       <use xlink:href="#DejaVuSans-30" transform="translate(349.902344 0)"/>
      </g>
     </g>
    </g>
    <g id="text_25">
     <!-- Reads per oligo -->
     <g style="fill: #ffc25f" transform="translate(22.396875 316.889687) rotate(-90) scale(0.2 -0.2)">
      <defs>
       <path id="DejaVuSans-Bold-52" d="M 2297 2597 
Q 2675 2597 2839 2737 
Q 3003 2878 3003 3200 
Q 3003 3519 2839 3656 
Q 2675 3794 2297 3794 
L 1791 3794 
L 1791 2597 
L 2297 2597 
z
M 1791 1766 
L 1791 0 
L 588 0 
L 588 4666 
L 2425 4666 
Q 3347 4666 3776 4356 
Q 4206 4047 4206 3378 
Q 4206 2916 3982 2619 
Q 3759 2322 3309 2181 
Q 3556 2125 3751 1926 
Q 3947 1728 4147 1325 
L 4800 0 
L 3519 0 
L 2950 1159 
Q 2778 1509 2601 1637 
Q 2425 1766 2131 1766 
L 1791 1766 
z
" transform="scale(0.015625)"/>
       <path id="DejaVuSans-Bold-61" d="M 2106 1575 
Q 1756 1575 1579 1456 
Q 1403 1338 1403 1106 
Q 1403 894 1545 773 
Q 1688 653 1941 653 
Q 2256 653 2472 879 
Q 2688 1106 2688 1447 
L 2688 1575 
L 2106 1575 
z
M 3816 1997 
L 3816 0 
L 2688 0 
L 2688 519 
Q 2463 200 2181 54 
Q 1900 -91 1497 -91 
Q 953 -91 614 226 
Q 275 544 275 1050 
Q 275 1666 698 1953 
Q 1122 2241 2028 2241 
L 2688 2241 
L 2688 2328 
Q 2688 2594 2478 2717 
Q 2269 2841 1825 2841 
Q 1466 2841 1156 2769 
Q 847 2697 581 2553 
L 581 3406 
Q 941 3494 1303 3539 
Q 1666 3584 2028 3584 
Q 2975 3584 3395 3211 
Q 3816 2838 3816 1997 
z
" transform="scale(0.015625)"/>
       <path id="DejaVuSans-Bold-64" d="M 2919 2988 
L 2919 4863 
L 4044 4863 
L 4044 0 
L 2919 0 
L 2919 506 
Q 2688 197 2409 53 
Q 2131 -91 1766 -91 
Q 1119 -91 703 423 
Q 288 938 288 1747 
Q 288 2556 703 3070 
Q 1119 3584 1766 3584 
Q 2128 3584 2408 3439 
Q 2688 3294 2919 2988 
z
M 2181 722 
Q 2541 722 2730 984 
Q 2919 1247 2919 1747 
Q 2919 2247 2730 2509 
Q 2541 2772 2181 2772 
Q 1825 2772 1636 2509 
Q 1447 2247 1447 1747 
Q 1447 1247 1636 984 
Q 1825 722 2181 722 
z
" transform="scale(0.015625)"/>
       <path id="DejaVuSans-Bold-70" d="M 1656 506 
L 1656 -1331 
L 538 -1331 
L 538 3500 
L 1656 3500 
L 1656 2988 
Q 1888 3294 2169 3439 
Q 2450 3584 2816 3584 
Q 3463 3584 3878 3070 
Q 4294 2556 4294 1747 
Q 4294 938 3878 423 
Q 3463 -91 2816 -91 
Q 2450 -91 2169 54 
Q 1888 200 1656 506 
z
M 2400 2772 
Q 2041 2772 1848 2508 
Q 1656 2244 1656 1747 
Q 1656 1250 1848 986 
Q 2041 722 2400 722 
Q 2759 722 2948 984 
Q 3138 1247 3138 1747 
Q 3138 2247 2948 2509 
Q 2759 2772 2400 2772 
z
" transform="scale(0.015625)"/>
       <path id="DejaVuSans-Bold-6f" d="M 2203 2784 
Q 1831 2784 1636 2517 
Q 1441 2250 1441 1747 
Q 1441 1244 1636 976 
Q 1831 709 2203 709 
Q 2569 709 2762 976 
Q 2956 1244 2956 1747 
Q 2956 2250 2762 2517 
Q 2569 2784 2203 2784 
z
M 2203 3584 
Q 3106 3584 3614 3096 
Q 4122 2609 4122 1747 
Q 4122 884 3614 396 
Q 3106 -91 2203 -91 
Q 1297 -91 786 396 
Q 275 884 275 1747 
Q 275 2609 786 3096 
Q 1297 3584 2203 3584 
z
" transform="scale(0.015625)"/>
       <path id="DejaVuSans-Bold-6c" d="M 538 4863 
L 1656 4863 
L 1656 0 
L 538 0 
L 538 4863 
z
" transform="scale(0.015625)"/>
       <path id="DejaVuSans-Bold-69" d="M 538 3500 
L 1656 3500 
L 1656 0 
L 538 0 
L 538 3500 
z
M 538 4863 
L 1656 4863 
L 1656 3950 
L 538 3950 
L 538 4863 
z
" transform="scale(0.015625)"/>
       <path id="DejaVuSans-Bold-67" d="M 2919 594 
Q 2688 288 2409 144 
Q 2131 0 1766 0 
Q 1125 0 706 504 
Q 288 1009 288 1791 
Q 288 2575 706 3076 
Q 1125 3578 1766 3578 
Q 2131 3578 2409 3434 
Q 2688 3291 2919 2981 
L 2919 3500 
L 4044 3500 
L 4044 353 
Q 4044 -491 3511 -936 
Q 2978 -1381 1966 -1381 
Q 1638 -1381 1331 -1331 
Q 1025 -1281 716 -1178 
L 716 -306 
Q 1009 -475 1290 -558 
Q 1572 -641 1856 -641 
Q 2406 -641 2662 -400 
Q 2919 -159 2919 353 
L 2919 594 
z
M 2181 2772 
Q 1834 2772 1640 2515 
Q 1447 2259 1447 1791 
Q 1447 1309 1634 1061 
Q 1822 813 2181 813 
Q 2531 813 2725 1069 
Q 2919 1325 2919 1791 
Q 2919 2259 2725 2515 
Q 2531 2772 2181 2772 
z
" transform="scale(0.015625)"/>
      </defs>
      <use xlink:href="#DejaVuSans-Bold-52"/>
      <use xlink:href="#DejaVuSans-Bold-65" transform="translate(77.001953 0)"/>
      <use xlink:href="#DejaVuSans-Bold-61" transform="translate(144.824219 0)"/>
      <use xlink:href="#DejaVuSans-Bold-64" transform="translate(212.304688 0)"/>
      <use xlink:href="#DejaVuSans-Bold-73" transform="translate(283.886719 0)"/>
      <use xlink:href="#DejaVuSans-Bold-20" transform="translate(343.408203 0)"/>
      <use xlink:href="#DejaVuSans-Bold-70" transform="translate(378.222656 0)"/>
      <use xlink:href="#DejaVuSans-Bold-65" transform="translate(449.804688 0)"/>
      <use xlink:href="#DejaVuSans-Bold-72" transform="translate(517.626953 0)"/>
      <use xlink:href="#DejaVuSans-Bold-20" transform="translate(566.943359 0)"/>
      <use xlink:href="#DejaVuSans-Bold-6f" transform="translate(601.757812 0)"/>
      <use xlink:href="#DejaVuSans-Bold-6c" transform="translate(670.458984 0)"/>
      <use xlink:href="#DejaVuSans-Bold-69" transform="translate(704.736328 0)"/>
      <use xlink:href="#DejaVuSans-Bold-67" transform="translate(739.013672 0)"/>
      <use xlink:href="#DejaVuSans-Bold-6f" transform="translate(810.595703 0)"/>
     </g>
    </g>
   </g>
   <g id="patch_3">
    <path d="M 132.439034 427.156872 
L 153.520498 427.156872 
L 153.520498 406.937795 
L 132.439034 406.937795 
L 132.439034 427.156872 
z
" clip-path="url(#p27b04f2823)" style="fill: #ebbd73; stroke: #696969; stroke-linejoin: miter"/>
   </g>
   <g id="line2d_24">
    <path d="M 142.979766 427.156872 
L 142.979766 430.56 
" clip-path="url(#p27b04f2823)" style="fill: none; stroke: #696969"/>
   </g>
   <g id="line2d_25">
    <path d="M 142.979766 406.937795 
L 142.979766 392.382279 
" clip-path="url(#p27b04f2823)" style="fill: none; stroke: #696969"/>
   </g>
   <g id="line2d_26">
    <path d="M 137.7094 430.56 
L 148.250132 430.56 
" clip-path="url(#p27b04f2823)" style="fill: none; stroke: #696969; stroke-linecap: square"/>
   </g>
   <g id="line2d_27">
    <path d="M 137.7094 392.382279 
L 148.250132 392.382279 
" clip-path="url(#p27b04f2823)" style="fill: none; stroke: #696969; stroke-linecap: square"/>
   </g>
   <g id="patch_4">
    <path d="M 158.790864 423.694112 
L 179.872328 423.694112 
L 179.872328 379.504752 
L 158.790864 379.504752 
L 158.790864 423.694112 
z
" clip-path="url(#p27b04f2823)" style="fill: #ebbd73; stroke: #696969; stroke-linejoin: miter"/>
   </g>
   <g id="line2d_28">
    <path d="M 169.331596 423.694112 
L 169.331596 430.56 
" clip-path="url(#p27b04f2823)" style="fill: none; stroke: #696969"/>
   </g>
   <g id="line2d_29">
    <path d="M 169.331596 379.504752 
L 169.331596 313.303225 
" clip-path="url(#p27b04f2823)" style="fill: none; stroke: #696969"/>
   </g>
   <g id="line2d_30">
    <path d="M 164.06123 430.56 
L 174.601962 430.56 
" clip-path="url(#p27b04f2823)" style="fill: none; stroke: #696969; stroke-linecap: square"/>
   </g>
   <g id="line2d_31">
    <path d="M 164.06123 313.303225 
L 174.601962 313.303225 
" clip-path="url(#p27b04f2823)" style="fill: none; stroke: #696969; stroke-linecap: square"/>
   </g>
   <g id="patch_5">
    <path d="M 185.142694 420.410246 
L 206.224158 420.410246 
L 206.224158 358.37873 
L 185.142694 358.37873 
L 185.142694 420.410246 
z
" clip-path="url(#p27b04f2823)" style="fill: #ebbd73; stroke: #696969; stroke-linejoin: miter"/>
   </g>
   <g id="line2d_32">
    <path d="M 195.683426 420.410246 
L 195.683426 430.56 
" clip-path="url(#p27b04f2823)" style="fill: none; stroke: #696969"/>
   </g>
   <g id="line2d_33">
    <path d="M 195.683426 358.37873 
L 195.683426 265.365432 
" clip-path="url(#p27b04f2823)" style="fill: none; stroke: #696969"/>
   </g>
   <g id="line2d_34">
    <path d="M 190.41306 430.56 
L 200.953792 430.56 
" clip-path="url(#p27b04f2823)" style="fill: none; stroke: #696969; stroke-linecap: square"/>
   </g>
   <g id="line2d_35">
    <path d="M 190.41306 265.365432 
L 200.953792 265.365432 
" clip-path="url(#p27b04f2823)" style="fill: none; stroke: #696969; stroke-linecap: square"/>
   </g>
   <g id="patch_6">
    <path d="M 211.494524 418.947205 
L 232.575988 418.947205 
L 232.575988 340.311917 
L 211.494524 340.311917 
L 211.494524 418.947205 
z
" clip-path="url(#p27b04f2823)" style="fill: #ebbd73; stroke: #696969; stroke-linejoin: miter"/>
   </g>
   <g id="line2d_36">
    <path d="M 222.035256 418.947205 
L 222.035256 430.56 
" clip-path="url(#p27b04f2823)" style="fill: none; stroke: #696969"/>
   </g>
   <g id="line2d_37">
    <path d="M 222.035256 340.311917 
L 222.035256 222.955295 
" clip-path="url(#p27b04f2823)" style="fill: none; stroke: #696969"/>
   </g>
   <g id="line2d_38">
    <path d="M 216.76489 430.56 
L 227.305622 430.56 
" clip-path="url(#p27b04f2823)" style="fill: none; stroke: #696969; stroke-linecap: square"/>
   </g>
   <g id="line2d_39">
    <path d="M 216.76489 222.955295 
L 227.305622 222.955295 
" clip-path="url(#p27b04f2823)" style="fill: none; stroke: #696969; stroke-linecap: square"/>
   </g>
   <g id="patch_7">
    <path d="M 237.846354 421.20209 
L 258.927818 421.20209 
L 258.927818 341.802693 
L 237.846354 341.802693 
L 237.846354 421.20209 
z
" clip-path="url(#p27b04f2823)" style="fill: #ebbd73; stroke: #696969; stroke-linejoin: miter"/>
   </g>
   <g id="line2d_40">
    <path d="M 248.387086 421.20209 
L 248.387086 430.56 
" clip-path="url(#p27b04f2823)" style="fill: none; stroke: #696969"/>
   </g>
   <g id="line2d_41">
    <path d="M 248.387086 341.802693 
L 248.387086 223.340816 
" clip-path="url(#p27b04f2823)" style="fill: none; stroke: #696969"/>
   </g>
   <g id="line2d_42">
    <path d="M 243.11672 430.56 
L 253.657452 430.56 
" clip-path="url(#p27b04f2823)" style="fill: none; stroke: #696969; stroke-linecap: square"/>
   </g>
   <g id="line2d_43">
    <path d="M 243.11672 223.340816 
L 253.657452 223.340816 
" clip-path="url(#p27b04f2823)" style="fill: none; stroke: #696969; stroke-linecap: square"/>
   </g>
   <g id="patch_8">
    <path d="M 264.198184 421.399704 
L 285.279648 421.399704 
L 285.279648 339.407051 
L 264.198184 339.407051 
L 264.198184 421.399704 
z
" clip-path="url(#p27b04f2823)" style="fill: #ebbd73; stroke: #696969; stroke-linejoin: miter"/>
   </g>
   <g id="line2d_44">
    <path d="M 274.738916 421.399704 
L 274.738916 430.56 
" clip-path="url(#p27b04f2823)" style="fill: none; stroke: #696969"/>
   </g>
   <g id="line2d_45">
    <path d="M 274.738916 339.407051 
L 274.738916 216.418071 
" clip-path="url(#p27b04f2823)" style="fill: none; stroke: #696969"/>
   </g>
   <g id="line2d_46">
    <path d="M 269.46855 430.56 
L 280.009282 430.56 
" clip-path="url(#p27b04f2823)" style="fill: none; stroke: #696969; stroke-linecap: square"/>
   </g>
   <g id="line2d_47">
    <path d="M 269.46855 216.418071 
L 280.009282 216.418071 
" clip-path="url(#p27b04f2823)" style="fill: none; stroke: #696969; stroke-linecap: square"/>
   </g>
   <g id="patch_9">
    <path d="M 290.550014 424.279328 
L 311.631478 424.279328 
L 311.631478 378.767685 
L 290.550014 378.767685 
L 290.550014 424.279328 
z
" clip-path="url(#p27b04f2823)" style="fill: #ebbd73; stroke: #696969; stroke-linejoin: miter"/>
   </g>
   <g id="line2d_48">
    <path d="M 301.090746 424.279328 
L 301.090746 430.56 
" clip-path="url(#p27b04f2823)" style="fill: none; stroke: #696969"/>
   </g>
   <g id="line2d_49">
    <path d="M 301.090746 378.767685 
L 301.090746 310.607348 
" clip-path="url(#p27b04f2823)" style="fill: none; stroke: #696969"/>
   </g>
   <g id="line2d_50">
    <path d="M 295.82038 430.56 
L 306.361112 430.56 
" clip-path="url(#p27b04f2823)" style="fill: none; stroke: #696969; stroke-linecap: square"/>
   </g>
   <g id="line2d_51">
    <path d="M 295.82038 310.607348 
L 306.361112 310.607348 
" clip-path="url(#p27b04f2823)" style="fill: none; stroke: #696969; stroke-linecap: square"/>
   </g>
   <g id="patch_10">
    <path d="M 316.901844 399.962353 
L 337.983308 399.962353 
L 337.983308 348.93484 
L 316.901844 348.93484 
L 316.901844 399.962353 
z
" clip-path="url(#p27b04f2823)" style="fill: #ebbd73; stroke: #696969; stroke-linejoin: miter"/>
   </g>
   <g id="line2d_52">
    <path d="M 327.442576 399.962353 
L 327.442576 429.273079 
" clip-path="url(#p27b04f2823)" style="fill: none; stroke: #696969"/>
   </g>
   <g id="line2d_53">
    <path d="M 327.442576 348.93484 
L 327.442576 280.520031 
" clip-path="url(#p27b04f2823)" style="fill: none; stroke: #696969"/>
   </g>
   <g id="line2d_54">
    <path d="M 322.17221 429.273079 
L 332.712942 429.273079 
" clip-path="url(#p27b04f2823)" style="fill: none; stroke: #696969; stroke-linecap: square"/>
   </g>
   <g id="line2d_55">
    <path d="M 322.17221 280.520031 
L 332.712942 280.520031 
" clip-path="url(#p27b04f2823)" style="fill: none; stroke: #696969; stroke-linecap: square"/>
   </g>
   <g id="patch_11">
    <path d="M 343.253674 419.208611 
L 364.335138 419.208611 
L 364.335138 332.63269 
L 343.253674 332.63269 
L 343.253674 419.208611 
z
" clip-path="url(#p27b04f2823)" style="fill: #ebbd73; stroke: #696969; stroke-linejoin: miter"/>
   </g>
   <g id="line2d_56">
    <path d="M 353.794406 419.208611 
L 353.794406 430.56 
" clip-path="url(#p27b04f2823)" style="fill: none; stroke: #696969"/>
   </g>
   <g id="line2d_57">
    <path d="M 353.794406 332.63269 
L 353.794406 206.316853 
" clip-path="url(#p27b04f2823)" style="fill: none; stroke: #696969"/>
   </g>
   <g id="line2d_58">
    <path d="M 348.52404 430.56 
L 359.064772 430.56 
" clip-path="url(#p27b04f2823)" style="fill: none; stroke: #696969; stroke-linecap: square"/>
   </g>
   <g id="line2d_59">
    <path d="M 348.52404 206.316853 
L 359.064772 206.316853 
" clip-path="url(#p27b04f2823)" style="fill: none; stroke: #696969; stroke-linecap: square"/>
   </g>
   <g id="patch_12">
    <path d="M 369.605504 426.785218 
L 390.686968 426.785218 
L 390.686968 362.516152 
L 369.605504 362.516152 
L 369.605504 426.785218 
z
" clip-path="url(#p27b04f2823)" style="fill: #ebbd73; stroke: #696969; stroke-linejoin: miter"/>
   </g>
   <g id="line2d_60">
    <path d="M 380.146236 426.785218 
L 380.146236 430.56 
" clip-path="url(#p27b04f2823)" style="fill: none; stroke: #696969"/>
   </g>
   <g id="line2d_61">
    <path d="M 380.146236 362.516152 
L 380.146236 279.188734 
" clip-path="url(#p27b04f2823)" style="fill: none; stroke: #696969"/>
   </g>
   <g id="line2d_62">
    <path d="M 374.87587 430.56 
L 385.416602 430.56 
" clip-path="url(#p27b04f2823)" style="fill: none; stroke: #696969; stroke-linecap: square"/>
   </g>
   <g id="line2d_63">
    <path d="M 374.87587 279.188734 
L 385.416602 279.188734 
" clip-path="url(#p27b04f2823)" style="fill: none; stroke: #696969; stroke-linecap: square"/>
   </g>
   <g id="patch_13">
    <path d="M 395.957334 427.639467 
L 417.038798 427.639467 
L 417.038798 358.79476 
L 395.957334 358.79476 
L 395.957334 427.639467 
z
" clip-path="url(#p27b04f2823)" style="fill: #ebbd73; stroke: #696969; stroke-linejoin: miter"/>
   </g>
   <g id="line2d_64">
    <path d="M 406.498066 427.639467 
L 406.498066 430.56 
" clip-path="url(#p27b04f2823)" style="fill: none; stroke: #696969"/>
   </g>
   <g id="line2d_65">
    <path d="M 406.498066 358.79476 
L 406.498066 329.292659 
" clip-path="url(#p27b04f2823)" style="fill: none; stroke: #696969"/>
   </g>
   <g id="line2d_66">
    <path d="M 401.2277 430.56 
L 411.768432 430.56 
" clip-path="url(#p27b04f2823)" style="fill: none; stroke: #696969; stroke-linecap: square"/>
   </g>
   <g id="line2d_67">
    <path d="M 401.2277 329.292659 
L 411.768432 329.292659 
" clip-path="url(#p27b04f2823)" style="fill: none; stroke: #696969; stroke-linecap: square"/>
   </g>
   <g id="patch_14">
    <path d="M 422.309164 427.899486 
L 443.390628 427.899486 
L 443.390628 369.651766 
L 422.309164 369.651766 
L 422.309164 427.899486 
z
" clip-path="url(#p27b04f2823)" style="fill: #ebbd73; stroke: #696969; stroke-linejoin: miter"/>
   </g>
   <g id="line2d_68">
    <path d="M 432.849896 427.899486 
L 432.849896 430.51285 
" clip-path="url(#p27b04f2823)" style="fill: none; stroke: #696969"/>
   </g>
   <g id="line2d_69">
    <path d="M 432.849896 369.651766 
L 432.849896 291.117712 
" clip-path="url(#p27b04f2823)" style="fill: none; stroke: #696969"/>
   </g>
   <g id="line2d_70">
    <path d="M 427.57953 430.51285 
L 438.120262 430.51285 
" clip-path="url(#p27b04f2823)" style="fill: none; stroke: #696969; stroke-linecap: square"/>
   </g>
   <g id="line2d_71">
    <path d="M 427.57953 291.117712 
L 438.120262 291.117712 
" clip-path="url(#p27b04f2823)" style="fill: none; stroke: #696969; stroke-linecap: square"/>
   </g>
   <g id="patch_15">
    <path d="M 448.660994 368.279559 
L 469.742458 368.279559 
L 469.742458 220.207414 
L 448.660994 220.207414 
L 448.660994 368.279559 
z
" clip-path="url(#p27b04f2823)" style="fill: #ebbd73; stroke: #696969; stroke-linejoin: miter"/>
   </g>
   <g id="line2d_72">
    <path d="M 459.201726 368.279559 
L 459.201726 430.532265 
" clip-path="url(#p27b04f2823)" style="fill: none; stroke: #696969"/>
   </g>
   <g id="line2d_73">
    <path d="M 459.201726 220.207414 
L 459.201726 27.36 
" clip-path="url(#p27b04f2823)" style="fill: none; stroke: #696969"/>
   </g>
   <g id="line2d_74">
    <path d="M 453.93136 430.532265 
L 464.472092 430.532265 
" clip-path="url(#p27b04f2823)" style="fill: none; stroke: #696969; stroke-linecap: square"/>
   </g>
   <g id="line2d_75">
    <path d="M 453.93136 27.36 
L 464.472092 27.36 
" clip-path="url(#p27b04f2823)" style="fill: none; stroke: #696969; stroke-linecap: square"/>
   </g>
   <g id="patch_16">
    <path d="M 475.012824 428.952736 
L 496.094288 428.952736 
L 496.094288 411.315822 
L 475.012824 411.315822 
L 475.012824 428.952736 
z
" clip-path="url(#p27b04f2823)" style="fill: #ebbd73; stroke: #696969; stroke-linejoin: miter"/>
   </g>
   <g id="line2d_76">
    <path d="M 485.553556 428.952736 
L 485.553556 430.33257 
" clip-path="url(#p27b04f2823)" style="fill: none; stroke: #696969"/>
   </g>
   <g id="line2d_77">
    <path d="M 485.553556 411.315822 
L 485.553556 406.998813 
" clip-path="url(#p27b04f2823)" style="fill: none; stroke: #696969"/>
   </g>
   <g id="line2d_78">
    <path d="M 480.28319 430.33257 
L 490.823922 430.33257 
" clip-path="url(#p27b04f2823)" style="fill: none; stroke: #696969; stroke-linecap: square"/>
   </g>
   <g id="line2d_79">
    <path d="M 480.28319 406.998813 
L 490.823922 406.998813 
" clip-path="url(#p27b04f2823)" style="fill: none; stroke: #696969; stroke-linecap: square"/>
   </g>
   <g id="patch_17">
    <path d="M 501.364654 429.856909 
L 522.446118 429.856909 
L 522.446118 423.067293 
L 501.364654 423.067293 
L 501.364654 429.856909 
z
" clip-path="url(#p27b04f2823)" style="fill: #ebbd73; stroke: #696969; stroke-linejoin: miter"/>
   </g>
   <g id="line2d_80">
    <path d="M 511.905386 429.856909 
L 511.905386 430.515623 
" clip-path="url(#p27b04f2823)" style="fill: none; stroke: #696969"/>
   </g>
   <g id="line2d_81">
    <path d="M 511.905386 423.067293 
L 511.905386 416.936392 
" clip-path="url(#p27b04f2823)" style="fill: none; stroke: #696969"/>
   </g>
   <g id="line2d_82">
    <path d="M 506.63502 430.515623 
L 517.175752 430.515623 
" clip-path="url(#p27b04f2823)" style="fill: none; stroke: #696969; stroke-linecap: square"/>
   </g>
   <g id="line2d_83">
    <path d="M 506.63502 416.936392 
L 517.175752 416.936392 
" clip-path="url(#p27b04f2823)" style="fill: none; stroke: #696969; stroke-linecap: square"/>
   </g>
   <g id="line2d_84">
    <path d="M 132.439034 417.613135 
L 153.520498 417.613135 
" clip-path="url(#p27b04f2823)" style="fill: none; stroke: #696969"/>
   </g>
   <g id="line2d_85">
    <path d="M 158.790864 409.924893 
L 179.872328 409.924893 
" clip-path="url(#p27b04f2823)" style="fill: none; stroke: #696969"/>
   </g>
   <g id="line2d_86">
    <path d="M 185.142694 399.047086 
L 206.224158 399.047086 
" clip-path="url(#p27b04f2823)" style="fill: none; stroke: #696969"/>
   </g>
   <g id="line2d_87">
    <path d="M 211.494524 390.915079 
L 232.575988 390.915079 
" clip-path="url(#p27b04f2823)" style="fill: none; stroke: #696969"/>
   </g>
   <g id="line2d_88">
    <path d="M 237.846354 393.674747 
L 258.927818 393.674747 
" clip-path="url(#p27b04f2823)" style="fill: none; stroke: #696969"/>
   </g>
   <g id="line2d_89">
    <path d="M 264.198184 391.425409 
L 285.279648 391.425409 
" clip-path="url(#p27b04f2823)" style="fill: none; stroke: #696969"/>
   </g>
   <g id="line2d_90">
    <path d="M 290.550014 407.577095 
L 311.631478 407.577095 
" clip-path="url(#p27b04f2823)" style="fill: none; stroke: #696969"/>
   </g>
   <g id="line2d_91">
    <path d="M 316.901844 389.819532 
L 337.983308 389.819532 
" clip-path="url(#p27b04f2823)" style="fill: none; stroke: #696969"/>
   </g>
   <g id="line2d_92">
    <path d="M 343.253674 392.43775 
L 364.335138 392.43775 
" clip-path="url(#p27b04f2823)" style="fill: none; stroke: #696969"/>
   </g>
   <g id="line2d_93">
    <path d="M 369.605504 397.374644 
L 390.686968 397.374644 
" clip-path="url(#p27b04f2823)" style="fill: none; stroke: #696969"/>
   </g>
   <g id="line2d_94">
    <path d="M 395.957334 407.503597 
L 417.038798 407.503597 
" clip-path="url(#p27b04f2823)" style="fill: none; stroke: #696969"/>
   </g>
   <g id="line2d_95">
    <path d="M 422.309164 408.230263 
L 443.390628 408.230263 
" clip-path="url(#p27b04f2823)" style="fill: none; stroke: #696969"/>
   </g>
   <g id="line2d_96">
    <path d="M 448.660994 317.420539 
L 469.742458 317.420539 
" clip-path="url(#p27b04f2823)" style="fill: none; stroke: #696969"/>
   </g>
   <g id="line2d_97">
    <path d="M 475.012824 422.756657 
L 496.094288 422.756657 
" clip-path="url(#p27b04f2823)" style="fill: none; stroke: #696969"/>
   </g>
   <g id="line2d_98">
    <path d="M 501.364654 429.198194 
L 522.446118 429.198194 
" clip-path="url(#p27b04f2823)" style="fill: none; stroke: #696969"/>
   </g>
   <g id="patch_18">
    <path d="M 112.148125 450.72 
L 112.148125 7.2 
" style="fill: none; stroke: #000000; stroke-linejoin: miter; stroke-linecap: square"/>
   </g>
   <g id="patch_19">
    <path d="M 558.548125 450.72 
L 558.548125 7.2 
" style="fill: none; stroke: #000000; stroke-linejoin: miter; stroke-linecap: square"/>
   </g>
   <g id="patch_20">
    <path d="M 112.148125 450.72 
L 558.548125 450.72 
" style="fill: none; stroke: #000000; stroke-linejoin: miter; stroke-linecap: square"/>
   </g>
  </g>
  <g id="axes_2">
   <g id="matplotlib.axis_3">
    <g id="ytick_9">
     <g id="line2d_99">
      <defs>
       <path id="m13fd83ab9f" d="M 0 0 
L 3.5 0 
" style="stroke: #3d9f95; stroke-width: 0.8"/>
      </defs>
      <g>
       <use xlink:href="#m13fd83ab9f" x="558.548125" y="430.69488" style="fill: #3d9f95; stroke: #3d9f95; stroke-width: 0.8"/>
      </g>
     </g>
     <g id="text_26">
      <!-- 0 -->
      <g style="fill: #3d9f95" transform="translate(565.548125 437.533473) scale(0.18 -0.18)">
       <use xlink:href="#DejaVuSans-30"/>
      </g>
     </g>
    </g>
    <g id="ytick_10">
     <g id="line2d_100">
      <g>
       <use xlink:href="#m13fd83ab9f" x="558.548125" y="340.775165" style="fill: #3d9f95; stroke: #3d9f95; stroke-width: 0.8"/>
      </g>
     </g>
     <g id="text_27">
      <!-- 2000 -->
      <g style="fill: #3d9f95" transform="translate(565.548125 347.613759) scale(0.18 -0.18)">
       <use xlink:href="#DejaVuSans-32"/>
       <use xlink:href="#DejaVuSans-30" transform="translate(63.623047 0)"/>
       <use xlink:href="#DejaVuSans-30" transform="translate(127.246094 0)"/>
       <use xlink:href="#DejaVuSans-30" transform="translate(190.869141 0)"/>
      </g>
     </g>
    </g>
    <g id="ytick_11">
     <g id="line2d_101">
      <g>
       <use xlink:href="#m13fd83ab9f" x="558.548125" y="250.85545" style="fill: #3d9f95; stroke: #3d9f95; stroke-width: 0.8"/>
      </g>
     </g>
     <g id="text_28">
      <!-- 4000 -->
      <g style="fill: #3d9f95" transform="translate(565.548125 257.694044) scale(0.18 -0.18)">
       <use xlink:href="#DejaVuSans-34"/>
       <use xlink:href="#DejaVuSans-30" transform="translate(63.623047 0)"/>
       <use xlink:href="#DejaVuSans-30" transform="translate(127.246094 0)"/>
       <use xlink:href="#DejaVuSans-30" transform="translate(190.869141 0)"/>
      </g>
     </g>
    </g>
    <g id="ytick_12">
     <g id="line2d_102">
      <g>
       <use xlink:href="#m13fd83ab9f" x="558.548125" y="160.935736" style="fill: #3d9f95; stroke: #3d9f95; stroke-width: 0.8"/>
      </g>
     </g>
     <g id="text_29">
      <!-- 6000 -->
      <g style="fill: #3d9f95" transform="translate(565.548125 167.77433) scale(0.18 -0.18)">
       <use xlink:href="#DejaVuSans-36"/>
       <use xlink:href="#DejaVuSans-30" transform="translate(63.623047 0)"/>
       <use xlink:href="#DejaVuSans-30" transform="translate(127.246094 0)"/>
       <use xlink:href="#DejaVuSans-30" transform="translate(190.869141 0)"/>
      </g>
     </g>
    </g>
    <g id="ytick_13">
     <g id="line2d_103">
      <g>
       <use xlink:href="#m13fd83ab9f" x="558.548125" y="71.016021" style="fill: #3d9f95; stroke: #3d9f95; stroke-width: 0.8"/>
      </g>
     </g>
     <g id="text_30">
      <!-- 8000 -->
      <g style="fill: #3d9f95" transform="translate(565.548125 77.854615) scale(0.18 -0.18)">
       <use xlink:href="#DejaVuSans-38"/>
       <use xlink:href="#DejaVuSans-30" transform="translate(63.623047 0)"/>
       <use xlink:href="#DejaVuSans-30" transform="translate(127.246094 0)"/>
       <use xlink:href="#DejaVuSans-30" transform="translate(190.869141 0)"/>
      </g>
     </g>
    </g>
    <g id="text_31">
     <!-- Number of cCREs -->
     <g style="fill: #3d9f95" transform="translate(630.555 325.6725) rotate(-90) scale(0.2 -0.2)">
      <defs>
       <path id="DejaVuSans-Bold-4e" d="M 588 4666 
L 1931 4666 
L 3628 1466 
L 3628 4666 
L 4769 4666 
L 4769 0 
L 3425 0 
L 1728 3200 
L 1728 0 
L 588 0 
L 588 4666 
z
" transform="scale(0.015625)"/>
       <path id="DejaVuSans-Bold-75" d="M 500 1363 
L 500 3500 
L 1625 3500 
L 1625 3150 
Q 1625 2866 1622 2436 
Q 1619 2006 1619 1863 
Q 1619 1441 1641 1255 
Q 1663 1069 1716 984 
Q 1784 875 1895 815 
Q 2006 756 2150 756 
Q 2500 756 2700 1025 
Q 2900 1294 2900 1772 
L 2900 3500 
L 4019 3500 
L 4019 0 
L 2900 0 
L 2900 506 
Q 2647 200 2364 54 
Q 2081 -91 1741 -91 
Q 1134 -91 817 281 
Q 500 653 500 1363 
z
" transform="scale(0.015625)"/>
       <path id="DejaVuSans-Bold-6d" d="M 3781 2919 
Q 3994 3244 4286 3414 
Q 4578 3584 4928 3584 
Q 5531 3584 5847 3212 
Q 6163 2841 6163 2131 
L 6163 0 
L 5038 0 
L 5038 1825 
Q 5041 1866 5042 1909 
Q 5044 1953 5044 2034 
Q 5044 2406 4934 2573 
Q 4825 2741 4581 2741 
Q 4263 2741 4089 2478 
Q 3916 2216 3909 1719 
L 3909 0 
L 2784 0 
L 2784 1825 
Q 2784 2406 2684 2573 
Q 2584 2741 2328 2741 
Q 2006 2741 1831 2477 
Q 1656 2213 1656 1722 
L 1656 0 
L 531 0 
L 531 3500 
L 1656 3500 
L 1656 2988 
Q 1863 3284 2130 3434 
Q 2397 3584 2719 3584 
Q 3081 3584 3359 3409 
Q 3638 3234 3781 2919 
z
" transform="scale(0.015625)"/>
       <path id="DejaVuSans-Bold-62" d="M 2400 722 
Q 2759 722 2948 984 
Q 3138 1247 3138 1747 
Q 3138 2247 2948 2509 
Q 2759 2772 2400 2772 
Q 2041 2772 1848 2508 
Q 1656 2244 1656 1747 
Q 1656 1250 1848 986 
Q 2041 722 2400 722 
z
M 1656 2988 
Q 1888 3294 2169 3439 
Q 2450 3584 2816 3584 
Q 3463 3584 3878 3070 
Q 4294 2556 4294 1747 
Q 4294 938 3878 423 
Q 3463 -91 2816 -91 
Q 2450 -91 2169 54 
Q 1888 200 1656 506 
L 1656 0 
L 538 0 
L 538 4863 
L 1656 4863 
L 1656 2988 
z
" transform="scale(0.015625)"/>
       <path id="DejaVuSans-Bold-66" d="M 2841 4863 
L 2841 4128 
L 2222 4128 
Q 1984 4128 1890 4042 
Q 1797 3956 1797 3744 
L 1797 3500 
L 2753 3500 
L 2753 2700 
L 1797 2700 
L 1797 0 
L 678 0 
L 678 2700 
L 122 2700 
L 122 3500 
L 678 3500 
L 678 3744 
Q 678 4316 997 4589 
Q 1316 4863 1984 4863 
L 2841 4863 
z
" transform="scale(0.015625)"/>
       <path id="DejaVuSans-Bold-43" d="M 4288 256 
Q 3956 84 3597 -3 
Q 3238 -91 2847 -91 
Q 1681 -91 1000 561 
Q 319 1213 319 2328 
Q 319 3447 1000 4098 
Q 1681 4750 2847 4750 
Q 3238 4750 3597 4662 
Q 3956 4575 4288 4403 
L 4288 3438 
Q 3953 3666 3628 3772 
Q 3303 3878 2944 3878 
Q 2300 3878 1931 3465 
Q 1563 3053 1563 2328 
Q 1563 1606 1931 1193 
Q 2300 781 2944 781 
Q 3303 781 3628 887 
Q 3953 994 4288 1222 
L 4288 256 
z
" transform="scale(0.015625)"/>
       <path id="DejaVuSans-Bold-45" d="M 588 4666 
L 3834 4666 
L 3834 3756 
L 1791 3756 
L 1791 2888 
L 3713 2888 
L 3713 1978 
L 1791 1978 
L 1791 909 
L 3903 909 
L 3903 0 
L 588 0 
L 588 4666 
z
" transform="scale(0.015625)"/>
      </defs>
      <use xlink:href="#DejaVuSans-Bold-4e"/>
      <use xlink:href="#DejaVuSans-Bold-75" transform="translate(83.691406 0)"/>
      <use xlink:href="#DejaVuSans-Bold-6d" transform="translate(154.882812 0)"/>
      <use xlink:href="#DejaVuSans-Bold-62" transform="translate(259.082031 0)"/>
      <use xlink:href="#DejaVuSans-Bold-65" transform="translate(330.664062 0)"/>
      <use xlink:href="#DejaVuSans-Bold-72" transform="translate(398.486328 0)"/>
      <use xlink:href="#DejaVuSans-Bold-20" transform="translate(447.802734 0)"/>
      <use xlink:href="#DejaVuSans-Bold-6f" transform="translate(482.617188 0)"/>
      <use xlink:href="#DejaVuSans-Bold-66" transform="translate(551.318359 0)"/>
      <use xlink:href="#DejaVuSans-Bold-20" transform="translate(594.824219 0)"/>
      <use xlink:href="#DejaVuSans-Bold-63" transform="translate(629.638672 0)"/>
      <use xlink:href="#DejaVuSans-Bold-43" transform="translate(688.916016 0)"/>
      <use xlink:href="#DejaVuSans-Bold-52" transform="translate(762.304688 0)"/>
      <use xlink:href="#DejaVuSans-Bold-45" transform="translate(839.306641 0)"/>
      <use xlink:href="#DejaVuSans-Bold-73" transform="translate(907.617188 0)"/>
     </g>
    </g>
   </g>
   <g id="line2d_104">
    <path d="M 169.331596 427.592649 
L 195.683426 244.60603 
L 222.035256 27.36 
L 248.387086 189.395326 
L 274.738916 321.757145 
L 301.090746 395.98587 
L 327.442576 424.22066 
L 353.794406 429.930562 
L 380.146236 426.468653 
L 406.498066 428.896485 
L 432.849896 429.930562 
L 459.201726 429.615843 
L 485.553556 430.065442 
L 511.905386 429.975522 
L 538.257216 430.56 
" clip-path="url(#p27b04f2823)" style="fill: none; stroke: #3d9f95; stroke-width: 1.5; stroke-linecap: square"/>
    <defs>
     <path id="mc024f1ea6a" d="M 0 3 
C 0.795609 3 1.55874 2.683901 2.12132 2.12132 
C 2.683901 1.55874 3 0.795609 3 0 
C 3 -0.795609 2.683901 -1.55874 2.12132 -2.12132 
C 1.55874 -2.683901 0.795609 -3 0 -3 
C -0.795609 -3 -1.55874 -2.683901 -2.12132 -2.12132 
C -2.683901 -1.55874 -3 -0.795609 -3 0 
C -3 0.795609 -2.683901 1.55874 -2.12132 2.12132 
C -1.55874 2.683901 -0.795609 3 0 3 
z
" style="stroke: #3d9f95"/>
    </defs>
    <g clip-path="url(#p27b04f2823)">
     <use xlink:href="#mc024f1ea6a" x="169.331596" y="427.592649" style="fill: #3d9f95; stroke: #3d9f95"/>
     <use xlink:href="#mc024f1ea6a" x="195.683426" y="244.60603" style="fill: #3d9f95; stroke: #3d9f95"/>
     <use xlink:href="#mc024f1ea6a" x="222.035256" y="27.36" style="fill: #3d9f95; stroke: #3d9f95"/>
     <use xlink:href="#mc024f1ea6a" x="248.387086" y="189.395326" style="fill: #3d9f95; stroke: #3d9f95"/>
     <use xlink:href="#mc024f1ea6a" x="274.738916" y="321.757145" style="fill: #3d9f95; stroke: #3d9f95"/>
     <use xlink:href="#mc024f1ea6a" x="301.090746" y="395.98587" style="fill: #3d9f95; stroke: #3d9f95"/>
     <use xlink:href="#mc024f1ea6a" x="327.442576" y="424.22066" style="fill: #3d9f95; stroke: #3d9f95"/>
     <use xlink:href="#mc024f1ea6a" x="353.794406" y="429.930562" style="fill: #3d9f95; stroke: #3d9f95"/>
     <use xlink:href="#mc024f1ea6a" x="380.146236" y="426.468653" style="fill: #3d9f95; stroke: #3d9f95"/>
     <use xlink:href="#mc024f1ea6a" x="406.498066" y="428.896485" style="fill: #3d9f95; stroke: #3d9f95"/>
     <use xlink:href="#mc024f1ea6a" x="432.849896" y="429.930562" style="fill: #3d9f95; stroke: #3d9f95"/>
     <use xlink:href="#mc024f1ea6a" x="459.201726" y="429.615843" style="fill: #3d9f95; stroke: #3d9f95"/>
     <use xlink:href="#mc024f1ea6a" x="485.553556" y="430.065442" style="fill: #3d9f95; stroke: #3d9f95"/>
     <use xlink:href="#mc024f1ea6a" x="511.905386" y="429.975522" style="fill: #3d9f95; stroke: #3d9f95"/>
     <use xlink:href="#mc024f1ea6a" x="538.257216" y="430.56" style="fill: #3d9f95; stroke: #3d9f95"/>
    </g>
   </g>
   <g id="patch_21">
    <path d="M 112.148125 450.72 
L 112.148125 7.2 
" style="fill: none; stroke: #000000; stroke-linejoin: miter; stroke-linecap: square"/>
   </g>
   <g id="patch_22">
    <path d="M 112.148125 450.72 
L 558.548125 450.72 
" style="fill: none; stroke: #000000; stroke-linejoin: miter; stroke-linecap: square"/>
   </g>
  </g>
 </g>
 <defs>
  <clipPath id="p27b04f2823">
   <rect x="112.148125" y="7.2" width="446.4" height="443.52"/>
  </clipPath>
 </defs>
</svg>
