<?xml version="1.0" encoding="utf-8" standalone="no"?>
<!DOCTYPE svg PUBLIC "-//W3C//DTD SVG 1.1//EN"
  "http://www.w3.org/Graphics/SVG/1.1/DTD/svg11.dtd">
<svg xmlns:xlink="http://www.w3.org/1999/xlink" width="556.1825pt" height="505.696875pt" viewBox="0 0 556.1825 505.696875" xmlns="http://www.w3.org/2000/svg" version="1.1">
 <metadata>
  <rdf:RDF xmlns:dc="http://purl.org/dc/elements/1.1/" xmlns:cc="http://creativecommons.org/ns#" xmlns:rdf="http://www.w3.org/1999/02/22-rdf-syntax-ns#">
   <cc:Work>
    <dc:type rdf:resource="http://purl.org/dc/dcmitype/StillImage"/>
    <dc:date>2026-06-01T16:00:49.976938</dc:date>
    <dc:format>image/svg+xml</dc:format>
    <dc:creator>
     <cc:Agent>
      <dc:title>Matplotlib v3.10.8, https://matplotlib.org/</dc:title>
     </cc:Agent>
    </dc:creator>
   </cc:Work>
  </rdf:RDF>
 </metadata>
 <defs>
  <style type="text/css">*{stroke-linejoin: round; stroke-linecap: butt}</style>
 </defs>
 <g id="figure_1">
  <g id="patch_1">
   <path d="M 0 505.696875 
L 556.1825 505.696875 
L 556.1825 0 
L 0 0 
L 0 505.696875 
z
" style="fill: none"/>
  </g>
  <g id="axes_1">
   <g id="patch_2">
    <path d="M 60.6175 450.72 
L 507.0175 450.72 
L 507.0175 7.2 
L 60.6175 7.2 
L 60.6175 450.72 
z
" style="fill: none"/>
   </g>
   <g id="matplotlib.axis_1">
    <g id="xtick_1">
     <g id="line2d_1">
      <defs>
       <path id="m85b1194762" d="M 0 0 
L 0 3.5 
" style="stroke: #000000; stroke-width: 0.8"/>
      </defs>
      <g>
       <use xlink:href="#m85b1194762" x="75.4975" y="450.72" style="stroke: #000000; stroke-width: 0.8"/>
      </g>
     </g>
     <g id="text_1">
      <!-- 1 -->
      <g transform="translate(69.77125 471.397187) scale(0.18 -0.18)">
       <defs>
        <path id="DejaVuSans-31" d="M 794 531 
L 1825 531 
L 1825 4091 
L 703 3866 
L 703 4441 
L 1819 4666 
L 2450 4666 
L 2450 531 
L 3481 531 
L 3481 0 
L 794 0 
L 794 531 
z
" transform="scale(0.015625)"/>
       </defs>
       <use xlink:href="#DejaVuSans-31"/>
      </g>
     </g>
    </g>
    <g id="xtick_2">
     <g id="line2d_2">
      <g>
       <use xlink:href="#m85b1194762" x="105.2575" y="450.72" style="stroke: #000000; stroke-width: 0.8"/>
      </g>
     </g>
     <g id="text_2">
      <!-- 2 -->
      <g transform="translate(99.53125 471.397187) scale(0.18 -0.18)">
       <defs>
        <path id="DejaVuSans-32" d="M 1228 531 
L 3431 531 
L 3431 0 
L 469 0 
L 469 531 
Q 828 903 1448 1529 
Q 2069 2156 2228 2338 
Q 2531 2678 2651 2914 
Q 2772 3150 2772 3378 
Q 2772 3750 2511 3984 
Q 2250 4219 1831 4219 
Q 1534 4219 1204 4116 
Q 875 4013 500 3803 
L 500 4441 
Q 881 4594 1212 4672 
Q 1544 4750 1819 4750 
Q 2544 4750 2975 4387 
Q 3406 4025 3406 3419 
Q 3406 3131 3298 2873 
Q 3191 2616 2906 2266 
Q 2828 2175 2409 1742 
Q 1991 1309 1228 531 
z
" transform="scale(0.015625)"/>
       </defs>
       <use xlink:href="#DejaVuSans-32"/>
      </g>
     </g>
    </g>
    <g id="xtick_3">
     <g id="line2d_3">
      <g>
       <use xlink:href="#m85b1194762" x="135.0175" y="450.72" style="stroke: #000000; stroke-width: 0.8"/>
      </g>
     </g>
     <g id="text_3">
      <!-- 3 -->
      <g transform="translate(129.29125 471.397187) scale(0.18 -0.18)">
       <defs>
        <path id="DejaVuSans-33" d="M 2597 2516 
Q 3050 2419 3304 2112 
Q 3559 1806 3559 1356 
Q 3559 666 3084 287 
Q 2609 -91 1734 -91 
Q 1441 -91 1130 -33 
Q 819 25 488 141 
L 488 750 
Q 750 597 1062 519 
Q 1375 441 1716 441 
Q 2309 441 2620 675 
Q 2931 909 2931 1356 
Q 2931 1769 2642 2001 
Q 2353 2234 1838 2234 
L 1294 2234 
L 1294 2753 
L 1863 2753 
Q 2328 2753 2575 2939 
Q 2822 3125 2822 3475 
Q 2822 3834 2567 4026 
Q 2313 4219 1838 4219 
Q 1578 4219 1281 4162 
Q 984 4106 628 3988 
L 628 4550 
Q 988 4650 1302 4700 
Q 1616 4750 1894 4750 
Q 2613 4750 3031 4423 
Q 3450 4097 3450 3541 
Q 3450 3153 3228 2886 
Q 3006 2619 2597 2516 
z
" transform="scale(0.015625)"/>
       </defs>
       <use xlink:href="#DejaVuSans-33"/>
      </g>
     </g>
    </g>
    <g id="xtick_4">
     <g id="line2d_4">
      <g>
       <use xlink:href="#m85b1194762" x="164.7775" y="450.72" style="stroke: #000000; stroke-width: 0.8"/>
      </g>
     </g>
     <g id="text_4">
      <!-- 4 -->
      <g transform="translate(159.05125 471.397187) scale(0.18 -0.18)">
       <defs>
        <path id="DejaVuSans-34" d="M 2419 4116 
L 825 1625 
L 2419 1625 
L 2419 4116 
z
M 2253 4666 
L 3047 4666 
L 3047 1625 
L 3713 1625 
L 3713 1100 
L 3047 1100 
L 3047 0 
L 2419 0 
L 2419 1100 
L 313 1100 
L 313 1709 
L 2253 4666 
z
" transform="scale(0.015625)"/>
       </defs>
       <use xlink:href="#DejaVuSans-34"/>
      </g>
     </g>
    </g>
    <g id="xtick_5">
     <g id="line2d_5">
      <g>
       <use xlink:href="#m85b1194762" x="194.5375" y="450.72" style="stroke: #000000; stroke-width: 0.8"/>
      </g>
     </g>
     <g id="text_5">
      <!-- 5 -->
      <g transform="translate(188.81125 471.397187) scale(0.18 -0.18)">
       <defs>
        <path id="DejaVuSans-35" d="M 691 4666 
L 3169 4666 
L 3169 4134 
L 1269 4134 
L 1269 2991 
Q 1406 3038 1543 3061 
Q 1681 3084 1819 3084 
Q 2600 3084 3056 2656 
Q 3513 2228 3513 1497 
Q 3513 744 3044 326 
Q 2575 -91 1722 -91 
Q 1428 -91 1123 -41 
Q 819 9 494 109 
L 494 744 
Q 775 591 1075 516 
Q 1375 441 1709 441 
Q 2250 441 2565 725 
Q 2881 1009 2881 1497 
Q 2881 1984 2565 2268 
Q 2250 2553 1709 2553 
Q 1456 2553 1204 2497 
Q 953 2441 691 2322 
L 691 4666 
z
" transform="scale(0.015625)"/>
       </defs>
       <use xlink:href="#DejaVuSans-35"/>
      </g>
     </g>
    </g>
    <g id="xtick_6">
     <g id="line2d_6">
      <g>
       <use xlink:href="#m85b1194762" x="224.2975" y="450.72" style="stroke: #000000; stroke-width: 0.8"/>
      </g>
     </g>
     <g id="text_6">
      <!-- 6 -->
      <g transform="translate(218.57125 471.397187) scale(0.18 -0.18)">
       <defs>
        <path id="DejaVuSans-36" d="M 2113 2584 
Q 1688 2584 1439 2293 
Q 1191 2003 1191 1497 
Q 1191 994 1439 701 
Q 1688 409 2113 409 
Q 2538 409 2786 701 
Q 3034 994 3034 1497 
Q 3034 2003 2786 2293 
Q 2538 2584 2113 2584 
z
M 3366 4563 
L 3366 3988 
Q 3128 4100 2886 4159 
Q 2644 4219 2406 4219 
Q 1781 4219 1451 3797 
Q 1122 3375 1075 2522 
Q 1259 2794 1537 2939 
Q 1816 3084 2150 3084 
Q 2853 3084 3261 2657 
Q 3669 2231 3669 1497 
Q 3669 778 3244 343 
Q 2819 -91 2113 -91 
Q 1303 -91 875 529 
Q 447 1150 447 2328 
Q 447 3434 972 4092 
Q 1497 4750 2381 4750 
Q 2619 4750 2861 4703 
Q 3103 4656 3366 4563 
z
" transform="scale(0.015625)"/>
       </defs>
       <use xlink:href="#DejaVuSans-36"/>
      </g>
     </g>
    </g>
    <g id="xtick_7">
     <g id="line2d_7">
      <g>
       <use xlink:href="#m85b1194762" x="254.0575" y="450.72" style="stroke: #000000; stroke-width: 0.8"/>
      </g>
     </g>
     <g id="text_7">
      <!-- 7 -->
      <g transform="translate(248.33125 471.397187) scale(0.18 -0.18)">
       <defs>
        <path id="DejaVuSans-37" d="M 525 4666 
L 3525 4666 
L 3525 4397 
L 1831 0 
L 1172 0 
L 2766 4134 
L 525 4134 
L 525 4666 
z
" transform="scale(0.015625)"/>
       </defs>
       <use xlink:href="#DejaVuSans-37"/>
      </g>
     </g>
    </g>
    <g id="xtick_8">
     <g id="line2d_8">
      <g>
       <use xlink:href="#m85b1194762" x="283.8175" y="450.72" style="stroke: #000000; stroke-width: 0.8"/>
      </g>
     </g>
     <g id="text_8">
      <!-- 8 -->
      <g transform="translate(278.09125 471.397187) scale(0.18 -0.18)">
       <defs>
        <path id="DejaVuSans-38" d="M 2034 2216 
Q 1584 2216 1326 1975 
Q 1069 1734 1069 1313 
Q 1069 891 1326 650 
Q 1584 409 2034 409 
Q 2484 409 2743 651 
Q 3003 894 3003 1313 
Q 3003 1734 2745 1975 
Q 2488 2216 2034 2216 
z
M 1403 2484 
Q 997 2584 770 2862 
Q 544 3141 544 3541 
Q 544 4100 942 4425 
Q 1341 4750 2034 4750 
Q 2731 4750 3128 4425 
Q 3525 4100 3525 3541 
Q 3525 3141 3298 2862 
Q 3072 2584 2669 2484 
Q 3125 2378 3379 2068 
Q 3634 1759 3634 1313 
Q 3634 634 3220 271 
Q 2806 -91 2034 -91 
Q 1263 -91 848 271 
Q 434 634 434 1313 
Q 434 1759 690 2068 
Q 947 2378 1403 2484 
z
M 1172 3481 
Q 1172 3119 1398 2916 
Q 1625 2713 2034 2713 
Q 2441 2713 2670 2916 
Q 2900 3119 2900 3481 
Q 2900 3844 2670 4047 
Q 2441 4250 2034 4250 
Q 1625 4250 1398 4047 
Q 1172 3844 1172 3481 
z
" transform="scale(0.015625)"/>
       </defs>
       <use xlink:href="#DejaVuSans-38"/>
      </g>
     </g>
    </g>
    <g id="xtick_9">
     <g id="line2d_9">
      <g>
       <use xlink:href="#m85b1194762" x="313.5775" y="450.72" style="stroke: #000000; stroke-width: 0.8"/>
      </g>
     </g>
     <g id="text_9">
      <!-- 9 -->
      <g transform="translate(307.85125 471.397187) scale(0.18 -0.18)">
       <defs>
        <path id="DejaVuSans-39" d="M 703 97 
L 703 672 
Q 941 559 1184 500 
Q 1428 441 1663 441 
Q 2288 441 2617 861 
Q 2947 1281 2994 2138 
Q 2813 1869 2534 1725 
Q 2256 1581 1919 1581 
Q 1219 1581 811 2004 
Q 403 2428 403 3163 
Q 403 3881 828 4315 
Q 1253 4750 1959 4750 
Q 2769 4750 3195 4129 
Q 3622 3509 3622 2328 
Q 3622 1225 3098 567 
Q 2575 -91 1691 -91 
Q 1453 -91 1209 -44 
Q 966 3 703 97 
z
M 1959 2075 
Q 2384 2075 2632 2365 
Q 2881 2656 2881 3163 
Q 2881 3666 2632 3958 
Q 2384 4250 1959 4250 
Q 1534 4250 1286 3958 
Q 1038 3666 1038 3163 
Q 1038 2656 1286 2365 
Q 1534 2075 1959 2075 
z
" transform="scale(0.015625)"/>
       </defs>
       <use xlink:href="#DejaVuSans-39"/>
      </g>
     </g>
    </g>
    <g id="xtick_10">
     <g id="line2d_10">
      <g>
       <use xlink:href="#m85b1194762" x="343.3375" y="450.72" style="stroke: #000000; stroke-width: 0.8"/>
      </g>
     </g>
     <g id="text_10">
      <!-- 10 -->
      <g transform="translate(331.885 471.397187) scale(0.18 -0.18)">
       <defs>
        <path id="DejaVuSans-30" d="M 2034 4250 
Q 1547 4250 1301 3770 
Q 1056 3291 1056 2328 
Q 1056 1369 1301 889 
Q 1547 409 2034 409 
Q 2525 409 2770 889 
Q 3016 1369 3016 2328 
Q 3016 3291 2770 3770 
Q 2525 4250 2034 4250 
z
M 2034 4750 
Q 2819 4750 3233 4129 
Q 3647 3509 3647 2328 
Q 3647 1150 3233 529 
Q 2819 -91 2034 -91 
Q 1250 -91 836 529 
Q 422 1150 422 2328 
Q 422 3509 836 4129 
Q 1250 4750 2034 4750 
z
" transform="scale(0.015625)"/>
       </defs>
       <use xlink:href="#DejaVuSans-31"/>
       <use xlink:href="#DejaVuSans-30" transform="translate(63.623047 0)"/>
      </g>
     </g>
    </g>
    <g id="xtick_11">
     <g id="line2d_11">
      <g>
       <use xlink:href="#m85b1194762" x="373.0975" y="450.72" style="stroke: #000000; stroke-width: 0.8"/>
      </g>
     </g>
     <g id="text_11">
      <!-- 11 -->
      <g transform="translate(361.645 471.397187) scale(0.18 -0.18)">
       <use xlink:href="#DejaVuSans-31"/>
       <use xlink:href="#DejaVuSans-31" transform="translate(63.623047 0)"/>
      </g>
     </g>
    </g>
    <g id="xtick_12">
     <g id="line2d_12">
      <g>
       <use xlink:href="#m85b1194762" x="402.8575" y="450.72" style="stroke: #000000; stroke-width: 0.8"/>
      </g>
     </g>
     <g id="text_12">
      <!-- 12 -->
      <g transform="translate(391.405 471.397187) scale(0.18 -0.18)">
       <use xlink:href="#DejaVuSans-31"/>
       <use xlink:href="#DejaVuSans-32" transform="translate(63.623047 0)"/>
      </g>
     </g>
    </g>
    <g id="xtick_13">
     <g id="line2d_13">
      <g>
       <use xlink:href="#m85b1194762" x="432.6175" y="450.72" style="stroke: #000000; stroke-width: 0.8"/>
      </g>
     </g>
     <g id="text_13">
      <!-- 13 -->
      <g transform="translate(421.165 471.397187) scale(0.18 -0.18)">
       <use xlink:href="#DejaVuSans-31"/>
       <use xlink:href="#DejaVuSans-33" transform="translate(63.623047 0)"/>
      </g>
     </g>
    </g>
    <g id="xtick_14">
     <g id="line2d_14">
      <g>
       <use xlink:href="#m85b1194762" x="462.3775" y="450.72" style="stroke: #000000; stroke-width: 0.8"/>
      </g>
     </g>
     <g id="text_14">
      <!-- 14 -->
      <g transform="translate(450.925 471.397187) scale(0.18 -0.18)">
       <use xlink:href="#DejaVuSans-31"/>
       <use xlink:href="#DejaVuSans-34" transform="translate(63.623047 0)"/>
      </g>
     </g>
    </g>
    <g id="xtick_15">
     <g id="line2d_15">
      <g>
       <use xlink:href="#m85b1194762" x="492.1375" y="450.72" style="stroke: #000000; stroke-width: 0.8"/>
      </g>
     </g>
     <g id="text_15">
      <!-- 15 -->
      <g transform="translate(480.685 471.397187) scale(0.18 -0.18)">
       <use xlink:href="#DejaVuSans-31"/>
       <use xlink:href="#DejaVuSans-35" transform="translate(63.623047 0)"/>
      </g>
     </g>
    </g>
    <g id="text_16">
     <!-- G stretch -->
     <g transform="translate(231.856562 494.3375) scale(0.2 -0.2)">
      <defs>
       <path id="DejaVuSans-Bold-47" d="M 4781 347 
Q 4331 128 3847 18 
Q 3363 -91 2847 -91 
Q 1681 -91 1000 561 
Q 319 1213 319 2328 
Q 319 3456 1012 4103 
Q 1706 4750 2913 4750 
Q 3378 4750 3804 4662 
Q 4231 4575 4609 4403 
L 4609 3438 
Q 4219 3659 3833 3768 
Q 3447 3878 3059 3878 
Q 2341 3878 1952 3476 
Q 1563 3075 1563 2328 
Q 1563 1588 1938 1184 
Q 2313 781 3003 781 
Q 3191 781 3352 804 
Q 3513 828 3641 878 
L 3641 1784 
L 2906 1784 
L 2906 2591 
L 4781 2591 
L 4781 347 
z
" transform="scale(0.015625)"/>
       <path id="DejaVuSans-Bold-20" transform="scale(0.015625)"/>
       <path id="DejaVuSans-Bold-73" d="M 3272 3391 
L 3272 2541 
Q 2913 2691 2578 2766 
Q 2244 2841 1947 2841 
Q 1628 2841 1473 2761 
Q 1319 2681 1319 2516 
Q 1319 2381 1436 2309 
Q 1553 2238 1856 2203 
L 2053 2175 
Q 2913 2066 3209 1816 
Q 3506 1566 3506 1031 
Q 3506 472 3093 190 
Q 2681 -91 1863 -91 
Q 1516 -91 1145 -36 
Q 775 19 384 128 
L 384 978 
Q 719 816 1070 734 
Q 1422 653 1784 653 
Q 2113 653 2278 743 
Q 2444 834 2444 1013 
Q 2444 1163 2330 1236 
Q 2216 1309 1875 1350 
L 1678 1375 
Q 931 1469 631 1722 
Q 331 1975 331 2491 
Q 331 3047 712 3315 
Q 1094 3584 1881 3584 
Q 2191 3584 2531 3537 
Q 2872 3491 3272 3391 
z
" transform="scale(0.015625)"/>
       <path id="DejaVuSans-Bold-74" d="M 1759 4494 
L 1759 3500 
L 2913 3500 
L 2913 2700 
L 1759 2700 
L 1759 1216 
Q 1759 972 1856 886 
Q 1953 800 2241 800 
L 2816 800 
L 2816 0 
L 1856 0 
Q 1194 0 917 276 
Q 641 553 641 1216 
L 641 2700 
L 84 2700 
L 84 3500 
L 641 3500 
L 641 4494 
L 1759 4494 
z
" transform="scale(0.015625)"/>
       <path id="DejaVuSans-Bold-72" d="M 3138 2547 
Q 2991 2616 2845 2648 
Q 2700 2681 2553 2681 
Q 2122 2681 1889 2404 
Q 1656 2128 1656 1613 
L 1656 0 
L 538 0 
L 538 3500 
L 1656 3500 
L 1656 2925 
Q 1872 3269 2151 3426 
Q 2431 3584 2822 3584 
Q 2878 3584 2943 3579 
Q 3009 3575 3134 3559 
L 3138 2547 
z
" transform="scale(0.015625)"/>
       <path id="DejaVuSans-Bold-65" d="M 4031 1759 
L 4031 1441 
L 1416 1441 
Q 1456 1047 1700 850 
Q 1944 653 2381 653 
Q 2734 653 3104 758 
Q 3475 863 3866 1075 
L 3866 213 
Q 3469 63 3072 -14 
Q 2675 -91 2278 -91 
Q 1328 -91 801 392 
Q 275 875 275 1747 
Q 275 2603 792 3093 
Q 1309 3584 2216 3584 
Q 3041 3584 3536 3087 
Q 4031 2591 4031 1759 
z
M 2881 2131 
Q 2881 2450 2695 2645 
Q 2509 2841 2209 2841 
Q 1884 2841 1681 2658 
Q 1478 2475 1428 2131 
L 2881 2131 
z
" transform="scale(0.015625)"/>
       <path id="DejaVuSans-Bold-63" d="M 3366 3391 
L 3366 2478 
Q 3138 2634 2908 2709 
Q 2678 2784 2431 2784 
Q 1963 2784 1702 2511 
Q 1441 2238 1441 1747 
Q 1441 1256 1702 982 
Q 1963 709 2431 709 
Q 2694 709 2930 787 
Q 3166 866 3366 1019 
L 3366 103 
Q 3103 6 2833 -42 
Q 2563 -91 2291 -91 
Q 1344 -91 809 395 
Q 275 881 275 1747 
Q 275 2613 809 3098 
Q 1344 3584 2291 3584 
Q 2566 3584 2833 3536 
Q 3100 3488 3366 3391 
z
" transform="scale(0.015625)"/>
       <path id="DejaVuSans-Bold-68" d="M 4056 2131 
L 4056 0 
L 2931 0 
L 2931 347 
L 2931 1625 
Q 2931 2084 2911 2256 
Q 2891 2428 2841 2509 
Q 2775 2619 2662 2680 
Q 2550 2741 2406 2741 
Q 2056 2741 1856 2470 
Q 1656 2200 1656 1722 
L 1656 0 
L 538 0 
L 538 4863 
L 1656 4863 
L 1656 2988 
Q 1909 3294 2193 3439 
Q 2478 3584 2822 3584 
Q 3428 3584 3742 3212 
Q 4056 2841 4056 2131 
z
" transform="scale(0.015625)"/>
      </defs>
      <use xlink:href="#DejaVuSans-Bold-47"/>
      <use xlink:href="#DejaVuSans-Bold-20" transform="translate(82.080078 0)"/>
      <use xlink:href="#DejaVuSans-Bold-73" transform="translate(116.894531 0)"/>
      <use xlink:href="#DejaVuSans-Bold-74" transform="translate(176.416016 0)"/>
      <use xlink:href="#DejaVuSans-Bold-72" transform="translate(224.21875 0)"/>
      <use xlink:href="#DejaVuSans-Bold-65" transform="translate(273.535156 0)"/>
      <use xlink:href="#DejaVuSans-Bold-74" transform="translate(341.357422 0)"/>
      <use xlink:href="#DejaVuSans-Bold-63" transform="translate(389.160156 0)"/>
      <use xlink:href="#DejaVuSans-Bold-68" transform="translate(448.4375 0)"/>
     </g>
    </g>
   </g>
   <g id="matplotlib.axis_2">
    <g id="ytick_1">
     <g id="line2d_16">
      <defs>
       <path id="mcfdac0898a" d="M 0 0 
L -3.5 0 
" style="stroke: #ffc25f; stroke-width: 0.8"/>
      </defs>
      <g>
       <use xlink:href="#mcfdac0898a" x="60.6175" y="432.889754" style="fill: #ffc25f; stroke: #ffc25f; stroke-width: 0.8"/>
      </g>
     </g>
     <g id="text_17">
      <!-- 4 -->
      <g style="fill: #ffc25f" transform="translate(42.165 439.728348) scale(0.18 -0.18)">
       <use xlink:href="#DejaVuSans-34"/>
      </g>
     </g>
    </g>
    <g id="ytick_2">
     <g id="line2d_17">
      <g>
       <use xlink:href="#mcfdac0898a" x="60.6175" y="379.615607" style="fill: #ffc25f; stroke: #ffc25f; stroke-width: 0.8"/>
      </g>
     </g>
     <g id="text_18">
      <!-- 6 -->
      <g style="fill: #ffc25f" transform="translate(42.165 386.454201) scale(0.18 -0.18)">
       <use xlink:href="#DejaVuSans-36"/>
      </g>
     </g>
    </g>
    <g id="ytick_3">
     <g id="line2d_18">
      <g>
       <use xlink:href="#mcfdac0898a" x="60.6175" y="326.34146" style="fill: #ffc25f; stroke: #ffc25f; stroke-width: 0.8"/>
      </g>
     </g>
     <g id="text_19">
      <!-- 8 -->
      <g style="fill: #ffc25f" transform="translate(42.165 333.180054) scale(0.18 -0.18)">
       <use xlink:href="#DejaVuSans-38"/>
      </g>
     </g>
    </g>
    <g id="ytick_4">
     <g id="line2d_19">
      <g>
       <use xlink:href="#mcfdac0898a" x="60.6175" y="273.067313" style="fill: #ffc25f; stroke: #ffc25f; stroke-width: 0.8"/>
      </g>
     </g>
     <g id="text_20">
      <!-- 10 -->
      <g style="fill: #ffc25f" transform="translate(30.7125 279.905907) scale(0.18 -0.18)">
       <use xlink:href="#DejaVuSans-31"/>
       <use xlink:href="#DejaVuSans-30" transform="translate(63.623047 0)"/>
      </g>
     </g>
    </g>
    <g id="ytick_5">
     <g id="line2d_20">
      <g>
       <use xlink:href="#mcfdac0898a" x="60.6175" y="219.793166" style="fill: #ffc25f; stroke: #ffc25f; stroke-width: 0.8"/>
      </g>
     </g>
     <g id="text_21">
      <!-- 12 -->
      <g style="fill: #ffc25f" transform="translate(30.7125 226.63176) scale(0.18 -0.18)">
       <use xlink:href="#DejaVuSans-31"/>
       <use xlink:href="#DejaVuSans-32" transform="translate(63.623047 0)"/>
      </g>
     </g>
    </g>
    <g id="ytick_6">
     <g id="line2d_21">
      <g>
       <use xlink:href="#mcfdac0898a" x="60.6175" y="166.519019" style="fill: #ffc25f; stroke: #ffc25f; stroke-width: 0.8"/>
      </g>
     </g>
     <g id="text_22">
      <!-- 14 -->
      <g style="fill: #ffc25f" transform="translate(30.7125 173.357613) scale(0.18 -0.18)">
       <use xlink:href="#DejaVuSans-31"/>
       <use xlink:href="#DejaVuSans-34" transform="translate(63.623047 0)"/>
      </g>
     </g>
    </g>
    <g id="ytick_7">
     <g id="line2d_22">
      <g>
       <use xlink:href="#mcfdac0898a" x="60.6175" y="113.244872" style="fill: #ffc25f; stroke: #ffc25f; stroke-width: 0.8"/>
      </g>
     </g>
     <g id="text_23">
      <!-- 16 -->
      <g style="fill: #ffc25f" transform="translate(30.7125 120.083466) scale(0.18 -0.18)">
       <use xlink:href="#DejaVuSans-31"/>
       <use xlink:href="#DejaVuSans-36" transform="translate(63.623047 0)"/>
      </g>
     </g>
    </g>
    <g id="ytick_8">
     <g id="line2d_23">
      <g>
       <use xlink:href="#mcfdac0898a" x="60.6175" y="59.970725" style="fill: #ffc25f; stroke: #ffc25f; stroke-width: 0.8"/>
      </g>
     </g>
     <g id="text_24">
      <!-- 18 -->
      <g style="fill: #ffc25f" transform="translate(30.7125 66.809319) scale(0.18 -0.18)">
       <use xlink:href="#DejaVuSans-31"/>
       <use xlink:href="#DejaVuSans-38" transform="translate(63.623047 0)"/>
      </g>
     </g>
    </g>
    <g id="text_25">
     <!-- log2(reads per cCRE) -->
     <g style="fill: #ffc25f" transform="translate(22.396875 347.719375) rotate(-90) scale(0.2 -0.2)">
      <defs>
       <path id="DejaVuSans-Bold-6c" d="M 538 4863 
L 1656 4863 
L 1656 0 
L 538 0 
L 538 4863 
z
" transform="scale(0.015625)"/>
       <path id="DejaVuSans-Bold-6f" d="M 2203 2784 
Q 1831 2784 1636 2517 
Q 1441 2250 1441 1747 
Q 1441 1244 1636 976 
Q 1831 709 2203 709 
Q 2569 709 2762 976 
Q 2956 1244 2956 1747 
Q 2956 2250 2762 2517 
Q 2569 2784 2203 2784 
z
M 2203 3584 
Q 3106 3584 3614 3096 
Q 4122 2609 4122 1747 
Q 4122 884 3614 396 
Q 3106 -91 2203 -91 
Q 1297 -91 786 396 
Q 275 884 275 1747 
Q 275 2609 786 3096 
Q 1297 3584 2203 3584 
z
" transform="scale(0.015625)"/>
       <path id="DejaVuSans-Bold-67" d="M 2919 594 
Q 2688 288 2409 144 
Q 2131 0 1766 0 
Q 1125 0 706 504 
Q 288 1009 288 1791 
Q 288 2575 706 3076 
Q 1125 3578 1766 3578 
Q 2131 3578 2409 3434 
Q 2688 3291 2919 2981 
L 2919 3500 
L 4044 3500 
L 4044 353 
Q 4044 -491 3511 -936 
Q 2978 -1381 1966 -1381 
Q 1638 -1381 1331 -1331 
Q 1025 -1281 716 -1178 
L 716 -306 
Q 1009 -475 1290 -558 
Q 1572 -641 1856 -641 
Q 2406 -641 2662 -400 
Q 2919 -159 2919 353 
L 2919 594 
z
M 2181 2772 
Q 1834 2772 1640 2515 
Q 1447 2259 1447 1791 
Q 1447 1309 1634 1061 
Q 1822 813 2181 813 
Q 2531 813 2725 1069 
Q 2919 1325 2919 1791 
Q 2919 2259 2725 2515 
Q 2531 2772 2181 2772 
z
" transform="scale(0.015625)"/>
       <path id="DejaVuSans-Bold-32" d="M 1844 884 
L 3897 884 
L 3897 0 
L 506 0 
L 506 884 
L 2209 2388 
Q 2438 2594 2547 2791 
Q 2656 2988 2656 3200 
Q 2656 3528 2436 3728 
Q 2216 3928 1850 3928 
Q 1569 3928 1234 3808 
Q 900 3688 519 3450 
L 519 4475 
Q 925 4609 1322 4679 
Q 1719 4750 2100 4750 
Q 2938 4750 3402 4381 
Q 3866 4013 3866 3353 
Q 3866 2972 3669 2642 
Q 3472 2313 2841 1759 
L 1844 884 
z
" transform="scale(0.015625)"/>
       <path id="DejaVuSans-Bold-28" d="M 2413 -844 
L 1484 -844 
Q 1006 -72 778 623 
Q 550 1319 550 2003 
Q 550 2688 779 3389 
Q 1009 4091 1484 4856 
L 2413 4856 
Q 2013 4116 1813 3408 
Q 1613 2700 1613 2009 
Q 1613 1319 1811 609 
Q 2009 -100 2413 -844 
z
" transform="scale(0.015625)"/>
       <path id="DejaVuSans-Bold-61" d="M 2106 1575 
Q 1756 1575 1579 1456 
Q 1403 1338 1403 1106 
Q 1403 894 1545 773 
Q 1688 653 1941 653 
Q 2256 653 2472 879 
Q 2688 1106 2688 1447 
L 2688 1575 
L 2106 1575 
z
M 3816 1997 
L 3816 0 
L 2688 0 
L 2688 519 
Q 2463 200 2181 54 
Q 1900 -91 1497 -91 
Q 953 -91 614 226 
Q 275 544 275 1050 
Q 275 1666 698 1953 
Q 1122 2241 2028 2241 
L 2688 2241 
L 2688 2328 
Q 2688 2594 2478 2717 
Q 2269 2841 1825 2841 
Q 1466 2841 1156 2769 
Q 847 2697 581 2553 
L 581 3406 
Q 941 3494 1303 3539 
Q 1666 3584 2028 3584 
Q 2975 3584 3395 3211 
Q 3816 2838 3816 1997 
z
" transform="scale(0.015625)"/>
       <path id="DejaVuSans-Bold-64" d="M 2919 2988 
L 2919 4863 
L 4044 4863 
L 4044 0 
L 2919 0 
L 2919 506 
Q 2688 197 2409 53 
Q 2131 -91 1766 -91 
Q 1119 -91 703 423 
Q 288 938 288 1747 
Q 288 2556 703 3070 
Q 1119 3584 1766 3584 
Q 2128 3584 2408 3439 
Q 2688 3294 2919 2988 
z
M 2181 722 
Q 2541 722 2730 984 
Q 2919 1247 2919 1747 
Q 2919 2247 2730 2509 
Q 2541 2772 2181 2772 
Q 1825 2772 1636 2509 
Q 1447 2247 1447 1747 
Q 1447 1247 1636 984 
Q 1825 722 2181 722 
z
" transform="scale(0.015625)"/>
       <path id="DejaVuSans-Bold-70" d="M 1656 506 
L 1656 -1331 
L 538 -1331 
L 538 3500 
L 1656 3500 
L 1656 2988 
Q 1888 3294 2169 3439 
Q 2450 3584 2816 3584 
Q 3463 3584 3878 3070 
Q 4294 2556 4294 1747 
Q 4294 938 3878 423 
Q 3463 -91 2816 -91 
Q 2450 -91 2169 54 
Q 1888 200 1656 506 
z
M 2400 2772 
Q 2041 2772 1848 2508 
Q 1656 2244 1656 1747 
Q 1656 1250 1848 986 
Q 2041 722 2400 722 
Q 2759 722 2948 984 
Q 3138 1247 3138 1747 
Q 3138 2247 2948 2509 
Q 2759 2772 2400 2772 
z
" transform="scale(0.015625)"/>
       <path id="DejaVuSans-Bold-43" d="M 4288 256 
Q 3956 84 3597 -3 
Q 3238 -91 2847 -91 
Q 1681 -91 1000 561 
Q 319 1213 319 2328 
Q 319 3447 1000 4098 
Q 1681 4750 2847 4750 
Q 3238 4750 3597 4662 
Q 3956 4575 4288 4403 
L 4288 3438 
Q 3953 3666 3628 3772 
Q 3303 3878 2944 3878 
Q 2300 3878 1931 3465 
Q 1563 3053 1563 2328 
Q 1563 1606 1931 1193 
Q 2300 781 2944 781 
Q 3303 781 3628 887 
Q 3953 994 4288 1222 
L 4288 256 
z
" transform="scale(0.015625)"/>
       <path id="DejaVuSans-Bold-52" d="M 2297 2597 
Q 2675 2597 2839 2737 
Q 3003 2878 3003 3200 
Q 3003 3519 2839 3656 
Q 2675 3794 2297 3794 
L 1791 3794 
L 1791 2597 
L 2297 2597 
z
M 1791 1766 
L 1791 0 
L 588 0 
L 588 4666 
L 2425 4666 
Q 3347 4666 3776 4356 
Q 4206 4047 4206 3378 
Q 4206 2916 3982 2619 
Q 3759 2322 3309 2181 
Q 3556 2125 3751 1926 
Q 3947 1728 4147 1325 
L 4800 0 
L 3519 0 
L 2950 1159 
Q 2778 1509 2601 1637 
Q 2425 1766 2131 1766 
L 1791 1766 
z
" transform="scale(0.015625)"/>
       <path id="DejaVuSans-Bold-45" d="M 588 4666 
L 3834 4666 
L 3834 3756 
L 1791 3756 
L 1791 2888 
L 3713 2888 
L 3713 1978 
L 1791 1978 
L 1791 909 
L 3903 909 
L 3903 0 
L 588 0 
L 588 4666 
z
" transform="scale(0.015625)"/>
       <path id="DejaVuSans-Bold-29" d="M 513 -844 
Q 913 -100 1113 609 
Q 1313 1319 1313 2009 
Q 1313 2700 1113 3408 
Q 913 4116 513 4856 
L 1441 4856 
Q 1916 4091 2145 3389 
Q 2375 2688 2375 2003 
Q 2375 1319 2147 623 
Q 1919 -72 1441 -844 
L 513 -844 
z
" transform="scale(0.015625)"/>
      </defs>
      <use xlink:href="#DejaVuSans-Bold-6c"/>
      <use xlink:href="#DejaVuSans-Bold-6f" transform="translate(34.277344 0)"/>
      <use xlink:href="#DejaVuSans-Bold-67" transform="translate(102.978516 0)"/>
      <use xlink:href="#DejaVuSans-Bold-32" transform="translate(174.560547 0)"/>
      <use xlink:href="#DejaVuSans-Bold-28" transform="translate(244.140625 0)"/>
      <use xlink:href="#DejaVuSans-Bold-72" transform="translate(289.84375 0)"/>
      <use xlink:href="#DejaVuSans-Bold-65" transform="translate(339.160156 0)"/>
      <use xlink:href="#DejaVuSans-Bold-61" transform="translate(406.982422 0)"/>
      <use xlink:href="#DejaVuSans-Bold-64" transform="translate(474.462891 0)"/>
      <use xlink:href="#DejaVuSans-Bold-73" transform="translate(546.044922 0)"/>
      <use xlink:href="#DejaVuSans-Bold-20" transform="translate(605.566406 0)"/>
      <use xlink:href="#DejaVuSans-Bold-70" transform="translate(640.380859 0)"/>
      <use xlink:href="#DejaVuSans-Bold-65" transform="translate(711.962891 0)"/>
      <use xlink:href="#DejaVuSans-Bold-72" transform="translate(779.785156 0)"/>
      <use xlink:href="#DejaVuSans-Bold-20" transform="translate(829.101562 0)"/>
      <use xlink:href="#DejaVuSans-Bold-63" transform="translate(863.916016 0)"/>
      <use xlink:href="#DejaVuSans-Bold-43" transform="translate(923.193359 0)"/>
      <use xlink:href="#DejaVuSans-Bold-52" transform="translate(996.582031 0)"/>
      <use xlink:href="#DejaVuSans-Bold-45" transform="translate(1073.583984 0)"/>
      <use xlink:href="#DejaVuSans-Bold-29" transform="translate(1141.894531 0)"/>
     </g>
    </g>
   </g>
   <g id="patch_3">
    <path d="M 65.0815 266.085873 
L 85.9135 266.085873 
L 85.9135 191.656452 
L 65.0815 191.656452 
L 65.0815 266.085873 
z
" clip-path="url(#p7416436d6f)" style="fill: #ffc25f; stroke: #000000; stroke-linejoin: miter"/>
   </g>
   <g id="line2d_24">
    <path d="M 75.4975 266.085873 
L 75.4975 375.626782 
" clip-path="url(#p7416436d6f)" style="fill: none; stroke: #808080; stroke-linecap: square"/>
   </g>
   <g id="line2d_25">
    <path d="M 75.4975 191.656452 
L 75.4975 109.959633 
" clip-path="url(#p7416436d6f)" style="fill: none; stroke: #808080; stroke-linecap: square"/>
   </g>
   <g id="line2d_26">
    <path d="M 70.2895 375.626782 
L 80.7055 375.626782 
" clip-path="url(#p7416436d6f)" style="fill: none; stroke: #808080; stroke-linecap: square"/>
   </g>
   <g id="line2d_27">
    <path d="M 70.2895 109.959633 
L 80.7055 109.959633 
" clip-path="url(#p7416436d6f)" style="fill: none; stroke: #808080; stroke-linecap: square"/>
   </g>
   <g id="patch_4">
    <path d="M 94.8415 239.129374 
L 115.6735 239.129374 
L 115.6735 162.040704 
L 94.8415 162.040704 
L 94.8415 239.129374 
z
" clip-path="url(#p7416436d6f)" style="fill: #ffc25f; stroke: #000000; stroke-linejoin: miter"/>
   </g>
   <g id="line2d_28">
    <path d="M 105.2575 239.129374 
L 105.2575 353.58373 
" clip-path="url(#p7416436d6f)" style="fill: none; stroke: #808080; stroke-linecap: square"/>
   </g>
   <g id="line2d_29">
    <path d="M 105.2575 162.040704 
L 105.2575 54.040267 
" clip-path="url(#p7416436d6f)" style="fill: none; stroke: #808080; stroke-linecap: square"/>
   </g>
   <g id="line2d_30">
    <path d="M 100.0495 353.58373 
L 110.4655 353.58373 
" clip-path="url(#p7416436d6f)" style="fill: none; stroke: #808080; stroke-linecap: square"/>
   </g>
   <g id="line2d_31">
    <path d="M 100.0495 54.040267 
L 110.4655 54.040267 
" clip-path="url(#p7416436d6f)" style="fill: none; stroke: #808080; stroke-linecap: square"/>
   </g>
   <g id="patch_5">
    <path d="M 124.6015 224.113034 
L 145.4335 224.113034 
L 145.4335 148.734353 
L 124.6015 148.734353 
L 124.6015 224.113034 
z
" clip-path="url(#p7416436d6f)" style="fill: #ffc25f; stroke: #000000; stroke-linejoin: miter"/>
   </g>
   <g id="line2d_32">
    <path d="M 135.0175 224.113034 
L 135.0175 336.998611 
" clip-path="url(#p7416436d6f)" style="fill: none; stroke: #808080; stroke-linecap: square"/>
   </g>
   <g id="line2d_33">
    <path d="M 135.0175 148.734353 
L 135.0175 47.485198 
" clip-path="url(#p7416436d6f)" style="fill: none; stroke: #808080; stroke-linecap: square"/>
   </g>
   <g id="line2d_34">
    <path d="M 129.8095 336.998611 
L 140.2255 336.998611 
" clip-path="url(#p7416436d6f)" style="fill: none; stroke: #808080; stroke-linecap: square"/>
   </g>
   <g id="line2d_35">
    <path d="M 129.8095 47.485198 
L 140.2255 47.485198 
" clip-path="url(#p7416436d6f)" style="fill: none; stroke: #808080; stroke-linecap: square"/>
   </g>
   <g id="patch_6">
    <path d="M 154.3615 218.939601 
L 175.1935 218.939601 
L 175.1935 140.150273 
L 154.3615 140.150273 
L 154.3615 218.939601 
z
" clip-path="url(#p7416436d6f)" style="fill: #ffc25f; stroke: #000000; stroke-linejoin: miter"/>
   </g>
   <g id="line2d_36">
    <path d="M 164.7775 218.939601 
L 164.7775 336.998611 
" clip-path="url(#p7416436d6f)" style="fill: none; stroke: #808080; stroke-linecap: square"/>
   </g>
   <g id="line2d_37">
    <path d="M 164.7775 140.150273 
L 164.7775 27.36 
" clip-path="url(#p7416436d6f)" style="fill: none; stroke: #808080; stroke-linecap: square"/>
   </g>
   <g id="line2d_38">
    <path d="M 159.5695 336.998611 
L 169.9855 336.998611 
" clip-path="url(#p7416436d6f)" style="fill: none; stroke: #808080; stroke-linecap: square"/>
   </g>
   <g id="line2d_39">
    <path d="M 159.5695 27.36 
L 169.9855 27.36 
" clip-path="url(#p7416436d6f)" style="fill: none; stroke: #808080; stroke-linecap: square"/>
   </g>
   <g id="patch_7">
    <path d="M 184.1215 227.233654 
L 204.9535 227.233654 
L 204.9535 140.790352 
L 184.1215 140.790352 
L 184.1215 227.233654 
z
" clip-path="url(#p7416436d6f)" style="fill: #ffc25f; stroke: #000000; stroke-linejoin: miter"/>
   </g>
   <g id="line2d_40">
    <path d="M 194.5375 227.233654 
L 194.5375 356.104579 
" clip-path="url(#p7416436d6f)" style="fill: none; stroke: #808080; stroke-linecap: square"/>
   </g>
   <g id="line2d_41">
    <path d="M 194.5375 140.790352 
L 194.5375 62.073707 
" clip-path="url(#p7416436d6f)" style="fill: none; stroke: #808080; stroke-linecap: square"/>
   </g>
   <g id="line2d_42">
    <path d="M 189.3295 356.104579 
L 199.7455 356.104579 
" clip-path="url(#p7416436d6f)" style="fill: none; stroke: #808080; stroke-linecap: square"/>
   </g>
   <g id="line2d_43">
    <path d="M 189.3295 62.073707 
L 199.7455 62.073707 
" clip-path="url(#p7416436d6f)" style="fill: none; stroke: #808080; stroke-linecap: square"/>
   </g>
   <g id="patch_8">
    <path d="M 213.8815 228.053982 
L 234.7135 228.053982 
L 234.7135 139.766968 
L 213.8815 139.766968 
L 213.8815 228.053982 
z
" clip-path="url(#p7416436d6f)" style="fill: #ffc25f; stroke: #000000; stroke-linejoin: miter"/>
   </g>
   <g id="line2d_44">
    <path d="M 224.2975 228.053982 
L 224.2975 356.104579 
" clip-path="url(#p7416436d6f)" style="fill: none; stroke: #808080; stroke-linecap: square"/>
   </g>
   <g id="line2d_45">
    <path d="M 224.2975 139.766968 
L 224.2975 67.3856 
" clip-path="url(#p7416436d6f)" style="fill: none; stroke: #808080; stroke-linecap: square"/>
   </g>
   <g id="line2d_46">
    <path d="M 219.0895 356.104579 
L 229.5055 356.104579 
" clip-path="url(#p7416436d6f)" style="fill: none; stroke: #808080; stroke-linecap: square"/>
   </g>
   <g id="line2d_47">
    <path d="M 219.0895 67.3856 
L 229.5055 67.3856 
" clip-path="url(#p7416436d6f)" style="fill: none; stroke: #808080; stroke-linecap: square"/>
   </g>
   <g id="patch_9">
    <path d="M 243.6415 242.568557 
L 264.4735 242.568557 
L 264.4735 161.490116 
L 243.6415 161.490116 
L 243.6415 242.568557 
z
" clip-path="url(#p7416436d6f)" style="fill: #ffc25f; stroke: #000000; stroke-linejoin: miter"/>
   </g>
   <g id="line2d_48">
    <path d="M 254.0575 242.568557 
L 254.0575 354.823488 
" clip-path="url(#p7416436d6f)" style="fill: none; stroke: #808080; stroke-linecap: square"/>
   </g>
   <g id="line2d_49">
    <path d="M 254.0575 161.490116 
L 254.0575 82.95609 
" clip-path="url(#p7416436d6f)" style="fill: none; stroke: #808080; stroke-linecap: square"/>
   </g>
   <g id="line2d_50">
    <path d="M 248.8495 354.823488 
L 259.2655 354.823488 
" clip-path="url(#p7416436d6f)" style="fill: none; stroke: #808080; stroke-linecap: square"/>
   </g>
   <g id="line2d_51">
    <path d="M 248.8495 82.95609 
L 259.2655 82.95609 
" clip-path="url(#p7416436d6f)" style="fill: none; stroke: #808080; stroke-linecap: square"/>
   </g>
   <g id="patch_10">
    <path d="M 273.4015 181.71447 
L 294.2335 181.71447 
L 294.2335 144.009388 
L 273.4015 144.009388 
L 273.4015 181.71447 
z
" clip-path="url(#p7416436d6f)" style="fill: #ffc25f; stroke: #000000; stroke-linejoin: miter"/>
   </g>
   <g id="line2d_52">
    <path d="M 283.8175 181.71447 
L 283.8175 227.622754 
" clip-path="url(#p7416436d6f)" style="fill: none; stroke: #808080; stroke-linecap: square"/>
   </g>
   <g id="line2d_53">
    <path d="M 283.8175 144.009388 
L 283.8175 94.955228 
" clip-path="url(#p7416436d6f)" style="fill: none; stroke: #808080; stroke-linecap: square"/>
   </g>
   <g id="line2d_54">
    <path d="M 278.6095 227.622754 
L 289.0255 227.622754 
" clip-path="url(#p7416436d6f)" style="fill: none; stroke: #808080; stroke-linecap: square"/>
   </g>
   <g id="line2d_55">
    <path d="M 278.6095 94.955228 
L 289.0255 94.955228 
" clip-path="url(#p7416436d6f)" style="fill: none; stroke: #808080; stroke-linecap: square"/>
   </g>
   <g id="patch_11">
    <path d="M 303.1615 219.854329 
L 323.9935 219.854329 
L 323.9935 137.024251 
L 303.1615 137.024251 
L 303.1615 219.854329 
z
" clip-path="url(#p7416436d6f)" style="fill: #ffc25f; stroke: #000000; stroke-linejoin: miter"/>
   </g>
   <g id="line2d_56">
    <path d="M 313.5775 219.854329 
L 313.5775 328.502706 
" clip-path="url(#p7416436d6f)" style="fill: none; stroke: #808080; stroke-linecap: square"/>
   </g>
   <g id="line2d_57">
    <path d="M 313.5775 137.024251 
L 313.5775 80.471729 
" clip-path="url(#p7416436d6f)" style="fill: none; stroke: #808080; stroke-linecap: square"/>
   </g>
   <g id="line2d_58">
    <path d="M 308.3695 328.502706 
L 318.7855 328.502706 
" clip-path="url(#p7416436d6f)" style="fill: none; stroke: #808080; stroke-linecap: square"/>
   </g>
   <g id="line2d_59">
    <path d="M 308.3695 80.471729 
L 318.7855 80.471729 
" clip-path="url(#p7416436d6f)" style="fill: none; stroke: #808080; stroke-linecap: square"/>
   </g>
   <g id="patch_12">
    <path d="M 332.9215 265.303054 
L 353.7535 265.303054 
L 353.7535 151.00284 
L 332.9215 151.00284 
L 332.9215 265.303054 
z
" clip-path="url(#p7416436d6f)" style="fill: #ffc25f; stroke: #000000; stroke-linejoin: miter"/>
   </g>
   <g id="line2d_60">
    <path d="M 343.3375 265.303054 
L 343.3375 424.314532 
" clip-path="url(#p7416436d6f)" style="fill: none; stroke: #808080; stroke-linecap: square"/>
   </g>
   <g id="line2d_61">
    <path d="M 343.3375 151.00284 
L 343.3375 114.08549 
" clip-path="url(#p7416436d6f)" style="fill: none; stroke: #808080; stroke-linecap: square"/>
   </g>
   <g id="line2d_62">
    <path d="M 338.1295 424.314532 
L 348.5455 424.314532 
" clip-path="url(#p7416436d6f)" style="fill: none; stroke: #808080; stroke-linecap: square"/>
   </g>
   <g id="line2d_63">
    <path d="M 338.1295 114.08549 
L 348.5455 114.08549 
" clip-path="url(#p7416436d6f)" style="fill: none; stroke: #808080; stroke-linecap: square"/>
   </g>
   <g id="patch_13">
    <path d="M 362.6815 271.957635 
L 383.5135 271.957635 
L 383.5135 148.956477 
L 362.6815 148.956477 
L 362.6815 271.957635 
z
" clip-path="url(#p7416436d6f)" style="fill: #ffc25f; stroke: #000000; stroke-linejoin: miter"/>
   </g>
   <g id="line2d_64">
    <path d="M 373.0975 271.957635 
L 373.0975 345.376254 
" clip-path="url(#p7416436d6f)" style="fill: none; stroke: #808080; stroke-linecap: square"/>
   </g>
   <g id="line2d_65">
    <path d="M 373.0975 148.956477 
L 373.0975 135.723297 
" clip-path="url(#p7416436d6f)" style="fill: none; stroke: #808080; stroke-linecap: square"/>
   </g>
   <g id="line2d_66">
    <path d="M 367.8895 345.376254 
L 378.3055 345.376254 
" clip-path="url(#p7416436d6f)" style="fill: none; stroke: #808080; stroke-linecap: square"/>
   </g>
   <g id="line2d_67">
    <path d="M 367.8895 135.723297 
L 378.3055 135.723297 
" clip-path="url(#p7416436d6f)" style="fill: none; stroke: #808080; stroke-linecap: square"/>
   </g>
   <g id="patch_14">
    <path d="M 392.4415 276.433724 
L 413.2735 276.433724 
L 413.2735 155.26015 
L 392.4415 155.26015 
L 392.4415 276.433724 
z
" clip-path="url(#p7416436d6f)" style="fill: #ffc25f; stroke: #000000; stroke-linejoin: miter"/>
   </g>
   <g id="line2d_68">
    <path d="M 402.8575 276.433724 
L 402.8575 428.363449 
" clip-path="url(#p7416436d6f)" style="fill: none; stroke: #808080; stroke-linecap: square"/>
   </g>
   <g id="line2d_69">
    <path d="M 402.8575 155.26015 
L 402.8575 123.430597 
" clip-path="url(#p7416436d6f)" style="fill: none; stroke: #808080; stroke-linecap: square"/>
   </g>
   <g id="line2d_70">
    <path d="M 397.6495 428.363449 
L 408.0655 428.363449 
" clip-path="url(#p7416436d6f)" style="fill: none; stroke: #808080; stroke-linecap: square"/>
   </g>
   <g id="line2d_71">
    <path d="M 397.6495 123.430597 
L 408.0655 123.430597 
" clip-path="url(#p7416436d6f)" style="fill: none; stroke: #808080; stroke-linecap: square"/>
   </g>
   <g id="patch_15">
    <path d="M 422.2015 154.46605 
L 443.0335 154.46605 
L 443.0335 107.633121 
L 422.2015 107.633121 
L 422.2015 154.46605 
z
" clip-path="url(#p7416436d6f)" style="fill: #ffc25f; stroke: #000000; stroke-linejoin: miter"/>
   </g>
   <g id="line2d_72">
    <path d="M 432.6175 154.46605 
L 432.6175 187.053027 
" clip-path="url(#p7416436d6f)" style="fill: none; stroke: #808080; stroke-linecap: square"/>
   </g>
   <g id="line2d_73">
    <path d="M 432.6175 107.633121 
L 432.6175 82.627696 
" clip-path="url(#p7416436d6f)" style="fill: none; stroke: #808080; stroke-linecap: square"/>
   </g>
   <g id="line2d_74">
    <path d="M 427.4095 187.053027 
L 437.8255 187.053027 
" clip-path="url(#p7416436d6f)" style="fill: none; stroke: #808080; stroke-linecap: square"/>
   </g>
   <g id="line2d_75">
    <path d="M 427.4095 82.627696 
L 437.8255 82.627696 
" clip-path="url(#p7416436d6f)" style="fill: none; stroke: #808080; stroke-linecap: square"/>
   </g>
   <g id="patch_16">
    <path d="M 451.9615 297.138242 
L 472.7935 297.138242 
L 472.7935 199.544682 
L 451.9615 199.544682 
L 451.9615 297.138242 
z
" clip-path="url(#p7416436d6f)" style="fill: #ffc25f; stroke: #000000; stroke-linejoin: miter"/>
   </g>
   <g id="line2d_76">
    <path d="M 462.3775 297.138242 
L 462.3775 369.625654 
" clip-path="url(#p7416436d6f)" style="fill: none; stroke: #808080; stroke-linecap: square"/>
   </g>
   <g id="line2d_77">
    <path d="M 462.3775 199.544682 
L 462.3775 191.755834 
" clip-path="url(#p7416436d6f)" style="fill: none; stroke: #808080; stroke-linecap: square"/>
   </g>
   <g id="line2d_78">
    <path d="M 457.1695 369.625654 
L 467.5855 369.625654 
" clip-path="url(#p7416436d6f)" style="fill: none; stroke: #808080; stroke-linecap: square"/>
   </g>
   <g id="line2d_79">
    <path d="M 457.1695 191.755834 
L 467.5855 191.755834 
" clip-path="url(#p7416436d6f)" style="fill: none; stroke: #808080; stroke-linecap: square"/>
   </g>
   <g id="patch_17">
    <path d="M 481.7215 365.897816 
L 502.5535 365.897816 
L 502.5535 257.019768 
L 481.7215 257.019768 
L 481.7215 365.897816 
z
" clip-path="url(#p7416436d6f)" style="fill: #ffc25f; stroke: #000000; stroke-linejoin: miter"/>
   </g>
   <g id="line2d_80">
    <path d="M 492.1375 365.897816 
L 492.1375 430.56 
" clip-path="url(#p7416436d6f)" style="fill: none; stroke: #808080; stroke-linecap: square"/>
   </g>
   <g id="line2d_81">
    <path d="M 492.1375 257.019768 
L 492.1375 212.803904 
" clip-path="url(#p7416436d6f)" style="fill: none; stroke: #808080; stroke-linecap: square"/>
   </g>
   <g id="line2d_82">
    <path d="M 486.9295 430.56 
L 497.3455 430.56 
" clip-path="url(#p7416436d6f)" style="fill: none; stroke: #808080; stroke-linecap: square"/>
   </g>
   <g id="line2d_83">
    <path d="M 486.9295 212.803904 
L 497.3455 212.803904 
" clip-path="url(#p7416436d6f)" style="fill: none; stroke: #808080; stroke-linecap: square"/>
   </g>
   <g id="line2d_84">
    <path d="M 65.0815 214.76148 
L 85.9135 214.76148 
" clip-path="url(#p7416436d6f)" style="fill: none; stroke: #808080"/>
   </g>
   <g id="line2d_85">
    <path d="M 94.8415 196.851166 
L 115.6735 196.851166 
" clip-path="url(#p7416436d6f)" style="fill: none; stroke: #808080"/>
   </g>
   <g id="line2d_86">
    <path d="M 124.6015 180.581898 
L 145.4335 180.581898 
" clip-path="url(#p7416436d6f)" style="fill: none; stroke: #808080"/>
   </g>
   <g id="line2d_87">
    <path d="M 154.3615 171.760583 
L 175.1935 171.760583 
" clip-path="url(#p7416436d6f)" style="fill: none; stroke: #808080"/>
   </g>
   <g id="line2d_88">
    <path d="M 184.1215 174.533086 
L 204.9535 174.533086 
" clip-path="url(#p7416436d6f)" style="fill: none; stroke: #808080"/>
   </g>
   <g id="line2d_89">
    <path d="M 213.8815 172.258983 
L 234.7135 172.258983 
" clip-path="url(#p7416436d6f)" style="fill: none; stroke: #808080"/>
   </g>
   <g id="line2d_90">
    <path d="M 243.6415 192.733825 
L 264.4735 192.733825 
" clip-path="url(#p7416436d6f)" style="fill: none; stroke: #808080"/>
   </g>
   <g id="line2d_91">
    <path d="M 273.4015 170.713112 
L 294.2335 170.713112 
" clip-path="url(#p7416436d6f)" style="fill: none; stroke: #808080"/>
   </g>
   <g id="line2d_92">
    <path d="M 303.1615 173.268694 
L 323.9935 173.268694 
" clip-path="url(#p7416436d6f)" style="fill: none; stroke: #808080"/>
   </g>
   <g id="line2d_93">
    <path d="M 332.9215 178.621201 
L 353.7535 178.621201 
" clip-path="url(#p7416436d6f)" style="fill: none; stroke: #808080"/>
   </g>
   <g id="line2d_94">
    <path d="M 362.6815 192.588003 
L 383.5135 192.588003 
" clip-path="url(#p7416436d6f)" style="fill: none; stroke: #808080"/>
   </g>
   <g id="line2d_95">
    <path d="M 392.4415 193.960962 
L 413.2735 193.960962 
" clip-path="url(#p7416436d6f)" style="fill: none; stroke: #808080"/>
   </g>
   <g id="line2d_96">
    <path d="M 422.2015 131.463673 
L 443.0335 131.463673 
" clip-path="url(#p7416436d6f)" style="fill: none; stroke: #808080"/>
   </g>
   <g id="line2d_97">
    <path d="M 451.9615 234.334352 
L 472.7935 234.334352 
" clip-path="url(#p7416436d6f)" style="fill: none; stroke: #808080"/>
   </g>
   <g id="line2d_98">
    <path d="M 481.7215 301.235632 
L 502.5535 301.235632 
" clip-path="url(#p7416436d6f)" style="fill: none; stroke: #808080"/>
   </g>
   <g id="patch_18">
    <path d="M 60.6175 450.72 
L 60.6175 7.2 
" style="fill: none; stroke: #000000; stroke-linejoin: miter; stroke-linecap: square"/>
   </g>
   <g id="patch_19">
    <path d="M 507.0175 450.72 
L 507.0175 7.2 
" style="fill: none; stroke: #000000; stroke-linejoin: miter; stroke-linecap: square"/>
   </g>
   <g id="patch_20">
    <path d="M 60.6175 450.72 
L 507.0175 450.72 
" style="fill: none; stroke: #000000; stroke-linejoin: miter; stroke-linecap: square"/>
   </g>
  </g>
  <g id="axes_2">
   <g id="matplotlib.axis_3">
    <g id="ytick_9">
     <g id="line2d_99">
      <defs>
       <path id="me917b46cd6" d="M 0 0 
L 3.5 0 
" style="stroke: #3d9f95; stroke-width: 0.8"/>
      </defs>
      <g>
       <use xlink:href="#me917b46cd6" x="507.0175" y="430.56" style="fill: #3d9f95; stroke: #3d9f95; stroke-width: 0.8"/>
      </g>
     </g>
     <g id="text_26">
      <!-- 2 -->
      <g style="fill: #3d9f95" transform="translate(514.0175 437.398594) scale(0.18 -0.18)">
       <use xlink:href="#DejaVuSans-32"/>
      </g>
     </g>
    </g>
    <g id="ytick_10">
     <g id="line2d_100">
      <g>
       <use xlink:href="#me917b46cd6" x="507.0175" y="282.047795" style="fill: #3d9f95; stroke: #3d9f95; stroke-width: 0.8"/>
      </g>
     </g>
     <g id="text_27">
      <!-- 4 -->
      <g style="fill: #3d9f95" transform="translate(514.0175 288.886389) scale(0.18 -0.18)">
       <use xlink:href="#DejaVuSans-34"/>
      </g>
     </g>
    </g>
    <g id="ytick_11">
     <g id="line2d_101">
      <g>
       <use xlink:href="#me917b46cd6" x="507.0175" y="133.535591" style="fill: #3d9f95; stroke: #3d9f95; stroke-width: 0.8"/>
      </g>
     </g>
     <g id="text_28">
      <!-- 8 -->
      <g style="fill: #3d9f95" transform="translate(514.0175 140.374185) scale(0.18 -0.18)">
       <use xlink:href="#DejaVuSans-38"/>
      </g>
     </g>
    </g>
    <g id="text_29">
     <!-- Unique cCREs, log2 -->
     <g style="fill: #3d9f95" transform="translate(544.666875 337.611562) rotate(-90) scale(0.2 -0.2)">
      <defs>
       <path id="DejaVuSans-Bold-55" d="M 588 4666 
L 1791 4666 
L 1791 1869 
Q 1791 1291 1980 1042 
Q 2169 794 2597 794 
Q 3028 794 3217 1042 
Q 3406 1291 3406 1869 
L 3406 4666 
L 4609 4666 
L 4609 1869 
Q 4609 878 4112 393 
Q 3616 -91 2597 -91 
Q 1581 -91 1084 393 
Q 588 878 588 1869 
L 588 4666 
z
" transform="scale(0.015625)"/>
       <path id="DejaVuSans-Bold-6e" d="M 4056 2131 
L 4056 0 
L 2931 0 
L 2931 347 
L 2931 1631 
Q 2931 2084 2911 2256 
Q 2891 2428 2841 2509 
Q 2775 2619 2662 2680 
Q 2550 2741 2406 2741 
Q 2056 2741 1856 2470 
Q 1656 2200 1656 1722 
L 1656 0 
L 538 0 
L 538 3500 
L 1656 3500 
L 1656 2988 
Q 1909 3294 2193 3439 
Q 2478 3584 2822 3584 
Q 3428 3584 3742 3212 
Q 4056 2841 4056 2131 
z
" transform="scale(0.015625)"/>
       <path id="DejaVuSans-Bold-69" d="M 538 3500 
L 1656 3500 
L 1656 0 
L 538 0 
L 538 3500 
z
M 538 4863 
L 1656 4863 
L 1656 3950 
L 538 3950 
L 538 4863 
z
" transform="scale(0.015625)"/>
       <path id="DejaVuSans-Bold-71" d="M 2181 2772 
Q 1825 2772 1636 2509 
Q 1447 2247 1447 1747 
Q 1447 1247 1636 984 
Q 1825 722 2181 722 
Q 2541 722 2730 984 
Q 2919 1247 2919 1747 
Q 2919 2247 2730 2509 
Q 2541 2772 2181 2772 
z
M 2919 506 
Q 2688 197 2409 53 
Q 2131 -91 1766 -91 
Q 1119 -91 703 423 
Q 288 938 288 1747 
Q 288 2556 703 3067 
Q 1119 3578 1766 3578 
Q 2131 3578 2409 3434 
Q 2688 3291 2919 2981 
L 2919 3500 
L 4044 3500 
L 4044 -1331 
L 2919 -1331 
L 2919 506 
z
" transform="scale(0.015625)"/>
       <path id="DejaVuSans-Bold-75" d="M 500 1363 
L 500 3500 
L 1625 3500 
L 1625 3150 
Q 1625 2866 1622 2436 
Q 1619 2006 1619 1863 
Q 1619 1441 1641 1255 
Q 1663 1069 1716 984 
Q 1784 875 1895 815 
Q 2006 756 2150 756 
Q 2500 756 2700 1025 
Q 2900 1294 2900 1772 
L 2900 3500 
L 4019 3500 
L 4019 0 
L 2900 0 
L 2900 506 
Q 2647 200 2364 54 
Q 2081 -91 1741 -91 
Q 1134 -91 817 281 
Q 500 653 500 1363 
z
" transform="scale(0.015625)"/>
       <path id="DejaVuSans-Bold-2c" d="M 653 1209 
L 1778 1209 
L 1778 256 
L 1006 -909 
L 341 -909 
L 653 256 
L 653 1209 
z
" transform="scale(0.015625)"/>
      </defs>
      <use xlink:href="#DejaVuSans-Bold-55"/>
      <use xlink:href="#DejaVuSans-Bold-6e" transform="translate(81.201172 0)"/>
      <use xlink:href="#DejaVuSans-Bold-69" transform="translate(152.392578 0)"/>
      <use xlink:href="#DejaVuSans-Bold-71" transform="translate(186.669922 0)"/>
      <use xlink:href="#DejaVuSans-Bold-75" transform="translate(258.251953 0)"/>
      <use xlink:href="#DejaVuSans-Bold-65" transform="translate(329.443359 0)"/>
      <use xlink:href="#DejaVuSans-Bold-20" transform="translate(397.265625 0)"/>
      <use xlink:href="#DejaVuSans-Bold-63" transform="translate(432.080078 0)"/>
      <use xlink:href="#DejaVuSans-Bold-43" transform="translate(491.357422 0)"/>
      <use xlink:href="#DejaVuSans-Bold-52" transform="translate(564.746094 0)"/>
      <use xlink:href="#DejaVuSans-Bold-45" transform="translate(641.748047 0)"/>
      <use xlink:href="#DejaVuSans-Bold-73" transform="translate(710.058594 0)"/>
      <use xlink:href="#DejaVuSans-Bold-2c" transform="translate(769.580078 0)"/>
      <use xlink:href="#DejaVuSans-Bold-20" transform="translate(807.568359 0)"/>
      <use xlink:href="#DejaVuSans-Bold-6c" transform="translate(842.382812 0)"/>
      <use xlink:href="#DejaVuSans-Bold-6f" transform="translate(876.660156 0)"/>
      <use xlink:href="#DejaVuSans-Bold-67" transform="translate(945.361328 0)"/>
      <use xlink:href="#DejaVuSans-Bold-32" transform="translate(1016.943359 0)"/>
     </g>
    </g>
   </g>
   <g id="line2d_102">
    <path d="M 75.4975 190.60611 
L 105.2575 46.386464 
L 135.0175 27.36 
L 164.7775 39.805981 
L 194.5375 60.619445 
L 224.2975 94.598475 
L 254.0575 156.708607 
L 283.8175 273.13388 
L 313.5775 175.733602 
L 343.3375 219.438919 
L 373.0975 273.13388 
L 402.8575 250.069658 
L 432.6175 287.094113 
L 462.3775 277.413381 
L 492.1375 430.56 
" clip-path="url(#p7416436d6f)" style="fill: none; stroke: #3d9f95; stroke-width: 1.5; stroke-linecap: square"/>
    <defs>
     <path id="m2307de1564" d="M 0 3 
C 0.795609 3 1.55874 2.683901 2.12132 2.12132 
C 2.683901 1.55874 3 0.795609 3 0 
C 3 -0.795609 2.683901 -1.55874 2.12132 -2.12132 
C 1.55874 -2.683901 0.795609 -3 0 -3 
C -0.795609 -3 -1.55874 -2.683901 -2.12132 -2.12132 
C -2.683901 -1.55874 -3 -0.795609 -3 0 
C -3 0.795609 -2.683901 1.55874 -2.12132 2.12132 
C -1.55874 2.683901 -0.795609 3 0 3 
z
" style="stroke: #3d9f95"/>
    </defs>
    <g clip-path="url(#p7416436d6f)">
     <use xlink:href="#m2307de1564" x="75.4975" y="190.60611" style="fill: #3d9f95; stroke: #3d9f95"/>
     <use xlink:href="#m2307de1564" x="105.2575" y="46.386464" style="fill: #3d9f95; stroke: #3d9f95"/>
     <use xlink:href="#m2307de1564" x="135.0175" y="27.36" style="fill: #3d9f95; stroke: #3d9f95"/>
     <use xlink:href="#m2307de1564" x="164.7775" y="39.805981" style="fill: #3d9f95; stroke: #3d9f95"/>
     <use xlink:href="#m2307de1564" x="194.5375" y="60.619445" style="fill: #3d9f95; stroke: #3d9f95"/>
     <use xlink:href="#m2307de1564" x="224.2975" y="94.598475" style="fill: #3d9f95; stroke: #3d9f95"/>
     <use xlink:href="#m2307de1564" x="254.0575" y="156.708607" style="fill: #3d9f95; stroke: #3d9f95"/>
     <use xlink:href="#m2307de1564" x="283.8175" y="273.13388" style="fill: #3d9f95; stroke: #3d9f95"/>
     <use xlink:href="#m2307de1564" x="313.5775" y="175.733602" style="fill: #3d9f95; stroke: #3d9f95"/>
     <use xlink:href="#m2307de1564" x="343.3375" y="219.438919" style="fill: #3d9f95; stroke: #3d9f95"/>
     <use xlink:href="#m2307de1564" x="373.0975" y="273.13388" style="fill: #3d9f95; stroke: #3d9f95"/>
     <use xlink:href="#m2307de1564" x="402.8575" y="250.069658" style="fill: #3d9f95; stroke: #3d9f95"/>
     <use xlink:href="#m2307de1564" x="432.6175" y="287.094113" style="fill: #3d9f95; stroke: #3d9f95"/>
     <use xlink:href="#m2307de1564" x="462.3775" y="277.413381" style="fill: #3d9f95; stroke: #3d9f95"/>
     <use xlink:href="#m2307de1564" x="492.1375" y="430.56" style="fill: #3d9f95; stroke: #3d9f95"/>
    </g>
   </g>
   <g id="patch_21">
    <path d="M 60.6175 450.72 
L 60.6175 7.2 
" style="fill: none; stroke: #000000; stroke-linejoin: miter; stroke-linecap: square"/>
   </g>
   <g id="patch_22">
    <path d="M 60.6175 450.72 
L 507.0175 450.72 
" style="fill: none; stroke: #000000; stroke-linejoin: miter; stroke-linecap: square"/>
   </g>
  </g>
 </g>
 <defs>
  <clipPath id="p7416436d6f">
   <rect x="60.6175" y="7.2" width="446.4" height="443.52"/>
  </clipPath>
 </defs>
</svg>
