<?xml version="1.0" encoding="utf-8" standalone="no"?>
<!DOCTYPE svg PUBLIC "-//W3C//DTD SVG 1.1//EN"
  "http://www.w3.org/Graphics/SVG/1.1/DTD/svg11.dtd">
<svg xmlns:xlink="http://www.w3.org/1999/xlink" width="502.60875pt" height="505.853125pt" viewBox="0 0 502.60875 505.853125" xmlns="http://www.w3.org/2000/svg" version="1.1">
 <metadata>
  <rdf:RDF xmlns:dc="http://purl.org/dc/elements/1.1/" xmlns:cc="http://creativecommons.org/ns#" xmlns:rdf="http://www.w3.org/1999/02/22-rdf-syntax-ns#">
   <cc:Work>
    <dc:type rdf:resource="http://purl.org/dc/dcmitype/StillImage"/>
    <dc:date>2026-05-03T16:32:40.077545</dc:date>
    <dc:format>image/svg+xml</dc:format>
    <dc:creator>
     <cc:Agent>
      <dc:title>Matplotlib v3.10.8, https://matplotlib.org/</dc:title>
     </cc:Agent>
    </dc:creator>
   </cc:Work>
  </rdf:RDF>
 </metadata>
 <defs>
  <style type="text/css">*{stroke-linejoin: round; stroke-linecap: butt}</style>
 </defs>
 <g id="figure_1">
  <g id="patch_1">
   <path d="M 0 505.853125 
L 502.60875 505.853125 
L 502.60875 0 
L 0 0 
L 0 505.853125 
z
" style="fill: none"/>
  </g>
  <g id="axes_1">
   <g id="patch_2">
    <path d="M 49.00875 450.72 
L 495.40875 450.72 
L 495.40875 7.2 
L 49.00875 7.2 
L 49.00875 450.72 
z
" style="fill: none"/>
   </g>
   <g id="matplotlib.axis_1">
    <g id="xtick_1">
     <g id="line2d_1">
      <defs>
       <path id="mb07ee2879d" d="M 0 0 
L 0 3.5 
" style="stroke: #000000; stroke-width: 0.8"/>
      </defs>
      <g>
       <use xlink:href="#mb07ee2879d" x="69.27852" y="450.72" style="stroke: #000000; stroke-width: 0.8"/>
      </g>
     </g>
     <g id="text_1">
      <!-- 0 -->
      <g transform="translate(63.55227 471.397187) scale(0.18 -0.18)">
       <defs>
        <path id="DejaVuSans-30" d="M 2034 4250 
Q 1547 4250 1301 3770 
Q 1056 3291 1056 2328 
Q 1056 1369 1301 889 
Q 1547 409 2034 409 
Q 2525 409 2770 889 
Q 3016 1369 3016 2328 
Q 3016 3291 2770 3770 
Q 2525 4250 2034 4250 
z
M 2034 4750 
Q 2819 4750 3233 4129 
Q 3647 3509 3647 2328 
Q 3647 1150 3233 529 
Q 2819 -91 2034 -91 
Q 1250 -91 836 529 
Q 422 1150 422 2328 
Q 422 3509 836 4129 
Q 1250 4750 2034 4750 
z
" transform="scale(0.015625)"/>
       </defs>
       <use xlink:href="#DejaVuSans-30"/>
      </g>
     </g>
    </g>
    <g id="xtick_2">
     <g id="line2d_2">
      <g>
       <use xlink:href="#mb07ee2879d" x="477.05207" y="450.72" style="stroke: #000000; stroke-width: 0.8"/>
      </g>
     </g>
     <g id="text_2">
      <!-- 1 -->
      <g transform="translate(471.32582 471.397187) scale(0.18 -0.18)">
       <defs>
        <path id="DejaVuSans-31" d="M 794 531 
L 1825 531 
L 1825 4091 
L 703 3866 
L 703 4441 
L 1819 4666 
L 2450 4666 
L 2450 531 
L 3481 531 
L 3481 0 
L 794 0 
L 794 531 
z
" transform="scale(0.015625)"/>
       </defs>
       <use xlink:href="#DejaVuSans-31"/>
      </g>
     </g>
    </g>
    <g id="text_3">
     <!-- cCREs rank by RNA reads -->
     <g transform="translate(130.029063 494.3375) scale(0.2 -0.2)">
      <defs>
       <path id="DejaVuSans-Bold-63" d="M 3366 3391 
L 3366 2478 
Q 3138 2634 2908 2709 
Q 2678 2784 2431 2784 
Q 1963 2784 1702 2511 
Q 1441 2238 1441 1747 
Q 1441 1256 1702 982 
Q 1963 709 2431 709 
Q 2694 709 2930 787 
Q 3166 866 3366 1019 
L 3366 103 
Q 3103 6 2833 -42 
Q 2563 -91 2291 -91 
Q 1344 -91 809 395 
Q 275 881 275 1747 
Q 275 2613 809 3098 
Q 1344 3584 2291 3584 
Q 2566 3584 2833 3536 
Q 3100 3488 3366 3391 
z
" transform="scale(0.015625)"/>
       <path id="DejaVuSans-Bold-43" d="M 4288 256 
Q 3956 84 3597 -3 
Q 3238 -91 2847 -91 
Q 1681 -91 1000 561 
Q 319 1213 319 2328 
Q 319 3447 1000 4098 
Q 1681 4750 2847 4750 
Q 3238 4750 3597 4662 
Q 3956 4575 4288 4403 
L 4288 3438 
Q 3953 3666 3628 3772 
Q 3303 3878 2944 3878 
Q 2300 3878 1931 3465 
Q 1563 3053 1563 2328 
Q 1563 1606 1931 1193 
Q 2300 781 2944 781 
Q 3303 781 3628 887 
Q 3953 994 4288 1222 
L 4288 256 
z
" transform="scale(0.015625)"/>
       <path id="DejaVuSans-Bold-52" d="M 2297 2597 
Q 2675 2597 2839 2737 
Q 3003 2878 3003 3200 
Q 3003 3519 2839 3656 
Q 2675 3794 2297 3794 
L 1791 3794 
L 1791 2597 
L 2297 2597 
z
M 1791 1766 
L 1791 0 
L 588 0 
L 588 4666 
L 2425 4666 
Q 3347 4666 3776 4356 
Q 4206 4047 4206 3378 
Q 4206 2916 3982 2619 
Q 3759 2322 3309 2181 
Q 3556 2125 3751 1926 
Q 3947 1728 4147 1325 
L 4800 0 
L 3519 0 
L 2950 1159 
Q 2778 1509 2601 1637 
Q 2425 1766 2131 1766 
L 1791 1766 
z
" transform="scale(0.015625)"/>
       <path id="DejaVuSans-Bold-45" d="M 588 4666 
L 3834 4666 
L 3834 3756 
L 1791 3756 
L 1791 2888 
L 3713 2888 
L 3713 1978 
L 1791 1978 
L 1791 909 
L 3903 909 
L 3903 0 
L 588 0 
L 588 4666 
z
" transform="scale(0.015625)"/>
       <path id="DejaVuSans-Bold-73" d="M 3272 3391 
L 3272 2541 
Q 2913 2691 2578 2766 
Q 2244 2841 1947 2841 
Q 1628 2841 1473 2761 
Q 1319 2681 1319 2516 
Q 1319 2381 1436 2309 
Q 1553 2238 1856 2203 
L 2053 2175 
Q 2913 2066 3209 1816 
Q 3506 1566 3506 1031 
Q 3506 472 3093 190 
Q 2681 -91 1863 -91 
Q 1516 -91 1145 -36 
Q 775 19 384 128 
L 384 978 
Q 719 816 1070 734 
Q 1422 653 1784 653 
Q 2113 653 2278 743 
Q 2444 834 2444 1013 
Q 2444 1163 2330 1236 
Q 2216 1309 1875 1350 
L 1678 1375 
Q 931 1469 631 1722 
Q 331 1975 331 2491 
Q 331 3047 712 3315 
Q 1094 3584 1881 3584 
Q 2191 3584 2531 3537 
Q 2872 3491 3272 3391 
z
" transform="scale(0.015625)"/>
       <path id="DejaVuSans-Bold-20" transform="scale(0.015625)"/>
       <path id="DejaVuSans-Bold-72" d="M 3138 2547 
Q 2991 2616 2845 2648 
Q 2700 2681 2553 2681 
Q 2122 2681 1889 2404 
Q 1656 2128 1656 1613 
L 1656 0 
L 538 0 
L 538 3500 
L 1656 3500 
L 1656 2925 
Q 1872 3269 2151 3426 
Q 2431 3584 2822 3584 
Q 2878 3584 2943 3579 
Q 3009 3575 3134 3559 
L 3138 2547 
z
" transform="scale(0.015625)"/>
       <path id="DejaVuSans-Bold-61" d="M 2106 1575 
Q 1756 1575 1579 1456 
Q 1403 1338 1403 1106 
Q 1403 894 1545 773 
Q 1688 653 1941 653 
Q 2256 653 2472 879 
Q 2688 1106 2688 1447 
L 2688 1575 
L 2106 1575 
z
M 3816 1997 
L 3816 0 
L 2688 0 
L 2688 519 
Q 2463 200 2181 54 
Q 1900 -91 1497 -91 
Q 953 -91 614 226 
Q 275 544 275 1050 
Q 275 1666 698 1953 
Q 1122 2241 2028 2241 
L 2688 2241 
L 2688 2328 
Q 2688 2594 2478 2717 
Q 2269 2841 1825 2841 
Q 1466 2841 1156 2769 
Q 847 2697 581 2553 
L 581 3406 
Q 941 3494 1303 3539 
Q 1666 3584 2028 3584 
Q 2975 3584 3395 3211 
Q 3816 2838 3816 1997 
z
" transform="scale(0.015625)"/>
       <path id="DejaVuSans-Bold-6e" d="M 4056 2131 
L 4056 0 
L 2931 0 
L 2931 347 
L 2931 1631 
Q 2931 2084 2911 2256 
Q 2891 2428 2841 2509 
Q 2775 2619 2662 2680 
Q 2550 2741 2406 2741 
Q 2056 2741 1856 2470 
Q 1656 2200 1656 1722 
L 1656 0 
L 538 0 
L 538 3500 
L 1656 3500 
L 1656 2988 
Q 1909 3294 2193 3439 
Q 2478 3584 2822 3584 
Q 3428 3584 3742 3212 
Q 4056 2841 4056 2131 
z
" transform="scale(0.015625)"/>
       <path id="DejaVuSans-Bold-6b" d="M 538 4863 
L 1656 4863 
L 1656 2216 
L 2944 3500 
L 4244 3500 
L 2534 1894 
L 4378 0 
L 3022 0 
L 1656 1459 
L 1656 0 
L 538 0 
L 538 4863 
z
" transform="scale(0.015625)"/>
       <path id="DejaVuSans-Bold-62" d="M 2400 722 
Q 2759 722 2948 984 
Q 3138 1247 3138 1747 
Q 3138 2247 2948 2509 
Q 2759 2772 2400 2772 
Q 2041 2772 1848 2508 
Q 1656 2244 1656 1747 
Q 1656 1250 1848 986 
Q 2041 722 2400 722 
z
M 1656 2988 
Q 1888 3294 2169 3439 
Q 2450 3584 2816 3584 
Q 3463 3584 3878 3070 
Q 4294 2556 4294 1747 
Q 4294 938 3878 423 
Q 3463 -91 2816 -91 
Q 2450 -91 2169 54 
Q 1888 200 1656 506 
L 1656 0 
L 538 0 
L 538 4863 
L 1656 4863 
L 1656 2988 
z
" transform="scale(0.015625)"/>
       <path id="DejaVuSans-Bold-79" d="M 78 3500 
L 1197 3500 
L 2138 1125 
L 2938 3500 
L 4056 3500 
L 2584 -331 
Q 2363 -916 2067 -1148 
Q 1772 -1381 1288 -1381 
L 641 -1381 
L 641 -647 
L 991 -647 
Q 1275 -647 1404 -556 
Q 1534 -466 1606 -231 
L 1638 -134 
L 78 3500 
z
" transform="scale(0.015625)"/>
       <path id="DejaVuSans-Bold-4e" d="M 588 4666 
L 1931 4666 
L 3628 1466 
L 3628 4666 
L 4769 4666 
L 4769 0 
L 3425 0 
L 1728 3200 
L 1728 0 
L 588 0 
L 588 4666 
z
" transform="scale(0.015625)"/>
       <path id="DejaVuSans-Bold-41" d="M 3419 850 
L 1538 850 
L 1241 0 
L 31 0 
L 1759 4666 
L 3194 4666 
L 4922 0 
L 3713 0 
L 3419 850 
z
M 1838 1716 
L 3116 1716 
L 2478 3572 
L 1838 1716 
z
" transform="scale(0.015625)"/>
       <path id="DejaVuSans-Bold-65" d="M 4031 1759 
L 4031 1441 
L 1416 1441 
Q 1456 1047 1700 850 
Q 1944 653 2381 653 
Q 2734 653 3104 758 
Q 3475 863 3866 1075 
L 3866 213 
Q 3469 63 3072 -14 
Q 2675 -91 2278 -91 
Q 1328 -91 801 392 
Q 275 875 275 1747 
Q 275 2603 792 3093 
Q 1309 3584 2216 3584 
Q 3041 3584 3536 3087 
Q 4031 2591 4031 1759 
z
M 2881 2131 
Q 2881 2450 2695 2645 
Q 2509 2841 2209 2841 
Q 1884 2841 1681 2658 
Q 1478 2475 1428 2131 
L 2881 2131 
z
" transform="scale(0.015625)"/>
       <path id="DejaVuSans-Bold-64" d="M 2919 2988 
L 2919 4863 
L 4044 4863 
L 4044 0 
L 2919 0 
L 2919 506 
Q 2688 197 2409 53 
Q 2131 -91 1766 -91 
Q 1119 -91 703 423 
Q 288 938 288 1747 
Q 288 2556 703 3070 
Q 1119 3584 1766 3584 
Q 2128 3584 2408 3439 
Q 2688 3294 2919 2988 
z
M 2181 722 
Q 2541 722 2730 984 
Q 2919 1247 2919 1747 
Q 2919 2247 2730 2509 
Q 2541 2772 2181 2772 
Q 1825 2772 1636 2509 
Q 1447 2247 1447 1747 
Q 1447 1247 1636 984 
Q 1825 722 2181 722 
z
" transform="scale(0.015625)"/>
      </defs>
      <use xlink:href="#DejaVuSans-Bold-63"/>
      <use xlink:href="#DejaVuSans-Bold-43" transform="translate(59.277344 0)"/>
      <use xlink:href="#DejaVuSans-Bold-52" transform="translate(132.666016 0)"/>
      <use xlink:href="#DejaVuSans-Bold-45" transform="translate(209.667969 0)"/>
      <use xlink:href="#DejaVuSans-Bold-73" transform="translate(277.978516 0)"/>
      <use xlink:href="#DejaVuSans-Bold-20" transform="translate(337.5 0)"/>
      <use xlink:href="#DejaVuSans-Bold-72" transform="translate(372.314453 0)"/>
      <use xlink:href="#DejaVuSans-Bold-61" transform="translate(421.630859 0)"/>
      <use xlink:href="#DejaVuSans-Bold-6e" transform="translate(489.111328 0)"/>
      <use xlink:href="#DejaVuSans-Bold-6b" transform="translate(560.302734 0)"/>
      <use xlink:href="#DejaVuSans-Bold-20" transform="translate(626.806641 0)"/>
      <use xlink:href="#DejaVuSans-Bold-62" transform="translate(661.621094 0)"/>
      <use xlink:href="#DejaVuSans-Bold-79" transform="translate(733.203125 0)"/>
      <use xlink:href="#DejaVuSans-Bold-20" transform="translate(798.388672 0)"/>
      <use xlink:href="#DejaVuSans-Bold-52" transform="translate(833.203125 0)"/>
      <use xlink:href="#DejaVuSans-Bold-4e" transform="translate(910.205078 0)"/>
      <use xlink:href="#DejaVuSans-Bold-41" transform="translate(993.896484 0)"/>
      <use xlink:href="#DejaVuSans-Bold-20" transform="translate(1071.289062 0)"/>
      <use xlink:href="#DejaVuSans-Bold-72" transform="translate(1106.103516 0)"/>
      <use xlink:href="#DejaVuSans-Bold-65" transform="translate(1155.419922 0)"/>
      <use xlink:href="#DejaVuSans-Bold-61" transform="translate(1223.242188 0)"/>
      <use xlink:href="#DejaVuSans-Bold-64" transform="translate(1290.722656 0)"/>
      <use xlink:href="#DejaVuSans-Bold-73" transform="translate(1362.304688 0)"/>
     </g>
    </g>
   </g>
   <g id="matplotlib.axis_2">
    <g id="ytick_1">
     <g id="line2d_3">
      <defs>
       <path id="m0dbea7f1b5" d="M 0 0 
L -3.5 0 
" style="stroke: #000000; stroke-width: 0.8"/>
      </defs>
      <g>
       <use xlink:href="#m0dbea7f1b5" x="49.00875" y="450.72" style="stroke: #000000; stroke-width: 0.8"/>
      </g>
     </g>
     <g id="text_4">
      <!-- 0 -->
      <g transform="translate(30.55625 457.558594) scale(0.18 -0.18)">
       <use xlink:href="#DejaVuSans-30"/>
      </g>
     </g>
    </g>
    <g id="ytick_2">
     <g id="line2d_4">
      <g>
       <use xlink:href="#m0dbea7f1b5" x="49.00875" y="14.835454" style="stroke: #000000; stroke-width: 0.8"/>
      </g>
     </g>
     <g id="text_5">
      <!-- 1 -->
      <g transform="translate(30.55625 21.674048) scale(0.18 -0.18)">
       <use xlink:href="#DejaVuSans-31"/>
      </g>
     </g>
    </g>
    <g id="text_6">
     <!-- Cumulative fraction of RNA reads -->
     <g transform="translate(22.396875 417.3225) rotate(-90) scale(0.2 -0.2)">
      <defs>
       <path id="DejaVuSans-Bold-75" d="M 500 1363 
L 500 3500 
L 1625 3500 
L 1625 3150 
Q 1625 2866 1622 2436 
Q 1619 2006 1619 1863 
Q 1619 1441 1641 1255 
Q 1663 1069 1716 984 
Q 1784 875 1895 815 
Q 2006 756 2150 756 
Q 2500 756 2700 1025 
Q 2900 1294 2900 1772 
L 2900 3500 
L 4019 3500 
L 4019 0 
L 2900 0 
L 2900 506 
Q 2647 200 2364 54 
Q 2081 -91 1741 -91 
Q 1134 -91 817 281 
Q 500 653 500 1363 
z
" transform="scale(0.015625)"/>
       <path id="DejaVuSans-Bold-6d" d="M 3781 2919 
Q 3994 3244 4286 3414 
Q 4578 3584 4928 3584 
Q 5531 3584 5847 3212 
Q 6163 2841 6163 2131 
L 6163 0 
L 5038 0 
L 5038 1825 
Q 5041 1866 5042 1909 
Q 5044 1953 5044 2034 
Q 5044 2406 4934 2573 
Q 4825 2741 4581 2741 
Q 4263 2741 4089 2478 
Q 3916 2216 3909 1719 
L 3909 0 
L 2784 0 
L 2784 1825 
Q 2784 2406 2684 2573 
Q 2584 2741 2328 2741 
Q 2006 2741 1831 2477 
Q 1656 2213 1656 1722 
L 1656 0 
L 531 0 
L 531 3500 
L 1656 3500 
L 1656 2988 
Q 1863 3284 2130 3434 
Q 2397 3584 2719 3584 
Q 3081 3584 3359 3409 
Q 3638 3234 3781 2919 
z
" transform="scale(0.015625)"/>
       <path id="DejaVuSans-Bold-6c" d="M 538 4863 
L 1656 4863 
L 1656 0 
L 538 0 
L 538 4863 
z
" transform="scale(0.015625)"/>
       <path id="DejaVuSans-Bold-74" d="M 1759 4494 
L 1759 3500 
L 2913 3500 
L 2913 2700 
L 1759 2700 
L 1759 1216 
Q 1759 972 1856 886 
Q 1953 800 2241 800 
L 2816 800 
L 2816 0 
L 1856 0 
Q 1194 0 917 276 
Q 641 553 641 1216 
L 641 2700 
L 84 2700 
L 84 3500 
L 641 3500 
L 641 4494 
L 1759 4494 
z
" transform="scale(0.015625)"/>
       <path id="DejaVuSans-Bold-69" d="M 538 3500 
L 1656 3500 
L 1656 0 
L 538 0 
L 538 3500 
z
M 538 4863 
L 1656 4863 
L 1656 3950 
L 538 3950 
L 538 4863 
z
" transform="scale(0.015625)"/>
       <path id="DejaVuSans-Bold-76" d="M 97 3500 
L 1216 3500 
L 2088 1081 
L 2956 3500 
L 4078 3500 
L 2700 0 
L 1472 0 
L 97 3500 
z
" transform="scale(0.015625)"/>
       <path id="DejaVuSans-Bold-66" d="M 2841 4863 
L 2841 4128 
L 2222 4128 
Q 1984 4128 1890 4042 
Q 1797 3956 1797 3744 
L 1797 3500 
L 2753 3500 
L 2753 2700 
L 1797 2700 
L 1797 0 
L 678 0 
L 678 2700 
L 122 2700 
L 122 3500 
L 678 3500 
L 678 3744 
Q 678 4316 997 4589 
Q 1316 4863 1984 4863 
L 2841 4863 
z
" transform="scale(0.015625)"/>
       <path id="DejaVuSans-Bold-6f" d="M 2203 2784 
Q 1831 2784 1636 2517 
Q 1441 2250 1441 1747 
Q 1441 1244 1636 976 
Q 1831 709 2203 709 
Q 2569 709 2762 976 
Q 2956 1244 2956 1747 
Q 2956 2250 2762 2517 
Q 2569 2784 2203 2784 
z
M 2203 3584 
Q 3106 3584 3614 3096 
Q 4122 2609 4122 1747 
Q 4122 884 3614 396 
Q 3106 -91 2203 -91 
Q 1297 -91 786 396 
Q 275 884 275 1747 
Q 275 2609 786 3096 
Q 1297 3584 2203 3584 
z
" transform="scale(0.015625)"/>
      </defs>
      <use xlink:href="#DejaVuSans-Bold-43"/>
      <use xlink:href="#DejaVuSans-Bold-75" transform="translate(73.388672 0)"/>
      <use xlink:href="#DejaVuSans-Bold-6d" transform="translate(144.580078 0)"/>
      <use xlink:href="#DejaVuSans-Bold-75" transform="translate(248.779297 0)"/>
      <use xlink:href="#DejaVuSans-Bold-6c" transform="translate(319.970703 0)"/>
      <use xlink:href="#DejaVuSans-Bold-61" transform="translate(354.248047 0)"/>
      <use xlink:href="#DejaVuSans-Bold-74" transform="translate(421.728516 0)"/>
      <use xlink:href="#DejaVuSans-Bold-69" transform="translate(469.53125 0)"/>
      <use xlink:href="#DejaVuSans-Bold-76" transform="translate(503.808594 0)"/>
      <use xlink:href="#DejaVuSans-Bold-65" transform="translate(568.994141 0)"/>
      <use xlink:href="#DejaVuSans-Bold-20" transform="translate(636.816406 0)"/>
      <use xlink:href="#DejaVuSans-Bold-66" transform="translate(671.630859 0)"/>
      <use xlink:href="#DejaVuSans-Bold-72" transform="translate(715.136719 0)"/>
      <use xlink:href="#DejaVuSans-Bold-61" transform="translate(764.453125 0)"/>
      <use xlink:href="#DejaVuSans-Bold-63" transform="translate(831.933594 0)"/>
      <use xlink:href="#DejaVuSans-Bold-74" transform="translate(891.210938 0)"/>
      <use xlink:href="#DejaVuSans-Bold-69" transform="translate(939.013672 0)"/>
      <use xlink:href="#DejaVuSans-Bold-6f" transform="translate(973.291016 0)"/>
      <use xlink:href="#DejaVuSans-Bold-6e" transform="translate(1041.992188 0)"/>
      <use xlink:href="#DejaVuSans-Bold-20" transform="translate(1113.183594 0)"/>
      <use xlink:href="#DejaVuSans-Bold-6f" transform="translate(1147.998047 0)"/>
      <use xlink:href="#DejaVuSans-Bold-66" transform="translate(1216.699219 0)"/>
      <use xlink:href="#DejaVuSans-Bold-20" transform="translate(1260.205078 0)"/>
      <use xlink:href="#DejaVuSans-Bold-52" transform="translate(1295.019531 0)"/>
      <use xlink:href="#DejaVuSans-Bold-4e" transform="translate(1372.021484 0)"/>
      <use xlink:href="#DejaVuSans-Bold-41" transform="translate(1455.712891 0)"/>
      <use xlink:href="#DejaVuSans-Bold-20" transform="translate(1533.105469 0)"/>
      <use xlink:href="#DejaVuSans-Bold-72" transform="translate(1567.919922 0)"/>
      <use xlink:href="#DejaVuSans-Bold-65" transform="translate(1617.236328 0)"/>
      <use xlink:href="#DejaVuSans-Bold-61" transform="translate(1685.058594 0)"/>
      <use xlink:href="#DejaVuSans-Bold-64" transform="translate(1752.539062 0)"/>
      <use xlink:href="#DejaVuSans-Bold-73" transform="translate(1824.121094 0)"/>
     </g>
    </g>
   </g>
   <g id="line2d_5">
    <path d="M 69.299659 167.544533 
L 69.51105 166.662804 
L 70.610284 163.619278 
L 72.216857 159.811866 
L 72.333122 159.575779 
L 72.417679 159.340849 
L 72.713626 158.739517 
L 72.808752 158.464049 
L 72.977865 158.144724 
L 73.072991 157.918445 
L 73.242104 157.604048 
L 73.316091 157.380636 
L 73.453495 157.158582 
L 73.548621 156.893324 
L 73.696595 156.629122 
L 73.791721 156.366681 
L 73.960834 156.149103 
L 74.045391 155.888623 
L 74.320199 155.32974 
L 74.394186 155.201638 
L 74.54216 154.904442 
L 76.793476 150.603129 
L 76.983728 150.298238 
L 77.089423 150.033533 
L 77.237397 149.807606 
L 77.321954 149.619904 
L 77.469927 149.432754 
L 77.533345 149.246108 
L 77.744736 148.98593 
L 77.839862 148.763926 
L 77.987836 148.506514 
L 78.051253 148.359803 
L 78.178088 148.176778 
L 78.336631 147.958194 
L 78.421188 147.740716 
L 78.769983 147.201952 
L 78.875679 146.987643 
L 79.182196 146.492435 
L 79.277322 146.316602 
L 79.594409 145.827731 
L 79.657826 145.654513 
L 79.8058 145.447447 
L 79.911495 145.275537 
L 80.059469 145.070181 
L 80.165165 144.831529 
L 80.334278 144.593984 
L 80.387125 144.492538 
L 80.535099 144.29015 
L 80.640795 144.088767 
L 80.76763 143.888843 
L 80.852186 143.722566 
L 81.053008 143.490855 
L 81.148134 143.293848 
L 81.391234 142.969241 
L 81.454651 142.808195 
L 81.592055 142.616117 
L 81.740029 142.394013 
L 81.845725 142.235884 
L 82.014837 142.015439 
L 82.088824 141.858417 
L 82.257937 141.639431 
L 82.342494 141.483616 
L 82.501037 141.26649 
L 82.860402 140.775959 
L 82.91325 140.654395 
L 83.050654 140.502805 
L 83.114071 140.351617 
L 83.336032 140.111104 
L 83.420589 139.9316 
L 83.610841 139.663777 
L 83.695397 139.545029 
L 83.906788 139.279268 
L 84.001914 139.073611 
L 84.213306 138.898834 
L 84.319001 138.695993 
L 84.519823 138.43682 
L 84.604379 138.322147 
L 84.784062 138.094107 
L 84.868618 137.952325 
L 85.06944 137.698584 
L 85.175135 137.558512 
L 85.54507 137.087344 
L 85.619057 136.949686 
L 85.841017 136.676079 
L 85.936143 136.539678 
L 86.094687 136.376871 
L 86.094687 136.295544 
L 86.210952 136.160752 
L 86.432913 135.946795 
L 86.528039 135.814166 
L 86.707721 135.603328 
L 86.792278 135.446255 
L 86.961391 135.263884 
L 87.373603 134.800513 
L 87.45816 134.673215 
L 87.669551 134.421084 
L 87.732968 134.320845 
L 87.92322 134.121424 
L 90.364788 131.353165 
L 90.449345 131.215858 
L 90.703014 131.03399 
L 90.79814 130.853178 
L 90.998962 130.695703 
L 90.998962 130.583293 
L 91.220923 130.449004 
L 91.27377 130.382111 
L 91.442883 130.226598 
L 91.548579 130.049458 
L 91.7494 129.895353 
L 91.844526 129.763679 
L 91.950222 129.632408 
L 92.151044 129.479862 
L 92.256739 129.371023 
L 92.436422 129.197755 
L 92.436422 129.132874 
L 92.690091 128.981887 
L 92.690091 128.874255 
L 92.94376 128.724023 
L 93.049456 128.552717 
L 93.165721 128.424765 
L 93.165721 128.360789 
L 93.334834 128.23314 
L 93.334834 128.211865 
L 93.609643 128.063393 
L 93.609643 127.915172 
L 93.768186 127.788428 
L 93.937299 127.641112 
L 94.138121 127.473578 
L 94.138121 127.389887 
L 94.328373 127.264651 
L 94.328373 127.202033 
L 94.518625 127.0771 
L 94.518625 127.014633 
L 94.730016 126.86943 
L 94.825142 126.766023 
L 95.036533 126.601255 
L 95.036533 126.518972 
L 95.311341 126.375378 
L 95.406468 126.211767 
L 95.59672 126.049162 
L 95.59672 126.028893 
L 95.723554 125.907581 
L 95.723554 125.846924 
L 95.924376 125.725914 
L 95.924376 125.64524 
L 96.135767 125.504664 
L 96.135767 125.484596 
L 96.273171 125.364491 
L 96.273171 125.344473 
L 96.463423 125.224669 
L 96.463423 125.124833 
L 96.79108 124.985465 
L 96.79108 124.846398 
L 97.02361 124.707733 
L 97.118736 124.549957 
L 97.319558 124.412499 
L 97.319558 124.373269 
L 97.520379 124.236415 
L 97.604936 124.119579 
L 97.879744 123.964367 
L 97.879744 123.828821 
L 98.112274 123.693677 
L 98.323666 123.520963 
L 98.323666 123.42515 
L 98.513918 123.310477 
L 98.513918 123.25314 
L 98.714739 123.138768 
L 98.714739 123.06252 
L 98.947269 122.94845 
L 98.947269 122.83438 
L 99.158661 122.720612 
L 99.158661 122.682689 
L 99.338343 122.569223 
L 99.338343 122.51249 
L 99.518026 122.399325 
L 99.518026 122.361603 
L 99.718847 122.248741 
L 99.718847 122.154688 
L 100.057073 122.023417 
L 100.057073 121.873738 
L 100.247325 121.76178 
L 100.247325 121.705802 
L 100.437577 121.594146 
L 100.437577 121.538318 
L 100.638399 121.408405 
L 100.638399 121.352728 
L 100.923777 121.223267 
L 100.923777 121.130975 
L 101.103459 121.002119 
L 101.103459 120.946894 
L 101.462824 120.800082 
L 101.462824 120.635314 
L 101.663646 120.507514 
L 101.663646 120.470999 
L 101.917315 120.325545 
L 101.917315 120.271075 
L 102.107567 120.14433 
L 102.107567 120.071905 
L 102.297819 119.945513 
L 102.583197 119.801517 
L 102.583197 119.71174 
L 102.773449 119.586403 
L 102.773449 119.496878 
L 103.048258 119.371893 
L 103.048258 119.246909 
L 103.312497 119.122277 
L 103.312497 119.051059 
L 103.766988 118.909075 
L 103.766988 118.608107 
L 104.073505 118.484532 
L 104.073505 118.413917 
L 104.316605 118.290693 
L 104.316605 118.202676 
L 104.633692 118.062453 
L 104.633692 117.957436 
L 104.940209 117.817916 
L 104.940209 117.730905 
L 105.257296 117.59214 
L 105.257296 117.453727 
L 105.458117 117.332968 
L 105.458117 117.281214 
L 105.690648 117.160807 
L 105.690648 117.074802 
L 106.060582 116.937696 
L 106.060582 116.783792 
L 106.335391 116.664441 
L 106.335391 116.52804 
L 106.641908 116.409041 
L 106.641908 116.290042 
L 106.895577 116.171396 
L 106.895577 116.120547 
L 107.096399 116.002252 
L 107.096399 115.968454 
L 107.318359 115.850511 
L 107.318359 115.766266 
L 107.529751 115.648675 
L 107.529751 115.631877 
L 107.751711 115.514638 
L 107.751711 115.414148 
L 107.994811 115.297261 
L 107.994811 115.247167 
L 108.206202 115.130633 
L 108.206202 115.080689 
L 108.459872 114.964507 
L 108.459872 114.848325 
L 108.724111 114.732494 
L 108.724111 114.666305 
L 109.009489 114.550827 
L 109.009489 114.402355 
L 109.305436 114.287229 
L 109.305436 114.204996 
L 109.527397 114.090222 
L 109.527397 114.057429 
L 109.770497 113.943007 
L 109.770497 113.828585 
L 110.108723 113.714515 
L 110.108723 113.535262 
L 110.40467 113.421544 
L 110.40467 113.372808 
L 110.700618 113.259442 
L 110.700618 113.081296 
L 110.985996 112.968282 
L 110.985996 112.935993 
L 111.229096 112.823331 
L 111.229096 112.710669 
L 111.472196 112.598359 
L 111.472196 112.566271 
L 111.673017 112.454313 
L 111.673017 112.406332 
L 111.894978 112.294726 
L 111.894978 112.230952 
L 112.127508 112.103805 
L 112.127508 112.056125 
L 112.370608 111.92938 
L 112.370608 111.866008 
L 112.655986 111.739666 
L 112.655986 111.629117 
L 112.941364 111.503177 
L 112.941364 111.440207 
L 113.226742 111.31467 
L 113.226742 111.204825 
L 113.501551 111.07969 
L 113.501551 111.032764 
L 113.75522 110.908031 
L 113.75522 110.830074 
L 114.093446 110.705743 
L 114.093446 110.534789 
L 114.463381 110.410861 
L 114.463381 110.286933 
L 114.72762 110.163408 
L 114.72762 110.147967 
L 115.065846 110.024844 
L 115.065846 109.793988 
L 115.478058 109.671267 
L 115.478058 109.548547 
L 115.742297 109.426228 
L 115.742297 109.410938 
L 116.038245 109.289022 
L 116.038245 109.121388 
L 116.365901 108.999874 
L 116.365901 108.939117 
L 116.619571 108.818006 
L 116.619571 108.75745 
L 116.87324 108.636741 
L 116.87324 108.576387 
L 117.158618 108.45608 
L 117.158618 108.350812 
L 117.602539 108.21607 
L 117.602539 108.036817 
L 117.887918 107.917718 
L 117.887918 107.858168 
L 118.162726 107.739471 
L 118.162726 107.650448 
L 118.416395 107.532153 
L 118.416395 107.50258 
L 118.659495 107.384687 
L 118.659495 107.311004 
L 118.987152 107.193514 
L 118.987152 107.046652 
L 119.420503 106.929564 
L 119.420503 106.710025 
L 119.832716 106.593339 
L 119.832716 106.476654 
L 120.266068 106.360371 
L 120.266068 106.11327 
L 120.783976 105.997389 
L 120.783976 105.765628 
L 121.206759 105.65015 
L 121.206759 105.534671 
L 121.587263 105.419595 
L 121.587263 105.246982 
L 121.978336 105.132308 
L 121.978336 105.0033 
L 122.284854 104.889029 
L 122.284854 104.831894 
L 122.61251 104.718025 
L 122.61251 104.561455 
L 122.993014 104.447989 
L 122.993014 104.320339 
L 123.310101 104.207275 
L 123.310101 104.13661 
L 123.680035 104.023948 
L 123.680035 103.82679 
L 124.0394 103.714531 
L 124.0394 103.658401 
L 124.314209 103.546544 
L 124.314209 103.462651 
L 124.663004 103.351197 
L 124.663004 103.197947 
L 125.075217 103.073013 
L 125.075217 102.920316 
L 125.47686 102.795835 
L 125.47686 102.671354 
L 125.867934 102.547325 
L 125.867934 102.409516 
L 126.227299 102.28594 
L 126.227299 102.203556 
L 126.618372 102.080433 
L 126.618372 101.902588 
L 127.083433 101.779918 
L 127.083433 101.602727 
L 127.527354 101.480509 
L 127.527354 101.331132 
L 128.024124 101.209367 
L 128.024124 100.965836 
L 128.489184 100.844524 
L 128.489184 100.736691 
L 128.880258 100.615831 
L 128.880258 100.468113 
L 129.324179 100.347706 
L 129.324179 100.173784 
L 129.715253 100.05383 
L 129.715253 99.97386 
L 130.190883 99.854358 
L 130.190883 99.57552 
L 130.814487 99.456471 
L 130.814487 99.191917 
L 131.279548 99.073321 
L 131.279548 98.994256 
L 131.617773 98.876113 
L 131.617773 98.771096 
L 132.061695 98.653404 
L 132.061695 98.444176 
L 132.558464 98.326937 
L 132.558464 98.157592 
L 133.086942 98.040806 
L 133.086942 97.794258 
L 133.61542 97.677925 
L 133.61542 97.509888 
L 134.10162 97.394007 
L 134.10162 97.200873 
L 134.651237 97.085445 
L 134.651237 96.841764 
L 135.243132 96.726789 
L 135.243132 96.484063 
L 135.856166 96.36954 
L 135.856166 96.102321 
L 136.543187 95.988251 
L 136.543187 95.658715 
L 137.135083 95.545098 
L 137.135083 95.393608 
L 137.631852 95.280444 
L 137.631852 95.066688 
L 138.107482 94.953976 
L 138.107482 94.828741 
L 138.519695 94.716481 
L 138.519695 94.579275 
L 138.910768 94.467469 
L 138.910768 94.368085 
L 139.322981 94.256731 
L 139.322981 94.095886 
L 139.883168 93.972662 
L 139.883168 93.713893 
L 140.443354 93.591172 
L 140.443354 93.443907 
L 140.961263 93.321689 
L 140.961263 93.113919 
L 141.458032 92.992204 
L 141.458032 92.870489 
L 141.98651 92.749277 
L 141.98651 92.506853 
L 142.588975 92.386144 
L 142.588975 92.180939 
L 143.085744 92.060733 
L 143.085744 91.940527 
L 143.476818 91.820824 
L 143.476818 91.737032 
L 144.005295 91.617831 
L 144.005295 91.343671 
L 144.734595 91.224974 
L 144.734595 90.916361 
L 145.411047 90.798167 
L 145.411047 90.585418 
L 146.034651 90.467726 
L 146.034651 90.220575 
L 146.584268 90.103386 
L 146.584268 89.974479 
L 147.112746 89.857794 
L 147.112746 89.636092 
L 147.746919 89.519909 
L 147.746919 89.275926 
L 148.465649 89.160247 
L 148.465649 88.847912 
L 149.120962 88.732736 
L 149.120962 88.559971 
L 149.649439 88.445298 
L 149.649439 88.273287 
L 150.283613 88.159117 
L 150.283613 87.87369 
L 150.970634 87.760023 
L 150.970634 87.532688 
L 151.573099 87.419523 
L 151.573099 87.227143 
L 152.26012 87.114481 
L 152.26012 86.799028 
L 152.957711 86.68687 
L 152.957711 86.484984 
L 153.539037 86.373328 
L 153.539037 86.183513 
L 154.152071 86.07236 
L 154.152071 85.838939 
L 154.722827 85.717224 
L 154.722827 85.584445 
L 155.325292 85.463283 
L 155.325292 85.209945 
L 155.980605 85.089337 
L 155.980605 84.902942 
L 156.593639 84.782887 
L 156.593639 84.575519 
L 157.270091 84.456017 
L 157.270091 84.206149 
L 157.925403 84.087201 
L 157.925403 83.903371 
L 158.580716 83.784976 
L 158.580716 83.537422 
L 159.320585 83.419579 
L 159.320585 83.151756 
L 160.092163 83.034467 
L 160.092163 82.757239 
L 160.779184 82.640504 
L 160.779184 82.460094 
L 161.466205 82.343911 
L 161.466205 82.069299 
L 162.100379 81.953669 
L 162.100379 81.827529 
L 162.755691 81.712453 
L 162.755691 81.419532 
L 163.548408 81.30501 
L 163.548408 81.044731 
L 164.267138 80.930761 
L 164.267138 80.713184 
L 164.93302 80.599767 
L 164.93302 80.393556 
L 165.67289 80.280693 
L 165.67289 79.993406 
L 166.476176 79.881096 
L 166.476176 79.615637 
L 167.353449 79.503881 
L 167.353449 79.148292 
L 168.262431 79.037089 
L 168.262431 78.743917 
L 169.107996 78.623208 
L 169.107996 78.341554 
L 169.911282 78.221448 
L 169.911282 77.981238 
L 170.725138 77.861736 
L 170.725138 77.572939 
L 171.549564 77.454041 
L 171.549564 77.206336 
L 172.236585 77.088041 
L 172.236585 76.930315 
L 172.902467 76.812624 
L 172.902467 76.587049 
L 173.726893 76.469961 
L 173.726893 76.167485 
L 174.551318 76.051 
L 174.551318 75.827739 
L 175.312326 75.711858 
L 175.312326 75.470441 
L 176.136752 75.355163 
L 176.136752 75.076577 
L 177.014025 74.961904 
L 177.014025 74.67522 
L 177.85959 74.56115 
L 177.85959 74.313998 
L 178.684015 74.200532 
L 178.684015 73.935777 
L 179.519011 73.822914 
L 179.519011 73.568972 
L 180.364575 73.456713 
L 180.364575 73.18542 
L 181.315835 73.073764 
L 181.315835 72.729492 
L 182.341083 72.609185 
L 182.341083 72.285283 
L 183.387469 72.16563 
L 183.387469 71.815876 
L 184.454994 71.696877 
L 184.454994 71.358187 
L 185.448533 71.239842 
L 185.448533 70.957635 
L 186.336376 70.839944 
L 186.336376 70.595508 
L 187.171371 70.47847 
L 187.171371 70.244396 
L 187.932379 70.128012 
L 187.932379 69.94896 
L 188.767374 69.833231 
L 188.767374 69.539455 
L 189.771482 69.424379 
L 189.771482 69.105708 
L 190.743881 68.991286 
L 190.743881 68.727235 
L 191.73742 68.613466 
L 191.73742 68.280913 
L 192.667541 68.167799 
L 192.667541 67.958972 
L 193.597662 67.846512 
L 193.597662 67.517781 
L 194.665187 67.405974 
L 194.665187 67.087755 
L 195.690434 66.976602 
L 195.690434 66.685895 
L 196.74739 66.566896 
L 196.74739 66.235399 
L 197.910042 66.117104 
L 197.910042 65.75377 
L 199.093832 65.636179 
L 199.093832 65.291807 
L 200.245914 65.17492 
L 200.245914 64.840959 
L 201.271161 64.724776 
L 201.271161 64.484113 
L 202.296408 64.368635 
L 202.296408 64.038697 
L 203.427351 63.923923 
L 203.427351 63.604195 
L 204.611141 63.490125 
L 204.611141 63.123471 
L 205.858349 63.010105 
L 205.858349 62.645715 
L 207.179544 62.533053 
L 207.179544 62.114596 
L 208.405613 62.002638 
L 208.405613 61.714747 
L 209.536555 61.603494 
L 209.536555 61.261787 
L 210.794333 61.143341 
L 210.794333 60.772211 
L 211.946415 60.65452 
L 211.946415 60.403445 
L 213.066788 60.286508 
L 213.066788 59.943494 
L 214.303426 59.827311 
L 214.303426 59.494255 
L 215.444938 59.378827 
L 215.444938 59.109495 
L 216.618159 58.994822 
L 216.618159 58.643156 
L 217.928785 58.529237 
L 217.928785 58.164696 
L 219.154853 58.051531 
L 219.154853 57.764848 
L 220.317505 57.652437 
L 220.317505 57.337689 
L 221.691547 57.226033 
L 221.691547 56.794297 
L 223.086729 56.676002 
L 223.086729 56.358085 
L 224.164824 56.240595 
L 224.164824 56.04233 
L 225.327475 55.925645 
L 225.327475 55.553711 
L 226.722657 55.43783 
L 226.722657 55.082946 
L 228.001573 54.96787 
L 228.001573 54.68018 
L 229.206503 54.565909 
L 229.206503 54.265947 
L 230.46428 54.152481 
L 230.46428 53.833356 
L 231.774906 53.720694 
L 231.774906 53.389751 
L 233.170087 53.277894 
L 233.170087 52.907367 
L 234.449004 52.789374 
L 234.449004 52.546448 
L 235.653933 52.42931 
L 235.653933 52.119238 
L 237.070254 52.002955 
L 237.070254 51.626746 
L 238.476005 51.511318 
L 238.476005 51.212563 
L 239.733783 51.09799 
L 239.733783 50.821667 
L 240.949282 50.707949 
L 240.949282 50.440378 
L 242.238768 50.327515 
L 242.238768 50.008843 
L 243.63395 49.896835 
L 243.63395 49.5674 
L 245.103118 49.456247 
L 245.103118 49.096635 
L 246.561717 48.979849 
L 246.561717 48.66842 
L 247.999177 48.55254 
L 247.999177 48.217773 
L 249.500055 48.102798 
L 249.500055 47.757872 
L 250.948084 47.643802 
L 250.948084 47.345953 
L 252.385544 47.232788 
L 252.385544 46.899581 
L 253.854712 46.787322 
L 253.854712 46.47549 
L 255.397868 46.364136 
L 255.397868 45.992956 
L 257.046719 45.876371 
L 257.046719 45.514345 
L 258.748418 45.398716 
L 258.748418 45.009228 
L 260.312712 44.894555 
L 260.312712 44.616924 
L 261.644477 44.503206 
L 261.644477 44.25183 
L 263.039658 44.139067 
L 263.039658 43.830455 
L 264.498257 43.718648 
L 264.498257 43.436189 
L 266.062552 43.319504 
L 266.062552 42.963613 
L 267.806529 42.847934 
L 267.806529 42.47776 
L 269.635063 42.363086 
L 269.635063 41.967462 
L 271.326192 41.853795 
L 271.326192 41.563942 
L 272.890486 41.451281 
L 272.890486 41.130195 
L 274.518198 41.018539 
L 274.518198 40.70032 
L 276.230467 40.584138 
L 276.230467 40.230058 
L 277.942735 40.114932 
L 277.942735 39.807929 
L 279.581017 39.693859 
L 279.581017 39.38424 
L 281.293285 39.271226 
L 281.293285 38.932185 
L 283.142958 38.820227 
L 283.142958 38.447035 
L 284.897504 38.330853 
L 284.897504 38.050959 
L 286.419521 37.935883 
L 286.419521 37.690039 
L 287.973246 37.57607 
L 287.973246 37.285966 
L 289.442414 37.173103 
L 289.442414 36.973028 
L 290.901013 36.861271 
L 290.901013 36.581881 
L 292.602712 36.466201 
L 292.602712 36.159399 
L 294.367828 36.044876 
L 294.367828 35.746122 
L 295.942693 35.632756 
L 295.942693 35.420811 
L 297.612683 35.308602 
L 297.612683 34.971975 
L 299.398938 34.856094 
L 299.398938 34.600191 
L 301.111207 34.485518 
L 301.111207 34.194056 
L 303.108853 34.080589 
L 303.108853 33.702368 
L 305.08536 33.590108 
L 305.08536 33.314138 
L 306.787059 33.198458 
L 306.787059 32.953218 
L 308.43591 32.838796 
L 308.43591 32.596221 
L 310.031914 32.483056 
L 310.031914 32.26578 
L 311.659625 32.153873 
L 311.659625 31.903201 
L 313.667842 31.788125 
L 313.667842 31.420767 
L 315.908588 31.306999 
L 315.908588 30.97007 
L 318.043639 30.857609 
L 318.043639 30.541855 
L 319.91445 30.430702 
L 319.91445 30.208396 
L 321.616149 30.094326 
L 321.616149 29.857737 
L 323.402404 29.745025 
L 323.402404 29.498728 
L 325.199229 29.387374 
L 325.199229 29.152293 
L 327.048902 29.038223 
L 327.048902 28.781566 
L 328.940853 28.668904 
L 328.940853 28.427486 
L 330.589704 28.316233 
L 330.589704 28.157299 
L 332.227985 28.043531 
L 332.227985 27.815995 
L 334.27848 27.703685 
L 334.27848 27.401611 
L 336.254987 27.286937 
L 336.254987 27.095815 
L 337.914408 26.98265 
L 337.914408 26.805359 
L 339.425854 26.693703 
L 339.425854 26.559716 
L 340.937301 26.445897 
L 340.937301 26.277005 
L 342.617861 26.164746 
L 342.617861 25.980061 
L 344.520381 25.86579 
L 344.520381 25.630106 
L 346.549737 25.517444 
L 346.549737 25.299162 
L 348.399409 25.184639 
L 348.399409 25.018061 
L 350.164525 24.905198 
L 350.164525 24.723933 
L 352.098755 24.61273 
L 352.098755 24.397064 
L 353.906149 24.284201 
L 353.906149 24.151421 
L 355.555 24.040268 
L 355.555 23.883346 
L 357.161573 23.770685 
L 357.161573 23.658023 
L 358.89498 23.543953 
L 358.89498 23.360173 
L 360.860918 23.247914 
L 360.860918 23.073288 
L 362.911413 22.959772 
L 362.911413 22.76035 
L 364.88792 22.648695 
L 364.88792 22.503844 
L 366.674175 22.391082 
L 366.674175 22.25458 
L 368.439291 22.140812 
L 368.439291 22.012458 
L 370.447507 21.900651 
L 370.447507 21.705706 
L 372.52971 21.593044 
L 372.52971 21.452217 
L 374.506218 21.338801 
L 374.506218 21.183891 
L 376.313612 21.072537 
L 376.313612 20.982911 
L 377.930755 20.870953 
L 377.930755 20.772324 
L 379.611314 20.659863 
L 379.611314 20.563095 
L 381.513835 20.450232 
L 381.513835 20.306588 
L 383.321229 20.193424 
L 383.321229 20.12804 
L 384.948941 20.014674 
L 384.948941 19.923488 
L 386.756336 19.810022 
L 386.756336 19.71104 
L 388.637717 19.597574 
L 388.637717 19.498291 
L 390.423972 19.384925 
L 390.423972 19.315517 
L 392.210227 19.202353 
L 392.210227 19.111821 
L 394.229013 18.998958 
L 394.229013 18.888308 
L 396.20552 18.775848 
L 396.20552 18.702316 
L 397.991776 18.590358 
L 397.991776 18.526986 
L 399.788601 18.415632 
L 399.788601 18.347582 
L 401.595995 18.234921 
L 401.595995 18.17859 
L 403.223707 18.066783 
L 403.223707 18.041283 
L 404.83028 17.928521 
L 404.83028 17.884563 
L 406.7328 17.772907 
L 406.7328 17.702192 
L 408.762155 17.589932 
L 408.762155 17.531992 
L 410.590689 17.41933 
L 410.590689 17.392925 
L 412.556627 17.281772 
L 412.556627 17.20995 
L 414.63883 17.098747 
L 414.63883 17.060573 
L 416.520211 16.947911 
L 416.520211 16.918941 
L 418.285327 16.806682 
L 418.285327 16.795768 
L 420.082152 16.684112 
L 420.082152 16.658461 
L 423.527828 16.544894 
L 423.527828 16.428008 
L 425.504335 16.316654 
L 425.504335 16.29221 
L 429.119124 16.17985 
L 429.119124 16.089318 
L 432.437965 15.976707 
L 432.437965 15.896888 
L 435.947059 15.784025 
L 435.947059 15.718541 
L 439.318748 15.606382 
L 439.318748 15.569113 
L 442.84898 15.456401 
L 442.84898 15.40852 
L 446.812564 15.29611 
L 446.812564 15.265178 
L 451.864813 15.152315 
L 451.864813 15.117309 
L 456.821936 15.004748 
L 456.821936 14.995242 
L 466.112577 14.881877 
L 466.112577 14.862764 
L 475.117841 14.835454 
L 475.117841 14.835454 
" clip-path="url(#p8ffdfa0720)" style="fill: none; stroke: #ffc25f; stroke-width: 5; stroke-linecap: square"/>
   </g>
   <g id="patch_3">
    <path d="M 49.00875 450.72 
L 49.00875 7.2 
" style="fill: none; stroke: #000000; stroke-linejoin: miter; stroke-linecap: square"/>
   </g>
   <g id="patch_4">
    <path d="M 49.00875 450.72 
L 495.40875 450.72 
" style="fill: none; stroke: #000000; stroke-linejoin: miter; stroke-linecap: square"/>
   </g>
  </g>
 </g>
 <defs>
  <clipPath id="p8ffdfa0720">
   <rect x="49.00875" y="7.2" width="446.4" height="443.52"/>
  </clipPath>
 </defs>
</svg>
