<?xml version="1.0" encoding="utf-8" standalone="no"?>
<!DOCTYPE svg PUBLIC "-//W3C//DTD SVG 1.1//EN"
  "http://www.w3.org/Graphics/SVG/1.1/DTD/svg11.dtd">
<svg xmlns:xlink="http://www.w3.org/1999/xlink" width="502.60875pt" height="505.853125pt" viewBox="0 0 502.60875 505.853125" xmlns="http://www.w3.org/2000/svg" version="1.1">
 <metadata>
  <rdf:RDF xmlns:dc="http://purl.org/dc/elements/1.1/" xmlns:cc="http://creativecommons.org/ns#" xmlns:rdf="http://www.w3.org/1999/02/22-rdf-syntax-ns#">
   <cc:Work>
    <dc:type rdf:resource="http://purl.org/dc/dcmitype/StillImage"/>
    <dc:date>2026-01-06T11:39:59.614735</dc:date>
    <dc:format>image/svg+xml</dc:format>
    <dc:creator>
     <cc:Agent>
      <dc:title>Matplotlib v3.10.6, https://matplotlib.org/</dc:title>
     </cc:Agent>
    </dc:creator>
   </cc:Work>
  </rdf:RDF>
 </metadata>
 <defs>
  <style type="text/css">*{stroke-linejoin: round; stroke-linecap: butt}</style>
 </defs>
 <g id="figure_1">
  <g id="patch_1">
   <path d="M 0 505.853125 
L 502.60875 505.853125 
L 502.60875 0 
L 0 0 
L 0 505.853125 
z
" style="fill: none"/>
  </g>
  <g id="axes_1">
   <g id="patch_2">
    <path d="M 49.00875 450.72 
L 495.40875 450.72 
L 495.40875 7.2 
L 49.00875 7.2 
L 49.00875 450.72 
z
" style="fill: none"/>
   </g>
   <g id="matplotlib.axis_1">
    <g id="xtick_1">
     <g id="line2d_1">
      <defs>
       <path id="m69181a63f5" d="M 0 0 
L 0 3.5 
" style="stroke: #000000; stroke-width: 0.8"/>
      </defs>
      <g>
       <use xlink:href="#m69181a63f5" x="69.278915" y="450.72" style="stroke: #000000; stroke-width: 0.8"/>
      </g>
     </g>
     <g id="text_1">
      <!-- 0 -->
      <g transform="translate(63.552665 471.397187) scale(0.18 -0.18)">
       <defs>
        <path id="DejaVuSans-30" d="M 2034 4250 
Q 1547 4250 1301 3770 
Q 1056 3291 1056 2328 
Q 1056 1369 1301 889 
Q 1547 409 2034 409 
Q 2525 409 2770 889 
Q 3016 1369 3016 2328 
Q 3016 3291 2770 3770 
Q 2525 4250 2034 4250 
z
M 2034 4750 
Q 2819 4750 3233 4129 
Q 3647 3509 3647 2328 
Q 3647 1150 3233 529 
Q 2819 -91 2034 -91 
Q 1250 -91 836 529 
Q 422 1150 422 2328 
Q 422 3509 836 4129 
Q 1250 4750 2034 4750 
z
" transform="scale(0.015625)"/>
       </defs>
       <use xlink:href="#DejaVuSans-30"/>
      </g>
     </g>
    </g>
    <g id="xtick_2">
     <g id="line2d_2">
      <g>
       <use xlink:href="#m69181a63f5" x="481.786921" y="450.72" style="stroke: #000000; stroke-width: 0.8"/>
      </g>
     </g>
     <g id="text_2">
      <!-- 1 -->
      <g transform="translate(476.060671 471.397187) scale(0.18 -0.18)">
       <defs>
        <path id="DejaVuSans-31" d="M 794 531 
L 1825 531 
L 1825 4091 
L 703 3866 
L 703 4441 
L 1819 4666 
L 2450 4666 
L 2450 531 
L 3481 531 
L 3481 0 
L 794 0 
L 794 531 
z
" transform="scale(0.015625)"/>
       </defs>
       <use xlink:href="#DejaVuSans-31"/>
      </g>
     </g>
    </g>
    <g id="text_3">
     <!-- cCREs rank by RNA reads -->
     <g transform="translate(130.029063 494.3375) scale(0.2 -0.2)">
      <defs>
       <path id="DejaVuSans-Bold-63" d="M 3366 3391 
L 3366 2478 
Q 3138 2634 2908 2709 
Q 2678 2784 2431 2784 
Q 1963 2784 1702 2511 
Q 1441 2238 1441 1747 
Q 1441 1256 1702 982 
Q 1963 709 2431 709 
Q 2694 709 2930 787 
Q 3166 866 3366 1019 
L 3366 103 
Q 3103 6 2833 -42 
Q 2563 -91 2291 -91 
Q 1344 -91 809 395 
Q 275 881 275 1747 
Q 275 2613 809 3098 
Q 1344 3584 2291 3584 
Q 2566 3584 2833 3536 
Q 3100 3488 3366 3391 
z
" transform="scale(0.015625)"/>
       <path id="DejaVuSans-Bold-43" d="M 4288 256 
Q 3956 84 3597 -3 
Q 3238 -91 2847 -91 
Q 1681 -91 1000 561 
Q 319 1213 319 2328 
Q 319 3447 1000 4098 
Q 1681 4750 2847 4750 
Q 3238 4750 3597 4662 
Q 3956 4575 4288 4403 
L 4288 3438 
Q 3953 3666 3628 3772 
Q 3303 3878 2944 3878 
Q 2300 3878 1931 3465 
Q 1563 3053 1563 2328 
Q 1563 1606 1931 1193 
Q 2300 781 2944 781 
Q 3303 781 3628 887 
Q 3953 994 4288 1222 
L 4288 256 
z
" transform="scale(0.015625)"/>
       <path id="DejaVuSans-Bold-52" d="M 2297 2597 
Q 2675 2597 2839 2737 
Q 3003 2878 3003 3200 
Q 3003 3519 2839 3656 
Q 2675 3794 2297 3794 
L 1791 3794 
L 1791 2597 
L 2297 2597 
z
M 1791 1766 
L 1791 0 
L 588 0 
L 588 4666 
L 2425 4666 
Q 3347 4666 3776 4356 
Q 4206 4047 4206 3378 
Q 4206 2916 3982 2619 
Q 3759 2322 3309 2181 
Q 3556 2125 3751 1926 
Q 3947 1728 4147 1325 
L 4800 0 
L 3519 0 
L 2950 1159 
Q 2778 1509 2601 1637 
Q 2425 1766 2131 1766 
L 1791 1766 
z
" transform="scale(0.015625)"/>
       <path id="DejaVuSans-Bold-45" d="M 588 4666 
L 3834 4666 
L 3834 3756 
L 1791 3756 
L 1791 2888 
L 3713 2888 
L 3713 1978 
L 1791 1978 
L 1791 909 
L 3903 909 
L 3903 0 
L 588 0 
L 588 4666 
z
" transform="scale(0.015625)"/>
       <path id="DejaVuSans-Bold-73" d="M 3272 3391 
L 3272 2541 
Q 2913 2691 2578 2766 
Q 2244 2841 1947 2841 
Q 1628 2841 1473 2761 
Q 1319 2681 1319 2516 
Q 1319 2381 1436 2309 
Q 1553 2238 1856 2203 
L 2053 2175 
Q 2913 2066 3209 1816 
Q 3506 1566 3506 1031 
Q 3506 472 3093 190 
Q 2681 -91 1863 -91 
Q 1516 -91 1145 -36 
Q 775 19 384 128 
L 384 978 
Q 719 816 1070 734 
Q 1422 653 1784 653 
Q 2113 653 2278 743 
Q 2444 834 2444 1013 
Q 2444 1163 2330 1236 
Q 2216 1309 1875 1350 
L 1678 1375 
Q 931 1469 631 1722 
Q 331 1975 331 2491 
Q 331 3047 712 3315 
Q 1094 3584 1881 3584 
Q 2191 3584 2531 3537 
Q 2872 3491 3272 3391 
z
" transform="scale(0.015625)"/>
       <path id="DejaVuSans-Bold-20" transform="scale(0.015625)"/>
       <path id="DejaVuSans-Bold-72" d="M 3138 2547 
Q 2991 2616 2845 2648 
Q 2700 2681 2553 2681 
Q 2122 2681 1889 2404 
Q 1656 2128 1656 1613 
L 1656 0 
L 538 0 
L 538 3500 
L 1656 3500 
L 1656 2925 
Q 1872 3269 2151 3426 
Q 2431 3584 2822 3584 
Q 2878 3584 2943 3579 
Q 3009 3575 3134 3559 
L 3138 2547 
z
" transform="scale(0.015625)"/>
       <path id="DejaVuSans-Bold-61" d="M 2106 1575 
Q 1756 1575 1579 1456 
Q 1403 1338 1403 1106 
Q 1403 894 1545 773 
Q 1688 653 1941 653 
Q 2256 653 2472 879 
Q 2688 1106 2688 1447 
L 2688 1575 
L 2106 1575 
z
M 3816 1997 
L 3816 0 
L 2688 0 
L 2688 519 
Q 2463 200 2181 54 
Q 1900 -91 1497 -91 
Q 953 -91 614 226 
Q 275 544 275 1050 
Q 275 1666 698 1953 
Q 1122 2241 2028 2241 
L 2688 2241 
L 2688 2328 
Q 2688 2594 2478 2717 
Q 2269 2841 1825 2841 
Q 1466 2841 1156 2769 
Q 847 2697 581 2553 
L 581 3406 
Q 941 3494 1303 3539 
Q 1666 3584 2028 3584 
Q 2975 3584 3395 3211 
Q 3816 2838 3816 1997 
z
" transform="scale(0.015625)"/>
       <path id="DejaVuSans-Bold-6e" d="M 4056 2131 
L 4056 0 
L 2931 0 
L 2931 347 
L 2931 1631 
Q 2931 2084 2911 2256 
Q 2891 2428 2841 2509 
Q 2775 2619 2662 2680 
Q 2550 2741 2406 2741 
Q 2056 2741 1856 2470 
Q 1656 2200 1656 1722 
L 1656 0 
L 538 0 
L 538 3500 
L 1656 3500 
L 1656 2988 
Q 1909 3294 2193 3439 
Q 2478 3584 2822 3584 
Q 3428 3584 3742 3212 
Q 4056 2841 4056 2131 
z
" transform="scale(0.015625)"/>
       <path id="DejaVuSans-Bold-6b" d="M 538 4863 
L 1656 4863 
L 1656 2216 
L 2944 3500 
L 4244 3500 
L 2534 1894 
L 4378 0 
L 3022 0 
L 1656 1459 
L 1656 0 
L 538 0 
L 538 4863 
z
" transform="scale(0.015625)"/>
       <path id="DejaVuSans-Bold-62" d="M 2400 722 
Q 2759 722 2948 984 
Q 3138 1247 3138 1747 
Q 3138 2247 2948 2509 
Q 2759 2772 2400 2772 
Q 2041 2772 1848 2508 
Q 1656 2244 1656 1747 
Q 1656 1250 1848 986 
Q 2041 722 2400 722 
z
M 1656 2988 
Q 1888 3294 2169 3439 
Q 2450 3584 2816 3584 
Q 3463 3584 3878 3070 
Q 4294 2556 4294 1747 
Q 4294 938 3878 423 
Q 3463 -91 2816 -91 
Q 2450 -91 2169 54 
Q 1888 200 1656 506 
L 1656 0 
L 538 0 
L 538 4863 
L 1656 4863 
L 1656 2988 
z
" transform="scale(0.015625)"/>
       <path id="DejaVuSans-Bold-79" d="M 78 3500 
L 1197 3500 
L 2138 1125 
L 2938 3500 
L 4056 3500 
L 2584 -331 
Q 2363 -916 2067 -1148 
Q 1772 -1381 1288 -1381 
L 641 -1381 
L 641 -647 
L 991 -647 
Q 1275 -647 1404 -556 
Q 1534 -466 1606 -231 
L 1638 -134 
L 78 3500 
z
" transform="scale(0.015625)"/>
       <path id="DejaVuSans-Bold-4e" d="M 588 4666 
L 1931 4666 
L 3628 1466 
L 3628 4666 
L 4769 4666 
L 4769 0 
L 3425 0 
L 1728 3200 
L 1728 0 
L 588 0 
L 588 4666 
z
" transform="scale(0.015625)"/>
       <path id="DejaVuSans-Bold-41" d="M 3419 850 
L 1538 850 
L 1241 0 
L 31 0 
L 1759 4666 
L 3194 4666 
L 4922 0 
L 3713 0 
L 3419 850 
z
M 1838 1716 
L 3116 1716 
L 2478 3572 
L 1838 1716 
z
" transform="scale(0.015625)"/>
       <path id="DejaVuSans-Bold-65" d="M 4031 1759 
L 4031 1441 
L 1416 1441 
Q 1456 1047 1700 850 
Q 1944 653 2381 653 
Q 2734 653 3104 758 
Q 3475 863 3866 1075 
L 3866 213 
Q 3469 63 3072 -14 
Q 2675 -91 2278 -91 
Q 1328 -91 801 392 
Q 275 875 275 1747 
Q 275 2603 792 3093 
Q 1309 3584 2216 3584 
Q 3041 3584 3536 3087 
Q 4031 2591 4031 1759 
z
M 2881 2131 
Q 2881 2450 2695 2645 
Q 2509 2841 2209 2841 
Q 1884 2841 1681 2658 
Q 1478 2475 1428 2131 
L 2881 2131 
z
" transform="scale(0.015625)"/>
       <path id="DejaVuSans-Bold-64" d="M 2919 2988 
L 2919 4863 
L 4044 4863 
L 4044 0 
L 2919 0 
L 2919 506 
Q 2688 197 2409 53 
Q 2131 -91 1766 -91 
Q 1119 -91 703 423 
Q 288 938 288 1747 
Q 288 2556 703 3070 
Q 1119 3584 1766 3584 
Q 2128 3584 2408 3439 
Q 2688 3294 2919 2988 
z
M 2181 722 
Q 2541 722 2730 984 
Q 2919 1247 2919 1747 
Q 2919 2247 2730 2509 
Q 2541 2772 2181 2772 
Q 1825 2772 1636 2509 
Q 1447 2247 1447 1747 
Q 1447 1247 1636 984 
Q 1825 722 2181 722 
z
" transform="scale(0.015625)"/>
      </defs>
      <use xlink:href="#DejaVuSans-Bold-63"/>
      <use xlink:href="#DejaVuSans-Bold-43" transform="translate(59.277344 0)"/>
      <use xlink:href="#DejaVuSans-Bold-52" transform="translate(132.666016 0)"/>
      <use xlink:href="#DejaVuSans-Bold-45" transform="translate(209.667969 0)"/>
      <use xlink:href="#DejaVuSans-Bold-73" transform="translate(277.978516 0)"/>
      <use xlink:href="#DejaVuSans-Bold-20" transform="translate(337.5 0)"/>
      <use xlink:href="#DejaVuSans-Bold-72" transform="translate(372.314453 0)"/>
      <use xlink:href="#DejaVuSans-Bold-61" transform="translate(421.630859 0)"/>
      <use xlink:href="#DejaVuSans-Bold-6e" transform="translate(489.111328 0)"/>
      <use xlink:href="#DejaVuSans-Bold-6b" transform="translate(560.302734 0)"/>
      <use xlink:href="#DejaVuSans-Bold-20" transform="translate(626.806641 0)"/>
      <use xlink:href="#DejaVuSans-Bold-62" transform="translate(661.621094 0)"/>
      <use xlink:href="#DejaVuSans-Bold-79" transform="translate(733.203125 0)"/>
      <use xlink:href="#DejaVuSans-Bold-20" transform="translate(798.388672 0)"/>
      <use xlink:href="#DejaVuSans-Bold-52" transform="translate(833.203125 0)"/>
      <use xlink:href="#DejaVuSans-Bold-4e" transform="translate(910.205078 0)"/>
      <use xlink:href="#DejaVuSans-Bold-41" transform="translate(993.896484 0)"/>
      <use xlink:href="#DejaVuSans-Bold-20" transform="translate(1071.289062 0)"/>
      <use xlink:href="#DejaVuSans-Bold-72" transform="translate(1106.103516 0)"/>
      <use xlink:href="#DejaVuSans-Bold-65" transform="translate(1155.419922 0)"/>
      <use xlink:href="#DejaVuSans-Bold-61" transform="translate(1223.242188 0)"/>
      <use xlink:href="#DejaVuSans-Bold-64" transform="translate(1290.722656 0)"/>
      <use xlink:href="#DejaVuSans-Bold-73" transform="translate(1362.304688 0)"/>
     </g>
    </g>
   </g>
   <g id="matplotlib.axis_2">
    <g id="ytick_1">
     <g id="line2d_3">
      <defs>
       <path id="mbd14a9f6a4" d="M 0 0 
L -3.5 0 
" style="stroke: #000000; stroke-width: 0.8"/>
      </defs>
      <g>
       <use xlink:href="#mbd14a9f6a4" x="49.00875" y="450.72" style="stroke: #000000; stroke-width: 0.8"/>
      </g>
     </g>
     <g id="text_4">
      <!-- 0 -->
      <g transform="translate(30.55625 457.558594) scale(0.18 -0.18)">
       <use xlink:href="#DejaVuSans-30"/>
      </g>
     </g>
    </g>
    <g id="ytick_2">
     <g id="line2d_4">
      <g>
       <use xlink:href="#mbd14a9f6a4" x="49.00875" y="14.838591" style="stroke: #000000; stroke-width: 0.8"/>
      </g>
     </g>
     <g id="text_5">
      <!-- 1 -->
      <g transform="translate(30.55625 21.677184) scale(0.18 -0.18)">
       <use xlink:href="#DejaVuSans-31"/>
      </g>
     </g>
    </g>
    <g id="text_6">
     <!-- Cumulative fraction of RNA reads -->
     <g transform="translate(22.396875 417.3225) rotate(-90) scale(0.2 -0.2)">
      <defs>
       <path id="DejaVuSans-Bold-75" d="M 500 1363 
L 500 3500 
L 1625 3500 
L 1625 3150 
Q 1625 2866 1622 2436 
Q 1619 2006 1619 1863 
Q 1619 1441 1641 1255 
Q 1663 1069 1716 984 
Q 1784 875 1895 815 
Q 2006 756 2150 756 
Q 2500 756 2700 1025 
Q 2900 1294 2900 1772 
L 2900 3500 
L 4019 3500 
L 4019 0 
L 2900 0 
L 2900 506 
Q 2647 200 2364 54 
Q 2081 -91 1741 -91 
Q 1134 -91 817 281 
Q 500 653 500 1363 
z
" transform="scale(0.015625)"/>
       <path id="DejaVuSans-Bold-6d" d="M 3781 2919 
Q 3994 3244 4286 3414 
Q 4578 3584 4928 3584 
Q 5531 3584 5847 3212 
Q 6163 2841 6163 2131 
L 6163 0 
L 5038 0 
L 5038 1825 
Q 5041 1866 5042 1909 
Q 5044 1953 5044 2034 
Q 5044 2406 4934 2573 
Q 4825 2741 4581 2741 
Q 4263 2741 4089 2478 
Q 3916 2216 3909 1719 
L 3909 0 
L 2784 0 
L 2784 1825 
Q 2784 2406 2684 2573 
Q 2584 2741 2328 2741 
Q 2006 2741 1831 2477 
Q 1656 2213 1656 1722 
L 1656 0 
L 531 0 
L 531 3500 
L 1656 3500 
L 1656 2988 
Q 1863 3284 2130 3434 
Q 2397 3584 2719 3584 
Q 3081 3584 3359 3409 
Q 3638 3234 3781 2919 
z
" transform="scale(0.015625)"/>
       <path id="DejaVuSans-Bold-6c" d="M 538 4863 
L 1656 4863 
L 1656 0 
L 538 0 
L 538 4863 
z
" transform="scale(0.015625)"/>
       <path id="DejaVuSans-Bold-74" d="M 1759 4494 
L 1759 3500 
L 2913 3500 
L 2913 2700 
L 1759 2700 
L 1759 1216 
Q 1759 972 1856 886 
Q 1953 800 2241 800 
L 2816 800 
L 2816 0 
L 1856 0 
Q 1194 0 917 276 
Q 641 553 641 1216 
L 641 2700 
L 84 2700 
L 84 3500 
L 641 3500 
L 641 4494 
L 1759 4494 
z
" transform="scale(0.015625)"/>
       <path id="DejaVuSans-Bold-69" d="M 538 3500 
L 1656 3500 
L 1656 0 
L 538 0 
L 538 3500 
z
M 538 4863 
L 1656 4863 
L 1656 3950 
L 538 3950 
L 538 4863 
z
" transform="scale(0.015625)"/>
       <path id="DejaVuSans-Bold-76" d="M 97 3500 
L 1216 3500 
L 2088 1081 
L 2956 3500 
L 4078 3500 
L 2700 0 
L 1472 0 
L 97 3500 
z
" transform="scale(0.015625)"/>
       <path id="DejaVuSans-Bold-66" d="M 2841 4863 
L 2841 4128 
L 2222 4128 
Q 1984 4128 1890 4042 
Q 1797 3956 1797 3744 
L 1797 3500 
L 2753 3500 
L 2753 2700 
L 1797 2700 
L 1797 0 
L 678 0 
L 678 2700 
L 122 2700 
L 122 3500 
L 678 3500 
L 678 3744 
Q 678 4316 997 4589 
Q 1316 4863 1984 4863 
L 2841 4863 
z
" transform="scale(0.015625)"/>
       <path id="DejaVuSans-Bold-6f" d="M 2203 2784 
Q 1831 2784 1636 2517 
Q 1441 2250 1441 1747 
Q 1441 1244 1636 976 
Q 1831 709 2203 709 
Q 2569 709 2762 976 
Q 2956 1244 2956 1747 
Q 2956 2250 2762 2517 
Q 2569 2784 2203 2784 
z
M 2203 3584 
Q 3106 3584 3614 3096 
Q 4122 2609 4122 1747 
Q 4122 884 3614 396 
Q 3106 -91 2203 -91 
Q 1297 -91 786 396 
Q 275 884 275 1747 
Q 275 2609 786 3096 
Q 1297 3584 2203 3584 
z
" transform="scale(0.015625)"/>
      </defs>
      <use xlink:href="#DejaVuSans-Bold-43"/>
      <use xlink:href="#DejaVuSans-Bold-75" transform="translate(73.388672 0)"/>
      <use xlink:href="#DejaVuSans-Bold-6d" transform="translate(144.580078 0)"/>
      <use xlink:href="#DejaVuSans-Bold-75" transform="translate(248.779297 0)"/>
      <use xlink:href="#DejaVuSans-Bold-6c" transform="translate(319.970703 0)"/>
      <use xlink:href="#DejaVuSans-Bold-61" transform="translate(354.248047 0)"/>
      <use xlink:href="#DejaVuSans-Bold-74" transform="translate(421.728516 0)"/>
      <use xlink:href="#DejaVuSans-Bold-69" transform="translate(469.53125 0)"/>
      <use xlink:href="#DejaVuSans-Bold-76" transform="translate(503.808594 0)"/>
      <use xlink:href="#DejaVuSans-Bold-65" transform="translate(568.994141 0)"/>
      <use xlink:href="#DejaVuSans-Bold-20" transform="translate(636.816406 0)"/>
      <use xlink:href="#DejaVuSans-Bold-66" transform="translate(671.630859 0)"/>
      <use xlink:href="#DejaVuSans-Bold-72" transform="translate(715.136719 0)"/>
      <use xlink:href="#DejaVuSans-Bold-61" transform="translate(764.453125 0)"/>
      <use xlink:href="#DejaVuSans-Bold-63" transform="translate(831.933594 0)"/>
      <use xlink:href="#DejaVuSans-Bold-74" transform="translate(891.210938 0)"/>
      <use xlink:href="#DejaVuSans-Bold-69" transform="translate(939.013672 0)"/>
      <use xlink:href="#DejaVuSans-Bold-6f" transform="translate(973.291016 0)"/>
      <use xlink:href="#DejaVuSans-Bold-6e" transform="translate(1041.992188 0)"/>
      <use xlink:href="#DejaVuSans-Bold-20" transform="translate(1113.183594 0)"/>
      <use xlink:href="#DejaVuSans-Bold-6f" transform="translate(1147.998047 0)"/>
      <use xlink:href="#DejaVuSans-Bold-66" transform="translate(1216.699219 0)"/>
      <use xlink:href="#DejaVuSans-Bold-20" transform="translate(1260.205078 0)"/>
      <use xlink:href="#DejaVuSans-Bold-52" transform="translate(1295.019531 0)"/>
      <use xlink:href="#DejaVuSans-Bold-4e" transform="translate(1372.021484 0)"/>
      <use xlink:href="#DejaVuSans-Bold-41" transform="translate(1455.712891 0)"/>
      <use xlink:href="#DejaVuSans-Bold-20" transform="translate(1533.105469 0)"/>
      <use xlink:href="#DejaVuSans-Bold-72" transform="translate(1567.919922 0)"/>
      <use xlink:href="#DejaVuSans-Bold-65" transform="translate(1617.236328 0)"/>
      <use xlink:href="#DejaVuSans-Bold-61" transform="translate(1685.058594 0)"/>
      <use xlink:href="#DejaVuSans-Bold-64" transform="translate(1752.539062 0)"/>
      <use xlink:href="#DejaVuSans-Bold-73" transform="translate(1824.121094 0)"/>
     </g>
    </g>
   </g>
   <g id="line2d_5">
    <path d="M 69.299659 167.610402 
L 69.507095 166.728879 
L 70.585765 163.686061 
L 72.162281 159.879534 
L 72.276371 159.643502 
L 72.359346 159.408627 
L 72.649757 158.807435 
L 72.743103 158.532031 
L 72.909052 158.21278 
L 73.002399 157.986553 
L 73.168348 157.67223 
L 73.240951 157.44887 
L 73.375784 157.226867 
L 73.469131 156.961671 
L 73.614336 156.69753 
L 73.707682 156.43515 
L 73.873631 156.217623 
L 73.956606 155.957203 
L 74.226273 155.398451 
L 74.298876 155.270378 
L 74.444082 154.973252 
L 76.746625 150.520127 
L 76.94369 150.141239 
L 77.026665 149.990438 
L 77.17187 149.802477 
L 77.275588 149.540198 
L 77.462281 149.241764 
L 77.524512 149.093175 
L 77.648974 148.907981 
L 77.721577 148.723741 
L 77.887526 148.503448 
L 77.960128 148.283708 
L 78.167565 148.028619 
L 78.250539 147.811192 
L 78.592809 147.272553 
L 78.696528 147.058294 
L 78.99731 146.563201 
L 79.090657 146.387409 
L 79.401811 145.898651 
L 79.464042 145.725474 
L 79.609248 145.518456 
L 79.712966 145.346587 
L 79.858171 145.141278 
L 79.96189 144.902682 
L 80.127839 144.665192 
L 80.179698 144.56377 
L 80.324903 144.361428 
L 80.428621 144.160092 
L 80.553083 143.960214 
L 80.636058 143.793977 
L 80.833122 143.56232 
L 80.926469 143.365358 
L 81.165021 143.040827 
L 81.227252 142.879819 
L 81.362085 142.687785 
L 81.507291 142.465732 
L 81.611009 142.30764 
L 81.776958 142.087247 
L 81.849561 141.930261 
L 82.01551 141.711326 
L 82.098484 141.555547 
L 82.254062 141.338472 
L 82.606704 140.848055 
L 82.658563 140.726519 
L 82.793396 140.574964 
L 82.855627 140.423812 
L 83.073435 140.183355 
L 83.15641 140.003892 
L 83.343103 139.736132 
L 83.426077 139.617412 
L 83.633514 139.351713 
L 83.72686 139.146103 
L 83.934296 138.971367 
L 84.038015 138.768572 
L 84.235079 138.509461 
L 84.318054 138.394814 
L 84.494375 138.166827 
L 84.577349 138.025078 
L 84.774414 137.771396 
L 84.878132 137.631356 
L 85.241146 137.160298 
L 85.313748 137.022672 
L 85.531557 136.749128 
L 85.624903 136.612759 
L 85.78048 136.449991 
L 85.78048 136.368682 
L 85.89457 136.233922 
L 86.112379 136.020015 
L 86.205725 135.887417 
L 86.382046 135.676627 
L 86.46502 135.519591 
L 86.630969 135.337262 
L 87.03547 134.873999 
L 87.118445 134.746731 
L 87.325881 134.494658 
L 87.388112 134.394443 
L 87.574805 134.195068 
L 90.229991 131.13098 
L 90.39594 130.972737 
L 90.468543 130.882528 
L 90.593005 130.747667 
L 90.593005 130.65776 
L 90.810813 130.523503 
L 90.862672 130.456625 
L 91.028621 130.301148 
L 91.132339 130.124049 
L 91.329404 129.948005 
L 91.42275 129.838337 
L 91.526468 129.707096 
L 91.723533 129.554586 
L 91.827251 129.445772 
L 92.003572 129.272544 
L 92.003572 129.207678 
L 92.252496 129.056727 
L 92.252496 128.94912 
L 92.501419 128.798922 
L 92.605138 128.627656 
L 92.719228 128.499734 
L 92.719228 128.435773 
L 92.885177 128.308153 
L 92.885177 128.286883 
L 93.154844 128.138446 
L 93.154844 127.99026 
L 93.310421 127.863545 
L 93.47637 127.716264 
L 93.673435 127.548769 
L 93.673435 127.465097 
L 93.860128 127.33989 
L 93.860128 127.277287 
L 94.04682 127.152382 
L 94.04682 127.08993 
L 94.254257 126.944761 
L 94.347603 126.841377 
L 94.55504 126.676648 
L 94.55504 126.594384 
L 94.824707 126.450824 
L 94.918053 126.287251 
L 95.104746 126.124684 
L 95.104746 126.104419 
L 95.229208 125.983135 
L 95.229208 125.922493 
L 95.426272 125.80151 
L 95.426272 125.720855 
L 95.633709 125.580312 
L 95.633709 125.560249 
L 95.768542 125.440172 
L 95.768542 125.420159 
L 95.955235 125.300383 
L 95.955235 125.20057 
L 96.276762 125.061234 
L 96.276762 124.922199 
L 96.504942 124.783567 
L 96.598288 124.625827 
L 96.795353 124.488402 
L 96.795353 124.44918 
L 96.992417 124.312358 
L 97.075392 124.195549 
L 97.345059 124.040374 
L 97.345059 123.904859 
L 97.573239 123.769747 
L 97.780675 123.597073 
L 97.780675 123.501282 
L 97.967368 123.386635 
L 97.967368 123.329312 
L 98.164433 123.214967 
L 98.164433 123.138737 
L 98.392613 123.024693 
L 98.392613 122.91065 
L 98.600049 122.796908 
L 98.600049 122.758994 
L 98.77637 122.645554 
L 98.77637 122.588834 
L 98.952691 122.475696 
L 98.952691 122.437983 
L 99.149756 122.325146 
L 99.149756 122.231116 
L 99.481654 122.099875 
L 99.481654 121.950231 
L 99.668347 121.838299 
L 99.668347 121.782334 
L 99.855039 121.652099 
L 99.855039 121.614889 
L 100.052104 121.485006 
L 100.052104 121.429342 
L 100.332143 121.299912 
L 100.332143 121.207641 
L 100.508464 121.078814 
L 100.508464 121.023603 
L 100.861106 120.876824 
L 100.861106 120.712095 
L 101.05817 120.584324 
L 101.05817 120.547818 
L 101.307094 120.402398 
L 101.307094 120.34794 
L 101.493787 120.221225 
L 101.493787 120.148817 
L 101.68048 120.022454 
L 101.960519 119.878492 
L 101.960519 119.788735 
L 102.147211 119.663428 
L 102.147211 119.573923 
L 102.416879 119.448968 
L 102.416879 119.324013 
L 102.676174 119.19941 
L 102.676174 119.128209 
L 103.122163 118.986258 
L 103.122163 118.68536 
L 103.422945 118.561813 
L 103.422945 118.491215 
L 103.661497 118.368019 
L 103.661497 118.280023 
L 103.972652 118.139832 
L 103.972652 118.03484 
L 104.273434 117.895353 
L 104.273434 117.808362 
L 104.584589 117.669629 
L 104.584589 117.531248 
L 104.781654 117.410517 
L 104.781654 117.358775 
L 105.009834 117.238396 
L 105.009834 117.152411 
L 105.372847 117.015337 
L 105.372847 116.861469 
L 105.642515 116.742146 
L 105.642515 116.605777 
L 105.943297 116.486805 
L 105.943297 116.367834 
L 106.192221 116.249215 
L 106.192221 116.198378 
L 106.389286 116.080111 
L 106.389286 116.04632 
L 106.607094 115.928405 
L 106.607094 115.84418 
L 106.81453 115.726616 
L 106.81453 115.709821 
L 107.032338 115.59261 
L 107.032338 115.492143 
L 107.27089 115.375284 
L 107.27089 115.325201 
L 107.478327 115.208694 
L 107.478327 115.158762 
L 107.72725 115.042607 
L 107.72725 114.926452 
L 107.986546 114.810648 
L 107.986546 114.744475 
L 108.266585 114.629023 
L 108.266585 114.480586 
L 108.556996 114.365487 
L 108.556996 114.283273 
L 108.774804 114.168525 
L 108.774804 114.13574 
L 109.013356 114.021345 
L 109.013356 113.906949 
L 109.345254 113.792906 
L 109.345254 113.613695 
L 109.635665 113.500003 
L 109.635665 113.451278 
L 109.926076 113.337939 
L 109.926076 113.159834 
L 110.206115 113.046847 
L 110.206115 113.014564 
L 110.444667 112.901929 
L 110.444667 112.789293 
L 110.683219 112.67701 
L 110.683219 112.644929 
L 110.880283 112.532997 
L 110.880283 112.485027 
L 111.098092 112.373447 
L 111.098092 112.309687 
L 111.326272 112.18257 
L 111.326272 112.134901 
L 111.564824 112.008186 
L 111.564824 111.944829 
L 111.844863 111.818516 
L 111.844863 111.707993 
L 112.124902 111.582082 
L 112.124902 111.519127 
L 112.404941 111.393619 
L 112.404941 111.283799 
L 112.674608 111.158693 
L 112.674608 111.111779 
L 112.923532 110.987075 
L 112.923532 110.909135 
L 113.25543 110.784834 
L 113.25543 110.61392 
L 113.618444 110.490021 
L 113.618444 110.366121 
L 113.877739 110.242625 
L 113.877739 110.227188 
L 114.209638 110.104093 
L 114.209638 109.873291 
L 114.614139 109.750599 
L 114.614139 109.627906 
L 114.873434 109.505616 
L 114.873434 109.49033 
L 115.163845 109.368442 
L 115.163845 109.200847 
L 115.485371 109.079361 
L 115.485371 109.018619 
L 115.734295 108.897536 
L 115.734295 108.836994 
L 115.983219 108.716313 
L 115.983219 108.655973 
L 116.263258 108.535694 
L 116.263258 108.43045 
L 116.698874 108.29574 
L 116.698874 108.116529 
L 116.978913 107.997457 
L 116.978913 107.937921 
L 117.248581 107.819252 
L 117.248581 107.73025 
L 117.497504 107.611982 
L 117.497504 107.582415 
L 117.736056 107.46455 
L 117.736056 107.390885 
L 118.057583 107.273422 
L 118.057583 107.126594 
L 118.482827 107.009533 
L 118.482827 106.790045 
L 118.887328 106.673387 
L 118.887328 106.556728 
L 119.312573 106.440472 
L 119.312573 106.193429 
L 119.820792 106.077575 
L 119.820792 105.845868 
L 120.235665 105.730416 
L 120.235665 105.614965 
L 120.60905 105.499916 
L 120.60905 105.327342 
L 120.992808 105.212695 
L 120.992808 105.083717 
L 121.29359 104.969473 
L 121.29359 104.91235 
L 121.615117 104.798508 
L 121.615117 104.641975 
L 121.988502 104.528535 
L 121.988502 104.400915 
L 122.299657 104.287877 
L 122.299657 104.217229 
L 122.66267 104.104593 
L 122.66267 103.907481 
L 123.015312 103.795248 
L 123.015312 103.739131 
L 123.28498 103.6273 
L 123.28498 103.543427 
L 123.62725 103.431998 
L 123.62725 103.278784 
L 124.031751 103.153879 
L 124.031751 103.001218 
L 124.42588 102.876765 
L 124.42588 102.752313 
L 124.809637 102.628314 
L 124.809637 102.490536 
L 125.162279 102.366989 
L 125.162279 102.284624 
L 125.546036 102.16153 
L 125.546036 101.983727 
L 126.002396 101.861085 
L 126.002396 101.683935 
L 126.438013 101.561746 
L 126.438013 101.412403 
L 126.925488 101.290666 
L 126.925488 101.047193 
L 127.381848 100.925908 
L 127.381848 100.8181 
L 127.765606 100.697268 
L 127.765606 100.549585 
L 128.201222 100.429206 
L 128.201222 100.255325 
L 128.584979 100.135398 
L 128.584979 100.055447 
L 129.051711 99.935973 
L 129.051711 99.6572 
L 129.663649 99.538179 
L 129.663649 99.273686 
L 130.120009 99.155117 
L 130.120009 99.076071 
L 130.451907 98.957955 
L 130.451907 98.852962 
L 130.887523 98.735299 
L 130.887523 98.526118 
L 131.374999 98.408907 
L 131.374999 98.239602 
L 131.89359 98.122843 
L 131.89359 97.876352 
L 132.412181 97.760046 
L 132.412181 97.592048 
L 132.889284 97.476195 
L 132.889284 97.283105 
L 133.428619 97.167704 
L 133.428619 96.924079 
L 134.009441 96.809131 
L 134.009441 96.566462 
L 134.611007 96.451966 
L 134.611007 96.184808 
L 135.285175 96.070765 
L 135.285175 95.741306 
L 135.865997 95.627715 
L 135.865997 95.476261 
L 136.353472 95.363122 
L 136.353472 95.149417 
L 136.820204 95.036731 
L 136.820204 94.911524 
L 137.224705 94.799291 
L 137.224705 94.662117 
L 137.608462 94.550336 
L 137.608462 94.450976 
L 138.012963 94.339648 
L 138.012963 94.17884 
L 138.56267 94.055645 
L 138.56267 93.796936 
L 139.112376 93.674243 
L 139.112376 93.527013 
L 139.620595 93.404823 
L 139.620595 93.197101 
L 140.108071 93.075415 
L 140.108071 92.953728 
L 140.626662 92.832544 
L 140.626662 92.590177 
L 141.217856 92.469496 
L 141.217856 92.264338 
L 141.705331 92.14416 
L 141.705331 92.023982 
L 142.089088 91.904307 
L 142.089088 91.820534 
L 142.607679 91.701362 
L 142.607679 91.427266 
L 143.323335 91.308596 
L 143.323335 91.000055 
L 143.987131 90.881888 
L 143.987131 90.669188 
L 144.599069 90.551525 
L 144.599069 90.30443 
L 145.138403 90.187269 
L 145.138403 90.058392 
L 145.656994 89.941734 
L 145.656994 89.720083 
L 146.279303 89.603928 
L 146.279303 89.360002 
L 146.984587 89.244349 
L 146.984587 88.932087 
L 147.62764 88.816938 
L 147.62764 88.644213 
L 148.146231 88.529566 
L 148.146231 88.357596 
L 148.76854 88.243452 
L 148.76854 87.958092 
L 149.442708 87.844451 
L 149.442708 87.617168 
L 150.033902 87.50403 
L 150.033902 87.311695 
L 150.70807 87.199059 
L 150.70807 86.88368 
L 151.39261 86.771547 
L 151.39261 86.569709 
L 151.963061 86.458079 
L 151.963061 86.268308 
L 152.564626 86.146068 
L 152.564626 85.923814 
L 153.124704 85.802128 
L 153.124704 85.669379 
L 153.715898 85.548245 
L 153.715898 85.294966 
L 154.358951 85.174386 
L 154.358951 84.988034 
L 154.960516 84.868007 
L 154.960516 84.660688 
L 155.624313 84.541213 
L 155.624313 84.291404 
L 156.267366 84.172483 
L 156.267366 83.988696 
L 156.910418 83.870328 
L 156.910418 83.622832 
L 157.636446 83.505017 
L 157.636446 83.237256 
L 158.393589 83.119995 
L 158.393589 82.842831 
L 159.067757 82.726122 
L 159.067757 82.545755 
L 159.741925 82.429599 
L 159.741925 82.15505 
L 160.364234 82.039448 
L 160.364234 81.913337 
L 161.007287 81.798287 
L 161.007287 81.505435 
L 161.785174 81.390939 
L 161.785174 81.130721 
L 162.490457 81.016778 
L 162.490457 80.799251 
L 163.143882 80.685861 
L 163.143882 80.479698 
L 163.869909 80.366861 
L 163.869909 80.079641 
L 164.658168 79.967357 
L 164.658168 79.70196 
L 165.519029 79.590229 
L 165.519029 79.234723 
L 166.411005 79.123546 
L 166.411005 78.830442 
L 167.240751 78.709761 
L 167.240751 78.428173 
L 168.029009 78.308095 
L 168.029009 78.06794 
L 168.827639 77.948466 
L 168.827639 77.659737 
L 169.636641 77.540866 
L 169.636641 77.293219 
L 170.310809 77.174952 
L 170.310809 77.017262 
L 170.964234 76.899598 
L 170.964234 76.674076 
L 171.773236 76.557015 
L 171.773236 76.254609 
L 172.582238 76.138152 
L 172.582238 75.914943 
L 173.329009 75.799089 
L 173.329009 75.557727 
L 174.138011 75.442477 
L 174.138011 75.163956 
L 174.998872 75.049309 
L 174.998872 74.762692 
L 175.828617 74.648648 
L 175.828617 74.401554 
L 176.637619 74.288114 
L 176.637619 74.02342 
L 177.456993 73.910584 
L 177.456993 73.656701 
L 178.286738 73.544468 
L 178.286738 73.273238 
L 179.220202 73.161608 
L 179.220202 72.817416 
L 180.226269 72.697137 
L 180.226269 72.37331 
L 181.253079 72.253685 
L 181.253079 71.904012 
L 182.300633 71.785041 
L 182.300633 71.446431 
L 183.275584 71.328113 
L 183.275584 71.045971 
L 184.146816 70.928307 
L 184.146816 70.683929 
L 184.96619 70.566918 
L 184.96619 70.332898 
L 185.712961 70.216541 
L 185.712961 70.037531 
L 186.532335 69.921829 
L 186.532335 69.628121 
L 187.517658 69.513072 
L 187.517658 69.194475 
L 188.471865 69.080079 
L 188.471865 68.81609 
L 189.446816 68.702348 
L 189.446816 68.369872 
L 190.359536 68.256784 
L 190.359536 68.048006 
L 191.272256 67.935572 
L 191.272256 67.606918 
L 192.31981 67.495137 
L 192.31981 67.176992 
L 193.325877 67.065865 
L 193.325877 66.775225 
L 194.363059 66.656254 
L 194.363059 66.324834 
L 195.503959 66.206567 
L 195.503959 65.843317 
L 196.665603 65.725754 
L 196.665603 65.381461 
L 197.796131 65.264602 
L 197.796131 64.930718 
L 198.802197 64.814563 
L 198.802197 64.573955 
L 199.808264 64.458504 
L 199.808264 64.128643 
L 200.918049 64.013895 
L 200.918049 63.694242 
L 202.079692 63.580198 
L 202.079692 63.21363 
L 203.303567 63.10029 
L 203.303567 62.735985 
L 204.600045 62.623349 
L 204.600045 62.204989 
L 205.803176 62.093058 
L 205.803176 61.805234 
L 206.91296 61.694006 
L 206.91296 61.352378 
L 208.147207 61.23396 
L 208.147207 60.862917 
L 209.277735 60.745253 
L 209.277735 60.494237 
L 210.377148 60.377327 
L 210.377148 60.034392 
L 211.590651 59.918237 
L 211.590651 59.585258 
L 212.710807 59.469857 
L 212.710807 59.200588 
L 213.862079 59.085941 
L 213.862079 58.734357 
L 215.148185 58.620465 
L 215.148185 58.256008 
L 216.351316 58.14287 
L 216.351316 57.856253 
L 217.492216 57.743869 
L 217.492216 57.429193 
L 218.840553 57.317563 
L 218.840553 56.885928 
L 220.209633 56.767661 
L 220.209633 56.449817 
L 221.267558 56.332355 
L 221.267558 56.134136 
L 222.408459 56.017478 
L 222.408459 55.64563 
L 223.777539 55.529776 
L 223.777539 55.174975 
L 225.032529 55.059926 
L 225.032529 54.772303 
L 226.214916 54.658058 
L 226.214916 54.358166 
L 227.449163 54.244726 
L 227.449163 53.925676 
L 228.735269 53.81304 
L 228.735269 53.482174 
L 230.104349 53.370343 
L 230.104349 52.999903 
L 231.359339 52.881937 
L 231.359339 52.639067 
L 232.541726 52.521956 
L 232.541726 52.211957 
L 233.93155 52.095701 
L 233.93155 51.719579 
L 235.311002 51.604178 
L 235.311002 51.305492 
L 236.545249 51.190946 
L 236.545249 50.914687 
L 237.738008 50.800996 
L 237.738008 50.533487 
L 239.00337 50.42065 
L 239.00337 50.102052 
L 240.37245 49.990071 
L 240.37245 49.660712 
L 241.814133 49.549585 
L 241.814133 49.190057 
L 243.245444 49.073298 
L 243.245444 48.761941 
L 244.656011 48.646088 
L 244.656011 48.311399 
L 246.12881 48.196451 
L 246.12881 47.851605 
L 247.549749 47.737562 
L 247.549749 47.439781 
L 248.960317 47.326643 
L 248.960317 46.993514 
L 250.401999 46.88128 
L 250.401999 46.569521 
L 251.916285 46.458193 
L 251.916285 46.087099 
L 253.534289 45.970542 
L 253.534289 45.6086 
L 255.204152 45.492997 
L 255.204152 45.1036 
L 256.739181 44.988954 
L 256.739181 44.711387 
L 258.04603 44.597696 
L 258.04603 44.346378 
L 259.415111 44.233642 
L 259.415111 43.925101 
L 260.846422 43.81332 
L 260.846422 43.530927 
L 262.381451 43.414269 
L 262.381451 43.058461 
L 264.092801 42.942809 
L 264.092801 42.572721 
L 265.887126 42.458074 
L 265.887126 42.062542 
L 267.546617 41.948901 
L 267.546617 41.659116 
L 269.081646 41.546481 
L 269.081646 41.225469 
L 270.678907 41.11384 
L 270.678907 40.795695 
L 272.359141 40.679539 
L 272.359141 40.325542 
L 274.039376 40.210442 
L 274.039376 39.903511 
L 275.647008 39.789467 
L 275.647008 39.479921 
L 277.327243 39.366933 
L 277.327243 39.027971 
L 279.142311 38.916039 
L 279.142311 38.542934 
L 280.864033 38.426779 
L 280.864033 38.14695 
L 282.357575 38.031901 
L 282.357575 37.786114 
L 283.882233 37.672171 
L 283.882233 37.382135 
L 285.323916 37.269298 
L 285.323916 37.069269 
L 286.755227 36.957539 
L 286.755227 36.678213 
L 288.42509 36.562561 
L 288.42509 36.25583 
L 290.157184 36.141334 
L 290.157184 35.842649 
L 291.702585 35.729309 
L 291.702585 35.517414 
L 293.341332 35.405231 
L 293.341332 35.068682 
L 295.09417 34.952828 
L 295.09417 34.696985 
L 296.774405 34.582338 
L 296.774405 34.290944 
L 298.734678 34.177504 
L 298.734678 33.79937 
L 300.674209 33.687137 
L 300.674209 33.41123 
L 302.344072 33.295578 
L 302.344072 33.050394 
L 303.962075 32.935999 
L 303.962075 32.693481 
L 305.52822 32.580342 
L 305.52822 32.363117 
L 307.12548 32.251235 
L 307.12548 32.000621 
L 309.096126 31.885572 
L 309.096126 31.5183 
L 311.294952 31.404558 
L 311.294952 31.067708 
L 313.390059 30.955273 
L 313.390059 30.639592 
L 315.225871 30.528465 
L 315.225871 30.306211 
L 316.895734 30.192168 
L 316.895734 29.955633 
L 318.648572 29.842947 
L 318.648572 29.596708 
L 320.411781 29.48538 
L 320.411781 29.250354 
L 322.22685 29.136311 
L 322.22685 28.879713 
L 324.083405 28.767077 
L 324.083405 28.525715 
L 325.701409 28.414488 
L 325.701409 28.255591 
L 327.309041 28.14185 
L 327.309041 27.914366 
L 329.321174 27.802083 
L 329.321174 27.500079 
L 331.260704 27.385432 
L 331.260704 27.194354 
L 332.88908 27.081215 
L 332.88908 26.903965 
L 334.37225 26.792335 
L 334.37225 26.65838 
L 335.85542 26.544588 
L 335.85542 26.375735 
L 337.50454 26.263502 
L 337.50454 26.07886 
L 339.371467 25.964615 
L 339.371467 25.728986 
L 341.362857 25.61635 
L 341.362857 25.398119 
L 343.177925 25.283623 
L 343.177925 25.117083 
L 344.910019 25.004247 
L 344.910019 24.823024 
L 346.808062 24.711847 
L 346.808062 24.49623 
L 348.581643 24.383394 
L 348.581643 24.250645 
L 350.199647 24.139518 
L 350.199647 23.982633 
L 351.776163 23.869997 
L 351.776163 23.757362 
L 353.477142 23.643318 
L 353.477142 23.459582 
L 355.4063 23.347348 
L 355.4063 23.172763 
L 357.418433 23.059273 
L 357.418433 22.859898 
L 359.357963 22.748268 
L 359.357963 22.603451 
L 361.110801 22.490715 
L 361.110801 22.354245 
L 362.842895 22.240503 
L 362.842895 22.112179 
L 364.81354 22.000399 
L 364.81354 21.805499 
L 366.856789 21.692863 
L 366.856789 21.552069 
L 368.796319 21.438679 
L 368.796319 21.283805 
L 370.5699 21.172477 
L 370.5699 21.082872 
L 372.156789 20.97094 
L 372.156789 20.872334 
L 373.805908 20.7599 
L 373.805908 20.663154 
L 375.672835 20.550317 
L 375.672835 20.406707 
L 377.446417 20.293568 
L 377.446417 20.2282 
L 379.043677 20.11486 
L 379.043677 20.023696 
L 380.817258 19.910256 
L 380.817258 19.811297 
L 382.663442 19.697857 
L 382.663442 19.598597 
L 384.416279 19.485258 
L 384.416279 19.415866 
L 386.169117 19.302728 
L 386.169117 19.212217 
L 388.150134 19.099381 
L 388.150134 18.988756 
L 390.089665 18.876322 
L 390.089665 18.802807 
L 391.842502 18.690876 
L 391.842502 18.627518 
L 393.605711 18.51619 
L 393.605711 18.448156 
L 395.379293 18.335521 
L 395.379293 18.279203 
L 396.976553 18.167422 
L 396.976553 18.141929 
L 398.553069 18.029192 
L 398.553069 17.985244 
L 400.419997 17.873615 
L 400.419997 17.802916 
L 402.411386 17.690683 
L 402.411386 17.632756 
L 404.205711 17.52012 
L 404.205711 17.493721 
L 406.134869 17.382594 
L 406.134869 17.310789 
L 408.178118 17.199612 
L 408.178118 17.161447 
L 410.024302 17.048811 
L 410.024302 17.019848 
L 411.756396 16.907614 
L 411.756396 16.896703 
L 413.519605 16.785073 
L 413.519605 16.759428 
L 416.900818 16.645888 
L 416.900818 16.529028 
L 418.85072 16.4177 
L 418.85072 16.391905 
L 422.408254 16.279571 
L 422.408254 16.18906 
L 425.696121 16.076425 
L 425.696121 15.994311 
L 429.160309 15.881475 
L 429.160309 15.814949 
L 432.510406 15.702766 
L 432.510406 15.663595 
L 436.06794 15.550759 
L 436.06794 15.498615 
L 440.050719 15.38613 
L 440.050719 15.351434 
L 443.753459 15.239201 
L 443.753459 15.233971 
L 448.83565 15.121235 
L 448.83565 15.098608 
L 454.882421 14.986475 
L 454.882421 14.977323 
L 465.64837 14.864889 
L 465.64837 14.859911 
L 475.117841 14.838591 
L 475.117841 14.838591 
" clip-path="url(#pbec6c54126)" style="fill: none; stroke: #ffc25f; stroke-width: 5; stroke-linecap: square"/>
   </g>
   <g id="patch_3">
    <path d="M 49.00875 450.72 
L 49.00875 7.2 
" style="fill: none; stroke: #000000; stroke-linejoin: miter; stroke-linecap: square"/>
   </g>
   <g id="patch_4">
    <path d="M 49.00875 450.72 
L 495.40875 450.72 
" style="fill: none; stroke: #000000; stroke-linejoin: miter; stroke-linecap: square"/>
   </g>
  </g>
 </g>
 <defs>
  <clipPath id="pbec6c54126">
   <rect x="49.00875" y="7.2" width="446.4" height="443.52"/>
  </clipPath>
 </defs>
</svg>
