<?xml version="1.0" encoding="utf-8" standalone="no"?>
<!DOCTYPE svg PUBLIC "-//W3C//DTD SVG 1.1//EN"
  "http://www.w3.org/Graphics/SVG/1.1/DTD/svg11.dtd">
<svg xmlns:xlink="http://www.w3.org/1999/xlink" width="542.616562pt" height="512.535469pt" viewBox="0 0 542.616562 512.535469" xmlns="http://www.w3.org/2000/svg" version="1.1">
 <metadata>
  <rdf:RDF xmlns:dc="http://purl.org/dc/elements/1.1/" xmlns:cc="http://creativecommons.org/ns#" xmlns:rdf="http://www.w3.org/1999/02/22-rdf-syntax-ns#">
   <cc:Work>
    <dc:type rdf:resource="http://purl.org/dc/dcmitype/StillImage"/>
    <dc:date>2025-12-16T16:19:11.563260</dc:date>
    <dc:format>image/svg+xml</dc:format>
    <dc:creator>
     <cc:Agent>
      <dc:title>Matplotlib v3.10.6, https://matplotlib.org/</dc:title>
     </cc:Agent>
    </dc:creator>
   </cc:Work>
  </rdf:RDF>
 </metadata>
 <defs>
  <style type="text/css">*{stroke-linejoin: round; stroke-linecap: butt}</style>
 </defs>
 <g id="figure_1">
  <g id="patch_1">
   <path d="M 0 512.535469 
L 542.616562 512.535469 
L 542.616562 0 
L 0 0 
L 0 512.535469 
z
" style="fill: none"/>
  </g>
  <g id="axes_1">
   <g id="patch_2">
    <path d="M 89.016563 457.558594 
L 535.416562 457.558594 
L 535.416562 14.038594 
L 89.016563 14.038594 
L 89.016563 457.558594 
z
" style="fill: none"/>
   </g>
   <g id="matplotlib.axis_1">
    <g id="xtick_1">
     <g id="line2d_1">
      <defs>
       <path id="mf66c121f40" d="M 0 0 
L 0 3.5 
" style="stroke: #000000; stroke-width: 0.8"/>
      </defs>
      <g>
       <use xlink:href="#mf66c121f40" x="109.307472" y="457.558594" style="stroke: #000000; stroke-width: 0.8"/>
      </g>
     </g>
     <g id="text_1">
      <!-- 0 -->
      <g transform="translate(103.581222 478.235781) scale(0.18 -0.18)">
       <defs>
        <path id="DejaVuSans-30" d="M 2034 4250 
Q 1547 4250 1301 3770 
Q 1056 3291 1056 2328 
Q 1056 1369 1301 889 
Q 1547 409 2034 409 
Q 2525 409 2770 889 
Q 3016 1369 3016 2328 
Q 3016 3291 2770 3770 
Q 2525 4250 2034 4250 
z
M 2034 4750 
Q 2819 4750 3233 4129 
Q 3647 3509 3647 2328 
Q 3647 1150 3233 529 
Q 2819 -91 2034 -91 
Q 1250 -91 836 529 
Q 422 1150 422 2328 
Q 422 3509 836 4129 
Q 1250 4750 2034 4750 
z
" transform="scale(0.015625)"/>
       </defs>
       <use xlink:href="#DejaVuSans-30"/>
      </g>
     </g>
    </g>
    <g id="xtick_2">
     <g id="line2d_2">
      <g>
       <use xlink:href="#mf66c121f40" x="220.186756" y="457.558594" style="stroke: #000000; stroke-width: 0.8"/>
      </g>
     </g>
     <g id="text_2">
      <!-- 200 -->
      <g transform="translate(203.008006 478.235781) scale(0.18 -0.18)">
       <defs>
        <path id="DejaVuSans-32" d="M 1228 531 
L 3431 531 
L 3431 0 
L 469 0 
L 469 531 
Q 828 903 1448 1529 
Q 2069 2156 2228 2338 
Q 2531 2678 2651 2914 
Q 2772 3150 2772 3378 
Q 2772 3750 2511 3984 
Q 2250 4219 1831 4219 
Q 1534 4219 1204 4116 
Q 875 4013 500 3803 
L 500 4441 
Q 881 4594 1212 4672 
Q 1544 4750 1819 4750 
Q 2544 4750 2975 4387 
Q 3406 4025 3406 3419 
Q 3406 3131 3298 2873 
Q 3191 2616 2906 2266 
Q 2828 2175 2409 1742 
Q 1991 1309 1228 531 
z
" transform="scale(0.015625)"/>
       </defs>
       <use xlink:href="#DejaVuSans-32"/>
       <use xlink:href="#DejaVuSans-30" transform="translate(63.623047 0)"/>
       <use xlink:href="#DejaVuSans-30" transform="translate(127.246094 0)"/>
      </g>
     </g>
    </g>
    <g id="xtick_3">
     <g id="line2d_3">
      <g>
       <use xlink:href="#mf66c121f40" x="331.066041" y="457.558594" style="stroke: #000000; stroke-width: 0.8"/>
      </g>
     </g>
     <g id="text_3">
      <!-- 400 -->
      <g transform="translate(313.887291 478.235781) scale(0.18 -0.18)">
       <defs>
        <path id="DejaVuSans-34" d="M 2419 4116 
L 825 1625 
L 2419 1625 
L 2419 4116 
z
M 2253 4666 
L 3047 4666 
L 3047 1625 
L 3713 1625 
L 3713 1100 
L 3047 1100 
L 3047 0 
L 2419 0 
L 2419 1100 
L 313 1100 
L 313 1709 
L 2253 4666 
z
" transform="scale(0.015625)"/>
       </defs>
       <use xlink:href="#DejaVuSans-34"/>
       <use xlink:href="#DejaVuSans-30" transform="translate(63.623047 0)"/>
       <use xlink:href="#DejaVuSans-30" transform="translate(127.246094 0)"/>
      </g>
     </g>
    </g>
    <g id="xtick_4">
     <g id="line2d_4">
      <g>
       <use xlink:href="#mf66c121f40" x="441.945326" y="457.558594" style="stroke: #000000; stroke-width: 0.8"/>
      </g>
     </g>
     <g id="text_4">
      <!-- 600 -->
      <g transform="translate(424.766576 478.235781) scale(0.18 -0.18)">
       <defs>
        <path id="DejaVuSans-36" d="M 2113 2584 
Q 1688 2584 1439 2293 
Q 1191 2003 1191 1497 
Q 1191 994 1439 701 
Q 1688 409 2113 409 
Q 2538 409 2786 701 
Q 3034 994 3034 1497 
Q 3034 2003 2786 2293 
Q 2538 2584 2113 2584 
z
M 3366 4563 
L 3366 3988 
Q 3128 4100 2886 4159 
Q 2644 4219 2406 4219 
Q 1781 4219 1451 3797 
Q 1122 3375 1075 2522 
Q 1259 2794 1537 2939 
Q 1816 3084 2150 3084 
Q 2853 3084 3261 2657 
Q 3669 2231 3669 1497 
Q 3669 778 3244 343 
Q 2819 -91 2113 -91 
Q 1303 -91 875 529 
Q 447 1150 447 2328 
Q 447 3434 972 4092 
Q 1497 4750 2381 4750 
Q 2619 4750 2861 4703 
Q 3103 4656 3366 4563 
z
" transform="scale(0.015625)"/>
       </defs>
       <use xlink:href="#DejaVuSans-36"/>
       <use xlink:href="#DejaVuSans-30" transform="translate(63.623047 0)"/>
       <use xlink:href="#DejaVuSans-30" transform="translate(127.246094 0)"/>
      </g>
     </g>
    </g>
    <g id="text_5">
     <!-- Barcode count -->
     <g transform="translate(230.879062 501.176094) scale(0.2 -0.2)">
      <defs>
       <path id="DejaVuSans-Bold-42" d="M 2456 2859 
Q 2741 2859 2887 2984 
Q 3034 3109 3034 3353 
Q 3034 3594 2887 3720 
Q 2741 3847 2456 3847 
L 1791 3847 
L 1791 2859 
L 2456 2859 
z
M 2497 819 
Q 2859 819 3042 972 
Q 3225 1125 3225 1434 
Q 3225 1738 3044 1889 
Q 2863 2041 2497 2041 
L 1791 2041 
L 1791 819 
L 2497 819 
z
M 3616 2497 
Q 4003 2384 4215 2081 
Q 4428 1778 4428 1338 
Q 4428 663 3972 331 
Q 3516 0 2584 0 
L 588 0 
L 588 4666 
L 2394 4666 
Q 3366 4666 3802 4372 
Q 4238 4078 4238 3431 
Q 4238 3091 4078 2852 
Q 3919 2613 3616 2497 
z
" transform="scale(0.015625)"/>
       <path id="DejaVuSans-Bold-61" d="M 2106 1575 
Q 1756 1575 1579 1456 
Q 1403 1338 1403 1106 
Q 1403 894 1545 773 
Q 1688 653 1941 653 
Q 2256 653 2472 879 
Q 2688 1106 2688 1447 
L 2688 1575 
L 2106 1575 
z
M 3816 1997 
L 3816 0 
L 2688 0 
L 2688 519 
Q 2463 200 2181 54 
Q 1900 -91 1497 -91 
Q 953 -91 614 226 
Q 275 544 275 1050 
Q 275 1666 698 1953 
Q 1122 2241 2028 2241 
L 2688 2241 
L 2688 2328 
Q 2688 2594 2478 2717 
Q 2269 2841 1825 2841 
Q 1466 2841 1156 2769 
Q 847 2697 581 2553 
L 581 3406 
Q 941 3494 1303 3539 
Q 1666 3584 2028 3584 
Q 2975 3584 3395 3211 
Q 3816 2838 3816 1997 
z
" transform="scale(0.015625)"/>
       <path id="DejaVuSans-Bold-72" d="M 3138 2547 
Q 2991 2616 2845 2648 
Q 2700 2681 2553 2681 
Q 2122 2681 1889 2404 
Q 1656 2128 1656 1613 
L 1656 0 
L 538 0 
L 538 3500 
L 1656 3500 
L 1656 2925 
Q 1872 3269 2151 3426 
Q 2431 3584 2822 3584 
Q 2878 3584 2943 3579 
Q 3009 3575 3134 3559 
L 3138 2547 
z
" transform="scale(0.015625)"/>
       <path id="DejaVuSans-Bold-63" d="M 3366 3391 
L 3366 2478 
Q 3138 2634 2908 2709 
Q 2678 2784 2431 2784 
Q 1963 2784 1702 2511 
Q 1441 2238 1441 1747 
Q 1441 1256 1702 982 
Q 1963 709 2431 709 
Q 2694 709 2930 787 
Q 3166 866 3366 1019 
L 3366 103 
Q 3103 6 2833 -42 
Q 2563 -91 2291 -91 
Q 1344 -91 809 395 
Q 275 881 275 1747 
Q 275 2613 809 3098 
Q 1344 3584 2291 3584 
Q 2566 3584 2833 3536 
Q 3100 3488 3366 3391 
z
" transform="scale(0.015625)"/>
       <path id="DejaVuSans-Bold-6f" d="M 2203 2784 
Q 1831 2784 1636 2517 
Q 1441 2250 1441 1747 
Q 1441 1244 1636 976 
Q 1831 709 2203 709 
Q 2569 709 2762 976 
Q 2956 1244 2956 1747 
Q 2956 2250 2762 2517 
Q 2569 2784 2203 2784 
z
M 2203 3584 
Q 3106 3584 3614 3096 
Q 4122 2609 4122 1747 
Q 4122 884 3614 396 
Q 3106 -91 2203 -91 
Q 1297 -91 786 396 
Q 275 884 275 1747 
Q 275 2609 786 3096 
Q 1297 3584 2203 3584 
z
" transform="scale(0.015625)"/>
       <path id="DejaVuSans-Bold-64" d="M 2919 2988 
L 2919 4863 
L 4044 4863 
L 4044 0 
L 2919 0 
L 2919 506 
Q 2688 197 2409 53 
Q 2131 -91 1766 -91 
Q 1119 -91 703 423 
Q 288 938 288 1747 
Q 288 2556 703 3070 
Q 1119 3584 1766 3584 
Q 2128 3584 2408 3439 
Q 2688 3294 2919 2988 
z
M 2181 722 
Q 2541 722 2730 984 
Q 2919 1247 2919 1747 
Q 2919 2247 2730 2509 
Q 2541 2772 2181 2772 
Q 1825 2772 1636 2509 
Q 1447 2247 1447 1747 
Q 1447 1247 1636 984 
Q 1825 722 2181 722 
z
" transform="scale(0.015625)"/>
       <path id="DejaVuSans-Bold-65" d="M 4031 1759 
L 4031 1441 
L 1416 1441 
Q 1456 1047 1700 850 
Q 1944 653 2381 653 
Q 2734 653 3104 758 
Q 3475 863 3866 1075 
L 3866 213 
Q 3469 63 3072 -14 
Q 2675 -91 2278 -91 
Q 1328 -91 801 392 
Q 275 875 275 1747 
Q 275 2603 792 3093 
Q 1309 3584 2216 3584 
Q 3041 3584 3536 3087 
Q 4031 2591 4031 1759 
z
M 2881 2131 
Q 2881 2450 2695 2645 
Q 2509 2841 2209 2841 
Q 1884 2841 1681 2658 
Q 1478 2475 1428 2131 
L 2881 2131 
z
" transform="scale(0.015625)"/>
       <path id="DejaVuSans-Bold-20" transform="scale(0.015625)"/>
       <path id="DejaVuSans-Bold-75" d="M 500 1363 
L 500 3500 
L 1625 3500 
L 1625 3150 
Q 1625 2866 1622 2436 
Q 1619 2006 1619 1863 
Q 1619 1441 1641 1255 
Q 1663 1069 1716 984 
Q 1784 875 1895 815 
Q 2006 756 2150 756 
Q 2500 756 2700 1025 
Q 2900 1294 2900 1772 
L 2900 3500 
L 4019 3500 
L 4019 0 
L 2900 0 
L 2900 506 
Q 2647 200 2364 54 
Q 2081 -91 1741 -91 
Q 1134 -91 817 281 
Q 500 653 500 1363 
z
" transform="scale(0.015625)"/>
       <path id="DejaVuSans-Bold-6e" d="M 4056 2131 
L 4056 0 
L 2931 0 
L 2931 347 
L 2931 1631 
Q 2931 2084 2911 2256 
Q 2891 2428 2841 2509 
Q 2775 2619 2662 2680 
Q 2550 2741 2406 2741 
Q 2056 2741 1856 2470 
Q 1656 2200 1656 1722 
L 1656 0 
L 538 0 
L 538 3500 
L 1656 3500 
L 1656 2988 
Q 1909 3294 2193 3439 
Q 2478 3584 2822 3584 
Q 3428 3584 3742 3212 
Q 4056 2841 4056 2131 
z
" transform="scale(0.015625)"/>
       <path id="DejaVuSans-Bold-74" d="M 1759 4494 
L 1759 3500 
L 2913 3500 
L 2913 2700 
L 1759 2700 
L 1759 1216 
Q 1759 972 1856 886 
Q 1953 800 2241 800 
L 2816 800 
L 2816 0 
L 1856 0 
Q 1194 0 917 276 
Q 641 553 641 1216 
L 641 2700 
L 84 2700 
L 84 3500 
L 641 3500 
L 641 4494 
L 1759 4494 
z
" transform="scale(0.015625)"/>
      </defs>
      <use xlink:href="#DejaVuSans-Bold-42"/>
      <use xlink:href="#DejaVuSans-Bold-61" transform="translate(76.220703 0)"/>
      <use xlink:href="#DejaVuSans-Bold-72" transform="translate(143.701172 0)"/>
      <use xlink:href="#DejaVuSans-Bold-63" transform="translate(193.017578 0)"/>
      <use xlink:href="#DejaVuSans-Bold-6f" transform="translate(252.294922 0)"/>
      <use xlink:href="#DejaVuSans-Bold-64" transform="translate(320.996094 0)"/>
      <use xlink:href="#DejaVuSans-Bold-65" transform="translate(392.578125 0)"/>
      <use xlink:href="#DejaVuSans-Bold-20" transform="translate(460.400391 0)"/>
      <use xlink:href="#DejaVuSans-Bold-63" transform="translate(495.214844 0)"/>
      <use xlink:href="#DejaVuSans-Bold-6f" transform="translate(554.492188 0)"/>
      <use xlink:href="#DejaVuSans-Bold-75" transform="translate(623.193359 0)"/>
      <use xlink:href="#DejaVuSans-Bold-6e" transform="translate(694.384766 0)"/>
      <use xlink:href="#DejaVuSans-Bold-74" transform="translate(765.576172 0)"/>
     </g>
    </g>
   </g>
   <g id="matplotlib.axis_2">
    <g id="ytick_1">
     <g id="line2d_5">
      <defs>
       <path id="md58fc8de25" d="M 0 0 
L -3.5 0 
" style="stroke: #000000; stroke-width: 0.8"/>
      </defs>
      <g>
       <use xlink:href="#md58fc8de25" x="89.016563" y="457.558594" style="stroke: #000000; stroke-width: 0.8"/>
      </g>
     </g>
     <g id="text_6">
      <!-- 0% -->
      <g transform="translate(53.46125 464.397187) scale(0.18 -0.18)">
       <defs>
        <path id="DejaVuSans-25" d="M 4653 2053 
Q 4381 2053 4226 1822 
Q 4072 1591 4072 1178 
Q 4072 772 4226 539 
Q 4381 306 4653 306 
Q 4919 306 5073 539 
Q 5228 772 5228 1178 
Q 5228 1588 5073 1820 
Q 4919 2053 4653 2053 
z
M 4653 2450 
Q 5147 2450 5437 2106 
Q 5728 1763 5728 1178 
Q 5728 594 5436 251 
Q 5144 -91 4653 -91 
Q 4153 -91 3862 251 
Q 3572 594 3572 1178 
Q 3572 1766 3864 2108 
Q 4156 2450 4653 2450 
z
M 1428 4353 
Q 1159 4353 1004 4120 
Q 850 3888 850 3481 
Q 850 3069 1003 2837 
Q 1156 2606 1428 2606 
Q 1700 2606 1854 2837 
Q 2009 3069 2009 3481 
Q 2009 3884 1853 4118 
Q 1697 4353 1428 4353 
z
M 4250 4750 
L 4750 4750 
L 1831 -91 
L 1331 -91 
L 4250 4750 
z
M 1428 4750 
Q 1922 4750 2215 4408 
Q 2509 4066 2509 3481 
Q 2509 2891 2217 2550 
Q 1925 2209 1428 2209 
Q 931 2209 642 2551 
Q 353 2894 353 3481 
Q 353 4063 643 4406 
Q 934 4750 1428 4750 
z
" transform="scale(0.015625)"/>
       </defs>
       <use xlink:href="#DejaVuSans-30"/>
       <use xlink:href="#DejaVuSans-25" transform="translate(63.623047 0)"/>
      </g>
     </g>
    </g>
    <g id="ytick_2">
     <g id="line2d_6">
      <g>
       <use xlink:href="#md58fc8de25" x="89.016563" y="368.854594" style="stroke: #000000; stroke-width: 0.8"/>
      </g>
     </g>
     <g id="text_7">
      <!-- 20% -->
      <g transform="translate(42.00875 375.693187) scale(0.18 -0.18)">
       <use xlink:href="#DejaVuSans-32"/>
       <use xlink:href="#DejaVuSans-30" transform="translate(63.623047 0)"/>
       <use xlink:href="#DejaVuSans-25" transform="translate(127.246094 0)"/>
      </g>
     </g>
    </g>
    <g id="ytick_3">
     <g id="line2d_7">
      <g>
       <use xlink:href="#md58fc8de25" x="89.016563" y="280.150594" style="stroke: #000000; stroke-width: 0.8"/>
      </g>
     </g>
     <g id="text_8">
      <!-- 40% -->
      <g transform="translate(42.00875 286.989187) scale(0.18 -0.18)">
       <use xlink:href="#DejaVuSans-34"/>
       <use xlink:href="#DejaVuSans-30" transform="translate(63.623047 0)"/>
       <use xlink:href="#DejaVuSans-25" transform="translate(127.246094 0)"/>
      </g>
     </g>
    </g>
    <g id="ytick_4">
     <g id="line2d_8">
      <g>
       <use xlink:href="#md58fc8de25" x="89.016563" y="191.446594" style="stroke: #000000; stroke-width: 0.8"/>
      </g>
     </g>
     <g id="text_9">
      <!-- 60% -->
      <g transform="translate(42.00875 198.285187) scale(0.18 -0.18)">
       <use xlink:href="#DejaVuSans-36"/>
       <use xlink:href="#DejaVuSans-30" transform="translate(63.623047 0)"/>
       <use xlink:href="#DejaVuSans-25" transform="translate(127.246094 0)"/>
      </g>
     </g>
    </g>
    <g id="ytick_5">
     <g id="line2d_9">
      <g>
       <use xlink:href="#md58fc8de25" x="89.016563" y="102.742594" style="stroke: #000000; stroke-width: 0.8"/>
      </g>
     </g>
     <g id="text_10">
      <!-- 80% -->
      <g transform="translate(42.00875 109.581187) scale(0.18 -0.18)">
       <defs>
        <path id="DejaVuSans-38" d="M 2034 2216 
Q 1584 2216 1326 1975 
Q 1069 1734 1069 1313 
Q 1069 891 1326 650 
Q 1584 409 2034 409 
Q 2484 409 2743 651 
Q 3003 894 3003 1313 
Q 3003 1734 2745 1975 
Q 2488 2216 2034 2216 
z
M 1403 2484 
Q 997 2584 770 2862 
Q 544 3141 544 3541 
Q 544 4100 942 4425 
Q 1341 4750 2034 4750 
Q 2731 4750 3128 4425 
Q 3525 4100 3525 3541 
Q 3525 3141 3298 2862 
Q 3072 2584 2669 2484 
Q 3125 2378 3379 2068 
Q 3634 1759 3634 1313 
Q 3634 634 3220 271 
Q 2806 -91 2034 -91 
Q 1263 -91 848 271 
Q 434 634 434 1313 
Q 434 1759 690 2068 
Q 947 2378 1403 2484 
z
M 1172 3481 
Q 1172 3119 1398 2916 
Q 1625 2713 2034 2713 
Q 2441 2713 2670 2916 
Q 2900 3119 2900 3481 
Q 2900 3844 2670 4047 
Q 2441 4250 2034 4250 
Q 1625 4250 1398 4047 
Q 1172 3844 1172 3481 
z
" transform="scale(0.015625)"/>
       </defs>
       <use xlink:href="#DejaVuSans-38"/>
       <use xlink:href="#DejaVuSans-30" transform="translate(63.623047 0)"/>
       <use xlink:href="#DejaVuSans-25" transform="translate(127.246094 0)"/>
      </g>
     </g>
    </g>
    <g id="ytick_6">
     <g id="line2d_10">
      <g>
       <use xlink:href="#md58fc8de25" x="89.016563" y="14.038594" style="stroke: #000000; stroke-width: 0.8"/>
      </g>
     </g>
     <g id="text_11">
      <!-- 100% -->
      <g transform="translate(30.55625 20.877187) scale(0.18 -0.18)">
       <defs>
        <path id="DejaVuSans-31" d="M 794 531 
L 1825 531 
L 1825 4091 
L 703 3866 
L 703 4441 
L 1819 4666 
L 2450 4666 
L 2450 531 
L 3481 531 
L 3481 0 
L 794 0 
L 794 531 
z
" transform="scale(0.015625)"/>
       </defs>
       <use xlink:href="#DejaVuSans-31"/>
       <use xlink:href="#DejaVuSans-30" transform="translate(63.623047 0)"/>
       <use xlink:href="#DejaVuSans-30" transform="translate(127.246094 0)"/>
       <use xlink:href="#DejaVuSans-25" transform="translate(190.869141 0)"/>
      </g>
     </g>
    </g>
    <g id="text_12">
     <!-- cCREs (%) -->
     <g transform="translate(22.396875 292.190781) rotate(-90) scale(0.2 -0.2)">
      <defs>
       <path id="DejaVuSans-Bold-43" d="M 4288 256 
Q 3956 84 3597 -3 
Q 3238 -91 2847 -91 
Q 1681 -91 1000 561 
Q 319 1213 319 2328 
Q 319 3447 1000 4098 
Q 1681 4750 2847 4750 
Q 3238 4750 3597 4662 
Q 3956 4575 4288 4403 
L 4288 3438 
Q 3953 3666 3628 3772 
Q 3303 3878 2944 3878 
Q 2300 3878 1931 3465 
Q 1563 3053 1563 2328 
Q 1563 1606 1931 1193 
Q 2300 781 2944 781 
Q 3303 781 3628 887 
Q 3953 994 4288 1222 
L 4288 256 
z
" transform="scale(0.015625)"/>
       <path id="DejaVuSans-Bold-52" d="M 2297 2597 
Q 2675 2597 2839 2737 
Q 3003 2878 3003 3200 
Q 3003 3519 2839 3656 
Q 2675 3794 2297 3794 
L 1791 3794 
L 1791 2597 
L 2297 2597 
z
M 1791 1766 
L 1791 0 
L 588 0 
L 588 4666 
L 2425 4666 
Q 3347 4666 3776 4356 
Q 4206 4047 4206 3378 
Q 4206 2916 3982 2619 
Q 3759 2322 3309 2181 
Q 3556 2125 3751 1926 
Q 3947 1728 4147 1325 
L 4800 0 
L 3519 0 
L 2950 1159 
Q 2778 1509 2601 1637 
Q 2425 1766 2131 1766 
L 1791 1766 
z
" transform="scale(0.015625)"/>
       <path id="DejaVuSans-Bold-45" d="M 588 4666 
L 3834 4666 
L 3834 3756 
L 1791 3756 
L 1791 2888 
L 3713 2888 
L 3713 1978 
L 1791 1978 
L 1791 909 
L 3903 909 
L 3903 0 
L 588 0 
L 588 4666 
z
" transform="scale(0.015625)"/>
       <path id="DejaVuSans-Bold-73" d="M 3272 3391 
L 3272 2541 
Q 2913 2691 2578 2766 
Q 2244 2841 1947 2841 
Q 1628 2841 1473 2761 
Q 1319 2681 1319 2516 
Q 1319 2381 1436 2309 
Q 1553 2238 1856 2203 
L 2053 2175 
Q 2913 2066 3209 1816 
Q 3506 1566 3506 1031 
Q 3506 472 3093 190 
Q 2681 -91 1863 -91 
Q 1516 -91 1145 -36 
Q 775 19 384 128 
L 384 978 
Q 719 816 1070 734 
Q 1422 653 1784 653 
Q 2113 653 2278 743 
Q 2444 834 2444 1013 
Q 2444 1163 2330 1236 
Q 2216 1309 1875 1350 
L 1678 1375 
Q 931 1469 631 1722 
Q 331 1975 331 2491 
Q 331 3047 712 3315 
Q 1094 3584 1881 3584 
Q 2191 3584 2531 3537 
Q 2872 3491 3272 3391 
z
" transform="scale(0.015625)"/>
       <path id="DejaVuSans-Bold-28" d="M 2413 -844 
L 1484 -844 
Q 1006 -72 778 623 
Q 550 1319 550 2003 
Q 550 2688 779 3389 
Q 1009 4091 1484 4856 
L 2413 4856 
Q 2013 4116 1813 3408 
Q 1613 2700 1613 2009 
Q 1613 1319 1811 609 
Q 2009 -100 2413 -844 
z
" transform="scale(0.015625)"/>
       <path id="DejaVuSans-Bold-25" d="M 4959 1925 
Q 4738 1925 4616 1733 
Q 4494 1541 4494 1184 
Q 4494 825 4614 633 
Q 4734 441 4959 441 
Q 5184 441 5303 633 
Q 5422 825 5422 1184 
Q 5422 1541 5301 1733 
Q 5181 1925 4959 1925 
z
M 4959 2450 
Q 5541 2450 5875 2112 
Q 6209 1775 6209 1184 
Q 6209 594 5875 251 
Q 5541 -91 4959 -91 
Q 4378 -91 4042 251 
Q 3706 594 3706 1184 
Q 3706 1772 4042 2111 
Q 4378 2450 4959 2450 
z
M 2094 -91 
L 1403 -91 
L 4319 4750 
L 5013 4750 
L 2094 -91 
z
M 1453 4750 
Q 2034 4750 2367 4411 
Q 2700 4072 2700 3481 
Q 2700 2891 2367 2550 
Q 2034 2209 1453 2209 
Q 872 2209 539 2550 
Q 206 2891 206 3481 
Q 206 4072 539 4411 
Q 872 4750 1453 4750 
z
M 1453 4225 
Q 1228 4225 1106 4031 
Q 984 3838 984 3481 
Q 984 3122 1106 2926 
Q 1228 2731 1453 2731 
Q 1678 2731 1798 2926 
Q 1919 3122 1919 3481 
Q 1919 3838 1797 4031 
Q 1675 4225 1453 4225 
z
" transform="scale(0.015625)"/>
       <path id="DejaVuSans-Bold-29" d="M 513 -844 
Q 913 -100 1113 609 
Q 1313 1319 1313 2009 
Q 1313 2700 1113 3408 
Q 913 4116 513 4856 
L 1441 4856 
Q 1916 4091 2145 3389 
Q 2375 2688 2375 2003 
Q 2375 1319 2147 623 
Q 1919 -72 1441 -844 
L 513 -844 
z
" transform="scale(0.015625)"/>
      </defs>
      <use xlink:href="#DejaVuSans-Bold-63"/>
      <use xlink:href="#DejaVuSans-Bold-43" transform="translate(59.277344 0)"/>
      <use xlink:href="#DejaVuSans-Bold-52" transform="translate(132.666016 0)"/>
      <use xlink:href="#DejaVuSans-Bold-45" transform="translate(209.667969 0)"/>
      <use xlink:href="#DejaVuSans-Bold-73" transform="translate(277.978516 0)"/>
      <use xlink:href="#DejaVuSans-Bold-20" transform="translate(337.5 0)"/>
      <use xlink:href="#DejaVuSans-Bold-28" transform="translate(372.314453 0)"/>
      <use xlink:href="#DejaVuSans-Bold-25" transform="translate(418.017578 0)"/>
      <use xlink:href="#DejaVuSans-Bold-29" transform="translate(518.212891 0)"/>
     </g>
    </g>
   </g>
   <g id="line2d_11">
    <path d="M 109.307472 457.558594 
L 109.307472 412.835717 
L 109.861868 412.835717 
L 109.861868 412.725979 
L 109.861868 386.254946 
L 110.416264 386.254946 
L 110.416264 386.145208 
L 110.416264 356.527113 
L 110.970661 356.527113 
L 110.970661 356.417375 
L 110.970661 326.711861 
L 111.525057 326.711861 
L 111.525057 326.602123 
L 111.525057 299.545201 
L 112.079454 299.545201 
L 112.079454 299.435463 
L 112.079454 276.316088 
L 112.63385 276.316088 
L 112.63385 276.20635 
L 112.63385 256.63393 
L 113.188247 256.63393 
L 113.188247 256.524192 
L 113.188247 240.848401 
L 113.742643 240.848401 
L 113.742643 240.738663 
L 113.742643 227.819341 
L 114.297039 227.819341 
L 114.297039 227.709603 
L 114.297039 217.184056 
L 114.851436 217.184056 
L 114.851436 217.074318 
L 114.851436 208.358519 
L 115.405832 208.358519 
L 115.405832 208.248781 
L 115.405832 200.953995 
L 115.960229 200.953995 
L 115.960229 200.844257 
L 115.960229 194.380876 
L 116.514625 194.380876 
L 116.514625 194.271138 
L 116.514625 188.70984 
L 117.069022 188.70984 
L 117.069022 188.600102 
L 117.069022 183.773491 
L 117.623418 183.773491 
L 117.623418 183.663753 
L 117.623418 179.201695 
L 118.177814 179.201695 
L 118.177814 179.091957 
L 118.177814 174.856815 
L 118.732211 174.856815 
L 118.732211 174.747077 
L 118.732211 170.971346 
L 119.286607 170.971346 
L 119.286607 170.861608 
L 119.286607 167.106338 
L 119.841004 167.106338 
L 119.841004 166.9966 
L 119.841004 163.339907 
L 120.3954 163.339907 
L 120.3954 163.230169 
L 120.3954 159.394919 
L 120.949796 159.394919 
L 120.949796 159.285181 
L 120.949796 155.673128 
L 121.504193 155.673128 
L 121.504193 155.56339 
L 121.504193 152.033175 
L 122.058589 152.033175 
L 122.058589 151.923437 
L 122.058589 148.452741 
L 122.612986 148.452741 
L 122.612986 148.343003 
L 122.612986 144.853707 
L 123.167382 144.853707 
L 123.167382 144.743969 
L 123.167382 141.371851 
L 123.721779 141.371851 
L 123.721779 141.262113 
L 123.721779 137.871395 
L 124.276175 137.871395 
L 124.276175 137.761657 
L 124.276175 134.480678 
L 124.830571 134.480678 
L 124.830571 134.37094 
L 124.830571 131.002542 
L 125.384968 131.002542 
L 125.384968 130.892804 
L 125.384968 127.502086 
L 125.939364 127.502086 
L 125.939364 127.392348 
L 125.939364 124.115089 
L 126.493761 124.115089 
L 126.493761 124.005351 
L 126.493761 120.850849 
L 127.048157 120.850849 
L 127.048157 120.741111 
L 127.048157 117.452691 
L 127.602554 117.452691 
L 127.602554 117.342953 
L 127.602554 114.117772 
L 128.15695 114.117772 
L 128.15695 114.008034 
L 128.15695 110.920491 
L 128.711346 110.920491 
L 128.711346 110.810753 
L 128.711346 107.911067 
L 129.265743 107.911067 
L 129.265743 107.801329 
L 129.265743 104.756565 
L 129.820139 104.756565 
L 129.820139 104.646827 
L 129.820139 101.819679 
L 130.374536 101.819679 
L 130.374536 101.709941 
L 130.374536 98.992531 
L 130.928932 98.992531 
L 130.928932 98.882793 
L 130.928932 95.962646 
L 131.483329 95.962646 
L 131.483329 95.852909 
L 131.483329 93.120619 
L 132.037725 93.120619 
L 132.037725 93.010881 
L 132.037725 90.35113 
L 132.592121 90.35113 
L 132.592121 90.241392 
L 132.592121 87.674639 
L 133.146518 87.674639 
L 133.146518 87.564901 
L 133.146518 84.87911 
L 133.700914 84.87911 
L 133.700914 84.769372 
L 133.700914 82.373737 
L 134.255311 82.373737 
L 134.255311 82.263999 
L 134.255311 79.801404 
L 134.809707 79.801404 
L 134.809707 79.691666 
L 134.809707 77.485746 
L 135.364103 77.485746 
L 135.364103 77.376008 
L 135.364103 75.043611 
L 135.9185 75.043611 
L 135.9185 74.933873 
L 135.9185 72.657275 
L 136.472896 72.657275 
L 136.472896 72.547537 
L 136.472896 70.321158 
L 137.027293 70.321158 
L 137.027293 70.21142 
L 137.027293 68.126399 
L 137.581689 68.126399 
L 137.581689 68.016661 
L 137.581689 65.979998 
L 138.136086 65.979998 
L 138.136086 65.87026 
L 138.136086 63.803838 
L 138.690482 63.803838 
L 138.690482 63.6941 
L 138.690482 61.703937 
L 139.244878 61.703937 
L 139.244878 61.594199 
L 139.244878 59.717493 
L 139.799275 59.717493 
L 139.799275 59.607755 
L 139.799275 57.855668 
L 140.353671 57.855668 
L 140.353671 57.74593 
L 140.353671 56.058941 
L 140.908068 56.058941 
L 140.908068 55.949203 
L 140.908068 54.386831 
L 141.462464 54.386831 
L 141.462464 54.277093 
L 141.462464 52.649623 
L 142.016861 52.649623 
L 142.016861 52.539885 
L 142.016861 51.018433 
L 142.571257 51.018433 
L 142.571257 50.908695 
L 142.571257 49.407703 
L 143.125653 49.407703 
L 143.125653 49.297965 
L 143.125653 47.908571 
L 143.68005 47.908571 
L 143.68005 47.798833 
L 143.68005 46.526616 
L 144.234446 46.526616 
L 144.234446 46.416878 
L 144.234446 45.111182 
L 144.788843 45.111182 
L 144.788843 45.001444 
L 144.788843 43.757127 
L 145.343239 43.757127 
L 145.343239 43.647389 
L 145.343239 42.416092 
L 145.897636 42.416092 
L 145.897636 42.306354 
L 145.897636 41.106676 
L 146.452032 41.106676 
L 146.452032 40.996938 
L 146.452032 39.821439 
L 147.006428 39.821439 
L 147.006428 39.711701 
L 147.006428 38.562243 
L 147.560825 38.562243 
L 147.560825 38.452505 
L 147.560825 37.338385 
L 148.115221 37.338385 
L 148.115221 37.228647 
L 148.115221 36.254025 
L 148.669618 36.254025 
L 148.669618 36.144287 
L 148.669618 35.229184 
L 149.224014 35.229184 
L 149.224014 35.119446 
L 149.224014 34.256422 
L 149.77841 34.256422 
L 149.77841 34.146684 
L 149.77841 33.341319 
L 150.332807 33.341319 
L 150.332807 33.231581 
L 150.332807 32.489454 
L 150.887203 32.489454 
L 150.887203 32.379716 
L 150.887203 31.61899 
L 151.4416 31.61899 
L 151.4416 31.509252 
L 151.4416 30.841525 
L 151.995996 30.841525 
L 151.995996 30.731787 
L 151.995996 30.086378 
L 152.550393 30.086378 
L 152.550393 29.976641 
L 152.550393 29.355412 
L 153.104789 29.355412 
L 153.104789 29.245674 
L 153.104789 28.618865 
L 153.659185 28.618865 
L 153.659185 28.509128 
L 153.659185 27.891619 
L 154.213582 27.891619 
L 154.213582 27.781881 
L 154.213582 27.257371 
L 154.767978 27.257371 
L 154.767978 27.147633 
L 154.767978 26.688221 
L 155.322375 26.688221 
L 155.322375 26.578483 
L 155.322375 26.100472 
L 155.876771 26.100472 
L 155.876771 25.990734 
L 155.876771 25.555502 
L 156.431168 25.555502 
L 156.431168 25.445764 
L 156.431168 24.964033 
L 156.985564 24.964033 
L 156.985564 24.854295 
L 156.985564 24.428363 
L 157.53996 24.428363 
L 157.53996 24.318625 
L 157.53996 23.892692 
L 158.094357 23.892692 
L 158.094357 23.782954 
L 158.094357 23.396082 
L 158.648753 23.396082 
L 158.648753 23.286344 
L 158.648753 23.018509 
L 159.20315 23.018509 
L 159.20315 22.908771 
L 159.20315 22.570257 
L 159.757546 22.570257 
L 159.757546 22.460519 
L 159.757546 22.131305 
L 160.311943 22.131305 
L 160.311943 22.021567 
L 160.311943 21.751872 
L 160.866339 21.751872 
L 160.866339 21.642134 
L 160.866339 21.394758 
L 161.420735 21.394758 
L 161.420735 21.28502 
L 161.420735 21.022765 
L 161.975132 21.022765 
L 161.975132 20.913027 
L 161.975132 20.635892 
L 162.529528 20.635892 
L 162.529528 20.526154 
L 162.529528 20.312258 
L 163.083925 20.312258 
L 163.083925 20.20252 
L 163.083925 19.999784 
L 163.638321 19.999784 
L 163.638321 19.890046 
L 163.638321 19.720789 
L 164.192717 19.720789 
L 164.192717 19.611051 
L 164.192717 19.465974 
L 164.747114 19.465974 
L 164.747114 19.356236 
L 164.747114 19.177679 
L 165.30151 19.177679 
L 165.30151 19.067941 
L 165.30151 18.950763 
L 165.855907 18.950763 
L 165.855907 18.841025 
L 165.855907 18.673628 
L 166.410303 18.673628 
L 166.410303 18.56389 
L 166.410303 18.439273 
L 166.9647 18.439273 
L 166.9647 18.329535 
L 166.9647 18.232817 
L 167.519096 18.232817 
L 167.519096 18.123079 
L 167.519096 18.076579 
L 168.073492 18.076579 
L 168.073492 17.966841 
L 168.073492 17.879423 
L 168.627889 17.879423 
L 168.627889 17.769685 
L 168.627889 17.710166 
L 169.182285 17.710166 
L 169.182285 17.600428 
L 169.182285 17.568809 
L 169.736682 17.568809 
L 169.736682 17.459071 
L 169.736682 17.425591 
L 170.291078 17.425591 
L 170.291078 17.315853 
L 170.291078 17.261914 
L 170.845475 17.261914 
L 170.845475 17.152176 
L 170.845475 17.105677 
L 171.399871 17.105677 
L 171.399871 16.995939 
L 171.399871 16.95502 
L 171.954267 16.95502 
L 171.954267 16.845282 
L 171.954267 16.828542 
L 172.508664 16.828542 
L 172.508664 16.718804 
L 172.508664 16.709505 
L 173.06306 16.709505 
L 173.06306 16.599767 
L 173.06306 16.566287 
L 173.617457 16.566287 
L 173.617457 16.456549 
L 173.617457 16.42865 
L 174.72625 16.322632 
L 174.72625 16.318912 
L 174.72625 16.224054 
L 175.835042 16.127335 
L 175.835042 16.114316 
L 175.835042 16.038057 
L 176.943835 15.933899 
L 176.943835 15.928319 
L 176.943835 15.826021 
L 178.052628 15.746042 
L 178.052628 15.716283 
L 178.052628 15.682803 
L 179.161421 15.615845 
L 179.161421 15.573066 
L 179.161421 15.561906 
L 180.270214 15.498667 
L 180.270214 15.452168 
L 180.270214 15.427988 
L 181.379007 15.361029 
L 181.379007 15.31825 
L 181.379007 15.30523 
L 182.487799 15.245712 
L 182.487799 15.195492 
L 182.487799 15.175033 
L 184.150989 15.069015 
L 184.150989 15.065295 
L 184.150989 15.020656 
L 185.814178 14.940677 
L 185.814178 14.910918 
L 185.814178 14.907198 
L 188.031764 14.80676 
L 188.031764 14.79746 
L 188.031764 14.78258 
L 190.249349 14.684002 
L 190.249349 14.672842 
L 190.249349 14.654242 
L 193.575728 14.557524 
L 193.575728 14.544504 
L 193.575728 14.538925 
L 197.456503 14.444066 
L 197.456503 14.429187 
L 197.456503 14.425467 
L 203.000467 14.315729 
L 203.000467 14.306429 
L 209.653224 14.205991 
L 209.653224 14.196691 
L 209.653224 14.189251 
L 245.688992 14.079513 
L 245.688992 14.077653 
L 515.125653 14.040454 
L 515.125653 14.038594 
" clip-path="url(#pd62c69b42a)" style="fill: none; stroke: #227c9d; stroke-width: 1.5; stroke-linecap: square"/>
   </g>
   <g id="line2d_12">
    <path d="M 89.016563 412.835717 
L 535.416562 412.835717 
" clip-path="url(#pd62c69b42a)" style="fill: none; stroke-dasharray: 7.4,3.2; stroke-dashoffset: 0; stroke: #3d9f95; stroke-width: 2"/>
   </g>
   <g id="line2d_13">
    <path d="M 89.016563 217.184056 
L 535.416562 217.184056 
" clip-path="url(#pd62c69b42a)" style="fill: none; stroke-dasharray: 7.4,3.2; stroke-dashoffset: 0; stroke: #3d9f95; stroke-width: 2"/>
   </g>
   <g id="line2d_14">
    <path d="M 113.742643 457.558594 
L 113.742643 14.038594 
" clip-path="url(#pd62c69b42a)" style="fill: none; stroke-dasharray: 7.4,3.2; stroke-dashoffset: 0; stroke: #227c9d; stroke-width: 2"/>
   </g>
   <g id="line2d_15">
    <path d="M 120.182942 457.558594 
L 120.182942 14.038594 
" clip-path="url(#pd62c69b42a)" style="fill: none; stroke-dasharray: 7.4,3.2; stroke-dashoffset: 0; stroke: #227c9d; stroke-width: 2"/>
   </g>
   <g id="patch_3">
    <path d="M 89.016563 457.558594 
L 89.016563 14.038594 
" style="fill: none; stroke: #000000; stroke-linejoin: miter; stroke-linecap: square"/>
   </g>
   <g id="patch_4">
    <path d="M 89.016563 457.558594 
L 535.416562 457.558594 
" style="fill: none; stroke: #000000; stroke-linejoin: miter; stroke-linecap: square"/>
   </g>
   <g id="text_13">
    <!-- cCREs with 0 barcodes: 10.08% -->
    <g style="fill: #3d9f95" transform="translate(279.751108 403.965317) scale(0.1 -0.1)">
     <defs>
      <path id="DejaVuSans-63" d="M 3122 3366 
L 3122 2828 
Q 2878 2963 2633 3030 
Q 2388 3097 2138 3097 
Q 1578 3097 1268 2742 
Q 959 2388 959 1747 
Q 959 1106 1268 751 
Q 1578 397 2138 397 
Q 2388 397 2633 464 
Q 2878 531 3122 666 
L 3122 134 
Q 2881 22 2623 -34 
Q 2366 -91 2075 -91 
Q 1284 -91 818 406 
Q 353 903 353 1747 
Q 353 2603 823 3093 
Q 1294 3584 2113 3584 
Q 2378 3584 2631 3529 
Q 2884 3475 3122 3366 
z
" transform="scale(0.015625)"/>
      <path id="DejaVuSans-43" d="M 4122 4306 
L 4122 3641 
Q 3803 3938 3442 4084 
Q 3081 4231 2675 4231 
Q 1875 4231 1450 3742 
Q 1025 3253 1025 2328 
Q 1025 1406 1450 917 
Q 1875 428 2675 428 
Q 3081 428 3442 575 
Q 3803 722 4122 1019 
L 4122 359 
Q 3791 134 3420 21 
Q 3050 -91 2638 -91 
Q 1578 -91 968 557 
Q 359 1206 359 2328 
Q 359 3453 968 4101 
Q 1578 4750 2638 4750 
Q 3056 4750 3426 4639 
Q 3797 4528 4122 4306 
z
" transform="scale(0.015625)"/>
      <path id="DejaVuSans-52" d="M 2841 2188 
Q 3044 2119 3236 1894 
Q 3428 1669 3622 1275 
L 4263 0 
L 3584 0 
L 2988 1197 
Q 2756 1666 2539 1819 
Q 2322 1972 1947 1972 
L 1259 1972 
L 1259 0 
L 628 0 
L 628 4666 
L 2053 4666 
Q 2853 4666 3247 4331 
Q 3641 3997 3641 3322 
Q 3641 2881 3436 2590 
Q 3231 2300 2841 2188 
z
M 1259 4147 
L 1259 2491 
L 2053 2491 
Q 2509 2491 2742 2702 
Q 2975 2913 2975 3322 
Q 2975 3731 2742 3939 
Q 2509 4147 2053 4147 
L 1259 4147 
z
" transform="scale(0.015625)"/>
      <path id="DejaVuSans-45" d="M 628 4666 
L 3578 4666 
L 3578 4134 
L 1259 4134 
L 1259 2753 
L 3481 2753 
L 3481 2222 
L 1259 2222 
L 1259 531 
L 3634 531 
L 3634 0 
L 628 0 
L 628 4666 
z
" transform="scale(0.015625)"/>
      <path id="DejaVuSans-73" d="M 2834 3397 
L 2834 2853 
Q 2591 2978 2328 3040 
Q 2066 3103 1784 3103 
Q 1356 3103 1142 2972 
Q 928 2841 928 2578 
Q 928 2378 1081 2264 
Q 1234 2150 1697 2047 
L 1894 2003 
Q 2506 1872 2764 1633 
Q 3022 1394 3022 966 
Q 3022 478 2636 193 
Q 2250 -91 1575 -91 
Q 1294 -91 989 -36 
Q 684 19 347 128 
L 347 722 
Q 666 556 975 473 
Q 1284 391 1588 391 
Q 1994 391 2212 530 
Q 2431 669 2431 922 
Q 2431 1156 2273 1281 
Q 2116 1406 1581 1522 
L 1381 1569 
Q 847 1681 609 1914 
Q 372 2147 372 2553 
Q 372 3047 722 3315 
Q 1072 3584 1716 3584 
Q 2034 3584 2315 3537 
Q 2597 3491 2834 3397 
z
" transform="scale(0.015625)"/>
      <path id="DejaVuSans-20" transform="scale(0.015625)"/>
      <path id="DejaVuSans-77" d="M 269 3500 
L 844 3500 
L 1563 769 
L 2278 3500 
L 2956 3500 
L 3675 769 
L 4391 3500 
L 4966 3500 
L 4050 0 
L 3372 0 
L 2619 2869 
L 1863 0 
L 1184 0 
L 269 3500 
z
" transform="scale(0.015625)"/>
      <path id="DejaVuSans-69" d="M 603 3500 
L 1178 3500 
L 1178 0 
L 603 0 
L 603 3500 
z
M 603 4863 
L 1178 4863 
L 1178 4134 
L 603 4134 
L 603 4863 
z
" transform="scale(0.015625)"/>
      <path id="DejaVuSans-74" d="M 1172 4494 
L 1172 3500 
L 2356 3500 
L 2356 3053 
L 1172 3053 
L 1172 1153 
Q 1172 725 1289 603 
Q 1406 481 1766 481 
L 2356 481 
L 2356 0 
L 1766 0 
Q 1100 0 847 248 
Q 594 497 594 1153 
L 594 3053 
L 172 3053 
L 172 3500 
L 594 3500 
L 594 4494 
L 1172 4494 
z
" transform="scale(0.015625)"/>
      <path id="DejaVuSans-68" d="M 3513 2113 
L 3513 0 
L 2938 0 
L 2938 2094 
Q 2938 2591 2744 2837 
Q 2550 3084 2163 3084 
Q 1697 3084 1428 2787 
Q 1159 2491 1159 1978 
L 1159 0 
L 581 0 
L 581 4863 
L 1159 4863 
L 1159 2956 
Q 1366 3272 1645 3428 
Q 1925 3584 2291 3584 
Q 2894 3584 3203 3211 
Q 3513 2838 3513 2113 
z
" transform="scale(0.015625)"/>
      <path id="DejaVuSans-62" d="M 3116 1747 
Q 3116 2381 2855 2742 
Q 2594 3103 2138 3103 
Q 1681 3103 1420 2742 
Q 1159 2381 1159 1747 
Q 1159 1113 1420 752 
Q 1681 391 2138 391 
Q 2594 391 2855 752 
Q 3116 1113 3116 1747 
z
M 1159 2969 
Q 1341 3281 1617 3432 
Q 1894 3584 2278 3584 
Q 2916 3584 3314 3078 
Q 3713 2572 3713 1747 
Q 3713 922 3314 415 
Q 2916 -91 2278 -91 
Q 1894 -91 1617 61 
Q 1341 213 1159 525 
L 1159 0 
L 581 0 
L 581 4863 
L 1159 4863 
L 1159 2969 
z
" transform="scale(0.015625)"/>
      <path id="DejaVuSans-61" d="M 2194 1759 
Q 1497 1759 1228 1600 
Q 959 1441 959 1056 
Q 959 750 1161 570 
Q 1363 391 1709 391 
Q 2188 391 2477 730 
Q 2766 1069 2766 1631 
L 2766 1759 
L 2194 1759 
z
M 3341 1997 
L 3341 0 
L 2766 0 
L 2766 531 
Q 2569 213 2275 61 
Q 1981 -91 1556 -91 
Q 1019 -91 701 211 
Q 384 513 384 1019 
Q 384 1609 779 1909 
Q 1175 2209 1959 2209 
L 2766 2209 
L 2766 2266 
Q 2766 2663 2505 2880 
Q 2244 3097 1772 3097 
Q 1472 3097 1187 3025 
Q 903 2953 641 2809 
L 641 3341 
Q 956 3463 1253 3523 
Q 1550 3584 1831 3584 
Q 2591 3584 2966 3190 
Q 3341 2797 3341 1997 
z
" transform="scale(0.015625)"/>
      <path id="DejaVuSans-72" d="M 2631 2963 
Q 2534 3019 2420 3045 
Q 2306 3072 2169 3072 
Q 1681 3072 1420 2755 
Q 1159 2438 1159 1844 
L 1159 0 
L 581 0 
L 581 3500 
L 1159 3500 
L 1159 2956 
Q 1341 3275 1631 3429 
Q 1922 3584 2338 3584 
Q 2397 3584 2469 3576 
Q 2541 3569 2628 3553 
L 2631 2963 
z
" transform="scale(0.015625)"/>
      <path id="DejaVuSans-6f" d="M 1959 3097 
Q 1497 3097 1228 2736 
Q 959 2375 959 1747 
Q 959 1119 1226 758 
Q 1494 397 1959 397 
Q 2419 397 2687 759 
Q 2956 1122 2956 1747 
Q 2956 2369 2687 2733 
Q 2419 3097 1959 3097 
z
M 1959 3584 
Q 2709 3584 3137 3096 
Q 3566 2609 3566 1747 
Q 3566 888 3137 398 
Q 2709 -91 1959 -91 
Q 1206 -91 779 398 
Q 353 888 353 1747 
Q 353 2609 779 3096 
Q 1206 3584 1959 3584 
z
" transform="scale(0.015625)"/>
      <path id="DejaVuSans-64" d="M 2906 2969 
L 2906 4863 
L 3481 4863 
L 3481 0 
L 2906 0 
L 2906 525 
Q 2725 213 2448 61 
Q 2172 -91 1784 -91 
Q 1150 -91 751 415 
Q 353 922 353 1747 
Q 353 2572 751 3078 
Q 1150 3584 1784 3584 
Q 2172 3584 2448 3432 
Q 2725 3281 2906 2969 
z
M 947 1747 
Q 947 1113 1208 752 
Q 1469 391 1925 391 
Q 2381 391 2643 752 
Q 2906 1113 2906 1747 
Q 2906 2381 2643 2742 
Q 2381 3103 1925 3103 
Q 1469 3103 1208 2742 
Q 947 2381 947 1747 
z
" transform="scale(0.015625)"/>
      <path id="DejaVuSans-65" d="M 3597 1894 
L 3597 1613 
L 953 1613 
Q 991 1019 1311 708 
Q 1631 397 2203 397 
Q 2534 397 2845 478 
Q 3156 559 3463 722 
L 3463 178 
Q 3153 47 2828 -22 
Q 2503 -91 2169 -91 
Q 1331 -91 842 396 
Q 353 884 353 1716 
Q 353 2575 817 3079 
Q 1281 3584 2069 3584 
Q 2775 3584 3186 3129 
Q 3597 2675 3597 1894 
z
M 3022 2063 
Q 3016 2534 2758 2815 
Q 2500 3097 2075 3097 
Q 1594 3097 1305 2825 
Q 1016 2553 972 2059 
L 3022 2063 
z
" transform="scale(0.015625)"/>
      <path id="DejaVuSans-3a" d="M 750 794 
L 1409 794 
L 1409 0 
L 750 0 
L 750 794 
z
M 750 3309 
L 1409 3309 
L 1409 2516 
L 750 2516 
L 750 3309 
z
" transform="scale(0.015625)"/>
      <path id="DejaVuSans-2e" d="M 684 794 
L 1344 794 
L 1344 0 
L 684 0 
L 684 794 
z
" transform="scale(0.015625)"/>
     </defs>
     <use xlink:href="#DejaVuSans-63"/>
     <use xlink:href="#DejaVuSans-43" transform="translate(54.980469 0)"/>
     <use xlink:href="#DejaVuSans-52" transform="translate(124.804688 0)"/>
     <use xlink:href="#DejaVuSans-45" transform="translate(194.287109 0)"/>
     <use xlink:href="#DejaVuSans-73" transform="translate(257.470703 0)"/>
     <use xlink:href="#DejaVuSans-20" transform="translate(309.570312 0)"/>
     <use xlink:href="#DejaVuSans-77" transform="translate(341.357422 0)"/>
     <use xlink:href="#DejaVuSans-69" transform="translate(423.144531 0)"/>
     <use xlink:href="#DejaVuSans-74" transform="translate(450.927734 0)"/>
     <use xlink:href="#DejaVuSans-68" transform="translate(490.136719 0)"/>
     <use xlink:href="#DejaVuSans-20" transform="translate(553.515625 0)"/>
     <use xlink:href="#DejaVuSans-30" transform="translate(585.302734 0)"/>
     <use xlink:href="#DejaVuSans-20" transform="translate(648.925781 0)"/>
     <use xlink:href="#DejaVuSans-62" transform="translate(680.712891 0)"/>
     <use xlink:href="#DejaVuSans-61" transform="translate(744.189453 0)"/>
     <use xlink:href="#DejaVuSans-72" transform="translate(805.46875 0)"/>
     <use xlink:href="#DejaVuSans-63" transform="translate(844.332031 0)"/>
     <use xlink:href="#DejaVuSans-6f" transform="translate(899.3125 0)"/>
     <use xlink:href="#DejaVuSans-64" transform="translate(960.494141 0)"/>
     <use xlink:href="#DejaVuSans-65" transform="translate(1023.970703 0)"/>
     <use xlink:href="#DejaVuSans-73" transform="translate(1085.494141 0)"/>
     <use xlink:href="#DejaVuSans-3a" transform="translate(1137.59375 0)"/>
     <use xlink:href="#DejaVuSans-20" transform="translate(1171.285156 0)"/>
     <use xlink:href="#DejaVuSans-31" transform="translate(1203.072266 0)"/>
     <use xlink:href="#DejaVuSans-30" transform="translate(1266.695312 0)"/>
     <use xlink:href="#DejaVuSans-2e" transform="translate(1330.318359 0)"/>
     <use xlink:href="#DejaVuSans-30" transform="translate(1362.105469 0)"/>
     <use xlink:href="#DejaVuSans-38" transform="translate(1425.728516 0)"/>
     <use xlink:href="#DejaVuSans-25" transform="translate(1489.351562 0)"/>
    </g>
   </g>
   <g id="text_14">
    <!-- cCREs with fewer than 10 barcodes: 54.20% -->
    <g style="fill: #3d9f95" transform="translate(279.751108 195.008056) scale(0.1 -0.1)">
     <defs>
      <path id="DejaVuSans-66" d="M 2375 4863 
L 2375 4384 
L 1825 4384 
Q 1516 4384 1395 4259 
Q 1275 4134 1275 3809 
L 1275 3500 
L 2222 3500 
L 2222 3053 
L 1275 3053 
L 1275 0 
L 697 0 
L 697 3053 
L 147 3053 
L 147 3500 
L 697 3500 
L 697 3744 
Q 697 4328 969 4595 
Q 1241 4863 1831 4863 
L 2375 4863 
z
" transform="scale(0.015625)"/>
      <path id="DejaVuSans-6e" d="M 3513 2113 
L 3513 0 
L 2938 0 
L 2938 2094 
Q 2938 2591 2744 2837 
Q 2550 3084 2163 3084 
Q 1697 3084 1428 2787 
Q 1159 2491 1159 1978 
L 1159 0 
L 581 0 
L 581 3500 
L 1159 3500 
L 1159 2956 
Q 1366 3272 1645 3428 
Q 1925 3584 2291 3584 
Q 2894 3584 3203 3211 
Q 3513 2838 3513 2113 
z
" transform="scale(0.015625)"/>
      <path id="DejaVuSans-35" d="M 691 4666 
L 3169 4666 
L 3169 4134 
L 1269 4134 
L 1269 2991 
Q 1406 3038 1543 3061 
Q 1681 3084 1819 3084 
Q 2600 3084 3056 2656 
Q 3513 2228 3513 1497 
Q 3513 744 3044 326 
Q 2575 -91 1722 -91 
Q 1428 -91 1123 -41 
Q 819 9 494 109 
L 494 744 
Q 775 591 1075 516 
Q 1375 441 1709 441 
Q 2250 441 2565 725 
Q 2881 1009 2881 1497 
Q 2881 1984 2565 2268 
Q 2250 2553 1709 2553 
Q 1456 2553 1204 2497 
Q 953 2441 691 2322 
L 691 4666 
z
" transform="scale(0.015625)"/>
     </defs>
     <use xlink:href="#DejaVuSans-63"/>
     <use xlink:href="#DejaVuSans-43" transform="translate(54.980469 0)"/>
     <use xlink:href="#DejaVuSans-52" transform="translate(124.804688 0)"/>
     <use xlink:href="#DejaVuSans-45" transform="translate(194.287109 0)"/>
     <use xlink:href="#DejaVuSans-73" transform="translate(257.470703 0)"/>
     <use xlink:href="#DejaVuSans-20" transform="translate(309.570312 0)"/>
     <use xlink:href="#DejaVuSans-77" transform="translate(341.357422 0)"/>
     <use xlink:href="#DejaVuSans-69" transform="translate(423.144531 0)"/>
     <use xlink:href="#DejaVuSans-74" transform="translate(450.927734 0)"/>
     <use xlink:href="#DejaVuSans-68" transform="translate(490.136719 0)"/>
     <use xlink:href="#DejaVuSans-20" transform="translate(553.515625 0)"/>
     <use xlink:href="#DejaVuSans-66" transform="translate(585.302734 0)"/>
     <use xlink:href="#DejaVuSans-65" transform="translate(620.507812 0)"/>
     <use xlink:href="#DejaVuSans-77" transform="translate(682.03125 0)"/>
     <use xlink:href="#DejaVuSans-65" transform="translate(763.818359 0)"/>
     <use xlink:href="#DejaVuSans-72" transform="translate(825.341797 0)"/>
     <use xlink:href="#DejaVuSans-20" transform="translate(866.455078 0)"/>
     <use xlink:href="#DejaVuSans-74" transform="translate(898.242188 0)"/>
     <use xlink:href="#DejaVuSans-68" transform="translate(937.451172 0)"/>
     <use xlink:href="#DejaVuSans-61" transform="translate(1000.830078 0)"/>
     <use xlink:href="#DejaVuSans-6e" transform="translate(1062.109375 0)"/>
     <use xlink:href="#DejaVuSans-20" transform="translate(1125.488281 0)"/>
     <use xlink:href="#DejaVuSans-31" transform="translate(1157.275391 0)"/>
     <use xlink:href="#DejaVuSans-30" transform="translate(1220.898438 0)"/>
     <use xlink:href="#DejaVuSans-20" transform="translate(1284.521484 0)"/>
     <use xlink:href="#DejaVuSans-62" transform="translate(1316.308594 0)"/>
     <use xlink:href="#DejaVuSans-61" transform="translate(1379.785156 0)"/>
     <use xlink:href="#DejaVuSans-72" transform="translate(1441.064453 0)"/>
     <use xlink:href="#DejaVuSans-63" transform="translate(1479.927734 0)"/>
     <use xlink:href="#DejaVuSans-6f" transform="translate(1534.908203 0)"/>
     <use xlink:href="#DejaVuSans-64" transform="translate(1596.089844 0)"/>
     <use xlink:href="#DejaVuSans-65" transform="translate(1659.566406 0)"/>
     <use xlink:href="#DejaVuSans-73" transform="translate(1721.089844 0)"/>
     <use xlink:href="#DejaVuSans-3a" transform="translate(1773.189453 0)"/>
     <use xlink:href="#DejaVuSans-20" transform="translate(1806.880859 0)"/>
     <use xlink:href="#DejaVuSans-35" transform="translate(1838.667969 0)"/>
     <use xlink:href="#DejaVuSans-34" transform="translate(1902.291016 0)"/>
     <use xlink:href="#DejaVuSans-2e" transform="translate(1965.914062 0)"/>
     <use xlink:href="#DejaVuSans-32" transform="translate(1997.701172 0)"/>
     <use xlink:href="#DejaVuSans-30" transform="translate(2061.324219 0)"/>
     <use xlink:href="#DejaVuSans-25" transform="translate(2124.947266 0)"/>
    </g>
   </g>
   <g id="text_15">
    <!-- Median number of barcodes: 8 -->
    <g style="fill: #227c9d" transform="translate(118.177814 213.622594) scale(0.1 -0.1)">
     <defs>
      <path id="DejaVuSans-4d" d="M 628 4666 
L 1569 4666 
L 2759 1491 
L 3956 4666 
L 4897 4666 
L 4897 0 
L 4281 0 
L 4281 4097 
L 3078 897 
L 2444 897 
L 1241 4097 
L 1241 0 
L 628 0 
L 628 4666 
z
" transform="scale(0.015625)"/>
      <path id="DejaVuSans-75" d="M 544 1381 
L 544 3500 
L 1119 3500 
L 1119 1403 
Q 1119 906 1312 657 
Q 1506 409 1894 409 
Q 2359 409 2629 706 
Q 2900 1003 2900 1516 
L 2900 3500 
L 3475 3500 
L 3475 0 
L 2900 0 
L 2900 538 
Q 2691 219 2414 64 
Q 2138 -91 1772 -91 
Q 1169 -91 856 284 
Q 544 659 544 1381 
z
M 1991 3584 
L 1991 3584 
z
" transform="scale(0.015625)"/>
      <path id="DejaVuSans-6d" d="M 3328 2828 
Q 3544 3216 3844 3400 
Q 4144 3584 4550 3584 
Q 5097 3584 5394 3201 
Q 5691 2819 5691 2113 
L 5691 0 
L 5113 0 
L 5113 2094 
Q 5113 2597 4934 2840 
Q 4756 3084 4391 3084 
Q 3944 3084 3684 2787 
Q 3425 2491 3425 1978 
L 3425 0 
L 2847 0 
L 2847 2094 
Q 2847 2600 2669 2842 
Q 2491 3084 2119 3084 
Q 1678 3084 1418 2786 
Q 1159 2488 1159 1978 
L 1159 0 
L 581 0 
L 581 3500 
L 1159 3500 
L 1159 2956 
Q 1356 3278 1631 3431 
Q 1906 3584 2284 3584 
Q 2666 3584 2933 3390 
Q 3200 3197 3328 2828 
z
" transform="scale(0.015625)"/>
     </defs>
     <use xlink:href="#DejaVuSans-4d"/>
     <use xlink:href="#DejaVuSans-65" transform="translate(86.279297 0)"/>
     <use xlink:href="#DejaVuSans-64" transform="translate(147.802734 0)"/>
     <use xlink:href="#DejaVuSans-69" transform="translate(211.279297 0)"/>
     <use xlink:href="#DejaVuSans-61" transform="translate(239.0625 0)"/>
     <use xlink:href="#DejaVuSans-6e" transform="translate(300.341797 0)"/>
     <use xlink:href="#DejaVuSans-20" transform="translate(363.720703 0)"/>
     <use xlink:href="#DejaVuSans-6e" transform="translate(395.507812 0)"/>
     <use xlink:href="#DejaVuSans-75" transform="translate(458.886719 0)"/>
     <use xlink:href="#DejaVuSans-6d" transform="translate(522.265625 0)"/>
     <use xlink:href="#DejaVuSans-62" transform="translate(619.677734 0)"/>
     <use xlink:href="#DejaVuSans-65" transform="translate(683.154297 0)"/>
     <use xlink:href="#DejaVuSans-72" transform="translate(744.677734 0)"/>
     <use xlink:href="#DejaVuSans-20" transform="translate(785.791016 0)"/>
     <use xlink:href="#DejaVuSans-6f" transform="translate(817.578125 0)"/>
     <use xlink:href="#DejaVuSans-66" transform="translate(878.759766 0)"/>
     <use xlink:href="#DejaVuSans-20" transform="translate(913.964844 0)"/>
     <use xlink:href="#DejaVuSans-62" transform="translate(945.751953 0)"/>
     <use xlink:href="#DejaVuSans-61" transform="translate(1009.228516 0)"/>
     <use xlink:href="#DejaVuSans-72" transform="translate(1070.507812 0)"/>
     <use xlink:href="#DejaVuSans-63" transform="translate(1109.371094 0)"/>
     <use xlink:href="#DejaVuSans-6f" transform="translate(1164.351562 0)"/>
     <use xlink:href="#DejaVuSans-64" transform="translate(1225.533203 0)"/>
     <use xlink:href="#DejaVuSans-65" transform="translate(1289.009766 0)"/>
     <use xlink:href="#DejaVuSans-73" transform="translate(1350.533203 0)"/>
     <use xlink:href="#DejaVuSans-3a" transform="translate(1402.632812 0)"/>
     <use xlink:href="#DejaVuSans-20" transform="translate(1436.324219 0)"/>
     <use xlink:href="#DejaVuSans-38" transform="translate(1468.111328 0)"/>
    </g>
   </g>
   <g id="text_16">
    <!-- Average number of barcodes: 20 -->
    <g style="fill: #227c9d" transform="translate(131.058413 169.270594) scale(0.1 -0.1)">
     <defs>
      <path id="DejaVuSans-41" d="M 2188 4044 
L 1331 1722 
L 3047 1722 
L 2188 4044 
z
M 1831 4666 
L 2547 4666 
L 4325 0 
L 3669 0 
L 3244 1197 
L 1141 1197 
L 716 0 
L 50 0 
L 1831 4666 
z
" transform="scale(0.015625)"/>
      <path id="DejaVuSans-76" d="M 191 3500 
L 800 3500 
L 1894 563 
L 2988 3500 
L 3597 3500 
L 2284 0 
L 1503 0 
L 191 3500 
z
" transform="scale(0.015625)"/>
      <path id="DejaVuSans-67" d="M 2906 1791 
Q 2906 2416 2648 2759 
Q 2391 3103 1925 3103 
Q 1463 3103 1205 2759 
Q 947 2416 947 1791 
Q 947 1169 1205 825 
Q 1463 481 1925 481 
Q 2391 481 2648 825 
Q 2906 1169 2906 1791 
z
M 3481 434 
Q 3481 -459 3084 -895 
Q 2688 -1331 1869 -1331 
Q 1566 -1331 1297 -1286 
Q 1028 -1241 775 -1147 
L 775 -588 
Q 1028 -725 1275 -790 
Q 1522 -856 1778 -856 
Q 2344 -856 2625 -561 
Q 2906 -266 2906 331 
L 2906 616 
Q 2728 306 2450 153 
Q 2172 0 1784 0 
Q 1141 0 747 490 
Q 353 981 353 1791 
Q 353 2603 747 3093 
Q 1141 3584 1784 3584 
Q 2172 3584 2450 3431 
Q 2728 3278 2906 2969 
L 2906 3500 
L 3481 3500 
L 3481 434 
z
" transform="scale(0.015625)"/>
     </defs>
     <use xlink:href="#DejaVuSans-41"/>
     <use xlink:href="#DejaVuSans-76" transform="translate(62.533203 0)"/>
     <use xlink:href="#DejaVuSans-65" transform="translate(121.712891 0)"/>
     <use xlink:href="#DejaVuSans-72" transform="translate(183.236328 0)"/>
     <use xlink:href="#DejaVuSans-61" transform="translate(224.349609 0)"/>
     <use xlink:href="#DejaVuSans-67" transform="translate(285.628906 0)"/>
     <use xlink:href="#DejaVuSans-65" transform="translate(349.105469 0)"/>
     <use xlink:href="#DejaVuSans-20" transform="translate(410.628906 0)"/>
     <use xlink:href="#DejaVuSans-6e" transform="translate(442.416016 0)"/>
     <use xlink:href="#DejaVuSans-75" transform="translate(505.794922 0)"/>
     <use xlink:href="#DejaVuSans-6d" transform="translate(569.173828 0)"/>
     <use xlink:href="#DejaVuSans-62" transform="translate(666.585938 0)"/>
     <use xlink:href="#DejaVuSans-65" transform="translate(730.0625 0)"/>
     <use xlink:href="#DejaVuSans-72" transform="translate(791.585938 0)"/>
     <use xlink:href="#DejaVuSans-20" transform="translate(832.699219 0)"/>
     <use xlink:href="#DejaVuSans-6f" transform="translate(864.486328 0)"/>
     <use xlink:href="#DejaVuSans-66" transform="translate(925.667969 0)"/>
     <use xlink:href="#DejaVuSans-20" transform="translate(960.873047 0)"/>
     <use xlink:href="#DejaVuSans-62" transform="translate(992.660156 0)"/>
     <use xlink:href="#DejaVuSans-61" transform="translate(1056.136719 0)"/>
     <use xlink:href="#DejaVuSans-72" transform="translate(1117.416016 0)"/>
     <use xlink:href="#DejaVuSans-63" transform="translate(1156.279297 0)"/>
     <use xlink:href="#DejaVuSans-6f" transform="translate(1211.259766 0)"/>
     <use xlink:href="#DejaVuSans-64" transform="translate(1272.441406 0)"/>
     <use xlink:href="#DejaVuSans-65" transform="translate(1335.917969 0)"/>
     <use xlink:href="#DejaVuSans-73" transform="translate(1397.441406 0)"/>
     <use xlink:href="#DejaVuSans-3a" transform="translate(1449.541016 0)"/>
     <use xlink:href="#DejaVuSans-20" transform="translate(1483.232422 0)"/>
     <use xlink:href="#DejaVuSans-32" transform="translate(1515.019531 0)"/>
     <use xlink:href="#DejaVuSans-30" transform="translate(1578.642578 0)"/>
    </g>
   </g>
  </g>
 </g>
 <defs>
  <clipPath id="pd62c69b42a">
   <rect x="89.016563" y="14.038594" width="446.4" height="443.52"/>
  </clipPath>
 </defs>
</svg>
