<?xml version="1.0" encoding="utf-8" standalone="no"?>
<!DOCTYPE svg PUBLIC "-//W3C//DTD SVG 1.1//EN"
  "http://www.w3.org/Graphics/SVG/1.1/DTD/svg11.dtd">
<svg xmlns:xlink="http://www.w3.org/1999/xlink" width="542.616562pt" height="512.535469pt" viewBox="0 0 542.616562 512.535469" xmlns="http://www.w3.org/2000/svg" version="1.1">
 <metadata>
  <rdf:RDF xmlns:dc="http://purl.org/dc/elements/1.1/" xmlns:cc="http://creativecommons.org/ns#" xmlns:rdf="http://www.w3.org/1999/02/22-rdf-syntax-ns#">
   <cc:Work>
    <dc:type rdf:resource="http://purl.org/dc/dcmitype/StillImage"/>
    <dc:date>2025-12-16T16:17:17.564066</dc:date>
    <dc:format>image/svg+xml</dc:format>
    <dc:creator>
     <cc:Agent>
      <dc:title>Matplotlib v3.10.6, https://matplotlib.org/</dc:title>
     </cc:Agent>
    </dc:creator>
   </cc:Work>
  </rdf:RDF>
 </metadata>
 <defs>
  <style type="text/css">*{stroke-linejoin: round; stroke-linecap: butt}</style>
 </defs>
 <g id="figure_1">
  <g id="patch_1">
   <path d="M 0 512.535469 
L 542.616562 512.535469 
L 542.616562 0 
L 0 0 
L 0 512.535469 
z
" style="fill: none"/>
  </g>
  <g id="axes_1">
   <g id="patch_2">
    <path d="M 89.016563 457.558594 
L 535.416562 457.558594 
L 535.416562 14.038594 
L 89.016563 14.038594 
L 89.016563 457.558594 
z
" style="fill: none"/>
   </g>
   <g id="matplotlib.axis_1">
    <g id="xtick_1">
     <g id="line2d_1">
      <defs>
       <path id="m656911bf1f" d="M 0 0 
L 0 3.5 
" style="stroke: #000000; stroke-width: 0.8"/>
      </defs>
      <g>
       <use xlink:href="#m656911bf1f" x="109.307472" y="457.558594" style="stroke: #000000; stroke-width: 0.8"/>
      </g>
     </g>
     <g id="text_1">
      <!-- 0 -->
      <g transform="translate(103.581222 478.235781) scale(0.18 -0.18)">
       <defs>
        <path id="DejaVuSans-30" d="M 2034 4250 
Q 1547 4250 1301 3770 
Q 1056 3291 1056 2328 
Q 1056 1369 1301 889 
Q 1547 409 2034 409 
Q 2525 409 2770 889 
Q 3016 1369 3016 2328 
Q 3016 3291 2770 3770 
Q 2525 4250 2034 4250 
z
M 2034 4750 
Q 2819 4750 3233 4129 
Q 3647 3509 3647 2328 
Q 3647 1150 3233 529 
Q 2819 -91 2034 -91 
Q 1250 -91 836 529 
Q 422 1150 422 2328 
Q 422 3509 836 4129 
Q 1250 4750 2034 4750 
z
" transform="scale(0.015625)"/>
       </defs>
       <use xlink:href="#DejaVuSans-30"/>
      </g>
     </g>
    </g>
    <g id="xtick_2">
     <g id="line2d_2">
      <g>
       <use xlink:href="#m656911bf1f" x="166.344461" y="457.558594" style="stroke: #000000; stroke-width: 0.8"/>
      </g>
     </g>
     <g id="text_2">
      <!-- 200 -->
      <g transform="translate(149.165711 478.235781) scale(0.18 -0.18)">
       <defs>
        <path id="DejaVuSans-32" d="M 1228 531 
L 3431 531 
L 3431 0 
L 469 0 
L 469 531 
Q 828 903 1448 1529 
Q 2069 2156 2228 2338 
Q 2531 2678 2651 2914 
Q 2772 3150 2772 3378 
Q 2772 3750 2511 3984 
Q 2250 4219 1831 4219 
Q 1534 4219 1204 4116 
Q 875 4013 500 3803 
L 500 4441 
Q 881 4594 1212 4672 
Q 1544 4750 1819 4750 
Q 2544 4750 2975 4387 
Q 3406 4025 3406 3419 
Q 3406 3131 3298 2873 
Q 3191 2616 2906 2266 
Q 2828 2175 2409 1742 
Q 1991 1309 1228 531 
z
" transform="scale(0.015625)"/>
       </defs>
       <use xlink:href="#DejaVuSans-32"/>
       <use xlink:href="#DejaVuSans-30" transform="translate(63.623047 0)"/>
       <use xlink:href="#DejaVuSans-30" transform="translate(127.246094 0)"/>
      </g>
     </g>
    </g>
    <g id="xtick_3">
     <g id="line2d_3">
      <g>
       <use xlink:href="#m656911bf1f" x="223.381451" y="457.558594" style="stroke: #000000; stroke-width: 0.8"/>
      </g>
     </g>
     <g id="text_3">
      <!-- 400 -->
      <g transform="translate(206.202701 478.235781) scale(0.18 -0.18)">
       <defs>
        <path id="DejaVuSans-34" d="M 2419 4116 
L 825 1625 
L 2419 1625 
L 2419 4116 
z
M 2253 4666 
L 3047 4666 
L 3047 1625 
L 3713 1625 
L 3713 1100 
L 3047 1100 
L 3047 0 
L 2419 0 
L 2419 1100 
L 313 1100 
L 313 1709 
L 2253 4666 
z
" transform="scale(0.015625)"/>
       </defs>
       <use xlink:href="#DejaVuSans-34"/>
       <use xlink:href="#DejaVuSans-30" transform="translate(63.623047 0)"/>
       <use xlink:href="#DejaVuSans-30" transform="translate(127.246094 0)"/>
      </g>
     </g>
    </g>
    <g id="xtick_4">
     <g id="line2d_4">
      <g>
       <use xlink:href="#m656911bf1f" x="280.418441" y="457.558594" style="stroke: #000000; stroke-width: 0.8"/>
      </g>
     </g>
     <g id="text_4">
      <!-- 600 -->
      <g transform="translate(263.239691 478.235781) scale(0.18 -0.18)">
       <defs>
        <path id="DejaVuSans-36" d="M 2113 2584 
Q 1688 2584 1439 2293 
Q 1191 2003 1191 1497 
Q 1191 994 1439 701 
Q 1688 409 2113 409 
Q 2538 409 2786 701 
Q 3034 994 3034 1497 
Q 3034 2003 2786 2293 
Q 2538 2584 2113 2584 
z
M 3366 4563 
L 3366 3988 
Q 3128 4100 2886 4159 
Q 2644 4219 2406 4219 
Q 1781 4219 1451 3797 
Q 1122 3375 1075 2522 
Q 1259 2794 1537 2939 
Q 1816 3084 2150 3084 
Q 2853 3084 3261 2657 
Q 3669 2231 3669 1497 
Q 3669 778 3244 343 
Q 2819 -91 2113 -91 
Q 1303 -91 875 529 
Q 447 1150 447 2328 
Q 447 3434 972 4092 
Q 1497 4750 2381 4750 
Q 2619 4750 2861 4703 
Q 3103 4656 3366 4563 
z
" transform="scale(0.015625)"/>
       </defs>
       <use xlink:href="#DejaVuSans-36"/>
       <use xlink:href="#DejaVuSans-30" transform="translate(63.623047 0)"/>
       <use xlink:href="#DejaVuSans-30" transform="translate(127.246094 0)"/>
      </g>
     </g>
    </g>
    <g id="xtick_5">
     <g id="line2d_5">
      <g>
       <use xlink:href="#m656911bf1f" x="337.45543" y="457.558594" style="stroke: #000000; stroke-width: 0.8"/>
      </g>
     </g>
     <g id="text_5">
      <!-- 800 -->
      <g transform="translate(320.27668 478.235781) scale(0.18 -0.18)">
       <defs>
        <path id="DejaVuSans-38" d="M 2034 2216 
Q 1584 2216 1326 1975 
Q 1069 1734 1069 1313 
Q 1069 891 1326 650 
Q 1584 409 2034 409 
Q 2484 409 2743 651 
Q 3003 894 3003 1313 
Q 3003 1734 2745 1975 
Q 2488 2216 2034 2216 
z
M 1403 2484 
Q 997 2584 770 2862 
Q 544 3141 544 3541 
Q 544 4100 942 4425 
Q 1341 4750 2034 4750 
Q 2731 4750 3128 4425 
Q 3525 4100 3525 3541 
Q 3525 3141 3298 2862 
Q 3072 2584 2669 2484 
Q 3125 2378 3379 2068 
Q 3634 1759 3634 1313 
Q 3634 634 3220 271 
Q 2806 -91 2034 -91 
Q 1263 -91 848 271 
Q 434 634 434 1313 
Q 434 1759 690 2068 
Q 947 2378 1403 2484 
z
M 1172 3481 
Q 1172 3119 1398 2916 
Q 1625 2713 2034 2713 
Q 2441 2713 2670 2916 
Q 2900 3119 2900 3481 
Q 2900 3844 2670 4047 
Q 2441 4250 2034 4250 
Q 1625 4250 1398 4047 
Q 1172 3844 1172 3481 
z
" transform="scale(0.015625)"/>
       </defs>
       <use xlink:href="#DejaVuSans-38"/>
       <use xlink:href="#DejaVuSans-30" transform="translate(63.623047 0)"/>
       <use xlink:href="#DejaVuSans-30" transform="translate(127.246094 0)"/>
      </g>
     </g>
    </g>
    <g id="xtick_6">
     <g id="line2d_6">
      <g>
       <use xlink:href="#m656911bf1f" x="394.49242" y="457.558594" style="stroke: #000000; stroke-width: 0.8"/>
      </g>
     </g>
     <g id="text_6">
      <!-- 1000 -->
      <g transform="translate(371.58742 478.235781) scale(0.18 -0.18)">
       <defs>
        <path id="DejaVuSans-31" d="M 794 531 
L 1825 531 
L 1825 4091 
L 703 3866 
L 703 4441 
L 1819 4666 
L 2450 4666 
L 2450 531 
L 3481 531 
L 3481 0 
L 794 0 
L 794 531 
z
" transform="scale(0.015625)"/>
       </defs>
       <use xlink:href="#DejaVuSans-31"/>
       <use xlink:href="#DejaVuSans-30" transform="translate(63.623047 0)"/>
       <use xlink:href="#DejaVuSans-30" transform="translate(127.246094 0)"/>
       <use xlink:href="#DejaVuSans-30" transform="translate(190.869141 0)"/>
      </g>
     </g>
    </g>
    <g id="xtick_7">
     <g id="line2d_7">
      <g>
       <use xlink:href="#m656911bf1f" x="451.52941" y="457.558594" style="stroke: #000000; stroke-width: 0.8"/>
      </g>
     </g>
     <g id="text_7">
      <!-- 1200 -->
      <g transform="translate(428.62441 478.235781) scale(0.18 -0.18)">
       <use xlink:href="#DejaVuSans-31"/>
       <use xlink:href="#DejaVuSans-32" transform="translate(63.623047 0)"/>
       <use xlink:href="#DejaVuSans-30" transform="translate(127.246094 0)"/>
       <use xlink:href="#DejaVuSans-30" transform="translate(190.869141 0)"/>
      </g>
     </g>
    </g>
    <g id="xtick_8">
     <g id="line2d_8">
      <g>
       <use xlink:href="#m656911bf1f" x="508.5664" y="457.558594" style="stroke: #000000; stroke-width: 0.8"/>
      </g>
     </g>
     <g id="text_8">
      <!-- 1400 -->
      <g transform="translate(485.6614 478.235781) scale(0.18 -0.18)">
       <use xlink:href="#DejaVuSans-31"/>
       <use xlink:href="#DejaVuSans-34" transform="translate(63.623047 0)"/>
       <use xlink:href="#DejaVuSans-30" transform="translate(127.246094 0)"/>
       <use xlink:href="#DejaVuSans-30" transform="translate(190.869141 0)"/>
      </g>
     </g>
    </g>
    <g id="text_9">
     <!-- Barcode count -->
     <g transform="translate(230.879062 501.176094) scale(0.2 -0.2)">
      <defs>
       <path id="DejaVuSans-Bold-42" d="M 2456 2859 
Q 2741 2859 2887 2984 
Q 3034 3109 3034 3353 
Q 3034 3594 2887 3720 
Q 2741 3847 2456 3847 
L 1791 3847 
L 1791 2859 
L 2456 2859 
z
M 2497 819 
Q 2859 819 3042 972 
Q 3225 1125 3225 1434 
Q 3225 1738 3044 1889 
Q 2863 2041 2497 2041 
L 1791 2041 
L 1791 819 
L 2497 819 
z
M 3616 2497 
Q 4003 2384 4215 2081 
Q 4428 1778 4428 1338 
Q 4428 663 3972 331 
Q 3516 0 2584 0 
L 588 0 
L 588 4666 
L 2394 4666 
Q 3366 4666 3802 4372 
Q 4238 4078 4238 3431 
Q 4238 3091 4078 2852 
Q 3919 2613 3616 2497 
z
" transform="scale(0.015625)"/>
       <path id="DejaVuSans-Bold-61" d="M 2106 1575 
Q 1756 1575 1579 1456 
Q 1403 1338 1403 1106 
Q 1403 894 1545 773 
Q 1688 653 1941 653 
Q 2256 653 2472 879 
Q 2688 1106 2688 1447 
L 2688 1575 
L 2106 1575 
z
M 3816 1997 
L 3816 0 
L 2688 0 
L 2688 519 
Q 2463 200 2181 54 
Q 1900 -91 1497 -91 
Q 953 -91 614 226 
Q 275 544 275 1050 
Q 275 1666 698 1953 
Q 1122 2241 2028 2241 
L 2688 2241 
L 2688 2328 
Q 2688 2594 2478 2717 
Q 2269 2841 1825 2841 
Q 1466 2841 1156 2769 
Q 847 2697 581 2553 
L 581 3406 
Q 941 3494 1303 3539 
Q 1666 3584 2028 3584 
Q 2975 3584 3395 3211 
Q 3816 2838 3816 1997 
z
" transform="scale(0.015625)"/>
       <path id="DejaVuSans-Bold-72" d="M 3138 2547 
Q 2991 2616 2845 2648 
Q 2700 2681 2553 2681 
Q 2122 2681 1889 2404 
Q 1656 2128 1656 1613 
L 1656 0 
L 538 0 
L 538 3500 
L 1656 3500 
L 1656 2925 
Q 1872 3269 2151 3426 
Q 2431 3584 2822 3584 
Q 2878 3584 2943 3579 
Q 3009 3575 3134 3559 
L 3138 2547 
z
" transform="scale(0.015625)"/>
       <path id="DejaVuSans-Bold-63" d="M 3366 3391 
L 3366 2478 
Q 3138 2634 2908 2709 
Q 2678 2784 2431 2784 
Q 1963 2784 1702 2511 
Q 1441 2238 1441 1747 
Q 1441 1256 1702 982 
Q 1963 709 2431 709 
Q 2694 709 2930 787 
Q 3166 866 3366 1019 
L 3366 103 
Q 3103 6 2833 -42 
Q 2563 -91 2291 -91 
Q 1344 -91 809 395 
Q 275 881 275 1747 
Q 275 2613 809 3098 
Q 1344 3584 2291 3584 
Q 2566 3584 2833 3536 
Q 3100 3488 3366 3391 
z
" transform="scale(0.015625)"/>
       <path id="DejaVuSans-Bold-6f" d="M 2203 2784 
Q 1831 2784 1636 2517 
Q 1441 2250 1441 1747 
Q 1441 1244 1636 976 
Q 1831 709 2203 709 
Q 2569 709 2762 976 
Q 2956 1244 2956 1747 
Q 2956 2250 2762 2517 
Q 2569 2784 2203 2784 
z
M 2203 3584 
Q 3106 3584 3614 3096 
Q 4122 2609 4122 1747 
Q 4122 884 3614 396 
Q 3106 -91 2203 -91 
Q 1297 -91 786 396 
Q 275 884 275 1747 
Q 275 2609 786 3096 
Q 1297 3584 2203 3584 
z
" transform="scale(0.015625)"/>
       <path id="DejaVuSans-Bold-64" d="M 2919 2988 
L 2919 4863 
L 4044 4863 
L 4044 0 
L 2919 0 
L 2919 506 
Q 2688 197 2409 53 
Q 2131 -91 1766 -91 
Q 1119 -91 703 423 
Q 288 938 288 1747 
Q 288 2556 703 3070 
Q 1119 3584 1766 3584 
Q 2128 3584 2408 3439 
Q 2688 3294 2919 2988 
z
M 2181 722 
Q 2541 722 2730 984 
Q 2919 1247 2919 1747 
Q 2919 2247 2730 2509 
Q 2541 2772 2181 2772 
Q 1825 2772 1636 2509 
Q 1447 2247 1447 1747 
Q 1447 1247 1636 984 
Q 1825 722 2181 722 
z
" transform="scale(0.015625)"/>
       <path id="DejaVuSans-Bold-65" d="M 4031 1759 
L 4031 1441 
L 1416 1441 
Q 1456 1047 1700 850 
Q 1944 653 2381 653 
Q 2734 653 3104 758 
Q 3475 863 3866 1075 
L 3866 213 
Q 3469 63 3072 -14 
Q 2675 -91 2278 -91 
Q 1328 -91 801 392 
Q 275 875 275 1747 
Q 275 2603 792 3093 
Q 1309 3584 2216 3584 
Q 3041 3584 3536 3087 
Q 4031 2591 4031 1759 
z
M 2881 2131 
Q 2881 2450 2695 2645 
Q 2509 2841 2209 2841 
Q 1884 2841 1681 2658 
Q 1478 2475 1428 2131 
L 2881 2131 
z
" transform="scale(0.015625)"/>
       <path id="DejaVuSans-Bold-20" transform="scale(0.015625)"/>
       <path id="DejaVuSans-Bold-75" d="M 500 1363 
L 500 3500 
L 1625 3500 
L 1625 3150 
Q 1625 2866 1622 2436 
Q 1619 2006 1619 1863 
Q 1619 1441 1641 1255 
Q 1663 1069 1716 984 
Q 1784 875 1895 815 
Q 2006 756 2150 756 
Q 2500 756 2700 1025 
Q 2900 1294 2900 1772 
L 2900 3500 
L 4019 3500 
L 4019 0 
L 2900 0 
L 2900 506 
Q 2647 200 2364 54 
Q 2081 -91 1741 -91 
Q 1134 -91 817 281 
Q 500 653 500 1363 
z
" transform="scale(0.015625)"/>
       <path id="DejaVuSans-Bold-6e" d="M 4056 2131 
L 4056 0 
L 2931 0 
L 2931 347 
L 2931 1631 
Q 2931 2084 2911 2256 
Q 2891 2428 2841 2509 
Q 2775 2619 2662 2680 
Q 2550 2741 2406 2741 
Q 2056 2741 1856 2470 
Q 1656 2200 1656 1722 
L 1656 0 
L 538 0 
L 538 3500 
L 1656 3500 
L 1656 2988 
Q 1909 3294 2193 3439 
Q 2478 3584 2822 3584 
Q 3428 3584 3742 3212 
Q 4056 2841 4056 2131 
z
" transform="scale(0.015625)"/>
       <path id="DejaVuSans-Bold-74" d="M 1759 4494 
L 1759 3500 
L 2913 3500 
L 2913 2700 
L 1759 2700 
L 1759 1216 
Q 1759 972 1856 886 
Q 1953 800 2241 800 
L 2816 800 
L 2816 0 
L 1856 0 
Q 1194 0 917 276 
Q 641 553 641 1216 
L 641 2700 
L 84 2700 
L 84 3500 
L 641 3500 
L 641 4494 
L 1759 4494 
z
" transform="scale(0.015625)"/>
      </defs>
      <use xlink:href="#DejaVuSans-Bold-42"/>
      <use xlink:href="#DejaVuSans-Bold-61" transform="translate(76.220703 0)"/>
      <use xlink:href="#DejaVuSans-Bold-72" transform="translate(143.701172 0)"/>
      <use xlink:href="#DejaVuSans-Bold-63" transform="translate(193.017578 0)"/>
      <use xlink:href="#DejaVuSans-Bold-6f" transform="translate(252.294922 0)"/>
      <use xlink:href="#DejaVuSans-Bold-64" transform="translate(320.996094 0)"/>
      <use xlink:href="#DejaVuSans-Bold-65" transform="translate(392.578125 0)"/>
      <use xlink:href="#DejaVuSans-Bold-20" transform="translate(460.400391 0)"/>
      <use xlink:href="#DejaVuSans-Bold-63" transform="translate(495.214844 0)"/>
      <use xlink:href="#DejaVuSans-Bold-6f" transform="translate(554.492188 0)"/>
      <use xlink:href="#DejaVuSans-Bold-75" transform="translate(623.193359 0)"/>
      <use xlink:href="#DejaVuSans-Bold-6e" transform="translate(694.384766 0)"/>
      <use xlink:href="#DejaVuSans-Bold-74" transform="translate(765.576172 0)"/>
     </g>
    </g>
   </g>
   <g id="matplotlib.axis_2">
    <g id="ytick_1">
     <g id="line2d_9">
      <defs>
       <path id="m0bb6612ee2" d="M 0 0 
L -3.5 0 
" style="stroke: #000000; stroke-width: 0.8"/>
      </defs>
      <g>
       <use xlink:href="#m0bb6612ee2" x="89.016563" y="457.558594" style="stroke: #000000; stroke-width: 0.8"/>
      </g>
     </g>
     <g id="text_10">
      <!-- 0% -->
      <g transform="translate(53.46125 464.397187) scale(0.18 -0.18)">
       <defs>
        <path id="DejaVuSans-25" d="M 4653 2053 
Q 4381 2053 4226 1822 
Q 4072 1591 4072 1178 
Q 4072 772 4226 539 
Q 4381 306 4653 306 
Q 4919 306 5073 539 
Q 5228 772 5228 1178 
Q 5228 1588 5073 1820 
Q 4919 2053 4653 2053 
z
M 4653 2450 
Q 5147 2450 5437 2106 
Q 5728 1763 5728 1178 
Q 5728 594 5436 251 
Q 5144 -91 4653 -91 
Q 4153 -91 3862 251 
Q 3572 594 3572 1178 
Q 3572 1766 3864 2108 
Q 4156 2450 4653 2450 
z
M 1428 4353 
Q 1159 4353 1004 4120 
Q 850 3888 850 3481 
Q 850 3069 1003 2837 
Q 1156 2606 1428 2606 
Q 1700 2606 1854 2837 
Q 2009 3069 2009 3481 
Q 2009 3884 1853 4118 
Q 1697 4353 1428 4353 
z
M 4250 4750 
L 4750 4750 
L 1831 -91 
L 1331 -91 
L 4250 4750 
z
M 1428 4750 
Q 1922 4750 2215 4408 
Q 2509 4066 2509 3481 
Q 2509 2891 2217 2550 
Q 1925 2209 1428 2209 
Q 931 2209 642 2551 
Q 353 2894 353 3481 
Q 353 4063 643 4406 
Q 934 4750 1428 4750 
z
" transform="scale(0.015625)"/>
       </defs>
       <use xlink:href="#DejaVuSans-30"/>
       <use xlink:href="#DejaVuSans-25" transform="translate(63.623047 0)"/>
      </g>
     </g>
    </g>
    <g id="ytick_2">
     <g id="line2d_10">
      <g>
       <use xlink:href="#m0bb6612ee2" x="89.016563" y="368.854594" style="stroke: #000000; stroke-width: 0.8"/>
      </g>
     </g>
     <g id="text_11">
      <!-- 20% -->
      <g transform="translate(42.00875 375.693187) scale(0.18 -0.18)">
       <use xlink:href="#DejaVuSans-32"/>
       <use xlink:href="#DejaVuSans-30" transform="translate(63.623047 0)"/>
       <use xlink:href="#DejaVuSans-25" transform="translate(127.246094 0)"/>
      </g>
     </g>
    </g>
    <g id="ytick_3">
     <g id="line2d_11">
      <g>
       <use xlink:href="#m0bb6612ee2" x="89.016563" y="280.150594" style="stroke: #000000; stroke-width: 0.8"/>
      </g>
     </g>
     <g id="text_12">
      <!-- 40% -->
      <g transform="translate(42.00875 286.989187) scale(0.18 -0.18)">
       <use xlink:href="#DejaVuSans-34"/>
       <use xlink:href="#DejaVuSans-30" transform="translate(63.623047 0)"/>
       <use xlink:href="#DejaVuSans-25" transform="translate(127.246094 0)"/>
      </g>
     </g>
    </g>
    <g id="ytick_4">
     <g id="line2d_12">
      <g>
       <use xlink:href="#m0bb6612ee2" x="89.016563" y="191.446594" style="stroke: #000000; stroke-width: 0.8"/>
      </g>
     </g>
     <g id="text_13">
      <!-- 60% -->
      <g transform="translate(42.00875 198.285187) scale(0.18 -0.18)">
       <use xlink:href="#DejaVuSans-36"/>
       <use xlink:href="#DejaVuSans-30" transform="translate(63.623047 0)"/>
       <use xlink:href="#DejaVuSans-25" transform="translate(127.246094 0)"/>
      </g>
     </g>
    </g>
    <g id="ytick_5">
     <g id="line2d_13">
      <g>
       <use xlink:href="#m0bb6612ee2" x="89.016563" y="102.742594" style="stroke: #000000; stroke-width: 0.8"/>
      </g>
     </g>
     <g id="text_14">
      <!-- 80% -->
      <g transform="translate(42.00875 109.581187) scale(0.18 -0.18)">
       <use xlink:href="#DejaVuSans-38"/>
       <use xlink:href="#DejaVuSans-30" transform="translate(63.623047 0)"/>
       <use xlink:href="#DejaVuSans-25" transform="translate(127.246094 0)"/>
      </g>
     </g>
    </g>
    <g id="ytick_6">
     <g id="line2d_14">
      <g>
       <use xlink:href="#m0bb6612ee2" x="89.016563" y="14.038594" style="stroke: #000000; stroke-width: 0.8"/>
      </g>
     </g>
     <g id="text_15">
      <!-- 100% -->
      <g transform="translate(30.55625 20.877187) scale(0.18 -0.18)">
       <use xlink:href="#DejaVuSans-31"/>
       <use xlink:href="#DejaVuSans-30" transform="translate(63.623047 0)"/>
       <use xlink:href="#DejaVuSans-30" transform="translate(127.246094 0)"/>
       <use xlink:href="#DejaVuSans-25" transform="translate(190.869141 0)"/>
      </g>
     </g>
    </g>
    <g id="text_16">
     <!-- cCREs (%) -->
     <g transform="translate(22.396875 292.190781) rotate(-90) scale(0.2 -0.2)">
      <defs>
       <path id="DejaVuSans-Bold-43" d="M 4288 256 
Q 3956 84 3597 -3 
Q 3238 -91 2847 -91 
Q 1681 -91 1000 561 
Q 319 1213 319 2328 
Q 319 3447 1000 4098 
Q 1681 4750 2847 4750 
Q 3238 4750 3597 4662 
Q 3956 4575 4288 4403 
L 4288 3438 
Q 3953 3666 3628 3772 
Q 3303 3878 2944 3878 
Q 2300 3878 1931 3465 
Q 1563 3053 1563 2328 
Q 1563 1606 1931 1193 
Q 2300 781 2944 781 
Q 3303 781 3628 887 
Q 3953 994 4288 1222 
L 4288 256 
z
" transform="scale(0.015625)"/>
       <path id="DejaVuSans-Bold-52" d="M 2297 2597 
Q 2675 2597 2839 2737 
Q 3003 2878 3003 3200 
Q 3003 3519 2839 3656 
Q 2675 3794 2297 3794 
L 1791 3794 
L 1791 2597 
L 2297 2597 
z
M 1791 1766 
L 1791 0 
L 588 0 
L 588 4666 
L 2425 4666 
Q 3347 4666 3776 4356 
Q 4206 4047 4206 3378 
Q 4206 2916 3982 2619 
Q 3759 2322 3309 2181 
Q 3556 2125 3751 1926 
Q 3947 1728 4147 1325 
L 4800 0 
L 3519 0 
L 2950 1159 
Q 2778 1509 2601 1637 
Q 2425 1766 2131 1766 
L 1791 1766 
z
" transform="scale(0.015625)"/>
       <path id="DejaVuSans-Bold-45" d="M 588 4666 
L 3834 4666 
L 3834 3756 
L 1791 3756 
L 1791 2888 
L 3713 2888 
L 3713 1978 
L 1791 1978 
L 1791 909 
L 3903 909 
L 3903 0 
L 588 0 
L 588 4666 
z
" transform="scale(0.015625)"/>
       <path id="DejaVuSans-Bold-73" d="M 3272 3391 
L 3272 2541 
Q 2913 2691 2578 2766 
Q 2244 2841 1947 2841 
Q 1628 2841 1473 2761 
Q 1319 2681 1319 2516 
Q 1319 2381 1436 2309 
Q 1553 2238 1856 2203 
L 2053 2175 
Q 2913 2066 3209 1816 
Q 3506 1566 3506 1031 
Q 3506 472 3093 190 
Q 2681 -91 1863 -91 
Q 1516 -91 1145 -36 
Q 775 19 384 128 
L 384 978 
Q 719 816 1070 734 
Q 1422 653 1784 653 
Q 2113 653 2278 743 
Q 2444 834 2444 1013 
Q 2444 1163 2330 1236 
Q 2216 1309 1875 1350 
L 1678 1375 
Q 931 1469 631 1722 
Q 331 1975 331 2491 
Q 331 3047 712 3315 
Q 1094 3584 1881 3584 
Q 2191 3584 2531 3537 
Q 2872 3491 3272 3391 
z
" transform="scale(0.015625)"/>
       <path id="DejaVuSans-Bold-28" d="M 2413 -844 
L 1484 -844 
Q 1006 -72 778 623 
Q 550 1319 550 2003 
Q 550 2688 779 3389 
Q 1009 4091 1484 4856 
L 2413 4856 
Q 2013 4116 1813 3408 
Q 1613 2700 1613 2009 
Q 1613 1319 1811 609 
Q 2009 -100 2413 -844 
z
" transform="scale(0.015625)"/>
       <path id="DejaVuSans-Bold-25" d="M 4959 1925 
Q 4738 1925 4616 1733 
Q 4494 1541 4494 1184 
Q 4494 825 4614 633 
Q 4734 441 4959 441 
Q 5184 441 5303 633 
Q 5422 825 5422 1184 
Q 5422 1541 5301 1733 
Q 5181 1925 4959 1925 
z
M 4959 2450 
Q 5541 2450 5875 2112 
Q 6209 1775 6209 1184 
Q 6209 594 5875 251 
Q 5541 -91 4959 -91 
Q 4378 -91 4042 251 
Q 3706 594 3706 1184 
Q 3706 1772 4042 2111 
Q 4378 2450 4959 2450 
z
M 2094 -91 
L 1403 -91 
L 4319 4750 
L 5013 4750 
L 2094 -91 
z
M 1453 4750 
Q 2034 4750 2367 4411 
Q 2700 4072 2700 3481 
Q 2700 2891 2367 2550 
Q 2034 2209 1453 2209 
Q 872 2209 539 2550 
Q 206 2891 206 3481 
Q 206 4072 539 4411 
Q 872 4750 1453 4750 
z
M 1453 4225 
Q 1228 4225 1106 4031 
Q 984 3838 984 3481 
Q 984 3122 1106 2926 
Q 1228 2731 1453 2731 
Q 1678 2731 1798 2926 
Q 1919 3122 1919 3481 
Q 1919 3838 1797 4031 
Q 1675 4225 1453 4225 
z
" transform="scale(0.015625)"/>
       <path id="DejaVuSans-Bold-29" d="M 513 -844 
Q 913 -100 1113 609 
Q 1313 1319 1313 2009 
Q 1313 2700 1113 3408 
Q 913 4116 513 4856 
L 1441 4856 
Q 1916 4091 2145 3389 
Q 2375 2688 2375 2003 
Q 2375 1319 2147 623 
Q 1919 -72 1441 -844 
L 513 -844 
z
" transform="scale(0.015625)"/>
      </defs>
      <use xlink:href="#DejaVuSans-Bold-63"/>
      <use xlink:href="#DejaVuSans-Bold-43" transform="translate(59.277344 0)"/>
      <use xlink:href="#DejaVuSans-Bold-52" transform="translate(132.666016 0)"/>
      <use xlink:href="#DejaVuSans-Bold-45" transform="translate(209.667969 0)"/>
      <use xlink:href="#DejaVuSans-Bold-73" transform="translate(277.978516 0)"/>
      <use xlink:href="#DejaVuSans-Bold-20" transform="translate(337.5 0)"/>
      <use xlink:href="#DejaVuSans-Bold-28" transform="translate(372.314453 0)"/>
      <use xlink:href="#DejaVuSans-Bold-25" transform="translate(418.017578 0)"/>
      <use xlink:href="#DejaVuSans-Bold-29" transform="translate(518.212891 0)"/>
     </g>
    </g>
   </g>
   <g id="line2d_15">
    <path d="M 109.307472 457.558594 
L 109.307472 456.507652 
L 109.592657 456.507652 
L 109.592657 456.402558 
L 109.592657 456.072262 
L 109.877841 456.072262 
L 109.877841 455.967167 
L 109.877841 455.43419 
L 110.163026 455.43419 
L 110.163026 455.329096 
L 110.163026 455.013813 
L 110.448211 455.013813 
L 110.448211 454.908719 
L 110.448211 454.510862 
L 110.733396 454.510862 
L 110.733396 454.405768 
L 110.733396 454.037938 
L 111.018581 454.037938 
L 111.018581 453.932844 
L 111.018581 453.602548 
L 111.303766 453.602548 
L 111.303766 453.497454 
L 111.303766 453.054557 
L 111.588951 453.054557 
L 111.588951 452.949463 
L 111.588951 452.378952 
L 111.874136 452.378952 
L 111.874136 452.273857 
L 111.874136 451.906028 
L 112.159321 451.906028 
L 112.159321 451.800934 
L 112.159321 451.365543 
L 112.444506 451.365543 
L 112.444506 451.260449 
L 112.444506 450.749992 
L 112.729691 450.749992 
L 112.729691 450.644897 
L 112.729691 450.17948 
L 113.014876 450.17948 
L 113.014876 450.074386 
L 113.014876 449.556422 
L 113.300061 449.556422 
L 113.300061 449.451328 
L 113.300061 449.015937 
L 113.585246 449.015937 
L 113.585246 448.910843 
L 113.585246 448.558027 
L 113.870431 448.558027 
L 113.870431 448.452933 
L 113.870431 447.957489 
L 114.155616 447.957489 
L 114.155616 447.852395 
L 114.155616 447.417004 
L 114.440801 447.417004 
L 114.440801 447.31191 
L 114.440801 446.793946 
L 114.725986 446.793946 
L 114.725986 446.688852 
L 114.725986 446.09582 
L 115.011171 446.09582 
L 115.011171 445.990726 
L 115.011171 445.570349 
L 115.296356 445.570349 
L 115.296356 445.465255 
L 115.296356 445.007345 
L 115.58154 445.007345 
L 115.58154 444.902251 
L 115.58154 444.429327 
L 115.866725 444.429327 
L 115.866725 444.324233 
L 115.866725 443.98643 
L 116.15191 443.98643 
L 116.15191 443.881336 
L 116.15191 443.498493 
L 116.437095 443.498493 
L 116.437095 443.393398 
L 116.437095 442.867927 
L 116.72228 442.867927 
L 116.72228 442.762833 
L 116.72228 442.342456 
L 117.007465 442.342456 
L 117.007465 442.237362 
L 117.007465 441.839506 
L 117.29265 441.839506 
L 117.29265 441.734411 
L 117.29265 441.314035 
L 117.577835 441.314035 
L 117.577835 441.208941 
L 117.577835 440.788564 
L 117.86302 440.788564 
L 117.86302 440.68347 
L 117.86302 440.36068 
L 118.148205 440.36068 
L 118.148205 440.255586 
L 118.148205 439.767649 
L 118.43339 439.767649 
L 118.43339 439.662555 
L 118.43339 439.14459 
L 118.718575 439.14459 
L 118.718575 439.039496 
L 118.718575 438.649146 
L 119.00376 438.649146 
L 119.00376 438.544052 
L 119.00376 438.198743 
L 119.288945 438.198743 
L 119.288945 438.093649 
L 119.288945 437.49311 
L 119.57413 437.49311 
L 119.57413 437.388016 
L 119.57413 436.915092 
L 119.859315 436.915092 
L 119.859315 436.809998 
L 119.859315 436.299541 
L 120.1445 436.299541 
L 120.1445 436.194446 
L 120.1445 435.714016 
L 120.429685 435.714016 
L 120.429685 435.608922 
L 120.429685 435.173531 
L 120.71487 435.173531 
L 120.71487 435.068437 
L 120.71487 434.572993 
L 121.000054 434.572993 
L 121.000054 434.467899 
L 121.000054 433.957441 
L 121.285239 433.957441 
L 121.285239 433.852347 
L 121.285239 433.469504 
L 121.570424 433.469504 
L 121.570424 433.36441 
L 121.570424 432.838939 
L 121.855609 432.838939 
L 121.855609 432.733845 
L 121.855609 432.1258 
L 122.140794 432.1258 
L 122.140794 432.020706 
L 122.140794 431.457701 
L 122.425979 431.457701 
L 122.425979 431.352607 
L 122.425979 430.827136 
L 122.711164 430.827136 
L 122.711164 430.722042 
L 122.711164 430.121504 
L 122.996349 430.121504 
L 122.996349 430.016409 
L 122.996349 429.318284 
L 123.281534 429.318284 
L 123.281534 429.213189 
L 123.281534 428.417476 
L 123.566719 428.417476 
L 123.566719 428.312382 
L 123.566719 427.576723 
L 123.851904 427.576723 
L 123.851904 427.471629 
L 123.851904 426.931144 
L 124.137089 426.931144 
L 124.137089 426.82605 
L 124.137089 426.135431 
L 124.422274 426.135431 
L 124.422274 426.030337 
L 124.422274 425.249637 
L 124.707459 425.249637 
L 124.707459 425.144543 
L 124.707459 424.34883 
L 124.992644 424.34883 
L 124.992644 424.243736 
L 124.992644 423.463036 
L 125.277829 423.463036 
L 125.277829 423.357942 
L 125.277829 422.569735 
L 125.563014 422.569735 
L 125.563014 422.464641 
L 125.563014 421.774022 
L 125.848199 421.774022 
L 125.848199 421.668928 
L 125.848199 420.918255 
L 126.133384 420.918255 
L 126.133384 420.813161 
L 126.133384 420.039968 
L 126.418569 420.039968 
L 126.418569 419.934874 
L 126.418569 419.131654 
L 126.703753 419.131654 
L 126.703753 419.02656 
L 126.703753 418.133259 
L 126.988938 418.133259 
L 126.988938 418.028165 
L 126.988938 417.202425 
L 127.274123 417.202425 
L 127.274123 417.097331 
L 127.274123 416.354165 
L 127.559308 416.354165 
L 127.559308 416.249071 
L 127.559308 415.453357 
L 127.844493 415.453357 
L 127.844493 415.348263 
L 127.844493 414.50751 
L 128.129678 414.50751 
L 128.129678 414.402415 
L 128.129678 413.486595 
L 128.414863 413.486595 
L 128.414863 413.381501 
L 128.414863 412.420639 
L 128.700048 412.420639 
L 128.700048 412.315545 
L 128.700048 411.452271 
L 128.985233 411.452271 
L 128.985233 411.347177 
L 128.985233 410.318756 
L 129.270418 410.318756 
L 129.270418 410.213661 
L 129.270418 409.155213 
L 129.555603 409.155213 
L 129.555603 409.050119 
L 129.555603 407.864056 
L 129.840788 407.864056 
L 129.840788 407.758961 
L 129.840788 406.723033 
L 130.125973 406.723033 
L 130.125973 406.617939 
L 130.125973 405.484423 
L 130.411158 405.484423 
L 130.411158 405.379329 
L 130.411158 404.29836 
L 130.696343 404.29836 
L 130.696343 404.193266 
L 130.696343 403.097283 
L 130.981528 403.097283 
L 130.981528 402.992189 
L 130.981528 401.768593 
L 131.266713 401.768593 
L 131.266713 401.663498 
L 131.266713 400.417382 
L 131.551898 400.417382 
L 131.551898 400.312287 
L 131.551898 399.103704 
L 131.837083 399.103704 
L 131.837083 398.99861 
L 131.837083 397.632386 
L 132.122267 397.632386 
L 132.122267 397.527291 
L 132.122267 396.296188 
L 132.407452 396.296188 
L 132.407452 396.191094 
L 132.407452 394.712268 
L 132.692637 394.712268 
L 132.692637 394.607174 
L 132.692637 393.398591 
L 132.977822 393.398591 
L 132.977822 393.293497 
L 132.977822 391.972313 
L 133.263007 391.972313 
L 133.263007 391.867219 
L 133.263007 390.703676 
L 133.548192 390.703676 
L 133.548192 390.598582 
L 133.548192 389.15729 
L 133.833377 389.15729 
L 133.833377 389.052196 
L 133.833377 387.678464 
L 134.118562 387.678464 
L 134.118562 387.57337 
L 134.118562 386.244679 
L 134.403747 386.244679 
L 134.403747 386.139585 
L 134.403747 384.788374 
L 134.688932 384.788374 
L 134.688932 384.68328 
L 134.688932 383.459683 
L 134.974117 383.459683 
L 134.974117 383.354589 
L 134.974117 382.040912 
L 135.259302 382.040912 
L 135.259302 381.935818 
L 135.259302 380.562086 
L 135.544487 380.562086 
L 135.544487 380.456992 
L 135.544487 379.030714 
L 135.829672 379.030714 
L 135.829672 378.92562 
L 135.829672 377.439288 
L 136.114857 377.439288 
L 136.114857 377.334193 
L 136.114857 375.967969 
L 136.400042 375.967969 
L 136.400042 375.862875 
L 136.400042 374.308982 
L 136.685227 374.308982 
L 136.685227 374.203888 
L 136.685227 372.86769 
L 136.970412 372.86769 
L 136.970412 372.762596 
L 136.970412 371.12613 
L 137.255597 371.12613 
L 137.255597 371.021035 
L 137.255597 369.51969 
L 137.540781 369.51969 
L 137.540781 369.414596 
L 137.540781 367.755609 
L 137.825966 367.755609 
L 137.825966 367.650515 
L 137.825966 366.314317 
L 138.111151 366.314317 
L 138.111151 366.209223 
L 138.111151 364.662837 
L 138.396336 364.662837 
L 138.396336 364.557743 
L 138.396336 362.906263 
L 138.681521 362.906263 
L 138.681521 362.801168 
L 138.681521 361.269796 
L 138.966706 361.269796 
L 138.966706 361.164702 
L 138.966706 359.438154 
L 139.251891 359.438154 
L 139.251891 359.33306 
L 139.251891 357.7041 
L 139.537076 357.7041 
L 139.537076 357.599006 
L 139.537076 355.857445 
L 139.822261 355.857445 
L 139.822261 355.752351 
L 139.822261 354.333579 
L 140.107446 354.333579 
L 140.107446 354.228485 
L 140.107446 352.344297 
L 140.392631 352.344297 
L 140.392631 352.239202 
L 140.392631 350.332494 
L 140.677816 350.332494 
L 140.677816 350.227399 
L 140.677816 348.650986 
L 140.963001 348.650986 
L 140.963001 348.545892 
L 140.963001 346.886905 
L 141.248186 346.886905 
L 141.248186 346.781811 
L 141.248186 345.130331 
L 141.533371 345.130331 
L 141.533371 345.025237 
L 141.533371 343.283676 
L 141.818556 343.283676 
L 141.818556 343.178582 
L 141.818556 341.444528 
L 142.103741 341.444528 
L 142.103741 341.339434 
L 142.103741 339.515299 
L 142.388926 339.515299 
L 142.388926 339.410205 
L 142.388926 337.593576 
L 142.674111 337.593576 
L 142.674111 337.488482 
L 142.674111 335.791962 
L 142.959296 335.791962 
L 142.959296 335.686868 
L 142.959296 333.832706 
L 143.24448 333.832706 
L 143.24448 333.727612 
L 143.24448 331.790876 
L 143.529665 331.790876 
L 143.529665 331.685782 
L 143.529665 329.8091 
L 143.81485 329.8091 
L 143.81485 329.704005 
L 143.81485 328.082552 
L 144.100035 328.082552 
L 144.100035 327.977458 
L 144.100035 326.145816 
L 144.38522 326.145816 
L 144.38522 326.040722 
L 144.38522 324.471816 
L 144.670405 324.471816 
L 144.670405 324.366722 
L 144.670405 322.707735 
L 144.95559 322.707735 
L 144.95559 322.602641 
L 144.95559 320.973681 
L 145.240775 320.973681 
L 145.240775 320.868587 
L 145.240775 318.77421 
L 145.52596 318.77421 
L 145.52596 318.669116 
L 145.52596 316.792434 
L 145.811145 316.792434 
L 145.811145 316.687339 
L 145.811145 315.10342 
L 146.09633 315.10342 
L 146.09633 314.998326 
L 146.09633 313.114137 
L 146.381515 313.114137 
L 146.381515 313.009043 
L 146.381515 311.297509 
L 146.6667 311.297509 
L 146.6667 311.192415 
L 146.6667 309.195625 
L 146.951885 309.195625 
L 146.951885 309.090531 
L 146.951885 307.251383 
L 147.23707 307.251383 
L 147.23707 307.146288 
L 147.23707 305.367194 
L 147.522255 305.367194 
L 147.522255 305.2621 
L 147.522255 303.61062 
L 147.80744 303.61062 
L 147.80744 303.505525 
L 147.80744 301.703911 
L 148.092625 301.703911 
L 148.092625 301.598816 
L 148.092625 299.767175 
L 148.37781 299.767175 
L 148.37781 299.662081 
L 148.37781 297.642771 
L 148.662994 297.642771 
L 148.662994 297.537677 
L 148.662994 295.645981 
L 148.948179 295.645981 
L 148.948179 295.540887 
L 148.948179 293.619165 
L 149.233364 293.619165 
L 149.233364 293.514071 
L 149.233364 291.329613 
L 149.518549 291.329613 
L 149.518549 291.224519 
L 149.518549 289.235236 
L 149.803734 289.235236 
L 149.803734 289.130142 
L 149.803734 287.32102 
L 150.088919 287.32102 
L 150.088919 287.215926 
L 150.088919 285.23415 
L 150.374104 285.23415 
L 150.374104 285.129056 
L 150.374104 283.124759 
L 150.659289 283.124759 
L 150.659289 283.019665 
L 150.659289 281.375692 
L 150.944474 281.375692 
L 150.944474 281.270598 
L 150.944474 279.468983 
L 151.229659 279.468983 
L 151.229659 279.363889 
L 151.229659 277.359592 
L 151.514844 277.359592 
L 151.514844 277.254498 
L 151.514844 275.062534 
L 151.800029 275.062534 
L 151.800029 274.957439 
L 151.800029 273.103278 
L 152.085214 273.103278 
L 152.085214 272.998183 
L 152.085214 271.204076 
L 152.370399 271.204076 
L 152.370399 271.098981 
L 152.370399 269.297367 
L 152.655584 269.297367 
L 152.655584 269.192272 
L 152.655584 267.285564 
L 152.940769 267.285564 
L 152.940769 267.180469 
L 152.940769 265.191187 
L 153.225954 265.191187 
L 153.225954 265.086092 
L 153.225954 263.14185 
L 153.511139 263.14185 
L 153.511139 263.036756 
L 153.511139 261.242648 
L 153.796324 261.242648 
L 153.796324 261.137554 
L 153.796324 259.320925 
L 154.081509 259.320925 
L 154.081509 259.215831 
L 154.081509 257.271589 
L 154.366693 257.271589 
L 154.366693 257.166494 
L 154.366693 255.327346 
L 154.651878 255.327346 
L 154.651878 255.222252 
L 154.651878 253.375597 
L 154.937063 253.375597 
L 154.937063 253.270503 
L 154.937063 251.333767 
L 155.222248 251.333767 
L 155.222248 251.228673 
L 155.222248 249.389524 
L 155.507433 249.389524 
L 155.507433 249.28443 
L 155.507433 247.445282 
L 155.792618 247.445282 
L 155.792618 247.340188 
L 155.792618 245.621147 
L 156.077803 245.621147 
L 156.077803 245.516053 
L 156.077803 243.541784 
L 156.362988 243.541784 
L 156.362988 243.436689 
L 156.362988 241.48494 
L 156.648173 241.48494 
L 156.648173 241.379846 
L 156.648173 239.247935 
L 156.933358 239.247935 
L 156.933358 239.142841 
L 156.933358 237.33372 
L 157.218543 237.33372 
L 157.218543 237.228625 
L 157.218543 235.344437 
L 157.503728 235.344437 
L 157.503728 235.239343 
L 157.503728 233.332634 
L 157.788913 233.332634 
L 157.788913 233.227539 
L 157.788913 231.568553 
L 158.074098 231.568553 
L 158.074098 231.463458 
L 158.074098 229.631817 
L 158.359283 229.631817 
L 158.359283 229.526723 
L 158.359283 227.529933 
L 158.644468 227.529933 
L 158.644468 227.424839 
L 158.644468 225.668265 
L 158.929653 225.668265 
L 158.929653 225.56317 
L 158.929653 223.979251 
L 159.214838 223.979251 
L 159.214838 223.874157 
L 159.214838 222.087555 
L 159.500023 222.087555 
L 159.500023 221.982461 
L 159.500023 220.015699 
L 159.785207 220.015699 
L 159.785207 219.910604 
L 159.785207 217.936335 
L 160.070392 217.936335 
L 160.070392 217.831241 
L 160.070392 216.1122 
L 160.355577 216.1122 
L 160.355577 216.007106 
L 160.355577 214.235518 
L 160.640762 214.235518 
L 160.640762 214.130424 
L 160.640762 212.426397 
L 160.925947 212.426397 
L 160.925947 212.321302 
L 160.925947 210.609769 
L 161.211132 210.609769 
L 161.211132 210.504674 
L 161.211132 208.830674 
L 161.496317 208.830674 
L 161.496317 208.72558 
L 161.496317 206.886432 
L 161.781502 206.886432 
L 161.781502 206.781337 
L 161.781502 204.882135 
L 162.066687 204.882135 
L 162.066687 204.777041 
L 162.066687 202.945399 
L 162.351872 202.945399 
L 162.351872 202.840305 
L 162.351872 201.008664 
L 162.637057 201.008664 
L 162.637057 200.903569 
L 162.637057 198.966834 
L 162.922242 198.966834 
L 162.922242 198.861739 
L 162.922242 197.2553 
L 163.207427 197.2553 
L 163.207427 197.150206 
L 163.207427 195.461192 
L 163.492612 195.461192 
L 163.492612 195.356098 
L 163.492612 193.719631 
L 163.777797 193.719631 
L 163.777797 193.614537 
L 163.777797 192.038124 
L 164.062982 192.038124 
L 164.062982 191.93303 
L 164.062982 190.289056 
L 164.348167 190.289056 
L 164.348167 190.183962 
L 164.348167 188.660096 
L 164.633352 188.660096 
L 164.633352 188.555002 
L 164.633352 186.986096 
L 164.918537 186.986096 
L 164.918537 186.881002 
L 164.918537 185.349629 
L 165.203722 185.349629 
L 165.203722 185.244535 
L 165.203722 183.728176 
L 165.488906 183.728176 
L 165.488906 183.623082 
L 165.488906 181.949082 
L 165.774091 181.949082 
L 165.774091 181.843988 
L 165.774091 180.09492 
L 166.059276 180.09492 
L 166.059276 179.989826 
L 166.059276 178.330839 
L 166.344461 178.330839 
L 166.344461 178.225745 
L 166.344461 176.739413 
L 166.629646 176.739413 
L 166.629646 176.634318 
L 166.629646 175.117959 
L 166.914831 175.117959 
L 166.914831 175.012865 
L 166.914831 173.504013 
L 167.200016 173.504013 
L 167.200016 173.398919 
L 167.200016 171.822506 
L 167.485201 171.822506 
L 167.485201 171.717412 
L 167.485201 170.005878 
L 167.770386 170.005878 
L 167.770386 169.900784 
L 167.770386 168.497025 
L 168.055571 168.497025 
L 168.055571 168.391931 
L 168.055571 166.890586 
L 168.340756 166.890586 
L 168.340756 166.785492 
L 168.340756 165.246612 
L 168.625941 165.246612 
L 168.625941 165.141518 
L 168.625941 163.527572 
L 168.911126 163.527572 
L 168.911126 163.422477 
L 168.911126 161.921132 
L 169.196311 161.921132 
L 169.196311 161.816038 
L 169.196311 160.051957 
L 169.481496 160.051957 
L 169.481496 159.946862 
L 169.481496 158.528091 
L 169.766681 158.528091 
L 169.766681 158.422997 
L 169.766681 156.929158 
L 170.051866 156.929158 
L 170.051866 156.824064 
L 170.051866 155.315211 
L 170.337051 155.315211 
L 170.337051 155.210117 
L 170.337051 153.633704 
L 170.622236 153.633704 
L 170.622236 153.52861 
L 170.622236 152.139866 
L 170.90742 152.139866 
L 170.90742 152.034771 
L 170.90742 150.68356 
L 171.192605 150.68356 
L 171.192605 150.578466 
L 171.192605 149.347363 
L 171.47779 149.347363 
L 171.47779 149.242269 
L 171.47779 147.861031 
L 171.762975 147.861031 
L 171.762975 147.755936 
L 171.762975 146.299631 
L 172.04816 146.299631 
L 172.04816 146.194537 
L 172.04816 144.873353 
L 172.333345 144.873353 
L 172.333345 144.768259 
L 172.333345 143.364501 
L 172.61853 143.364501 
L 172.61853 143.259407 
L 172.61853 141.915702 
L 172.903715 141.915702 
L 172.903715 141.810608 
L 172.903715 140.587011 
L 173.1889 140.587011 
L 173.1889 140.481917 
L 173.1889 139.288347 
L 173.474085 139.288347 
L 173.474085 139.183253 
L 173.474085 137.719441 
L 173.75927 137.719441 
L 173.75927 137.614347 
L 173.75927 136.413271 
L 174.044455 136.413271 
L 174.044455 136.308177 
L 174.044455 135.212194 
L 174.32964 135.212194 
L 174.32964 135.1071 
L 174.32964 133.84597 
L 174.614825 133.84597 
L 174.614825 133.740876 
L 174.614825 132.734974 
L 174.90001 132.734974 
L 174.90001 132.62988 
L 174.90001 131.473844 
L 175.185195 131.473844 
L 175.185195 131.36875 
L 175.185195 130.100113 
L 175.47038 130.100113 
L 175.47038 129.995018 
L 175.47038 128.838982 
L 175.755565 128.838982 
L 175.755565 128.733888 
L 175.755565 127.592866 
L 176.04075 127.592866 
L 176.04075 127.487771 
L 176.04075 126.264175 
L 176.325935 126.264175 
L 176.325935 126.159081 
L 176.325935 125.130659 
L 176.611119 125.130659 
L 176.611119 125.025565 
L 176.611119 123.944596 
L 176.896304 123.944596 
L 176.896304 123.839502 
L 176.896304 122.728506 
L 177.181489 122.728506 
L 177.181489 122.623412 
L 177.181489 121.264694 
L 177.466674 121.264694 
L 177.466674 121.1596 
L 177.466674 120.018577 
L 177.751859 120.018577 
L 177.751859 119.913483 
L 177.751859 118.7049 
L 178.037044 118.7049 
L 178.037044 118.599806 
L 178.037044 117.481303 
L 178.322229 117.481303 
L 178.322229 117.376209 
L 178.322229 116.190146 
L 178.607414 116.190146 
L 178.607414 116.085052 
L 178.607414 114.906496 
L 178.892599 114.906496 
L 178.892599 114.801401 
L 178.892599 113.622845 
L 179.177784 113.622845 
L 179.177784 113.517751 
L 179.177784 112.354208 
L 179.462969 112.354208 
L 179.462969 112.249114 
L 179.462969 111.228199 
L 179.748154 111.228199 
L 179.748154 111.123105 
L 179.748154 110.064656 
L 180.033339 110.064656 
L 180.033339 109.959562 
L 180.033339 109.081275 
L 180.318524 109.081275 
L 180.318524 108.976181 
L 180.318524 107.992799 
L 180.603709 107.992799 
L 180.603709 107.887705 
L 180.603709 106.769203 
L 180.888894 106.769203 
L 180.888894 106.664108 
L 180.888894 105.598153 
L 181.174079 105.598153 
L 181.174079 105.493059 
L 181.174079 104.442117 
L 181.459264 104.442117 
L 181.459264 104.337023 
L 181.459264 103.361148 
L 181.744449 103.361148 
L 181.744449 103.256054 
L 181.744449 102.355247 
L 182.029633 102.355247 
L 182.029633 102.250152 
L 182.029633 101.281785 
L 182.314818 101.281785 
L 182.314818 101.17669 
L 182.314818 100.411004 
L 182.600003 100.411004 
L 182.600003 100.30591 
L 182.600003 99.405103 
L 182.885188 99.405103 
L 182.885188 99.300008 
L 182.885188 98.376681 
L 183.170373 98.376681 
L 183.170373 98.271587 
L 183.170373 97.310725 
L 183.455558 97.310725 
L 183.455558 97.205631 
L 183.455558 96.184716 
L 183.740743 96.184716 
L 183.740743 96.079622 
L 183.740743 95.186322 
L 184.025928 95.186322 
L 184.025928 95.081227 
L 184.025928 94.030285 
L 184.311113 94.030285 
L 184.311113 93.925191 
L 184.311113 92.881756 
L 184.596298 92.881756 
L 184.596298 92.776662 
L 184.596298 91.838321 
L 184.881483 91.838321 
L 184.881483 91.733227 
L 184.881483 90.809899 
L 185.166668 90.809899 
L 185.166668 90.704805 
L 185.166668 89.901585 
L 185.451853 89.901585 
L 185.451853 89.796491 
L 185.451853 88.90319 
L 185.737038 88.90319 
L 185.737038 88.798096 
L 185.737038 87.912302 
L 186.022223 87.912302 
L 186.022223 87.807208 
L 186.022223 86.951441 
L 186.307408 86.951441 
L 186.307408 86.846347 
L 186.307408 86.0131 
L 186.592593 86.0131 
L 186.592593 85.908006 
L 186.592593 85.082266 
L 186.877778 85.082266 
L 186.877778 84.977172 
L 186.877778 84.098885 
L 187.162963 84.098885 
L 187.162963 83.99379 
L 187.162963 83.085476 
L 187.448147 83.085476 
L 187.448147 82.980382 
L 187.448147 82.184669 
L 187.733332 82.184669 
L 187.733332 82.079575 
L 187.733332 81.298875 
L 188.018517 81.298875 
L 188.018517 81.193781 
L 188.018517 80.518175 
L 188.303702 80.518175 
L 188.303702 80.413081 
L 188.303702 79.707449 
L 188.588887 79.707449 
L 188.588887 79.602355 
L 188.588887 78.874202 
L 188.874072 78.874202 
L 188.874072 78.769108 
L 188.874072 77.973395 
L 189.159257 77.973395 
L 189.159257 77.8683 
L 189.159257 77.102614 
L 189.444442 77.102614 
L 189.444442 76.99752 
L 189.444442 76.389475 
L 189.729627 76.389475 
L 189.729627 76.284381 
L 189.729627 75.511188 
L 190.014812 75.511188 
L 190.014812 75.406094 
L 190.014812 74.655421 
L 190.299997 74.655421 
L 190.299997 74.550327 
L 190.299997 73.957295 
L 190.585182 73.957295 
L 190.585182 73.852201 
L 190.585182 73.033968 
L 190.870367 73.033968 
L 190.870367 72.928874 
L 190.870367 72.268281 
L 191.155552 72.268281 
L 191.155552 72.163187 
L 191.155552 71.352461 
L 191.440737 71.352461 
L 191.440737 71.247366 
L 191.440737 70.706882 
L 191.725922 70.706882 
L 191.725922 70.601788 
L 191.725922 69.963716 
L 192.011107 69.963716 
L 192.011107 69.858622 
L 192.011107 69.24307 
L 192.296292 69.24307 
L 192.296292 69.137976 
L 192.296292 68.447357 
L 192.581477 68.447357 
L 192.581477 68.342263 
L 192.581477 67.809285 
L 192.866662 67.809285 
L 192.866662 67.704191 
L 192.866662 67.103653 
L 193.151846 67.103653 
L 193.151846 66.998559 
L 193.151846 66.428047 
L 193.437031 66.428047 
L 193.437031 66.322953 
L 193.437031 65.684881 
L 193.722216 65.684881 
L 193.722216 65.579787 
L 193.722216 64.919195 
L 194.007401 64.919195 
L 194.007401 64.814101 
L 194.007401 64.078441 
L 194.292586 64.078441 
L 194.292586 63.973347 
L 194.292586 63.395329 
L 194.577771 63.395329 
L 194.577771 63.290235 
L 194.577771 62.764764 
L 194.862956 62.764764 
L 194.862956 62.65967 
L 194.862956 62.059132 
L 195.148141 62.059132 
L 195.148141 61.954037 
L 195.148141 61.406046 
L 195.433326 61.406046 
L 195.433326 61.300952 
L 195.433326 60.782988 
L 195.718511 60.782988 
L 195.718511 60.677894 
L 195.718511 60.340091 
L 196.003696 60.340091 
L 196.003696 60.234997 
L 196.003696 59.83714 
L 196.288881 59.83714 
L 196.288881 59.732046 
L 196.288881 59.199068 
L 196.574066 59.199068 
L 196.574066 59.093974 
L 196.574066 58.606037 
L 196.859251 58.606037 
L 196.859251 58.500943 
L 196.859251 57.997992 
L 197.144436 57.997992 
L 197.144436 57.892898 
L 197.144436 57.3374 
L 197.429621 57.3374 
L 197.429621 57.232306 
L 197.429621 56.841956 
L 197.714806 56.841956 
L 197.714806 56.736862 
L 197.714806 56.278951 
L 197.999991 56.278951 
L 197.999991 56.173857 
L 197.999991 55.745974 
L 198.285176 55.745974 
L 198.285176 55.640879 
L 198.285176 55.175462 
L 198.57036 55.175462 
L 198.57036 55.070368 
L 198.57036 54.544897 
L 198.855545 54.544897 
L 198.855545 54.439803 
L 198.855545 54.094493 
L 199.14073 54.094493 
L 199.14073 53.989399 
L 199.14073 53.561516 
L 199.425915 53.561516 
L 199.425915 53.456422 
L 199.425915 53.051058 
L 199.7111 53.051058 
L 199.7111 52.945964 
L 199.7111 52.548107 
L 199.996285 52.548107 
L 199.996285 52.443013 
L 199.996285 52.105211 
L 200.28147 52.105211 
L 200.28147 52.000116 
L 200.28147 51.654807 
L 200.566655 51.654807 
L 200.566655 51.549713 
L 200.566655 51.16687 
L 200.85184 51.16687 
L 200.85184 51.061775 
L 200.85184 50.611372 
L 201.137025 50.611372 
L 201.137025 50.506278 
L 201.137025 50.100914 
L 201.42221 50.100914 
L 201.42221 49.99582 
L 201.42221 49.688044 
L 201.707395 49.688044 
L 201.707395 49.58295 
L 201.707395 49.237641 
L 201.99258 49.237641 
L 201.99258 49.132546 
L 201.99258 48.644609 
L 202.277765 48.644609 
L 202.277765 48.539515 
L 202.277765 48.186699 
L 202.56295 48.186699 
L 202.56295 48.081604 
L 202.56295 47.676241 
L 202.848135 47.676241 
L 202.848135 47.571147 
L 202.848135 47.255864 
L 203.13332 47.255864 
L 203.13332 47.15077 
L 203.13332 46.790447 
L 203.418505 46.790447 
L 203.418505 46.685353 
L 203.418505 46.34755 
L 203.70369 46.34755 
L 203.70369 46.242456 
L 203.70369 45.88964 
L 203.988875 45.88964 
L 203.988875 45.784546 
L 203.988875 45.424223 
L 204.274059 45.424223 
L 204.274059 45.319129 
L 204.274059 45.0639 
L 204.559244 45.0639 
L 204.559244 44.958806 
L 204.559244 44.643523 
L 204.844429 44.643523 
L 204.844429 44.538429 
L 204.844429 44.185613 
L 205.129614 44.185613 
L 205.129614 44.080518 
L 205.129614 43.80277 
L 205.414799 43.80277 
L 205.414799 43.697675 
L 205.414799 43.374886 
L 205.699984 43.374886 
L 205.699984 43.269792 
L 205.699984 42.992043 
L 205.985169 42.992043 
L 205.985169 42.886949 
L 205.985169 42.63172 
L 206.270354 42.63172 
L 206.270354 42.526626 
L 206.270354 42.233863 
L 206.555539 42.233863 
L 206.555539 42.128769 
L 206.555539 41.843514 
L 206.840724 41.843514 
L 206.840724 41.738419 
L 206.840724 41.505711 
L 207.125909 41.505711 
L 207.125909 41.400617 
L 207.125909 41.122868 
L 207.411094 41.122868 
L 207.411094 41.017774 
L 207.411094 40.747531 
L 207.696279 40.747531 
L 207.696279 40.642437 
L 207.696279 40.349675 
L 207.981464 40.349675 
L 207.981464 40.244581 
L 207.981464 40.056912 
L 208.266649 40.056912 
L 208.266649 39.951818 
L 208.266649 39.704096 
L 208.551834 39.704096 
L 208.551834 39.599002 
L 208.551834 39.343773 
L 208.837019 39.343773 
L 208.837019 39.238679 
L 208.837019 38.968437 
L 209.122204 38.968437 
L 209.122204 38.863343 
L 209.122204 38.645648 
L 209.407389 38.645648 
L 209.407389 38.540553 
L 209.407389 38.225271 
L 209.692573 38.225271 
L 209.692573 38.120177 
L 209.692573 37.970042 
L 209.977758 37.970042 
L 209.977758 37.864948 
L 209.977758 37.662266 
L 210.262943 37.662266 
L 210.262943 37.557172 
L 210.262943 37.369504 
L 210.548128 37.369504 
L 210.548128 37.26441 
L 210.548128 37.084248 
L 210.833313 37.084248 
L 210.833313 36.979154 
L 210.833313 36.746445 
L 211.118498 36.746445 
L 211.118498 36.641351 
L 211.118498 36.371109 
L 211.403683 36.371109 
L 211.403683 36.266015 
L 211.403683 36.078347 
L 211.688868 36.078347 
L 211.688868 35.973252 
L 211.688868 35.815611 
L 211.974053 35.815611 
L 211.974053 35.710517 
L 211.974053 35.522849 
L 212.259238 35.522849 
L 212.259238 35.417755 
L 212.259238 35.275127 
L 212.544423 35.275127 
L 212.544423 35.170033 
L 212.544423 34.959844 
L 212.829608 34.959844 
L 212.829608 34.85475 
L 212.829608 34.644562 
L 213.114793 34.644562 
L 213.114793 34.539467 
L 213.114793 34.381826 
L 213.399978 34.381826 
L 213.399978 34.276732 
L 213.399978 34.119091 
L 213.685163 34.119091 
L 213.685163 34.013996 
L 213.685163 33.863862 
L 213.970348 33.863862 
L 213.970348 33.758768 
L 213.970348 33.653674 
L 214.255533 33.653674 
L 214.255533 33.548579 
L 214.255533 33.428472 
L 214.540718 33.428472 
L 214.540718 33.323378 
L 214.540718 33.090669 
L 214.825903 33.090669 
L 214.825903 32.985575 
L 214.825903 32.81292 
L 215.111088 32.81292 
L 215.111088 32.707826 
L 215.111088 32.617745 
L 215.396272 32.617745 
L 215.396272 32.512651 
L 215.396272 32.392543 
L 215.681457 32.392543 
L 215.681457 32.287449 
L 215.681457 32.114794 
L 215.966642 32.114794 
L 215.966642 32.0097 
L 215.966642 31.889593 
L 216.251827 31.889593 
L 216.251827 31.784498 
L 216.251827 31.61935 
L 216.537012 31.61935 
L 216.537012 31.514256 
L 216.537012 31.349108 
L 216.822197 31.349108 
L 216.822197 31.244014 
L 216.822197 31.041332 
L 217.107382 31.041332 
L 217.107382 30.936238 
L 217.107382 30.786104 
L 217.392567 30.786104 
L 217.392567 30.681009 
L 217.392567 30.560902 
L 217.677752 30.560902 
L 217.677752 30.455808 
L 217.677752 30.305673 
L 217.962937 30.305673 
L 217.962937 30.200579 
L 217.962937 29.997897 
L 218.248122 29.997897 
L 218.248122 29.892803 
L 218.248122 29.772695 
L 218.533307 29.772695 
L 218.533307 29.667601 
L 218.533307 29.585027 
L 218.818492 29.585027 
L 218.818492 29.479933 
L 218.818492 29.374839 
L 219.103677 29.374839 
L 219.103677 29.269745 
L 219.103677 29.16465 
L 219.388862 29.16465 
L 219.388862 29.059556 
L 219.388862 29.007009 
L 219.674047 29.007009 
L 219.674047 28.901915 
L 219.674047 28.871888 
L 219.959232 28.871888 
L 219.959232 28.766794 
L 219.959232 28.646686 
L 220.244417 28.646686 
L 220.244417 28.541592 
L 220.244417 28.444004 
L 220.529602 28.444004 
L 220.529602 28.33891 
L 220.529602 28.218803 
L 220.814786 28.218803 
L 220.814786 28.113708 
L 220.814786 28.068668 
L 221.099971 28.068668 
L 221.099971 27.963574 
L 221.099971 27.873493 
L 221.385156 27.873493 
L 221.385156 27.768399 
L 221.385156 27.700838 
L 221.670341 27.700838 
L 221.670341 27.595744 
L 221.670341 27.408076 
L 221.955526 27.408076 
L 221.955526 27.302982 
L 221.955526 27.220408 
L 222.240711 27.220408 
L 222.240711 27.115314 
L 222.240711 26.987699 
L 222.525896 26.987699 
L 222.525896 26.882605 
L 222.525896 26.739977 
L 222.811081 26.739977 
L 222.811081 26.634883 
L 222.811081 26.544802 
L 223.096266 26.544802 
L 223.096266 26.439708 
L 223.096266 26.372148 
L 223.381451 26.372148 
L 223.381451 26.267053 
L 223.381451 26.191986 
L 223.951821 26.094399 
L 223.951821 26.086892 
L 223.951821 25.944264 
L 224.237006 25.944264 
L 224.237006 25.83917 
L 224.237006 25.749089 
L 224.522191 25.749089 
L 224.522191 25.643995 
L 224.522191 25.538901 
L 224.807376 25.538901 
L 224.807376 25.433807 
L 224.807376 25.336219 
L 225.092561 25.336219 
L 225.092561 25.231125 
L 225.092561 25.163564 
L 225.377746 25.163564 
L 225.377746 25.05847 
L 225.377746 25.050963 
L 225.662931 25.050963 
L 225.662931 24.945869 
L 225.662931 24.900829 
L 225.948116 24.900829 
L 225.948116 24.795735 
L 225.948116 24.780721 
L 226.233301 24.780721 
L 226.233301 24.675627 
L 226.233301 24.608067 
L 226.518485 24.608067 
L 226.518485 24.502972 
L 226.518485 24.427905 
L 226.80367 24.427905 
L 226.80367 24.322811 
L 226.80367 24.225223 
L 227.088855 24.225223 
L 227.088855 24.120129 
L 227.088855 24.007528 
L 227.37404 24.007528 
L 227.37404 23.902434 
L 227.37404 23.812353 
L 227.659225 23.812353 
L 227.659225 23.707259 
L 227.659225 23.624685 
L 228.229595 23.527098 
L 228.229595 23.519591 
L 228.229595 23.36195 
L 228.799965 23.256856 
L 228.799965 23.069187 
L 229.08515 23.069187 
L 229.08515 22.964093 
L 229.08515 22.956586 
L 229.370335 22.956586 
L 229.370335 22.851492 
L 229.370335 22.813959 
L 229.940705 22.723878 
L 229.940705 22.708864 
L 229.940705 22.62629 
L 230.22589 22.62629 
L 230.22589 22.521196 
L 230.22589 22.491169 
L 230.511075 22.491169 
L 230.511075 22.386075 
L 230.511075 22.371062 
L 231.081445 22.288488 
L 231.081445 22.265967 
L 231.081445 22.175887 
L 231.651815 22.078299 
L 231.651815 22.070793 
L 231.651815 21.920658 
L 231.936999 21.920658 
L 231.936999 21.815564 
L 231.936999 21.80055 
L 232.222184 21.80055 
L 232.222184 21.695456 
L 232.222184 21.665429 
L 232.792554 21.582855 
L 232.792554 21.560335 
L 232.792554 21.492774 
L 233.077739 21.492774 
L 233.077739 21.38768 
L 233.077739 21.350147 
L 233.648109 21.252559 
L 233.648109 21.245052 
L 233.648109 21.184999 
L 234.218479 21.109931 
L 234.218479 21.079904 
L 234.218479 21.027357 
L 234.788849 20.92977 
L 234.788849 20.922263 
L 234.788849 20.824676 
L 235.359219 20.734595 
L 235.359219 20.719582 
L 235.359219 20.599474 
L 236.214774 20.49438 
L 236.214774 20.389285 
L 236.785144 20.314218 
L 236.785144 20.284191 
L 236.785144 20.194111 
L 237.070329 20.194111 
L 237.070329 20.089016 
L 237.070329 20.066496 
L 237.640698 19.983922 
L 237.640698 19.961402 
L 237.640698 19.908855 
L 238.211068 19.818774 
L 238.211068 19.803761 
L 238.211068 19.788747 
L 238.781438 19.751214 
L 238.781438 19.683653 
L 238.781438 19.653626 
L 239.351808 19.548532 
L 239.351808 19.473465 
L 239.922178 19.398397 
L 239.922178 19.368371 
L 239.922178 19.32333 
L 240.492548 19.225743 
L 240.492548 19.218236 
L 240.492548 19.158182 
L 241.062918 19.105635 
L 241.062918 19.053088 
L 241.062918 19.008048 
L 241.633288 18.9555 
L 241.633288 18.902953 
L 241.633288 18.850406 
L 242.203658 18.812873 
L 242.203658 18.745312 
L 242.203658 18.730299 
L 243.059212 18.632711 
L 243.059212 18.625204 
L 243.059212 18.572657 
L 243.629582 18.482577 
L 243.629582 18.467563 
L 243.629582 18.43003 
L 244.199952 18.377482 
L 244.199952 18.324935 
L 244.199952 18.302415 
L 245.055507 18.204828 
L 245.055507 18.197321 
L 245.055507 18.12976 
L 246.196247 18.032173 
L 246.196247 18.024666 
L 246.196247 17.964612 
L 247.051802 17.874532 
L 247.051802 17.859518 
L 247.051802 17.836998 
L 247.907357 17.731904 
L 247.907357 17.709384 
L 248.762911 17.62681 
L 248.762911 17.604289 
L 248.762911 17.596783 
L 249.333281 17.544236 
L 249.333281 17.491689 
L 249.333281 17.461662 
L 249.903651 17.416621 
L 249.903651 17.356567 
L 249.903651 17.341554 
L 250.759206 17.273993 
L 250.759206 17.23646 
L 250.759206 17.228953 
L 251.614761 17.168899 
L 251.614761 17.123859 
L 251.614761 17.108845 
L 252.470316 17.033778 
L 252.470316 17.003751 
L 252.470316 16.981231 
L 253.896241 16.89115 
L 253.896241 16.876137 
L 253.896241 16.84611 
L 255.03698 16.756029 
L 255.03698 16.741016 
L 255.03698 16.733509 
L 256.462905 16.635922 
L 256.462905 16.628415 
L 256.462905 16.590881 
L 257.603645 16.5008 
L 257.603645 16.485787 
L 257.603645 16.470774 
L 258.744385 16.3882 
L 258.744385 16.365679 
L 258.744385 16.358173 
L 260.455494 16.253078 
L 260.455494 16.223052 
L 261.881419 16.125464 
L 261.881419 16.117957 
L 261.881419 16.080424 
L 263.307344 15.990343 
L 263.307344 15.97533 
L 263.307344 15.952809 
L 264.448084 15.847715 
L 264.448084 15.840208 
L 267.014748 15.742621 
L 267.014748 15.735114 
L 267.014748 15.720101 
L 268.155488 15.63002 
L 268.155488 15.615007 
L 268.155488 15.592486 
L 270.436968 15.494899 
L 270.436968 15.487392 
L 270.436968 15.464872 
L 273.859187 15.359778 
L 273.859187 15.344764 
L 277.851776 15.23967 
L 277.851776 15.232163 
L 279.848071 15.149589 
L 279.848071 15.127069 
L 279.848071 15.119563 
L 284.125845 15.014468 
L 284.125845 14.991948 
L 288.973989 14.894361 
L 288.973989 14.886854 
L 288.973989 14.879347 
L 293.822133 14.78176 
L 293.822133 14.774253 
L 293.822133 14.766746 
L 300.666572 14.661652 
L 300.666572 14.639132 
L 308.366566 14.534038 
L 308.366566 14.526531 
L 318.918409 14.421437 
L 318.918409 14.406423 
L 336.599876 14.301329 
L 336.599876 14.293822 
L 388.788721 14.188728 
L 388.788721 14.181222 
L 460.084958 14.076127 
L 460.084958 14.068621 
L 515.125653 14.0461 
L 515.125653 14.038594 
" clip-path="url(#p823d00cf74)" style="fill: none; stroke: #227c9d; stroke-width: 1.5; stroke-linecap: square"/>
   </g>
   <g id="line2d_16">
    <path d="M 89.016563 456.507652 
L 535.416562 456.507652 
" clip-path="url(#p823d00cf74)" style="fill: none; stroke-dasharray: 7.4,3.2; stroke-dashoffset: 0; stroke: #3d9f95; stroke-width: 2"/>
   </g>
   <g id="line2d_17">
    <path d="M 89.016563 451.906028 
L 535.416562 451.906028 
" clip-path="url(#p823d00cf74)" style="fill: none; stroke-dasharray: 7.4,3.2; stroke-dashoffset: 0; stroke: #3d9f95; stroke-width: 2"/>
   </g>
   <g id="line2d_18">
    <path d="M 157.218543 457.558594 
L 157.218543 14.038594 
" clip-path="url(#p823d00cf74)" style="fill: none; stroke-dasharray: 7.4,3.2; stroke-dashoffset: 0; stroke: #227c9d; stroke-width: 2"/>
   </g>
   <g id="line2d_19">
    <path d="M 160.787619 457.558594 
L 160.787619 14.038594 
" clip-path="url(#p823d00cf74)" style="fill: none; stroke-dasharray: 7.4,3.2; stroke-dashoffset: 0; stroke: #227c9d; stroke-width: 2"/>
   </g>
   <g id="patch_3">
    <path d="M 89.016563 457.558594 
L 89.016563 14.038594 
" style="fill: none; stroke: #000000; stroke-linejoin: miter; stroke-linecap: square"/>
   </g>
   <g id="patch_4">
    <path d="M 89.016563 457.558594 
L 535.416562 457.558594 
" style="fill: none; stroke: #000000; stroke-linejoin: miter; stroke-linecap: square"/>
   </g>
   <g id="text_17">
    <!-- cCREs with 0 barcodes: 0.24% -->
    <g style="fill: #3d9f95" transform="translate(279.751108 447.637252) scale(0.1 -0.1)">
     <defs>
      <path id="DejaVuSans-63" d="M 3122 3366 
L 3122 2828 
Q 2878 2963 2633 3030 
Q 2388 3097 2138 3097 
Q 1578 3097 1268 2742 
Q 959 2388 959 1747 
Q 959 1106 1268 751 
Q 1578 397 2138 397 
Q 2388 397 2633 464 
Q 2878 531 3122 666 
L 3122 134 
Q 2881 22 2623 -34 
Q 2366 -91 2075 -91 
Q 1284 -91 818 406 
Q 353 903 353 1747 
Q 353 2603 823 3093 
Q 1294 3584 2113 3584 
Q 2378 3584 2631 3529 
Q 2884 3475 3122 3366 
z
" transform="scale(0.015625)"/>
      <path id="DejaVuSans-43" d="M 4122 4306 
L 4122 3641 
Q 3803 3938 3442 4084 
Q 3081 4231 2675 4231 
Q 1875 4231 1450 3742 
Q 1025 3253 1025 2328 
Q 1025 1406 1450 917 
Q 1875 428 2675 428 
Q 3081 428 3442 575 
Q 3803 722 4122 1019 
L 4122 359 
Q 3791 134 3420 21 
Q 3050 -91 2638 -91 
Q 1578 -91 968 557 
Q 359 1206 359 2328 
Q 359 3453 968 4101 
Q 1578 4750 2638 4750 
Q 3056 4750 3426 4639 
Q 3797 4528 4122 4306 
z
" transform="scale(0.015625)"/>
      <path id="DejaVuSans-52" d="M 2841 2188 
Q 3044 2119 3236 1894 
Q 3428 1669 3622 1275 
L 4263 0 
L 3584 0 
L 2988 1197 
Q 2756 1666 2539 1819 
Q 2322 1972 1947 1972 
L 1259 1972 
L 1259 0 
L 628 0 
L 628 4666 
L 2053 4666 
Q 2853 4666 3247 4331 
Q 3641 3997 3641 3322 
Q 3641 2881 3436 2590 
Q 3231 2300 2841 2188 
z
M 1259 4147 
L 1259 2491 
L 2053 2491 
Q 2509 2491 2742 2702 
Q 2975 2913 2975 3322 
Q 2975 3731 2742 3939 
Q 2509 4147 2053 4147 
L 1259 4147 
z
" transform="scale(0.015625)"/>
      <path id="DejaVuSans-45" d="M 628 4666 
L 3578 4666 
L 3578 4134 
L 1259 4134 
L 1259 2753 
L 3481 2753 
L 3481 2222 
L 1259 2222 
L 1259 531 
L 3634 531 
L 3634 0 
L 628 0 
L 628 4666 
z
" transform="scale(0.015625)"/>
      <path id="DejaVuSans-73" d="M 2834 3397 
L 2834 2853 
Q 2591 2978 2328 3040 
Q 2066 3103 1784 3103 
Q 1356 3103 1142 2972 
Q 928 2841 928 2578 
Q 928 2378 1081 2264 
Q 1234 2150 1697 2047 
L 1894 2003 
Q 2506 1872 2764 1633 
Q 3022 1394 3022 966 
Q 3022 478 2636 193 
Q 2250 -91 1575 -91 
Q 1294 -91 989 -36 
Q 684 19 347 128 
L 347 722 
Q 666 556 975 473 
Q 1284 391 1588 391 
Q 1994 391 2212 530 
Q 2431 669 2431 922 
Q 2431 1156 2273 1281 
Q 2116 1406 1581 1522 
L 1381 1569 
Q 847 1681 609 1914 
Q 372 2147 372 2553 
Q 372 3047 722 3315 
Q 1072 3584 1716 3584 
Q 2034 3584 2315 3537 
Q 2597 3491 2834 3397 
z
" transform="scale(0.015625)"/>
      <path id="DejaVuSans-20" transform="scale(0.015625)"/>
      <path id="DejaVuSans-77" d="M 269 3500 
L 844 3500 
L 1563 769 
L 2278 3500 
L 2956 3500 
L 3675 769 
L 4391 3500 
L 4966 3500 
L 4050 0 
L 3372 0 
L 2619 2869 
L 1863 0 
L 1184 0 
L 269 3500 
z
" transform="scale(0.015625)"/>
      <path id="DejaVuSans-69" d="M 603 3500 
L 1178 3500 
L 1178 0 
L 603 0 
L 603 3500 
z
M 603 4863 
L 1178 4863 
L 1178 4134 
L 603 4134 
L 603 4863 
z
" transform="scale(0.015625)"/>
      <path id="DejaVuSans-74" d="M 1172 4494 
L 1172 3500 
L 2356 3500 
L 2356 3053 
L 1172 3053 
L 1172 1153 
Q 1172 725 1289 603 
Q 1406 481 1766 481 
L 2356 481 
L 2356 0 
L 1766 0 
Q 1100 0 847 248 
Q 594 497 594 1153 
L 594 3053 
L 172 3053 
L 172 3500 
L 594 3500 
L 594 4494 
L 1172 4494 
z
" transform="scale(0.015625)"/>
      <path id="DejaVuSans-68" d="M 3513 2113 
L 3513 0 
L 2938 0 
L 2938 2094 
Q 2938 2591 2744 2837 
Q 2550 3084 2163 3084 
Q 1697 3084 1428 2787 
Q 1159 2491 1159 1978 
L 1159 0 
L 581 0 
L 581 4863 
L 1159 4863 
L 1159 2956 
Q 1366 3272 1645 3428 
Q 1925 3584 2291 3584 
Q 2894 3584 3203 3211 
Q 3513 2838 3513 2113 
z
" transform="scale(0.015625)"/>
      <path id="DejaVuSans-62" d="M 3116 1747 
Q 3116 2381 2855 2742 
Q 2594 3103 2138 3103 
Q 1681 3103 1420 2742 
Q 1159 2381 1159 1747 
Q 1159 1113 1420 752 
Q 1681 391 2138 391 
Q 2594 391 2855 752 
Q 3116 1113 3116 1747 
z
M 1159 2969 
Q 1341 3281 1617 3432 
Q 1894 3584 2278 3584 
Q 2916 3584 3314 3078 
Q 3713 2572 3713 1747 
Q 3713 922 3314 415 
Q 2916 -91 2278 -91 
Q 1894 -91 1617 61 
Q 1341 213 1159 525 
L 1159 0 
L 581 0 
L 581 4863 
L 1159 4863 
L 1159 2969 
z
" transform="scale(0.015625)"/>
      <path id="DejaVuSans-61" d="M 2194 1759 
Q 1497 1759 1228 1600 
Q 959 1441 959 1056 
Q 959 750 1161 570 
Q 1363 391 1709 391 
Q 2188 391 2477 730 
Q 2766 1069 2766 1631 
L 2766 1759 
L 2194 1759 
z
M 3341 1997 
L 3341 0 
L 2766 0 
L 2766 531 
Q 2569 213 2275 61 
Q 1981 -91 1556 -91 
Q 1019 -91 701 211 
Q 384 513 384 1019 
Q 384 1609 779 1909 
Q 1175 2209 1959 2209 
L 2766 2209 
L 2766 2266 
Q 2766 2663 2505 2880 
Q 2244 3097 1772 3097 
Q 1472 3097 1187 3025 
Q 903 2953 641 2809 
L 641 3341 
Q 956 3463 1253 3523 
Q 1550 3584 1831 3584 
Q 2591 3584 2966 3190 
Q 3341 2797 3341 1997 
z
" transform="scale(0.015625)"/>
      <path id="DejaVuSans-72" d="M 2631 2963 
Q 2534 3019 2420 3045 
Q 2306 3072 2169 3072 
Q 1681 3072 1420 2755 
Q 1159 2438 1159 1844 
L 1159 0 
L 581 0 
L 581 3500 
L 1159 3500 
L 1159 2956 
Q 1341 3275 1631 3429 
Q 1922 3584 2338 3584 
Q 2397 3584 2469 3576 
Q 2541 3569 2628 3553 
L 2631 2963 
z
" transform="scale(0.015625)"/>
      <path id="DejaVuSans-6f" d="M 1959 3097 
Q 1497 3097 1228 2736 
Q 959 2375 959 1747 
Q 959 1119 1226 758 
Q 1494 397 1959 397 
Q 2419 397 2687 759 
Q 2956 1122 2956 1747 
Q 2956 2369 2687 2733 
Q 2419 3097 1959 3097 
z
M 1959 3584 
Q 2709 3584 3137 3096 
Q 3566 2609 3566 1747 
Q 3566 888 3137 398 
Q 2709 -91 1959 -91 
Q 1206 -91 779 398 
Q 353 888 353 1747 
Q 353 2609 779 3096 
Q 1206 3584 1959 3584 
z
" transform="scale(0.015625)"/>
      <path id="DejaVuSans-64" d="M 2906 2969 
L 2906 4863 
L 3481 4863 
L 3481 0 
L 2906 0 
L 2906 525 
Q 2725 213 2448 61 
Q 2172 -91 1784 -91 
Q 1150 -91 751 415 
Q 353 922 353 1747 
Q 353 2572 751 3078 
Q 1150 3584 1784 3584 
Q 2172 3584 2448 3432 
Q 2725 3281 2906 2969 
z
M 947 1747 
Q 947 1113 1208 752 
Q 1469 391 1925 391 
Q 2381 391 2643 752 
Q 2906 1113 2906 1747 
Q 2906 2381 2643 2742 
Q 2381 3103 1925 3103 
Q 1469 3103 1208 2742 
Q 947 2381 947 1747 
z
" transform="scale(0.015625)"/>
      <path id="DejaVuSans-65" d="M 3597 1894 
L 3597 1613 
L 953 1613 
Q 991 1019 1311 708 
Q 1631 397 2203 397 
Q 2534 397 2845 478 
Q 3156 559 3463 722 
L 3463 178 
Q 3153 47 2828 -22 
Q 2503 -91 2169 -91 
Q 1331 -91 842 396 
Q 353 884 353 1716 
Q 353 2575 817 3079 
Q 1281 3584 2069 3584 
Q 2775 3584 3186 3129 
Q 3597 2675 3597 1894 
z
M 3022 2063 
Q 3016 2534 2758 2815 
Q 2500 3097 2075 3097 
Q 1594 3097 1305 2825 
Q 1016 2553 972 2059 
L 3022 2063 
z
" transform="scale(0.015625)"/>
      <path id="DejaVuSans-3a" d="M 750 794 
L 1409 794 
L 1409 0 
L 750 0 
L 750 794 
z
M 750 3309 
L 1409 3309 
L 1409 2516 
L 750 2516 
L 750 3309 
z
" transform="scale(0.015625)"/>
      <path id="DejaVuSans-2e" d="M 684 794 
L 1344 794 
L 1344 0 
L 684 0 
L 684 794 
z
" transform="scale(0.015625)"/>
     </defs>
     <use xlink:href="#DejaVuSans-63"/>
     <use xlink:href="#DejaVuSans-43" transform="translate(54.980469 0)"/>
     <use xlink:href="#DejaVuSans-52" transform="translate(124.804688 0)"/>
     <use xlink:href="#DejaVuSans-45" transform="translate(194.287109 0)"/>
     <use xlink:href="#DejaVuSans-73" transform="translate(257.470703 0)"/>
     <use xlink:href="#DejaVuSans-20" transform="translate(309.570312 0)"/>
     <use xlink:href="#DejaVuSans-77" transform="translate(341.357422 0)"/>
     <use xlink:href="#DejaVuSans-69" transform="translate(423.144531 0)"/>
     <use xlink:href="#DejaVuSans-74" transform="translate(450.927734 0)"/>
     <use xlink:href="#DejaVuSans-68" transform="translate(490.136719 0)"/>
     <use xlink:href="#DejaVuSans-20" transform="translate(553.515625 0)"/>
     <use xlink:href="#DejaVuSans-30" transform="translate(585.302734 0)"/>
     <use xlink:href="#DejaVuSans-20" transform="translate(648.925781 0)"/>
     <use xlink:href="#DejaVuSans-62" transform="translate(680.712891 0)"/>
     <use xlink:href="#DejaVuSans-61" transform="translate(744.189453 0)"/>
     <use xlink:href="#DejaVuSans-72" transform="translate(805.46875 0)"/>
     <use xlink:href="#DejaVuSans-63" transform="translate(844.332031 0)"/>
     <use xlink:href="#DejaVuSans-6f" transform="translate(899.3125 0)"/>
     <use xlink:href="#DejaVuSans-64" transform="translate(960.494141 0)"/>
     <use xlink:href="#DejaVuSans-65" transform="translate(1023.970703 0)"/>
     <use xlink:href="#DejaVuSans-73" transform="translate(1085.494141 0)"/>
     <use xlink:href="#DejaVuSans-3a" transform="translate(1137.59375 0)"/>
     <use xlink:href="#DejaVuSans-20" transform="translate(1171.285156 0)"/>
     <use xlink:href="#DejaVuSans-30" transform="translate(1203.072266 0)"/>
     <use xlink:href="#DejaVuSans-2e" transform="translate(1266.695312 0)"/>
     <use xlink:href="#DejaVuSans-32" transform="translate(1298.482422 0)"/>
     <use xlink:href="#DejaVuSans-34" transform="translate(1362.105469 0)"/>
     <use xlink:href="#DejaVuSans-25" transform="translate(1425.728516 0)"/>
    </g>
   </g>
   <g id="text_18">
    <!-- cCREs with fewer than 10 barcodes: 1.27% -->
    <g style="fill: #3d9f95" transform="translate(279.751108 429.730028) scale(0.1 -0.1)">
     <defs>
      <path id="DejaVuSans-66" d="M 2375 4863 
L 2375 4384 
L 1825 4384 
Q 1516 4384 1395 4259 
Q 1275 4134 1275 3809 
L 1275 3500 
L 2222 3500 
L 2222 3053 
L 1275 3053 
L 1275 0 
L 697 0 
L 697 3053 
L 147 3053 
L 147 3500 
L 697 3500 
L 697 3744 
Q 697 4328 969 4595 
Q 1241 4863 1831 4863 
L 2375 4863 
z
" transform="scale(0.015625)"/>
      <path id="DejaVuSans-6e" d="M 3513 2113 
L 3513 0 
L 2938 0 
L 2938 2094 
Q 2938 2591 2744 2837 
Q 2550 3084 2163 3084 
Q 1697 3084 1428 2787 
Q 1159 2491 1159 1978 
L 1159 0 
L 581 0 
L 581 3500 
L 1159 3500 
L 1159 2956 
Q 1366 3272 1645 3428 
Q 1925 3584 2291 3584 
Q 2894 3584 3203 3211 
Q 3513 2838 3513 2113 
z
" transform="scale(0.015625)"/>
      <path id="DejaVuSans-37" d="M 525 4666 
L 3525 4666 
L 3525 4397 
L 1831 0 
L 1172 0 
L 2766 4134 
L 525 4134 
L 525 4666 
z
" transform="scale(0.015625)"/>
     </defs>
     <use xlink:href="#DejaVuSans-63"/>
     <use xlink:href="#DejaVuSans-43" transform="translate(54.980469 0)"/>
     <use xlink:href="#DejaVuSans-52" transform="translate(124.804688 0)"/>
     <use xlink:href="#DejaVuSans-45" transform="translate(194.287109 0)"/>
     <use xlink:href="#DejaVuSans-73" transform="translate(257.470703 0)"/>
     <use xlink:href="#DejaVuSans-20" transform="translate(309.570312 0)"/>
     <use xlink:href="#DejaVuSans-77" transform="translate(341.357422 0)"/>
     <use xlink:href="#DejaVuSans-69" transform="translate(423.144531 0)"/>
     <use xlink:href="#DejaVuSans-74" transform="translate(450.927734 0)"/>
     <use xlink:href="#DejaVuSans-68" transform="translate(490.136719 0)"/>
     <use xlink:href="#DejaVuSans-20" transform="translate(553.515625 0)"/>
     <use xlink:href="#DejaVuSans-66" transform="translate(585.302734 0)"/>
     <use xlink:href="#DejaVuSans-65" transform="translate(620.507812 0)"/>
     <use xlink:href="#DejaVuSans-77" transform="translate(682.03125 0)"/>
     <use xlink:href="#DejaVuSans-65" transform="translate(763.818359 0)"/>
     <use xlink:href="#DejaVuSans-72" transform="translate(825.341797 0)"/>
     <use xlink:href="#DejaVuSans-20" transform="translate(866.455078 0)"/>
     <use xlink:href="#DejaVuSans-74" transform="translate(898.242188 0)"/>
     <use xlink:href="#DejaVuSans-68" transform="translate(937.451172 0)"/>
     <use xlink:href="#DejaVuSans-61" transform="translate(1000.830078 0)"/>
     <use xlink:href="#DejaVuSans-6e" transform="translate(1062.109375 0)"/>
     <use xlink:href="#DejaVuSans-20" transform="translate(1125.488281 0)"/>
     <use xlink:href="#DejaVuSans-31" transform="translate(1157.275391 0)"/>
     <use xlink:href="#DejaVuSans-30" transform="translate(1220.898438 0)"/>
     <use xlink:href="#DejaVuSans-20" transform="translate(1284.521484 0)"/>
     <use xlink:href="#DejaVuSans-62" transform="translate(1316.308594 0)"/>
     <use xlink:href="#DejaVuSans-61" transform="translate(1379.785156 0)"/>
     <use xlink:href="#DejaVuSans-72" transform="translate(1441.064453 0)"/>
     <use xlink:href="#DejaVuSans-63" transform="translate(1479.927734 0)"/>
     <use xlink:href="#DejaVuSans-6f" transform="translate(1534.908203 0)"/>
     <use xlink:href="#DejaVuSans-64" transform="translate(1596.089844 0)"/>
     <use xlink:href="#DejaVuSans-65" transform="translate(1659.566406 0)"/>
     <use xlink:href="#DejaVuSans-73" transform="translate(1721.089844 0)"/>
     <use xlink:href="#DejaVuSans-3a" transform="translate(1773.189453 0)"/>
     <use xlink:href="#DejaVuSans-20" transform="translate(1806.880859 0)"/>
     <use xlink:href="#DejaVuSans-31" transform="translate(1838.667969 0)"/>
     <use xlink:href="#DejaVuSans-2e" transform="translate(1902.291016 0)"/>
     <use xlink:href="#DejaVuSans-32" transform="translate(1934.078125 0)"/>
     <use xlink:href="#DejaVuSans-37" transform="translate(1997.701172 0)"/>
     <use xlink:href="#DejaVuSans-25" transform="translate(2061.324219 0)"/>
    </g>
   </g>
   <g id="text_19">
    <!-- Median number of barcodes: 168 -->
    <g style="fill: #227c9d" transform="translate(205.129614 213.622594) scale(0.1 -0.1)">
     <defs>
      <path id="DejaVuSans-4d" d="M 628 4666 
L 1569 4666 
L 2759 1491 
L 3956 4666 
L 4897 4666 
L 4897 0 
L 4281 0 
L 4281 4097 
L 3078 897 
L 2444 897 
L 1241 4097 
L 1241 0 
L 628 0 
L 628 4666 
z
" transform="scale(0.015625)"/>
      <path id="DejaVuSans-75" d="M 544 1381 
L 544 3500 
L 1119 3500 
L 1119 1403 
Q 1119 906 1312 657 
Q 1506 409 1894 409 
Q 2359 409 2629 706 
Q 2900 1003 2900 1516 
L 2900 3500 
L 3475 3500 
L 3475 0 
L 2900 0 
L 2900 538 
Q 2691 219 2414 64 
Q 2138 -91 1772 -91 
Q 1169 -91 856 284 
Q 544 659 544 1381 
z
M 1991 3584 
L 1991 3584 
z
" transform="scale(0.015625)"/>
      <path id="DejaVuSans-6d" d="M 3328 2828 
Q 3544 3216 3844 3400 
Q 4144 3584 4550 3584 
Q 5097 3584 5394 3201 
Q 5691 2819 5691 2113 
L 5691 0 
L 5113 0 
L 5113 2094 
Q 5113 2597 4934 2840 
Q 4756 3084 4391 3084 
Q 3944 3084 3684 2787 
Q 3425 2491 3425 1978 
L 3425 0 
L 2847 0 
L 2847 2094 
Q 2847 2600 2669 2842 
Q 2491 3084 2119 3084 
Q 1678 3084 1418 2786 
Q 1159 2488 1159 1978 
L 1159 0 
L 581 0 
L 581 3500 
L 1159 3500 
L 1159 2956 
Q 1356 3278 1631 3431 
Q 1906 3584 2284 3584 
Q 2666 3584 2933 3390 
Q 3200 3197 3328 2828 
z
" transform="scale(0.015625)"/>
     </defs>
     <use xlink:href="#DejaVuSans-4d"/>
     <use xlink:href="#DejaVuSans-65" transform="translate(86.279297 0)"/>
     <use xlink:href="#DejaVuSans-64" transform="translate(147.802734 0)"/>
     <use xlink:href="#DejaVuSans-69" transform="translate(211.279297 0)"/>
     <use xlink:href="#DejaVuSans-61" transform="translate(239.0625 0)"/>
     <use xlink:href="#DejaVuSans-6e" transform="translate(300.341797 0)"/>
     <use xlink:href="#DejaVuSans-20" transform="translate(363.720703 0)"/>
     <use xlink:href="#DejaVuSans-6e" transform="translate(395.507812 0)"/>
     <use xlink:href="#DejaVuSans-75" transform="translate(458.886719 0)"/>
     <use xlink:href="#DejaVuSans-6d" transform="translate(522.265625 0)"/>
     <use xlink:href="#DejaVuSans-62" transform="translate(619.677734 0)"/>
     <use xlink:href="#DejaVuSans-65" transform="translate(683.154297 0)"/>
     <use xlink:href="#DejaVuSans-72" transform="translate(744.677734 0)"/>
     <use xlink:href="#DejaVuSans-20" transform="translate(785.791016 0)"/>
     <use xlink:href="#DejaVuSans-6f" transform="translate(817.578125 0)"/>
     <use xlink:href="#DejaVuSans-66" transform="translate(878.759766 0)"/>
     <use xlink:href="#DejaVuSans-20" transform="translate(913.964844 0)"/>
     <use xlink:href="#DejaVuSans-62" transform="translate(945.751953 0)"/>
     <use xlink:href="#DejaVuSans-61" transform="translate(1009.228516 0)"/>
     <use xlink:href="#DejaVuSans-72" transform="translate(1070.507812 0)"/>
     <use xlink:href="#DejaVuSans-63" transform="translate(1109.371094 0)"/>
     <use xlink:href="#DejaVuSans-6f" transform="translate(1164.351562 0)"/>
     <use xlink:href="#DejaVuSans-64" transform="translate(1225.533203 0)"/>
     <use xlink:href="#DejaVuSans-65" transform="translate(1289.009766 0)"/>
     <use xlink:href="#DejaVuSans-73" transform="translate(1350.533203 0)"/>
     <use xlink:href="#DejaVuSans-3a" transform="translate(1402.632812 0)"/>
     <use xlink:href="#DejaVuSans-20" transform="translate(1436.324219 0)"/>
     <use xlink:href="#DejaVuSans-31" transform="translate(1468.111328 0)"/>
     <use xlink:href="#DejaVuSans-36" transform="translate(1531.734375 0)"/>
     <use xlink:href="#DejaVuSans-38" transform="translate(1595.357422 0)"/>
    </g>
   </g>
   <g id="text_20">
    <!-- Average number of barcodes: 181 -->
    <g style="fill: #227c9d" transform="translate(212.267767 169.270594) scale(0.1 -0.1)">
     <defs>
      <path id="DejaVuSans-41" d="M 2188 4044 
L 1331 1722 
L 3047 1722 
L 2188 4044 
z
M 1831 4666 
L 2547 4666 
L 4325 0 
L 3669 0 
L 3244 1197 
L 1141 1197 
L 716 0 
L 50 0 
L 1831 4666 
z
" transform="scale(0.015625)"/>
      <path id="DejaVuSans-76" d="M 191 3500 
L 800 3500 
L 1894 563 
L 2988 3500 
L 3597 3500 
L 2284 0 
L 1503 0 
L 191 3500 
z
" transform="scale(0.015625)"/>
      <path id="DejaVuSans-67" d="M 2906 1791 
Q 2906 2416 2648 2759 
Q 2391 3103 1925 3103 
Q 1463 3103 1205 2759 
Q 947 2416 947 1791 
Q 947 1169 1205 825 
Q 1463 481 1925 481 
Q 2391 481 2648 825 
Q 2906 1169 2906 1791 
z
M 3481 434 
Q 3481 -459 3084 -895 
Q 2688 -1331 1869 -1331 
Q 1566 -1331 1297 -1286 
Q 1028 -1241 775 -1147 
L 775 -588 
Q 1028 -725 1275 -790 
Q 1522 -856 1778 -856 
Q 2344 -856 2625 -561 
Q 2906 -266 2906 331 
L 2906 616 
Q 2728 306 2450 153 
Q 2172 0 1784 0 
Q 1141 0 747 490 
Q 353 981 353 1791 
Q 353 2603 747 3093 
Q 1141 3584 1784 3584 
Q 2172 3584 2450 3431 
Q 2728 3278 2906 2969 
L 2906 3500 
L 3481 3500 
L 3481 434 
z
" transform="scale(0.015625)"/>
     </defs>
     <use xlink:href="#DejaVuSans-41"/>
     <use xlink:href="#DejaVuSans-76" transform="translate(62.533203 0)"/>
     <use xlink:href="#DejaVuSans-65" transform="translate(121.712891 0)"/>
     <use xlink:href="#DejaVuSans-72" transform="translate(183.236328 0)"/>
     <use xlink:href="#DejaVuSans-61" transform="translate(224.349609 0)"/>
     <use xlink:href="#DejaVuSans-67" transform="translate(285.628906 0)"/>
     <use xlink:href="#DejaVuSans-65" transform="translate(349.105469 0)"/>
     <use xlink:href="#DejaVuSans-20" transform="translate(410.628906 0)"/>
     <use xlink:href="#DejaVuSans-6e" transform="translate(442.416016 0)"/>
     <use xlink:href="#DejaVuSans-75" transform="translate(505.794922 0)"/>
     <use xlink:href="#DejaVuSans-6d" transform="translate(569.173828 0)"/>
     <use xlink:href="#DejaVuSans-62" transform="translate(666.585938 0)"/>
     <use xlink:href="#DejaVuSans-65" transform="translate(730.0625 0)"/>
     <use xlink:href="#DejaVuSans-72" transform="translate(791.585938 0)"/>
     <use xlink:href="#DejaVuSans-20" transform="translate(832.699219 0)"/>
     <use xlink:href="#DejaVuSans-6f" transform="translate(864.486328 0)"/>
     <use xlink:href="#DejaVuSans-66" transform="translate(925.667969 0)"/>
     <use xlink:href="#DejaVuSans-20" transform="translate(960.873047 0)"/>
     <use xlink:href="#DejaVuSans-62" transform="translate(992.660156 0)"/>
     <use xlink:href="#DejaVuSans-61" transform="translate(1056.136719 0)"/>
     <use xlink:href="#DejaVuSans-72" transform="translate(1117.416016 0)"/>
     <use xlink:href="#DejaVuSans-63" transform="translate(1156.279297 0)"/>
     <use xlink:href="#DejaVuSans-6f" transform="translate(1211.259766 0)"/>
     <use xlink:href="#DejaVuSans-64" transform="translate(1272.441406 0)"/>
     <use xlink:href="#DejaVuSans-65" transform="translate(1335.917969 0)"/>
     <use xlink:href="#DejaVuSans-73" transform="translate(1397.441406 0)"/>
     <use xlink:href="#DejaVuSans-3a" transform="translate(1449.541016 0)"/>
     <use xlink:href="#DejaVuSans-20" transform="translate(1483.232422 0)"/>
     <use xlink:href="#DejaVuSans-31" transform="translate(1515.019531 0)"/>
     <use xlink:href="#DejaVuSans-38" transform="translate(1578.642578 0)"/>
     <use xlink:href="#DejaVuSans-31" transform="translate(1642.265625 0)"/>
    </g>
   </g>
  </g>
 </g>
 <defs>
  <clipPath id="p823d00cf74">
   <rect x="89.016563" y="14.038594" width="446.4" height="443.52"/>
  </clipPath>
 </defs>
</svg>
