<?xml version="1.0" encoding="utf-8" standalone="no"?>
<!DOCTYPE svg PUBLIC "-//W3C//DTD SVG 1.1//EN"
  "http://www.w3.org/Graphics/SVG/1.1/DTD/svg11.dtd">
<svg xmlns:xlink="http://www.w3.org/1999/xlink" width="502.60875pt" height="505.853125pt" viewBox="0 0 502.60875 505.853125" xmlns="http://www.w3.org/2000/svg" version="1.1">
 <metadata>
  <rdf:RDF xmlns:dc="http://purl.org/dc/elements/1.1/" xmlns:cc="http://creativecommons.org/ns#" xmlns:rdf="http://www.w3.org/1999/02/22-rdf-syntax-ns#">
   <cc:Work>
    <dc:type rdf:resource="http://purl.org/dc/dcmitype/StillImage"/>
    <dc:date>2025-12-21T10:15:56.826306</dc:date>
    <dc:format>image/svg+xml</dc:format>
    <dc:creator>
     <cc:Agent>
      <dc:title>Matplotlib v3.10.6, https://matplotlib.org/</dc:title>
     </cc:Agent>
    </dc:creator>
   </cc:Work>
  </rdf:RDF>
 </metadata>
 <defs>
  <style type="text/css">*{stroke-linejoin: round; stroke-linecap: butt}</style>
 </defs>
 <g id="figure_1">
  <g id="patch_1">
   <path d="M 0 505.853125 
L 502.60875 505.853125 
L 502.60875 0 
L 0 0 
L 0 505.853125 
z
" style="fill: none"/>
  </g>
  <g id="axes_1">
   <g id="patch_2">
    <path d="M 49.00875 450.72 
L 495.40875 450.72 
L 495.40875 7.2 
L 49.00875 7.2 
L 49.00875 450.72 
z
" style="fill: none"/>
   </g>
   <g id="matplotlib.axis_1">
    <g id="xtick_1">
     <g id="line2d_1">
      <defs>
       <path id="mc2b192a7ad" d="M 0 0 
L 0 3.5 
" style="stroke: #000000; stroke-width: 0.8"/>
      </defs>
      <g>
       <use xlink:href="#mc2b192a7ad" x="69.292747" y="450.72" style="stroke: #000000; stroke-width: 0.8"/>
      </g>
     </g>
     <g id="text_1">
      <!-- 0 -->
      <g transform="translate(63.566497 471.397187) scale(0.18 -0.18)">
       <defs>
        <path id="DejaVuSans-30" d="M 2034 4250 
Q 1547 4250 1301 3770 
Q 1056 3291 1056 2328 
Q 1056 1369 1301 889 
Q 1547 409 2034 409 
Q 2525 409 2770 889 
Q 3016 1369 3016 2328 
Q 3016 3291 2770 3770 
Q 2525 4250 2034 4250 
z
M 2034 4750 
Q 2819 4750 3233 4129 
Q 3647 3509 3647 2328 
Q 3647 1150 3233 529 
Q 2819 -91 2034 -91 
Q 1250 -91 836 529 
Q 422 1150 422 2328 
Q 422 3509 836 4129 
Q 1250 4750 2034 4750 
z
" transform="scale(0.015625)"/>
       </defs>
       <use xlink:href="#DejaVuSans-30"/>
      </g>
     </g>
    </g>
    <g id="xtick_2">
     <g id="line2d_2">
      <g>
       <use xlink:href="#mc2b192a7ad" x="476.102778" y="450.72" style="stroke: #000000; stroke-width: 0.8"/>
      </g>
     </g>
     <g id="text_2">
      <!-- 1 -->
      <g transform="translate(470.376528 471.397187) scale(0.18 -0.18)">
       <defs>
        <path id="DejaVuSans-31" d="M 794 531 
L 1825 531 
L 1825 4091 
L 703 3866 
L 703 4441 
L 1819 4666 
L 2450 4666 
L 2450 531 
L 3481 531 
L 3481 0 
L 794 0 
L 794 531 
z
" transform="scale(0.015625)"/>
       </defs>
       <use xlink:href="#DejaVuSans-31"/>
      </g>
     </g>
    </g>
    <g id="text_3">
     <!-- cCREs rank by RNA reads -->
     <g transform="translate(130.029063 494.3375) scale(0.2 -0.2)">
      <defs>
       <path id="DejaVuSans-Bold-63" d="M 3366 3391 
L 3366 2478 
Q 3138 2634 2908 2709 
Q 2678 2784 2431 2784 
Q 1963 2784 1702 2511 
Q 1441 2238 1441 1747 
Q 1441 1256 1702 982 
Q 1963 709 2431 709 
Q 2694 709 2930 787 
Q 3166 866 3366 1019 
L 3366 103 
Q 3103 6 2833 -42 
Q 2563 -91 2291 -91 
Q 1344 -91 809 395 
Q 275 881 275 1747 
Q 275 2613 809 3098 
Q 1344 3584 2291 3584 
Q 2566 3584 2833 3536 
Q 3100 3488 3366 3391 
z
" transform="scale(0.015625)"/>
       <path id="DejaVuSans-Bold-43" d="M 4288 256 
Q 3956 84 3597 -3 
Q 3238 -91 2847 -91 
Q 1681 -91 1000 561 
Q 319 1213 319 2328 
Q 319 3447 1000 4098 
Q 1681 4750 2847 4750 
Q 3238 4750 3597 4662 
Q 3956 4575 4288 4403 
L 4288 3438 
Q 3953 3666 3628 3772 
Q 3303 3878 2944 3878 
Q 2300 3878 1931 3465 
Q 1563 3053 1563 2328 
Q 1563 1606 1931 1193 
Q 2300 781 2944 781 
Q 3303 781 3628 887 
Q 3953 994 4288 1222 
L 4288 256 
z
" transform="scale(0.015625)"/>
       <path id="DejaVuSans-Bold-52" d="M 2297 2597 
Q 2675 2597 2839 2737 
Q 3003 2878 3003 3200 
Q 3003 3519 2839 3656 
Q 2675 3794 2297 3794 
L 1791 3794 
L 1791 2597 
L 2297 2597 
z
M 1791 1766 
L 1791 0 
L 588 0 
L 588 4666 
L 2425 4666 
Q 3347 4666 3776 4356 
Q 4206 4047 4206 3378 
Q 4206 2916 3982 2619 
Q 3759 2322 3309 2181 
Q 3556 2125 3751 1926 
Q 3947 1728 4147 1325 
L 4800 0 
L 3519 0 
L 2950 1159 
Q 2778 1509 2601 1637 
Q 2425 1766 2131 1766 
L 1791 1766 
z
" transform="scale(0.015625)"/>
       <path id="DejaVuSans-Bold-45" d="M 588 4666 
L 3834 4666 
L 3834 3756 
L 1791 3756 
L 1791 2888 
L 3713 2888 
L 3713 1978 
L 1791 1978 
L 1791 909 
L 3903 909 
L 3903 0 
L 588 0 
L 588 4666 
z
" transform="scale(0.015625)"/>
       <path id="DejaVuSans-Bold-73" d="M 3272 3391 
L 3272 2541 
Q 2913 2691 2578 2766 
Q 2244 2841 1947 2841 
Q 1628 2841 1473 2761 
Q 1319 2681 1319 2516 
Q 1319 2381 1436 2309 
Q 1553 2238 1856 2203 
L 2053 2175 
Q 2913 2066 3209 1816 
Q 3506 1566 3506 1031 
Q 3506 472 3093 190 
Q 2681 -91 1863 -91 
Q 1516 -91 1145 -36 
Q 775 19 384 128 
L 384 978 
Q 719 816 1070 734 
Q 1422 653 1784 653 
Q 2113 653 2278 743 
Q 2444 834 2444 1013 
Q 2444 1163 2330 1236 
Q 2216 1309 1875 1350 
L 1678 1375 
Q 931 1469 631 1722 
Q 331 1975 331 2491 
Q 331 3047 712 3315 
Q 1094 3584 1881 3584 
Q 2191 3584 2531 3537 
Q 2872 3491 3272 3391 
z
" transform="scale(0.015625)"/>
       <path id="DejaVuSans-Bold-20" transform="scale(0.015625)"/>
       <path id="DejaVuSans-Bold-72" d="M 3138 2547 
Q 2991 2616 2845 2648 
Q 2700 2681 2553 2681 
Q 2122 2681 1889 2404 
Q 1656 2128 1656 1613 
L 1656 0 
L 538 0 
L 538 3500 
L 1656 3500 
L 1656 2925 
Q 1872 3269 2151 3426 
Q 2431 3584 2822 3584 
Q 2878 3584 2943 3579 
Q 3009 3575 3134 3559 
L 3138 2547 
z
" transform="scale(0.015625)"/>
       <path id="DejaVuSans-Bold-61" d="M 2106 1575 
Q 1756 1575 1579 1456 
Q 1403 1338 1403 1106 
Q 1403 894 1545 773 
Q 1688 653 1941 653 
Q 2256 653 2472 879 
Q 2688 1106 2688 1447 
L 2688 1575 
L 2106 1575 
z
M 3816 1997 
L 3816 0 
L 2688 0 
L 2688 519 
Q 2463 200 2181 54 
Q 1900 -91 1497 -91 
Q 953 -91 614 226 
Q 275 544 275 1050 
Q 275 1666 698 1953 
Q 1122 2241 2028 2241 
L 2688 2241 
L 2688 2328 
Q 2688 2594 2478 2717 
Q 2269 2841 1825 2841 
Q 1466 2841 1156 2769 
Q 847 2697 581 2553 
L 581 3406 
Q 941 3494 1303 3539 
Q 1666 3584 2028 3584 
Q 2975 3584 3395 3211 
Q 3816 2838 3816 1997 
z
" transform="scale(0.015625)"/>
       <path id="DejaVuSans-Bold-6e" d="M 4056 2131 
L 4056 0 
L 2931 0 
L 2931 347 
L 2931 1631 
Q 2931 2084 2911 2256 
Q 2891 2428 2841 2509 
Q 2775 2619 2662 2680 
Q 2550 2741 2406 2741 
Q 2056 2741 1856 2470 
Q 1656 2200 1656 1722 
L 1656 0 
L 538 0 
L 538 3500 
L 1656 3500 
L 1656 2988 
Q 1909 3294 2193 3439 
Q 2478 3584 2822 3584 
Q 3428 3584 3742 3212 
Q 4056 2841 4056 2131 
z
" transform="scale(0.015625)"/>
       <path id="DejaVuSans-Bold-6b" d="M 538 4863 
L 1656 4863 
L 1656 2216 
L 2944 3500 
L 4244 3500 
L 2534 1894 
L 4378 0 
L 3022 0 
L 1656 1459 
L 1656 0 
L 538 0 
L 538 4863 
z
" transform="scale(0.015625)"/>
       <path id="DejaVuSans-Bold-62" d="M 2400 722 
Q 2759 722 2948 984 
Q 3138 1247 3138 1747 
Q 3138 2247 2948 2509 
Q 2759 2772 2400 2772 
Q 2041 2772 1848 2508 
Q 1656 2244 1656 1747 
Q 1656 1250 1848 986 
Q 2041 722 2400 722 
z
M 1656 2988 
Q 1888 3294 2169 3439 
Q 2450 3584 2816 3584 
Q 3463 3584 3878 3070 
Q 4294 2556 4294 1747 
Q 4294 938 3878 423 
Q 3463 -91 2816 -91 
Q 2450 -91 2169 54 
Q 1888 200 1656 506 
L 1656 0 
L 538 0 
L 538 4863 
L 1656 4863 
L 1656 2988 
z
" transform="scale(0.015625)"/>
       <path id="DejaVuSans-Bold-79" d="M 78 3500 
L 1197 3500 
L 2138 1125 
L 2938 3500 
L 4056 3500 
L 2584 -331 
Q 2363 -916 2067 -1148 
Q 1772 -1381 1288 -1381 
L 641 -1381 
L 641 -647 
L 991 -647 
Q 1275 -647 1404 -556 
Q 1534 -466 1606 -231 
L 1638 -134 
L 78 3500 
z
" transform="scale(0.015625)"/>
       <path id="DejaVuSans-Bold-4e" d="M 588 4666 
L 1931 4666 
L 3628 1466 
L 3628 4666 
L 4769 4666 
L 4769 0 
L 3425 0 
L 1728 3200 
L 1728 0 
L 588 0 
L 588 4666 
z
" transform="scale(0.015625)"/>
       <path id="DejaVuSans-Bold-41" d="M 3419 850 
L 1538 850 
L 1241 0 
L 31 0 
L 1759 4666 
L 3194 4666 
L 4922 0 
L 3713 0 
L 3419 850 
z
M 1838 1716 
L 3116 1716 
L 2478 3572 
L 1838 1716 
z
" transform="scale(0.015625)"/>
       <path id="DejaVuSans-Bold-65" d="M 4031 1759 
L 4031 1441 
L 1416 1441 
Q 1456 1047 1700 850 
Q 1944 653 2381 653 
Q 2734 653 3104 758 
Q 3475 863 3866 1075 
L 3866 213 
Q 3469 63 3072 -14 
Q 2675 -91 2278 -91 
Q 1328 -91 801 392 
Q 275 875 275 1747 
Q 275 2603 792 3093 
Q 1309 3584 2216 3584 
Q 3041 3584 3536 3087 
Q 4031 2591 4031 1759 
z
M 2881 2131 
Q 2881 2450 2695 2645 
Q 2509 2841 2209 2841 
Q 1884 2841 1681 2658 
Q 1478 2475 1428 2131 
L 2881 2131 
z
" transform="scale(0.015625)"/>
       <path id="DejaVuSans-Bold-64" d="M 2919 2988 
L 2919 4863 
L 4044 4863 
L 4044 0 
L 2919 0 
L 2919 506 
Q 2688 197 2409 53 
Q 2131 -91 1766 -91 
Q 1119 -91 703 423 
Q 288 938 288 1747 
Q 288 2556 703 3070 
Q 1119 3584 1766 3584 
Q 2128 3584 2408 3439 
Q 2688 3294 2919 2988 
z
M 2181 722 
Q 2541 722 2730 984 
Q 2919 1247 2919 1747 
Q 2919 2247 2730 2509 
Q 2541 2772 2181 2772 
Q 1825 2772 1636 2509 
Q 1447 2247 1447 1747 
Q 1447 1247 1636 984 
Q 1825 722 2181 722 
z
" transform="scale(0.015625)"/>
      </defs>
      <use xlink:href="#DejaVuSans-Bold-63"/>
      <use xlink:href="#DejaVuSans-Bold-43" transform="translate(59.277344 0)"/>
      <use xlink:href="#DejaVuSans-Bold-52" transform="translate(132.666016 0)"/>
      <use xlink:href="#DejaVuSans-Bold-45" transform="translate(209.667969 0)"/>
      <use xlink:href="#DejaVuSans-Bold-73" transform="translate(277.978516 0)"/>
      <use xlink:href="#DejaVuSans-Bold-20" transform="translate(337.5 0)"/>
      <use xlink:href="#DejaVuSans-Bold-72" transform="translate(372.314453 0)"/>
      <use xlink:href="#DejaVuSans-Bold-61" transform="translate(421.630859 0)"/>
      <use xlink:href="#DejaVuSans-Bold-6e" transform="translate(489.111328 0)"/>
      <use xlink:href="#DejaVuSans-Bold-6b" transform="translate(560.302734 0)"/>
      <use xlink:href="#DejaVuSans-Bold-20" transform="translate(626.806641 0)"/>
      <use xlink:href="#DejaVuSans-Bold-62" transform="translate(661.621094 0)"/>
      <use xlink:href="#DejaVuSans-Bold-79" transform="translate(733.203125 0)"/>
      <use xlink:href="#DejaVuSans-Bold-20" transform="translate(798.388672 0)"/>
      <use xlink:href="#DejaVuSans-Bold-52" transform="translate(833.203125 0)"/>
      <use xlink:href="#DejaVuSans-Bold-4e" transform="translate(910.205078 0)"/>
      <use xlink:href="#DejaVuSans-Bold-41" transform="translate(993.896484 0)"/>
      <use xlink:href="#DejaVuSans-Bold-20" transform="translate(1071.289062 0)"/>
      <use xlink:href="#DejaVuSans-Bold-72" transform="translate(1106.103516 0)"/>
      <use xlink:href="#DejaVuSans-Bold-65" transform="translate(1155.419922 0)"/>
      <use xlink:href="#DejaVuSans-Bold-61" transform="translate(1223.242188 0)"/>
      <use xlink:href="#DejaVuSans-Bold-64" transform="translate(1290.722656 0)"/>
      <use xlink:href="#DejaVuSans-Bold-73" transform="translate(1362.304688 0)"/>
     </g>
    </g>
   </g>
   <g id="matplotlib.axis_2">
    <g id="ytick_1">
     <g id="line2d_3">
      <defs>
       <path id="m89d91283a0" d="M 0 0 
L -3.5 0 
" style="stroke: #000000; stroke-width: 0.8"/>
      </defs>
      <g>
       <use xlink:href="#m89d91283a0" x="49.00875" y="432.452325" style="stroke: #000000; stroke-width: 0.8"/>
      </g>
     </g>
     <g id="text_4">
      <!-- 0 -->
      <g transform="translate(30.55625 439.290919) scale(0.18 -0.18)">
       <use xlink:href="#DejaVuSans-30"/>
      </g>
     </g>
    </g>
    <g id="ytick_2">
     <g id="line2d_4">
      <g>
       <use xlink:href="#m89d91283a0" x="49.00875" y="27.36" style="stroke: #000000; stroke-width: 0.8"/>
      </g>
     </g>
     <g id="text_5">
      <!-- 1 -->
      <g transform="translate(30.55625 34.198594) scale(0.18 -0.18)">
       <use xlink:href="#DejaVuSans-31"/>
      </g>
     </g>
    </g>
    <g id="text_6">
     <!-- Cumulative fraction of RNA reads -->
     <g transform="translate(22.396875 417.3225) rotate(-90) scale(0.2 -0.2)">
      <defs>
       <path id="DejaVuSans-Bold-75" d="M 500 1363 
L 500 3500 
L 1625 3500 
L 1625 3150 
Q 1625 2866 1622 2436 
Q 1619 2006 1619 1863 
Q 1619 1441 1641 1255 
Q 1663 1069 1716 984 
Q 1784 875 1895 815 
Q 2006 756 2150 756 
Q 2500 756 2700 1025 
Q 2900 1294 2900 1772 
L 2900 3500 
L 4019 3500 
L 4019 0 
L 2900 0 
L 2900 506 
Q 2647 200 2364 54 
Q 2081 -91 1741 -91 
Q 1134 -91 817 281 
Q 500 653 500 1363 
z
" transform="scale(0.015625)"/>
       <path id="DejaVuSans-Bold-6d" d="M 3781 2919 
Q 3994 3244 4286 3414 
Q 4578 3584 4928 3584 
Q 5531 3584 5847 3212 
Q 6163 2841 6163 2131 
L 6163 0 
L 5038 0 
L 5038 1825 
Q 5041 1866 5042 1909 
Q 5044 1953 5044 2034 
Q 5044 2406 4934 2573 
Q 4825 2741 4581 2741 
Q 4263 2741 4089 2478 
Q 3916 2216 3909 1719 
L 3909 0 
L 2784 0 
L 2784 1825 
Q 2784 2406 2684 2573 
Q 2584 2741 2328 2741 
Q 2006 2741 1831 2477 
Q 1656 2213 1656 1722 
L 1656 0 
L 531 0 
L 531 3500 
L 1656 3500 
L 1656 2988 
Q 1863 3284 2130 3434 
Q 2397 3584 2719 3584 
Q 3081 3584 3359 3409 
Q 3638 3234 3781 2919 
z
" transform="scale(0.015625)"/>
       <path id="DejaVuSans-Bold-6c" d="M 538 4863 
L 1656 4863 
L 1656 0 
L 538 0 
L 538 4863 
z
" transform="scale(0.015625)"/>
       <path id="DejaVuSans-Bold-74" d="M 1759 4494 
L 1759 3500 
L 2913 3500 
L 2913 2700 
L 1759 2700 
L 1759 1216 
Q 1759 972 1856 886 
Q 1953 800 2241 800 
L 2816 800 
L 2816 0 
L 1856 0 
Q 1194 0 917 276 
Q 641 553 641 1216 
L 641 2700 
L 84 2700 
L 84 3500 
L 641 3500 
L 641 4494 
L 1759 4494 
z
" transform="scale(0.015625)"/>
       <path id="DejaVuSans-Bold-69" d="M 538 3500 
L 1656 3500 
L 1656 0 
L 538 0 
L 538 3500 
z
M 538 4863 
L 1656 4863 
L 1656 3950 
L 538 3950 
L 538 4863 
z
" transform="scale(0.015625)"/>
       <path id="DejaVuSans-Bold-76" d="M 97 3500 
L 1216 3500 
L 2088 1081 
L 2956 3500 
L 4078 3500 
L 2700 0 
L 1472 0 
L 97 3500 
z
" transform="scale(0.015625)"/>
       <path id="DejaVuSans-Bold-66" d="M 2841 4863 
L 2841 4128 
L 2222 4128 
Q 1984 4128 1890 4042 
Q 1797 3956 1797 3744 
L 1797 3500 
L 2753 3500 
L 2753 2700 
L 1797 2700 
L 1797 0 
L 678 0 
L 678 2700 
L 122 2700 
L 122 3500 
L 678 3500 
L 678 3744 
Q 678 4316 997 4589 
Q 1316 4863 1984 4863 
L 2841 4863 
z
" transform="scale(0.015625)"/>
       <path id="DejaVuSans-Bold-6f" d="M 2203 2784 
Q 1831 2784 1636 2517 
Q 1441 2250 1441 1747 
Q 1441 1244 1636 976 
Q 1831 709 2203 709 
Q 2569 709 2762 976 
Q 2956 1244 2956 1747 
Q 2956 2250 2762 2517 
Q 2569 2784 2203 2784 
z
M 2203 3584 
Q 3106 3584 3614 3096 
Q 4122 2609 4122 1747 
Q 4122 884 3614 396 
Q 3106 -91 2203 -91 
Q 1297 -91 786 396 
Q 275 884 275 1747 
Q 275 2609 786 3096 
Q 1297 3584 2203 3584 
z
" transform="scale(0.015625)"/>
      </defs>
      <use xlink:href="#DejaVuSans-Bold-43"/>
      <use xlink:href="#DejaVuSans-Bold-75" transform="translate(73.388672 0)"/>
      <use xlink:href="#DejaVuSans-Bold-6d" transform="translate(144.580078 0)"/>
      <use xlink:href="#DejaVuSans-Bold-75" transform="translate(248.779297 0)"/>
      <use xlink:href="#DejaVuSans-Bold-6c" transform="translate(319.970703 0)"/>
      <use xlink:href="#DejaVuSans-Bold-61" transform="translate(354.248047 0)"/>
      <use xlink:href="#DejaVuSans-Bold-74" transform="translate(421.728516 0)"/>
      <use xlink:href="#DejaVuSans-Bold-69" transform="translate(469.53125 0)"/>
      <use xlink:href="#DejaVuSans-Bold-76" transform="translate(503.808594 0)"/>
      <use xlink:href="#DejaVuSans-Bold-65" transform="translate(568.994141 0)"/>
      <use xlink:href="#DejaVuSans-Bold-20" transform="translate(636.816406 0)"/>
      <use xlink:href="#DejaVuSans-Bold-66" transform="translate(671.630859 0)"/>
      <use xlink:href="#DejaVuSans-Bold-72" transform="translate(715.136719 0)"/>
      <use xlink:href="#DejaVuSans-Bold-61" transform="translate(764.453125 0)"/>
      <use xlink:href="#DejaVuSans-Bold-63" transform="translate(831.933594 0)"/>
      <use xlink:href="#DejaVuSans-Bold-74" transform="translate(891.210938 0)"/>
      <use xlink:href="#DejaVuSans-Bold-69" transform="translate(939.013672 0)"/>
      <use xlink:href="#DejaVuSans-Bold-6f" transform="translate(973.291016 0)"/>
      <use xlink:href="#DejaVuSans-Bold-6e" transform="translate(1041.992188 0)"/>
      <use xlink:href="#DejaVuSans-Bold-20" transform="translate(1113.183594 0)"/>
      <use xlink:href="#DejaVuSans-Bold-6f" transform="translate(1147.998047 0)"/>
      <use xlink:href="#DejaVuSans-Bold-66" transform="translate(1216.699219 0)"/>
      <use xlink:href="#DejaVuSans-Bold-20" transform="translate(1260.205078 0)"/>
      <use xlink:href="#DejaVuSans-Bold-52" transform="translate(1295.019531 0)"/>
      <use xlink:href="#DejaVuSans-Bold-4e" transform="translate(1372.021484 0)"/>
      <use xlink:href="#DejaVuSans-Bold-41" transform="translate(1455.712891 0)"/>
      <use xlink:href="#DejaVuSans-Bold-20" transform="translate(1533.105469 0)"/>
      <use xlink:href="#DejaVuSans-Bold-72" transform="translate(1567.919922 0)"/>
      <use xlink:href="#DejaVuSans-Bold-65" transform="translate(1617.236328 0)"/>
      <use xlink:href="#DejaVuSans-Bold-61" transform="translate(1685.058594 0)"/>
      <use xlink:href="#DejaVuSans-Bold-64" transform="translate(1752.539062 0)"/>
      <use xlink:href="#DejaVuSans-Bold-73" transform="translate(1824.121094 0)"/>
     </g>
    </g>
   </g>
   <g id="line2d_5">
    <path d="M 69.299659 430.56 
L 69.507014 405.345662 
L 69.859518 389.172417 
L 70.398641 373.716522 
L 71.152032 358.949653 
L 71.884686 348.503237 
L 72.776313 338.765317 
L 73.792354 330.035706 
L 74.939719 322.105016 
L 76.170026 315.008564 
L 77.683718 307.613459 
L 79.411678 300.278874 
L 81.312433 293.240859 
L 83.441279 286.252153 
L 85.632332 279.784559 
L 85.88807 279.070921 
L 88.41089 272.387481 
L 88.666628 271.740313 
L 91.507394 264.872239 
L 94.742134 257.594979 
L 98.191141 250.371832 
L 101.971916 242.981538 
L 102.255301 242.44759 
L 106.181225 235.306984 
L 110.466564 227.958096 
L 114.993818 220.63029 
L 119.915046 213.098217 
L 125.237161 205.388155 
L 130.697513 197.872025 
L 136.233895 190.63601 
L 142.074398 183.381231 
L 142.426902 182.95446 
L 148.481672 175.80907 
L 154.633207 168.8972 
L 161.019745 162.052744 
L 167.834817 155.074793 
L 174.566947 148.493879 
L 181.582462 141.943046 
L 188.888275 135.42891 
L 196.456737 128.980862 
L 204.156524 122.713509 
L 212.008372 116.609844 
L 212.499112 116.237813 
L 220.558315 110.276703 
L 228.493105 104.678081 
L 236.821869 99.07833 
L 245.143722 93.751338 
L 253.520869 88.656379 
L 253.907932 88.426781 
L 262.616847 83.395555 
L 271.519294 78.513511 
L 280.297328 73.946088 
L 289.282717 69.52321 
L 298.579139 65.196071 
L 307.654382 61.215107 
L 308.186593 60.988936 
L 317.054481 57.347141 
L 317.925372 57.001927 
L 326.966056 53.551662 
L 336.221007 50.258774 
L 337.223223 49.916362 
L 346.713176 46.803613 
L 355.843714 44.03597 
L 365.416609 41.368415 
L 375.058623 38.913966 
L 384.555488 36.727334 
L 386.138298 36.38532 
L 395.503839 34.493845 
L 404.973056 32.80558 
L 414.207271 31.381526 
L 423.476046 30.177218 
L 432.710261 29.203106 
L 442.055065 28.440998 
L 451.621049 27.887984 
L 461.85748 27.523015 
L 472.674506 27.364091 
L 475.117841 27.36 
L 475.117841 27.36 
" clip-path="url(#p617142415f)" style="fill: none; stroke: #ffc25f; stroke-width: 5; stroke-linecap: square"/>
   </g>
   <g id="patch_3">
    <path d="M 49.00875 450.72 
L 49.00875 7.2 
" style="fill: none; stroke: #000000; stroke-linejoin: miter; stroke-linecap: square"/>
   </g>
   <g id="patch_4">
    <path d="M 49.00875 450.72 
L 495.40875 450.72 
" style="fill: none; stroke: #000000; stroke-linejoin: miter; stroke-linecap: square"/>
   </g>
  </g>
 </g>
 <defs>
  <clipPath id="p617142415f">
   <rect x="49.00875" y="7.2" width="446.4" height="443.52"/>
  </clipPath>
 </defs>
</svg>
