<?xml version="1.0" encoding="utf-8" standalone="no"?>
<!DOCTYPE svg PUBLIC "-//W3C//DTD SVG 1.1//EN"
  "http://www.w3.org/Graphics/SVG/1.1/DTD/svg11.dtd">
<svg xmlns:xlink="http://www.w3.org/1999/xlink" width="624.585pt" height="507.733093pt" viewBox="0 0 624.585 507.733093" xmlns="http://www.w3.org/2000/svg" version="1.1">
 <metadata>
  <rdf:RDF xmlns:dc="http://purl.org/dc/elements/1.1/" xmlns:cc="http://creativecommons.org/ns#" xmlns:rdf="http://www.w3.org/1999/02/22-rdf-syntax-ns#">
   <cc:Work>
    <dc:type rdf:resource="http://purl.org/dc/dcmitype/StillImage"/>
    <dc:date>2026-05-04T13:34:36.610405</dc:date>
    <dc:format>image/svg+xml</dc:format>
    <dc:creator>
     <cc:Agent>
      <dc:title>Matplotlib v3.10.8, https://matplotlib.org/</dc:title>
     </cc:Agent>
    </dc:creator>
   </cc:Work>
  </rdf:RDF>
 </metadata>
 <defs>
  <style type="text/css">*{stroke-linejoin: round; stroke-linecap: butt}</style>
 </defs>
 <g id="figure_1">
  <g id="patch_1">
   <path d="M 0 507.733093 
L 624.585 507.733093 
L 624.585 0 
L 0 0 
L 0 507.733093 
z
" style="fill: none"/>
  </g>
  <g id="axes_1">
   <g id="patch_2">
    <path d="M 83.36625 452.756218 
L 529.76625 452.756218 
L 529.76625 9.236218 
L 83.36625 9.236218 
L 83.36625 452.756218 
z
" style="fill: none"/>
   </g>
   <g id="matplotlib.axis_1">
    <g id="xtick_1">
     <g id="line2d_1">
      <defs>
       <path id="mf2f66d27ed" d="M 0 0 
L 0 3.5 
" style="stroke: #000000; stroke-width: 0.8"/>
      </defs>
      <g>
       <use xlink:href="#mf2f66d27ed" x="83.36625" y="452.756218" style="stroke: #000000; stroke-width: 0.8"/>
      </g>
     </g>
     <g id="text_1">
      <!-- 0 -->
      <g transform="translate(77.64 473.433406) scale(0.18 -0.18)">
       <defs>
        <path id="DejaVuSans-30" d="M 2034 4250 
Q 1547 4250 1301 3770 
Q 1056 3291 1056 2328 
Q 1056 1369 1301 889 
Q 1547 409 2034 409 
Q 2525 409 2770 889 
Q 3016 1369 3016 2328 
Q 3016 3291 2770 3770 
Q 2525 4250 2034 4250 
z
M 2034 4750 
Q 2819 4750 3233 4129 
Q 3647 3509 3647 2328 
Q 3647 1150 3233 529 
Q 2819 -91 2034 -91 
Q 1250 -91 836 529 
Q 422 1150 422 2328 
Q 422 3509 836 4129 
Q 1250 4750 2034 4750 
z
" transform="scale(0.015625)"/>
       </defs>
       <use xlink:href="#DejaVuSans-30"/>
      </g>
     </g>
    </g>
    <g id="xtick_2">
     <g id="line2d_2">
      <g>
       <use xlink:href="#mf2f66d27ed" x="529.76625" y="452.756218" style="stroke: #000000; stroke-width: 0.8"/>
      </g>
     </g>
     <g id="text_2">
      <!-- 100 -->
      <g transform="translate(512.5875 473.433406) scale(0.18 -0.18)">
       <defs>
        <path id="DejaVuSans-31" d="M 794 531 
L 1825 531 
L 1825 4091 
L 703 3866 
L 703 4441 
L 1819 4666 
L 2450 4666 
L 2450 531 
L 3481 531 
L 3481 0 
L 794 0 
L 794 531 
z
" transform="scale(0.015625)"/>
       </defs>
       <use xlink:href="#DejaVuSans-31"/>
       <use xlink:href="#DejaVuSans-30" transform="translate(63.623047 0)"/>
       <use xlink:href="#DejaVuSans-30" transform="translate(127.246094 0)"/>
      </g>
     </g>
    </g>
    <g id="text_3">
     <!-- %GC -->
     <g transform="translate(280.999062 496.373718) scale(0.2 -0.2)">
      <defs>
       <path id="DejaVuSans-Bold-25" d="M 4959 1925 
Q 4738 1925 4616 1733 
Q 4494 1541 4494 1184 
Q 4494 825 4614 633 
Q 4734 441 4959 441 
Q 5184 441 5303 633 
Q 5422 825 5422 1184 
Q 5422 1541 5301 1733 
Q 5181 1925 4959 1925 
z
M 4959 2450 
Q 5541 2450 5875 2112 
Q 6209 1775 6209 1184 
Q 6209 594 5875 251 
Q 5541 -91 4959 -91 
Q 4378 -91 4042 251 
Q 3706 594 3706 1184 
Q 3706 1772 4042 2111 
Q 4378 2450 4959 2450 
z
M 2094 -91 
L 1403 -91 
L 4319 4750 
L 5013 4750 
L 2094 -91 
z
M 1453 4750 
Q 2034 4750 2367 4411 
Q 2700 4072 2700 3481 
Q 2700 2891 2367 2550 
Q 2034 2209 1453 2209 
Q 872 2209 539 2550 
Q 206 2891 206 3481 
Q 206 4072 539 4411 
Q 872 4750 1453 4750 
z
M 1453 4225 
Q 1228 4225 1106 4031 
Q 984 3838 984 3481 
Q 984 3122 1106 2926 
Q 1228 2731 1453 2731 
Q 1678 2731 1798 2926 
Q 1919 3122 1919 3481 
Q 1919 3838 1797 4031 
Q 1675 4225 1453 4225 
z
" transform="scale(0.015625)"/>
       <path id="DejaVuSans-Bold-47" d="M 4781 347 
Q 4331 128 3847 18 
Q 3363 -91 2847 -91 
Q 1681 -91 1000 561 
Q 319 1213 319 2328 
Q 319 3456 1012 4103 
Q 1706 4750 2913 4750 
Q 3378 4750 3804 4662 
Q 4231 4575 4609 4403 
L 4609 3438 
Q 4219 3659 3833 3768 
Q 3447 3878 3059 3878 
Q 2341 3878 1952 3476 
Q 1563 3075 1563 2328 
Q 1563 1588 1938 1184 
Q 2313 781 3003 781 
Q 3191 781 3352 804 
Q 3513 828 3641 878 
L 3641 1784 
L 2906 1784 
L 2906 2591 
L 4781 2591 
L 4781 347 
z
" transform="scale(0.015625)"/>
       <path id="DejaVuSans-Bold-43" d="M 4288 256 
Q 3956 84 3597 -3 
Q 3238 -91 2847 -91 
Q 1681 -91 1000 561 
Q 319 1213 319 2328 
Q 319 3447 1000 4098 
Q 1681 4750 2847 4750 
Q 3238 4750 3597 4662 
Q 3956 4575 4288 4403 
L 4288 3438 
Q 3953 3666 3628 3772 
Q 3303 3878 2944 3878 
Q 2300 3878 1931 3465 
Q 1563 3053 1563 2328 
Q 1563 1606 1931 1193 
Q 2300 781 2944 781 
Q 3303 781 3628 887 
Q 3953 994 4288 1222 
L 4288 256 
z
" transform="scale(0.015625)"/>
      </defs>
      <use xlink:href="#DejaVuSans-Bold-25"/>
      <use xlink:href="#DejaVuSans-Bold-47" transform="translate(100.195312 0)"/>
      <use xlink:href="#DejaVuSans-Bold-43" transform="translate(182.275391 0)"/>
     </g>
    </g>
   </g>
   <g id="matplotlib.axis_2">
    <g id="ytick_1">
     <g id="line2d_3">
      <defs>
       <path id="mfad8ba50c7" d="M 0 0 
L -3.5 0 
" style="stroke: #ffc25f; stroke-width: 0.8"/>
      </defs>
      <g>
       <use xlink:href="#mfad8ba50c7" x="83.36625" y="432.596218" style="fill: #ffc25f; stroke: #ffc25f; stroke-width: 0.8"/>
      </g>
     </g>
     <g id="text_4">
      <!-- 0 -->
      <g style="fill: #ffc25f" transform="translate(64.91375 439.434812) scale(0.18 -0.18)">
       <use xlink:href="#DejaVuSans-30"/>
      </g>
     </g>
    </g>
    <g id="ytick_2">
     <g id="line2d_4">
      <g>
       <use xlink:href="#mfad8ba50c7" x="83.36625" y="380.276515" style="fill: #ffc25f; stroke: #ffc25f; stroke-width: 0.8"/>
      </g>
     </g>
     <g id="text_5">
      <!-- 200 -->
      <g style="fill: #ffc25f" transform="translate(42.00875 387.115109) scale(0.18 -0.18)">
       <defs>
        <path id="DejaVuSans-32" d="M 1228 531 
L 3431 531 
L 3431 0 
L 469 0 
L 469 531 
Q 828 903 1448 1529 
Q 2069 2156 2228 2338 
Q 2531 2678 2651 2914 
Q 2772 3150 2772 3378 
Q 2772 3750 2511 3984 
Q 2250 4219 1831 4219 
Q 1534 4219 1204 4116 
Q 875 4013 500 3803 
L 500 4441 
Q 881 4594 1212 4672 
Q 1544 4750 1819 4750 
Q 2544 4750 2975 4387 
Q 3406 4025 3406 3419 
Q 3406 3131 3298 2873 
Q 3191 2616 2906 2266 
Q 2828 2175 2409 1742 
Q 1991 1309 1228 531 
z
" transform="scale(0.015625)"/>
       </defs>
       <use xlink:href="#DejaVuSans-32"/>
       <use xlink:href="#DejaVuSans-30" transform="translate(63.623047 0)"/>
       <use xlink:href="#DejaVuSans-30" transform="translate(127.246094 0)"/>
      </g>
     </g>
    </g>
    <g id="ytick_3">
     <g id="line2d_5">
      <g>
       <use xlink:href="#mfad8ba50c7" x="83.36625" y="327.956812" style="fill: #ffc25f; stroke: #ffc25f; stroke-width: 0.8"/>
      </g>
     </g>
     <g id="text_6">
      <!-- 400 -->
      <g style="fill: #ffc25f" transform="translate(42.00875 334.795406) scale(0.18 -0.18)">
       <defs>
        <path id="DejaVuSans-34" d="M 2419 4116 
L 825 1625 
L 2419 1625 
L 2419 4116 
z
M 2253 4666 
L 3047 4666 
L 3047 1625 
L 3713 1625 
L 3713 1100 
L 3047 1100 
L 3047 0 
L 2419 0 
L 2419 1100 
L 313 1100 
L 313 1709 
L 2253 4666 
z
" transform="scale(0.015625)"/>
       </defs>
       <use xlink:href="#DejaVuSans-34"/>
       <use xlink:href="#DejaVuSans-30" transform="translate(63.623047 0)"/>
       <use xlink:href="#DejaVuSans-30" transform="translate(127.246094 0)"/>
      </g>
     </g>
    </g>
    <g id="ytick_4">
     <g id="line2d_6">
      <g>
       <use xlink:href="#mfad8ba50c7" x="83.36625" y="275.637109" style="fill: #ffc25f; stroke: #ffc25f; stroke-width: 0.8"/>
      </g>
     </g>
     <g id="text_7">
      <!-- 600 -->
      <g style="fill: #ffc25f" transform="translate(42.00875 282.475703) scale(0.18 -0.18)">
       <defs>
        <path id="DejaVuSans-36" d="M 2113 2584 
Q 1688 2584 1439 2293 
Q 1191 2003 1191 1497 
Q 1191 994 1439 701 
Q 1688 409 2113 409 
Q 2538 409 2786 701 
Q 3034 994 3034 1497 
Q 3034 2003 2786 2293 
Q 2538 2584 2113 2584 
z
M 3366 4563 
L 3366 3988 
Q 3128 4100 2886 4159 
Q 2644 4219 2406 4219 
Q 1781 4219 1451 3797 
Q 1122 3375 1075 2522 
Q 1259 2794 1537 2939 
Q 1816 3084 2150 3084 
Q 2853 3084 3261 2657 
Q 3669 2231 3669 1497 
Q 3669 778 3244 343 
Q 2819 -91 2113 -91 
Q 1303 -91 875 529 
Q 447 1150 447 2328 
Q 447 3434 972 4092 
Q 1497 4750 2381 4750 
Q 2619 4750 2861 4703 
Q 3103 4656 3366 4563 
z
" transform="scale(0.015625)"/>
       </defs>
       <use xlink:href="#DejaVuSans-36"/>
       <use xlink:href="#DejaVuSans-30" transform="translate(63.623047 0)"/>
       <use xlink:href="#DejaVuSans-30" transform="translate(127.246094 0)"/>
      </g>
     </g>
    </g>
    <g id="ytick_5">
     <g id="line2d_7">
      <g>
       <use xlink:href="#mfad8ba50c7" x="83.36625" y="223.317406" style="fill: #ffc25f; stroke: #ffc25f; stroke-width: 0.8"/>
      </g>
     </g>
     <g id="text_8">
      <!-- 800 -->
      <g style="fill: #ffc25f" transform="translate(42.00875 230.156) scale(0.18 -0.18)">
       <defs>
        <path id="DejaVuSans-38" d="M 2034 2216 
Q 1584 2216 1326 1975 
Q 1069 1734 1069 1313 
Q 1069 891 1326 650 
Q 1584 409 2034 409 
Q 2484 409 2743 651 
Q 3003 894 3003 1313 
Q 3003 1734 2745 1975 
Q 2488 2216 2034 2216 
z
M 1403 2484 
Q 997 2584 770 2862 
Q 544 3141 544 3541 
Q 544 4100 942 4425 
Q 1341 4750 2034 4750 
Q 2731 4750 3128 4425 
Q 3525 4100 3525 3541 
Q 3525 3141 3298 2862 
Q 3072 2584 2669 2484 
Q 3125 2378 3379 2068 
Q 3634 1759 3634 1313 
Q 3634 634 3220 271 
Q 2806 -91 2034 -91 
Q 1263 -91 848 271 
Q 434 634 434 1313 
Q 434 1759 690 2068 
Q 947 2378 1403 2484 
z
M 1172 3481 
Q 1172 3119 1398 2916 
Q 1625 2713 2034 2713 
Q 2441 2713 2670 2916 
Q 2900 3119 2900 3481 
Q 2900 3844 2670 4047 
Q 2441 4250 2034 4250 
Q 1625 4250 1398 4047 
Q 1172 3844 1172 3481 
z
" transform="scale(0.015625)"/>
       </defs>
       <use xlink:href="#DejaVuSans-38"/>
       <use xlink:href="#DejaVuSans-30" transform="translate(63.623047 0)"/>
       <use xlink:href="#DejaVuSans-30" transform="translate(127.246094 0)"/>
      </g>
     </g>
    </g>
    <g id="ytick_6">
     <g id="line2d_8">
      <g>
       <use xlink:href="#mfad8ba50c7" x="83.36625" y="170.997703" style="fill: #ffc25f; stroke: #ffc25f; stroke-width: 0.8"/>
      </g>
     </g>
     <g id="text_9">
      <!-- 1000 -->
      <g style="fill: #ffc25f" transform="translate(30.55625 177.836297) scale(0.18 -0.18)">
       <use xlink:href="#DejaVuSans-31"/>
       <use xlink:href="#DejaVuSans-30" transform="translate(63.623047 0)"/>
       <use xlink:href="#DejaVuSans-30" transform="translate(127.246094 0)"/>
       <use xlink:href="#DejaVuSans-30" transform="translate(190.869141 0)"/>
      </g>
     </g>
    </g>
    <g id="ytick_7">
     <g id="line2d_9">
      <g>
       <use xlink:href="#mfad8ba50c7" x="83.36625" y="118.678" style="fill: #ffc25f; stroke: #ffc25f; stroke-width: 0.8"/>
      </g>
     </g>
     <g id="text_10">
      <!-- 1200 -->
      <g style="fill: #ffc25f" transform="translate(30.55625 125.516594) scale(0.18 -0.18)">
       <use xlink:href="#DejaVuSans-31"/>
       <use xlink:href="#DejaVuSans-32" transform="translate(63.623047 0)"/>
       <use xlink:href="#DejaVuSans-30" transform="translate(127.246094 0)"/>
       <use xlink:href="#DejaVuSans-30" transform="translate(190.869141 0)"/>
      </g>
     </g>
    </g>
    <g id="ytick_8">
     <g id="line2d_10">
      <g>
       <use xlink:href="#mfad8ba50c7" x="83.36625" y="66.358297" style="fill: #ffc25f; stroke: #ffc25f; stroke-width: 0.8"/>
      </g>
     </g>
     <g id="text_11">
      <!-- 1400 -->
      <g style="fill: #ffc25f" transform="translate(30.55625 73.196891) scale(0.18 -0.18)">
       <use xlink:href="#DejaVuSans-31"/>
       <use xlink:href="#DejaVuSans-34" transform="translate(63.623047 0)"/>
       <use xlink:href="#DejaVuSans-30" transform="translate(127.246094 0)"/>
       <use xlink:href="#DejaVuSans-30" transform="translate(190.869141 0)"/>
      </g>
     </g>
    </g>
    <g id="ytick_9">
     <g id="line2d_11">
      <g>
       <use xlink:href="#mfad8ba50c7" x="83.36625" y="14.038594" style="fill: #ffc25f; stroke: #ffc25f; stroke-width: 0.8"/>
      </g>
     </g>
     <g id="text_12">
      <!-- 1600 -->
      <g style="fill: #ffc25f" transform="translate(30.55625 20.877187) scale(0.18 -0.18)">
       <use xlink:href="#DejaVuSans-31"/>
       <use xlink:href="#DejaVuSans-36" transform="translate(63.623047 0)"/>
       <use xlink:href="#DejaVuSans-30" transform="translate(127.246094 0)"/>
       <use xlink:href="#DejaVuSans-30" transform="translate(190.869141 0)"/>
      </g>
     </g>
    </g>
    <g id="text_13">
     <!-- DNA reads -->
     <g style="fill: #ffc25f" transform="translate(22.396875 290.458718) rotate(-90) scale(0.2 -0.2)">
      <defs>
       <path id="DejaVuSans-Bold-44" d="M 1791 3756 
L 1791 909 
L 2222 909 
Q 2959 909 3348 1275 
Q 3738 1641 3738 2338 
Q 3738 3031 3350 3393 
Q 2963 3756 2222 3756 
L 1791 3756 
z
M 588 4666 
L 1856 4666 
Q 2919 4666 3439 4514 
Q 3959 4363 4331 4000 
Q 4659 3684 4818 3271 
Q 4978 2859 4978 2338 
Q 4978 1809 4818 1395 
Q 4659 981 4331 666 
Q 3956 303 3431 151 
Q 2906 0 1856 0 
L 588 0 
L 588 4666 
z
" transform="scale(0.015625)"/>
       <path id="DejaVuSans-Bold-4e" d="M 588 4666 
L 1931 4666 
L 3628 1466 
L 3628 4666 
L 4769 4666 
L 4769 0 
L 3425 0 
L 1728 3200 
L 1728 0 
L 588 0 
L 588 4666 
z
" transform="scale(0.015625)"/>
       <path id="DejaVuSans-Bold-41" d="M 3419 850 
L 1538 850 
L 1241 0 
L 31 0 
L 1759 4666 
L 3194 4666 
L 4922 0 
L 3713 0 
L 3419 850 
z
M 1838 1716 
L 3116 1716 
L 2478 3572 
L 1838 1716 
z
" transform="scale(0.015625)"/>
       <path id="DejaVuSans-Bold-20" transform="scale(0.015625)"/>
       <path id="DejaVuSans-Bold-72" d="M 3138 2547 
Q 2991 2616 2845 2648 
Q 2700 2681 2553 2681 
Q 2122 2681 1889 2404 
Q 1656 2128 1656 1613 
L 1656 0 
L 538 0 
L 538 3500 
L 1656 3500 
L 1656 2925 
Q 1872 3269 2151 3426 
Q 2431 3584 2822 3584 
Q 2878 3584 2943 3579 
Q 3009 3575 3134 3559 
L 3138 2547 
z
" transform="scale(0.015625)"/>
       <path id="DejaVuSans-Bold-65" d="M 4031 1759 
L 4031 1441 
L 1416 1441 
Q 1456 1047 1700 850 
Q 1944 653 2381 653 
Q 2734 653 3104 758 
Q 3475 863 3866 1075 
L 3866 213 
Q 3469 63 3072 -14 
Q 2675 -91 2278 -91 
Q 1328 -91 801 392 
Q 275 875 275 1747 
Q 275 2603 792 3093 
Q 1309 3584 2216 3584 
Q 3041 3584 3536 3087 
Q 4031 2591 4031 1759 
z
M 2881 2131 
Q 2881 2450 2695 2645 
Q 2509 2841 2209 2841 
Q 1884 2841 1681 2658 
Q 1478 2475 1428 2131 
L 2881 2131 
z
" transform="scale(0.015625)"/>
       <path id="DejaVuSans-Bold-61" d="M 2106 1575 
Q 1756 1575 1579 1456 
Q 1403 1338 1403 1106 
Q 1403 894 1545 773 
Q 1688 653 1941 653 
Q 2256 653 2472 879 
Q 2688 1106 2688 1447 
L 2688 1575 
L 2106 1575 
z
M 3816 1997 
L 3816 0 
L 2688 0 
L 2688 519 
Q 2463 200 2181 54 
Q 1900 -91 1497 -91 
Q 953 -91 614 226 
Q 275 544 275 1050 
Q 275 1666 698 1953 
Q 1122 2241 2028 2241 
L 2688 2241 
L 2688 2328 
Q 2688 2594 2478 2717 
Q 2269 2841 1825 2841 
Q 1466 2841 1156 2769 
Q 847 2697 581 2553 
L 581 3406 
Q 941 3494 1303 3539 
Q 1666 3584 2028 3584 
Q 2975 3584 3395 3211 
Q 3816 2838 3816 1997 
z
" transform="scale(0.015625)"/>
       <path id="DejaVuSans-Bold-64" d="M 2919 2988 
L 2919 4863 
L 4044 4863 
L 4044 0 
L 2919 0 
L 2919 506 
Q 2688 197 2409 53 
Q 2131 -91 1766 -91 
Q 1119 -91 703 423 
Q 288 938 288 1747 
Q 288 2556 703 3070 
Q 1119 3584 1766 3584 
Q 2128 3584 2408 3439 
Q 2688 3294 2919 2988 
z
M 2181 722 
Q 2541 722 2730 984 
Q 2919 1247 2919 1747 
Q 2919 2247 2730 2509 
Q 2541 2772 2181 2772 
Q 1825 2772 1636 2509 
Q 1447 2247 1447 1747 
Q 1447 1247 1636 984 
Q 1825 722 2181 722 
z
" transform="scale(0.015625)"/>
       <path id="DejaVuSans-Bold-73" d="M 3272 3391 
L 3272 2541 
Q 2913 2691 2578 2766 
Q 2244 2841 1947 2841 
Q 1628 2841 1473 2761 
Q 1319 2681 1319 2516 
Q 1319 2381 1436 2309 
Q 1553 2238 1856 2203 
L 2053 2175 
Q 2913 2066 3209 1816 
Q 3506 1566 3506 1031 
Q 3506 472 3093 190 
Q 2681 -91 1863 -91 
Q 1516 -91 1145 -36 
Q 775 19 384 128 
L 384 978 
Q 719 816 1070 734 
Q 1422 653 1784 653 
Q 2113 653 2278 743 
Q 2444 834 2444 1013 
Q 2444 1163 2330 1236 
Q 2216 1309 1875 1350 
L 1678 1375 
Q 931 1469 631 1722 
Q 331 1975 331 2491 
Q 331 3047 712 3315 
Q 1094 3584 1881 3584 
Q 2191 3584 2531 3537 
Q 2872 3491 3272 3391 
z
" transform="scale(0.015625)"/>
      </defs>
      <use xlink:href="#DejaVuSans-Bold-44"/>
      <use xlink:href="#DejaVuSans-Bold-4e" transform="translate(83.007812 0)"/>
      <use xlink:href="#DejaVuSans-Bold-41" transform="translate(166.699219 0)"/>
      <use xlink:href="#DejaVuSans-Bold-20" transform="translate(244.091797 0)"/>
      <use xlink:href="#DejaVuSans-Bold-72" transform="translate(278.90625 0)"/>
      <use xlink:href="#DejaVuSans-Bold-65" transform="translate(328.222656 0)"/>
      <use xlink:href="#DejaVuSans-Bold-61" transform="translate(396.044922 0)"/>
      <use xlink:href="#DejaVuSans-Bold-64" transform="translate(463.525391 0)"/>
      <use xlink:href="#DejaVuSans-Bold-73" transform="translate(535.107422 0)"/>
     </g>
    </g>
   </g>
   <g id="patch_3">
    <path d="M 88.942902 430.955334 
L 100.105134 430.955334 
L 100.105134 388.266075 
L 88.942902 388.266075 
L 88.942902 430.955334 
z
" clip-path="url(#p95927f331e)" style="fill: #ffc25f; stroke: #000000; stroke-linejoin: miter"/>
   </g>
   <g id="line2d_12">
    <path d="M 94.524018 430.955334 
L 94.524018 432.004588 
" clip-path="url(#p95927f331e)" style="fill: none; stroke: #000000; stroke-linecap: square"/>
   </g>
   <g id="line2d_13">
    <path d="M 94.524018 388.266075 
L 94.524018 353.098417 
" clip-path="url(#p95927f331e)" style="fill: none; stroke: #000000; stroke-linecap: square"/>
   </g>
   <g id="line2d_14">
    <path d="M 91.73346 432.004588 
L 97.314576 432.004588 
" clip-path="url(#p95927f331e)" style="fill: none; stroke: #000000; stroke-linecap: square"/>
   </g>
   <g id="line2d_15">
    <path d="M 91.73346 353.098417 
L 97.314576 353.098417 
" clip-path="url(#p95927f331e)" style="fill: none; stroke: #000000; stroke-linecap: square"/>
   </g>
   <g id="patch_4">
    <path d="M 111.26625 392.591842 
L 122.42625 392.591842 
L 122.42625 366.497501 
L 111.26625 366.497501 
L 111.26625 392.591842 
z
" clip-path="url(#p95927f331e)" style="fill: #ffc25f; stroke: #000000; stroke-linejoin: miter"/>
   </g>
   <g id="line2d_16">
    <path d="M 116.84625 392.591842 
L 116.84625 408.992444 
" clip-path="url(#p95927f331e)" style="fill: none; stroke: #000000; stroke-linecap: square"/>
   </g>
   <g id="line2d_17">
    <path d="M 116.84625 366.497501 
L 116.84625 354.545 
" clip-path="url(#p95927f331e)" style="fill: none; stroke: #000000; stroke-linecap: square"/>
   </g>
   <g id="line2d_18">
    <path d="M 114.05625 408.992444 
L 119.63625 408.992444 
" clip-path="url(#p95927f331e)" style="fill: none; stroke: #000000; stroke-linecap: square"/>
   </g>
   <g id="line2d_19">
    <path d="M 114.05625 354.545 
L 119.63625 354.545 
" clip-path="url(#p95927f331e)" style="fill: none; stroke: #000000; stroke-linecap: square"/>
   </g>
   <g id="patch_5">
    <path d="M 133.58625 317.694925 
L 144.74625 317.694925 
L 144.74625 158.947226 
L 133.58625 158.947226 
L 133.58625 317.694925 
z
" clip-path="url(#p95927f331e)" style="fill: #ffc25f; stroke: #000000; stroke-linejoin: miter"/>
   </g>
   <g id="line2d_20">
    <path d="M 139.16625 317.694925 
L 139.16625 432.211518 
" clip-path="url(#p95927f331e)" style="fill: none; stroke: #000000; stroke-linecap: square"/>
   </g>
   <g id="line2d_21">
    <path d="M 139.16625 158.947226 
L 139.16625 96.010777 
" clip-path="url(#p95927f331e)" style="fill: none; stroke: #000000; stroke-linecap: square"/>
   </g>
   <g id="line2d_22">
    <path d="M 136.37625 432.211518 
L 141.95625 432.211518 
" clip-path="url(#p95927f331e)" style="fill: none; stroke: #000000; stroke-linecap: square"/>
   </g>
   <g id="line2d_23">
    <path d="M 136.37625 96.010777 
L 141.95625 96.010777 
" clip-path="url(#p95927f331e)" style="fill: none; stroke: #000000; stroke-linecap: square"/>
   </g>
   <g id="patch_6">
    <path d="M 155.90625 380.992054 
L 167.06625 380.992054 
L 167.06625 216.524114 
L 155.90625 216.524114 
L 155.90625 380.992054 
z
" clip-path="url(#p95927f331e)" style="fill: #ffc25f; stroke: #000000; stroke-linejoin: miter"/>
   </g>
   <g id="line2d_24">
    <path d="M 161.48625 380.992054 
L 161.48625 426.878375 
" clip-path="url(#p95927f331e)" style="fill: none; stroke: #000000; stroke-linecap: square"/>
   </g>
   <g id="line2d_25">
    <path d="M 161.48625 216.524114 
L 161.48625 37.188167 
" clip-path="url(#p95927f331e)" style="fill: none; stroke: #000000; stroke-linecap: square"/>
   </g>
   <g id="line2d_26">
    <path d="M 158.69625 426.878375 
L 164.27625 426.878375 
" clip-path="url(#p95927f331e)" style="fill: none; stroke: #000000; stroke-linecap: square"/>
   </g>
   <g id="line2d_27">
    <path d="M 158.69625 37.188167 
L 164.27625 37.188167 
" clip-path="url(#p95927f331e)" style="fill: none; stroke: #000000; stroke-linecap: square"/>
   </g>
   <g id="patch_7">
    <path d="M 178.22625 406.329383 
L 189.38625 406.329383 
L 189.38625 346.738034 
L 178.22625 346.738034 
L 178.22625 406.329383 
z
" clip-path="url(#p95927f331e)" style="fill: #ffc25f; stroke: #000000; stroke-linejoin: miter"/>
   </g>
   <g id="line2d_28">
    <path d="M 183.80625 406.329383 
L 183.80625 432.533565 
" clip-path="url(#p95927f331e)" style="fill: none; stroke: #000000; stroke-linecap: square"/>
   </g>
   <g id="line2d_29">
    <path d="M 183.80625 346.738034 
L 183.80625 257.452286 
" clip-path="url(#p95927f331e)" style="fill: none; stroke: #000000; stroke-linecap: square"/>
   </g>
   <g id="line2d_30">
    <path d="M 181.01625 432.533565 
L 186.59625 432.533565 
" clip-path="url(#p95927f331e)" style="fill: none; stroke: #000000; stroke-linecap: square"/>
   </g>
   <g id="line2d_31">
    <path d="M 181.01625 257.452286 
L 186.59625 257.452286 
" clip-path="url(#p95927f331e)" style="fill: none; stroke: #000000; stroke-linecap: square"/>
   </g>
   <g id="patch_8">
    <path d="M 200.54625 403.860338 
L 211.70625 403.860338 
L 211.70625 344.271677 
L 200.54625 344.271677 
L 200.54625 403.860338 
z
" clip-path="url(#p95927f331e)" style="fill: #ffc25f; stroke: #000000; stroke-linejoin: miter"/>
   </g>
   <g id="line2d_32">
    <path d="M 206.12625 403.860338 
L 206.12625 432.596218 
" clip-path="url(#p95927f331e)" style="fill: none; stroke: #000000; stroke-linecap: square"/>
   </g>
   <g id="line2d_33">
    <path d="M 206.12625 344.271677 
L 206.12625 255.062098 
" clip-path="url(#p95927f331e)" style="fill: none; stroke: #000000; stroke-linecap: square"/>
   </g>
   <g id="line2d_34">
    <path d="M 203.33625 432.596218 
L 208.91625 432.596218 
" clip-path="url(#p95927f331e)" style="fill: none; stroke: #000000; stroke-linecap: square"/>
   </g>
   <g id="line2d_35">
    <path d="M 203.33625 255.062098 
L 208.91625 255.062098 
" clip-path="url(#p95927f331e)" style="fill: none; stroke: #000000; stroke-linecap: square"/>
   </g>
   <g id="patch_9">
    <path d="M 222.86625 401.953409 
L 234.02625 401.953409 
L 234.02625 326.464227 
L 222.86625 326.464227 
L 222.86625 401.953409 
z
" clip-path="url(#p95927f331e)" style="fill: #ffc25f; stroke: #000000; stroke-linejoin: miter"/>
   </g>
   <g id="line2d_36">
    <path d="M 228.44625 401.953409 
L 228.44625 432.596218 
" clip-path="url(#p95927f331e)" style="fill: none; stroke: #000000; stroke-linecap: square"/>
   </g>
   <g id="line2d_37">
    <path d="M 228.44625 326.464227 
L 228.44625 213.740256 
" clip-path="url(#p95927f331e)" style="fill: none; stroke: #000000; stroke-linecap: square"/>
   </g>
   <g id="line2d_38">
    <path d="M 225.65625 432.596218 
L 231.23625 432.596218 
" clip-path="url(#p95927f331e)" style="fill: none; stroke: #000000; stroke-linecap: square"/>
   </g>
   <g id="line2d_39">
    <path d="M 225.65625 213.740256 
L 231.23625 213.740256 
" clip-path="url(#p95927f331e)" style="fill: none; stroke: #000000; stroke-linecap: square"/>
   </g>
   <g id="patch_10">
    <path d="M 245.18625 398.093169 
L 256.34625 398.093169 
L 256.34625 301.824774 
L 245.18625 301.824774 
L 245.18625 398.093169 
z
" clip-path="url(#p95927f331e)" style="fill: #ffc25f; stroke: #000000; stroke-linejoin: miter"/>
   </g>
   <g id="line2d_40">
    <path d="M 250.76625 398.093169 
L 250.76625 432.596218 
" clip-path="url(#p95927f331e)" style="fill: none; stroke: #000000; stroke-linecap: square"/>
   </g>
   <g id="line2d_41">
    <path d="M 250.76625 301.824774 
L 250.76625 158.070088 
" clip-path="url(#p95927f331e)" style="fill: none; stroke: #000000; stroke-linecap: square"/>
   </g>
   <g id="line2d_42">
    <path d="M 247.97625 432.596218 
L 253.55625 432.596218 
" clip-path="url(#p95927f331e)" style="fill: none; stroke: #000000; stroke-linecap: square"/>
   </g>
   <g id="line2d_43">
    <path d="M 247.97625 158.070088 
L 253.55625 158.070088 
" clip-path="url(#p95927f331e)" style="fill: none; stroke: #000000; stroke-linecap: square"/>
   </g>
   <g id="patch_11">
    <path d="M 267.50625 394.826891 
L 278.66625 394.826891 
L 278.66625 282.466636 
L 267.50625 282.466636 
L 267.50625 394.826891 
z
" clip-path="url(#p95927f331e)" style="fill: #ffc25f; stroke: #000000; stroke-linejoin: miter"/>
   </g>
   <g id="line2d_44">
    <path d="M 273.08625 394.826891 
L 273.08625 432.596218 
" clip-path="url(#p95927f331e)" style="fill: none; stroke: #000000; stroke-linecap: square"/>
   </g>
   <g id="line2d_45">
    <path d="M 273.08625 282.466636 
L 273.08625 114.225848 
" clip-path="url(#p95927f331e)" style="fill: none; stroke: #000000; stroke-linecap: square"/>
   </g>
   <g id="line2d_46">
    <path d="M 270.29625 432.596218 
L 275.87625 432.596218 
" clip-path="url(#p95927f331e)" style="fill: none; stroke: #000000; stroke-linecap: square"/>
   </g>
   <g id="line2d_47">
    <path d="M 270.29625 114.225848 
L 275.87625 114.225848 
" clip-path="url(#p95927f331e)" style="fill: none; stroke: #000000; stroke-linecap: square"/>
   </g>
   <g id="patch_12">
    <path d="M 289.82625 384.121936 
L 300.98625 384.121936 
L 300.98625 260.585988 
L 289.82625 260.585988 
L 289.82625 384.121936 
z
" clip-path="url(#p95927f331e)" style="fill: #ffc25f; stroke: #000000; stroke-linejoin: miter"/>
   </g>
   <g id="line2d_48">
    <path d="M 295.40625 384.121936 
L 295.40625 432.596218 
" clip-path="url(#p95927f331e)" style="fill: none; stroke: #000000; stroke-linecap: square"/>
   </g>
   <g id="line2d_49">
    <path d="M 295.40625 260.585988 
L 295.40625 76.010807 
" clip-path="url(#p95927f331e)" style="fill: none; stroke: #000000; stroke-linecap: square"/>
   </g>
   <g id="line2d_50">
    <path d="M 292.61625 432.596218 
L 298.19625 432.596218 
" clip-path="url(#p95927f331e)" style="fill: none; stroke: #000000; stroke-linecap: square"/>
   </g>
   <g id="line2d_51">
    <path d="M 292.61625 76.010807 
L 298.19625 76.010807 
" clip-path="url(#p95927f331e)" style="fill: none; stroke: #000000; stroke-linecap: square"/>
   </g>
   <g id="patch_13">
    <path d="M 312.14625 375.372568 
L 323.30625 375.372568 
L 323.30625 252.313803 
L 312.14625 252.313803 
L 312.14625 375.372568 
z
" clip-path="url(#p95927f331e)" style="fill: #ffc25f; stroke: #000000; stroke-linejoin: miter"/>
   </g>
   <g id="line2d_52">
    <path d="M 317.72625 375.372568 
L 317.72625 432.596218 
" clip-path="url(#p95927f331e)" style="fill: none; stroke: #000000; stroke-linecap: square"/>
   </g>
   <g id="line2d_53">
    <path d="M 317.72625 252.313803 
L 317.72625 68.277915 
" clip-path="url(#p95927f331e)" style="fill: none; stroke: #000000; stroke-linecap: square"/>
   </g>
   <g id="line2d_54">
    <path d="M 314.93625 432.596218 
L 320.51625 432.596218 
" clip-path="url(#p95927f331e)" style="fill: none; stroke: #000000; stroke-linecap: square"/>
   </g>
   <g id="line2d_55">
    <path d="M 314.93625 68.277915 
L 320.51625 68.277915 
" clip-path="url(#p95927f331e)" style="fill: none; stroke: #000000; stroke-linecap: square"/>
   </g>
   <g id="patch_14">
    <path d="M 334.46625 384.247349 
L 345.62625 384.247349 
L 345.62625 241.799848 
L 334.46625 241.799848 
L 334.46625 384.247349 
z
" clip-path="url(#p95927f331e)" style="fill: #ffc25f; stroke: #000000; stroke-linejoin: miter"/>
   </g>
   <g id="line2d_56">
    <path d="M 340.04625 384.247349 
L 340.04625 432.596218 
" clip-path="url(#p95927f331e)" style="fill: none; stroke: #000000; stroke-linecap: square"/>
   </g>
   <g id="line2d_57">
    <path d="M 340.04625 241.799848 
L 340.04625 29.396218 
" clip-path="url(#p95927f331e)" style="fill: none; stroke: #000000; stroke-linecap: square"/>
   </g>
   <g id="line2d_58">
    <path d="M 337.25625 432.596218 
L 342.83625 432.596218 
" clip-path="url(#p95927f331e)" style="fill: none; stroke: #000000; stroke-linecap: square"/>
   </g>
   <g id="line2d_59">
    <path d="M 337.25625 29.396218 
L 342.83625 29.396218 
" clip-path="url(#p95927f331e)" style="fill: none; stroke: #000000; stroke-linecap: square"/>
   </g>
   <g id="patch_15">
    <path d="M 356.78625 396.040917 
L 367.94625 396.040917 
L 367.94625 252.514581 
L 356.78625 252.514581 
L 356.78625 396.040917 
z
" clip-path="url(#p95927f331e)" style="fill: #ffc25f; stroke: #000000; stroke-linejoin: miter"/>
   </g>
   <g id="line2d_60">
    <path d="M 362.36625 396.040917 
L 362.36625 432.570052 
" clip-path="url(#p95927f331e)" style="fill: none; stroke: #000000; stroke-linecap: square"/>
   </g>
   <g id="line2d_61">
    <path d="M 362.36625 252.514581 
L 362.36625 38.508574 
" clip-path="url(#p95927f331e)" style="fill: none; stroke: #000000; stroke-linecap: square"/>
   </g>
   <g id="line2d_62">
    <path d="M 359.57625 432.570052 
L 365.15625 432.570052 
" clip-path="url(#p95927f331e)" style="fill: none; stroke: #000000; stroke-linecap: square"/>
   </g>
   <g id="line2d_63">
    <path d="M 359.57625 38.508574 
L 365.15625 38.508574 
" clip-path="url(#p95927f331e)" style="fill: none; stroke: #000000; stroke-linecap: square"/>
   </g>
   <g id="patch_16">
    <path d="M 379.10625 401.391253 
L 390.26625 401.391253 
L 390.26625 282.738506 
L 379.10625 282.738506 
L 379.10625 401.391253 
z
" clip-path="url(#p95927f331e)" style="fill: #ffc25f; stroke: #000000; stroke-linejoin: miter"/>
   </g>
   <g id="line2d_64">
    <path d="M 384.68625 401.391253 
L 384.68625 432.596218 
" clip-path="url(#p95927f331e)" style="fill: none; stroke: #000000; stroke-linecap: square"/>
   </g>
   <g id="line2d_65">
    <path d="M 384.68625 282.738506 
L 384.68625 105.518397 
" clip-path="url(#p95927f331e)" style="fill: none; stroke: #000000; stroke-linecap: square"/>
   </g>
   <g id="line2d_66">
    <path d="M 381.89625 432.596218 
L 387.47625 432.596218 
" clip-path="url(#p95927f331e)" style="fill: none; stroke: #000000; stroke-linecap: square"/>
   </g>
   <g id="line2d_67">
    <path d="M 381.89625 105.518397 
L 387.47625 105.518397 
" clip-path="url(#p95927f331e)" style="fill: none; stroke: #000000; stroke-linecap: square"/>
   </g>
   <g id="patch_17">
    <path d="M 401.42625 415.368881 
L 412.58625 415.368881 
L 412.58625 326.565596 
L 401.42625 326.565596 
L 401.42625 415.368881 
z
" clip-path="url(#p95927f331e)" style="fill: #ffc25f; stroke: #000000; stroke-linejoin: miter"/>
   </g>
   <g id="line2d_68">
    <path d="M 407.00625 415.368881 
L 407.00625 432.596218 
" clip-path="url(#p95927f331e)" style="fill: none; stroke: #000000; stroke-linecap: square"/>
   </g>
   <g id="line2d_69">
    <path d="M 407.00625 326.565596 
L 407.00625 196.620834 
" clip-path="url(#p95927f331e)" style="fill: none; stroke: #000000; stroke-linecap: square"/>
   </g>
   <g id="line2d_70">
    <path d="M 404.21625 432.596218 
L 409.79625 432.596218 
" clip-path="url(#p95927f331e)" style="fill: none; stroke: #000000; stroke-linecap: square"/>
   </g>
   <g id="line2d_71">
    <path d="M 404.21625 196.620834 
L 409.79625 196.620834 
" clip-path="url(#p95927f331e)" style="fill: none; stroke: #000000; stroke-linecap: square"/>
   </g>
   <g id="patch_18">
    <path d="M 423.74625 430.079177 
L 434.90625 430.079177 
L 434.90625 408.871386 
L 423.74625 408.871386 
L 423.74625 430.079177 
z
" clip-path="url(#p95927f331e)" style="fill: #ffc25f; stroke: #000000; stroke-linejoin: miter"/>
   </g>
   <g id="line2d_72">
    <path d="M 429.32625 430.079177 
L 429.32625 432.596218 
" clip-path="url(#p95927f331e)" style="fill: none; stroke: #000000; stroke-linecap: square"/>
   </g>
   <g id="line2d_73">
    <path d="M 429.32625 408.871386 
L 429.32625 377.615818 
" clip-path="url(#p95927f331e)" style="fill: none; stroke: #000000; stroke-linecap: square"/>
   </g>
   <g id="line2d_74">
    <path d="M 426.53625 432.596218 
L 432.11625 432.596218 
" clip-path="url(#p95927f331e)" style="fill: none; stroke: #000000; stroke-linecap: square"/>
   </g>
   <g id="line2d_75">
    <path d="M 426.53625 377.615818 
L 432.11625 377.615818 
" clip-path="url(#p95927f331e)" style="fill: none; stroke: #000000; stroke-linecap: square"/>
   </g>
   <g id="patch_19">
    <path d="M 446.06625 431.632722 
L 457.22625 431.632722 
L 457.22625 425.485126 
L 446.06625 425.485126 
L 446.06625 431.632722 
z
" clip-path="url(#p95927f331e)" style="fill: #ffc25f; stroke: #000000; stroke-linejoin: miter"/>
   </g>
   <g id="line2d_76">
    <path d="M 451.64625 431.632722 
L 451.64625 432.488033 
" clip-path="url(#p95927f331e)" style="fill: none; stroke: #000000; stroke-linecap: square"/>
   </g>
   <g id="line2d_77">
    <path d="M 451.64625 425.485126 
L 451.64625 418.912693 
" clip-path="url(#p95927f331e)" style="fill: none; stroke: #000000; stroke-linecap: square"/>
   </g>
   <g id="line2d_78">
    <path d="M 448.85625 432.488033 
L 454.43625 432.488033 
" clip-path="url(#p95927f331e)" style="fill: none; stroke: #000000; stroke-linecap: square"/>
   </g>
   <g id="line2d_79">
    <path d="M 448.85625 418.912693 
L 454.43625 418.912693 
" clip-path="url(#p95927f331e)" style="fill: none; stroke: #000000; stroke-linecap: square"/>
   </g>
   <g id="line2d_80">
    <path d="M 88.942902 428.06567 
L 100.105134 428.06567 
" clip-path="url(#p95927f331e)" style="fill: none; stroke: #000000"/>
   </g>
   <g id="line2d_81">
    <path d="M 111.26625 382.456747 
L 122.42625 382.456747 
" clip-path="url(#p95927f331e)" style="fill: none; stroke: #000000"/>
   </g>
   <g id="line2d_82">
    <path d="M 133.58625 273.750698 
L 144.74625 273.750698 
" clip-path="url(#p95927f331e)" style="fill: none; stroke: #000000"/>
   </g>
   <g id="line2d_83">
    <path d="M 155.90625 291.849034 
L 167.06625 291.849034 
" clip-path="url(#p95927f331e)" style="fill: none; stroke: #000000"/>
   </g>
   <g id="line2d_84">
    <path d="M 178.22625 381.510577 
L 189.38625 381.510577 
" clip-path="url(#p95927f331e)" style="fill: none; stroke: #000000"/>
   </g>
   <g id="line2d_85">
    <path d="M 200.54625 378.313228 
L 211.70625 378.313228 
" clip-path="url(#p95927f331e)" style="fill: none; stroke: #000000"/>
   </g>
   <g id="line2d_86">
    <path d="M 222.86625 368.368095 
L 234.02625 368.368095 
" clip-path="url(#p95927f331e)" style="fill: none; stroke: #000000"/>
   </g>
   <g id="line2d_87">
    <path d="M 245.18625 354.507914 
L 256.34625 354.507914 
" clip-path="url(#p95927f331e)" style="fill: none; stroke: #000000"/>
   </g>
   <g id="line2d_88">
    <path d="M 267.50625 344.061867 
L 278.66625 344.061867 
" clip-path="url(#p95927f331e)" style="fill: none; stroke: #000000"/>
   </g>
   <g id="line2d_89">
    <path d="M 289.82625 330.142012 
L 300.98625 330.142012 
" clip-path="url(#p95927f331e)" style="fill: none; stroke: #000000"/>
   </g>
   <g id="line2d_90">
    <path d="M 312.14625 322.482772 
L 323.30625 322.482772 
" clip-path="url(#p95927f331e)" style="fill: none; stroke: #000000"/>
   </g>
   <g id="line2d_91">
    <path d="M 334.46625 328.356052 
L 345.62625 328.356052 
" clip-path="url(#p95927f331e)" style="fill: none; stroke: #000000"/>
   </g>
   <g id="line2d_92">
    <path d="M 356.78625 346.92505 
L 367.94625 346.92505 
" clip-path="url(#p95927f331e)" style="fill: none; stroke: #000000"/>
   </g>
   <g id="line2d_93">
    <path d="M 379.10625 358.69316 
L 390.26625 358.69316 
" clip-path="url(#p95927f331e)" style="fill: none; stroke: #000000"/>
   </g>
   <g id="line2d_94">
    <path d="M 401.42625 387.936393 
L 412.58625 387.936393 
" clip-path="url(#p95927f331e)" style="fill: none; stroke: #000000"/>
   </g>
   <g id="line2d_95">
    <path d="M 423.74625 421.727139 
L 434.90625 421.727139 
" clip-path="url(#p95927f331e)" style="fill: none; stroke: #000000"/>
   </g>
   <g id="line2d_96">
    <path d="M 446.06625 429.474724 
L 457.22625 429.474724 
" clip-path="url(#p95927f331e)" style="fill: none; stroke: #000000"/>
   </g>
   <g id="patch_20">
    <path d="M 83.36625 452.756218 
L 83.36625 9.236218 
" style="fill: none; stroke: #000000; stroke-linejoin: miter; stroke-linecap: square"/>
   </g>
   <g id="patch_21">
    <path d="M 529.76625 452.756218 
L 529.76625 9.236218 
" style="fill: none; stroke: #000000; stroke-linejoin: miter; stroke-linecap: square"/>
   </g>
   <g id="patch_22">
    <path d="M 83.36625 452.756218 
L 529.76625 452.756218 
" style="fill: none; stroke: #000000; stroke-linejoin: miter; stroke-linecap: square"/>
   </g>
  </g>
  <g id="axes_2">
   <g id="matplotlib.axis_3">
    <g id="ytick_10">
     <g id="line2d_97">
      <defs>
       <path id="m083545163d" d="M 0 0 
L 3.5 0 
" style="stroke: #3d9f95; stroke-width: 0.8"/>
      </defs>
      <g>
       <use xlink:href="#m083545163d" x="529.76625" y="432.841275" style="fill: #3d9f95; stroke: #3d9f95; stroke-width: 0.8"/>
      </g>
     </g>
     <g id="text_14">
      <!-- 0 -->
      <g style="fill: #3d9f95" transform="translate(536.76625 439.679869) scale(0.18 -0.18)">
       <use xlink:href="#DejaVuSans-30"/>
      </g>
     </g>
    </g>
    <g id="ytick_11">
     <g id="line2d_98">
      <g>
       <use xlink:href="#m083545163d" x="529.76625" y="351.155699" style="fill: #3d9f95; stroke: #3d9f95; stroke-width: 0.8"/>
      </g>
     </g>
     <g id="text_15">
      <!-- 2000 -->
      <g style="fill: #3d9f95" transform="translate(536.76625 357.994293) scale(0.18 -0.18)">
       <use xlink:href="#DejaVuSans-32"/>
       <use xlink:href="#DejaVuSans-30" transform="translate(63.623047 0)"/>
       <use xlink:href="#DejaVuSans-30" transform="translate(127.246094 0)"/>
       <use xlink:href="#DejaVuSans-30" transform="translate(190.869141 0)"/>
      </g>
     </g>
    </g>
    <g id="ytick_12">
     <g id="line2d_99">
      <g>
       <use xlink:href="#m083545163d" x="529.76625" y="269.470124" style="fill: #3d9f95; stroke: #3d9f95; stroke-width: 0.8"/>
      </g>
     </g>
     <g id="text_16">
      <!-- 4000 -->
      <g style="fill: #3d9f95" transform="translate(536.76625 276.308718) scale(0.18 -0.18)">
       <use xlink:href="#DejaVuSans-34"/>
       <use xlink:href="#DejaVuSans-30" transform="translate(63.623047 0)"/>
       <use xlink:href="#DejaVuSans-30" transform="translate(127.246094 0)"/>
       <use xlink:href="#DejaVuSans-30" transform="translate(190.869141 0)"/>
      </g>
     </g>
    </g>
    <g id="ytick_13">
     <g id="line2d_100">
      <g>
       <use xlink:href="#m083545163d" x="529.76625" y="187.784549" style="fill: #3d9f95; stroke: #3d9f95; stroke-width: 0.8"/>
      </g>
     </g>
     <g id="text_17">
      <!-- 6000 -->
      <g style="fill: #3d9f95" transform="translate(536.76625 194.623142) scale(0.18 -0.18)">
       <use xlink:href="#DejaVuSans-36"/>
       <use xlink:href="#DejaVuSans-30" transform="translate(63.623047 0)"/>
       <use xlink:href="#DejaVuSans-30" transform="translate(127.246094 0)"/>
       <use xlink:href="#DejaVuSans-30" transform="translate(190.869141 0)"/>
      </g>
     </g>
    </g>
    <g id="ytick_14">
     <g id="line2d_101">
      <g>
       <use xlink:href="#m083545163d" x="529.76625" y="106.098973" style="fill: #3d9f95; stroke: #3d9f95; stroke-width: 0.8"/>
      </g>
     </g>
     <g id="text_18">
      <!-- 8000 -->
      <g style="fill: #3d9f95" transform="translate(536.76625 112.937567) scale(0.18 -0.18)">
       <use xlink:href="#DejaVuSans-38"/>
       <use xlink:href="#DejaVuSans-30" transform="translate(63.623047 0)"/>
       <use xlink:href="#DejaVuSans-30" transform="translate(127.246094 0)"/>
       <use xlink:href="#DejaVuSans-30" transform="translate(190.869141 0)"/>
      </g>
     </g>
    </g>
    <g id="ytick_15">
     <g id="line2d_102">
      <g>
       <use xlink:href="#m083545163d" x="529.76625" y="24.413398" style="fill: #3d9f95; stroke: #3d9f95; stroke-width: 0.8"/>
      </g>
     </g>
     <g id="text_19">
      <!-- 10000 -->
      <g style="fill: #3d9f95" transform="translate(536.76625 31.251992) scale(0.18 -0.18)">
       <use xlink:href="#DejaVuSans-31"/>
       <use xlink:href="#DejaVuSans-30" transform="translate(63.623047 0)"/>
       <use xlink:href="#DejaVuSans-30" transform="translate(127.246094 0)"/>
       <use xlink:href="#DejaVuSans-30" transform="translate(190.869141 0)"/>
       <use xlink:href="#DejaVuSans-30" transform="translate(254.492188 0)"/>
      </g>
     </g>
    </g>
    <g id="text_20">
     <!-- Number of cCREs -->
     <g style="fill: #3d9f95" transform="translate(613.225625 327.708718) rotate(-90) scale(0.2 -0.2)">
      <defs>
       <path id="DejaVuSans-Bold-75" d="M 500 1363 
L 500 3500 
L 1625 3500 
L 1625 3150 
Q 1625 2866 1622 2436 
Q 1619 2006 1619 1863 
Q 1619 1441 1641 1255 
Q 1663 1069 1716 984 
Q 1784 875 1895 815 
Q 2006 756 2150 756 
Q 2500 756 2700 1025 
Q 2900 1294 2900 1772 
L 2900 3500 
L 4019 3500 
L 4019 0 
L 2900 0 
L 2900 506 
Q 2647 200 2364 54 
Q 2081 -91 1741 -91 
Q 1134 -91 817 281 
Q 500 653 500 1363 
z
" transform="scale(0.015625)"/>
       <path id="DejaVuSans-Bold-6d" d="M 3781 2919 
Q 3994 3244 4286 3414 
Q 4578 3584 4928 3584 
Q 5531 3584 5847 3212 
Q 6163 2841 6163 2131 
L 6163 0 
L 5038 0 
L 5038 1825 
Q 5041 1866 5042 1909 
Q 5044 1953 5044 2034 
Q 5044 2406 4934 2573 
Q 4825 2741 4581 2741 
Q 4263 2741 4089 2478 
Q 3916 2216 3909 1719 
L 3909 0 
L 2784 0 
L 2784 1825 
Q 2784 2406 2684 2573 
Q 2584 2741 2328 2741 
Q 2006 2741 1831 2477 
Q 1656 2213 1656 1722 
L 1656 0 
L 531 0 
L 531 3500 
L 1656 3500 
L 1656 2988 
Q 1863 3284 2130 3434 
Q 2397 3584 2719 3584 
Q 3081 3584 3359 3409 
Q 3638 3234 3781 2919 
z
" transform="scale(0.015625)"/>
       <path id="DejaVuSans-Bold-62" d="M 2400 722 
Q 2759 722 2948 984 
Q 3138 1247 3138 1747 
Q 3138 2247 2948 2509 
Q 2759 2772 2400 2772 
Q 2041 2772 1848 2508 
Q 1656 2244 1656 1747 
Q 1656 1250 1848 986 
Q 2041 722 2400 722 
z
M 1656 2988 
Q 1888 3294 2169 3439 
Q 2450 3584 2816 3584 
Q 3463 3584 3878 3070 
Q 4294 2556 4294 1747 
Q 4294 938 3878 423 
Q 3463 -91 2816 -91 
Q 2450 -91 2169 54 
Q 1888 200 1656 506 
L 1656 0 
L 538 0 
L 538 4863 
L 1656 4863 
L 1656 2988 
z
" transform="scale(0.015625)"/>
       <path id="DejaVuSans-Bold-6f" d="M 2203 2784 
Q 1831 2784 1636 2517 
Q 1441 2250 1441 1747 
Q 1441 1244 1636 976 
Q 1831 709 2203 709 
Q 2569 709 2762 976 
Q 2956 1244 2956 1747 
Q 2956 2250 2762 2517 
Q 2569 2784 2203 2784 
z
M 2203 3584 
Q 3106 3584 3614 3096 
Q 4122 2609 4122 1747 
Q 4122 884 3614 396 
Q 3106 -91 2203 -91 
Q 1297 -91 786 396 
Q 275 884 275 1747 
Q 275 2609 786 3096 
Q 1297 3584 2203 3584 
z
" transform="scale(0.015625)"/>
       <path id="DejaVuSans-Bold-66" d="M 2841 4863 
L 2841 4128 
L 2222 4128 
Q 1984 4128 1890 4042 
Q 1797 3956 1797 3744 
L 1797 3500 
L 2753 3500 
L 2753 2700 
L 1797 2700 
L 1797 0 
L 678 0 
L 678 2700 
L 122 2700 
L 122 3500 
L 678 3500 
L 678 3744 
Q 678 4316 997 4589 
Q 1316 4863 1984 4863 
L 2841 4863 
z
" transform="scale(0.015625)"/>
       <path id="DejaVuSans-Bold-63" d="M 3366 3391 
L 3366 2478 
Q 3138 2634 2908 2709 
Q 2678 2784 2431 2784 
Q 1963 2784 1702 2511 
Q 1441 2238 1441 1747 
Q 1441 1256 1702 982 
Q 1963 709 2431 709 
Q 2694 709 2930 787 
Q 3166 866 3366 1019 
L 3366 103 
Q 3103 6 2833 -42 
Q 2563 -91 2291 -91 
Q 1344 -91 809 395 
Q 275 881 275 1747 
Q 275 2613 809 3098 
Q 1344 3584 2291 3584 
Q 2566 3584 2833 3536 
Q 3100 3488 3366 3391 
z
" transform="scale(0.015625)"/>
       <path id="DejaVuSans-Bold-52" d="M 2297 2597 
Q 2675 2597 2839 2737 
Q 3003 2878 3003 3200 
Q 3003 3519 2839 3656 
Q 2675 3794 2297 3794 
L 1791 3794 
L 1791 2597 
L 2297 2597 
z
M 1791 1766 
L 1791 0 
L 588 0 
L 588 4666 
L 2425 4666 
Q 3347 4666 3776 4356 
Q 4206 4047 4206 3378 
Q 4206 2916 3982 2619 
Q 3759 2322 3309 2181 
Q 3556 2125 3751 1926 
Q 3947 1728 4147 1325 
L 4800 0 
L 3519 0 
L 2950 1159 
Q 2778 1509 2601 1637 
Q 2425 1766 2131 1766 
L 1791 1766 
z
" transform="scale(0.015625)"/>
       <path id="DejaVuSans-Bold-45" d="M 588 4666 
L 3834 4666 
L 3834 3756 
L 1791 3756 
L 1791 2888 
L 3713 2888 
L 3713 1978 
L 1791 1978 
L 1791 909 
L 3903 909 
L 3903 0 
L 588 0 
L 588 4666 
z
" transform="scale(0.015625)"/>
      </defs>
      <use xlink:href="#DejaVuSans-Bold-4e"/>
      <use xlink:href="#DejaVuSans-Bold-75" transform="translate(83.691406 0)"/>
      <use xlink:href="#DejaVuSans-Bold-6d" transform="translate(154.882812 0)"/>
      <use xlink:href="#DejaVuSans-Bold-62" transform="translate(259.082031 0)"/>
      <use xlink:href="#DejaVuSans-Bold-65" transform="translate(330.664062 0)"/>
      <use xlink:href="#DejaVuSans-Bold-72" transform="translate(398.486328 0)"/>
      <use xlink:href="#DejaVuSans-Bold-20" transform="translate(447.802734 0)"/>
      <use xlink:href="#DejaVuSans-Bold-6f" transform="translate(482.617188 0)"/>
      <use xlink:href="#DejaVuSans-Bold-66" transform="translate(551.318359 0)"/>
      <use xlink:href="#DejaVuSans-Bold-20" transform="translate(594.824219 0)"/>
      <use xlink:href="#DejaVuSans-Bold-63" transform="translate(629.638672 0)"/>
      <use xlink:href="#DejaVuSans-Bold-43" transform="translate(688.916016 0)"/>
      <use xlink:href="#DejaVuSans-Bold-52" transform="translate(762.304688 0)"/>
      <use xlink:href="#DejaVuSans-Bold-45" transform="translate(839.306641 0)"/>
      <use xlink:href="#DejaVuSans-Bold-73" transform="translate(907.617188 0)"/>
     </g>
    </g>
   </g>
   <g id="line2d_103">
    <path d="M 94.524018 432.596218 
L 116.84625 432.392004 
L 139.16625 432.351161 
L 161.48625 430.43155 
L 183.80625 408.049703 
L 206.12625 305.697677 
L 228.44625 152.251323 
L 250.76625 74.568341 
L 273.08625 61.335278 
L 295.40625 29.396218 
L 317.72625 91.885683 
L 340.04625 202.242895 
L 362.36625 317.051972 
L 384.68625 374.436088 
L 407.00625 411.562182 
L 429.32625 420.016639 
L 451.64625 430.43155 
" clip-path="url(#p95927f331e)" style="fill: none; stroke: #3d9f95; stroke-width: 1.5; stroke-linecap: square"/>
    <defs>
     <path id="mfc83a5cb73" d="M 0 3 
C 0.795609 3 1.55874 2.683901 2.12132 2.12132 
C 2.683901 1.55874 3 0.795609 3 0 
C 3 -0.795609 2.683901 -1.55874 2.12132 -2.12132 
C 1.55874 -2.683901 0.795609 -3 0 -3 
C -0.795609 -3 -1.55874 -2.683901 -2.12132 -2.12132 
C -2.683901 -1.55874 -3 -0.795609 -3 0 
C -3 0.795609 -2.683901 1.55874 -2.12132 2.12132 
C -1.55874 2.683901 -0.795609 3 0 3 
z
" style="stroke: #3d9f95"/>
    </defs>
    <g clip-path="url(#p95927f331e)">
     <use xlink:href="#mfc83a5cb73" x="94.524018" y="432.596218" style="fill: #3d9f95; stroke: #3d9f95"/>
     <use xlink:href="#mfc83a5cb73" x="116.84625" y="432.392004" style="fill: #3d9f95; stroke: #3d9f95"/>
     <use xlink:href="#mfc83a5cb73" x="139.16625" y="432.351161" style="fill: #3d9f95; stroke: #3d9f95"/>
     <use xlink:href="#mfc83a5cb73" x="161.48625" y="430.43155" style="fill: #3d9f95; stroke: #3d9f95"/>
     <use xlink:href="#mfc83a5cb73" x="183.80625" y="408.049703" style="fill: #3d9f95; stroke: #3d9f95"/>
     <use xlink:href="#mfc83a5cb73" x="206.12625" y="305.697677" style="fill: #3d9f95; stroke: #3d9f95"/>
     <use xlink:href="#mfc83a5cb73" x="228.44625" y="152.251323" style="fill: #3d9f95; stroke: #3d9f95"/>
     <use xlink:href="#mfc83a5cb73" x="250.76625" y="74.568341" style="fill: #3d9f95; stroke: #3d9f95"/>
     <use xlink:href="#mfc83a5cb73" x="273.08625" y="61.335278" style="fill: #3d9f95; stroke: #3d9f95"/>
     <use xlink:href="#mfc83a5cb73" x="295.40625" y="29.396218" style="fill: #3d9f95; stroke: #3d9f95"/>
     <use xlink:href="#mfc83a5cb73" x="317.72625" y="91.885683" style="fill: #3d9f95; stroke: #3d9f95"/>
     <use xlink:href="#mfc83a5cb73" x="340.04625" y="202.242895" style="fill: #3d9f95; stroke: #3d9f95"/>
     <use xlink:href="#mfc83a5cb73" x="362.36625" y="317.051972" style="fill: #3d9f95; stroke: #3d9f95"/>
     <use xlink:href="#mfc83a5cb73" x="384.68625" y="374.436088" style="fill: #3d9f95; stroke: #3d9f95"/>
     <use xlink:href="#mfc83a5cb73" x="407.00625" y="411.562182" style="fill: #3d9f95; stroke: #3d9f95"/>
     <use xlink:href="#mfc83a5cb73" x="429.32625" y="420.016639" style="fill: #3d9f95; stroke: #3d9f95"/>
     <use xlink:href="#mfc83a5cb73" x="451.64625" y="430.43155" style="fill: #3d9f95; stroke: #3d9f95"/>
    </g>
   </g>
   <g id="patch_23">
    <path d="M 83.36625 452.756218 
L 83.36625 9.236218 
" style="fill: none; stroke: #000000; stroke-linejoin: miter; stroke-linecap: square"/>
   </g>
   <g id="patch_24">
    <path d="M 83.36625 452.756218 
L 529.76625 452.756218 
" style="fill: none; stroke: #000000; stroke-linejoin: miter; stroke-linecap: square"/>
   </g>
  </g>
 </g>
 <defs>
  <clipPath id="p95927f331e">
   <rect x="83.36625" y="9.236218" width="446.4" height="443.52"/>
  </clipPath>
 </defs>
</svg>
