<?xml version="1.0" encoding="utf-8" standalone="no"?>
<!DOCTYPE svg PUBLIC "-//W3C//DTD SVG 1.1//EN"
  "http://www.w3.org/Graphics/SVG/1.1/DTD/svg11.dtd">
<svg xmlns:xlink="http://www.w3.org/1999/xlink" width="423.99625pt" height="351.99625pt" viewBox="0 0 423.99625 351.99625" xmlns="http://www.w3.org/2000/svg" version="1.1">
 <metadata>
  <rdf:RDF xmlns:dc="http://purl.org/dc/elements/1.1/" xmlns:cc="http://creativecommons.org/ns#" xmlns:rdf="http://www.w3.org/1999/02/22-rdf-syntax-ns#">
   <cc:Work>
    <dc:type rdf:resource="http://purl.org/dc/dcmitype/StillImage"/>
    <dc:date>2025-12-21T10:15:57.440270</dc:date>
    <dc:format>image/svg+xml</dc:format>
    <dc:creator>
     <cc:Agent>
      <dc:title>Matplotlib v3.10.6, https://matplotlib.org/</dc:title>
     </cc:Agent>
    </dc:creator>
   </cc:Work>
  </rdf:RDF>
 </metadata>
 <defs>
  <style type="text/css">*{stroke-linejoin: round; stroke-linecap: butt}</style>
 </defs>
 <g id="figure_1">
  <g id="patch_1">
   <path d="M 0 351.99625 
L 423.99625 351.99625 
L 423.99625 0 
L 0 0 
L 0 351.99625 
z
" style="fill: none"/>
  </g>
  <g id="axes_1">
   <g id="patch_2">
    <path d="M 30.55625 321.44 
L 416.79625 321.44 
L 416.79625 7.2 
L 30.55625 7.2 
L 30.55625 321.44 
z
" style="fill: none"/>
   </g>
   <g id="PathCollection_1">
    <path d="M 307.463189 216.909811 
C 308.649214 216.909811 309.786821 216.438598 310.625467 215.599952 
C 311.464113 214.761306 311.935325 213.623699 311.935325 212.437675 
C 311.935325 211.25165 311.464113 210.114043 310.625467 209.275397 
C 309.786821 208.436751 308.649214 207.965539 307.463189 207.965539 
C 306.277165 207.965539 305.139558 208.436751 304.300912 209.275397 
C 303.462266 210.114043 302.991053 211.25165 302.991053 212.437675 
C 302.991053 213.623699 303.462266 214.761306 304.300912 215.599952 
C 305.139558 216.438598 306.277165 216.909811 307.463189 216.909811 
z
" clip-path="url(#p3e230feef6)" style="fill: #edd1cb; stroke: #ffffff; stroke-width: 0.715542"/>
    <path d="M 261.897001 216.213663 
C 263.083025 216.213663 264.220633 215.74245 265.059279 214.903804 
C 265.897925 214.065158 266.369137 212.927551 266.369137 211.741527 
C 266.369137 210.555502 265.897925 209.417895 265.059279 208.579249 
C 264.220633 207.740603 263.083025 207.269391 261.897001 207.269391 
C 260.710977 207.269391 259.573369 207.740603 258.734723 208.579249 
C 257.896078 209.417895 257.424865 210.555502 257.424865 211.741527 
C 257.424865 212.927551 257.896078 214.065158 258.734723 214.903804 
C 259.573369 215.74245 260.710977 216.213663 261.897001 216.213663 
z
" clip-path="url(#p3e230feef6)" style="fill: #edd1cb; stroke: #ffffff; stroke-width: 0.715542"/>
    <path d="M 323.323774 25.955772 
C 324.509799 25.955772 325.647406 25.48456 326.486052 24.645914 
C 327.324698 23.807268 327.79591 22.669661 327.79591 21.483636 
C 327.79591 20.297612 327.324698 19.160005 326.486052 18.321359 
C 325.647406 17.482713 324.509799 17.0115 323.323774 17.0115 
C 322.13775 17.0115 321.000143 17.482713 320.161497 18.321359 
C 319.322851 19.160005 318.851638 20.297612 318.851638 21.483636 
C 318.851638 22.669661 319.322851 23.807268 320.161497 24.645914 
C 321.000143 25.48456 322.13775 25.955772 323.323774 25.955772 
z
" clip-path="url(#p3e230feef6)" style="fill: #edd1cb; stroke: #ffffff; stroke-width: 0.715542"/>
    <path d="M 399.239886 311.6285 
C 400.425911 311.6285 401.563518 311.157287 402.402164 310.318641 
C 403.24081 309.479995 403.712022 308.342388 403.712022 307.156364 
C 403.712022 305.970339 403.24081 304.832732 402.402164 303.994086 
C 401.563518 303.15544 400.425911 302.684228 399.239886 302.684228 
C 398.053862 302.684228 396.916255 303.15544 396.077609 303.994086 
C 395.238963 304.832732 394.76775 305.970339 394.76775 307.156364 
C 394.76775 308.342388 395.238963 309.479995 396.077609 310.318641 
C 396.916255 311.157287 398.053862 311.6285 399.239886 311.6285 
z
" clip-path="url(#p3e230feef6)" style="fill: #edd1cb; stroke: #ffffff; stroke-width: 0.715542"/>
    <path d="M 300.045993 224.513211 
C 301.232017 224.513211 302.369625 224.041999 303.208271 223.203353 
C 304.046916 222.364707 304.518129 221.2271 304.518129 220.041075 
C 304.518129 218.855051 304.046916 217.717443 303.208271 216.878798 
C 302.369625 216.040152 301.232017 215.568939 300.045993 215.568939 
C 298.859969 215.568939 297.722361 216.040152 296.883715 216.878798 
C 296.045069 217.717443 295.573857 218.855051 295.573857 220.041075 
C 295.573857 221.2271 296.045069 222.364707 296.883715 223.203353 
C 297.722361 224.041999 298.859969 224.513211 300.045993 224.513211 
z
" clip-path="url(#p3e230feef6)" style="fill: #edd1cb; stroke: #ffffff; stroke-width: 0.715542"/>
    <path d="M 59.735087 207.891387 
L 61.971155 205.65532 
L 64.207223 207.891387 
L 66.443291 205.65532 
L 64.207223 203.419252 
L 66.443291 201.183184 
L 64.207223 198.947116 
L 61.971155 201.183184 
L 59.735087 198.947116 
L 57.499019 201.183184 
L 59.735087 203.419252 
L 57.499019 205.65532 
z
" clip-path="url(#p3e230feef6)" style="fill: #2d1e3e; stroke: #ffffff; stroke-width: 0.715542"/>
    <path d="M 68.335666 209.352025 
L 70.571734 207.115957 
L 72.807802 209.352025 
L 75.04387 207.115957 
L 72.807802 204.879889 
L 75.04387 202.643822 
L 72.807802 200.407754 
L 70.571734 202.643822 
L 68.335666 200.407754 
L 66.099598 202.643822 
L 68.335666 204.879889 
L 66.099598 207.115957 
z
" clip-path="url(#p3e230feef6)" style="fill: #2d1e3e; stroke: #ffffff; stroke-width: 0.715542"/>
    <path d="M 69.801457 210.306 
L 72.037525 208.069932 
L 74.273593 210.306 
L 76.509661 208.069932 
L 74.273593 205.833864 
L 76.509661 203.597796 
L 74.273593 201.361728 
L 72.037525 203.597796 
L 69.801457 201.361728 
L 67.565389 203.597796 
L 69.801457 205.833864 
L 67.565389 208.069932 
z
" clip-path="url(#p3e230feef6)" style="fill: #2d1e3e; stroke: #ffffff; stroke-width: 0.715542"/>
    <path d="M 71.988644 212.106992 
L 74.224712 209.870924 
L 76.46078 212.106992 
L 78.696848 209.870924 
L 76.46078 207.634856 
L 78.696848 205.398788 
L 76.46078 203.16272 
L 74.224712 205.398788 
L 71.988644 203.16272 
L 69.752576 205.398788 
L 71.988644 207.634856 
L 69.752576 209.870924 
z
" clip-path="url(#p3e230feef6)" style="fill: #2d1e3e; stroke: #ffffff; stroke-width: 0.715542"/>
    <path d="M 45.876546 208.290442 
L 48.112614 206.054374 
L 50.348682 208.290442 
L 52.58475 206.054374 
L 50.348682 203.818306 
L 52.58475 201.582238 
L 50.348682 199.34617 
L 48.112614 201.582238 
L 45.876546 199.34617 
L 43.640478 201.582238 
L 45.876546 203.818306 
L 43.640478 206.054374 
z
" clip-path="url(#p3e230feef6)" style="fill: #2d1e3e; stroke: #ffffff; stroke-width: 0.715542"/>
   </g>
   <g id="matplotlib.axis_1">
    <g id="text_1">
     <!-- PC1 (83.3%) -->
     <g transform="translate(154.735625 340.636875) scale(0.2 -0.2)">
      <defs>
       <path id="DejaVuSans-Bold-50" d="M 588 4666 
L 2584 4666 
Q 3475 4666 3951 4270 
Q 4428 3875 4428 3144 
Q 4428 2409 3951 2014 
Q 3475 1619 2584 1619 
L 1791 1619 
L 1791 0 
L 588 0 
L 588 4666 
z
M 1791 3794 
L 1791 2491 
L 2456 2491 
Q 2806 2491 2997 2661 
Q 3188 2831 3188 3144 
Q 3188 3456 2997 3625 
Q 2806 3794 2456 3794 
L 1791 3794 
z
" transform="scale(0.015625)"/>
       <path id="DejaVuSans-Bold-43" d="M 4288 256 
Q 3956 84 3597 -3 
Q 3238 -91 2847 -91 
Q 1681 -91 1000 561 
Q 319 1213 319 2328 
Q 319 3447 1000 4098 
Q 1681 4750 2847 4750 
Q 3238 4750 3597 4662 
Q 3956 4575 4288 4403 
L 4288 3438 
Q 3953 3666 3628 3772 
Q 3303 3878 2944 3878 
Q 2300 3878 1931 3465 
Q 1563 3053 1563 2328 
Q 1563 1606 1931 1193 
Q 2300 781 2944 781 
Q 3303 781 3628 887 
Q 3953 994 4288 1222 
L 4288 256 
z
" transform="scale(0.015625)"/>
       <path id="DejaVuSans-Bold-31" d="M 750 831 
L 1813 831 
L 1813 3847 
L 722 3622 
L 722 4441 
L 1806 4666 
L 2950 4666 
L 2950 831 
L 4013 831 
L 4013 0 
L 750 0 
L 750 831 
z
" transform="scale(0.015625)"/>
       <path id="DejaVuSans-Bold-20" transform="scale(0.015625)"/>
       <path id="DejaVuSans-Bold-28" d="M 2413 -844 
L 1484 -844 
Q 1006 -72 778 623 
Q 550 1319 550 2003 
Q 550 2688 779 3389 
Q 1009 4091 1484 4856 
L 2413 4856 
Q 2013 4116 1813 3408 
Q 1613 2700 1613 2009 
Q 1613 1319 1811 609 
Q 2009 -100 2413 -844 
z
" transform="scale(0.015625)"/>
       <path id="DejaVuSans-Bold-38" d="M 2228 2088 
Q 1891 2088 1709 1903 
Q 1528 1719 1528 1375 
Q 1528 1031 1709 848 
Q 1891 666 2228 666 
Q 2563 666 2741 848 
Q 2919 1031 2919 1375 
Q 2919 1722 2741 1905 
Q 2563 2088 2228 2088 
z
M 1350 2484 
Q 925 2613 709 2878 
Q 494 3144 494 3541 
Q 494 4131 934 4440 
Q 1375 4750 2228 4750 
Q 3075 4750 3515 4442 
Q 3956 4134 3956 3541 
Q 3956 3144 3739 2878 
Q 3522 2613 3097 2484 
Q 3572 2353 3814 2058 
Q 4056 1763 4056 1313 
Q 4056 619 3595 264 
Q 3134 -91 2228 -91 
Q 1319 -91 855 264 
Q 391 619 391 1313 
Q 391 1763 633 2058 
Q 875 2353 1350 2484 
z
M 1631 3419 
Q 1631 3141 1786 2991 
Q 1941 2841 2228 2841 
Q 2509 2841 2662 2991 
Q 2816 3141 2816 3419 
Q 2816 3697 2662 3845 
Q 2509 3994 2228 3994 
Q 1941 3994 1786 3844 
Q 1631 3694 1631 3419 
z
" transform="scale(0.015625)"/>
       <path id="DejaVuSans-Bold-33" d="M 2981 2516 
Q 3453 2394 3698 2092 
Q 3944 1791 3944 1325 
Q 3944 631 3412 270 
Q 2881 -91 1863 -91 
Q 1503 -91 1142 -33 
Q 781 25 428 141 
L 428 1069 
Q 766 900 1098 814 
Q 1431 728 1753 728 
Q 2231 728 2486 893 
Q 2741 1059 2741 1369 
Q 2741 1688 2480 1852 
Q 2219 2016 1709 2016 
L 1228 2016 
L 1228 2791 
L 1734 2791 
Q 2188 2791 2409 2933 
Q 2631 3075 2631 3366 
Q 2631 3634 2415 3781 
Q 2200 3928 1806 3928 
Q 1516 3928 1219 3862 
Q 922 3797 628 3669 
L 628 4550 
Q 984 4650 1334 4700 
Q 1684 4750 2022 4750 
Q 2931 4750 3382 4451 
Q 3834 4153 3834 3553 
Q 3834 3144 3618 2883 
Q 3403 2622 2981 2516 
z
" transform="scale(0.015625)"/>
       <path id="DejaVuSans-Bold-2e" d="M 653 1209 
L 1778 1209 
L 1778 0 
L 653 0 
L 653 1209 
z
" transform="scale(0.015625)"/>
       <path id="DejaVuSans-Bold-25" d="M 4959 1925 
Q 4738 1925 4616 1733 
Q 4494 1541 4494 1184 
Q 4494 825 4614 633 
Q 4734 441 4959 441 
Q 5184 441 5303 633 
Q 5422 825 5422 1184 
Q 5422 1541 5301 1733 
Q 5181 1925 4959 1925 
z
M 4959 2450 
Q 5541 2450 5875 2112 
Q 6209 1775 6209 1184 
Q 6209 594 5875 251 
Q 5541 -91 4959 -91 
Q 4378 -91 4042 251 
Q 3706 594 3706 1184 
Q 3706 1772 4042 2111 
Q 4378 2450 4959 2450 
z
M 2094 -91 
L 1403 -91 
L 4319 4750 
L 5013 4750 
L 2094 -91 
z
M 1453 4750 
Q 2034 4750 2367 4411 
Q 2700 4072 2700 3481 
Q 2700 2891 2367 2550 
Q 2034 2209 1453 2209 
Q 872 2209 539 2550 
Q 206 2891 206 3481 
Q 206 4072 539 4411 
Q 872 4750 1453 4750 
z
M 1453 4225 
Q 1228 4225 1106 4031 
Q 984 3838 984 3481 
Q 984 3122 1106 2926 
Q 1228 2731 1453 2731 
Q 1678 2731 1798 2926 
Q 1919 3122 1919 3481 
Q 1919 3838 1797 4031 
Q 1675 4225 1453 4225 
z
" transform="scale(0.015625)"/>
       <path id="DejaVuSans-Bold-29" d="M 513 -844 
Q 913 -100 1113 609 
Q 1313 1319 1313 2009 
Q 1313 2700 1113 3408 
Q 913 4116 513 4856 
L 1441 4856 
Q 1916 4091 2145 3389 
Q 2375 2688 2375 2003 
Q 2375 1319 2147 623 
Q 1919 -72 1441 -844 
L 513 -844 
z
" transform="scale(0.015625)"/>
      </defs>
      <use xlink:href="#DejaVuSans-Bold-50"/>
      <use xlink:href="#DejaVuSans-Bold-43" transform="translate(73.291016 0)"/>
      <use xlink:href="#DejaVuSans-Bold-31" transform="translate(146.679688 0)"/>
      <use xlink:href="#DejaVuSans-Bold-20" transform="translate(216.259766 0)"/>
      <use xlink:href="#DejaVuSans-Bold-28" transform="translate(251.074219 0)"/>
      <use xlink:href="#DejaVuSans-Bold-38" transform="translate(296.777344 0)"/>
      <use xlink:href="#DejaVuSans-Bold-33" transform="translate(366.357422 0)"/>
      <use xlink:href="#DejaVuSans-Bold-2e" transform="translate(435.9375 0)"/>
      <use xlink:href="#DejaVuSans-Bold-33" transform="translate(473.925781 0)"/>
      <use xlink:href="#DejaVuSans-Bold-25" transform="translate(543.505859 0)"/>
      <use xlink:href="#DejaVuSans-Bold-29" transform="translate(643.701172 0)"/>
     </g>
    </g>
   </g>
   <g id="matplotlib.axis_2">
    <g id="text_2">
     <!-- PC2 (4.6%) -->
     <g transform="translate(22.396875 226.302812) rotate(-90) scale(0.2 -0.2)">
      <defs>
       <path id="DejaVuSans-Bold-32" d="M 1844 884 
L 3897 884 
L 3897 0 
L 506 0 
L 506 884 
L 2209 2388 
Q 2438 2594 2547 2791 
Q 2656 2988 2656 3200 
Q 2656 3528 2436 3728 
Q 2216 3928 1850 3928 
Q 1569 3928 1234 3808 
Q 900 3688 519 3450 
L 519 4475 
Q 925 4609 1322 4679 
Q 1719 4750 2100 4750 
Q 2938 4750 3402 4381 
Q 3866 4013 3866 3353 
Q 3866 2972 3669 2642 
Q 3472 2313 2841 1759 
L 1844 884 
z
" transform="scale(0.015625)"/>
       <path id="DejaVuSans-Bold-34" d="M 2356 3675 
L 1038 1722 
L 2356 1722 
L 2356 3675 
z
M 2156 4666 
L 3494 4666 
L 3494 1722 
L 4159 1722 
L 4159 850 
L 3494 850 
L 3494 0 
L 2356 0 
L 2356 850 
L 288 850 
L 288 1881 
L 2156 4666 
z
" transform="scale(0.015625)"/>
       <path id="DejaVuSans-Bold-36" d="M 2316 2303 
Q 2000 2303 1842 2098 
Q 1684 1894 1684 1484 
Q 1684 1075 1842 870 
Q 2000 666 2316 666 
Q 2634 666 2792 870 
Q 2950 1075 2950 1484 
Q 2950 1894 2792 2098 
Q 2634 2303 2316 2303 
z
M 3803 4544 
L 3803 3681 
Q 3506 3822 3243 3889 
Q 2981 3956 2731 3956 
Q 2194 3956 1894 3657 
Q 1594 3359 1544 2772 
Q 1750 2925 1990 3001 
Q 2231 3078 2516 3078 
Q 3231 3078 3670 2659 
Q 4109 2241 4109 1563 
Q 4109 813 3618 361 
Q 3128 -91 2303 -91 
Q 1394 -91 895 523 
Q 397 1138 397 2266 
Q 397 3422 980 4083 
Q 1563 4744 2578 4744 
Q 2900 4744 3203 4694 
Q 3506 4644 3803 4544 
z
" transform="scale(0.015625)"/>
      </defs>
      <use xlink:href="#DejaVuSans-Bold-50"/>
      <use xlink:href="#DejaVuSans-Bold-43" transform="translate(73.291016 0)"/>
      <use xlink:href="#DejaVuSans-Bold-32" transform="translate(146.679688 0)"/>
      <use xlink:href="#DejaVuSans-Bold-20" transform="translate(216.259766 0)"/>
      <use xlink:href="#DejaVuSans-Bold-28" transform="translate(251.074219 0)"/>
      <use xlink:href="#DejaVuSans-Bold-34" transform="translate(296.777344 0)"/>
      <use xlink:href="#DejaVuSans-Bold-2e" transform="translate(366.357422 0)"/>
      <use xlink:href="#DejaVuSans-Bold-36" transform="translate(404.345703 0)"/>
      <use xlink:href="#DejaVuSans-Bold-25" transform="translate(473.925781 0)"/>
      <use xlink:href="#DejaVuSans-Bold-29" transform="translate(574.121094 0)"/>
     </g>
    </g>
   </g>
   <g id="line2d_1"/>
   <g id="line2d_2"/>
   <g id="patch_3">
    <path d="M 30.55625 321.44 
L 30.55625 7.2 
" style="fill: none; stroke: #000000; stroke-linejoin: miter; stroke-linecap: square"/>
   </g>
   <g id="patch_4">
    <path d="M 30.55625 321.44 
L 416.79625 321.44 
" style="fill: none; stroke: #000000; stroke-linejoin: miter; stroke-linecap: square"/>
   </g>
   <g id="legend_1">
    <g id="patch_5">
     <path d="M 43.15625 100.861875 
L 148.903438 100.861875 
Q 152.503438 100.861875 152.503438 97.261875 
L 152.503438 19.8 
Q 152.503438 16.2 148.903438 16.2 
L 43.15625 16.2 
Q 39.55625 16.2 39.55625 19.8 
L 39.55625 97.261875 
Q 39.55625 100.861875 43.15625 100.861875 
L 43.15625 100.861875 
z
" style="fill: none; opacity: 0.8; stroke: #cccccc; stroke-linejoin: miter"/>
    </g>
    <g id="text_3">
     <!-- Cell type -->
     <g transform="translate(56.24 37.077187) scale(0.18 -0.18)">
      <defs>
       <path id="DejaVuSans-43" d="M 4122 4306 
L 4122 3641 
Q 3803 3938 3442 4084 
Q 3081 4231 2675 4231 
Q 1875 4231 1450 3742 
Q 1025 3253 1025 2328 
Q 1025 1406 1450 917 
Q 1875 428 2675 428 
Q 3081 428 3442 575 
Q 3803 722 4122 1019 
L 4122 359 
Q 3791 134 3420 21 
Q 3050 -91 2638 -91 
Q 1578 -91 968 557 
Q 359 1206 359 2328 
Q 359 3453 968 4101 
Q 1578 4750 2638 4750 
Q 3056 4750 3426 4639 
Q 3797 4528 4122 4306 
z
" transform="scale(0.015625)"/>
       <path id="DejaVuSans-65" d="M 3597 1894 
L 3597 1613 
L 953 1613 
Q 991 1019 1311 708 
Q 1631 397 2203 397 
Q 2534 397 2845 478 
Q 3156 559 3463 722 
L 3463 178 
Q 3153 47 2828 -22 
Q 2503 -91 2169 -91 
Q 1331 -91 842 396 
Q 353 884 353 1716 
Q 353 2575 817 3079 
Q 1281 3584 2069 3584 
Q 2775 3584 3186 3129 
Q 3597 2675 3597 1894 
z
M 3022 2063 
Q 3016 2534 2758 2815 
Q 2500 3097 2075 3097 
Q 1594 3097 1305 2825 
Q 1016 2553 972 2059 
L 3022 2063 
z
" transform="scale(0.015625)"/>
       <path id="DejaVuSans-6c" d="M 603 4863 
L 1178 4863 
L 1178 0 
L 603 0 
L 603 4863 
z
" transform="scale(0.015625)"/>
       <path id="DejaVuSans-20" transform="scale(0.015625)"/>
       <path id="DejaVuSans-74" d="M 1172 4494 
L 1172 3500 
L 2356 3500 
L 2356 3053 
L 1172 3053 
L 1172 1153 
Q 1172 725 1289 603 
Q 1406 481 1766 481 
L 2356 481 
L 2356 0 
L 1766 0 
Q 1100 0 847 248 
Q 594 497 594 1153 
L 594 3053 
L 172 3053 
L 172 3500 
L 594 3500 
L 594 4494 
L 1172 4494 
z
" transform="scale(0.015625)"/>
       <path id="DejaVuSans-79" d="M 2059 -325 
Q 1816 -950 1584 -1140 
Q 1353 -1331 966 -1331 
L 506 -1331 
L 506 -850 
L 844 -850 
Q 1081 -850 1212 -737 
Q 1344 -625 1503 -206 
L 1606 56 
L 191 3500 
L 800 3500 
L 1894 763 
L 2988 3500 
L 3597 3500 
L 2059 -325 
z
" transform="scale(0.015625)"/>
       <path id="DejaVuSans-70" d="M 1159 525 
L 1159 -1331 
L 581 -1331 
L 581 3500 
L 1159 3500 
L 1159 2969 
Q 1341 3281 1617 3432 
Q 1894 3584 2278 3584 
Q 2916 3584 3314 3078 
Q 3713 2572 3713 1747 
Q 3713 922 3314 415 
Q 2916 -91 2278 -91 
Q 1894 -91 1617 61 
Q 1341 213 1159 525 
z
M 3116 1747 
Q 3116 2381 2855 2742 
Q 2594 3103 2138 3103 
Q 1681 3103 1420 2742 
Q 1159 2381 1159 1747 
Q 1159 1113 1420 752 
Q 1681 391 2138 391 
Q 2594 391 2855 752 
Q 3116 1113 3116 1747 
z
" transform="scale(0.015625)"/>
      </defs>
      <use xlink:href="#DejaVuSans-43"/>
      <use xlink:href="#DejaVuSans-65" transform="translate(69.824219 0)"/>
      <use xlink:href="#DejaVuSans-6c" transform="translate(131.347656 0)"/>
      <use xlink:href="#DejaVuSans-6c" transform="translate(159.130859 0)"/>
      <use xlink:href="#DejaVuSans-20" transform="translate(186.914062 0)"/>
      <use xlink:href="#DejaVuSans-74" transform="translate(218.701172 0)"/>
      <use xlink:href="#DejaVuSans-79" transform="translate(257.910156 0)"/>
      <use xlink:href="#DejaVuSans-70" transform="translate(317.089844 0)"/>
      <use xlink:href="#DejaVuSans-65" transform="translate(380.566406 0)"/>
     </g>
    </g>
    <g id="line2d_3">
     <defs>
      <path id="madf3d381e0" d="M 0 4.472136 
C 1.186024 4.472136 2.323632 4.000923 3.162278 3.162278 
C 4.000923 2.323632 4.472136 1.186024 4.472136 0 
C 4.472136 -1.186024 4.000923 -2.323632 3.162278 -3.162278 
C 2.323632 -4.000923 1.186024 -4.472136 0 -4.472136 
C -1.186024 -4.472136 -2.323632 -4.000923 -3.162278 -3.162278 
C -4.000923 -2.323632 -4.472136 -1.186024 -4.472136 0 
C -4.472136 1.186024 -4.000923 2.323632 -3.162278 3.162278 
C -2.323632 4.000923 -1.186024 4.472136 0 4.472136 
z
" style="stroke: #ffffff; stroke-width: 0.715542"/>
     </defs>
     <g>
      <use xlink:href="#madf3d381e0" x="64.75625" y="57.197812" style="fill: #edd1cb; stroke: #ffffff; stroke-width: 0.715542"/>
     </g>
    </g>
    <g id="text_4">
     <!-- cell 1 -->
     <g transform="translate(97.15625 63.497812) scale(0.18 -0.18)">
      <defs>
       <path id="DejaVuSans-63" d="M 3122 3366 
L 3122 2828 
Q 2878 2963 2633 3030 
Q 2388 3097 2138 3097 
Q 1578 3097 1268 2742 
Q 959 2388 959 1747 
Q 959 1106 1268 751 
Q 1578 397 2138 397 
Q 2388 397 2633 464 
Q 2878 531 3122 666 
L 3122 134 
Q 2881 22 2623 -34 
Q 2366 -91 2075 -91 
Q 1284 -91 818 406 
Q 353 903 353 1747 
Q 353 2603 823 3093 
Q 1294 3584 2113 3584 
Q 2378 3584 2631 3529 
Q 2884 3475 3122 3366 
z
" transform="scale(0.015625)"/>
       <path id="DejaVuSans-31" d="M 794 531 
L 1825 531 
L 1825 4091 
L 703 3866 
L 703 4441 
L 1819 4666 
L 2450 4666 
L 2450 531 
L 3481 531 
L 3481 0 
L 794 0 
L 794 531 
z
" transform="scale(0.015625)"/>
      </defs>
      <use xlink:href="#DejaVuSans-63"/>
      <use xlink:href="#DejaVuSans-65" transform="translate(54.980469 0)"/>
      <use xlink:href="#DejaVuSans-6c" transform="translate(116.503906 0)"/>
      <use xlink:href="#DejaVuSans-6c" transform="translate(144.287109 0)"/>
      <use xlink:href="#DejaVuSans-20" transform="translate(172.070312 0)"/>
      <use xlink:href="#DejaVuSans-31" transform="translate(203.857422 0)"/>
     </g>
    </g>
    <g id="line2d_4">
     <defs>
      <path id="ma0f8f14d7d" d="M -2.236068 4.472136 
L 0 2.236068 
L 2.236068 4.472136 
L 4.472136 2.236068 
L 2.236068 0 
L 4.472136 -2.236068 
L 2.236068 -4.472136 
L 0 -2.236068 
L -2.236068 -4.472136 
L -4.472136 -2.236068 
L -2.236068 0 
L -4.472136 2.236068 
z
" style="stroke: #ffffff; stroke-width: 0.715542; stroke-linejoin: miter"/>
     </defs>
     <g>
      <use xlink:href="#ma0f8f14d7d" x="64.75625" y="83.618437" style="fill: #2d1e3e; stroke: #ffffff; stroke-width: 0.715542; stroke-linejoin: miter"/>
     </g>
    </g>
    <g id="text_5">
     <!-- cell 2 -->
     <g transform="translate(97.15625 89.918437) scale(0.18 -0.18)">
      <defs>
       <path id="DejaVuSans-32" d="M 1228 531 
L 3431 531 
L 3431 0 
L 469 0 
L 469 531 
Q 828 903 1448 1529 
Q 2069 2156 2228 2338 
Q 2531 2678 2651 2914 
Q 2772 3150 2772 3378 
Q 2772 3750 2511 3984 
Q 2250 4219 1831 4219 
Q 1534 4219 1204 4116 
Q 875 4013 500 3803 
L 500 4441 
Q 881 4594 1212 4672 
Q 1544 4750 1819 4750 
Q 2544 4750 2975 4387 
Q 3406 4025 3406 3419 
Q 3406 3131 3298 2873 
Q 3191 2616 2906 2266 
Q 2828 2175 2409 1742 
Q 1991 1309 1228 531 
z
" transform="scale(0.015625)"/>
      </defs>
      <use xlink:href="#DejaVuSans-63"/>
      <use xlink:href="#DejaVuSans-65" transform="translate(54.980469 0)"/>
      <use xlink:href="#DejaVuSans-6c" transform="translate(116.503906 0)"/>
      <use xlink:href="#DejaVuSans-6c" transform="translate(144.287109 0)"/>
      <use xlink:href="#DejaVuSans-20" transform="translate(172.070312 0)"/>
      <use xlink:href="#DejaVuSans-32" transform="translate(203.857422 0)"/>
     </g>
    </g>
   </g>
  </g>
 </g>
 <defs>
  <clipPath id="p3e230feef6">
   <rect x="30.55625" y="7.2" width="386.24" height="314.24"/>
  </clipPath>
 </defs>
</svg>
