<?xml version="1.0" encoding="utf-8" standalone="no"?>
<!DOCTYPE svg PUBLIC "-//W3C//DTD SVG 1.1//EN"
  "http://www.w3.org/Graphics/SVG/1.1/DTD/svg11.dtd">
<svg xmlns:xlink="http://www.w3.org/1999/xlink" width="630.305625pt" height="505.696875pt" viewBox="0 0 630.305625 505.696875" xmlns="http://www.w3.org/2000/svg" version="1.1">
 <metadata>
  <rdf:RDF xmlns:dc="http://purl.org/dc/elements/1.1/" xmlns:cc="http://creativecommons.org/ns#" xmlns:rdf="http://www.w3.org/1999/02/22-rdf-syntax-ns#">
   <cc:Work>
    <dc:type rdf:resource="http://purl.org/dc/dcmitype/StillImage"/>
    <dc:date>2025-12-16T16:17:43.207009</dc:date>
    <dc:format>image/svg+xml</dc:format>
    <dc:creator>
     <cc:Agent>
      <dc:title>Matplotlib v3.10.6, https://matplotlib.org/</dc:title>
     </cc:Agent>
    </dc:creator>
   </cc:Work>
  </rdf:RDF>
 </metadata>
 <defs>
  <style type="text/css">*{stroke-linejoin: round; stroke-linecap: butt}</style>
 </defs>
 <g id="figure_1">
  <g id="patch_1">
   <path d="M 0 505.696875 
L 630.305625 505.696875 
L 630.305625 0 
L 0 0 
L 0 505.696875 
z
" style="fill: none"/>
  </g>
  <g id="axes_1">
   <g id="patch_2">
    <path d="M 89.086875 450.72 
L 535.486875 450.72 
L 535.486875 7.2 
L 89.086875 7.2 
L 89.086875 450.72 
z
" style="fill: none"/>
   </g>
   <g id="matplotlib.axis_1">
    <g id="xtick_1">
     <g id="line2d_1">
      <defs>
       <path id="mc7ece7e66d" d="M 0 0 
L 0 3.5 
" style="stroke: #000000; stroke-width: 0.8"/>
      </defs>
      <g>
       <use xlink:href="#mc7ece7e66d" x="89.086875" y="450.72" style="stroke: #000000; stroke-width: 0.8"/>
      </g>
     </g>
     <g id="text_1">
      <!-- 0% -->
      <g transform="translate(74.809219 471.397187) scale(0.18 -0.18)">
       <defs>
        <path id="DejaVuSans-30" d="M 2034 4250 
Q 1547 4250 1301 3770 
Q 1056 3291 1056 2328 
Q 1056 1369 1301 889 
Q 1547 409 2034 409 
Q 2525 409 2770 889 
Q 3016 1369 3016 2328 
Q 3016 3291 2770 3770 
Q 2525 4250 2034 4250 
z
M 2034 4750 
Q 2819 4750 3233 4129 
Q 3647 3509 3647 2328 
Q 3647 1150 3233 529 
Q 2819 -91 2034 -91 
Q 1250 -91 836 529 
Q 422 1150 422 2328 
Q 422 3509 836 4129 
Q 1250 4750 2034 4750 
z
" transform="scale(0.015625)"/>
        <path id="DejaVuSans-25" d="M 4653 2053 
Q 4381 2053 4226 1822 
Q 4072 1591 4072 1178 
Q 4072 772 4226 539 
Q 4381 306 4653 306 
Q 4919 306 5073 539 
Q 5228 772 5228 1178 
Q 5228 1588 5073 1820 
Q 4919 2053 4653 2053 
z
M 4653 2450 
Q 5147 2450 5437 2106 
Q 5728 1763 5728 1178 
Q 5728 594 5436 251 
Q 5144 -91 4653 -91 
Q 4153 -91 3862 251 
Q 3572 594 3572 1178 
Q 3572 1766 3864 2108 
Q 4156 2450 4653 2450 
z
M 1428 4353 
Q 1159 4353 1004 4120 
Q 850 3888 850 3481 
Q 850 3069 1003 2837 
Q 1156 2606 1428 2606 
Q 1700 2606 1854 2837 
Q 2009 3069 2009 3481 
Q 2009 3884 1853 4118 
Q 1697 4353 1428 4353 
z
M 4250 4750 
L 4750 4750 
L 1831 -91 
L 1331 -91 
L 4250 4750 
z
M 1428 4750 
Q 1922 4750 2215 4408 
Q 2509 4066 2509 3481 
Q 2509 2891 2217 2550 
Q 1925 2209 1428 2209 
Q 931 2209 642 2551 
Q 353 2894 353 3481 
Q 353 4063 643 4406 
Q 934 4750 1428 4750 
z
" transform="scale(0.015625)"/>
       </defs>
       <use xlink:href="#DejaVuSans-30"/>
       <use xlink:href="#DejaVuSans-25" transform="translate(63.623047 0)"/>
      </g>
     </g>
    </g>
    <g id="xtick_2">
     <g id="line2d_2">
      <g>
       <use xlink:href="#mc7ece7e66d" x="535.486875" y="450.72" style="stroke: #000000; stroke-width: 0.8"/>
      </g>
     </g>
     <g id="text_2">
      <!-- 100% -->
      <g transform="translate(509.756719 471.397187) scale(0.18 -0.18)">
       <defs>
        <path id="DejaVuSans-31" d="M 794 531 
L 1825 531 
L 1825 4091 
L 703 3866 
L 703 4441 
L 1819 4666 
L 2450 4666 
L 2450 531 
L 3481 531 
L 3481 0 
L 794 0 
L 794 531 
z
" transform="scale(0.015625)"/>
       </defs>
       <use xlink:href="#DejaVuSans-31"/>
       <use xlink:href="#DejaVuSans-30" transform="translate(63.623047 0)"/>
       <use xlink:href="#DejaVuSans-30" transform="translate(127.246094 0)"/>
       <use xlink:href="#DejaVuSans-25" transform="translate(190.869141 0)"/>
      </g>
     </g>
    </g>
    <g id="text_3">
     <!-- GC content -->
     <g transform="translate(249.880625 494.3375) scale(0.2 -0.2)">
      <defs>
       <path id="DejaVuSans-Bold-47" d="M 4781 347 
Q 4331 128 3847 18 
Q 3363 -91 2847 -91 
Q 1681 -91 1000 561 
Q 319 1213 319 2328 
Q 319 3456 1012 4103 
Q 1706 4750 2913 4750 
Q 3378 4750 3804 4662 
Q 4231 4575 4609 4403 
L 4609 3438 
Q 4219 3659 3833 3768 
Q 3447 3878 3059 3878 
Q 2341 3878 1952 3476 
Q 1563 3075 1563 2328 
Q 1563 1588 1938 1184 
Q 2313 781 3003 781 
Q 3191 781 3352 804 
Q 3513 828 3641 878 
L 3641 1784 
L 2906 1784 
L 2906 2591 
L 4781 2591 
L 4781 347 
z
" transform="scale(0.015625)"/>
       <path id="DejaVuSans-Bold-43" d="M 4288 256 
Q 3956 84 3597 -3 
Q 3238 -91 2847 -91 
Q 1681 -91 1000 561 
Q 319 1213 319 2328 
Q 319 3447 1000 4098 
Q 1681 4750 2847 4750 
Q 3238 4750 3597 4662 
Q 3956 4575 4288 4403 
L 4288 3438 
Q 3953 3666 3628 3772 
Q 3303 3878 2944 3878 
Q 2300 3878 1931 3465 
Q 1563 3053 1563 2328 
Q 1563 1606 1931 1193 
Q 2300 781 2944 781 
Q 3303 781 3628 887 
Q 3953 994 4288 1222 
L 4288 256 
z
" transform="scale(0.015625)"/>
       <path id="DejaVuSans-Bold-20" transform="scale(0.015625)"/>
       <path id="DejaVuSans-Bold-63" d="M 3366 3391 
L 3366 2478 
Q 3138 2634 2908 2709 
Q 2678 2784 2431 2784 
Q 1963 2784 1702 2511 
Q 1441 2238 1441 1747 
Q 1441 1256 1702 982 
Q 1963 709 2431 709 
Q 2694 709 2930 787 
Q 3166 866 3366 1019 
L 3366 103 
Q 3103 6 2833 -42 
Q 2563 -91 2291 -91 
Q 1344 -91 809 395 
Q 275 881 275 1747 
Q 275 2613 809 3098 
Q 1344 3584 2291 3584 
Q 2566 3584 2833 3536 
Q 3100 3488 3366 3391 
z
" transform="scale(0.015625)"/>
       <path id="DejaVuSans-Bold-6f" d="M 2203 2784 
Q 1831 2784 1636 2517 
Q 1441 2250 1441 1747 
Q 1441 1244 1636 976 
Q 1831 709 2203 709 
Q 2569 709 2762 976 
Q 2956 1244 2956 1747 
Q 2956 2250 2762 2517 
Q 2569 2784 2203 2784 
z
M 2203 3584 
Q 3106 3584 3614 3096 
Q 4122 2609 4122 1747 
Q 4122 884 3614 396 
Q 3106 -91 2203 -91 
Q 1297 -91 786 396 
Q 275 884 275 1747 
Q 275 2609 786 3096 
Q 1297 3584 2203 3584 
z
" transform="scale(0.015625)"/>
       <path id="DejaVuSans-Bold-6e" d="M 4056 2131 
L 4056 0 
L 2931 0 
L 2931 347 
L 2931 1631 
Q 2931 2084 2911 2256 
Q 2891 2428 2841 2509 
Q 2775 2619 2662 2680 
Q 2550 2741 2406 2741 
Q 2056 2741 1856 2470 
Q 1656 2200 1656 1722 
L 1656 0 
L 538 0 
L 538 3500 
L 1656 3500 
L 1656 2988 
Q 1909 3294 2193 3439 
Q 2478 3584 2822 3584 
Q 3428 3584 3742 3212 
Q 4056 2841 4056 2131 
z
" transform="scale(0.015625)"/>
       <path id="DejaVuSans-Bold-74" d="M 1759 4494 
L 1759 3500 
L 2913 3500 
L 2913 2700 
L 1759 2700 
L 1759 1216 
Q 1759 972 1856 886 
Q 1953 800 2241 800 
L 2816 800 
L 2816 0 
L 1856 0 
Q 1194 0 917 276 
Q 641 553 641 1216 
L 641 2700 
L 84 2700 
L 84 3500 
L 641 3500 
L 641 4494 
L 1759 4494 
z
" transform="scale(0.015625)"/>
       <path id="DejaVuSans-Bold-65" d="M 4031 1759 
L 4031 1441 
L 1416 1441 
Q 1456 1047 1700 850 
Q 1944 653 2381 653 
Q 2734 653 3104 758 
Q 3475 863 3866 1075 
L 3866 213 
Q 3469 63 3072 -14 
Q 2675 -91 2278 -91 
Q 1328 -91 801 392 
Q 275 875 275 1747 
Q 275 2603 792 3093 
Q 1309 3584 2216 3584 
Q 3041 3584 3536 3087 
Q 4031 2591 4031 1759 
z
M 2881 2131 
Q 2881 2450 2695 2645 
Q 2509 2841 2209 2841 
Q 1884 2841 1681 2658 
Q 1478 2475 1428 2131 
L 2881 2131 
z
" transform="scale(0.015625)"/>
      </defs>
      <use xlink:href="#DejaVuSans-Bold-47"/>
      <use xlink:href="#DejaVuSans-Bold-43" transform="translate(82.080078 0)"/>
      <use xlink:href="#DejaVuSans-Bold-20" transform="translate(155.46875 0)"/>
      <use xlink:href="#DejaVuSans-Bold-63" transform="translate(190.283203 0)"/>
      <use xlink:href="#DejaVuSans-Bold-6f" transform="translate(249.560547 0)"/>
      <use xlink:href="#DejaVuSans-Bold-6e" transform="translate(318.261719 0)"/>
      <use xlink:href="#DejaVuSans-Bold-74" transform="translate(389.453125 0)"/>
      <use xlink:href="#DejaVuSans-Bold-65" transform="translate(437.255859 0)"/>
      <use xlink:href="#DejaVuSans-Bold-6e" transform="translate(505.078125 0)"/>
      <use xlink:href="#DejaVuSans-Bold-74" transform="translate(576.269531 0)"/>
     </g>
    </g>
   </g>
   <g id="matplotlib.axis_2">
    <g id="ytick_1">
     <g id="line2d_3">
      <defs>
       <path id="m45ff9b437d" d="M 0 0 
L -3.5 0 
" style="stroke: #ffc25f; stroke-width: 0.8"/>
      </defs>
      <g>
       <use xlink:href="#m45ff9b437d" x="89.086875" y="430.56" style="fill: #ffc25f; stroke: #ffc25f; stroke-width: 0.8"/>
      </g>
     </g>
     <g id="text_4">
      <!-- 0 -->
      <g style="fill: #ffc25f" transform="translate(70.634375 437.398594) scale(0.18 -0.18)">
       <use xlink:href="#DejaVuSans-30"/>
      </g>
     </g>
    </g>
    <g id="ytick_2">
     <g id="line2d_4">
      <g>
       <use xlink:href="#m45ff9b437d" x="89.086875" y="340.499692" style="fill: #ffc25f; stroke: #ffc25f; stroke-width: 0.8"/>
      </g>
     </g>
     <g id="text_5">
      <!-- 1,000 -->
      <g style="fill: #ffc25f" transform="translate(30.55625 347.338286) scale(0.18 -0.18)">
       <defs>
        <path id="DejaVuSans-2c" d="M 750 794 
L 1409 794 
L 1409 256 
L 897 -744 
L 494 -744 
L 750 256 
L 750 794 
z
" transform="scale(0.015625)"/>
       </defs>
       <use xlink:href="#DejaVuSans-31"/>
       <use xlink:href="#DejaVuSans-2c" transform="translate(63.623047 0)"/>
       <use xlink:href="#DejaVuSans-30" transform="translate(95.410156 0)"/>
       <use xlink:href="#DejaVuSans-30" transform="translate(159.033203 0)"/>
       <use xlink:href="#DejaVuSans-30" transform="translate(222.65625 0)"/>
      </g>
     </g>
    </g>
    <g id="ytick_3">
     <g id="line2d_5">
      <g>
       <use xlink:href="#m45ff9b437d" x="89.086875" y="250.439384" style="fill: #ffc25f; stroke: #ffc25f; stroke-width: 0.8"/>
      </g>
     </g>
     <g id="text_6">
      <!-- 2,000 -->
      <g style="fill: #ffc25f" transform="translate(30.55625 257.277977) scale(0.18 -0.18)">
       <defs>
        <path id="DejaVuSans-32" d="M 1228 531 
L 3431 531 
L 3431 0 
L 469 0 
L 469 531 
Q 828 903 1448 1529 
Q 2069 2156 2228 2338 
Q 2531 2678 2651 2914 
Q 2772 3150 2772 3378 
Q 2772 3750 2511 3984 
Q 2250 4219 1831 4219 
Q 1534 4219 1204 4116 
Q 875 4013 500 3803 
L 500 4441 
Q 881 4594 1212 4672 
Q 1544 4750 1819 4750 
Q 2544 4750 2975 4387 
Q 3406 4025 3406 3419 
Q 3406 3131 3298 2873 
Q 3191 2616 2906 2266 
Q 2828 2175 2409 1742 
Q 1991 1309 1228 531 
z
" transform="scale(0.015625)"/>
       </defs>
       <use xlink:href="#DejaVuSans-32"/>
       <use xlink:href="#DejaVuSans-2c" transform="translate(63.623047 0)"/>
       <use xlink:href="#DejaVuSans-30" transform="translate(95.410156 0)"/>
       <use xlink:href="#DejaVuSans-30" transform="translate(159.033203 0)"/>
       <use xlink:href="#DejaVuSans-30" transform="translate(222.65625 0)"/>
      </g>
     </g>
    </g>
    <g id="ytick_4">
     <g id="line2d_6">
      <g>
       <use xlink:href="#m45ff9b437d" x="89.086875" y="160.379075" style="fill: #ffc25f; stroke: #ffc25f; stroke-width: 0.8"/>
      </g>
     </g>
     <g id="text_7">
      <!-- 3,000 -->
      <g style="fill: #ffc25f" transform="translate(30.55625 167.217669) scale(0.18 -0.18)">
       <defs>
        <path id="DejaVuSans-33" d="M 2597 2516 
Q 3050 2419 3304 2112 
Q 3559 1806 3559 1356 
Q 3559 666 3084 287 
Q 2609 -91 1734 -91 
Q 1441 -91 1130 -33 
Q 819 25 488 141 
L 488 750 
Q 750 597 1062 519 
Q 1375 441 1716 441 
Q 2309 441 2620 675 
Q 2931 909 2931 1356 
Q 2931 1769 2642 2001 
Q 2353 2234 1838 2234 
L 1294 2234 
L 1294 2753 
L 1863 2753 
Q 2328 2753 2575 2939 
Q 2822 3125 2822 3475 
Q 2822 3834 2567 4026 
Q 2313 4219 1838 4219 
Q 1578 4219 1281 4162 
Q 984 4106 628 3988 
L 628 4550 
Q 988 4650 1302 4700 
Q 1616 4750 1894 4750 
Q 2613 4750 3031 4423 
Q 3450 4097 3450 3541 
Q 3450 3153 3228 2886 
Q 3006 2619 2597 2516 
z
" transform="scale(0.015625)"/>
       </defs>
       <use xlink:href="#DejaVuSans-33"/>
       <use xlink:href="#DejaVuSans-2c" transform="translate(63.623047 0)"/>
       <use xlink:href="#DejaVuSans-30" transform="translate(95.410156 0)"/>
       <use xlink:href="#DejaVuSans-30" transform="translate(159.033203 0)"/>
       <use xlink:href="#DejaVuSans-30" transform="translate(222.65625 0)"/>
      </g>
     </g>
    </g>
    <g id="ytick_5">
     <g id="line2d_7">
      <g>
       <use xlink:href="#m45ff9b437d" x="89.086875" y="70.318767" style="fill: #ffc25f; stroke: #ffc25f; stroke-width: 0.8"/>
      </g>
     </g>
     <g id="text_8">
      <!-- 4,000 -->
      <g style="fill: #ffc25f" transform="translate(30.55625 77.157361) scale(0.18 -0.18)">
       <defs>
        <path id="DejaVuSans-34" d="M 2419 4116 
L 825 1625 
L 2419 1625 
L 2419 4116 
z
M 2253 4666 
L 3047 4666 
L 3047 1625 
L 3713 1625 
L 3713 1100 
L 3047 1100 
L 3047 0 
L 2419 0 
L 2419 1100 
L 313 1100 
L 313 1709 
L 2253 4666 
z
" transform="scale(0.015625)"/>
       </defs>
       <use xlink:href="#DejaVuSans-34"/>
       <use xlink:href="#DejaVuSans-2c" transform="translate(63.623047 0)"/>
       <use xlink:href="#DejaVuSans-30" transform="translate(95.410156 0)"/>
       <use xlink:href="#DejaVuSans-30" transform="translate(159.033203 0)"/>
       <use xlink:href="#DejaVuSans-30" transform="translate(222.65625 0)"/>
      </g>
     </g>
    </g>
    <g id="text_9">
     <!-- Number of reads -->
     <g style="fill: #ffc25f" transform="translate(22.396875 323.494375) rotate(-90) scale(0.2 -0.2)">
      <defs>
       <path id="DejaVuSans-Bold-4e" d="M 588 4666 
L 1931 4666 
L 3628 1466 
L 3628 4666 
L 4769 4666 
L 4769 0 
L 3425 0 
L 1728 3200 
L 1728 0 
L 588 0 
L 588 4666 
z
" transform="scale(0.015625)"/>
       <path id="DejaVuSans-Bold-75" d="M 500 1363 
L 500 3500 
L 1625 3500 
L 1625 3150 
Q 1625 2866 1622 2436 
Q 1619 2006 1619 1863 
Q 1619 1441 1641 1255 
Q 1663 1069 1716 984 
Q 1784 875 1895 815 
Q 2006 756 2150 756 
Q 2500 756 2700 1025 
Q 2900 1294 2900 1772 
L 2900 3500 
L 4019 3500 
L 4019 0 
L 2900 0 
L 2900 506 
Q 2647 200 2364 54 
Q 2081 -91 1741 -91 
Q 1134 -91 817 281 
Q 500 653 500 1363 
z
" transform="scale(0.015625)"/>
       <path id="DejaVuSans-Bold-6d" d="M 3781 2919 
Q 3994 3244 4286 3414 
Q 4578 3584 4928 3584 
Q 5531 3584 5847 3212 
Q 6163 2841 6163 2131 
L 6163 0 
L 5038 0 
L 5038 1825 
Q 5041 1866 5042 1909 
Q 5044 1953 5044 2034 
Q 5044 2406 4934 2573 
Q 4825 2741 4581 2741 
Q 4263 2741 4089 2478 
Q 3916 2216 3909 1719 
L 3909 0 
L 2784 0 
L 2784 1825 
Q 2784 2406 2684 2573 
Q 2584 2741 2328 2741 
Q 2006 2741 1831 2477 
Q 1656 2213 1656 1722 
L 1656 0 
L 531 0 
L 531 3500 
L 1656 3500 
L 1656 2988 
Q 1863 3284 2130 3434 
Q 2397 3584 2719 3584 
Q 3081 3584 3359 3409 
Q 3638 3234 3781 2919 
z
" transform="scale(0.015625)"/>
       <path id="DejaVuSans-Bold-62" d="M 2400 722 
Q 2759 722 2948 984 
Q 3138 1247 3138 1747 
Q 3138 2247 2948 2509 
Q 2759 2772 2400 2772 
Q 2041 2772 1848 2508 
Q 1656 2244 1656 1747 
Q 1656 1250 1848 986 
Q 2041 722 2400 722 
z
M 1656 2988 
Q 1888 3294 2169 3439 
Q 2450 3584 2816 3584 
Q 3463 3584 3878 3070 
Q 4294 2556 4294 1747 
Q 4294 938 3878 423 
Q 3463 -91 2816 -91 
Q 2450 -91 2169 54 
Q 1888 200 1656 506 
L 1656 0 
L 538 0 
L 538 4863 
L 1656 4863 
L 1656 2988 
z
" transform="scale(0.015625)"/>
       <path id="DejaVuSans-Bold-72" d="M 3138 2547 
Q 2991 2616 2845 2648 
Q 2700 2681 2553 2681 
Q 2122 2681 1889 2404 
Q 1656 2128 1656 1613 
L 1656 0 
L 538 0 
L 538 3500 
L 1656 3500 
L 1656 2925 
Q 1872 3269 2151 3426 
Q 2431 3584 2822 3584 
Q 2878 3584 2943 3579 
Q 3009 3575 3134 3559 
L 3138 2547 
z
" transform="scale(0.015625)"/>
       <path id="DejaVuSans-Bold-66" d="M 2841 4863 
L 2841 4128 
L 2222 4128 
Q 1984 4128 1890 4042 
Q 1797 3956 1797 3744 
L 1797 3500 
L 2753 3500 
L 2753 2700 
L 1797 2700 
L 1797 0 
L 678 0 
L 678 2700 
L 122 2700 
L 122 3500 
L 678 3500 
L 678 3744 
Q 678 4316 997 4589 
Q 1316 4863 1984 4863 
L 2841 4863 
z
" transform="scale(0.015625)"/>
       <path id="DejaVuSans-Bold-61" d="M 2106 1575 
Q 1756 1575 1579 1456 
Q 1403 1338 1403 1106 
Q 1403 894 1545 773 
Q 1688 653 1941 653 
Q 2256 653 2472 879 
Q 2688 1106 2688 1447 
L 2688 1575 
L 2106 1575 
z
M 3816 1997 
L 3816 0 
L 2688 0 
L 2688 519 
Q 2463 200 2181 54 
Q 1900 -91 1497 -91 
Q 953 -91 614 226 
Q 275 544 275 1050 
Q 275 1666 698 1953 
Q 1122 2241 2028 2241 
L 2688 2241 
L 2688 2328 
Q 2688 2594 2478 2717 
Q 2269 2841 1825 2841 
Q 1466 2841 1156 2769 
Q 847 2697 581 2553 
L 581 3406 
Q 941 3494 1303 3539 
Q 1666 3584 2028 3584 
Q 2975 3584 3395 3211 
Q 3816 2838 3816 1997 
z
" transform="scale(0.015625)"/>
       <path id="DejaVuSans-Bold-64" d="M 2919 2988 
L 2919 4863 
L 4044 4863 
L 4044 0 
L 2919 0 
L 2919 506 
Q 2688 197 2409 53 
Q 2131 -91 1766 -91 
Q 1119 -91 703 423 
Q 288 938 288 1747 
Q 288 2556 703 3070 
Q 1119 3584 1766 3584 
Q 2128 3584 2408 3439 
Q 2688 3294 2919 2988 
z
M 2181 722 
Q 2541 722 2730 984 
Q 2919 1247 2919 1747 
Q 2919 2247 2730 2509 
Q 2541 2772 2181 2772 
Q 1825 2772 1636 2509 
Q 1447 2247 1447 1747 
Q 1447 1247 1636 984 
Q 1825 722 2181 722 
z
" transform="scale(0.015625)"/>
       <path id="DejaVuSans-Bold-73" d="M 3272 3391 
L 3272 2541 
Q 2913 2691 2578 2766 
Q 2244 2841 1947 2841 
Q 1628 2841 1473 2761 
Q 1319 2681 1319 2516 
Q 1319 2381 1436 2309 
Q 1553 2238 1856 2203 
L 2053 2175 
Q 2913 2066 3209 1816 
Q 3506 1566 3506 1031 
Q 3506 472 3093 190 
Q 2681 -91 1863 -91 
Q 1516 -91 1145 -36 
Q 775 19 384 128 
L 384 978 
Q 719 816 1070 734 
Q 1422 653 1784 653 
Q 2113 653 2278 743 
Q 2444 834 2444 1013 
Q 2444 1163 2330 1236 
Q 2216 1309 1875 1350 
L 1678 1375 
Q 931 1469 631 1722 
Q 331 1975 331 2491 
Q 331 3047 712 3315 
Q 1094 3584 1881 3584 
Q 2191 3584 2531 3537 
Q 2872 3491 3272 3391 
z
" transform="scale(0.015625)"/>
      </defs>
      <use xlink:href="#DejaVuSans-Bold-4e"/>
      <use xlink:href="#DejaVuSans-Bold-75" transform="translate(83.691406 0)"/>
      <use xlink:href="#DejaVuSans-Bold-6d" transform="translate(154.882812 0)"/>
      <use xlink:href="#DejaVuSans-Bold-62" transform="translate(259.082031 0)"/>
      <use xlink:href="#DejaVuSans-Bold-65" transform="translate(330.664062 0)"/>
      <use xlink:href="#DejaVuSans-Bold-72" transform="translate(398.486328 0)"/>
      <use xlink:href="#DejaVuSans-Bold-20" transform="translate(447.802734 0)"/>
      <use xlink:href="#DejaVuSans-Bold-6f" transform="translate(482.617188 0)"/>
      <use xlink:href="#DejaVuSans-Bold-66" transform="translate(551.318359 0)"/>
      <use xlink:href="#DejaVuSans-Bold-20" transform="translate(594.824219 0)"/>
      <use xlink:href="#DejaVuSans-Bold-72" transform="translate(629.638672 0)"/>
      <use xlink:href="#DejaVuSans-Bold-65" transform="translate(678.955078 0)"/>
      <use xlink:href="#DejaVuSans-Bold-61" transform="translate(746.777344 0)"/>
      <use xlink:href="#DejaVuSans-Bold-64" transform="translate(814.257812 0)"/>
      <use xlink:href="#DejaVuSans-Bold-73" transform="translate(885.839844 0)"/>
     </g>
    </g>
   </g>
   <g id="patch_3">
    <path d="M 94.666875 430.357364 
L 105.826875 430.357364 
L 105.826875 423.535296 
L 94.666875 423.535296 
L 94.666875 430.357364 
z
" clip-path="url(#p4122ddffc5)" style="fill: #ffc25f; stroke: #000000; stroke-linejoin: miter"/>
   </g>
   <g id="line2d_8">
    <path d="M 100.246875 430.357364 
L 100.246875 430.56 
" clip-path="url(#p4122ddffc5)" style="fill: none; stroke: #000000; stroke-linecap: square"/>
   </g>
   <g id="line2d_9">
    <path d="M 100.246875 423.535296 
L 100.246875 423.535296 
" clip-path="url(#p4122ddffc5)" style="fill: none; stroke: #000000; stroke-linecap: square"/>
   </g>
   <g id="line2d_10">
    <path d="M 97.456875 430.56 
L 103.036875 430.56 
" clip-path="url(#p4122ddffc5)" style="fill: none; stroke: #000000; stroke-linecap: square"/>
   </g>
   <g id="line2d_11">
    <path d="M 97.456875 423.535296 
L 103.036875 423.535296 
" clip-path="url(#p4122ddffc5)" style="fill: none; stroke: #000000; stroke-linecap: square"/>
   </g>
   <g id="patch_4">
    <path d="M 116.986875 407.18935 
L 128.146875 407.18935 
L 128.146875 389.76268 
L 116.986875 389.76268 
L 116.986875 407.18935 
z
" clip-path="url(#p4122ddffc5)" style="fill: #ffc25f; stroke: #000000; stroke-linejoin: miter"/>
   </g>
   <g id="line2d_12">
    <path d="M 122.566875 407.18935 
L 122.566875 420.563306 
" clip-path="url(#p4122ddffc5)" style="fill: none; stroke: #000000; stroke-linecap: square"/>
   </g>
   <g id="line2d_13">
    <path d="M 122.566875 389.76268 
L 122.566875 373.912066 
" clip-path="url(#p4122ddffc5)" style="fill: none; stroke: #000000; stroke-linecap: square"/>
   </g>
   <g id="line2d_14">
    <path d="M 119.776875 420.563306 
L 125.356875 420.563306 
" clip-path="url(#p4122ddffc5)" style="fill: none; stroke: #000000; stroke-linecap: square"/>
   </g>
   <g id="line2d_15">
    <path d="M 119.776875 373.912066 
L 125.356875 373.912066 
" clip-path="url(#p4122ddffc5)" style="fill: none; stroke: #000000; stroke-linecap: square"/>
   </g>
   <g id="patch_5">
    <path d="M 139.306875 323.568354 
L 150.466875 323.568354 
L 150.466875 267.370721 
L 139.306875 267.370721 
L 139.306875 323.568354 
z
" clip-path="url(#p4122ddffc5)" style="fill: #ffc25f; stroke: #000000; stroke-linejoin: miter"/>
   </g>
   <g id="line2d_16">
    <path d="M 144.886875 323.568354 
L 144.886875 324.739138 
" clip-path="url(#p4122ddffc5)" style="fill: none; stroke: #000000; stroke-linecap: square"/>
   </g>
   <g id="line2d_17">
    <path d="M 144.886875 267.370721 
L 144.886875 212.343873 
" clip-path="url(#p4122ddffc5)" style="fill: none; stroke: #000000; stroke-linecap: square"/>
   </g>
   <g id="line2d_18">
    <path d="M 142.096875 324.739138 
L 147.676875 324.739138 
" clip-path="url(#p4122ddffc5)" style="fill: none; stroke: #000000; stroke-linecap: square"/>
   </g>
   <g id="line2d_19">
    <path d="M 142.096875 212.343873 
L 147.676875 212.343873 
" clip-path="url(#p4122ddffc5)" style="fill: none; stroke: #000000; stroke-linecap: square"/>
   </g>
   <g id="patch_6">
    <path d="M 161.626875 371.075166 
L 172.786875 371.075166 
L 172.786875 228.86994 
L 161.626875 228.86994 
L 161.626875 371.075166 
z
" clip-path="url(#p4122ddffc5)" style="fill: #ffc25f; stroke: #000000; stroke-linejoin: miter"/>
   </g>
   <g id="line2d_20">
    <path d="M 167.206875 371.075166 
L 167.206875 429.389216 
" clip-path="url(#p4122ddffc5)" style="fill: none; stroke: #000000; stroke-linecap: square"/>
   </g>
   <g id="line2d_21">
    <path d="M 167.206875 228.86994 
L 167.206875 27.36 
" clip-path="url(#p4122ddffc5)" style="fill: none; stroke: #000000; stroke-linecap: square"/>
   </g>
   <g id="line2d_22">
    <path d="M 164.416875 429.389216 
L 169.996875 429.389216 
" clip-path="url(#p4122ddffc5)" style="fill: none; stroke: #000000; stroke-linecap: square"/>
   </g>
   <g id="line2d_23">
    <path d="M 164.416875 27.36 
L 169.996875 27.36 
" clip-path="url(#p4122ddffc5)" style="fill: none; stroke: #000000; stroke-linecap: square"/>
   </g>
   <g id="patch_7">
    <path d="M 183.946875 399.309073 
L 195.106875 399.309073 
L 195.106875 338.338244 
L 183.946875 338.338244 
L 183.946875 399.309073 
z
" clip-path="url(#p4122ddffc5)" style="fill: #ffc25f; stroke: #000000; stroke-linejoin: miter"/>
   </g>
   <g id="line2d_24">
    <path d="M 189.526875 399.309073 
L 189.526875 430.56 
" clip-path="url(#p4122ddffc5)" style="fill: none; stroke: #000000; stroke-linecap: square"/>
   </g>
   <g id="line2d_25">
    <path d="M 189.526875 338.338244 
L 189.526875 248.818298 
" clip-path="url(#p4122ddffc5)" style="fill: none; stroke: #000000; stroke-linecap: square"/>
   </g>
   <g id="line2d_26">
    <path d="M 186.736875 430.56 
L 192.316875 430.56 
" clip-path="url(#p4122ddffc5)" style="fill: none; stroke: #000000; stroke-linecap: square"/>
   </g>
   <g id="line2d_27">
    <path d="M 186.736875 248.818298 
L 192.316875 248.818298 
" clip-path="url(#p4122ddffc5)" style="fill: none; stroke: #000000; stroke-linecap: square"/>
   </g>
   <g id="patch_8">
    <path d="M 206.266875 391.338736 
L 217.426875 391.338736 
L 217.426875 338.293214 
L 206.266875 338.293214 
L 206.266875 391.338736 
z
" clip-path="url(#p4122ddffc5)" style="fill: #ffc25f; stroke: #000000; stroke-linejoin: miter"/>
   </g>
   <g id="line2d_28">
    <path d="M 211.846875 391.338736 
L 211.846875 430.56 
" clip-path="url(#p4122ddffc5)" style="fill: none; stroke: #000000; stroke-linecap: square"/>
   </g>
   <g id="line2d_29">
    <path d="M 211.846875 338.293214 
L 211.846875 259.175233 
" clip-path="url(#p4122ddffc5)" style="fill: none; stroke: #000000; stroke-linecap: square"/>
   </g>
   <g id="line2d_30">
    <path d="M 209.056875 430.56 
L 214.636875 430.56 
" clip-path="url(#p4122ddffc5)" style="fill: none; stroke: #000000; stroke-linecap: square"/>
   </g>
   <g id="line2d_31">
    <path d="M 209.056875 259.175233 
L 214.636875 259.175233 
" clip-path="url(#p4122ddffc5)" style="fill: none; stroke: #000000; stroke-linecap: square"/>
   </g>
   <g id="patch_9">
    <path d="M 228.586875 386.70063 
L 239.746875 386.70063 
L 239.746875 322.937932 
L 228.586875 322.937932 
L 228.586875 386.70063 
z
" clip-path="url(#p4122ddffc5)" style="fill: #ffc25f; stroke: #000000; stroke-linejoin: miter"/>
   </g>
   <g id="line2d_32">
    <path d="M 234.166875 386.70063 
L 234.166875 430.56 
" clip-path="url(#p4122ddffc5)" style="fill: none; stroke: #000000; stroke-linecap: square"/>
   </g>
   <g id="line2d_33">
    <path d="M 234.166875 322.937932 
L 234.166875 227.564065 
" clip-path="url(#p4122ddffc5)" style="fill: none; stroke: #000000; stroke-linecap: square"/>
   </g>
   <g id="line2d_34">
    <path d="M 231.376875 430.56 
L 236.956875 430.56 
" clip-path="url(#p4122ddffc5)" style="fill: none; stroke: #000000; stroke-linecap: square"/>
   </g>
   <g id="line2d_35">
    <path d="M 231.376875 227.564065 
L 236.956875 227.564065 
" clip-path="url(#p4122ddffc5)" style="fill: none; stroke: #000000; stroke-linecap: square"/>
   </g>
   <g id="patch_10">
    <path d="M 250.906875 382.850552 
L 262.066875 382.850552 
L 262.066875 303.034604 
L 250.906875 303.034604 
L 250.906875 382.850552 
z
" clip-path="url(#p4122ddffc5)" style="fill: #ffc25f; stroke: #000000; stroke-linejoin: miter"/>
   </g>
   <g id="line2d_36">
    <path d="M 256.486875 382.850552 
L 256.486875 430.56 
" clip-path="url(#p4122ddffc5)" style="fill: none; stroke: #000000; stroke-linecap: square"/>
   </g>
   <g id="line2d_37">
    <path d="M 256.486875 303.034604 
L 256.486875 183.434514 
" clip-path="url(#p4122ddffc5)" style="fill: none; stroke: #000000; stroke-linecap: square"/>
   </g>
   <g id="line2d_38">
    <path d="M 253.696875 430.56 
L 259.276875 430.56 
" clip-path="url(#p4122ddffc5)" style="fill: none; stroke: #000000; stroke-linecap: square"/>
   </g>
   <g id="line2d_39">
    <path d="M 253.696875 183.434514 
L 259.276875 183.434514 
" clip-path="url(#p4122ddffc5)" style="fill: none; stroke: #000000; stroke-linecap: square"/>
   </g>
   <g id="patch_11">
    <path d="M 273.226875 381.116891 
L 284.386875 381.116891 
L 284.386875 286.643627 
L 273.226875 286.643627 
L 273.226875 381.116891 
z
" clip-path="url(#p4122ddffc5)" style="fill: #ffc25f; stroke: #000000; stroke-linejoin: miter"/>
   </g>
   <g id="line2d_40">
    <path d="M 278.806875 381.116891 
L 278.806875 430.56 
" clip-path="url(#p4122ddffc5)" style="fill: none; stroke: #000000; stroke-linecap: square"/>
   </g>
   <g id="line2d_41">
    <path d="M 278.806875 286.643627 
L 278.806875 145.068823 
" clip-path="url(#p4122ddffc5)" style="fill: none; stroke: #000000; stroke-linecap: square"/>
   </g>
   <g id="line2d_42">
    <path d="M 276.016875 430.56 
L 281.596875 430.56 
" clip-path="url(#p4122ddffc5)" style="fill: none; stroke: #000000; stroke-linecap: square"/>
   </g>
   <g id="line2d_43">
    <path d="M 276.016875 145.068823 
L 281.596875 145.068823 
" clip-path="url(#p4122ddffc5)" style="fill: none; stroke: #000000; stroke-linecap: square"/>
   </g>
   <g id="patch_12">
    <path d="M 295.546875 373.101523 
L 306.706875 373.101523 
L 306.706875 269.036837 
L 295.546875 269.036837 
L 295.546875 373.101523 
z
" clip-path="url(#p4122ddffc5)" style="fill: #ffc25f; stroke: #000000; stroke-linejoin: miter"/>
   </g>
   <g id="line2d_44">
    <path d="M 301.126875 373.101523 
L 301.126875 430.56 
" clip-path="url(#p4122ddffc5)" style="fill: none; stroke: #000000; stroke-linecap: square"/>
   </g>
   <g id="line2d_45">
    <path d="M 301.126875 269.036837 
L 301.126875 113.007353 
" clip-path="url(#p4122ddffc5)" style="fill: none; stroke: #000000; stroke-linecap: square"/>
   </g>
   <g id="line2d_46">
    <path d="M 298.336875 430.56 
L 303.916875 430.56 
" clip-path="url(#p4122ddffc5)" style="fill: none; stroke: #000000; stroke-linecap: square"/>
   </g>
   <g id="line2d_47">
    <path d="M 298.336875 113.007353 
L 303.916875 113.007353 
" clip-path="url(#p4122ddffc5)" style="fill: none; stroke: #000000; stroke-linecap: square"/>
   </g>
   <g id="patch_13">
    <path d="M 317.866875 363.825312 
L 329.026875 363.825312 
L 329.026875 259.062658 
L 317.866875 259.062658 
L 317.866875 363.825312 
z
" clip-path="url(#p4122ddffc5)" style="fill: #ffc25f; stroke: #000000; stroke-linejoin: miter"/>
   </g>
   <g id="line2d_48">
    <path d="M 323.446875 363.825312 
L 323.446875 430.56 
" clip-path="url(#p4122ddffc5)" style="fill: none; stroke: #000000; stroke-linecap: square"/>
   </g>
   <g id="line2d_49">
    <path d="M 323.446875 259.062658 
L 323.446875 102.110056 
" clip-path="url(#p4122ddffc5)" style="fill: none; stroke: #000000; stroke-linecap: square"/>
   </g>
   <g id="line2d_50">
    <path d="M 320.656875 430.56 
L 326.236875 430.56 
" clip-path="url(#p4122ddffc5)" style="fill: none; stroke: #000000; stroke-linecap: square"/>
   </g>
   <g id="line2d_51">
    <path d="M 320.656875 102.110056 
L 326.236875 102.110056 
" clip-path="url(#p4122ddffc5)" style="fill: none; stroke: #000000; stroke-linecap: square"/>
   </g>
   <g id="patch_14">
    <path d="M 340.186875 369.048809 
L 351.346875 369.048809 
L 351.346875 247.98524 
L 340.186875 247.98524 
L 340.186875 369.048809 
z
" clip-path="url(#p4122ddffc5)" style="fill: #ffc25f; stroke: #000000; stroke-linejoin: miter"/>
   </g>
   <g id="line2d_52">
    <path d="M 345.766875 369.048809 
L 345.766875 430.56 
" clip-path="url(#p4122ddffc5)" style="fill: none; stroke: #000000; stroke-linecap: square"/>
   </g>
   <g id="line2d_53">
    <path d="M 345.766875 247.98524 
L 345.766875 66.806415 
" clip-path="url(#p4122ddffc5)" style="fill: none; stroke: #000000; stroke-linecap: square"/>
   </g>
   <g id="line2d_54">
    <path d="M 342.976875 430.56 
L 348.556875 430.56 
" clip-path="url(#p4122ddffc5)" style="fill: none; stroke: #000000; stroke-linecap: square"/>
   </g>
   <g id="line2d_55">
    <path d="M 342.976875 66.806415 
L 348.556875 66.806415 
" clip-path="url(#p4122ddffc5)" style="fill: none; stroke: #000000; stroke-linecap: square"/>
   </g>
   <g id="patch_15">
    <path d="M 362.506875 378.189931 
L 373.666875 378.189931 
L 373.666875 251.204896 
L 362.506875 251.204896 
L 362.506875 378.189931 
z
" clip-path="url(#p4122ddffc5)" style="fill: #ffc25f; stroke: #000000; stroke-linejoin: miter"/>
   </g>
   <g id="line2d_56">
    <path d="M 368.086875 378.189931 
L 368.086875 430.56 
" clip-path="url(#p4122ddffc5)" style="fill: none; stroke: #000000; stroke-linecap: square"/>
   </g>
   <g id="line2d_57">
    <path d="M 368.086875 251.204896 
L 368.086875 63.384123 
" clip-path="url(#p4122ddffc5)" style="fill: none; stroke: #000000; stroke-linecap: square"/>
   </g>
   <g id="line2d_58">
    <path d="M 365.296875 430.56 
L 370.876875 430.56 
" clip-path="url(#p4122ddffc5)" style="fill: none; stroke: #000000; stroke-linecap: square"/>
   </g>
   <g id="line2d_59">
    <path d="M 365.296875 63.384123 
L 370.876875 63.384123 
" clip-path="url(#p4122ddffc5)" style="fill: none; stroke: #000000; stroke-linecap: square"/>
   </g>
   <g id="patch_16">
    <path d="M 384.826875 387.601233 
L 395.986875 387.601233 
L 395.986875 266.109877 
L 384.826875 266.109877 
L 384.826875 387.601233 
z
" clip-path="url(#p4122ddffc5)" style="fill: #ffc25f; stroke: #000000; stroke-linejoin: miter"/>
   </g>
   <g id="line2d_60">
    <path d="M 390.406875 387.601233 
L 390.406875 430.56 
" clip-path="url(#p4122ddffc5)" style="fill: none; stroke: #000000; stroke-linecap: square"/>
   </g>
   <g id="line2d_61">
    <path d="M 390.406875 266.109877 
L 390.406875 85.989261 
" clip-path="url(#p4122ddffc5)" style="fill: none; stroke: #000000; stroke-linecap: square"/>
   </g>
   <g id="line2d_62">
    <path d="M 387.616875 430.56 
L 393.196875 430.56 
" clip-path="url(#p4122ddffc5)" style="fill: none; stroke: #000000; stroke-linecap: square"/>
   </g>
   <g id="line2d_63">
    <path d="M 387.616875 85.989261 
L 393.196875 85.989261 
" clip-path="url(#p4122ddffc5)" style="fill: none; stroke: #000000; stroke-linecap: square"/>
   </g>
   <g id="patch_17">
    <path d="M 407.146875 403.474362 
L 418.306875 403.474362 
L 418.306875 313.301479 
L 407.146875 313.301479 
L 407.146875 403.474362 
z
" clip-path="url(#p4122ddffc5)" style="fill: #ffc25f; stroke: #000000; stroke-linejoin: miter"/>
   </g>
   <g id="line2d_64">
    <path d="M 412.726875 403.474362 
L 412.726875 430.56 
" clip-path="url(#p4122ddffc5)" style="fill: none; stroke: #000000; stroke-linecap: square"/>
   </g>
   <g id="line2d_65">
    <path d="M 412.726875 313.301479 
L 412.726875 189.108314 
" clip-path="url(#p4122ddffc5)" style="fill: none; stroke: #000000; stroke-linecap: square"/>
   </g>
   <g id="line2d_66">
    <path d="M 409.936875 430.56 
L 415.516875 430.56 
" clip-path="url(#p4122ddffc5)" style="fill: none; stroke: #000000; stroke-linecap: square"/>
   </g>
   <g id="line2d_67">
    <path d="M 409.936875 189.108314 
L 415.516875 189.108314 
" clip-path="url(#p4122ddffc5)" style="fill: none; stroke: #000000; stroke-linecap: square"/>
   </g>
   <g id="patch_18">
    <path d="M 429.466875 426.799982 
L 440.626875 426.799982 
L 440.626875 393.567728 
L 429.466875 393.567728 
L 429.466875 426.799982 
z
" clip-path="url(#p4122ddffc5)" style="fill: #ffc25f; stroke: #000000; stroke-linejoin: miter"/>
   </g>
   <g id="line2d_68">
    <path d="M 435.046875 426.799982 
L 435.046875 430.56 
" clip-path="url(#p4122ddffc5)" style="fill: none; stroke: #000000; stroke-linecap: square"/>
   </g>
   <g id="line2d_69">
    <path d="M 435.046875 393.567728 
L 435.046875 344.282225 
" clip-path="url(#p4122ddffc5)" style="fill: none; stroke: #000000; stroke-linecap: square"/>
   </g>
   <g id="line2d_70">
    <path d="M 432.256875 430.56 
L 437.836875 430.56 
" clip-path="url(#p4122ddffc5)" style="fill: none; stroke: #000000; stroke-linecap: square"/>
   </g>
   <g id="line2d_71">
    <path d="M 432.256875 344.282225 
L 437.836875 344.282225 
" clip-path="url(#p4122ddffc5)" style="fill: none; stroke: #000000; stroke-linecap: square"/>
   </g>
   <g id="patch_19">
    <path d="M 451.786875 430.379879 
L 462.946875 430.379879 
L 462.946875 420.473245 
L 451.786875 420.473245 
L 451.786875 430.379879 
z
" clip-path="url(#p4122ddffc5)" style="fill: #ffc25f; stroke: #000000; stroke-linejoin: miter"/>
   </g>
   <g id="line2d_72">
    <path d="M 457.366875 430.379879 
L 457.366875 430.56 
" clip-path="url(#p4122ddffc5)" style="fill: none; stroke: #000000; stroke-linecap: square"/>
   </g>
   <g id="line2d_73">
    <path d="M 457.366875 420.473245 
L 457.366875 408.315104 
" clip-path="url(#p4122ddffc5)" style="fill: none; stroke: #000000; stroke-linecap: square"/>
   </g>
   <g id="line2d_74">
    <path d="M 454.576875 430.56 
L 460.156875 430.56 
" clip-path="url(#p4122ddffc5)" style="fill: none; stroke: #000000; stroke-linecap: square"/>
   </g>
   <g id="line2d_75">
    <path d="M 454.576875 408.315104 
L 460.156875 408.315104 
" clip-path="url(#p4122ddffc5)" style="fill: none; stroke: #000000; stroke-linecap: square"/>
   </g>
   <g id="patch_20">
    <path d="M 474.106875 430.56 
L 485.266875 430.56 
L 485.266875 430.56 
L 474.106875 430.56 
L 474.106875 430.56 
z
" clip-path="url(#p4122ddffc5)" style="fill: #ffc25f; stroke: #000000; stroke-linejoin: miter"/>
   </g>
   <g id="line2d_76">
    <path d="M 479.686875 430.56 
L 479.686875 430.56 
" clip-path="url(#p4122ddffc5)" style="fill: none; stroke: #000000; stroke-linecap: square"/>
   </g>
   <g id="line2d_77">
    <path d="M 479.686875 430.56 
L 479.686875 430.56 
" clip-path="url(#p4122ddffc5)" style="fill: none; stroke: #000000; stroke-linecap: square"/>
   </g>
   <g id="line2d_78">
    <path d="M 476.896875 430.56 
L 482.476875 430.56 
" clip-path="url(#p4122ddffc5)" style="fill: none; stroke: #000000; stroke-linecap: square"/>
   </g>
   <g id="line2d_79">
    <path d="M 476.896875 430.56 
L 482.476875 430.56 
" clip-path="url(#p4122ddffc5)" style="fill: none; stroke: #000000; stroke-linecap: square"/>
   </g>
   <g id="patch_21">
    <path clip-path="url(#p4122ddffc5)" style="fill: #ffc25f; stroke: #000000; stroke-linejoin: miter"/>
   </g>
   <g id="line2d_80">
    <path clip-path="url(#p4122ddffc5)" style="fill: none; stroke: #000000; stroke-linecap: square"/>
   </g>
   <g id="line2d_81">
    <path clip-path="url(#p4122ddffc5)" style="fill: none; stroke: #000000; stroke-linecap: square"/>
   </g>
   <g id="line2d_82">
    <path clip-path="url(#p4122ddffc5)" style="fill: none; stroke: #000000; stroke-linecap: square"/>
   </g>
   <g id="line2d_83">
    <path clip-path="url(#p4122ddffc5)" style="fill: none; stroke: #000000; stroke-linecap: square"/>
   </g>
   <g id="patch_22">
    <path clip-path="url(#p4122ddffc5)" style="fill: #ffc25f; stroke: #000000; stroke-linejoin: miter"/>
   </g>
   <g id="line2d_84">
    <path clip-path="url(#p4122ddffc5)" style="fill: none; stroke: #000000; stroke-linecap: square"/>
   </g>
   <g id="line2d_85">
    <path clip-path="url(#p4122ddffc5)" style="fill: none; stroke: #000000; stroke-linecap: square"/>
   </g>
   <g id="line2d_86">
    <path clip-path="url(#p4122ddffc5)" style="fill: none; stroke: #000000; stroke-linecap: square"/>
   </g>
   <g id="line2d_87">
    <path clip-path="url(#p4122ddffc5)" style="fill: none; stroke: #000000; stroke-linecap: square"/>
   </g>
   <g id="line2d_88">
    <path d="M 94.666875 429.434246 
L 105.826875 429.434246 
" clip-path="url(#p4122ddffc5)" style="fill: none; stroke: #000000"/>
   </g>
   <g id="line2d_89">
    <path d="M 116.986875 405.523234 
L 128.146875 405.523234 
" clip-path="url(#p4122ddffc5)" style="fill: none; stroke: #000000"/>
   </g>
   <g id="line2d_90">
    <path d="M 139.306875 278.358079 
L 150.466875 278.358079 
" clip-path="url(#p4122ddffc5)" style="fill: none; stroke: #000000"/>
   </g>
   <g id="line2d_91">
    <path d="M 161.626875 297.000563 
L 172.786875 297.000563 
" clip-path="url(#p4122ddffc5)" style="fill: none; stroke: #000000"/>
   </g>
   <g id="line2d_92">
    <path d="M 183.946875 375.353031 
L 195.106875 375.353031 
" clip-path="url(#p4122ddffc5)" style="fill: none; stroke: #000000"/>
   </g>
   <g id="line2d_93">
    <path d="M 206.266875 368.778629 
L 217.426875 368.778629 
" clip-path="url(#p4122ddffc5)" style="fill: none; stroke: #000000"/>
   </g>
   <g id="line2d_94">
    <path d="M 228.586875 358.151512 
L 239.746875 358.151512 
" clip-path="url(#p4122ddffc5)" style="fill: none; stroke: #000000"/>
   </g>
   <g id="line2d_95">
    <path d="M 250.906875 345.543069 
L 262.066875 345.543069 
" clip-path="url(#p4122ddffc5)" style="fill: none; stroke: #000000"/>
   </g>
   <g id="line2d_96">
    <path d="M 273.226875 336.266857 
L 284.386875 336.266857 
" clip-path="url(#p4122ddffc5)" style="fill: none; stroke: #000000"/>
   </g>
   <g id="line2d_97">
    <path d="M 295.546875 325.819862 
L 306.706875 325.819862 
" clip-path="url(#p4122ddffc5)" style="fill: none; stroke: #000000"/>
   </g>
   <g id="line2d_98">
    <path d="M 317.866875 317.219102 
L 329.026875 317.219102 
" clip-path="url(#p4122ddffc5)" style="fill: none; stroke: #000000"/>
   </g>
   <g id="line2d_99">
    <path d="M 340.186875 319.785821 
L 351.346875 319.785821 
" clip-path="url(#p4122ddffc5)" style="fill: none; stroke: #000000"/>
   </g>
   <g id="line2d_100">
    <path d="M 362.506875 330.773178 
L 373.666875 330.773178 
" clip-path="url(#p4122ddffc5)" style="fill: none; stroke: #000000"/>
   </g>
   <g id="line2d_101">
    <path d="M 384.826875 342.526049 
L 395.986875 342.526049 
" clip-path="url(#p4122ddffc5)" style="fill: none; stroke: #000000"/>
   </g>
   <g id="line2d_102">
    <path d="M 407.146875 372.696252 
L 418.306875 372.696252 
" clip-path="url(#p4122ddffc5)" style="fill: none; stroke: #000000"/>
   </g>
   <g id="line2d_103">
    <path d="M 429.466875 416.375501 
L 440.626875 416.375501 
" clip-path="url(#p4122ddffc5)" style="fill: none; stroke: #000000"/>
   </g>
   <g id="line2d_104">
    <path d="M 451.786875 428.848854 
L 462.946875 428.848854 
" clip-path="url(#p4122ddffc5)" style="fill: none; stroke: #000000"/>
   </g>
   <g id="line2d_105">
    <path d="M 474.106875 430.56 
L 485.266875 430.56 
" clip-path="url(#p4122ddffc5)" style="fill: none; stroke: #000000"/>
   </g>
   <g id="line2d_106">
    <path clip-path="url(#p4122ddffc5)" style="fill: none; stroke: #000000"/>
   </g>
   <g id="line2d_107">
    <path clip-path="url(#p4122ddffc5)" style="fill: none; stroke: #000000"/>
   </g>
   <g id="patch_23">
    <path d="M 89.086875 450.72 
L 89.086875 7.2 
" style="fill: none; stroke: #000000; stroke-linejoin: miter; stroke-linecap: square"/>
   </g>
   <g id="patch_24">
    <path d="M 535.486875 450.72 
L 535.486875 7.2 
" style="fill: none; stroke: #000000; stroke-linejoin: miter; stroke-linecap: square"/>
   </g>
   <g id="patch_25">
    <path d="M 89.086875 450.72 
L 535.486875 450.72 
" style="fill: none; stroke: #000000; stroke-linejoin: miter; stroke-linecap: square"/>
   </g>
  </g>
  <g id="axes_2">
   <g id="matplotlib.axis_3">
    <g id="ytick_6">
     <g id="line2d_108">
      <defs>
       <path id="m72d53af028" d="M 0 0 
L 3.5 0 
" style="stroke: #3d9f95; stroke-width: 0.8"/>
      </defs>
      <g>
       <use xlink:href="#m72d53af028" x="535.486875" y="430.56" style="fill: #3d9f95; stroke: #3d9f95; stroke-width: 0.8"/>
      </g>
     </g>
     <g id="text_10">
      <!-- 0 -->
      <g style="fill: #3d9f95" transform="translate(542.486875 437.398594) scale(0.18 -0.18)">
       <use xlink:href="#DejaVuSans-30"/>
      </g>
     </g>
    </g>
    <g id="ytick_7">
     <g id="line2d_109">
      <g>
       <use xlink:href="#m72d53af028" x="535.486875" y="350.742124" style="fill: #3d9f95; stroke: #3d9f95; stroke-width: 0.8"/>
      </g>
     </g>
     <g id="text_11">
      <!-- 2000 -->
      <g style="fill: #3d9f95" transform="translate(542.486875 357.580718) scale(0.18 -0.18)">
       <use xlink:href="#DejaVuSans-32"/>
       <use xlink:href="#DejaVuSans-30" transform="translate(63.623047 0)"/>
       <use xlink:href="#DejaVuSans-30" transform="translate(127.246094 0)"/>
       <use xlink:href="#DejaVuSans-30" transform="translate(190.869141 0)"/>
      </g>
     </g>
    </g>
    <g id="ytick_8">
     <g id="line2d_110">
      <g>
       <use xlink:href="#m72d53af028" x="535.486875" y="270.924248" style="fill: #3d9f95; stroke: #3d9f95; stroke-width: 0.8"/>
      </g>
     </g>
     <g id="text_12">
      <!-- 4000 -->
      <g style="fill: #3d9f95" transform="translate(542.486875 277.762842) scale(0.18 -0.18)">
       <use xlink:href="#DejaVuSans-34"/>
       <use xlink:href="#DejaVuSans-30" transform="translate(63.623047 0)"/>
       <use xlink:href="#DejaVuSans-30" transform="translate(127.246094 0)"/>
       <use xlink:href="#DejaVuSans-30" transform="translate(190.869141 0)"/>
      </g>
     </g>
    </g>
    <g id="ytick_9">
     <g id="line2d_111">
      <g>
       <use xlink:href="#m72d53af028" x="535.486875" y="191.106372" style="fill: #3d9f95; stroke: #3d9f95; stroke-width: 0.8"/>
      </g>
     </g>
     <g id="text_13">
      <!-- 6000 -->
      <g style="fill: #3d9f95" transform="translate(542.486875 197.944966) scale(0.18 -0.18)">
       <defs>
        <path id="DejaVuSans-36" d="M 2113 2584 
Q 1688 2584 1439 2293 
Q 1191 2003 1191 1497 
Q 1191 994 1439 701 
Q 1688 409 2113 409 
Q 2538 409 2786 701 
Q 3034 994 3034 1497 
Q 3034 2003 2786 2293 
Q 2538 2584 2113 2584 
z
M 3366 4563 
L 3366 3988 
Q 3128 4100 2886 4159 
Q 2644 4219 2406 4219 
Q 1781 4219 1451 3797 
Q 1122 3375 1075 2522 
Q 1259 2794 1537 2939 
Q 1816 3084 2150 3084 
Q 2853 3084 3261 2657 
Q 3669 2231 3669 1497 
Q 3669 778 3244 343 
Q 2819 -91 2113 -91 
Q 1303 -91 875 529 
Q 447 1150 447 2328 
Q 447 3434 972 4092 
Q 1497 4750 2381 4750 
Q 2619 4750 2861 4703 
Q 3103 4656 3366 4563 
z
" transform="scale(0.015625)"/>
       </defs>
       <use xlink:href="#DejaVuSans-36"/>
       <use xlink:href="#DejaVuSans-30" transform="translate(63.623047 0)"/>
       <use xlink:href="#DejaVuSans-30" transform="translate(127.246094 0)"/>
       <use xlink:href="#DejaVuSans-30" transform="translate(190.869141 0)"/>
      </g>
     </g>
    </g>
    <g id="ytick_10">
     <g id="line2d_112">
      <g>
       <use xlink:href="#m72d53af028" x="535.486875" y="111.288496" style="fill: #3d9f95; stroke: #3d9f95; stroke-width: 0.8"/>
      </g>
     </g>
     <g id="text_14">
      <!-- 8000 -->
      <g style="fill: #3d9f95" transform="translate(542.486875 118.12709) scale(0.18 -0.18)">
       <defs>
        <path id="DejaVuSans-38" d="M 2034 2216 
Q 1584 2216 1326 1975 
Q 1069 1734 1069 1313 
Q 1069 891 1326 650 
Q 1584 409 2034 409 
Q 2484 409 2743 651 
Q 3003 894 3003 1313 
Q 3003 1734 2745 1975 
Q 2488 2216 2034 2216 
z
M 1403 2484 
Q 997 2584 770 2862 
Q 544 3141 544 3541 
Q 544 4100 942 4425 
Q 1341 4750 2034 4750 
Q 2731 4750 3128 4425 
Q 3525 4100 3525 3541 
Q 3525 3141 3298 2862 
Q 3072 2584 2669 2484 
Q 3125 2378 3379 2068 
Q 3634 1759 3634 1313 
Q 3634 634 3220 271 
Q 2806 -91 2034 -91 
Q 1263 -91 848 271 
Q 434 634 434 1313 
Q 434 1759 690 2068 
Q 947 2378 1403 2484 
z
M 1172 3481 
Q 1172 3119 1398 2916 
Q 1625 2713 2034 2713 
Q 2441 2713 2670 2916 
Q 2900 3119 2900 3481 
Q 2900 3844 2670 4047 
Q 2441 4250 2034 4250 
Q 1625 4250 1398 4047 
Q 1172 3844 1172 3481 
z
" transform="scale(0.015625)"/>
       </defs>
       <use xlink:href="#DejaVuSans-38"/>
       <use xlink:href="#DejaVuSans-30" transform="translate(63.623047 0)"/>
       <use xlink:href="#DejaVuSans-30" transform="translate(127.246094 0)"/>
       <use xlink:href="#DejaVuSans-30" transform="translate(190.869141 0)"/>
      </g>
     </g>
    </g>
    <g id="ytick_11">
     <g id="line2d_113">
      <g>
       <use xlink:href="#m72d53af028" x="535.486875" y="31.470621" style="fill: #3d9f95; stroke: #3d9f95; stroke-width: 0.8"/>
      </g>
     </g>
     <g id="text_15">
      <!-- 10000 -->
      <g style="fill: #3d9f95" transform="translate(542.486875 38.309214) scale(0.18 -0.18)">
       <use xlink:href="#DejaVuSans-31"/>
       <use xlink:href="#DejaVuSans-30" transform="translate(63.623047 0)"/>
       <use xlink:href="#DejaVuSans-30" transform="translate(127.246094 0)"/>
       <use xlink:href="#DejaVuSans-30" transform="translate(190.869141 0)"/>
       <use xlink:href="#DejaVuSans-30" transform="translate(254.492188 0)"/>
      </g>
     </g>
    </g>
    <g id="text_16">
     <!-- Number of cCREs -->
     <g style="fill: #3d9f95" transform="translate(618.94625 325.6725) rotate(-90) scale(0.2 -0.2)">
      <defs>
       <path id="DejaVuSans-Bold-52" d="M 2297 2597 
Q 2675 2597 2839 2737 
Q 3003 2878 3003 3200 
Q 3003 3519 2839 3656 
Q 2675 3794 2297 3794 
L 1791 3794 
L 1791 2597 
L 2297 2597 
z
M 1791 1766 
L 1791 0 
L 588 0 
L 588 4666 
L 2425 4666 
Q 3347 4666 3776 4356 
Q 4206 4047 4206 3378 
Q 4206 2916 3982 2619 
Q 3759 2322 3309 2181 
Q 3556 2125 3751 1926 
Q 3947 1728 4147 1325 
L 4800 0 
L 3519 0 
L 2950 1159 
Q 2778 1509 2601 1637 
Q 2425 1766 2131 1766 
L 1791 1766 
z
" transform="scale(0.015625)"/>
       <path id="DejaVuSans-Bold-45" d="M 588 4666 
L 3834 4666 
L 3834 3756 
L 1791 3756 
L 1791 2888 
L 3713 2888 
L 3713 1978 
L 1791 1978 
L 1791 909 
L 3903 909 
L 3903 0 
L 588 0 
L 588 4666 
z
" transform="scale(0.015625)"/>
      </defs>
      <use xlink:href="#DejaVuSans-Bold-4e"/>
      <use xlink:href="#DejaVuSans-Bold-75" transform="translate(83.691406 0)"/>
      <use xlink:href="#DejaVuSans-Bold-6d" transform="translate(154.882812 0)"/>
      <use xlink:href="#DejaVuSans-Bold-62" transform="translate(259.082031 0)"/>
      <use xlink:href="#DejaVuSans-Bold-65" transform="translate(330.664062 0)"/>
      <use xlink:href="#DejaVuSans-Bold-72" transform="translate(398.486328 0)"/>
      <use xlink:href="#DejaVuSans-Bold-20" transform="translate(447.802734 0)"/>
      <use xlink:href="#DejaVuSans-Bold-6f" transform="translate(482.617188 0)"/>
      <use xlink:href="#DejaVuSans-Bold-66" transform="translate(551.318359 0)"/>
      <use xlink:href="#DejaVuSans-Bold-20" transform="translate(594.824219 0)"/>
      <use xlink:href="#DejaVuSans-Bold-63" transform="translate(629.638672 0)"/>
      <use xlink:href="#DejaVuSans-Bold-43" transform="translate(688.916016 0)"/>
      <use xlink:href="#DejaVuSans-Bold-52" transform="translate(762.304688 0)"/>
      <use xlink:href="#DejaVuSans-Bold-45" transform="translate(839.306641 0)"/>
      <use xlink:href="#DejaVuSans-Bold-73" transform="translate(907.617188 0)"/>
     </g>
    </g>
   </g>
   <g id="line2d_114">
    <path d="M 100.246875 430.240728 
L 122.566875 430.121002 
L 144.886875 430.041184 
L 167.206875 428.205373 
L 189.526875 405.297642 
L 211.846875 303.849122 
L 234.166875 150.479074 
L 256.486875 72.975916 
L 278.806875 60.644054 
L 301.126875 27.36 
L 323.446875 59.247241 
L 345.766875 226.625327 
L 368.086875 312.788724 
L 390.406875 370.536957 
L 412.726875 408.849538 
L 435.046875 416.831325 
L 457.366875 427.646648 
L 479.686875 430.400364 
L 502.006875 430.56 
L 524.326875 430.56 
" clip-path="url(#p4122ddffc5)" style="fill: none; stroke: #3d9f95; stroke-width: 1.5; stroke-linecap: square"/>
    <defs>
     <path id="mb2e5b77a67" d="M 0 3 
C 0.795609 3 1.55874 2.683901 2.12132 2.12132 
C 2.683901 1.55874 3 0.795609 3 0 
C 3 -0.795609 2.683901 -1.55874 2.12132 -2.12132 
C 1.55874 -2.683901 0.795609 -3 0 -3 
C -0.795609 -3 -1.55874 -2.683901 -2.12132 -2.12132 
C -2.683901 -1.55874 -3 -0.795609 -3 0 
C -3 0.795609 -2.683901 1.55874 -2.12132 2.12132 
C -1.55874 2.683901 -0.795609 3 0 3 
z
" style="stroke: #3d9f95"/>
    </defs>
    <g clip-path="url(#p4122ddffc5)">
     <use xlink:href="#mb2e5b77a67" x="100.246875" y="430.240728" style="fill: #3d9f95; stroke: #3d9f95"/>
     <use xlink:href="#mb2e5b77a67" x="122.566875" y="430.121002" style="fill: #3d9f95; stroke: #3d9f95"/>
     <use xlink:href="#mb2e5b77a67" x="144.886875" y="430.041184" style="fill: #3d9f95; stroke: #3d9f95"/>
     <use xlink:href="#mb2e5b77a67" x="167.206875" y="428.205373" style="fill: #3d9f95; stroke: #3d9f95"/>
     <use xlink:href="#mb2e5b77a67" x="189.526875" y="405.297642" style="fill: #3d9f95; stroke: #3d9f95"/>
     <use xlink:href="#mb2e5b77a67" x="211.846875" y="303.849122" style="fill: #3d9f95; stroke: #3d9f95"/>
     <use xlink:href="#mb2e5b77a67" x="234.166875" y="150.479074" style="fill: #3d9f95; stroke: #3d9f95"/>
     <use xlink:href="#mb2e5b77a67" x="256.486875" y="72.975916" style="fill: #3d9f95; stroke: #3d9f95"/>
     <use xlink:href="#mb2e5b77a67" x="278.806875" y="60.644054" style="fill: #3d9f95; stroke: #3d9f95"/>
     <use xlink:href="#mb2e5b77a67" x="301.126875" y="27.36" style="fill: #3d9f95; stroke: #3d9f95"/>
     <use xlink:href="#mb2e5b77a67" x="323.446875" y="59.247241" style="fill: #3d9f95; stroke: #3d9f95"/>
     <use xlink:href="#mb2e5b77a67" x="345.766875" y="226.625327" style="fill: #3d9f95; stroke: #3d9f95"/>
     <use xlink:href="#mb2e5b77a67" x="368.086875" y="312.788724" style="fill: #3d9f95; stroke: #3d9f95"/>
     <use xlink:href="#mb2e5b77a67" x="390.406875" y="370.536957" style="fill: #3d9f95; stroke: #3d9f95"/>
     <use xlink:href="#mb2e5b77a67" x="412.726875" y="408.849538" style="fill: #3d9f95; stroke: #3d9f95"/>
     <use xlink:href="#mb2e5b77a67" x="435.046875" y="416.831325" style="fill: #3d9f95; stroke: #3d9f95"/>
     <use xlink:href="#mb2e5b77a67" x="457.366875" y="427.646648" style="fill: #3d9f95; stroke: #3d9f95"/>
     <use xlink:href="#mb2e5b77a67" x="479.686875" y="430.400364" style="fill: #3d9f95; stroke: #3d9f95"/>
     <use xlink:href="#mb2e5b77a67" x="502.006875" y="430.56" style="fill: #3d9f95; stroke: #3d9f95"/>
     <use xlink:href="#mb2e5b77a67" x="524.326875" y="430.56" style="fill: #3d9f95; stroke: #3d9f95"/>
    </g>
   </g>
   <g id="patch_26">
    <path d="M 89.086875 450.72 
L 89.086875 7.2 
" style="fill: none; stroke: #000000; stroke-linejoin: miter; stroke-linecap: square"/>
   </g>
   <g id="patch_27">
    <path d="M 89.086875 450.72 
L 535.486875 450.72 
" style="fill: none; stroke: #000000; stroke-linejoin: miter; stroke-linecap: square"/>
   </g>
  </g>
 </g>
 <defs>
  <clipPath id="p4122ddffc5">
   <rect x="89.086875" y="7.2" width="446.4" height="443.52"/>
  </clipPath>
 </defs>
</svg>
