<?xml version="1.0" encoding="utf-8" standalone="no"?>
<!DOCTYPE svg PUBLIC "-//W3C//DTD SVG 1.1//EN"
  "http://www.w3.org/Graphics/SVG/1.1/DTD/svg11.dtd">
<svg xmlns:xlink="http://www.w3.org/1999/xlink" width="279.6525pt" height="566.702969pt" viewBox="0 0 279.6525 566.702969" xmlns="http://www.w3.org/2000/svg" version="1.1">
 <metadata>
  <rdf:RDF xmlns:dc="http://purl.org/dc/elements/1.1/" xmlns:cc="http://creativecommons.org/ns#" xmlns:rdf="http://www.w3.org/1999/02/22-rdf-syntax-ns#">
   <cc:Work>
    <dc:type rdf:resource="http://purl.org/dc/dcmitype/StillImage"/>
    <dc:date>2025-12-21T10:17:06.232782</dc:date>
    <dc:format>image/svg+xml</dc:format>
    <dc:creator>
     <cc:Agent>
      <dc:title>Matplotlib v3.10.6, https://matplotlib.org/</dc:title>
     </cc:Agent>
    </dc:creator>
   </cc:Work>
  </rdf:RDF>
 </metadata>
 <defs>
  <style type="text/css">*{stroke-linejoin: round; stroke-linecap: butt}</style>
 </defs>
 <g id="figure_1">
  <g id="patch_1">
   <path d="M 0 566.702969 
L 279.6525 566.702969 
L 279.6525 0 
L 0 0 
L 0 566.702969 
z
" style="fill: none"/>
  </g>
  <g id="axes_1">
   <g id="patch_2">
    <path d="M 49.2525 457.558594 
L 272.4525 457.558594 
L 272.4525 14.038594 
L 49.2525 14.038594 
L 49.2525 457.558594 
z
" style="fill: none"/>
   </g>
   <g id="matplotlib.axis_1">
    <g id="xtick_1">
     <g id="line2d_1">
      <defs>
       <path id="md739ed4db0" d="M 0 0 
L 0 3.5 
" style="stroke: #000000; stroke-width: 0.8"/>
      </defs>
      <g>
       <use xlink:href="#md739ed4db0" x="67.8525" y="457.558594" style="stroke: #000000; stroke-width: 0.8"/>
      </g>
     </g>
     <g id="text_1">
      <!-- Inactive -->
      <g transform="translate(72.819375 535.990469) rotate(-90) scale(0.18 -0.18)">
       <defs>
        <path id="DejaVuSans-49" d="M 628 4666 
L 1259 4666 
L 1259 0 
L 628 0 
L 628 4666 
z
" transform="scale(0.015625)"/>
        <path id="DejaVuSans-6e" d="M 3513 2113 
L 3513 0 
L 2938 0 
L 2938 2094 
Q 2938 2591 2744 2837 
Q 2550 3084 2163 3084 
Q 1697 3084 1428 2787 
Q 1159 2491 1159 1978 
L 1159 0 
L 581 0 
L 581 3500 
L 1159 3500 
L 1159 2956 
Q 1366 3272 1645 3428 
Q 1925 3584 2291 3584 
Q 2894 3584 3203 3211 
Q 3513 2838 3513 2113 
z
" transform="scale(0.015625)"/>
        <path id="DejaVuSans-61" d="M 2194 1759 
Q 1497 1759 1228 1600 
Q 959 1441 959 1056 
Q 959 750 1161 570 
Q 1363 391 1709 391 
Q 2188 391 2477 730 
Q 2766 1069 2766 1631 
L 2766 1759 
L 2194 1759 
z
M 3341 1997 
L 3341 0 
L 2766 0 
L 2766 531 
Q 2569 213 2275 61 
Q 1981 -91 1556 -91 
Q 1019 -91 701 211 
Q 384 513 384 1019 
Q 384 1609 779 1909 
Q 1175 2209 1959 2209 
L 2766 2209 
L 2766 2266 
Q 2766 2663 2505 2880 
Q 2244 3097 1772 3097 
Q 1472 3097 1187 3025 
Q 903 2953 641 2809 
L 641 3341 
Q 956 3463 1253 3523 
Q 1550 3584 1831 3584 
Q 2591 3584 2966 3190 
Q 3341 2797 3341 1997 
z
" transform="scale(0.015625)"/>
        <path id="DejaVuSans-63" d="M 3122 3366 
L 3122 2828 
Q 2878 2963 2633 3030 
Q 2388 3097 2138 3097 
Q 1578 3097 1268 2742 
Q 959 2388 959 1747 
Q 959 1106 1268 751 
Q 1578 397 2138 397 
Q 2388 397 2633 464 
Q 2878 531 3122 666 
L 3122 134 
Q 2881 22 2623 -34 
Q 2366 -91 2075 -91 
Q 1284 -91 818 406 
Q 353 903 353 1747 
Q 353 2603 823 3093 
Q 1294 3584 2113 3584 
Q 2378 3584 2631 3529 
Q 2884 3475 3122 3366 
z
" transform="scale(0.015625)"/>
        <path id="DejaVuSans-74" d="M 1172 4494 
L 1172 3500 
L 2356 3500 
L 2356 3053 
L 1172 3053 
L 1172 1153 
Q 1172 725 1289 603 
Q 1406 481 1766 481 
L 2356 481 
L 2356 0 
L 1766 0 
Q 1100 0 847 248 
Q 594 497 594 1153 
L 594 3053 
L 172 3053 
L 172 3500 
L 594 3500 
L 594 4494 
L 1172 4494 
z
" transform="scale(0.015625)"/>
        <path id="DejaVuSans-69" d="M 603 3500 
L 1178 3500 
L 1178 0 
L 603 0 
L 603 3500 
z
M 603 4863 
L 1178 4863 
L 1178 4134 
L 603 4134 
L 603 4863 
z
" transform="scale(0.015625)"/>
        <path id="DejaVuSans-76" d="M 191 3500 
L 800 3500 
L 1894 563 
L 2988 3500 
L 3597 3500 
L 2284 0 
L 1503 0 
L 191 3500 
z
" transform="scale(0.015625)"/>
        <path id="DejaVuSans-65" d="M 3597 1894 
L 3597 1613 
L 953 1613 
Q 991 1019 1311 708 
Q 1631 397 2203 397 
Q 2534 397 2845 478 
Q 3156 559 3463 722 
L 3463 178 
Q 3153 47 2828 -22 
Q 2503 -91 2169 -91 
Q 1331 -91 842 396 
Q 353 884 353 1716 
Q 353 2575 817 3079 
Q 1281 3584 2069 3584 
Q 2775 3584 3186 3129 
Q 3597 2675 3597 1894 
z
M 3022 2063 
Q 3016 2534 2758 2815 
Q 2500 3097 2075 3097 
Q 1594 3097 1305 2825 
Q 1016 2553 972 2059 
L 3022 2063 
z
" transform="scale(0.015625)"/>
       </defs>
       <use xlink:href="#DejaVuSans-49"/>
       <use xlink:href="#DejaVuSans-6e" transform="translate(29.492188 0)"/>
       <use xlink:href="#DejaVuSans-61" transform="translate(92.871094 0)"/>
       <use xlink:href="#DejaVuSans-63" transform="translate(154.150391 0)"/>
       <use xlink:href="#DejaVuSans-74" transform="translate(209.130859 0)"/>
       <use xlink:href="#DejaVuSans-69" transform="translate(248.339844 0)"/>
       <use xlink:href="#DejaVuSans-76" transform="translate(276.123047 0)"/>
       <use xlink:href="#DejaVuSans-65" transform="translate(335.302734 0)"/>
      </g>
     </g>
    </g>
    <g id="xtick_2">
     <g id="line2d_2">
      <g>
       <use xlink:href="#md739ed4db0" x="105.0525" y="457.558594" style="stroke: #000000; stroke-width: 0.8"/>
      </g>
     </g>
     <g id="text_2">
      <!-- Q1 -->
      <g transform="translate(110.019375 490.180469) rotate(-90) scale(0.18 -0.18)">
       <defs>
        <path id="DejaVuSans-51" d="M 2522 4238 
Q 1834 4238 1429 3725 
Q 1025 3213 1025 2328 
Q 1025 1447 1429 934 
Q 1834 422 2522 422 
Q 3209 422 3611 934 
Q 4013 1447 4013 2328 
Q 4013 3213 3611 3725 
Q 3209 4238 2522 4238 
z
M 3406 84 
L 4238 -825 
L 3475 -825 
L 2784 -78 
Q 2681 -84 2626 -87 
Q 2572 -91 2522 -91 
Q 1538 -91 948 567 
Q 359 1225 359 2328 
Q 359 3434 948 4092 
Q 1538 4750 2522 4750 
Q 3503 4750 4090 4092 
Q 4678 3434 4678 2328 
Q 4678 1516 4351 937 
Q 4025 359 3406 84 
z
" transform="scale(0.015625)"/>
        <path id="DejaVuSans-31" d="M 794 531 
L 1825 531 
L 1825 4091 
L 703 3866 
L 703 4441 
L 1819 4666 
L 2450 4666 
L 2450 531 
L 3481 531 
L 3481 0 
L 794 0 
L 794 531 
z
" transform="scale(0.015625)"/>
       </defs>
       <use xlink:href="#DejaVuSans-51"/>
       <use xlink:href="#DejaVuSans-31" transform="translate(78.710938 0)"/>
      </g>
     </g>
    </g>
    <g id="xtick_3">
     <g id="line2d_3">
      <g>
       <use xlink:href="#md739ed4db0" x="142.2525" y="457.558594" style="stroke: #000000; stroke-width: 0.8"/>
      </g>
     </g>
     <g id="text_3">
      <!-- Q2 -->
      <g transform="translate(147.219375 490.180469) rotate(-90) scale(0.18 -0.18)">
       <defs>
        <path id="DejaVuSans-32" d="M 1228 531 
L 3431 531 
L 3431 0 
L 469 0 
L 469 531 
Q 828 903 1448 1529 
Q 2069 2156 2228 2338 
Q 2531 2678 2651 2914 
Q 2772 3150 2772 3378 
Q 2772 3750 2511 3984 
Q 2250 4219 1831 4219 
Q 1534 4219 1204 4116 
Q 875 4013 500 3803 
L 500 4441 
Q 881 4594 1212 4672 
Q 1544 4750 1819 4750 
Q 2544 4750 2975 4387 
Q 3406 4025 3406 3419 
Q 3406 3131 3298 2873 
Q 3191 2616 2906 2266 
Q 2828 2175 2409 1742 
Q 1991 1309 1228 531 
z
" transform="scale(0.015625)"/>
       </defs>
       <use xlink:href="#DejaVuSans-51"/>
       <use xlink:href="#DejaVuSans-32" transform="translate(78.710938 0)"/>
      </g>
     </g>
    </g>
    <g id="xtick_4">
     <g id="line2d_4">
      <g>
       <use xlink:href="#md739ed4db0" x="179.4525" y="457.558594" style="stroke: #000000; stroke-width: 0.8"/>
      </g>
     </g>
     <g id="text_4">
      <!-- Q3 -->
      <g transform="translate(184.419375 490.180469) rotate(-90) scale(0.18 -0.18)">
       <defs>
        <path id="DejaVuSans-33" d="M 2597 2516 
Q 3050 2419 3304 2112 
Q 3559 1806 3559 1356 
Q 3559 666 3084 287 
Q 2609 -91 1734 -91 
Q 1441 -91 1130 -33 
Q 819 25 488 141 
L 488 750 
Q 750 597 1062 519 
Q 1375 441 1716 441 
Q 2309 441 2620 675 
Q 2931 909 2931 1356 
Q 2931 1769 2642 2001 
Q 2353 2234 1838 2234 
L 1294 2234 
L 1294 2753 
L 1863 2753 
Q 2328 2753 2575 2939 
Q 2822 3125 2822 3475 
Q 2822 3834 2567 4026 
Q 2313 4219 1838 4219 
Q 1578 4219 1281 4162 
Q 984 4106 628 3988 
L 628 4550 
Q 988 4650 1302 4700 
Q 1616 4750 1894 4750 
Q 2613 4750 3031 4423 
Q 3450 4097 3450 3541 
Q 3450 3153 3228 2886 
Q 3006 2619 2597 2516 
z
" transform="scale(0.015625)"/>
       </defs>
       <use xlink:href="#DejaVuSans-51"/>
       <use xlink:href="#DejaVuSans-33" transform="translate(78.710938 0)"/>
      </g>
     </g>
    </g>
    <g id="xtick_5">
     <g id="line2d_5">
      <g>
       <use xlink:href="#md739ed4db0" x="216.6525" y="457.558594" style="stroke: #000000; stroke-width: 0.8"/>
      </g>
     </g>
     <g id="text_5">
      <!-- Q4 -->
      <g transform="translate(221.619375 490.180469) rotate(-90) scale(0.18 -0.18)">
       <defs>
        <path id="DejaVuSans-34" d="M 2419 4116 
L 825 1625 
L 2419 1625 
L 2419 4116 
z
M 2253 4666 
L 3047 4666 
L 3047 1625 
L 3713 1625 
L 3713 1100 
L 3047 1100 
L 3047 0 
L 2419 0 
L 2419 1100 
L 313 1100 
L 313 1709 
L 2253 4666 
z
" transform="scale(0.015625)"/>
       </defs>
       <use xlink:href="#DejaVuSans-51"/>
       <use xlink:href="#DejaVuSans-34" transform="translate(78.710938 0)"/>
      </g>
     </g>
    </g>
    <g id="xtick_6">
     <g id="line2d_6">
      <g>
       <use xlink:href="#md739ed4db0" x="253.8525" y="457.558594" style="stroke: #000000; stroke-width: 0.8"/>
      </g>
     </g>
     <g id="text_6">
      <!-- Q5 -->
      <g transform="translate(258.819375 490.180469) rotate(-90) scale(0.18 -0.18)">
       <defs>
        <path id="DejaVuSans-35" d="M 691 4666 
L 3169 4666 
L 3169 4134 
L 1269 4134 
L 1269 2991 
Q 1406 3038 1543 3061 
Q 1681 3084 1819 3084 
Q 2600 3084 3056 2656 
Q 3513 2228 3513 1497 
Q 3513 744 3044 326 
Q 2575 -91 1722 -91 
Q 1428 -91 1123 -41 
Q 819 9 494 109 
L 494 744 
Q 775 591 1075 516 
Q 1375 441 1709 441 
Q 2250 441 2565 725 
Q 2881 1009 2881 1497 
Q 2881 1984 2565 2268 
Q 2250 2553 1709 2553 
Q 1456 2553 1204 2497 
Q 953 2441 691 2322 
L 691 4666 
z
" transform="scale(0.015625)"/>
       </defs>
       <use xlink:href="#DejaVuSans-51"/>
       <use xlink:href="#DejaVuSans-35" transform="translate(78.710938 0)"/>
      </g>
     </g>
    </g>
    <g id="text_7">
     <!-- Activity quantile -->
     <g transform="translate(67.688438 555.187344) scale(0.2 -0.2)">
      <defs>
       <path id="DejaVuSans-Bold-41" d="M 3419 850 
L 1538 850 
L 1241 0 
L 31 0 
L 1759 4666 
L 3194 4666 
L 4922 0 
L 3713 0 
L 3419 850 
z
M 1838 1716 
L 3116 1716 
L 2478 3572 
L 1838 1716 
z
" transform="scale(0.015625)"/>
       <path id="DejaVuSans-Bold-63" d="M 3366 3391 
L 3366 2478 
Q 3138 2634 2908 2709 
Q 2678 2784 2431 2784 
Q 1963 2784 1702 2511 
Q 1441 2238 1441 1747 
Q 1441 1256 1702 982 
Q 1963 709 2431 709 
Q 2694 709 2930 787 
Q 3166 866 3366 1019 
L 3366 103 
Q 3103 6 2833 -42 
Q 2563 -91 2291 -91 
Q 1344 -91 809 395 
Q 275 881 275 1747 
Q 275 2613 809 3098 
Q 1344 3584 2291 3584 
Q 2566 3584 2833 3536 
Q 3100 3488 3366 3391 
z
" transform="scale(0.015625)"/>
       <path id="DejaVuSans-Bold-74" d="M 1759 4494 
L 1759 3500 
L 2913 3500 
L 2913 2700 
L 1759 2700 
L 1759 1216 
Q 1759 972 1856 886 
Q 1953 800 2241 800 
L 2816 800 
L 2816 0 
L 1856 0 
Q 1194 0 917 276 
Q 641 553 641 1216 
L 641 2700 
L 84 2700 
L 84 3500 
L 641 3500 
L 641 4494 
L 1759 4494 
z
" transform="scale(0.015625)"/>
       <path id="DejaVuSans-Bold-69" d="M 538 3500 
L 1656 3500 
L 1656 0 
L 538 0 
L 538 3500 
z
M 538 4863 
L 1656 4863 
L 1656 3950 
L 538 3950 
L 538 4863 
z
" transform="scale(0.015625)"/>
       <path id="DejaVuSans-Bold-76" d="M 97 3500 
L 1216 3500 
L 2088 1081 
L 2956 3500 
L 4078 3500 
L 2700 0 
L 1472 0 
L 97 3500 
z
" transform="scale(0.015625)"/>
       <path id="DejaVuSans-Bold-79" d="M 78 3500 
L 1197 3500 
L 2138 1125 
L 2938 3500 
L 4056 3500 
L 2584 -331 
Q 2363 -916 2067 -1148 
Q 1772 -1381 1288 -1381 
L 641 -1381 
L 641 -647 
L 991 -647 
Q 1275 -647 1404 -556 
Q 1534 -466 1606 -231 
L 1638 -134 
L 78 3500 
z
" transform="scale(0.015625)"/>
       <path id="DejaVuSans-Bold-20" transform="scale(0.015625)"/>
       <path id="DejaVuSans-Bold-71" d="M 2181 2772 
Q 1825 2772 1636 2509 
Q 1447 2247 1447 1747 
Q 1447 1247 1636 984 
Q 1825 722 2181 722 
Q 2541 722 2730 984 
Q 2919 1247 2919 1747 
Q 2919 2247 2730 2509 
Q 2541 2772 2181 2772 
z
M 2919 506 
Q 2688 197 2409 53 
Q 2131 -91 1766 -91 
Q 1119 -91 703 423 
Q 288 938 288 1747 
Q 288 2556 703 3067 
Q 1119 3578 1766 3578 
Q 2131 3578 2409 3434 
Q 2688 3291 2919 2981 
L 2919 3500 
L 4044 3500 
L 4044 -1331 
L 2919 -1331 
L 2919 506 
z
" transform="scale(0.015625)"/>
       <path id="DejaVuSans-Bold-75" d="M 500 1363 
L 500 3500 
L 1625 3500 
L 1625 3150 
Q 1625 2866 1622 2436 
Q 1619 2006 1619 1863 
Q 1619 1441 1641 1255 
Q 1663 1069 1716 984 
Q 1784 875 1895 815 
Q 2006 756 2150 756 
Q 2500 756 2700 1025 
Q 2900 1294 2900 1772 
L 2900 3500 
L 4019 3500 
L 4019 0 
L 2900 0 
L 2900 506 
Q 2647 200 2364 54 
Q 2081 -91 1741 -91 
Q 1134 -91 817 281 
Q 500 653 500 1363 
z
" transform="scale(0.015625)"/>
       <path id="DejaVuSans-Bold-61" d="M 2106 1575 
Q 1756 1575 1579 1456 
Q 1403 1338 1403 1106 
Q 1403 894 1545 773 
Q 1688 653 1941 653 
Q 2256 653 2472 879 
Q 2688 1106 2688 1447 
L 2688 1575 
L 2106 1575 
z
M 3816 1997 
L 3816 0 
L 2688 0 
L 2688 519 
Q 2463 200 2181 54 
Q 1900 -91 1497 -91 
Q 953 -91 614 226 
Q 275 544 275 1050 
Q 275 1666 698 1953 
Q 1122 2241 2028 2241 
L 2688 2241 
L 2688 2328 
Q 2688 2594 2478 2717 
Q 2269 2841 1825 2841 
Q 1466 2841 1156 2769 
Q 847 2697 581 2553 
L 581 3406 
Q 941 3494 1303 3539 
Q 1666 3584 2028 3584 
Q 2975 3584 3395 3211 
Q 3816 2838 3816 1997 
z
" transform="scale(0.015625)"/>
       <path id="DejaVuSans-Bold-6e" d="M 4056 2131 
L 4056 0 
L 2931 0 
L 2931 347 
L 2931 1631 
Q 2931 2084 2911 2256 
Q 2891 2428 2841 2509 
Q 2775 2619 2662 2680 
Q 2550 2741 2406 2741 
Q 2056 2741 1856 2470 
Q 1656 2200 1656 1722 
L 1656 0 
L 538 0 
L 538 3500 
L 1656 3500 
L 1656 2988 
Q 1909 3294 2193 3439 
Q 2478 3584 2822 3584 
Q 3428 3584 3742 3212 
Q 4056 2841 4056 2131 
z
" transform="scale(0.015625)"/>
       <path id="DejaVuSans-Bold-6c" d="M 538 4863 
L 1656 4863 
L 1656 0 
L 538 0 
L 538 4863 
z
" transform="scale(0.015625)"/>
       <path id="DejaVuSans-Bold-65" d="M 4031 1759 
L 4031 1441 
L 1416 1441 
Q 1456 1047 1700 850 
Q 1944 653 2381 653 
Q 2734 653 3104 758 
Q 3475 863 3866 1075 
L 3866 213 
Q 3469 63 3072 -14 
Q 2675 -91 2278 -91 
Q 1328 -91 801 392 
Q 275 875 275 1747 
Q 275 2603 792 3093 
Q 1309 3584 2216 3584 
Q 3041 3584 3536 3087 
Q 4031 2591 4031 1759 
z
M 2881 2131 
Q 2881 2450 2695 2645 
Q 2509 2841 2209 2841 
Q 1884 2841 1681 2658 
Q 1478 2475 1428 2131 
L 2881 2131 
z
" transform="scale(0.015625)"/>
      </defs>
      <use xlink:href="#DejaVuSans-Bold-41"/>
      <use xlink:href="#DejaVuSans-Bold-63" transform="translate(77.392578 0)"/>
      <use xlink:href="#DejaVuSans-Bold-74" transform="translate(136.669922 0)"/>
      <use xlink:href="#DejaVuSans-Bold-69" transform="translate(184.472656 0)"/>
      <use xlink:href="#DejaVuSans-Bold-76" transform="translate(218.75 0)"/>
      <use xlink:href="#DejaVuSans-Bold-69" transform="translate(283.935547 0)"/>
      <use xlink:href="#DejaVuSans-Bold-74" transform="translate(318.212891 0)"/>
      <use xlink:href="#DejaVuSans-Bold-79" transform="translate(366.015625 0)"/>
      <use xlink:href="#DejaVuSans-Bold-20" transform="translate(431.201172 0)"/>
      <use xlink:href="#DejaVuSans-Bold-71" transform="translate(466.015625 0)"/>
      <use xlink:href="#DejaVuSans-Bold-75" transform="translate(537.597656 0)"/>
      <use xlink:href="#DejaVuSans-Bold-61" transform="translate(608.789062 0)"/>
      <use xlink:href="#DejaVuSans-Bold-6e" transform="translate(676.269531 0)"/>
      <use xlink:href="#DejaVuSans-Bold-74" transform="translate(747.460938 0)"/>
      <use xlink:href="#DejaVuSans-Bold-69" transform="translate(795.263672 0)"/>
      <use xlink:href="#DejaVuSans-Bold-6c" transform="translate(829.541016 0)"/>
      <use xlink:href="#DejaVuSans-Bold-65" transform="translate(863.818359 0)"/>
     </g>
    </g>
   </g>
   <g id="matplotlib.axis_2">
    <g id="ytick_1">
     <g id="line2d_7">
      <defs>
       <path id="m3a876e2ef2" d="M 0 0 
L -3.5 0 
" style="stroke: #000000; stroke-width: 0.8"/>
      </defs>
      <g>
       <use xlink:href="#m3a876e2ef2" x="49.2525" y="441.049743" style="stroke: #000000; stroke-width: 0.8"/>
      </g>
     </g>
     <g id="text_8">
      <!-- 3 -->
      <g transform="translate(30.8 447.888337) scale(0.18 -0.18)">
       <use xlink:href="#DejaVuSans-33"/>
      </g>
     </g>
    </g>
    <g id="ytick_2">
     <g id="line2d_8">
      <g>
       <use xlink:href="#m3a876e2ef2" x="49.2525" y="14.038594" style="stroke: #000000; stroke-width: 0.8"/>
      </g>
     </g>
     <g id="text_9">
      <!-- 7 -->
      <g transform="translate(30.8 20.877187) scale(0.18 -0.18)">
       <defs>
        <path id="DejaVuSans-37" d="M 525 4666 
L 3525 4666 
L 3525 4397 
L 1831 0 
L 1172 0 
L 2766 4134 
L 525 4134 
L 525 4666 
z
" transform="scale(0.015625)"/>
       </defs>
       <use xlink:href="#DejaVuSans-37"/>
      </g>
     </g>
    </g>
    <g id="text_10">
     <!-- Distance from TSS (bp, $\mathbf{log_{2}}\!$) -->
     <g transform="translate(22.4 394.898594) rotate(-90) scale(0.2 -0.2)">
      <defs>
       <path id="DejaVuSans-Bold-44" d="M 1791 3756 
L 1791 909 
L 2222 909 
Q 2959 909 3348 1275 
Q 3738 1641 3738 2338 
Q 3738 3031 3350 3393 
Q 2963 3756 2222 3756 
L 1791 3756 
z
M 588 4666 
L 1856 4666 
Q 2919 4666 3439 4514 
Q 3959 4363 4331 4000 
Q 4659 3684 4818 3271 
Q 4978 2859 4978 2338 
Q 4978 1809 4818 1395 
Q 4659 981 4331 666 
Q 3956 303 3431 151 
Q 2906 0 1856 0 
L 588 0 
L 588 4666 
z
" transform="scale(0.015625)"/>
       <path id="DejaVuSans-Bold-73" d="M 3272 3391 
L 3272 2541 
Q 2913 2691 2578 2766 
Q 2244 2841 1947 2841 
Q 1628 2841 1473 2761 
Q 1319 2681 1319 2516 
Q 1319 2381 1436 2309 
Q 1553 2238 1856 2203 
L 2053 2175 
Q 2913 2066 3209 1816 
Q 3506 1566 3506 1031 
Q 3506 472 3093 190 
Q 2681 -91 1863 -91 
Q 1516 -91 1145 -36 
Q 775 19 384 128 
L 384 978 
Q 719 816 1070 734 
Q 1422 653 1784 653 
Q 2113 653 2278 743 
Q 2444 834 2444 1013 
Q 2444 1163 2330 1236 
Q 2216 1309 1875 1350 
L 1678 1375 
Q 931 1469 631 1722 
Q 331 1975 331 2491 
Q 331 3047 712 3315 
Q 1094 3584 1881 3584 
Q 2191 3584 2531 3537 
Q 2872 3491 3272 3391 
z
" transform="scale(0.015625)"/>
       <path id="DejaVuSans-Bold-66" d="M 2841 4863 
L 2841 4128 
L 2222 4128 
Q 1984 4128 1890 4042 
Q 1797 3956 1797 3744 
L 1797 3500 
L 2753 3500 
L 2753 2700 
L 1797 2700 
L 1797 0 
L 678 0 
L 678 2700 
L 122 2700 
L 122 3500 
L 678 3500 
L 678 3744 
Q 678 4316 997 4589 
Q 1316 4863 1984 4863 
L 2841 4863 
z
" transform="scale(0.015625)"/>
       <path id="DejaVuSans-Bold-72" d="M 3138 2547 
Q 2991 2616 2845 2648 
Q 2700 2681 2553 2681 
Q 2122 2681 1889 2404 
Q 1656 2128 1656 1613 
L 1656 0 
L 538 0 
L 538 3500 
L 1656 3500 
L 1656 2925 
Q 1872 3269 2151 3426 
Q 2431 3584 2822 3584 
Q 2878 3584 2943 3579 
Q 3009 3575 3134 3559 
L 3138 2547 
z
" transform="scale(0.015625)"/>
       <path id="DejaVuSans-Bold-6f" d="M 2203 2784 
Q 1831 2784 1636 2517 
Q 1441 2250 1441 1747 
Q 1441 1244 1636 976 
Q 1831 709 2203 709 
Q 2569 709 2762 976 
Q 2956 1244 2956 1747 
Q 2956 2250 2762 2517 
Q 2569 2784 2203 2784 
z
M 2203 3584 
Q 3106 3584 3614 3096 
Q 4122 2609 4122 1747 
Q 4122 884 3614 396 
Q 3106 -91 2203 -91 
Q 1297 -91 786 396 
Q 275 884 275 1747 
Q 275 2609 786 3096 
Q 1297 3584 2203 3584 
z
" transform="scale(0.015625)"/>
       <path id="DejaVuSans-Bold-6d" d="M 3781 2919 
Q 3994 3244 4286 3414 
Q 4578 3584 4928 3584 
Q 5531 3584 5847 3212 
Q 6163 2841 6163 2131 
L 6163 0 
L 5038 0 
L 5038 1825 
Q 5041 1866 5042 1909 
Q 5044 1953 5044 2034 
Q 5044 2406 4934 2573 
Q 4825 2741 4581 2741 
Q 4263 2741 4089 2478 
Q 3916 2216 3909 1719 
L 3909 0 
L 2784 0 
L 2784 1825 
Q 2784 2406 2684 2573 
Q 2584 2741 2328 2741 
Q 2006 2741 1831 2477 
Q 1656 2213 1656 1722 
L 1656 0 
L 531 0 
L 531 3500 
L 1656 3500 
L 1656 2988 
Q 1863 3284 2130 3434 
Q 2397 3584 2719 3584 
Q 3081 3584 3359 3409 
Q 3638 3234 3781 2919 
z
" transform="scale(0.015625)"/>
       <path id="DejaVuSans-Bold-54" d="M 31 4666 
L 4331 4666 
L 4331 3756 
L 2784 3756 
L 2784 0 
L 1581 0 
L 1581 3756 
L 31 3756 
L 31 4666 
z
" transform="scale(0.015625)"/>
       <path id="DejaVuSans-Bold-53" d="M 3834 4519 
L 3834 3531 
Q 3450 3703 3084 3790 
Q 2719 3878 2394 3878 
Q 1963 3878 1756 3759 
Q 1550 3641 1550 3391 
Q 1550 3203 1689 3098 
Q 1828 2994 2194 2919 
L 2706 2816 
Q 3484 2659 3812 2340 
Q 4141 2022 4141 1434 
Q 4141 663 3683 286 
Q 3225 -91 2284 -91 
Q 1841 -91 1394 -6 
Q 947 78 500 244 
L 500 1259 
Q 947 1022 1364 901 
Q 1781 781 2169 781 
Q 2563 781 2772 912 
Q 2981 1044 2981 1288 
Q 2981 1506 2839 1625 
Q 2697 1744 2272 1838 
L 1806 1941 
Q 1106 2091 782 2419 
Q 459 2747 459 3303 
Q 459 4000 909 4375 
Q 1359 4750 2203 4750 
Q 2588 4750 2994 4692 
Q 3400 4634 3834 4519 
z
" transform="scale(0.015625)"/>
       <path id="DejaVuSans-Bold-28" d="M 2413 -844 
L 1484 -844 
Q 1006 -72 778 623 
Q 550 1319 550 2003 
Q 550 2688 779 3389 
Q 1009 4091 1484 4856 
L 2413 4856 
Q 2013 4116 1813 3408 
Q 1613 2700 1613 2009 
Q 1613 1319 1811 609 
Q 2009 -100 2413 -844 
z
" transform="scale(0.015625)"/>
       <path id="DejaVuSans-Bold-62" d="M 2400 722 
Q 2759 722 2948 984 
Q 3138 1247 3138 1747 
Q 3138 2247 2948 2509 
Q 2759 2772 2400 2772 
Q 2041 2772 1848 2508 
Q 1656 2244 1656 1747 
Q 1656 1250 1848 986 
Q 2041 722 2400 722 
z
M 1656 2988 
Q 1888 3294 2169 3439 
Q 2450 3584 2816 3584 
Q 3463 3584 3878 3070 
Q 4294 2556 4294 1747 
Q 4294 938 3878 423 
Q 3463 -91 2816 -91 
Q 2450 -91 2169 54 
Q 1888 200 1656 506 
L 1656 0 
L 538 0 
L 538 4863 
L 1656 4863 
L 1656 2988 
z
" transform="scale(0.015625)"/>
       <path id="DejaVuSans-Bold-70" d="M 1656 506 
L 1656 -1331 
L 538 -1331 
L 538 3500 
L 1656 3500 
L 1656 2988 
Q 1888 3294 2169 3439 
Q 2450 3584 2816 3584 
Q 3463 3584 3878 3070 
Q 4294 2556 4294 1747 
Q 4294 938 3878 423 
Q 3463 -91 2816 -91 
Q 2450 -91 2169 54 
Q 1888 200 1656 506 
z
M 2400 2772 
Q 2041 2772 1848 2508 
Q 1656 2244 1656 1747 
Q 1656 1250 1848 986 
Q 2041 722 2400 722 
Q 2759 722 2948 984 
Q 3138 1247 3138 1747 
Q 3138 2247 2948 2509 
Q 2759 2772 2400 2772 
z
" transform="scale(0.015625)"/>
       <path id="DejaVuSans-Bold-2c" d="M 653 1209 
L 1778 1209 
L 1778 256 
L 1006 -909 
L 341 -909 
L 653 256 
L 653 1209 
z
" transform="scale(0.015625)"/>
       <path id="DejaVuSans-Bold-67" d="M 2919 594 
Q 2688 288 2409 144 
Q 2131 0 1766 0 
Q 1125 0 706 504 
Q 288 1009 288 1791 
Q 288 2575 706 3076 
Q 1125 3578 1766 3578 
Q 2131 3578 2409 3434 
Q 2688 3291 2919 2981 
L 2919 3500 
L 4044 3500 
L 4044 353 
Q 4044 -491 3511 -936 
Q 2978 -1381 1966 -1381 
Q 1638 -1381 1331 -1331 
Q 1025 -1281 716 -1178 
L 716 -306 
Q 1009 -475 1290 -558 
Q 1572 -641 1856 -641 
Q 2406 -641 2662 -400 
Q 2919 -159 2919 353 
L 2919 594 
z
M 2181 2772 
Q 1834 2772 1640 2515 
Q 1447 2259 1447 1791 
Q 1447 1309 1634 1061 
Q 1822 813 2181 813 
Q 2531 813 2725 1069 
Q 2919 1325 2919 1791 
Q 2919 2259 2725 2515 
Q 2531 2772 2181 2772 
z
" transform="scale(0.015625)"/>
       <path id="DejaVuSans-Bold-32" d="M 1844 884 
L 3897 884 
L 3897 0 
L 506 0 
L 506 884 
L 2209 2388 
Q 2438 2594 2547 2791 
Q 2656 2988 2656 3200 
Q 2656 3528 2436 3728 
Q 2216 3928 1850 3928 
Q 1569 3928 1234 3808 
Q 900 3688 519 3450 
L 519 4475 
Q 925 4609 1322 4679 
Q 1719 4750 2100 4750 
Q 2938 4750 3402 4381 
Q 3866 4013 3866 3353 
Q 3866 2972 3669 2642 
Q 3472 2313 2841 1759 
L 1844 884 
z
" transform="scale(0.015625)"/>
       <path id="DejaVuSans-Bold-29" d="M 513 -844 
Q 913 -100 1113 609 
Q 1313 1319 1313 2009 
Q 1313 2700 1113 3408 
Q 913 4116 513 4856 
L 1441 4856 
Q 1916 4091 2145 3389 
Q 2375 2688 2375 2003 
Q 2375 1319 2147 623 
Q 1919 -72 1441 -844 
L 513 -844 
z
" transform="scale(0.015625)"/>
      </defs>
      <use xlink:href="#DejaVuSans-Bold-44" transform="translate(0 0.015625)"/>
      <use xlink:href="#DejaVuSans-Bold-69" transform="translate(83.007812 0.015625)"/>
      <use xlink:href="#DejaVuSans-Bold-73" transform="translate(117.285156 0.015625)"/>
      <use xlink:href="#DejaVuSans-Bold-74" transform="translate(176.806641 0.015625)"/>
      <use xlink:href="#DejaVuSans-Bold-61" transform="translate(224.609375 0.015625)"/>
      <use xlink:href="#DejaVuSans-Bold-6e" transform="translate(292.089844 0.015625)"/>
      <use xlink:href="#DejaVuSans-Bold-63" transform="translate(363.28125 0.015625)"/>
      <use xlink:href="#DejaVuSans-Bold-65" transform="translate(422.558594 0.015625)"/>
      <use xlink:href="#DejaVuSans-Bold-20" transform="translate(490.380859 0.015625)"/>
      <use xlink:href="#DejaVuSans-Bold-66" transform="translate(525.195312 0.015625)"/>
      <use xlink:href="#DejaVuSans-Bold-72" transform="translate(568.701172 0.015625)"/>
      <use xlink:href="#DejaVuSans-Bold-6f" transform="translate(618.017578 0.015625)"/>
      <use xlink:href="#DejaVuSans-Bold-6d" transform="translate(686.71875 0.015625)"/>
      <use xlink:href="#DejaVuSans-Bold-20" transform="translate(790.917969 0.015625)"/>
      <use xlink:href="#DejaVuSans-Bold-54" transform="translate(825.732422 0.015625)"/>
      <use xlink:href="#DejaVuSans-Bold-53" transform="translate(893.945312 0.015625)"/>
      <use xlink:href="#DejaVuSans-Bold-53" transform="translate(965.966797 0.015625)"/>
      <use xlink:href="#DejaVuSans-Bold-20" transform="translate(1037.988281 0.015625)"/>
      <use xlink:href="#DejaVuSans-Bold-28" transform="translate(1072.802734 0.015625)"/>
      <use xlink:href="#DejaVuSans-Bold-62" transform="translate(1118.505859 0.015625)"/>
      <use xlink:href="#DejaVuSans-Bold-70" transform="translate(1190.087891 0.015625)"/>
      <use xlink:href="#DejaVuSans-Bold-2c" transform="translate(1261.669922 0.015625)"/>
      <use xlink:href="#DejaVuSans-Bold-20" transform="translate(1299.658203 0.015625)"/>
      <use xlink:href="#DejaVuSans-Bold-6c" transform="translate(1334.472656 0.015625)"/>
      <use xlink:href="#DejaVuSans-Bold-6f" transform="translate(1368.75 0.015625)"/>
      <use xlink:href="#DejaVuSans-Bold-67" transform="translate(1437.451172 0.015625)"/>
      <use xlink:href="#DejaVuSans-Bold-32" transform="translate(1509.990234 -16.390625) scale(0.7)"/>
      <use xlink:href="#DejaVuSans-Bold-29" transform="translate(1545.194988 0.015625)"/>
     </g>
    </g>
   </g>
   <g id="patch_3">
    <path d="M 52.9725 266.008729 
L 82.7325 266.008729 
L 82.7325 171.227768 
L 52.9725 171.227768 
L 52.9725 266.008729 
z
" clip-path="url(#pd0201eb397)" style="fill: #49938b; stroke: #424242; stroke-linejoin: miter"/>
   </g>
   <g id="line2d_9">
    <path d="M 67.8525 266.008729 
L 67.8525 408.109632 
" clip-path="url(#pd0201eb397)" style="fill: none; stroke: #424242"/>
   </g>
   <g id="line2d_10">
    <path d="M 67.8525 171.227768 
L 67.8525 41.367074 
" clip-path="url(#pd0201eb397)" style="fill: none; stroke: #424242"/>
   </g>
   <g id="line2d_11">
    <path d="M 60.4125 408.109632 
L 75.2925 408.109632 
" clip-path="url(#pd0201eb397)" style="fill: none; stroke: #424242; stroke-linecap: square"/>
   </g>
   <g id="line2d_12">
    <path d="M 60.4125 41.367074 
L 75.2925 41.367074 
" clip-path="url(#pd0201eb397)" style="fill: none; stroke: #424242; stroke-linecap: square"/>
   </g>
   <g id="patch_4">
    <path d="M 90.1725 278.117754 
L 119.9325 278.117754 
L 119.9325 184.24534 
L 90.1725 184.24534 
L 90.1725 278.117754 
z
" clip-path="url(#pd0201eb397)" style="fill: #49938b; stroke: #424242; stroke-linejoin: miter"/>
   </g>
   <g id="line2d_13">
    <path d="M 105.0525 278.117754 
L 105.0525 416.31252 
" clip-path="url(#pd0201eb397)" style="fill: none; stroke: #424242"/>
   </g>
   <g id="line2d_14">
    <path d="M 105.0525 184.24534 
L 105.0525 67.858851 
" clip-path="url(#pd0201eb397)" style="fill: none; stroke: #424242"/>
   </g>
   <g id="line2d_15">
    <path d="M 97.6125 416.31252 
L 112.4925 416.31252 
" clip-path="url(#pd0201eb397)" style="fill: none; stroke: #424242; stroke-linecap: square"/>
   </g>
   <g id="line2d_16">
    <path d="M 97.6125 67.858851 
L 112.4925 67.858851 
" clip-path="url(#pd0201eb397)" style="fill: none; stroke: #424242; stroke-linecap: square"/>
   </g>
   <g id="patch_5">
    <path d="M 127.3725 272.963757 
L 157.1325 272.963757 
L 157.1325 177.448794 
L 127.3725 177.448794 
L 127.3725 272.963757 
z
" clip-path="url(#pd0201eb397)" style="fill: #49938b; stroke: #424242; stroke-linejoin: miter"/>
   </g>
   <g id="line2d_17">
    <path d="M 142.2525 272.963757 
L 142.2525 415.078269 
" clip-path="url(#pd0201eb397)" style="fill: none; stroke: #424242"/>
   </g>
   <g id="line2d_18">
    <path d="M 142.2525 177.448794 
L 142.2525 71.611299 
" clip-path="url(#pd0201eb397)" style="fill: none; stroke: #424242"/>
   </g>
   <g id="line2d_19">
    <path d="M 134.8125 415.078269 
L 149.6925 415.078269 
" clip-path="url(#pd0201eb397)" style="fill: none; stroke: #424242; stroke-linecap: square"/>
   </g>
   <g id="line2d_20">
    <path d="M 134.8125 71.611299 
L 149.6925 71.611299 
" clip-path="url(#pd0201eb397)" style="fill: none; stroke: #424242; stroke-linecap: square"/>
   </g>
   <g id="patch_6">
    <path d="M 164.5725 271.453522 
L 194.3325 271.453522 
L 194.3325 178.820636 
L 164.5725 178.820636 
L 164.5725 271.453522 
z
" clip-path="url(#pd0201eb397)" style="fill: #49938b; stroke: #424242; stroke-linejoin: miter"/>
   </g>
   <g id="line2d_21">
    <path d="M 179.4525 271.453522 
L 179.4525 408.798192 
" clip-path="url(#pd0201eb397)" style="fill: none; stroke: #424242"/>
   </g>
   <g id="line2d_22">
    <path d="M 179.4525 178.820636 
L 179.4525 70.721673 
" clip-path="url(#pd0201eb397)" style="fill: none; stroke: #424242"/>
   </g>
   <g id="line2d_23">
    <path d="M 172.0125 408.798192 
L 186.8925 408.798192 
" clip-path="url(#pd0201eb397)" style="fill: none; stroke: #424242; stroke-linecap: square"/>
   </g>
   <g id="line2d_24">
    <path d="M 172.0125 70.721673 
L 186.8925 70.721673 
" clip-path="url(#pd0201eb397)" style="fill: none; stroke: #424242; stroke-linecap: square"/>
   </g>
   <g id="patch_7">
    <path d="M 201.7725 283.22743 
L 231.5325 283.22743 
L 231.5325 189.516793 
L 201.7725 189.516793 
L 201.7725 283.22743 
z
" clip-path="url(#pd0201eb397)" style="fill: #49938b; stroke: #424242; stroke-linejoin: miter"/>
   </g>
   <g id="line2d_25">
    <path d="M 216.6525 283.22743 
L 216.6525 423.69554 
" clip-path="url(#pd0201eb397)" style="fill: none; stroke: #424242"/>
   </g>
   <g id="line2d_26">
    <path d="M 216.6525 189.516793 
L 216.6525 90.864719 
" clip-path="url(#pd0201eb397)" style="fill: none; stroke: #424242"/>
   </g>
   <g id="line2d_27">
    <path d="M 209.2125 423.69554 
L 224.0925 423.69554 
" clip-path="url(#pd0201eb397)" style="fill: none; stroke: #424242; stroke-linecap: square"/>
   </g>
   <g id="line2d_28">
    <path d="M 209.2125 90.864719 
L 224.0925 90.864719 
" clip-path="url(#pd0201eb397)" style="fill: none; stroke: #424242; stroke-linecap: square"/>
   </g>
   <g id="patch_8">
    <path d="M 238.9725 291.566069 
L 268.7325 291.566069 
L 268.7325 189.512097 
L 238.9725 189.512097 
L 238.9725 291.566069 
z
" clip-path="url(#pd0201eb397)" style="fill: #49938b; stroke: #424242; stroke-linejoin: miter"/>
   </g>
   <g id="line2d_29">
    <path d="M 253.8525 291.566069 
L 253.8525 437.73995 
" clip-path="url(#pd0201eb397)" style="fill: none; stroke: #424242"/>
   </g>
   <g id="line2d_30">
    <path d="M 253.8525 189.512097 
L 253.8525 75.195063 
" clip-path="url(#pd0201eb397)" style="fill: none; stroke: #424242"/>
   </g>
   <g id="line2d_31">
    <path d="M 246.4125 437.73995 
L 261.2925 437.73995 
" clip-path="url(#pd0201eb397)" style="fill: none; stroke: #424242; stroke-linecap: square"/>
   </g>
   <g id="line2d_32">
    <path d="M 246.4125 75.195063 
L 261.2925 75.195063 
" clip-path="url(#pd0201eb397)" style="fill: none; stroke: #424242; stroke-linecap: square"/>
   </g>
   <g id="line2d_33">
    <path d="M 52.9725 217.115378 
L 82.7325 217.115378 
" clip-path="url(#pd0201eb397)" style="fill: none; stroke: #ffffff; stroke-width: 2"/>
   </g>
   <g id="line2d_34">
    <path d="M 90.1725 228.688519 
L 119.9325 228.688519 
" clip-path="url(#pd0201eb397)" style="fill: none; stroke: #ffffff; stroke-width: 2"/>
   </g>
   <g id="line2d_35">
    <path d="M 127.3725 224.659148 
L 157.1325 224.659148 
" clip-path="url(#pd0201eb397)" style="fill: none; stroke: #ffffff; stroke-width: 2"/>
   </g>
   <g id="line2d_36">
    <path d="M 164.5725 223.253056 
L 194.3325 223.253056 
" clip-path="url(#pd0201eb397)" style="fill: none; stroke: #ffffff; stroke-width: 2"/>
   </g>
   <g id="line2d_37">
    <path d="M 201.7725 231.895571 
L 231.5325 231.895571 
" clip-path="url(#pd0201eb397)" style="fill: none; stroke: #ffffff; stroke-width: 2"/>
   </g>
   <g id="line2d_38">
    <path d="M 238.9725 237.762002 
L 268.7325 237.762002 
" clip-path="url(#pd0201eb397)" style="fill: none; stroke: #ffffff; stroke-width: 2"/>
   </g>
   <g id="patch_9">
    <path d="M 49.2525 457.558594 
L 49.2525 14.038594 
" style="fill: none; stroke: #000000; stroke-linejoin: miter; stroke-linecap: square"/>
   </g>
   <g id="patch_10">
    <path d="M 49.2525 457.558594 
L 272.4525 457.558594 
" style="fill: none; stroke: #000000; stroke-linejoin: miter; stroke-linecap: square"/>
   </g>
  </g>
 </g>
 <defs>
  <clipPath id="pd0201eb397">
   <rect x="49.2525" y="14.038594" width="223.2" height="443.52"/>
  </clipPath>
 </defs>
</svg>
