<?xml version="1.0" encoding="utf-8" standalone="no"?>
<!DOCTYPE svg PUBLIC "-//W3C//DTD SVG 1.1//EN"
  "http://www.w3.org/Graphics/SVG/1.1/DTD/svg11.dtd">
<svg xmlns:xlink="http://www.w3.org/1999/xlink" width="531.164062pt" height="505.696875pt" viewBox="0 0 531.164062 505.696875" xmlns="http://www.w3.org/2000/svg" version="1.1">
 <metadata>
  <rdf:RDF xmlns:dc="http://purl.org/dc/elements/1.1/" xmlns:cc="http://creativecommons.org/ns#" xmlns:rdf="http://www.w3.org/1999/02/22-rdf-syntax-ns#">
   <cc:Work>
    <dc:type rdf:resource="http://purl.org/dc/dcmitype/StillImage"/>
    <dc:date>2025-12-16T16:17:22.830564</dc:date>
    <dc:format>image/svg+xml</dc:format>
    <dc:creator>
     <cc:Agent>
      <dc:title>Matplotlib v3.10.6, https://matplotlib.org/</dc:title>
     </cc:Agent>
    </dc:creator>
   </cc:Work>
  </rdf:RDF>
 </metadata>
 <defs>
  <style type="text/css">*{stroke-linejoin: round; stroke-linecap: butt}</style>
 </defs>
 <g id="figure_1">
  <g id="patch_1">
   <path d="M 0 505.696875 
L 531.164062 505.696875 
L 531.164062 0 
L 0 0 
L 0 505.696875 
z
" style="fill: none"/>
  </g>
  <g id="axes_1">
   <g id="patch_2">
    <path d="M 77.564063 450.72 
L 523.964062 450.72 
L 523.964062 7.2 
L 77.564063 7.2 
L 77.564063 450.72 
z
" style="fill: none"/>
   </g>
   <g id="patch_3">
    <path d="M 97.854972 450.72 
L 107.752976 450.72 
L 107.752976 450.72 
L 97.854972 450.72 
z
" clip-path="url(#p5b2fd9bb17)" style="fill: #9383b8; fill-opacity: 0.75; stroke: #000000; stroke-width: 0.9898; stroke-linejoin: miter"/>
   </g>
   <g id="patch_4">
    <path d="M 107.752976 450.72 
L 117.65098 450.72 
L 117.65098 450.72 
L 107.752976 450.72 
z
" clip-path="url(#p5b2fd9bb17)" style="fill: #9383b8; fill-opacity: 0.75; stroke: #000000; stroke-width: 0.9898; stroke-linejoin: miter"/>
   </g>
   <g id="patch_5">
    <path d="M 117.65098 450.72 
L 127.548985 450.72 
L 127.548985 28.32 
L 117.65098 28.32 
z
" clip-path="url(#p5b2fd9bb17)" style="fill: #9383b8; fill-opacity: 0.75; stroke: #000000; stroke-width: 0.9898; stroke-linejoin: miter"/>
   </g>
   <g id="patch_6">
    <path d="M 127.548985 450.72 
L 137.446989 450.72 
L 137.446989 450.72 
L 127.548985 450.72 
z
" clip-path="url(#p5b2fd9bb17)" style="fill: #9383b8; fill-opacity: 0.75; stroke: #000000; stroke-width: 0.9898; stroke-linejoin: miter"/>
   </g>
   <g id="patch_7">
    <path d="M 137.446989 450.72 
L 147.344994 450.72 
L 147.344994 205.126779 
L 137.446989 205.126779 
z
" clip-path="url(#p5b2fd9bb17)" style="fill: #9383b8; fill-opacity: 0.75; stroke: #000000; stroke-width: 0.9898; stroke-linejoin: miter"/>
   </g>
   <g id="patch_8">
    <path d="M 147.344994 450.72 
L 157.242998 450.72 
L 157.242998 450.72 
L 147.344994 450.72 
z
" clip-path="url(#p5b2fd9bb17)" style="fill: #9383b8; fill-opacity: 0.75; stroke: #000000; stroke-width: 0.9898; stroke-linejoin: miter"/>
   </g>
   <g id="patch_9">
    <path d="M 157.242998 450.72 
L 167.141003 450.72 
L 167.141003 266.615089 
L 157.242998 266.615089 
z
" clip-path="url(#p5b2fd9bb17)" style="fill: #9383b8; fill-opacity: 0.75; stroke: #000000; stroke-width: 0.9898; stroke-linejoin: miter"/>
   </g>
   <g id="patch_10">
    <path d="M 167.141003 450.72 
L 177.039007 450.72 
L 177.039007 450.72 
L 167.141003 450.72 
z
" clip-path="url(#p5b2fd9bb17)" style="fill: #9383b8; fill-opacity: 0.75; stroke: #000000; stroke-width: 0.9898; stroke-linejoin: miter"/>
   </g>
   <g id="patch_11">
    <path d="M 177.039007 450.72 
L 186.937012 450.72 
L 186.937012 306.920406 
L 177.039007 306.920406 
z
" clip-path="url(#p5b2fd9bb17)" style="fill: #9383b8; fill-opacity: 0.75; stroke: #000000; stroke-width: 0.9898; stroke-linejoin: miter"/>
   </g>
   <g id="patch_12">
    <path d="M 186.937012 450.72 
L 196.835016 450.72 
L 196.835016 450.72 
L 186.937012 450.72 
z
" clip-path="url(#p5b2fd9bb17)" style="fill: #9383b8; fill-opacity: 0.75; stroke: #000000; stroke-width: 0.9898; stroke-linejoin: miter"/>
   </g>
   <g id="patch_13">
    <path d="M 196.835016 450.72 
L 206.73302 450.72 
L 206.73302 334.700435 
L 196.835016 334.700435 
z
" clip-path="url(#p5b2fd9bb17)" style="fill: #9383b8; fill-opacity: 0.75; stroke: #000000; stroke-width: 0.9898; stroke-linejoin: miter"/>
   </g>
   <g id="patch_14">
    <path d="M 206.73302 450.72 
L 216.631025 450.72 
L 216.631025 450.72 
L 206.73302 450.72 
z
" clip-path="url(#p5b2fd9bb17)" style="fill: #9383b8; fill-opacity: 0.75; stroke: #000000; stroke-width: 0.9898; stroke-linejoin: miter"/>
   </g>
   <g id="patch_15">
    <path d="M 216.631025 450.72 
L 226.529029 450.72 
L 226.529029 355.543465 
L 216.631025 355.543465 
z
" clip-path="url(#p5b2fd9bb17)" style="fill: #9383b8; fill-opacity: 0.75; stroke: #000000; stroke-width: 0.9898; stroke-linejoin: miter"/>
   </g>
   <g id="patch_16">
    <path d="M 226.529029 450.72 
L 236.427034 450.72 
L 236.427034 450.72 
L 226.529029 450.72 
z
" clip-path="url(#p5b2fd9bb17)" style="fill: #9383b8; fill-opacity: 0.75; stroke: #000000; stroke-width: 0.9898; stroke-linejoin: miter"/>
   </g>
   <g id="patch_17">
    <path d="M 236.427034 450.72 
L 246.325038 450.72 
L 246.325038 371.415737 
L 236.427034 371.415737 
z
" clip-path="url(#p5b2fd9bb17)" style="fill: #9383b8; fill-opacity: 0.75; stroke: #000000; stroke-width: 0.9898; stroke-linejoin: miter"/>
   </g>
   <g id="patch_18">
    <path d="M 246.325038 450.72 
L 256.223043 450.72 
L 256.223043 450.72 
L 246.325038 450.72 
z
" clip-path="url(#p5b2fd9bb17)" style="fill: #9383b8; fill-opacity: 0.75; stroke: #000000; stroke-width: 0.9898; stroke-linejoin: miter"/>
   </g>
   <g id="patch_19">
    <path d="M 256.223043 450.72 
L 266.121047 450.72 
L 266.121047 383.952307 
L 256.223043 383.952307 
z
" clip-path="url(#p5b2fd9bb17)" style="fill: #9383b8; fill-opacity: 0.75; stroke: #000000; stroke-width: 0.9898; stroke-linejoin: miter"/>
   </g>
   <g id="patch_20">
    <path d="M 266.121047 450.72 
L 276.019051 450.72 
L 276.019051 450.72 
L 266.121047 450.72 
z
" clip-path="url(#p5b2fd9bb17)" style="fill: #9383b8; fill-opacity: 0.75; stroke: #000000; stroke-width: 0.9898; stroke-linejoin: miter"/>
   </g>
   <g id="patch_21">
    <path d="M 276.019051 450.72 
L 285.917056 450.72 
L 285.917056 393.79438 
L 276.019051 393.79438 
z
" clip-path="url(#p5b2fd9bb17)" style="fill: #9383b8; fill-opacity: 0.75; stroke: #000000; stroke-width: 0.9898; stroke-linejoin: miter"/>
   </g>
   <g id="patch_22">
    <path d="M 285.917056 450.72 
L 295.81506 450.72 
L 295.81506 450.72 
L 285.917056 450.72 
z
" clip-path="url(#p5b2fd9bb17)" style="fill: #9383b8; fill-opacity: 0.75; stroke: #000000; stroke-width: 0.9898; stroke-linejoin: miter"/>
   </g>
   <g id="patch_23">
    <path d="M 295.81506 450.72 
L 305.713065 450.72 
L 305.713065 402.25223 
L 295.81506 402.25223 
z
" clip-path="url(#p5b2fd9bb17)" style="fill: #9383b8; fill-opacity: 0.75; stroke: #000000; stroke-width: 0.9898; stroke-linejoin: miter"/>
   </g>
   <g id="patch_24">
    <path d="M 305.713065 450.72 
L 315.611069 450.72 
L 315.611069 450.72 
L 305.713065 450.72 
z
" clip-path="url(#p5b2fd9bb17)" style="fill: #9383b8; fill-opacity: 0.75; stroke: #000000; stroke-width: 0.9898; stroke-linejoin: miter"/>
   </g>
   <g id="patch_25">
    <path d="M 315.611069 450.72 
L 325.509074 450.72 
L 325.509074 409.090903 
L 315.611069 409.090903 
z
" clip-path="url(#p5b2fd9bb17)" style="fill: #9383b8; fill-opacity: 0.75; stroke: #000000; stroke-width: 0.9898; stroke-linejoin: miter"/>
   </g>
   <g id="patch_26">
    <path d="M 325.509074 450.72 
L 335.407078 450.72 
L 335.407078 450.72 
L 325.509074 450.72 
z
" clip-path="url(#p5b2fd9bb17)" style="fill: #9383b8; fill-opacity: 0.75; stroke: #000000; stroke-width: 0.9898; stroke-linejoin: miter"/>
   </g>
   <g id="patch_27">
    <path d="M 335.407078 450.72 
L 345.305082 450.72 
L 345.305082 414.900495 
L 335.407078 414.900495 
z
" clip-path="url(#p5b2fd9bb17)" style="fill: #9383b8; fill-opacity: 0.75; stroke: #000000; stroke-width: 0.9898; stroke-linejoin: miter"/>
   </g>
   <g id="patch_28">
    <path d="M 345.305082 450.72 
L 355.203087 450.72 
L 355.203087 450.72 
L 345.305082 450.72 
z
" clip-path="url(#p5b2fd9bb17)" style="fill: #9383b8; fill-opacity: 0.75; stroke: #000000; stroke-width: 0.9898; stroke-linejoin: miter"/>
   </g>
   <g id="patch_29">
    <path d="M 355.203087 450.72 
L 365.101091 450.72 
L 365.101091 419.679474 
L 355.203087 419.679474 
z
" clip-path="url(#p5b2fd9bb17)" style="fill: #9383b8; fill-opacity: 0.75; stroke: #000000; stroke-width: 0.9898; stroke-linejoin: miter"/>
   </g>
   <g id="patch_30">
    <path d="M 365.101091 450.72 
L 374.999096 450.72 
L 374.999096 450.72 
L 365.101091 450.72 
z
" clip-path="url(#p5b2fd9bb17)" style="fill: #9383b8; fill-opacity: 0.75; stroke: #000000; stroke-width: 0.9898; stroke-linejoin: miter"/>
   </g>
   <g id="patch_31">
    <path d="M 374.999096 450.72 
L 384.8971 450.72 
L 384.8971 423.863205 
L 374.999096 423.863205 
z
" clip-path="url(#p5b2fd9bb17)" style="fill: #9383b8; fill-opacity: 0.75; stroke: #000000; stroke-width: 0.9898; stroke-linejoin: miter"/>
   </g>
   <g id="patch_32">
    <path d="M 384.8971 450.72 
L 394.795105 450.72 
L 394.795105 450.72 
L 384.8971 450.72 
z
" clip-path="url(#p5b2fd9bb17)" style="fill: #9383b8; fill-opacity: 0.75; stroke: #000000; stroke-width: 0.9898; stroke-linejoin: miter"/>
   </g>
   <g id="patch_33">
    <path d="M 394.795105 450.72 
L 404.693109 450.72 
L 404.693109 427.561991 
L 394.795105 427.561991 
z
" clip-path="url(#p5b2fd9bb17)" style="fill: #9383b8; fill-opacity: 0.75; stroke: #000000; stroke-width: 0.9898; stroke-linejoin: miter"/>
   </g>
   <g id="patch_34">
    <path d="M 404.693109 450.72 
L 414.591113 450.72 
L 414.591113 450.72 
L 404.693109 450.72 
z
" clip-path="url(#p5b2fd9bb17)" style="fill: #9383b8; fill-opacity: 0.75; stroke: #000000; stroke-width: 0.9898; stroke-linejoin: miter"/>
   </g>
   <g id="patch_35">
    <path d="M 414.591113 450.72 
L 424.489118 450.72 
L 424.489118 430.486007 
L 414.591113 430.486007 
z
" clip-path="url(#p5b2fd9bb17)" style="fill: #9383b8; fill-opacity: 0.75; stroke: #000000; stroke-width: 0.9898; stroke-linejoin: miter"/>
   </g>
   <g id="patch_36">
    <path d="M 424.489118 450.72 
L 434.387122 450.72 
L 434.387122 450.72 
L 424.489118 450.72 
z
" clip-path="url(#p5b2fd9bb17)" style="fill: #9383b8; fill-opacity: 0.75; stroke: #000000; stroke-width: 0.9898; stroke-linejoin: miter"/>
   </g>
   <g id="patch_37">
    <path d="M 434.387122 450.72 
L 444.285127 450.72 
L 444.285127 433.209749 
L 434.387122 433.209749 
z
" clip-path="url(#p5b2fd9bb17)" style="fill: #9383b8; fill-opacity: 0.75; stroke: #000000; stroke-width: 0.9898; stroke-linejoin: miter"/>
   </g>
   <g id="patch_38">
    <path d="M 444.285127 450.72 
L 454.183131 450.72 
L 454.183131 450.72 
L 444.285127 450.72 
z
" clip-path="url(#p5b2fd9bb17)" style="fill: #9383b8; fill-opacity: 0.75; stroke: #000000; stroke-width: 0.9898; stroke-linejoin: miter"/>
   </g>
   <g id="patch_39">
    <path d="M 454.183131 450.72 
L 464.081136 450.72 
L 464.081136 435.444647 
L 454.183131 435.444647 
z
" clip-path="url(#p5b2fd9bb17)" style="fill: #9383b8; fill-opacity: 0.75; stroke: #000000; stroke-width: 0.9898; stroke-linejoin: miter"/>
   </g>
   <g id="patch_40">
    <path d="M 464.081136 450.72 
L 473.97914 450.72 
L 473.97914 450.72 
L 464.081136 450.72 
z
" clip-path="url(#p5b2fd9bb17)" style="fill: #9383b8; fill-opacity: 0.75; stroke: #000000; stroke-width: 0.9898; stroke-linejoin: miter"/>
   </g>
   <g id="patch_41">
    <path d="M 473.97914 450.72 
L 483.877145 450.72 
L 483.877145 437.438743 
L 473.97914 437.438743 
z
" clip-path="url(#p5b2fd9bb17)" style="fill: #9383b8; fill-opacity: 0.75; stroke: #000000; stroke-width: 0.9898; stroke-linejoin: miter"/>
   </g>
   <g id="patch_42">
    <path d="M 483.877145 450.72 
L 493.775149 450.72 
L 493.775149 450.72 
L 483.877145 450.72 
z
" clip-path="url(#p5b2fd9bb17)" style="fill: #9383b8; fill-opacity: 0.75; stroke: #000000; stroke-width: 0.9898; stroke-linejoin: miter"/>
   </g>
   <g id="patch_43">
    <path d="M 493.775149 450.72 
L 503.673153 450.72 
L 503.673153 439.237302 
L 493.775149 439.237302 
z
" clip-path="url(#p5b2fd9bb17)" style="fill: #9383b8; fill-opacity: 0.75; stroke: #000000; stroke-width: 0.9898; stroke-linejoin: miter"/>
   </g>
   <g id="matplotlib.axis_1">
    <g id="xtick_1">
     <g id="line2d_1">
      <defs>
       <path id="m22e653a308" d="M 0 0 
L 0 3.5 
" style="stroke: #000000; stroke-width: 0.8"/>
      </defs>
      <g>
       <use xlink:href="#m22e653a308" x="122.599983" y="450.72" style="stroke: #000000; stroke-width: 0.8"/>
      </g>
     </g>
     <g id="text_1">
      <!-- 1 -->
      <g transform="translate(116.873733 471.397187) scale(0.18 -0.18)">
       <defs>
        <path id="DejaVuSans-31" d="M 794 531 
L 1825 531 
L 1825 4091 
L 703 3866 
L 703 4441 
L 1819 4666 
L 2450 4666 
L 2450 531 
L 3481 531 
L 3481 0 
L 794 0 
L 794 531 
z
" transform="scale(0.015625)"/>
       </defs>
       <use xlink:href="#DejaVuSans-31"/>
      </g>
     </g>
    </g>
    <g id="xtick_2">
     <g id="line2d_2">
      <g>
       <use xlink:href="#m22e653a308" x="498.724151" y="450.72" style="stroke: #000000; stroke-width: 0.8"/>
      </g>
     </g>
     <g id="text_2">
      <!-- 20 -->
      <g transform="translate(487.271651 471.397187) scale(0.18 -0.18)">
       <defs>
        <path id="DejaVuSans-32" d="M 1228 531 
L 3431 531 
L 3431 0 
L 469 0 
L 469 531 
Q 828 903 1448 1529 
Q 2069 2156 2228 2338 
Q 2531 2678 2651 2914 
Q 2772 3150 2772 3378 
Q 2772 3750 2511 3984 
Q 2250 4219 1831 4219 
Q 1534 4219 1204 4116 
Q 875 4013 500 3803 
L 500 4441 
Q 881 4594 1212 4672 
Q 1544 4750 1819 4750 
Q 2544 4750 2975 4387 
Q 3406 4025 3406 3419 
Q 3406 3131 3298 2873 
Q 3191 2616 2906 2266 
Q 2828 2175 2409 1742 
Q 1991 1309 1228 531 
z
" transform="scale(0.015625)"/>
        <path id="DejaVuSans-30" d="M 2034 4250 
Q 1547 4250 1301 3770 
Q 1056 3291 1056 2328 
Q 1056 1369 1301 889 
Q 1547 409 2034 409 
Q 2525 409 2770 889 
Q 3016 1369 3016 2328 
Q 3016 3291 2770 3770 
Q 2525 4250 2034 4250 
z
M 2034 4750 
Q 2819 4750 3233 4129 
Q 3647 3509 3647 2328 
Q 3647 1150 3233 529 
Q 2819 -91 2034 -91 
Q 1250 -91 836 529 
Q 422 1150 422 2328 
Q 422 3509 836 4129 
Q 1250 4750 2034 4750 
z
" transform="scale(0.015625)"/>
       </defs>
       <use xlink:href="#DejaVuSans-32"/>
       <use xlink:href="#DejaVuSans-30" transform="translate(63.623047 0)"/>
      </g>
     </g>
    </g>
    <g id="text_3">
     <!-- Number of Molecules -->
     <g transform="translate(181.559375 494.3375) scale(0.2 -0.2)">
      <defs>
       <path id="DejaVuSans-Bold-4e" d="M 588 4666 
L 1931 4666 
L 3628 1466 
L 3628 4666 
L 4769 4666 
L 4769 0 
L 3425 0 
L 1728 3200 
L 1728 0 
L 588 0 
L 588 4666 
z
" transform="scale(0.015625)"/>
       <path id="DejaVuSans-Bold-75" d="M 500 1363 
L 500 3500 
L 1625 3500 
L 1625 3150 
Q 1625 2866 1622 2436 
Q 1619 2006 1619 1863 
Q 1619 1441 1641 1255 
Q 1663 1069 1716 984 
Q 1784 875 1895 815 
Q 2006 756 2150 756 
Q 2500 756 2700 1025 
Q 2900 1294 2900 1772 
L 2900 3500 
L 4019 3500 
L 4019 0 
L 2900 0 
L 2900 506 
Q 2647 200 2364 54 
Q 2081 -91 1741 -91 
Q 1134 -91 817 281 
Q 500 653 500 1363 
z
" transform="scale(0.015625)"/>
       <path id="DejaVuSans-Bold-6d" d="M 3781 2919 
Q 3994 3244 4286 3414 
Q 4578 3584 4928 3584 
Q 5531 3584 5847 3212 
Q 6163 2841 6163 2131 
L 6163 0 
L 5038 0 
L 5038 1825 
Q 5041 1866 5042 1909 
Q 5044 1953 5044 2034 
Q 5044 2406 4934 2573 
Q 4825 2741 4581 2741 
Q 4263 2741 4089 2478 
Q 3916 2216 3909 1719 
L 3909 0 
L 2784 0 
L 2784 1825 
Q 2784 2406 2684 2573 
Q 2584 2741 2328 2741 
Q 2006 2741 1831 2477 
Q 1656 2213 1656 1722 
L 1656 0 
L 531 0 
L 531 3500 
L 1656 3500 
L 1656 2988 
Q 1863 3284 2130 3434 
Q 2397 3584 2719 3584 
Q 3081 3584 3359 3409 
Q 3638 3234 3781 2919 
z
" transform="scale(0.015625)"/>
       <path id="DejaVuSans-Bold-62" d="M 2400 722 
Q 2759 722 2948 984 
Q 3138 1247 3138 1747 
Q 3138 2247 2948 2509 
Q 2759 2772 2400 2772 
Q 2041 2772 1848 2508 
Q 1656 2244 1656 1747 
Q 1656 1250 1848 986 
Q 2041 722 2400 722 
z
M 1656 2988 
Q 1888 3294 2169 3439 
Q 2450 3584 2816 3584 
Q 3463 3584 3878 3070 
Q 4294 2556 4294 1747 
Q 4294 938 3878 423 
Q 3463 -91 2816 -91 
Q 2450 -91 2169 54 
Q 1888 200 1656 506 
L 1656 0 
L 538 0 
L 538 4863 
L 1656 4863 
L 1656 2988 
z
" transform="scale(0.015625)"/>
       <path id="DejaVuSans-Bold-65" d="M 4031 1759 
L 4031 1441 
L 1416 1441 
Q 1456 1047 1700 850 
Q 1944 653 2381 653 
Q 2734 653 3104 758 
Q 3475 863 3866 1075 
L 3866 213 
Q 3469 63 3072 -14 
Q 2675 -91 2278 -91 
Q 1328 -91 801 392 
Q 275 875 275 1747 
Q 275 2603 792 3093 
Q 1309 3584 2216 3584 
Q 3041 3584 3536 3087 
Q 4031 2591 4031 1759 
z
M 2881 2131 
Q 2881 2450 2695 2645 
Q 2509 2841 2209 2841 
Q 1884 2841 1681 2658 
Q 1478 2475 1428 2131 
L 2881 2131 
z
" transform="scale(0.015625)"/>
       <path id="DejaVuSans-Bold-72" d="M 3138 2547 
Q 2991 2616 2845 2648 
Q 2700 2681 2553 2681 
Q 2122 2681 1889 2404 
Q 1656 2128 1656 1613 
L 1656 0 
L 538 0 
L 538 3500 
L 1656 3500 
L 1656 2925 
Q 1872 3269 2151 3426 
Q 2431 3584 2822 3584 
Q 2878 3584 2943 3579 
Q 3009 3575 3134 3559 
L 3138 2547 
z
" transform="scale(0.015625)"/>
       <path id="DejaVuSans-Bold-20" transform="scale(0.015625)"/>
       <path id="DejaVuSans-Bold-6f" d="M 2203 2784 
Q 1831 2784 1636 2517 
Q 1441 2250 1441 1747 
Q 1441 1244 1636 976 
Q 1831 709 2203 709 
Q 2569 709 2762 976 
Q 2956 1244 2956 1747 
Q 2956 2250 2762 2517 
Q 2569 2784 2203 2784 
z
M 2203 3584 
Q 3106 3584 3614 3096 
Q 4122 2609 4122 1747 
Q 4122 884 3614 396 
Q 3106 -91 2203 -91 
Q 1297 -91 786 396 
Q 275 884 275 1747 
Q 275 2609 786 3096 
Q 1297 3584 2203 3584 
z
" transform="scale(0.015625)"/>
       <path id="DejaVuSans-Bold-66" d="M 2841 4863 
L 2841 4128 
L 2222 4128 
Q 1984 4128 1890 4042 
Q 1797 3956 1797 3744 
L 1797 3500 
L 2753 3500 
L 2753 2700 
L 1797 2700 
L 1797 0 
L 678 0 
L 678 2700 
L 122 2700 
L 122 3500 
L 678 3500 
L 678 3744 
Q 678 4316 997 4589 
Q 1316 4863 1984 4863 
L 2841 4863 
z
" transform="scale(0.015625)"/>
       <path id="DejaVuSans-Bold-4d" d="M 588 4666 
L 2119 4666 
L 3181 2169 
L 4250 4666 
L 5778 4666 
L 5778 0 
L 4641 0 
L 4641 3413 
L 3566 897 
L 2803 897 
L 1728 3413 
L 1728 0 
L 588 0 
L 588 4666 
z
" transform="scale(0.015625)"/>
       <path id="DejaVuSans-Bold-6c" d="M 538 4863 
L 1656 4863 
L 1656 0 
L 538 0 
L 538 4863 
z
" transform="scale(0.015625)"/>
       <path id="DejaVuSans-Bold-63" d="M 3366 3391 
L 3366 2478 
Q 3138 2634 2908 2709 
Q 2678 2784 2431 2784 
Q 1963 2784 1702 2511 
Q 1441 2238 1441 1747 
Q 1441 1256 1702 982 
Q 1963 709 2431 709 
Q 2694 709 2930 787 
Q 3166 866 3366 1019 
L 3366 103 
Q 3103 6 2833 -42 
Q 2563 -91 2291 -91 
Q 1344 -91 809 395 
Q 275 881 275 1747 
Q 275 2613 809 3098 
Q 1344 3584 2291 3584 
Q 2566 3584 2833 3536 
Q 3100 3488 3366 3391 
z
" transform="scale(0.015625)"/>
       <path id="DejaVuSans-Bold-73" d="M 3272 3391 
L 3272 2541 
Q 2913 2691 2578 2766 
Q 2244 2841 1947 2841 
Q 1628 2841 1473 2761 
Q 1319 2681 1319 2516 
Q 1319 2381 1436 2309 
Q 1553 2238 1856 2203 
L 2053 2175 
Q 2913 2066 3209 1816 
Q 3506 1566 3506 1031 
Q 3506 472 3093 190 
Q 2681 -91 1863 -91 
Q 1516 -91 1145 -36 
Q 775 19 384 128 
L 384 978 
Q 719 816 1070 734 
Q 1422 653 1784 653 
Q 2113 653 2278 743 
Q 2444 834 2444 1013 
Q 2444 1163 2330 1236 
Q 2216 1309 1875 1350 
L 1678 1375 
Q 931 1469 631 1722 
Q 331 1975 331 2491 
Q 331 3047 712 3315 
Q 1094 3584 1881 3584 
Q 2191 3584 2531 3537 
Q 2872 3491 3272 3391 
z
" transform="scale(0.015625)"/>
      </defs>
      <use xlink:href="#DejaVuSans-Bold-4e"/>
      <use xlink:href="#DejaVuSans-Bold-75" transform="translate(83.691406 0)"/>
      <use xlink:href="#DejaVuSans-Bold-6d" transform="translate(154.882812 0)"/>
      <use xlink:href="#DejaVuSans-Bold-62" transform="translate(259.082031 0)"/>
      <use xlink:href="#DejaVuSans-Bold-65" transform="translate(330.664062 0)"/>
      <use xlink:href="#DejaVuSans-Bold-72" transform="translate(398.486328 0)"/>
      <use xlink:href="#DejaVuSans-Bold-20" transform="translate(447.802734 0)"/>
      <use xlink:href="#DejaVuSans-Bold-6f" transform="translate(482.617188 0)"/>
      <use xlink:href="#DejaVuSans-Bold-66" transform="translate(551.318359 0)"/>
      <use xlink:href="#DejaVuSans-Bold-20" transform="translate(594.824219 0)"/>
      <use xlink:href="#DejaVuSans-Bold-4d" transform="translate(629.638672 0)"/>
      <use xlink:href="#DejaVuSans-Bold-6f" transform="translate(729.150391 0)"/>
      <use xlink:href="#DejaVuSans-Bold-6c" transform="translate(797.851562 0)"/>
      <use xlink:href="#DejaVuSans-Bold-65" transform="translate(832.128906 0)"/>
      <use xlink:href="#DejaVuSans-Bold-63" transform="translate(899.951172 0)"/>
      <use xlink:href="#DejaVuSans-Bold-75" transform="translate(959.228516 0)"/>
      <use xlink:href="#DejaVuSans-Bold-6c" transform="translate(1030.419922 0)"/>
      <use xlink:href="#DejaVuSans-Bold-65" transform="translate(1064.697266 0)"/>
      <use xlink:href="#DejaVuSans-Bold-73" transform="translate(1132.519531 0)"/>
     </g>
    </g>
   </g>
   <g id="matplotlib.axis_2">
    <g id="ytick_1">
     <g id="line2d_3">
      <defs>
       <path id="m1209286a3e" d="M 0 0 
L -3.5 0 
" style="stroke: #000000; stroke-width: 0.8"/>
      </defs>
      <g>
       <use xlink:href="#m1209286a3e" x="77.564063" y="450.72" style="stroke: #000000; stroke-width: 0.8"/>
      </g>
     </g>
     <g id="text_4">
      <!-- 0% -->
      <g transform="translate(42.00875 457.558594) scale(0.18 -0.18)">
       <defs>
        <path id="DejaVuSans-25" d="M 4653 2053 
Q 4381 2053 4226 1822 
Q 4072 1591 4072 1178 
Q 4072 772 4226 539 
Q 4381 306 4653 306 
Q 4919 306 5073 539 
Q 5228 772 5228 1178 
Q 5228 1588 5073 1820 
Q 4919 2053 4653 2053 
z
M 4653 2450 
Q 5147 2450 5437 2106 
Q 5728 1763 5728 1178 
Q 5728 594 5436 251 
Q 5144 -91 4653 -91 
Q 4153 -91 3862 251 
Q 3572 594 3572 1178 
Q 3572 1766 3864 2108 
Q 4156 2450 4653 2450 
z
M 1428 4353 
Q 1159 4353 1004 4120 
Q 850 3888 850 3481 
Q 850 3069 1003 2837 
Q 1156 2606 1428 2606 
Q 1700 2606 1854 2837 
Q 2009 3069 2009 3481 
Q 2009 3884 1853 4118 
Q 1697 4353 1428 4353 
z
M 4250 4750 
L 4750 4750 
L 1831 -91 
L 1331 -91 
L 4250 4750 
z
M 1428 4750 
Q 1922 4750 2215 4408 
Q 2509 4066 2509 3481 
Q 2509 2891 2217 2550 
Q 1925 2209 1428 2209 
Q 931 2209 642 2551 
Q 353 2894 353 3481 
Q 353 4063 643 4406 
Q 934 4750 1428 4750 
z
" transform="scale(0.015625)"/>
       </defs>
       <use xlink:href="#DejaVuSans-30"/>
       <use xlink:href="#DejaVuSans-25" transform="translate(63.623047 0)"/>
      </g>
     </g>
    </g>
    <g id="ytick_2">
     <g id="line2d_4">
      <g>
       <use xlink:href="#m1209286a3e" x="77.564063" y="365.977667" style="stroke: #000000; stroke-width: 0.8"/>
      </g>
     </g>
     <g id="text_5">
      <!-- 5% -->
      <g transform="translate(42.00875 372.816261) scale(0.18 -0.18)">
       <defs>
        <path id="DejaVuSans-35" d="M 691 4666 
L 3169 4666 
L 3169 4134 
L 1269 4134 
L 1269 2991 
Q 1406 3038 1543 3061 
Q 1681 3084 1819 3084 
Q 2600 3084 3056 2656 
Q 3513 2228 3513 1497 
Q 3513 744 3044 326 
Q 2575 -91 1722 -91 
Q 1428 -91 1123 -41 
Q 819 9 494 109 
L 494 744 
Q 775 591 1075 516 
Q 1375 441 1709 441 
Q 2250 441 2565 725 
Q 2881 1009 2881 1497 
Q 2881 1984 2565 2268 
Q 2250 2553 1709 2553 
Q 1456 2553 1204 2497 
Q 953 2441 691 2322 
L 691 4666 
z
" transform="scale(0.015625)"/>
       </defs>
       <use xlink:href="#DejaVuSans-35"/>
       <use xlink:href="#DejaVuSans-25" transform="translate(63.623047 0)"/>
      </g>
     </g>
    </g>
    <g id="ytick_3">
     <g id="line2d_5">
      <g>
       <use xlink:href="#m1209286a3e" x="77.564063" y="281.235335" style="stroke: #000000; stroke-width: 0.8"/>
      </g>
     </g>
     <g id="text_6">
      <!-- 10% -->
      <g transform="translate(30.55625 288.073928) scale(0.18 -0.18)">
       <use xlink:href="#DejaVuSans-31"/>
       <use xlink:href="#DejaVuSans-30" transform="translate(63.623047 0)"/>
       <use xlink:href="#DejaVuSans-25" transform="translate(127.246094 0)"/>
      </g>
     </g>
    </g>
    <g id="ytick_4">
     <g id="line2d_6">
      <g>
       <use xlink:href="#m1209286a3e" x="77.564063" y="196.493002" style="stroke: #000000; stroke-width: 0.8"/>
      </g>
     </g>
     <g id="text_7">
      <!-- 15% -->
      <g transform="translate(30.55625 203.331596) scale(0.18 -0.18)">
       <use xlink:href="#DejaVuSans-31"/>
       <use xlink:href="#DejaVuSans-35" transform="translate(63.623047 0)"/>
       <use xlink:href="#DejaVuSans-25" transform="translate(127.246094 0)"/>
      </g>
     </g>
    </g>
    <g id="ytick_5">
     <g id="line2d_7">
      <g>
       <use xlink:href="#m1209286a3e" x="77.564063" y="111.750669" style="stroke: #000000; stroke-width: 0.8"/>
      </g>
     </g>
     <g id="text_8">
      <!-- 20% -->
      <g transform="translate(30.55625 118.589263) scale(0.18 -0.18)">
       <use xlink:href="#DejaVuSans-32"/>
       <use xlink:href="#DejaVuSans-30" transform="translate(63.623047 0)"/>
       <use xlink:href="#DejaVuSans-25" transform="translate(127.246094 0)"/>
      </g>
     </g>
    </g>
    <g id="ytick_6">
     <g id="line2d_8">
      <g>
       <use xlink:href="#m1209286a3e" x="77.564063" y="27.008336" style="stroke: #000000; stroke-width: 0.8"/>
      </g>
     </g>
     <g id="text_9">
      <!-- 25% -->
      <g transform="translate(30.55625 33.84693) scale(0.18 -0.18)">
       <use xlink:href="#DejaVuSans-32"/>
       <use xlink:href="#DejaVuSans-35" transform="translate(63.623047 0)"/>
       <use xlink:href="#DejaVuSans-25" transform="translate(127.246094 0)"/>
      </g>
     </g>
    </g>
    <g id="text_10">
     <!-- cCRE-barcode pairs (%) -->
     <g transform="translate(22.396875 360.825625) rotate(-90) scale(0.2 -0.2)">
      <defs>
       <path id="DejaVuSans-Bold-43" d="M 4288 256 
Q 3956 84 3597 -3 
Q 3238 -91 2847 -91 
Q 1681 -91 1000 561 
Q 319 1213 319 2328 
Q 319 3447 1000 4098 
Q 1681 4750 2847 4750 
Q 3238 4750 3597 4662 
Q 3956 4575 4288 4403 
L 4288 3438 
Q 3953 3666 3628 3772 
Q 3303 3878 2944 3878 
Q 2300 3878 1931 3465 
Q 1563 3053 1563 2328 
Q 1563 1606 1931 1193 
Q 2300 781 2944 781 
Q 3303 781 3628 887 
Q 3953 994 4288 1222 
L 4288 256 
z
" transform="scale(0.015625)"/>
       <path id="DejaVuSans-Bold-52" d="M 2297 2597 
Q 2675 2597 2839 2737 
Q 3003 2878 3003 3200 
Q 3003 3519 2839 3656 
Q 2675 3794 2297 3794 
L 1791 3794 
L 1791 2597 
L 2297 2597 
z
M 1791 1766 
L 1791 0 
L 588 0 
L 588 4666 
L 2425 4666 
Q 3347 4666 3776 4356 
Q 4206 4047 4206 3378 
Q 4206 2916 3982 2619 
Q 3759 2322 3309 2181 
Q 3556 2125 3751 1926 
Q 3947 1728 4147 1325 
L 4800 0 
L 3519 0 
L 2950 1159 
Q 2778 1509 2601 1637 
Q 2425 1766 2131 1766 
L 1791 1766 
z
" transform="scale(0.015625)"/>
       <path id="DejaVuSans-Bold-45" d="M 588 4666 
L 3834 4666 
L 3834 3756 
L 1791 3756 
L 1791 2888 
L 3713 2888 
L 3713 1978 
L 1791 1978 
L 1791 909 
L 3903 909 
L 3903 0 
L 588 0 
L 588 4666 
z
" transform="scale(0.015625)"/>
       <path id="DejaVuSans-Bold-2d" d="M 347 2297 
L 2309 2297 
L 2309 1388 
L 347 1388 
L 347 2297 
z
" transform="scale(0.015625)"/>
       <path id="DejaVuSans-Bold-61" d="M 2106 1575 
Q 1756 1575 1579 1456 
Q 1403 1338 1403 1106 
Q 1403 894 1545 773 
Q 1688 653 1941 653 
Q 2256 653 2472 879 
Q 2688 1106 2688 1447 
L 2688 1575 
L 2106 1575 
z
M 3816 1997 
L 3816 0 
L 2688 0 
L 2688 519 
Q 2463 200 2181 54 
Q 1900 -91 1497 -91 
Q 953 -91 614 226 
Q 275 544 275 1050 
Q 275 1666 698 1953 
Q 1122 2241 2028 2241 
L 2688 2241 
L 2688 2328 
Q 2688 2594 2478 2717 
Q 2269 2841 1825 2841 
Q 1466 2841 1156 2769 
Q 847 2697 581 2553 
L 581 3406 
Q 941 3494 1303 3539 
Q 1666 3584 2028 3584 
Q 2975 3584 3395 3211 
Q 3816 2838 3816 1997 
z
" transform="scale(0.015625)"/>
       <path id="DejaVuSans-Bold-64" d="M 2919 2988 
L 2919 4863 
L 4044 4863 
L 4044 0 
L 2919 0 
L 2919 506 
Q 2688 197 2409 53 
Q 2131 -91 1766 -91 
Q 1119 -91 703 423 
Q 288 938 288 1747 
Q 288 2556 703 3070 
Q 1119 3584 1766 3584 
Q 2128 3584 2408 3439 
Q 2688 3294 2919 2988 
z
M 2181 722 
Q 2541 722 2730 984 
Q 2919 1247 2919 1747 
Q 2919 2247 2730 2509 
Q 2541 2772 2181 2772 
Q 1825 2772 1636 2509 
Q 1447 2247 1447 1747 
Q 1447 1247 1636 984 
Q 1825 722 2181 722 
z
" transform="scale(0.015625)"/>
       <path id="DejaVuSans-Bold-70" d="M 1656 506 
L 1656 -1331 
L 538 -1331 
L 538 3500 
L 1656 3500 
L 1656 2988 
Q 1888 3294 2169 3439 
Q 2450 3584 2816 3584 
Q 3463 3584 3878 3070 
Q 4294 2556 4294 1747 
Q 4294 938 3878 423 
Q 3463 -91 2816 -91 
Q 2450 -91 2169 54 
Q 1888 200 1656 506 
z
M 2400 2772 
Q 2041 2772 1848 2508 
Q 1656 2244 1656 1747 
Q 1656 1250 1848 986 
Q 2041 722 2400 722 
Q 2759 722 2948 984 
Q 3138 1247 3138 1747 
Q 3138 2247 2948 2509 
Q 2759 2772 2400 2772 
z
" transform="scale(0.015625)"/>
       <path id="DejaVuSans-Bold-69" d="M 538 3500 
L 1656 3500 
L 1656 0 
L 538 0 
L 538 3500 
z
M 538 4863 
L 1656 4863 
L 1656 3950 
L 538 3950 
L 538 4863 
z
" transform="scale(0.015625)"/>
       <path id="DejaVuSans-Bold-28" d="M 2413 -844 
L 1484 -844 
Q 1006 -72 778 623 
Q 550 1319 550 2003 
Q 550 2688 779 3389 
Q 1009 4091 1484 4856 
L 2413 4856 
Q 2013 4116 1813 3408 
Q 1613 2700 1613 2009 
Q 1613 1319 1811 609 
Q 2009 -100 2413 -844 
z
" transform="scale(0.015625)"/>
       <path id="DejaVuSans-Bold-25" d="M 4959 1925 
Q 4738 1925 4616 1733 
Q 4494 1541 4494 1184 
Q 4494 825 4614 633 
Q 4734 441 4959 441 
Q 5184 441 5303 633 
Q 5422 825 5422 1184 
Q 5422 1541 5301 1733 
Q 5181 1925 4959 1925 
z
M 4959 2450 
Q 5541 2450 5875 2112 
Q 6209 1775 6209 1184 
Q 6209 594 5875 251 
Q 5541 -91 4959 -91 
Q 4378 -91 4042 251 
Q 3706 594 3706 1184 
Q 3706 1772 4042 2111 
Q 4378 2450 4959 2450 
z
M 2094 -91 
L 1403 -91 
L 4319 4750 
L 5013 4750 
L 2094 -91 
z
M 1453 4750 
Q 2034 4750 2367 4411 
Q 2700 4072 2700 3481 
Q 2700 2891 2367 2550 
Q 2034 2209 1453 2209 
Q 872 2209 539 2550 
Q 206 2891 206 3481 
Q 206 4072 539 4411 
Q 872 4750 1453 4750 
z
M 1453 4225 
Q 1228 4225 1106 4031 
Q 984 3838 984 3481 
Q 984 3122 1106 2926 
Q 1228 2731 1453 2731 
Q 1678 2731 1798 2926 
Q 1919 3122 1919 3481 
Q 1919 3838 1797 4031 
Q 1675 4225 1453 4225 
z
" transform="scale(0.015625)"/>
       <path id="DejaVuSans-Bold-29" d="M 513 -844 
Q 913 -100 1113 609 
Q 1313 1319 1313 2009 
Q 1313 2700 1113 3408 
Q 913 4116 513 4856 
L 1441 4856 
Q 1916 4091 2145 3389 
Q 2375 2688 2375 2003 
Q 2375 1319 2147 623 
Q 1919 -72 1441 -844 
L 513 -844 
z
" transform="scale(0.015625)"/>
      </defs>
      <use xlink:href="#DejaVuSans-Bold-63"/>
      <use xlink:href="#DejaVuSans-Bold-43" transform="translate(59.277344 0)"/>
      <use xlink:href="#DejaVuSans-Bold-52" transform="translate(132.666016 0)"/>
      <use xlink:href="#DejaVuSans-Bold-45" transform="translate(209.667969 0)"/>
      <use xlink:href="#DejaVuSans-Bold-2d" transform="translate(277.978516 0)"/>
      <use xlink:href="#DejaVuSans-Bold-62" transform="translate(319.482422 0)"/>
      <use xlink:href="#DejaVuSans-Bold-61" transform="translate(391.064453 0)"/>
      <use xlink:href="#DejaVuSans-Bold-72" transform="translate(458.544922 0)"/>
      <use xlink:href="#DejaVuSans-Bold-63" transform="translate(507.861328 0)"/>
      <use xlink:href="#DejaVuSans-Bold-6f" transform="translate(567.138672 0)"/>
      <use xlink:href="#DejaVuSans-Bold-64" transform="translate(635.839844 0)"/>
      <use xlink:href="#DejaVuSans-Bold-65" transform="translate(707.421875 0)"/>
      <use xlink:href="#DejaVuSans-Bold-20" transform="translate(775.244141 0)"/>
      <use xlink:href="#DejaVuSans-Bold-70" transform="translate(810.058594 0)"/>
      <use xlink:href="#DejaVuSans-Bold-61" transform="translate(881.640625 0)"/>
      <use xlink:href="#DejaVuSans-Bold-69" transform="translate(949.121094 0)"/>
      <use xlink:href="#DejaVuSans-Bold-72" transform="translate(983.398438 0)"/>
      <use xlink:href="#DejaVuSans-Bold-73" transform="translate(1032.714844 0)"/>
      <use xlink:href="#DejaVuSans-Bold-20" transform="translate(1092.236328 0)"/>
      <use xlink:href="#DejaVuSans-Bold-28" transform="translate(1127.050781 0)"/>
      <use xlink:href="#DejaVuSans-Bold-25" transform="translate(1172.753906 0)"/>
      <use xlink:href="#DejaVuSans-Bold-29" transform="translate(1272.949219 0)"/>
     </g>
    </g>
   </g>
   <g id="patch_44">
    <path d="M 77.564063 450.72 
L 77.564063 7.2 
" style="fill: none; stroke: #000000; stroke-linejoin: miter; stroke-linecap: square"/>
   </g>
   <g id="patch_45">
    <path d="M 77.564063 450.72 
L 523.964062 450.72 
" style="fill: none; stroke: #000000; stroke-linejoin: miter; stroke-linecap: square"/>
   </g>
  </g>
 </g>
 <defs>
  <clipPath id="p5b2fd9bb17">
   <rect x="77.564063" y="7.2" width="446.4" height="443.52"/>
  </clipPath>
 </defs>
</svg>
