<?xml version="1.0" encoding="utf-8" standalone="no"?>
<!DOCTYPE svg PUBLIC "-//W3C//DTD SVG 1.1//EN"
  "http://www.w3.org/Graphics/SVG/1.1/DTD/svg11.dtd">
<svg xmlns:xlink="http://www.w3.org/1999/xlink" width="689.469002pt" height="512.535469pt" viewBox="0 0 689.469002 512.535469" xmlns="http://www.w3.org/2000/svg" version="1.1">
 <metadata>
  <rdf:RDF xmlns:dc="http://purl.org/dc/elements/1.1/" xmlns:cc="http://creativecommons.org/ns#" xmlns:rdf="http://www.w3.org/1999/02/22-rdf-syntax-ns#">
   <cc:Work>
    <dc:type rdf:resource="http://purl.org/dc/dcmitype/StillImage"/>
    <dc:date>2026-05-03T16:01:21.871638</dc:date>
    <dc:format>image/svg+xml</dc:format>
    <dc:creator>
     <cc:Agent>
      <dc:title>Matplotlib v3.10.8, https://matplotlib.org/</dc:title>
     </cc:Agent>
    </dc:creator>
   </cc:Work>
  </rdf:RDF>
 </metadata>
 <defs>
  <style type="text/css">*{stroke-linejoin: round; stroke-linecap: butt}</style>
 </defs>
 <g id="figure_1">
  <g id="patch_1">
   <path d="M 0 512.535469 
L 689.469002 512.535469 
L 689.469002 0 
L 0 0 
L 0 512.535469 
z
" style="fill: none"/>
  </g>
  <g id="axes_1">
   <g id="patch_2">
    <path d="M 89.016563 457.558594 
L 535.416562 457.558594 
L 535.416562 14.038594 
L 89.016563 14.038594 
L 89.016563 457.558594 
z
" style="fill: none"/>
   </g>
   <g id="matplotlib.axis_1">
    <g id="xtick_1">
     <g id="line2d_1">
      <defs>
       <path id="m23b2a355f2" d="M 0 0 
L 0 3.5 
" style="stroke: #000000; stroke-width: 0.8"/>
      </defs>
      <g>
       <use xlink:href="#m23b2a355f2" x="109.307472" y="457.558594" style="stroke: #000000; stroke-width: 0.8"/>
      </g>
     </g>
     <g id="text_1">
      <!-- $\mathdefault{10^{0}}$ -->
      <g transform="translate(93.467472 478.235781) scale(0.18 -0.18)">
       <defs>
        <path id="DejaVuSans-31" d="M 794 531 
L 1825 531 
L 1825 4091 
L 703 3866 
L 703 4441 
L 1819 4666 
L 2450 4666 
L 2450 531 
L 3481 531 
L 3481 0 
L 794 0 
L 794 531 
z
" transform="scale(0.015625)"/>
        <path id="DejaVuSans-30" d="M 2034 4250 
Q 1547 4250 1301 3770 
Q 1056 3291 1056 2328 
Q 1056 1369 1301 889 
Q 1547 409 2034 409 
Q 2525 409 2770 889 
Q 3016 1369 3016 2328 
Q 3016 3291 2770 3770 
Q 2525 4250 2034 4250 
z
M 2034 4750 
Q 2819 4750 3233 4129 
Q 3647 3509 3647 2328 
Q 3647 1150 3233 529 
Q 2819 -91 2034 -91 
Q 1250 -91 836 529 
Q 422 1150 422 2328 
Q 422 3509 836 4129 
Q 1250 4750 2034 4750 
z
" transform="scale(0.015625)"/>
       </defs>
       <use xlink:href="#DejaVuSans-31" transform="translate(0 0.765625)"/>
       <use xlink:href="#DejaVuSans-30" transform="translate(63.623047 0.765625)"/>
       <use xlink:href="#DejaVuSans-30" transform="translate(128.203125 39.046875) scale(0.7)"/>
      </g>
     </g>
    </g>
    <g id="xtick_2">
     <g id="line2d_2">
      <g>
       <use xlink:href="#m23b2a355f2" x="238.007697" y="457.558594" style="stroke: #000000; stroke-width: 0.8"/>
      </g>
     </g>
     <g id="text_2">
      <!-- $\mathdefault{10^{1}}$ -->
      <g transform="translate(222.167697 478.235781) scale(0.18 -0.18)">
       <use xlink:href="#DejaVuSans-31" transform="translate(0 0.684375)"/>
       <use xlink:href="#DejaVuSans-30" transform="translate(63.623047 0.684375)"/>
       <use xlink:href="#DejaVuSans-31" transform="translate(128.203125 38.965625) scale(0.7)"/>
      </g>
     </g>
    </g>
    <g id="xtick_3">
     <g id="line2d_3">
      <g>
       <use xlink:href="#m23b2a355f2" x="366.707923" y="457.558594" style="stroke: #000000; stroke-width: 0.8"/>
      </g>
     </g>
     <g id="text_3">
      <!-- $\mathdefault{10^{2}}$ -->
      <g transform="translate(350.867923 478.235781) scale(0.18 -0.18)">
       <defs>
        <path id="DejaVuSans-32" d="M 1228 531 
L 3431 531 
L 3431 0 
L 469 0 
L 469 531 
Q 828 903 1448 1529 
Q 2069 2156 2228 2338 
Q 2531 2678 2651 2914 
Q 2772 3150 2772 3378 
Q 2772 3750 2511 3984 
Q 2250 4219 1831 4219 
Q 1534 4219 1204 4116 
Q 875 4013 500 3803 
L 500 4441 
Q 881 4594 1212 4672 
Q 1544 4750 1819 4750 
Q 2544 4750 2975 4387 
Q 3406 4025 3406 3419 
Q 3406 3131 3298 2873 
Q 3191 2616 2906 2266 
Q 2828 2175 2409 1742 
Q 1991 1309 1228 531 
z
" transform="scale(0.015625)"/>
       </defs>
       <use xlink:href="#DejaVuSans-31" transform="translate(0 0.765625)"/>
       <use xlink:href="#DejaVuSans-30" transform="translate(63.623047 0.765625)"/>
       <use xlink:href="#DejaVuSans-32" transform="translate(128.203125 39.046875) scale(0.7)"/>
      </g>
     </g>
    </g>
    <g id="xtick_4">
     <g id="line2d_4">
      <g>
       <use xlink:href="#m23b2a355f2" x="495.408148" y="457.558594" style="stroke: #000000; stroke-width: 0.8"/>
      </g>
     </g>
     <g id="text_4">
      <!-- $\mathdefault{10^{3}}$ -->
      <g transform="translate(479.568148 478.235781) scale(0.18 -0.18)">
       <defs>
        <path id="DejaVuSans-33" d="M 2597 2516 
Q 3050 2419 3304 2112 
Q 3559 1806 3559 1356 
Q 3559 666 3084 287 
Q 2609 -91 1734 -91 
Q 1441 -91 1130 -33 
Q 819 25 488 141 
L 488 750 
Q 750 597 1062 519 
Q 1375 441 1716 441 
Q 2309 441 2620 675 
Q 2931 909 2931 1356 
Q 2931 1769 2642 2001 
Q 2353 2234 1838 2234 
L 1294 2234 
L 1294 2753 
L 1863 2753 
Q 2328 2753 2575 2939 
Q 2822 3125 2822 3475 
Q 2822 3834 2567 4026 
Q 2313 4219 1838 4219 
Q 1578 4219 1281 4162 
Q 984 4106 628 3988 
L 628 4550 
Q 988 4650 1302 4700 
Q 1616 4750 1894 4750 
Q 2613 4750 3031 4423 
Q 3450 4097 3450 3541 
Q 3450 3153 3228 2886 
Q 3006 2619 2597 2516 
z
" transform="scale(0.015625)"/>
       </defs>
       <use xlink:href="#DejaVuSans-31" transform="translate(0 0.765625)"/>
       <use xlink:href="#DejaVuSans-30" transform="translate(63.623047 0.765625)"/>
       <use xlink:href="#DejaVuSans-33" transform="translate(128.203125 39.046875) scale(0.7)"/>
      </g>
     </g>
    </g>
    <g id="xtick_5">
     <g id="line2d_5">
      <defs>
       <path id="m7ba24c010a" d="M 0 0 
L 0 2 
" style="stroke: #000000; stroke-width: 0.6"/>
      </defs>
      <g>
       <use xlink:href="#m7ba24c010a" x="89.371554" y="457.558594" style="stroke: #000000; stroke-width: 0.6"/>
      </g>
     </g>
    </g>
    <g id="xtick_6">
     <g id="line2d_6">
      <g>
       <use xlink:href="#m7ba24c010a" x="96.835131" y="457.558594" style="stroke: #000000; stroke-width: 0.6"/>
      </g>
     </g>
    </g>
    <g id="xtick_7">
     <g id="line2d_7">
      <g>
       <use xlink:href="#m7ba24c010a" x="103.418472" y="457.558594" style="stroke: #000000; stroke-width: 0.6"/>
      </g>
     </g>
    </g>
    <g id="xtick_8">
     <g id="line2d_8">
      <g>
       <use xlink:href="#m7ba24c010a" x="148.0501" y="457.558594" style="stroke: #000000; stroke-width: 0.6"/>
      </g>
     </g>
    </g>
    <g id="xtick_9">
     <g id="line2d_9">
      <g>
       <use xlink:href="#m7ba24c010a" x="170.713085" y="457.558594" style="stroke: #000000; stroke-width: 0.6"/>
      </g>
     </g>
    </g>
    <g id="xtick_10">
     <g id="line2d_10">
      <g>
       <use xlink:href="#m7ba24c010a" x="186.792728" y="457.558594" style="stroke: #000000; stroke-width: 0.6"/>
      </g>
     </g>
    </g>
    <g id="xtick_11">
     <g id="line2d_11">
      <g>
       <use xlink:href="#m7ba24c010a" x="199.265069" y="457.558594" style="stroke: #000000; stroke-width: 0.6"/>
      </g>
     </g>
    </g>
    <g id="xtick_12">
     <g id="line2d_12">
      <g>
       <use xlink:href="#m7ba24c010a" x="209.455713" y="457.558594" style="stroke: #000000; stroke-width: 0.6"/>
      </g>
     </g>
    </g>
    <g id="xtick_13">
     <g id="line2d_13">
      <g>
       <use xlink:href="#m7ba24c010a" x="218.07178" y="457.558594" style="stroke: #000000; stroke-width: 0.6"/>
      </g>
     </g>
    </g>
    <g id="xtick_14">
     <g id="line2d_14">
      <g>
       <use xlink:href="#m7ba24c010a" x="225.535357" y="457.558594" style="stroke: #000000; stroke-width: 0.6"/>
      </g>
     </g>
    </g>
    <g id="xtick_15">
     <g id="line2d_15">
      <g>
       <use xlink:href="#m7ba24c010a" x="232.118698" y="457.558594" style="stroke: #000000; stroke-width: 0.6"/>
      </g>
     </g>
    </g>
    <g id="xtick_16">
     <g id="line2d_16">
      <g>
       <use xlink:href="#m7ba24c010a" x="276.750325" y="457.558594" style="stroke: #000000; stroke-width: 0.6"/>
      </g>
     </g>
    </g>
    <g id="xtick_17">
     <g id="line2d_17">
      <g>
       <use xlink:href="#m7ba24c010a" x="299.41331" y="457.558594" style="stroke: #000000; stroke-width: 0.6"/>
      </g>
     </g>
    </g>
    <g id="xtick_18">
     <g id="line2d_18">
      <g>
       <use xlink:href="#m7ba24c010a" x="315.492954" y="457.558594" style="stroke: #000000; stroke-width: 0.6"/>
      </g>
     </g>
    </g>
    <g id="xtick_19">
     <g id="line2d_19">
      <g>
       <use xlink:href="#m7ba24c010a" x="327.965294" y="457.558594" style="stroke: #000000; stroke-width: 0.6"/>
      </g>
     </g>
    </g>
    <g id="xtick_20">
     <g id="line2d_20">
      <g>
       <use xlink:href="#m7ba24c010a" x="338.155939" y="457.558594" style="stroke: #000000; stroke-width: 0.6"/>
      </g>
     </g>
    </g>
    <g id="xtick_21">
     <g id="line2d_21">
      <g>
       <use xlink:href="#m7ba24c010a" x="346.772005" y="457.558594" style="stroke: #000000; stroke-width: 0.6"/>
      </g>
     </g>
    </g>
    <g id="xtick_22">
     <g id="line2d_22">
      <g>
       <use xlink:href="#m7ba24c010a" x="354.235582" y="457.558594" style="stroke: #000000; stroke-width: 0.6"/>
      </g>
     </g>
    </g>
    <g id="xtick_23">
     <g id="line2d_23">
      <g>
       <use xlink:href="#m7ba24c010a" x="360.818923" y="457.558594" style="stroke: #000000; stroke-width: 0.6"/>
      </g>
     </g>
    </g>
    <g id="xtick_24">
     <g id="line2d_24">
      <g>
       <use xlink:href="#m7ba24c010a" x="405.450551" y="457.558594" style="stroke: #000000; stroke-width: 0.6"/>
      </g>
     </g>
    </g>
    <g id="xtick_25">
     <g id="line2d_25">
      <g>
       <use xlink:href="#m7ba24c010a" x="428.113536" y="457.558594" style="stroke: #000000; stroke-width: 0.6"/>
      </g>
     </g>
    </g>
    <g id="xtick_26">
     <g id="line2d_26">
      <g>
       <use xlink:href="#m7ba24c010a" x="444.193179" y="457.558594" style="stroke: #000000; stroke-width: 0.6"/>
      </g>
     </g>
    </g>
    <g id="xtick_27">
     <g id="line2d_27">
      <g>
       <use xlink:href="#m7ba24c010a" x="456.66552" y="457.558594" style="stroke: #000000; stroke-width: 0.6"/>
      </g>
     </g>
    </g>
    <g id="xtick_28">
     <g id="line2d_28">
      <g>
       <use xlink:href="#m7ba24c010a" x="466.856164" y="457.558594" style="stroke: #000000; stroke-width: 0.6"/>
      </g>
     </g>
    </g>
    <g id="xtick_29">
     <g id="line2d_29">
      <g>
       <use xlink:href="#m7ba24c010a" x="475.472231" y="457.558594" style="stroke: #000000; stroke-width: 0.6"/>
      </g>
     </g>
    </g>
    <g id="xtick_30">
     <g id="line2d_30">
      <g>
       <use xlink:href="#m7ba24c010a" x="482.935808" y="457.558594" style="stroke: #000000; stroke-width: 0.6"/>
      </g>
     </g>
    </g>
    <g id="xtick_31">
     <g id="line2d_31">
      <g>
       <use xlink:href="#m7ba24c010a" x="489.519149" y="457.558594" style="stroke: #000000; stroke-width: 0.6"/>
      </g>
     </g>
    </g>
    <g id="xtick_32">
     <g id="line2d_32">
      <g>
       <use xlink:href="#m7ba24c010a" x="534.150777" y="457.558594" style="stroke: #000000; stroke-width: 0.6"/>
      </g>
     </g>
    </g>
    <g id="text_5">
     <!-- Barcode count -->
     <g transform="translate(230.879062 501.176094) scale(0.2 -0.2)">
      <defs>
       <path id="DejaVuSans-Bold-42" d="M 2456 2859 
Q 2741 2859 2887 2984 
Q 3034 3109 3034 3353 
Q 3034 3594 2887 3720 
Q 2741 3847 2456 3847 
L 1791 3847 
L 1791 2859 
L 2456 2859 
z
M 2497 819 
Q 2859 819 3042 972 
Q 3225 1125 3225 1434 
Q 3225 1738 3044 1889 
Q 2863 2041 2497 2041 
L 1791 2041 
L 1791 819 
L 2497 819 
z
M 3616 2497 
Q 4003 2384 4215 2081 
Q 4428 1778 4428 1338 
Q 4428 663 3972 331 
Q 3516 0 2584 0 
L 588 0 
L 588 4666 
L 2394 4666 
Q 3366 4666 3802 4372 
Q 4238 4078 4238 3431 
Q 4238 3091 4078 2852 
Q 3919 2613 3616 2497 
z
" transform="scale(0.015625)"/>
       <path id="DejaVuSans-Bold-61" d="M 2106 1575 
Q 1756 1575 1579 1456 
Q 1403 1338 1403 1106 
Q 1403 894 1545 773 
Q 1688 653 1941 653 
Q 2256 653 2472 879 
Q 2688 1106 2688 1447 
L 2688 1575 
L 2106 1575 
z
M 3816 1997 
L 3816 0 
L 2688 0 
L 2688 519 
Q 2463 200 2181 54 
Q 1900 -91 1497 -91 
Q 953 -91 614 226 
Q 275 544 275 1050 
Q 275 1666 698 1953 
Q 1122 2241 2028 2241 
L 2688 2241 
L 2688 2328 
Q 2688 2594 2478 2717 
Q 2269 2841 1825 2841 
Q 1466 2841 1156 2769 
Q 847 2697 581 2553 
L 581 3406 
Q 941 3494 1303 3539 
Q 1666 3584 2028 3584 
Q 2975 3584 3395 3211 
Q 3816 2838 3816 1997 
z
" transform="scale(0.015625)"/>
       <path id="DejaVuSans-Bold-72" d="M 3138 2547 
Q 2991 2616 2845 2648 
Q 2700 2681 2553 2681 
Q 2122 2681 1889 2404 
Q 1656 2128 1656 1613 
L 1656 0 
L 538 0 
L 538 3500 
L 1656 3500 
L 1656 2925 
Q 1872 3269 2151 3426 
Q 2431 3584 2822 3584 
Q 2878 3584 2943 3579 
Q 3009 3575 3134 3559 
L 3138 2547 
z
" transform="scale(0.015625)"/>
       <path id="DejaVuSans-Bold-63" d="M 3366 3391 
L 3366 2478 
Q 3138 2634 2908 2709 
Q 2678 2784 2431 2784 
Q 1963 2784 1702 2511 
Q 1441 2238 1441 1747 
Q 1441 1256 1702 982 
Q 1963 709 2431 709 
Q 2694 709 2930 787 
Q 3166 866 3366 1019 
L 3366 103 
Q 3103 6 2833 -42 
Q 2563 -91 2291 -91 
Q 1344 -91 809 395 
Q 275 881 275 1747 
Q 275 2613 809 3098 
Q 1344 3584 2291 3584 
Q 2566 3584 2833 3536 
Q 3100 3488 3366 3391 
z
" transform="scale(0.015625)"/>
       <path id="DejaVuSans-Bold-6f" d="M 2203 2784 
Q 1831 2784 1636 2517 
Q 1441 2250 1441 1747 
Q 1441 1244 1636 976 
Q 1831 709 2203 709 
Q 2569 709 2762 976 
Q 2956 1244 2956 1747 
Q 2956 2250 2762 2517 
Q 2569 2784 2203 2784 
z
M 2203 3584 
Q 3106 3584 3614 3096 
Q 4122 2609 4122 1747 
Q 4122 884 3614 396 
Q 3106 -91 2203 -91 
Q 1297 -91 786 396 
Q 275 884 275 1747 
Q 275 2609 786 3096 
Q 1297 3584 2203 3584 
z
" transform="scale(0.015625)"/>
       <path id="DejaVuSans-Bold-64" d="M 2919 2988 
L 2919 4863 
L 4044 4863 
L 4044 0 
L 2919 0 
L 2919 506 
Q 2688 197 2409 53 
Q 2131 -91 1766 -91 
Q 1119 -91 703 423 
Q 288 938 288 1747 
Q 288 2556 703 3070 
Q 1119 3584 1766 3584 
Q 2128 3584 2408 3439 
Q 2688 3294 2919 2988 
z
M 2181 722 
Q 2541 722 2730 984 
Q 2919 1247 2919 1747 
Q 2919 2247 2730 2509 
Q 2541 2772 2181 2772 
Q 1825 2772 1636 2509 
Q 1447 2247 1447 1747 
Q 1447 1247 1636 984 
Q 1825 722 2181 722 
z
" transform="scale(0.015625)"/>
       <path id="DejaVuSans-Bold-65" d="M 4031 1759 
L 4031 1441 
L 1416 1441 
Q 1456 1047 1700 850 
Q 1944 653 2381 653 
Q 2734 653 3104 758 
Q 3475 863 3866 1075 
L 3866 213 
Q 3469 63 3072 -14 
Q 2675 -91 2278 -91 
Q 1328 -91 801 392 
Q 275 875 275 1747 
Q 275 2603 792 3093 
Q 1309 3584 2216 3584 
Q 3041 3584 3536 3087 
Q 4031 2591 4031 1759 
z
M 2881 2131 
Q 2881 2450 2695 2645 
Q 2509 2841 2209 2841 
Q 1884 2841 1681 2658 
Q 1478 2475 1428 2131 
L 2881 2131 
z
" transform="scale(0.015625)"/>
       <path id="DejaVuSans-Bold-20" transform="scale(0.015625)"/>
       <path id="DejaVuSans-Bold-75" d="M 500 1363 
L 500 3500 
L 1625 3500 
L 1625 3150 
Q 1625 2866 1622 2436 
Q 1619 2006 1619 1863 
Q 1619 1441 1641 1255 
Q 1663 1069 1716 984 
Q 1784 875 1895 815 
Q 2006 756 2150 756 
Q 2500 756 2700 1025 
Q 2900 1294 2900 1772 
L 2900 3500 
L 4019 3500 
L 4019 0 
L 2900 0 
L 2900 506 
Q 2647 200 2364 54 
Q 2081 -91 1741 -91 
Q 1134 -91 817 281 
Q 500 653 500 1363 
z
" transform="scale(0.015625)"/>
       <path id="DejaVuSans-Bold-6e" d="M 4056 2131 
L 4056 0 
L 2931 0 
L 2931 347 
L 2931 1631 
Q 2931 2084 2911 2256 
Q 2891 2428 2841 2509 
Q 2775 2619 2662 2680 
Q 2550 2741 2406 2741 
Q 2056 2741 1856 2470 
Q 1656 2200 1656 1722 
L 1656 0 
L 538 0 
L 538 3500 
L 1656 3500 
L 1656 2988 
Q 1909 3294 2193 3439 
Q 2478 3584 2822 3584 
Q 3428 3584 3742 3212 
Q 4056 2841 4056 2131 
z
" transform="scale(0.015625)"/>
       <path id="DejaVuSans-Bold-74" d="M 1759 4494 
L 1759 3500 
L 2913 3500 
L 2913 2700 
L 1759 2700 
L 1759 1216 
Q 1759 972 1856 886 
Q 1953 800 2241 800 
L 2816 800 
L 2816 0 
L 1856 0 
Q 1194 0 917 276 
Q 641 553 641 1216 
L 641 2700 
L 84 2700 
L 84 3500 
L 641 3500 
L 641 4494 
L 1759 4494 
z
" transform="scale(0.015625)"/>
      </defs>
      <use xlink:href="#DejaVuSans-Bold-42"/>
      <use xlink:href="#DejaVuSans-Bold-61" transform="translate(76.220703 0)"/>
      <use xlink:href="#DejaVuSans-Bold-72" transform="translate(143.701172 0)"/>
      <use xlink:href="#DejaVuSans-Bold-63" transform="translate(193.017578 0)"/>
      <use xlink:href="#DejaVuSans-Bold-6f" transform="translate(252.294922 0)"/>
      <use xlink:href="#DejaVuSans-Bold-64" transform="translate(320.996094 0)"/>
      <use xlink:href="#DejaVuSans-Bold-65" transform="translate(392.578125 0)"/>
      <use xlink:href="#DejaVuSans-Bold-20" transform="translate(460.400391 0)"/>
      <use xlink:href="#DejaVuSans-Bold-63" transform="translate(495.214844 0)"/>
      <use xlink:href="#DejaVuSans-Bold-6f" transform="translate(554.492188 0)"/>
      <use xlink:href="#DejaVuSans-Bold-75" transform="translate(623.193359 0)"/>
      <use xlink:href="#DejaVuSans-Bold-6e" transform="translate(694.384766 0)"/>
      <use xlink:href="#DejaVuSans-Bold-74" transform="translate(765.576172 0)"/>
     </g>
    </g>
   </g>
   <g id="matplotlib.axis_2">
    <g id="ytick_1">
     <g id="line2d_33">
      <defs>
       <path id="ma90c359390" d="M 0 0 
L -3.5 0 
" style="stroke: #000000; stroke-width: 0.8"/>
      </defs>
      <g>
       <use xlink:href="#ma90c359390" x="89.016563" y="457.558594" style="stroke: #000000; stroke-width: 0.8"/>
      </g>
     </g>
     <g id="text_6">
      <!-- 0% -->
      <g transform="translate(53.46125 464.397187) scale(0.18 -0.18)">
       <defs>
        <path id="DejaVuSans-25" d="M 4653 2053 
Q 4381 2053 4226 1822 
Q 4072 1591 4072 1178 
Q 4072 772 4226 539 
Q 4381 306 4653 306 
Q 4919 306 5073 539 
Q 5228 772 5228 1178 
Q 5228 1588 5073 1820 
Q 4919 2053 4653 2053 
z
M 4653 2450 
Q 5147 2450 5437 2106 
Q 5728 1763 5728 1178 
Q 5728 594 5436 251 
Q 5144 -91 4653 -91 
Q 4153 -91 3862 251 
Q 3572 594 3572 1178 
Q 3572 1766 3864 2108 
Q 4156 2450 4653 2450 
z
M 1428 4353 
Q 1159 4353 1004 4120 
Q 850 3888 850 3481 
Q 850 3069 1003 2837 
Q 1156 2606 1428 2606 
Q 1700 2606 1854 2837 
Q 2009 3069 2009 3481 
Q 2009 3884 1853 4118 
Q 1697 4353 1428 4353 
z
M 4250 4750 
L 4750 4750 
L 1831 -91 
L 1331 -91 
L 4250 4750 
z
M 1428 4750 
Q 1922 4750 2215 4408 
Q 2509 4066 2509 3481 
Q 2509 2891 2217 2550 
Q 1925 2209 1428 2209 
Q 931 2209 642 2551 
Q 353 2894 353 3481 
Q 353 4063 643 4406 
Q 934 4750 1428 4750 
z
" transform="scale(0.015625)"/>
       </defs>
       <use xlink:href="#DejaVuSans-30"/>
       <use xlink:href="#DejaVuSans-25" transform="translate(63.623047 0)"/>
      </g>
     </g>
    </g>
    <g id="ytick_2">
     <g id="line2d_34">
      <g>
       <use xlink:href="#ma90c359390" x="89.016563" y="368.854594" style="stroke: #000000; stroke-width: 0.8"/>
      </g>
     </g>
     <g id="text_7">
      <!-- 20% -->
      <g transform="translate(42.00875 375.693187) scale(0.18 -0.18)">
       <use xlink:href="#DejaVuSans-32"/>
       <use xlink:href="#DejaVuSans-30" transform="translate(63.623047 0)"/>
       <use xlink:href="#DejaVuSans-25" transform="translate(127.246094 0)"/>
      </g>
     </g>
    </g>
    <g id="ytick_3">
     <g id="line2d_35">
      <g>
       <use xlink:href="#ma90c359390" x="89.016563" y="280.150594" style="stroke: #000000; stroke-width: 0.8"/>
      </g>
     </g>
     <g id="text_8">
      <!-- 40% -->
      <g transform="translate(42.00875 286.989187) scale(0.18 -0.18)">
       <defs>
        <path id="DejaVuSans-34" d="M 2419 4116 
L 825 1625 
L 2419 1625 
L 2419 4116 
z
M 2253 4666 
L 3047 4666 
L 3047 1625 
L 3713 1625 
L 3713 1100 
L 3047 1100 
L 3047 0 
L 2419 0 
L 2419 1100 
L 313 1100 
L 313 1709 
L 2253 4666 
z
" transform="scale(0.015625)"/>
       </defs>
       <use xlink:href="#DejaVuSans-34"/>
       <use xlink:href="#DejaVuSans-30" transform="translate(63.623047 0)"/>
       <use xlink:href="#DejaVuSans-25" transform="translate(127.246094 0)"/>
      </g>
     </g>
    </g>
    <g id="ytick_4">
     <g id="line2d_36">
      <g>
       <use xlink:href="#ma90c359390" x="89.016563" y="191.446594" style="stroke: #000000; stroke-width: 0.8"/>
      </g>
     </g>
     <g id="text_9">
      <!-- 60% -->
      <g transform="translate(42.00875 198.285187) scale(0.18 -0.18)">
       <defs>
        <path id="DejaVuSans-36" d="M 2113 2584 
Q 1688 2584 1439 2293 
Q 1191 2003 1191 1497 
Q 1191 994 1439 701 
Q 1688 409 2113 409 
Q 2538 409 2786 701 
Q 3034 994 3034 1497 
Q 3034 2003 2786 2293 
Q 2538 2584 2113 2584 
z
M 3366 4563 
L 3366 3988 
Q 3128 4100 2886 4159 
Q 2644 4219 2406 4219 
Q 1781 4219 1451 3797 
Q 1122 3375 1075 2522 
Q 1259 2794 1537 2939 
Q 1816 3084 2150 3084 
Q 2853 3084 3261 2657 
Q 3669 2231 3669 1497 
Q 3669 778 3244 343 
Q 2819 -91 2113 -91 
Q 1303 -91 875 529 
Q 447 1150 447 2328 
Q 447 3434 972 4092 
Q 1497 4750 2381 4750 
Q 2619 4750 2861 4703 
Q 3103 4656 3366 4563 
z
" transform="scale(0.015625)"/>
       </defs>
       <use xlink:href="#DejaVuSans-36"/>
       <use xlink:href="#DejaVuSans-30" transform="translate(63.623047 0)"/>
       <use xlink:href="#DejaVuSans-25" transform="translate(127.246094 0)"/>
      </g>
     </g>
    </g>
    <g id="ytick_5">
     <g id="line2d_37">
      <g>
       <use xlink:href="#ma90c359390" x="89.016563" y="102.742594" style="stroke: #000000; stroke-width: 0.8"/>
      </g>
     </g>
     <g id="text_10">
      <!-- 80% -->
      <g transform="translate(42.00875 109.581187) scale(0.18 -0.18)">
       <defs>
        <path id="DejaVuSans-38" d="M 2034 2216 
Q 1584 2216 1326 1975 
Q 1069 1734 1069 1313 
Q 1069 891 1326 650 
Q 1584 409 2034 409 
Q 2484 409 2743 651 
Q 3003 894 3003 1313 
Q 3003 1734 2745 1975 
Q 2488 2216 2034 2216 
z
M 1403 2484 
Q 997 2584 770 2862 
Q 544 3141 544 3541 
Q 544 4100 942 4425 
Q 1341 4750 2034 4750 
Q 2731 4750 3128 4425 
Q 3525 4100 3525 3541 
Q 3525 3141 3298 2862 
Q 3072 2584 2669 2484 
Q 3125 2378 3379 2068 
Q 3634 1759 3634 1313 
Q 3634 634 3220 271 
Q 2806 -91 2034 -91 
Q 1263 -91 848 271 
Q 434 634 434 1313 
Q 434 1759 690 2068 
Q 947 2378 1403 2484 
z
M 1172 3481 
Q 1172 3119 1398 2916 
Q 1625 2713 2034 2713 
Q 2441 2713 2670 2916 
Q 2900 3119 2900 3481 
Q 2900 3844 2670 4047 
Q 2441 4250 2034 4250 
Q 1625 4250 1398 4047 
Q 1172 3844 1172 3481 
z
" transform="scale(0.015625)"/>
       </defs>
       <use xlink:href="#DejaVuSans-38"/>
       <use xlink:href="#DejaVuSans-30" transform="translate(63.623047 0)"/>
       <use xlink:href="#DejaVuSans-25" transform="translate(127.246094 0)"/>
      </g>
     </g>
    </g>
    <g id="ytick_6">
     <g id="line2d_38">
      <g>
       <use xlink:href="#ma90c359390" x="89.016563" y="14.038594" style="stroke: #000000; stroke-width: 0.8"/>
      </g>
     </g>
     <g id="text_11">
      <!-- 100% -->
      <g transform="translate(30.55625 20.877187) scale(0.18 -0.18)">
       <use xlink:href="#DejaVuSans-31"/>
       <use xlink:href="#DejaVuSans-30" transform="translate(63.623047 0)"/>
       <use xlink:href="#DejaVuSans-30" transform="translate(127.246094 0)"/>
       <use xlink:href="#DejaVuSans-25" transform="translate(190.869141 0)"/>
      </g>
     </g>
    </g>
    <g id="text_12">
     <!-- cCREs (%) -->
     <g transform="translate(22.396875 292.190781) rotate(-90) scale(0.2 -0.2)">
      <defs>
       <path id="DejaVuSans-Bold-43" d="M 4288 256 
Q 3956 84 3597 -3 
Q 3238 -91 2847 -91 
Q 1681 -91 1000 561 
Q 319 1213 319 2328 
Q 319 3447 1000 4098 
Q 1681 4750 2847 4750 
Q 3238 4750 3597 4662 
Q 3956 4575 4288 4403 
L 4288 3438 
Q 3953 3666 3628 3772 
Q 3303 3878 2944 3878 
Q 2300 3878 1931 3465 
Q 1563 3053 1563 2328 
Q 1563 1606 1931 1193 
Q 2300 781 2944 781 
Q 3303 781 3628 887 
Q 3953 994 4288 1222 
L 4288 256 
z
" transform="scale(0.015625)"/>
       <path id="DejaVuSans-Bold-52" d="M 2297 2597 
Q 2675 2597 2839 2737 
Q 3003 2878 3003 3200 
Q 3003 3519 2839 3656 
Q 2675 3794 2297 3794 
L 1791 3794 
L 1791 2597 
L 2297 2597 
z
M 1791 1766 
L 1791 0 
L 588 0 
L 588 4666 
L 2425 4666 
Q 3347 4666 3776 4356 
Q 4206 4047 4206 3378 
Q 4206 2916 3982 2619 
Q 3759 2322 3309 2181 
Q 3556 2125 3751 1926 
Q 3947 1728 4147 1325 
L 4800 0 
L 3519 0 
L 2950 1159 
Q 2778 1509 2601 1637 
Q 2425 1766 2131 1766 
L 1791 1766 
z
" transform="scale(0.015625)"/>
       <path id="DejaVuSans-Bold-45" d="M 588 4666 
L 3834 4666 
L 3834 3756 
L 1791 3756 
L 1791 2888 
L 3713 2888 
L 3713 1978 
L 1791 1978 
L 1791 909 
L 3903 909 
L 3903 0 
L 588 0 
L 588 4666 
z
" transform="scale(0.015625)"/>
       <path id="DejaVuSans-Bold-73" d="M 3272 3391 
L 3272 2541 
Q 2913 2691 2578 2766 
Q 2244 2841 1947 2841 
Q 1628 2841 1473 2761 
Q 1319 2681 1319 2516 
Q 1319 2381 1436 2309 
Q 1553 2238 1856 2203 
L 2053 2175 
Q 2913 2066 3209 1816 
Q 3506 1566 3506 1031 
Q 3506 472 3093 190 
Q 2681 -91 1863 -91 
Q 1516 -91 1145 -36 
Q 775 19 384 128 
L 384 978 
Q 719 816 1070 734 
Q 1422 653 1784 653 
Q 2113 653 2278 743 
Q 2444 834 2444 1013 
Q 2444 1163 2330 1236 
Q 2216 1309 1875 1350 
L 1678 1375 
Q 931 1469 631 1722 
Q 331 1975 331 2491 
Q 331 3047 712 3315 
Q 1094 3584 1881 3584 
Q 2191 3584 2531 3537 
Q 2872 3491 3272 3391 
z
" transform="scale(0.015625)"/>
       <path id="DejaVuSans-Bold-28" d="M 2413 -844 
L 1484 -844 
Q 1006 -72 778 623 
Q 550 1319 550 2003 
Q 550 2688 779 3389 
Q 1009 4091 1484 4856 
L 2413 4856 
Q 2013 4116 1813 3408 
Q 1613 2700 1613 2009 
Q 1613 1319 1811 609 
Q 2009 -100 2413 -844 
z
" transform="scale(0.015625)"/>
       <path id="DejaVuSans-Bold-25" d="M 4959 1925 
Q 4738 1925 4616 1733 
Q 4494 1541 4494 1184 
Q 4494 825 4614 633 
Q 4734 441 4959 441 
Q 5184 441 5303 633 
Q 5422 825 5422 1184 
Q 5422 1541 5301 1733 
Q 5181 1925 4959 1925 
z
M 4959 2450 
Q 5541 2450 5875 2112 
Q 6209 1775 6209 1184 
Q 6209 594 5875 251 
Q 5541 -91 4959 -91 
Q 4378 -91 4042 251 
Q 3706 594 3706 1184 
Q 3706 1772 4042 2111 
Q 4378 2450 4959 2450 
z
M 2094 -91 
L 1403 -91 
L 4319 4750 
L 5013 4750 
L 2094 -91 
z
M 1453 4750 
Q 2034 4750 2367 4411 
Q 2700 4072 2700 3481 
Q 2700 2891 2367 2550 
Q 2034 2209 1453 2209 
Q 872 2209 539 2550 
Q 206 2891 206 3481 
Q 206 4072 539 4411 
Q 872 4750 1453 4750 
z
M 1453 4225 
Q 1228 4225 1106 4031 
Q 984 3838 984 3481 
Q 984 3122 1106 2926 
Q 1228 2731 1453 2731 
Q 1678 2731 1798 2926 
Q 1919 3122 1919 3481 
Q 1919 3838 1797 4031 
Q 1675 4225 1453 4225 
z
" transform="scale(0.015625)"/>
       <path id="DejaVuSans-Bold-29" d="M 513 -844 
Q 913 -100 1113 609 
Q 1313 1319 1313 2009 
Q 1313 2700 1113 3408 
Q 913 4116 513 4856 
L 1441 4856 
Q 1916 4091 2145 3389 
Q 2375 2688 2375 2003 
Q 2375 1319 2147 623 
Q 1919 -72 1441 -844 
L 513 -844 
z
" transform="scale(0.015625)"/>
      </defs>
      <use xlink:href="#DejaVuSans-Bold-63"/>
      <use xlink:href="#DejaVuSans-Bold-43" transform="translate(59.277344 0)"/>
      <use xlink:href="#DejaVuSans-Bold-52" transform="translate(132.666016 0)"/>
      <use xlink:href="#DejaVuSans-Bold-45" transform="translate(209.667969 0)"/>
      <use xlink:href="#DejaVuSans-Bold-73" transform="translate(277.978516 0)"/>
      <use xlink:href="#DejaVuSans-Bold-20" transform="translate(337.5 0)"/>
      <use xlink:href="#DejaVuSans-Bold-28" transform="translate(372.314453 0)"/>
      <use xlink:href="#DejaVuSans-Bold-25" transform="translate(418.017578 0)"/>
      <use xlink:href="#DejaVuSans-Bold-29" transform="translate(518.212891 0)"/>
     </g>
    </g>
   </g>
   <g id="line2d_39">
    <path d="M -1 456.507652 
L 109.307472 456.507652 
L 109.307472 456.402558 
L 109.307472 456.072262 
L 148.0501 456.072262 
L 148.0501 455.967167 
L 148.0501 455.43419 
L 170.713085 455.43419 
L 170.713085 455.329096 
L 170.713085 455.013813 
L 186.792728 455.013813 
L 186.792728 454.908719 
L 186.792728 454.510862 
L 199.265069 454.510862 
L 199.265069 454.405768 
L 199.265069 454.037938 
L 209.455713 454.037938 
L 209.455713 453.932844 
L 209.455713 453.602548 
L 218.07178 453.602548 
L 218.07178 453.497454 
L 218.07178 453.054557 
L 225.535357 453.054557 
L 225.535357 452.949463 
L 225.535357 452.378952 
L 232.118698 452.378952 
L 232.118698 452.273857 
L 232.118698 451.906028 
L 238.007697 451.906028 
L 238.007697 451.800934 
L 238.007697 451.365543 
L 243.334945 451.365543 
L 243.334945 451.260449 
L 243.334945 450.749992 
L 248.198341 450.749992 
L 248.198341 450.644897 
L 248.198341 450.17948 
L 252.672232 450.17948 
L 252.672232 450.074386 
L 252.672232 449.556422 
L 256.814408 449.556422 
L 256.814408 449.451328 
L 256.814408 449.015937 
L 260.670682 449.015937 
L 260.670682 448.910843 
L 260.670682 448.558027 
L 264.277985 448.558027 
L 264.277985 448.452933 
L 264.277985 447.957489 
L 267.666525 447.957489 
L 267.666525 447.852395 
L 267.666525 447.417004 
L 270.861326 447.417004 
L 270.861326 447.31191 
L 270.861326 446.793946 
L 273.883348 446.793946 
L 273.883348 446.688852 
L 273.883348 446.09582 
L 276.750325 446.09582 
L 276.750325 445.990726 
L 276.750325 445.570349 
L 279.477393 445.570349 
L 279.477393 445.465255 
L 279.477393 445.007345 
L 282.077573 445.007345 
L 282.077573 444.902251 
L 282.077573 444.429327 
L 284.562151 444.429327 
L 284.562151 444.324233 
L 284.562151 443.98643 
L 286.94097 443.98643 
L 286.94097 443.881336 
L 286.94097 443.498493 
L 289.222666 443.498493 
L 289.222666 443.393398 
L 289.222666 442.867927 
L 291.414861 442.867927 
L 291.414861 442.762833 
L 291.414861 442.342456 
L 293.524311 442.342456 
L 293.524311 442.237362 
L 293.524311 441.839506 
L 295.557037 441.839506 
L 295.557037 441.734411 
L 295.557037 441.314035 
L 297.518424 441.314035 
L 297.518424 441.208941 
L 297.518424 440.788564 
L 299.41331 440.788564 
L 299.41331 440.68347 
L 299.41331 440.36068 
L 301.246058 440.36068 
L 301.246058 440.255586 
L 301.246058 439.767649 
L 303.020613 439.767649 
L 303.020613 439.662555 
L 303.020613 439.14459 
L 304.740558 439.137084 
L 304.740558 439.039496 
L 304.740558 438.649146 
L 306.409154 438.649146 
L 306.409154 438.544052 
L 306.409154 438.198743 
L 308.029377 438.198743 
L 308.029377 438.093649 
L 308.029377 437.49311 
L 309.603954 437.49311 
L 309.603954 437.388016 
L 309.603954 436.915092 
L 311.135387 436.915092 
L 311.135387 436.809998 
L 311.135387 436.299541 
L 312.625977 436.299541 
L 312.625977 436.194446 
L 312.625977 435.714016 
L 314.077845 435.714016 
L 314.077845 435.608922 
L 314.077845 435.173531 
L 315.492954 435.173531 
L 315.492954 435.068437 
L 315.492954 434.572993 
L 316.873118 434.572993 
L 316.873118 434.467899 
L 316.873118 433.957441 
L 318.220021 433.957441 
L 318.220021 433.852347 
L 318.220021 433.469504 
L 319.53523 433.469504 
L 319.53523 433.36441 
L 319.53523 432.838939 
L 320.820202 432.838939 
L 320.820202 432.733845 
L 320.820202 432.1258 
L 322.076295 432.1258 
L 322.076295 432.020706 
L 322.076295 431.457701 
L 323.30478 431.457701 
L 323.30478 431.352607 
L 323.30478 430.827136 
L 324.506843 430.827136 
L 324.506843 430.722042 
L 324.506843 430.121504 
L 325.683598 430.121504 
L 325.683598 430.016409 
L 325.683598 429.318284 
L 326.836088 429.318284 
L 326.836088 429.213189 
L 326.836088 428.417476 
L 327.965294 428.417476 
L 327.965294 428.312382 
L 327.965294 427.576723 
L 329.072138 427.576723 
L 329.072138 427.471629 
L 329.072138 426.931144 
L 330.157489 426.931144 
L 330.157489 426.82605 
L 330.157489 426.135431 
L 331.222165 426.135431 
L 331.222165 426.030337 
L 331.222165 425.249637 
L 332.266939 425.249637 
L 332.266939 425.144543 
L 332.266939 424.34883 
L 333.292542 424.34883 
L 333.292542 424.243736 
L 333.292542 423.463036 
L 334.299665 423.463036 
L 334.299665 423.357942 
L 334.299665 422.569735 
L 335.288962 422.569735 
L 335.288962 422.464641 
L 335.288962 421.774022 
L 336.261052 421.774022 
L 336.261052 421.668928 
L 336.261052 420.918255 
L 337.216525 420.918255 
L 337.216525 420.813161 
L 337.216525 420.039968 
L 338.155939 420.039968 
L 338.155939 419.934874 
L 338.155939 419.131654 
L 339.079824 419.131654 
L 339.079824 419.02656 
L 339.079824 418.133259 
L 339.988686 418.133259 
L 339.988686 418.028165 
L 339.988686 417.202425 
L 340.883006 417.202425 
L 340.883006 417.097331 
L 340.883006 416.354165 
L 341.763242 416.346658 
L 341.763242 416.249071 
L 341.763242 415.453357 
L 342.629829 415.453357 
L 342.629829 415.348263 
L 342.629829 414.50751 
L 343.483186 414.50751 
L 343.483186 414.402415 
L 343.483186 413.486595 
L 344.323711 413.479088 
L 344.323711 413.381501 
L 344.323711 412.420639 
L 345.151782 412.420639 
L 345.151782 412.315545 
L 345.151782 411.452271 
L 345.967764 411.452271 
L 345.967764 411.347177 
L 345.967764 410.318756 
L 346.772005 410.318756 
L 346.772005 410.213661 
L 346.772005 409.155213 
L 347.564839 409.155213 
L 347.564839 409.050119 
L 347.564839 407.864056 
L 348.346583 407.864056 
L 348.346583 407.758961 
L 348.346583 406.723033 
L 349.117544 406.723033 
L 349.117544 406.617939 
L 349.117544 405.484423 
L 349.878016 405.484423 
L 349.878016 405.379329 
L 349.878016 404.29836 
L 350.628279 404.29836 
L 350.628279 404.193266 
L 350.628279 403.097283 
L 351.368605 403.097283 
L 351.368605 402.992189 
L 351.368605 401.768593 
L 352.099253 401.768593 
L 352.099253 401.663498 
L 352.099253 400.417382 
L 352.820474 400.417382 
L 352.820474 400.312287 
L 352.820474 399.103704 
L 353.532506 399.103704 
L 353.532506 398.99861 
L 353.532506 397.632386 
L 354.235582 397.632386 
L 354.235582 397.527291 
L 354.235582 396.296188 
L 354.929924 396.296188 
L 354.929924 396.191094 
L 354.929924 394.712268 
L 355.615746 394.712268 
L 355.615746 394.607174 
L 355.615746 393.398591 
L 356.293255 393.398591 
L 356.293255 393.293497 
L 356.293255 391.972313 
L 356.96265 391.972313 
L 356.96265 391.867219 
L 356.96265 390.703676 
L 357.624122 390.703676 
L 357.624122 390.598582 
L 357.624122 389.15729 
L 358.277859 389.15729 
L 358.277859 389.052196 
L 358.277859 387.678464 
L 358.924037 387.678464 
L 358.924037 387.57337 
L 358.924037 386.244679 
L 359.56283 386.244679 
L 359.56283 386.139585 
L 359.56283 384.788374 
L 360.194405 384.788374 
L 360.194405 384.68328 
L 360.194405 383.459683 
L 360.818923 383.459683 
L 360.818923 383.354589 
L 360.818923 382.040912 
L 361.436541 382.040912 
L 361.436541 381.935818 
L 361.436541 380.562086 
L 362.047408 380.562086 
L 362.047408 380.456992 
L 362.047408 379.030714 
L 362.651671 379.030714 
L 362.651671 378.92562 
L 362.651671 377.439288 
L 363.249471 377.439288 
L 363.249471 377.334193 
L 363.249471 375.967969 
L 363.840946 375.967969 
L 363.840946 375.862875 
L 363.840946 374.308982 
L 364.426226 374.308982 
L 364.426226 374.203888 
L 364.426226 372.86769 
L 365.005442 372.86769 
L 365.005442 372.762596 
L 365.005442 371.12613 
L 365.578717 371.12613 
L 365.578717 371.021035 
L 365.578717 369.51969 
L 366.146171 369.51969 
L 366.146171 369.414596 
L 366.146171 367.755609 
L 366.707923 367.755609 
L 366.707923 367.650515 
L 366.707923 366.314317 
L 367.264084 366.314317 
L 367.264084 366.209223 
L 367.264084 364.662837 
L 367.814767 364.662837 
L 367.814767 364.557743 
L 367.814767 362.906263 
L 368.360076 362.906263 
L 368.360076 362.801168 
L 368.360076 361.269796 
L 368.900117 361.269796 
L 368.900117 361.164702 
L 368.900117 359.438154 
L 369.43499 359.438154 
L 369.43499 359.33306 
L 369.43499 357.7041 
L 369.964793 357.7041 
L 369.964793 357.599006 
L 369.964793 355.857445 
L 370.489621 355.857445 
L 370.489621 355.752351 
L 370.489621 354.333579 
L 371.009568 354.333579 
L 371.009568 354.228485 
L 371.009568 352.344297 
L 371.524721 352.344297 
L 371.524721 352.239202 
L 371.524721 350.332494 
L 372.035171 350.332494 
L 372.035171 350.227399 
L 372.035171 348.650986 
L 372.541 348.650986 
L 372.541 348.545892 
L 372.541 346.886905 
L 373.042293 346.886905 
L 373.042293 346.781811 
L 373.042293 345.130331 
L 373.53913 345.130331 
L 373.53913 345.025237 
L 373.53913 343.283676 
L 374.03159 343.283676 
L 374.03159 343.178582 
L 374.03159 341.444528 
L 374.519748 341.444528 
L 374.519748 341.339434 
L 374.519748 339.515299 
L 375.00368 339.515299 
L 375.00368 339.410205 
L 375.00368 337.593576 
L 375.483458 337.593576 
L 375.483458 337.488482 
L 375.483458 335.791962 
L 375.959153 335.791962 
L 375.959153 335.686868 
L 375.959153 333.832706 
L 376.430834 333.832706 
L 376.430834 333.727612 
L 376.430834 331.790876 
L 376.898567 331.790876 
L 376.898567 331.685782 
L 376.898567 329.8091 
L 377.362419 329.8091 
L 377.362419 329.704005 
L 377.362419 328.082552 
L 377.822452 328.082552 
L 377.822452 327.977458 
L 377.822452 326.145816 
L 378.278731 326.13831 
L 378.278731 326.040722 
L 378.278731 324.471816 
L 378.731315 324.471816 
L 378.731315 324.366722 
L 378.731315 322.707735 
L 379.180263 322.707735 
L 379.180263 322.602641 
L 379.180263 320.973681 
L 379.625634 320.973681 
L 379.625634 320.868587 
L 379.625634 318.77421 
L 380.067485 318.77421 
L 380.067485 318.669116 
L 380.067485 316.792434 
L 380.50587 316.792434 
L 380.50587 316.687339 
L 380.50587 315.10342 
L 380.940843 315.10342 
L 380.940843 314.998326 
L 380.940843 313.114137 
L 381.372458 313.114137 
L 381.372458 313.009043 
L 381.372458 311.297509 
L 381.800765 311.297509 
L 381.800765 311.192415 
L 381.800765 309.195625 
L 382.225815 309.195625 
L 382.225815 309.090531 
L 382.225815 307.251383 
L 382.647657 307.243876 
L 382.647657 307.146288 
L 382.647657 305.367194 
L 383.066339 305.367194 
L 383.066339 305.2621 
L 383.066339 303.61062 
L 383.481908 303.603113 
L 383.481908 303.505525 
L 383.481908 301.703911 
L 383.89441 301.703911 
L 383.89441 301.598816 
L 383.89441 299.767175 
L 384.303891 299.767175 
L 384.303891 299.662081 
L 384.303891 297.642771 
L 384.710393 297.642771 
L 384.710393 297.537677 
L 384.710393 295.645981 
L 385.11396 295.645981 
L 385.11396 295.540887 
L 385.11396 293.619165 
L 385.514634 293.619165 
L 385.514634 293.514071 
L 385.514634 291.329613 
L 385.912456 291.329613 
L 385.912456 291.224519 
L 385.912456 289.235236 
L 386.307467 289.235236 
L 386.307467 289.130142 
L 386.307467 287.32102 
L 386.699706 287.32102 
L 386.699706 287.215926 
L 386.699706 285.23415 
L 387.089211 285.23415 
L 387.089211 285.129056 
L 387.089211 283.124759 
L 387.476021 283.124759 
L 387.476021 283.019665 
L 387.476021 281.375692 
L 387.860172 281.375692 
L 387.860172 281.270598 
L 387.860172 279.468983 
L 388.241701 279.468983 
L 388.241701 279.363889 
L 388.241701 277.359592 
L 388.620644 277.359592 
L 388.620644 277.254498 
L 388.620644 275.062534 
L 388.997034 275.062534 
L 388.997034 274.957439 
L 388.997034 273.103278 
L 389.370907 273.103278 
L 389.370907 272.998183 
L 389.370907 271.204076 
L 389.742296 271.204076 
L 389.742296 271.098981 
L 389.742296 269.297367 
L 390.111233 269.297367 
L 390.111233 269.192272 
L 390.111233 267.285564 
L 390.477751 267.285564 
L 390.477751 267.180469 
L 390.477751 265.191187 
L 390.841882 265.191187 
L 390.841882 265.086092 
L 390.841882 263.14185 
L 391.203655 263.14185 
L 391.203655 263.036756 
L 391.203655 261.242648 
L 391.563102 261.242648 
L 391.563102 261.137554 
L 391.563102 259.320925 
L 391.920252 259.320925 
L 391.920252 259.215831 
L 391.920252 257.271589 
L 392.275135 257.271589 
L 392.275135 257.166494 
L 392.275135 255.327346 
L 392.627778 255.327346 
L 392.627778 255.222252 
L 392.627778 253.375597 
L 392.97821 253.375597 
L 392.97821 253.270503 
L 392.97821 251.333767 
L 393.32646 251.333767 
L 393.32646 251.228673 
L 393.32646 249.389524 
L 393.672552 249.389524 
L 393.672552 249.28443 
L 393.672552 247.445282 
L 394.016515 247.445282 
L 394.016515 247.340188 
L 394.016515 245.621147 
L 394.358374 245.621147 
L 394.358374 245.516053 
L 394.358374 243.541784 
L 394.698155 243.541784 
L 394.698155 243.436689 
L 394.698155 241.48494 
L 395.035883 241.48494 
L 395.035883 241.379846 
L 395.035883 239.247935 
L 395.371583 239.247935 
L 395.371583 239.142841 
L 395.371583 237.33372 
L 395.705278 237.33372 
L 395.705278 237.228625 
L 395.705278 235.344437 
L 396.036993 235.344437 
L 396.036993 235.239343 
L 396.036993 233.332634 
L 396.366751 233.325127 
L 396.366751 233.227539 
L 396.366751 231.568553 
L 396.694575 231.561046 
L 396.694575 231.463458 
L 396.694575 229.631817 
L 397.020487 229.631817 
L 397.020487 229.526723 
L 397.020487 227.529933 
L 397.34451 227.522426 
L 397.34451 227.424839 
L 397.34451 225.668265 
L 397.666665 225.668265 
L 397.666665 225.56317 
L 397.666665 223.979251 
L 397.986974 223.979251 
L 397.986974 223.874157 
L 397.986974 222.087555 
L 398.305458 222.087555 
L 398.305458 221.982461 
L 398.305458 220.015699 
L 398.622138 220.015699 
L 398.622138 219.910604 
L 398.622138 217.936335 
L 398.937033 217.936335 
L 398.937033 217.831241 
L 398.937033 216.1122 
L 399.250165 216.1122 
L 399.250165 216.007106 
L 399.250165 214.235518 
L 399.561552 214.235518 
L 399.561552 214.130424 
L 399.561552 212.426397 
L 399.871213 212.426397 
L 399.871213 212.321302 
L 399.871213 210.609769 
L 400.179169 210.609769 
L 400.179169 210.504674 
L 400.179169 208.830674 
L 400.485437 208.830674 
L 400.485437 208.72558 
L 400.485437 206.886432 
L 400.790036 206.886432 
L 400.790036 206.781337 
L 400.790036 204.882135 
L 401.092984 204.882135 
L 401.092984 204.777041 
L 401.092984 202.945399 
L 401.394299 202.945399 
L 401.394299 202.840305 
L 401.394299 201.008664 
L 401.693999 201.008664 
L 401.693999 200.903569 
L 401.693999 198.966834 
L 401.9921 198.966834 
L 401.9921 198.861739 
L 401.9921 197.2553 
L 402.288619 197.2553 
L 402.288619 197.150206 
L 402.288619 195.461192 
L 402.583574 195.461192 
L 402.583574 195.356098 
L 402.583574 193.719631 
L 402.87698 193.719631 
L 402.87698 193.614537 
L 402.87698 192.038124 
L 403.168855 192.038124 
L 403.168855 191.93303 
L 403.168855 190.289056 
L 403.459213 190.289056 
L 403.459213 190.183962 
L 403.459213 188.660096 
L 403.74807 188.660096 
L 403.74807 188.555002 
L 403.74807 186.986096 
L 404.035443 186.986096 
L 404.035443 186.881002 
L 404.035443 185.349629 
L 404.321345 185.349629 
L 404.321345 185.244535 
L 404.321345 183.728176 
L 404.605792 183.728176 
L 404.605792 183.623082 
L 404.605792 181.949082 
L 404.8888 181.949082 
L 404.8888 181.843988 
L 404.8888 180.09492 
L 405.170381 180.09492 
L 405.170381 179.989826 
L 405.170381 178.330839 
L 405.450551 178.330839 
L 405.450551 178.225745 
L 405.450551 176.739413 
L 405.729324 176.739413 
L 405.729324 176.634318 
L 405.729324 175.117959 
L 406.006713 175.117959 
L 406.006713 175.012865 
L 406.006713 173.504013 
L 406.282732 173.504013 
L 406.282732 173.398919 
L 406.282732 171.822506 
L 406.557395 171.822506 
L 406.557395 171.717412 
L 406.557395 170.005878 
L 406.830715 170.005878 
L 406.830715 169.900784 
L 406.830715 168.497025 
L 407.102705 168.497025 
L 407.102705 168.391931 
L 407.102705 166.890586 
L 407.373377 166.890586 
L 407.373377 166.785492 
L 407.373377 165.246612 
L 407.642746 165.246612 
L 407.642746 165.141518 
L 407.642746 163.527572 
L 407.910822 163.527572 
L 407.910822 163.422477 
L 407.910822 161.921132 
L 408.177619 161.921132 
L 408.177619 161.816038 
L 408.177619 160.051957 
L 408.443148 160.051957 
L 408.443148 159.946862 
L 408.443148 158.528091 
L 408.707422 158.528091 
L 408.707422 158.422997 
L 408.707422 156.929158 
L 408.970452 156.929158 
L 408.970452 156.824064 
L 408.970452 155.315211 
L 409.23225 155.315211 
L 409.23225 155.210117 
L 409.23225 153.633704 
L 409.492827 153.633704 
L 409.492827 153.52861 
L 409.492827 152.139866 
L 409.752196 152.139866 
L 409.752196 152.034771 
L 409.752196 150.68356 
L 410.010366 150.68356 
L 410.010366 150.578466 
L 410.010366 149.347363 
L 410.26735 149.347363 
L 410.26735 149.242269 
L 410.26735 147.861031 
L 410.523157 147.861031 
L 410.523157 147.755936 
L 410.523157 146.299631 
L 410.777799 146.299631 
L 410.777799 146.194537 
L 410.777799 144.873353 
L 411.031286 144.873353 
L 411.031286 144.768259 
L 411.031286 143.364501 
L 411.283629 143.364501 
L 411.283629 143.259407 
L 411.283629 141.915702 
L 411.534837 141.915702 
L 411.534837 141.810608 
L 411.534837 140.587011 
L 411.784922 140.587011 
L 411.784922 140.481917 
L 411.784922 139.288347 
L 412.033892 139.288347 
L 412.033892 139.183253 
L 412.033892 137.719441 
L 412.281759 137.719441 
L 412.281759 137.614347 
L 412.281759 136.413271 
L 412.528531 136.413271 
L 412.528531 136.308177 
L 412.528531 135.212194 
L 412.774218 135.212194 
L 412.774218 135.1071 
L 412.774218 133.84597 
L 413.01883 133.84597 
L 413.01883 133.740876 
L 413.01883 132.734974 
L 413.262377 132.734974 
L 413.262377 132.62988 
L 413.262377 131.473844 
L 413.504866 131.473844 
L 413.504866 131.36875 
L 413.504866 130.100113 
L 413.746309 130.100113 
L 413.746309 129.995018 
L 413.746309 128.838982 
L 413.986713 128.838982 
L 413.986713 128.733888 
L 413.986713 127.592866 
L 414.226087 127.592866 
L 414.226087 127.487771 
L 414.226087 126.264175 
L 414.46444 126.264175 
L 414.46444 126.159081 
L 414.46444 125.130659 
L 414.701782 125.130659 
L 414.701782 125.025565 
L 414.701782 123.944596 
L 414.938119 123.944596 
L 414.938119 123.839502 
L 414.938119 122.728506 
L 415.173462 122.720999 
L 415.173462 122.623412 
L 415.173462 121.264694 
L 415.407818 121.264694 
L 415.407818 121.1596 
L 415.407818 120.018577 
L 415.641195 120.018577 
L 415.641195 119.913483 
L 415.641195 118.7049 
L 415.873602 118.7049 
L 415.873602 118.599806 
L 415.873602 117.481303 
L 416.105047 117.481303 
L 416.105047 117.376209 
L 416.105047 116.190146 
L 416.335537 116.190146 
L 416.335537 116.085052 
L 416.335537 114.906496 
L 416.565081 114.906496 
L 416.565081 114.801401 
L 416.565081 113.622845 
L 416.793686 113.622845 
L 416.793686 113.517751 
L 416.793686 112.354208 
L 417.021359 112.354208 
L 417.021359 112.249114 
L 417.021359 111.228199 
L 417.248109 111.228199 
L 417.248109 111.123105 
L 417.248109 110.064656 
L 417.473943 110.064656 
L 417.473943 109.959562 
L 417.473943 109.081275 
L 417.698868 109.081275 
L 417.698868 108.976181 
L 417.698868 107.992799 
L 417.922892 107.992799 
L 417.922892 107.887705 
L 417.922892 106.769203 
L 418.146021 106.769203 
L 418.146021 106.664108 
L 418.146021 105.598153 
L 418.368263 105.598153 
L 418.368263 105.493059 
L 418.368263 104.442117 
L 418.589625 104.442117 
L 418.589625 104.337023 
L 418.589625 103.361148 
L 418.810113 103.361148 
L 418.810113 103.256054 
L 418.810113 102.355247 
L 419.029736 102.34774 
L 419.029736 102.250152 
L 419.029736 101.281785 
L 419.248498 101.281785 
L 419.248498 101.17669 
L 419.248498 100.411004 
L 419.466408 100.411004 
L 419.466408 100.30591 
L 419.466408 99.405103 
L 419.683472 99.405103 
L 419.683472 99.300008 
L 419.683472 98.376681 
L 419.899696 98.376681 
L 419.899696 98.271587 
L 419.899696 97.310725 
L 420.115086 97.310725 
L 420.115086 97.205631 
L 420.115086 96.184716 
L 420.32965 96.17721 
L 420.32965 96.079622 
L 420.32965 95.186322 
L 420.543393 95.186322 
L 420.543393 95.081227 
L 420.543393 94.030285 
L 420.756322 94.030285 
L 420.756322 93.925191 
L 420.756322 92.881756 
L 420.968443 92.881756 
L 420.968443 92.776662 
L 420.968443 91.838321 
L 421.179762 91.830814 
L 421.179762 91.733227 
L 421.179762 90.809899 
L 421.390285 90.809899 
L 421.390285 90.704805 
L 421.390285 89.901585 
L 421.600018 89.894078 
L 421.600018 89.796491 
L 421.600018 88.90319 
L 421.808967 88.895684 
L 421.808967 88.798096 
L 421.808967 87.912302 
L 422.017138 87.912302 
L 422.017138 87.807208 
L 422.017138 86.951441 
L 422.224536 86.951441 
L 422.224536 86.846347 
L 422.224536 86.0131 
L 422.431168 86.0131 
L 422.431168 85.908006 
L 422.431168 85.082266 
L 422.637039 85.074759 
L 422.637039 84.977172 
L 422.637039 84.098885 
L 422.842154 84.091378 
L 422.842154 83.99379 
L 422.842154 83.085476 
L 423.046519 83.085476 
L 423.046519 82.980382 
L 423.046519 82.184669 
L 423.250139 82.184669 
L 423.250139 82.079575 
L 423.250139 81.298875 
L 423.453021 81.298875 
L 423.453021 81.193781 
L 423.453021 80.518175 
L 423.655169 80.510669 
L 423.655169 80.413081 
L 423.655169 79.707449 
L 423.856588 79.699942 
L 423.856588 79.602355 
L 423.856588 78.874202 
L 424.057284 78.874202 
L 424.057284 78.769108 
L 424.057284 77.973395 
L 424.257262 77.973395 
L 424.257262 77.8683 
L 424.257262 77.102614 
L 424.456527 77.102614 
L 424.456527 76.99752 
L 424.456527 76.389475 
L 424.655084 76.389475 
L 424.655084 76.284381 
L 424.655084 75.511188 
L 424.852939 75.511188 
L 424.852939 75.406094 
L 424.852939 74.655421 
L 425.050095 74.655421 
L 425.050095 74.550327 
L 425.050095 73.957295 
L 425.246559 73.957295 
L 425.246559 73.852201 
L 425.246559 73.033968 
L 425.442334 73.033968 
L 425.442334 72.928874 
L 425.442334 72.268281 
L 425.637426 72.268281 
L 425.637426 72.163187 
L 425.637426 71.352461 
L 425.831839 71.352461 
L 425.831839 71.247366 
L 425.831839 70.706882 
L 426.025579 70.706882 
L 426.025579 70.601788 
L 426.025579 69.963716 
L 426.218649 69.963716 
L 426.218649 69.858622 
L 426.218649 69.24307 
L 426.411055 69.24307 
L 426.411055 69.137976 
L 426.411055 68.447357 
L 426.602801 68.447357 
L 426.602801 68.342263 
L 426.602801 67.809285 
L 426.793891 67.809285 
L 426.793891 67.704191 
L 426.793891 67.103653 
L 426.98433 67.103653 
L 426.98433 66.998559 
L 426.98433 66.428047 
L 427.174122 66.428047 
L 427.174122 66.322953 
L 427.174122 65.684881 
L 427.363272 65.684881 
L 427.363272 65.579787 
L 427.363272 64.919195 
L 427.551784 64.919195 
L 427.551784 64.814101 
L 427.551784 64.078441 
L 427.739663 64.078441 
L 427.739663 63.973347 
L 427.739663 63.395329 
L 427.926912 63.395329 
L 427.926912 63.290235 
L 427.926912 62.764764 
L 428.113536 62.764764 
L 428.113536 62.65967 
L 428.113536 62.059132 
L 428.299539 62.059132 
L 428.299539 61.954037 
L 428.299539 61.406046 
L 428.484924 61.406046 
L 428.484924 61.300952 
L 428.484924 60.782988 
L 428.669698 60.782988 
L 428.669698 60.677894 
L 428.669698 60.340091 
L 428.853862 60.340091 
L 428.853862 60.234997 
L 428.853862 59.83714 
L 429.037421 59.83714 
L 429.037421 59.732046 
L 429.037421 59.199068 
L 429.22038 59.199068 
L 429.22038 59.093974 
L 429.22038 58.606037 
L 429.402741 58.606037 
L 429.402741 58.500943 
L 429.402741 57.997992 
L 429.58451 57.997992 
L 429.58451 57.892898 
L 429.58451 57.3374 
L 429.765689 57.3374 
L 429.765689 57.232306 
L 429.765689 56.841956 
L 429.946283 56.841956 
L 429.946283 56.736862 
L 429.946283 56.278951 
L 430.126296 56.278951 
L 430.126296 56.173857 
L 430.126296 55.745974 
L 430.30573 55.745974 
L 430.30573 55.640879 
L 430.30573 55.175462 
L 430.484591 55.175462 
L 430.484591 55.070368 
L 430.484591 54.544897 
L 430.66288 54.544897 
L 430.66288 54.439803 
L 430.66288 54.094493 
L 430.840603 54.094493 
L 430.840603 53.989399 
L 430.840603 53.561516 
L 431.017763 53.561516 
L 431.017763 53.456422 
L 431.017763 53.051058 
L 431.194363 53.051058 
L 431.194363 52.945964 
L 431.194363 52.548107 
L 431.370406 52.548107 
L 431.370406 52.443013 
L 431.370406 52.105211 
L 431.545897 52.105211 
L 431.545897 52.000116 
L 431.545897 51.654807 
L 431.720839 51.654807 
L 431.720839 51.549713 
L 431.720839 51.16687 
L 431.895235 51.16687 
L 431.895235 51.061775 
L 431.895235 50.611372 
L 432.069088 50.611372 
L 432.069088 50.506278 
L 432.069088 50.100914 
L 432.242402 50.100914 
L 432.242402 49.99582 
L 432.242402 49.688044 
L 432.415181 49.688044 
L 432.415181 49.58295 
L 432.415181 49.237641 
L 432.587427 49.237641 
L 432.587427 49.132546 
L 432.587427 48.644609 
L 432.759144 48.644609 
L 432.759144 48.539515 
L 432.759144 48.186699 
L 432.930334 48.186699 
L 432.930334 48.081604 
L 432.930334 47.676241 
L 433.101003 47.676241 
L 433.101003 47.571147 
L 433.101003 47.255864 
L 433.271151 47.255864 
L 433.271151 47.15077 
L 433.271151 46.790447 
L 433.440784 46.790447 
L 433.440784 46.685353 
L 433.440784 46.34755 
L 433.609903 46.34755 
L 433.609903 46.242456 
L 433.609903 45.88964 
L 433.778512 45.88964 
L 433.778512 45.784546 
L 433.778512 45.424223 
L 433.946613 45.424223 
L 433.946613 45.319129 
L 433.946613 45.0639 
L 434.114211 45.0639 
L 434.114211 44.958806 
L 434.114211 44.643523 
L 434.281308 44.643523 
L 434.281308 44.538429 
L 434.281308 44.185613 
L 434.447906 44.178106 
L 434.447906 44.080518 
L 434.447906 43.80277 
L 434.61401 43.80277 
L 434.61401 43.697675 
L 434.61401 43.374886 
L 434.779621 43.374886 
L 434.779621 43.269792 
L 434.779621 42.992043 
L 434.944743 42.992043 
L 434.944743 42.886949 
L 434.944743 42.63172 
L 435.109379 42.624213 
L 435.109379 42.526626 
L 435.109379 42.233863 
L 435.273531 42.233863 
L 435.273531 42.128769 
L 435.273531 41.843514 
L 435.437203 41.843514 
L 435.437203 41.738419 
L 435.437203 41.505711 
L 435.600397 41.505711 
L 435.600397 41.400617 
L 435.600397 41.122868 
L 435.763115 41.122868 
L 435.763115 41.017774 
L 435.763115 40.747531 
L 435.925362 40.747531 
L 435.925362 40.642437 
L 435.925362 40.349675 
L 436.087138 40.349675 
L 436.087138 40.244581 
L 436.087138 40.056912 
L 436.248448 40.056912 
L 436.248448 39.951818 
L 436.248448 39.704096 
L 436.409294 39.704096 
L 436.409294 39.599002 
L 436.409294 39.343773 
L 436.569678 39.343773 
L 436.569678 39.238679 
L 436.569678 38.968437 
L 436.729603 38.968437 
L 436.729603 38.863343 
L 436.729603 38.645648 
L 436.889072 38.645648 
L 436.889072 38.540553 
L 436.889072 38.225271 
L 437.048087 38.225271 
L 437.048087 38.120177 
L 437.048087 37.970042 
L 437.206651 37.970042 
L 437.206651 37.864948 
L 437.206651 37.662266 
L 437.364766 37.662266 
L 437.364766 37.557172 
L 437.364766 37.369504 
L 437.522436 37.369504 
L 437.522436 37.26441 
L 437.522436 37.084248 
L 437.679662 37.084248 
L 437.679662 36.979154 
L 437.679662 36.746445 
L 437.836447 36.746445 
L 437.836447 36.641351 
L 437.836447 36.371109 
L 437.992793 36.371109 
L 437.992793 36.266015 
L 437.992793 36.078347 
L 438.148703 36.078347 
L 438.148703 35.973252 
L 438.148703 35.815611 
L 438.30418 35.815611 
L 438.30418 35.710517 
L 438.30418 35.522849 
L 438.459225 35.522849 
L 438.459225 35.417755 
L 438.459225 35.275127 
L 438.613842 35.275127 
L 438.613842 35.170033 
L 438.613842 34.959844 
L 438.768032 34.959844 
L 438.768032 34.85475 
L 438.768032 34.644562 
L 438.921797 34.644562 
L 438.921797 34.539467 
L 438.921797 34.381826 
L 439.075141 34.381826 
L 439.075141 34.276732 
L 439.075141 34.119091 
L 439.228065 34.119091 
L 439.228065 34.013996 
L 439.228065 33.863862 
L 439.380572 33.863862 
L 439.380572 33.758768 
L 439.380572 33.653674 
L 439.532665 33.653674 
L 439.532665 33.548579 
L 439.532665 33.428472 
L 439.684344 33.428472 
L 439.684344 33.323378 
L 439.684344 33.090669 
L 439.835613 33.090669 
L 439.835613 32.985575 
L 439.835613 32.81292 
L 439.986473 32.81292 
L 439.986473 32.707826 
L 439.986473 32.617745 
L 440.136928 32.617745 
L 440.136928 32.512651 
L 440.136928 32.392543 
L 440.286978 32.392543 
L 440.286978 32.287449 
L 440.286978 32.114794 
L 440.436627 32.114794 
L 440.436627 32.0097 
L 440.436627 31.889593 
L 440.585876 31.889593 
L 440.585876 31.784498 
L 440.585876 31.61935 
L 440.734728 31.61935 
L 440.734728 31.514256 
L 440.734728 31.349108 
L 440.883184 31.349108 
L 440.883184 31.244014 
L 440.883184 31.041332 
L 441.031248 31.041332 
L 441.031248 30.936238 
L 441.031248 30.786104 
L 441.17892 30.786104 
L 441.17892 30.681009 
L 441.17892 30.560902 
L 441.326202 30.560902 
L 441.326202 30.455808 
L 441.326202 30.305673 
L 441.473098 30.305673 
L 441.473098 30.200579 
L 441.473098 29.997897 
L 441.619609 29.997897 
L 441.619609 29.892803 
L 441.619609 29.772695 
L 441.765736 29.772695 
L 441.765736 29.667601 
L 441.765736 29.585027 
L 441.911483 29.585027 
L 441.911483 29.479933 
L 441.911483 29.374839 
L 442.056851 29.374839 
L 442.056851 29.269745 
L 442.056851 29.16465 
L 442.201841 29.16465 
L 442.201841 29.059556 
L 442.201841 29.007009 
L 442.346456 29.007009 
L 442.346456 28.901915 
L 442.346456 28.871888 
L 442.490699 28.871888 
L 442.490699 28.766794 
L 442.490699 28.646686 
L 442.634569 28.646686 
L 442.634569 28.541592 
L 442.634569 28.444004 
L 442.778071 28.444004 
L 442.778071 28.33891 
L 442.778071 28.218803 
L 442.921205 28.218803 
L 442.921205 28.113708 
L 442.921205 28.068668 
L 443.063973 28.068668 
L 443.063973 27.963574 
L 443.063973 27.873493 
L 443.206378 27.873493 
L 443.206378 27.768399 
L 443.206378 27.700838 
L 443.348421 27.700838 
L 443.348421 27.595744 
L 443.348421 27.408076 
L 443.490103 27.408076 
L 443.490103 27.302982 
L 443.490103 27.220408 
L 443.631428 27.220408 
L 443.631428 27.115314 
L 443.631428 26.987699 
L 443.772396 26.987699 
L 443.772396 26.882605 
L 443.772396 26.739977 
L 443.913009 26.739977 
L 443.913009 26.634883 
L 443.913009 26.544802 
L 444.05327 26.544802 
L 444.05327 26.439708 
L 444.05327 26.372148 
L 444.193179 26.372148 
L 444.193179 26.267053 
L 444.193179 26.191986 
L 444.471952 26.094399 
L 444.471952 26.086892 
L 444.471952 25.944264 
L 444.610819 25.944264 
L 444.610819 25.83917 
L 444.610819 25.749089 
L 444.749341 25.749089 
L 444.749341 25.643995 
L 444.749341 25.538901 
L 444.887521 25.538901 
L 444.887521 25.433807 
L 444.887521 25.336219 
L 445.02536 25.336219 
L 445.02536 25.231125 
L 445.02536 25.163564 
L 445.162861 25.163564 
L 445.162861 25.05847 
L 445.162861 25.050963 
L 445.300023 25.050963 
L 445.300023 24.945869 
L 445.300023 24.900829 
L 445.43685 24.900829 
L 445.43685 24.795735 
L 445.43685 24.780721 
L 445.573343 24.780721 
L 445.573343 24.675627 
L 445.573343 24.608067 
L 445.709504 24.608067 
L 445.709504 24.502972 
L 445.709504 24.427905 
L 445.845333 24.427905 
L 445.845333 24.322811 
L 445.845333 24.225223 
L 445.980833 24.225223 
L 445.980833 24.120129 
L 445.980833 24.007528 
L 446.116006 24.007528 
L 446.116006 23.902434 
L 446.116006 23.812353 
L 446.250852 23.812353 
L 446.250852 23.707259 
L 446.250852 23.624685 
L 446.519573 23.527098 
L 446.519573 23.519591 
L 446.519573 23.36195 
L 446.787008 23.256856 
L 446.787008 23.069187 
L 446.920247 23.069187 
L 446.920247 22.964093 
L 446.920247 22.956586 
L 447.053169 22.956586 
L 447.053169 22.851492 
L 447.053169 22.813959 
L 447.318069 22.723878 
L 447.318069 22.708864 
L 447.318069 22.62629 
L 447.45005 22.62629 
L 447.45005 22.521196 
L 447.45005 22.491169 
L 447.58172 22.491169 
L 447.58172 22.386075 
L 447.58172 22.371062 
L 447.844132 22.288488 
L 447.844132 22.265967 
L 447.844132 22.175887 
L 448.105319 22.078299 
L 448.105319 22.070793 
L 448.105319 21.920658 
L 448.235456 21.920658 
L 448.235456 21.815564 
L 448.235456 21.80055 
L 448.36529 21.80055 
L 448.36529 21.695456 
L 448.36529 21.665429 
L 448.624058 21.582855 
L 448.624058 21.560335 
L 448.624058 21.492774 
L 448.752995 21.492774 
L 448.752995 21.38768 
L 448.752995 21.350147 
L 449.009978 21.252559 
L 449.009978 21.245052 
L 449.009978 21.184999 
L 449.265785 21.109931 
L 449.265785 21.079904 
L 449.265785 21.027357 
L 449.520427 20.92977 
L 449.520427 20.922263 
L 449.520427 20.824676 
L 449.773914 20.734595 
L 449.773914 20.719582 
L 449.773914 20.599474 
L 450.152002 20.49438 
L 450.152002 20.389285 
L 450.402648 20.314218 
L 450.402648 20.284191 
L 450.402648 20.194111 
L 450.52755 20.194111 
L 450.52755 20.089016 
L 450.52755 20.066496 
L 450.776521 19.983922 
L 450.776521 19.961402 
L 450.776521 19.908855 
L 451.024387 19.818774 
L 451.024387 19.803761 
L 451.024387 19.788747 
L 451.271159 19.751214 
L 451.271159 19.683653 
L 451.271159 19.653626 
L 451.516847 19.548532 
L 451.516847 19.473465 
L 451.761459 19.398397 
L 451.761459 19.368371 
L 451.761459 19.32333 
L 452.005005 19.225743 
L 452.005005 19.218236 
L 452.005005 19.158182 
L 452.247495 19.105635 
L 452.247495 19.053088 
L 452.247495 19.008048 
L 452.488937 18.9555 
L 452.488937 18.902953 
L 452.488937 18.850406 
L 452.729341 18.812873 
L 452.729341 18.745312 
L 452.729341 18.730299 
L 453.088019 18.632711 
L 453.088019 18.625204 
L 453.088019 18.572657 
L 453.325865 18.482577 
L 453.325865 18.467563 
L 453.325865 18.43003 
L 453.562704 18.377482 
L 453.562704 18.324935 
L 453.562704 18.302415 
L 453.91609 18.204828 
L 453.91609 18.197321 
L 453.91609 18.12976 
L 454.383824 18.032173 
L 454.383824 18.024666 
L 454.383824 17.964612 
L 454.732073 17.874532 
L 454.732073 17.859518 
L 454.732073 17.836998 
L 455.078165 17.731904 
L 455.078165 17.709384 
L 455.422128 17.62681 
L 455.422128 17.604289 
L 455.422128 17.596783 
L 455.650267 17.544236 
L 455.650267 17.491689 
L 455.650267 17.461662 
L 455.877477 17.416621 
L 455.877477 17.356567 
L 455.877477 17.341554 
L 456.216571 17.273993 
L 456.216571 17.23646 
L 456.216571 17.228953 
L 456.55362 17.168899 
L 456.55362 17.123859 
L 456.55362 17.108845 
L 456.888649 17.033778 
L 456.888649 17.003751 
L 456.888649 16.981231 
L 457.442606 16.89115 
L 457.442606 16.876137 
L 457.552742 16.816083 
L 458.100188 16.726002 
L 458.100188 16.710989 
L 458.100188 16.688469 
L 458.534316 16.590881 
L 458.534316 16.583374 
L 458.642324 16.530827 
L 459.179252 16.425733 
L 459.286022 16.358173 
L 459.92239 16.253078 
L 460.027751 16.200531 
L 460.447219 16.125464 
L 460.447219 16.095437 
L 460.551596 16.050397 
L 461.070576 15.952809 
L 461.070576 15.945303 
L 461.173796 15.855222 
L 462.094301 15.750128 
L 462.094301 15.742621 
L 462.599216 15.67506 
L 462.599216 15.637527 
L 462.699655 15.592486 
L 463.496728 15.494899 
L 463.496728 15.487392 
L 463.595567 15.449859 
L 464.864826 15.344764 
L 464.864826 15.337258 
L 466.105901 15.232163 
L 466.200236 15.187123 
L 466.949243 15.089536 
L 466.949243 15.082029 
L 466.949243 15.074522 
L 468.417802 14.969428 
L 468.508318 14.946908 
L 470.025082 14.841814 
L 470.113035 14.8268 
L 471.587433 14.729213 
L 471.587433 14.721706 
L 471.587433 14.714199 
L 473.604872 14.609105 
L 473.687372 14.594092 
L 476.500738 14.488997 
L 476.579075 14.473984 
L 479.328505 14.36889 
L 479.328505 14.361383 
L 488.894631 14.256289 
L 488.894631 14.248782 
L 498.4537 14.143688 
L 498.4537 14.136181 
L 515.125653 14.0461 
L 515.125653 14.038594 
" clip-path="url(#p159dc9d2fb)" style="fill: none; stroke: #227c9d; stroke-width: 1.5; stroke-linecap: square"/>
   </g>
   <g id="line2d_40">
    <path d="M 89.016563 456.507652 
L 535.416562 456.507652 
" clip-path="url(#p159dc9d2fb)" style="fill: none; stroke-dasharray: 7.4,3.2; stroke-dashoffset: 0; stroke: #3d9f95; stroke-width: 2"/>
   </g>
   <g id="line2d_41">
    <path d="M 89.016563 451.906028 
L 535.416562 451.906028 
" clip-path="url(#p159dc9d2fb)" style="fill: none; stroke-dasharray: 7.4,3.2; stroke-dashoffset: 0; stroke: #3d9f95; stroke-width: 2"/>
   </g>
   <g id="line2d_42">
    <path d="M 395.705278 457.558594 
L 395.705278 14.038594 
" clip-path="url(#p159dc9d2fb)" style="fill: none; stroke-dasharray: 7.4,3.2; stroke-dashoffset: 0; stroke: #227c9d; stroke-width: 2"/>
   </g>
   <g id="line2d_43">
    <path d="M 399.721227 457.558594 
L 399.721227 14.038594 
" clip-path="url(#p159dc9d2fb)" style="fill: none; stroke-dasharray: 7.4,3.2; stroke-dashoffset: 0; stroke: #227c9d; stroke-width: 2"/>
   </g>
   <g id="patch_3">
    <path d="M 89.016563 457.558594 
L 89.016563 14.038594 
" style="fill: none; stroke: #000000; stroke-linejoin: miter; stroke-linecap: square"/>
   </g>
   <g id="patch_4">
    <path d="M 89.016563 457.558594 
L 535.416562 457.558594 
" style="fill: none; stroke: #000000; stroke-linejoin: miter; stroke-linecap: square"/>
   </g>
   <g id="text_13">
    <!-- cCREs with 0 barcodes: 0.24% -->
    <g style="fill: #3d9f95" transform="translate(466.637752 447.637252) scale(0.1 -0.1)">
     <defs>
      <path id="DejaVuSans-63" d="M 3122 3366 
L 3122 2828 
Q 2878 2963 2633 3030 
Q 2388 3097 2138 3097 
Q 1578 3097 1268 2742 
Q 959 2388 959 1747 
Q 959 1106 1268 751 
Q 1578 397 2138 397 
Q 2388 397 2633 464 
Q 2878 531 3122 666 
L 3122 134 
Q 2881 22 2623 -34 
Q 2366 -91 2075 -91 
Q 1284 -91 818 406 
Q 353 903 353 1747 
Q 353 2603 823 3093 
Q 1294 3584 2113 3584 
Q 2378 3584 2631 3529 
Q 2884 3475 3122 3366 
z
" transform="scale(0.015625)"/>
      <path id="DejaVuSans-43" d="M 4122 4306 
L 4122 3641 
Q 3803 3938 3442 4084 
Q 3081 4231 2675 4231 
Q 1875 4231 1450 3742 
Q 1025 3253 1025 2328 
Q 1025 1406 1450 917 
Q 1875 428 2675 428 
Q 3081 428 3442 575 
Q 3803 722 4122 1019 
L 4122 359 
Q 3791 134 3420 21 
Q 3050 -91 2638 -91 
Q 1578 -91 968 557 
Q 359 1206 359 2328 
Q 359 3453 968 4101 
Q 1578 4750 2638 4750 
Q 3056 4750 3426 4639 
Q 3797 4528 4122 4306 
z
" transform="scale(0.015625)"/>
      <path id="DejaVuSans-52" d="M 2841 2188 
Q 3044 2119 3236 1894 
Q 3428 1669 3622 1275 
L 4263 0 
L 3584 0 
L 2988 1197 
Q 2756 1666 2539 1819 
Q 2322 1972 1947 1972 
L 1259 1972 
L 1259 0 
L 628 0 
L 628 4666 
L 2053 4666 
Q 2853 4666 3247 4331 
Q 3641 3997 3641 3322 
Q 3641 2881 3436 2590 
Q 3231 2300 2841 2188 
z
M 1259 4147 
L 1259 2491 
L 2053 2491 
Q 2509 2491 2742 2702 
Q 2975 2913 2975 3322 
Q 2975 3731 2742 3939 
Q 2509 4147 2053 4147 
L 1259 4147 
z
" transform="scale(0.015625)"/>
      <path id="DejaVuSans-45" d="M 628 4666 
L 3578 4666 
L 3578 4134 
L 1259 4134 
L 1259 2753 
L 3481 2753 
L 3481 2222 
L 1259 2222 
L 1259 531 
L 3634 531 
L 3634 0 
L 628 0 
L 628 4666 
z
" transform="scale(0.015625)"/>
      <path id="DejaVuSans-73" d="M 2834 3397 
L 2834 2853 
Q 2591 2978 2328 3040 
Q 2066 3103 1784 3103 
Q 1356 3103 1142 2972 
Q 928 2841 928 2578 
Q 928 2378 1081 2264 
Q 1234 2150 1697 2047 
L 1894 2003 
Q 2506 1872 2764 1633 
Q 3022 1394 3022 966 
Q 3022 478 2636 193 
Q 2250 -91 1575 -91 
Q 1294 -91 989 -36 
Q 684 19 347 128 
L 347 722 
Q 666 556 975 473 
Q 1284 391 1588 391 
Q 1994 391 2212 530 
Q 2431 669 2431 922 
Q 2431 1156 2273 1281 
Q 2116 1406 1581 1522 
L 1381 1569 
Q 847 1681 609 1914 
Q 372 2147 372 2553 
Q 372 3047 722 3315 
Q 1072 3584 1716 3584 
Q 2034 3584 2315 3537 
Q 2597 3491 2834 3397 
z
" transform="scale(0.015625)"/>
      <path id="DejaVuSans-20" transform="scale(0.015625)"/>
      <path id="DejaVuSans-77" d="M 269 3500 
L 844 3500 
L 1563 769 
L 2278 3500 
L 2956 3500 
L 3675 769 
L 4391 3500 
L 4966 3500 
L 4050 0 
L 3372 0 
L 2619 2869 
L 1863 0 
L 1184 0 
L 269 3500 
z
" transform="scale(0.015625)"/>
      <path id="DejaVuSans-69" d="M 603 3500 
L 1178 3500 
L 1178 0 
L 603 0 
L 603 3500 
z
M 603 4863 
L 1178 4863 
L 1178 4134 
L 603 4134 
L 603 4863 
z
" transform="scale(0.015625)"/>
      <path id="DejaVuSans-74" d="M 1172 4494 
L 1172 3500 
L 2356 3500 
L 2356 3053 
L 1172 3053 
L 1172 1153 
Q 1172 725 1289 603 
Q 1406 481 1766 481 
L 2356 481 
L 2356 0 
L 1766 0 
Q 1100 0 847 248 
Q 594 497 594 1153 
L 594 3053 
L 172 3053 
L 172 3500 
L 594 3500 
L 594 4494 
L 1172 4494 
z
" transform="scale(0.015625)"/>
      <path id="DejaVuSans-68" d="M 3513 2113 
L 3513 0 
L 2938 0 
L 2938 2094 
Q 2938 2591 2744 2837 
Q 2550 3084 2163 3084 
Q 1697 3084 1428 2787 
Q 1159 2491 1159 1978 
L 1159 0 
L 581 0 
L 581 4863 
L 1159 4863 
L 1159 2956 
Q 1366 3272 1645 3428 
Q 1925 3584 2291 3584 
Q 2894 3584 3203 3211 
Q 3513 2838 3513 2113 
z
" transform="scale(0.015625)"/>
      <path id="DejaVuSans-62" d="M 3116 1747 
Q 3116 2381 2855 2742 
Q 2594 3103 2138 3103 
Q 1681 3103 1420 2742 
Q 1159 2381 1159 1747 
Q 1159 1113 1420 752 
Q 1681 391 2138 391 
Q 2594 391 2855 752 
Q 3116 1113 3116 1747 
z
M 1159 2969 
Q 1341 3281 1617 3432 
Q 1894 3584 2278 3584 
Q 2916 3584 3314 3078 
Q 3713 2572 3713 1747 
Q 3713 922 3314 415 
Q 2916 -91 2278 -91 
Q 1894 -91 1617 61 
Q 1341 213 1159 525 
L 1159 0 
L 581 0 
L 581 4863 
L 1159 4863 
L 1159 2969 
z
" transform="scale(0.015625)"/>
      <path id="DejaVuSans-61" d="M 2194 1759 
Q 1497 1759 1228 1600 
Q 959 1441 959 1056 
Q 959 750 1161 570 
Q 1363 391 1709 391 
Q 2188 391 2477 730 
Q 2766 1069 2766 1631 
L 2766 1759 
L 2194 1759 
z
M 3341 1997 
L 3341 0 
L 2766 0 
L 2766 531 
Q 2569 213 2275 61 
Q 1981 -91 1556 -91 
Q 1019 -91 701 211 
Q 384 513 384 1019 
Q 384 1609 779 1909 
Q 1175 2209 1959 2209 
L 2766 2209 
L 2766 2266 
Q 2766 2663 2505 2880 
Q 2244 3097 1772 3097 
Q 1472 3097 1187 3025 
Q 903 2953 641 2809 
L 641 3341 
Q 956 3463 1253 3523 
Q 1550 3584 1831 3584 
Q 2591 3584 2966 3190 
Q 3341 2797 3341 1997 
z
" transform="scale(0.015625)"/>
      <path id="DejaVuSans-72" d="M 2631 2963 
Q 2534 3019 2420 3045 
Q 2306 3072 2169 3072 
Q 1681 3072 1420 2755 
Q 1159 2438 1159 1844 
L 1159 0 
L 581 0 
L 581 3500 
L 1159 3500 
L 1159 2956 
Q 1341 3275 1631 3429 
Q 1922 3584 2338 3584 
Q 2397 3584 2469 3576 
Q 2541 3569 2628 3553 
L 2631 2963 
z
" transform="scale(0.015625)"/>
      <path id="DejaVuSans-6f" d="M 1959 3097 
Q 1497 3097 1228 2736 
Q 959 2375 959 1747 
Q 959 1119 1226 758 
Q 1494 397 1959 397 
Q 2419 397 2687 759 
Q 2956 1122 2956 1747 
Q 2956 2369 2687 2733 
Q 2419 3097 1959 3097 
z
M 1959 3584 
Q 2709 3584 3137 3096 
Q 3566 2609 3566 1747 
Q 3566 888 3137 398 
Q 2709 -91 1959 -91 
Q 1206 -91 779 398 
Q 353 888 353 1747 
Q 353 2609 779 3096 
Q 1206 3584 1959 3584 
z
" transform="scale(0.015625)"/>
      <path id="DejaVuSans-64" d="M 2906 2969 
L 2906 4863 
L 3481 4863 
L 3481 0 
L 2906 0 
L 2906 525 
Q 2725 213 2448 61 
Q 2172 -91 1784 -91 
Q 1150 -91 751 415 
Q 353 922 353 1747 
Q 353 2572 751 3078 
Q 1150 3584 1784 3584 
Q 2172 3584 2448 3432 
Q 2725 3281 2906 2969 
z
M 947 1747 
Q 947 1113 1208 752 
Q 1469 391 1925 391 
Q 2381 391 2643 752 
Q 2906 1113 2906 1747 
Q 2906 2381 2643 2742 
Q 2381 3103 1925 3103 
Q 1469 3103 1208 2742 
Q 947 2381 947 1747 
z
" transform="scale(0.015625)"/>
      <path id="DejaVuSans-65" d="M 3597 1894 
L 3597 1613 
L 953 1613 
Q 991 1019 1311 708 
Q 1631 397 2203 397 
Q 2534 397 2845 478 
Q 3156 559 3463 722 
L 3463 178 
Q 3153 47 2828 -22 
Q 2503 -91 2169 -91 
Q 1331 -91 842 396 
Q 353 884 353 1716 
Q 353 2575 817 3079 
Q 1281 3584 2069 3584 
Q 2775 3584 3186 3129 
Q 3597 2675 3597 1894 
z
M 3022 2063 
Q 3016 2534 2758 2815 
Q 2500 3097 2075 3097 
Q 1594 3097 1305 2825 
Q 1016 2553 972 2059 
L 3022 2063 
z
" transform="scale(0.015625)"/>
      <path id="DejaVuSans-3a" d="M 750 794 
L 1409 794 
L 1409 0 
L 750 0 
L 750 794 
z
M 750 3309 
L 1409 3309 
L 1409 2516 
L 750 2516 
L 750 3309 
z
" transform="scale(0.015625)"/>
      <path id="DejaVuSans-2e" d="M 684 794 
L 1344 794 
L 1344 0 
L 684 0 
L 684 794 
z
" transform="scale(0.015625)"/>
     </defs>
     <use xlink:href="#DejaVuSans-63"/>
     <use xlink:href="#DejaVuSans-43" transform="translate(54.980469 0)"/>
     <use xlink:href="#DejaVuSans-52" transform="translate(124.804688 0)"/>
     <use xlink:href="#DejaVuSans-45" transform="translate(194.287109 0)"/>
     <use xlink:href="#DejaVuSans-73" transform="translate(257.470703 0)"/>
     <use xlink:href="#DejaVuSans-20" transform="translate(309.570312 0)"/>
     <use xlink:href="#DejaVuSans-77" transform="translate(341.357422 0)"/>
     <use xlink:href="#DejaVuSans-69" transform="translate(423.144531 0)"/>
     <use xlink:href="#DejaVuSans-74" transform="translate(450.927734 0)"/>
     <use xlink:href="#DejaVuSans-68" transform="translate(490.136719 0)"/>
     <use xlink:href="#DejaVuSans-20" transform="translate(553.515625 0)"/>
     <use xlink:href="#DejaVuSans-30" transform="translate(585.302734 0)"/>
     <use xlink:href="#DejaVuSans-20" transform="translate(648.925781 0)"/>
     <use xlink:href="#DejaVuSans-62" transform="translate(680.712891 0)"/>
     <use xlink:href="#DejaVuSans-61" transform="translate(744.189453 0)"/>
     <use xlink:href="#DejaVuSans-72" transform="translate(805.46875 0)"/>
     <use xlink:href="#DejaVuSans-63" transform="translate(844.332031 0)"/>
     <use xlink:href="#DejaVuSans-6f" transform="translate(899.3125 0)"/>
     <use xlink:href="#DejaVuSans-64" transform="translate(960.494141 0)"/>
     <use xlink:href="#DejaVuSans-65" transform="translate(1023.970703 0)"/>
     <use xlink:href="#DejaVuSans-73" transform="translate(1085.494141 0)"/>
     <use xlink:href="#DejaVuSans-3a" transform="translate(1137.59375 0)"/>
     <use xlink:href="#DejaVuSans-20" transform="translate(1171.285156 0)"/>
     <use xlink:href="#DejaVuSans-30" transform="translate(1203.072266 0)"/>
     <use xlink:href="#DejaVuSans-2e" transform="translate(1266.695312 0)"/>
     <use xlink:href="#DejaVuSans-32" transform="translate(1298.482422 0)"/>
     <use xlink:href="#DejaVuSans-34" transform="translate(1362.105469 0)"/>
     <use xlink:href="#DejaVuSans-25" transform="translate(1425.728516 0)"/>
    </g>
   </g>
   <g id="text_14">
    <!-- cCREs with fewer than 10 barcodes: 1.27% -->
    <g style="fill: #3d9f95" transform="translate(466.637752 429.730028) scale(0.1 -0.1)">
     <defs>
      <path id="DejaVuSans-66" d="M 2375 4863 
L 2375 4384 
L 1825 4384 
Q 1516 4384 1395 4259 
Q 1275 4134 1275 3809 
L 1275 3500 
L 2222 3500 
L 2222 3053 
L 1275 3053 
L 1275 0 
L 697 0 
L 697 3053 
L 147 3053 
L 147 3500 
L 697 3500 
L 697 3744 
Q 697 4328 969 4595 
Q 1241 4863 1831 4863 
L 2375 4863 
z
" transform="scale(0.015625)"/>
      <path id="DejaVuSans-6e" d="M 3513 2113 
L 3513 0 
L 2938 0 
L 2938 2094 
Q 2938 2591 2744 2837 
Q 2550 3084 2163 3084 
Q 1697 3084 1428 2787 
Q 1159 2491 1159 1978 
L 1159 0 
L 581 0 
L 581 3500 
L 1159 3500 
L 1159 2956 
Q 1366 3272 1645 3428 
Q 1925 3584 2291 3584 
Q 2894 3584 3203 3211 
Q 3513 2838 3513 2113 
z
" transform="scale(0.015625)"/>
      <path id="DejaVuSans-37" d="M 525 4666 
L 3525 4666 
L 3525 4397 
L 1831 0 
L 1172 0 
L 2766 4134 
L 525 4134 
L 525 4666 
z
" transform="scale(0.015625)"/>
     </defs>
     <use xlink:href="#DejaVuSans-63"/>
     <use xlink:href="#DejaVuSans-43" transform="translate(54.980469 0)"/>
     <use xlink:href="#DejaVuSans-52" transform="translate(124.804688 0)"/>
     <use xlink:href="#DejaVuSans-45" transform="translate(194.287109 0)"/>
     <use xlink:href="#DejaVuSans-73" transform="translate(257.470703 0)"/>
     <use xlink:href="#DejaVuSans-20" transform="translate(309.570312 0)"/>
     <use xlink:href="#DejaVuSans-77" transform="translate(341.357422 0)"/>
     <use xlink:href="#DejaVuSans-69" transform="translate(423.144531 0)"/>
     <use xlink:href="#DejaVuSans-74" transform="translate(450.927734 0)"/>
     <use xlink:href="#DejaVuSans-68" transform="translate(490.136719 0)"/>
     <use xlink:href="#DejaVuSans-20" transform="translate(553.515625 0)"/>
     <use xlink:href="#DejaVuSans-66" transform="translate(585.302734 0)"/>
     <use xlink:href="#DejaVuSans-65" transform="translate(620.507812 0)"/>
     <use xlink:href="#DejaVuSans-77" transform="translate(682.03125 0)"/>
     <use xlink:href="#DejaVuSans-65" transform="translate(763.818359 0)"/>
     <use xlink:href="#DejaVuSans-72" transform="translate(825.341797 0)"/>
     <use xlink:href="#DejaVuSans-20" transform="translate(866.455078 0)"/>
     <use xlink:href="#DejaVuSans-74" transform="translate(898.242188 0)"/>
     <use xlink:href="#DejaVuSans-68" transform="translate(937.451172 0)"/>
     <use xlink:href="#DejaVuSans-61" transform="translate(1000.830078 0)"/>
     <use xlink:href="#DejaVuSans-6e" transform="translate(1062.109375 0)"/>
     <use xlink:href="#DejaVuSans-20" transform="translate(1125.488281 0)"/>
     <use xlink:href="#DejaVuSans-31" transform="translate(1157.275391 0)"/>
     <use xlink:href="#DejaVuSans-30" transform="translate(1220.898438 0)"/>
     <use xlink:href="#DejaVuSans-20" transform="translate(1284.521484 0)"/>
     <use xlink:href="#DejaVuSans-62" transform="translate(1316.308594 0)"/>
     <use xlink:href="#DejaVuSans-61" transform="translate(1379.785156 0)"/>
     <use xlink:href="#DejaVuSans-72" transform="translate(1441.064453 0)"/>
     <use xlink:href="#DejaVuSans-63" transform="translate(1479.927734 0)"/>
     <use xlink:href="#DejaVuSans-6f" transform="translate(1534.908203 0)"/>
     <use xlink:href="#DejaVuSans-64" transform="translate(1596.089844 0)"/>
     <use xlink:href="#DejaVuSans-65" transform="translate(1659.566406 0)"/>
     <use xlink:href="#DejaVuSans-73" transform="translate(1721.089844 0)"/>
     <use xlink:href="#DejaVuSans-3a" transform="translate(1773.189453 0)"/>
     <use xlink:href="#DejaVuSans-20" transform="translate(1806.880859 0)"/>
     <use xlink:href="#DejaVuSans-31" transform="translate(1838.667969 0)"/>
     <use xlink:href="#DejaVuSans-2e" transform="translate(1902.291016 0)"/>
     <use xlink:href="#DejaVuSans-32" transform="translate(1934.078125 0)"/>
     <use xlink:href="#DejaVuSans-37" transform="translate(1997.701172 0)"/>
     <use xlink:href="#DejaVuSans-25" transform="translate(2061.324219 0)"/>
    </g>
   </g>
   <g id="text_15">
    <!-- Median number of barcodes: 168 -->
    <g style="fill: #227c9d" transform="translate(434.447906 213.622594) scale(0.1 -0.1)">
     <defs>
      <path id="DejaVuSans-4d" d="M 628 4666 
L 1569 4666 
L 2759 1491 
L 3956 4666 
L 4897 4666 
L 4897 0 
L 4281 0 
L 4281 4097 
L 3078 897 
L 2444 897 
L 1241 4097 
L 1241 0 
L 628 0 
L 628 4666 
z
" transform="scale(0.015625)"/>
      <path id="DejaVuSans-75" d="M 544 1381 
L 544 3500 
L 1119 3500 
L 1119 1403 
Q 1119 906 1312 657 
Q 1506 409 1894 409 
Q 2359 409 2629 706 
Q 2900 1003 2900 1516 
L 2900 3500 
L 3475 3500 
L 3475 0 
L 2900 0 
L 2900 538 
Q 2691 219 2414 64 
Q 2138 -91 1772 -91 
Q 1169 -91 856 284 
Q 544 659 544 1381 
z
M 1991 3584 
L 1991 3584 
z
" transform="scale(0.015625)"/>
      <path id="DejaVuSans-6d" d="M 3328 2828 
Q 3544 3216 3844 3400 
Q 4144 3584 4550 3584 
Q 5097 3584 5394 3201 
Q 5691 2819 5691 2113 
L 5691 0 
L 5113 0 
L 5113 2094 
Q 5113 2597 4934 2840 
Q 4756 3084 4391 3084 
Q 3944 3084 3684 2787 
Q 3425 2491 3425 1978 
L 3425 0 
L 2847 0 
L 2847 2094 
Q 2847 2600 2669 2842 
Q 2491 3084 2119 3084 
Q 1678 3084 1418 2786 
Q 1159 2488 1159 1978 
L 1159 0 
L 581 0 
L 581 3500 
L 1159 3500 
L 1159 2956 
Q 1356 3278 1631 3431 
Q 1906 3584 2284 3584 
Q 2666 3584 2933 3390 
Q 3200 3197 3328 2828 
z
" transform="scale(0.015625)"/>
     </defs>
     <use xlink:href="#DejaVuSans-4d"/>
     <use xlink:href="#DejaVuSans-65" transform="translate(86.279297 0)"/>
     <use xlink:href="#DejaVuSans-64" transform="translate(147.802734 0)"/>
     <use xlink:href="#DejaVuSans-69" transform="translate(211.279297 0)"/>
     <use xlink:href="#DejaVuSans-61" transform="translate(239.0625 0)"/>
     <use xlink:href="#DejaVuSans-6e" transform="translate(300.341797 0)"/>
     <use xlink:href="#DejaVuSans-20" transform="translate(363.720703 0)"/>
     <use xlink:href="#DejaVuSans-6e" transform="translate(395.507812 0)"/>
     <use xlink:href="#DejaVuSans-75" transform="translate(458.886719 0)"/>
     <use xlink:href="#DejaVuSans-6d" transform="translate(522.265625 0)"/>
     <use xlink:href="#DejaVuSans-62" transform="translate(619.677734 0)"/>
     <use xlink:href="#DejaVuSans-65" transform="translate(683.154297 0)"/>
     <use xlink:href="#DejaVuSans-72" transform="translate(744.677734 0)"/>
     <use xlink:href="#DejaVuSans-20" transform="translate(785.791016 0)"/>
     <use xlink:href="#DejaVuSans-6f" transform="translate(817.578125 0)"/>
     <use xlink:href="#DejaVuSans-66" transform="translate(878.759766 0)"/>
     <use xlink:href="#DejaVuSans-20" transform="translate(913.964844 0)"/>
     <use xlink:href="#DejaVuSans-62" transform="translate(945.751953 0)"/>
     <use xlink:href="#DejaVuSans-61" transform="translate(1009.228516 0)"/>
     <use xlink:href="#DejaVuSans-72" transform="translate(1070.507812 0)"/>
     <use xlink:href="#DejaVuSans-63" transform="translate(1109.371094 0)"/>
     <use xlink:href="#DejaVuSans-6f" transform="translate(1164.351562 0)"/>
     <use xlink:href="#DejaVuSans-64" transform="translate(1225.533203 0)"/>
     <use xlink:href="#DejaVuSans-65" transform="translate(1289.009766 0)"/>
     <use xlink:href="#DejaVuSans-73" transform="translate(1350.533203 0)"/>
     <use xlink:href="#DejaVuSans-3a" transform="translate(1402.632812 0)"/>
     <use xlink:href="#DejaVuSans-20" transform="translate(1436.324219 0)"/>
     <use xlink:href="#DejaVuSans-31" transform="translate(1468.111328 0)"/>
     <use xlink:href="#DejaVuSans-36" transform="translate(1531.734375 0)"/>
     <use xlink:href="#DejaVuSans-38" transform="translate(1595.357422 0)"/>
    </g>
   </g>
   <g id="text_16">
    <!-- Average number of barcodes: 181 -->
    <g style="fill: #227c9d" transform="translate(438.463856 169.270594) scale(0.1 -0.1)">
     <defs>
      <path id="DejaVuSans-41" d="M 2188 4044 
L 1331 1722 
L 3047 1722 
L 2188 4044 
z
M 1831 4666 
L 2547 4666 
L 4325 0 
L 3669 0 
L 3244 1197 
L 1141 1197 
L 716 0 
L 50 0 
L 1831 4666 
z
" transform="scale(0.015625)"/>
      <path id="DejaVuSans-76" d="M 191 3500 
L 800 3500 
L 1894 563 
L 2988 3500 
L 3597 3500 
L 2284 0 
L 1503 0 
L 191 3500 
z
" transform="scale(0.015625)"/>
      <path id="DejaVuSans-67" d="M 2906 1791 
Q 2906 2416 2648 2759 
Q 2391 3103 1925 3103 
Q 1463 3103 1205 2759 
Q 947 2416 947 1791 
Q 947 1169 1205 825 
Q 1463 481 1925 481 
Q 2391 481 2648 825 
Q 2906 1169 2906 1791 
z
M 3481 434 
Q 3481 -459 3084 -895 
Q 2688 -1331 1869 -1331 
Q 1566 -1331 1297 -1286 
Q 1028 -1241 775 -1147 
L 775 -588 
Q 1028 -725 1275 -790 
Q 1522 -856 1778 -856 
Q 2344 -856 2625 -561 
Q 2906 -266 2906 331 
L 2906 616 
Q 2728 306 2450 153 
Q 2172 0 1784 0 
Q 1141 0 747 490 
Q 353 981 353 1791 
Q 353 2603 747 3093 
Q 1141 3584 1784 3584 
Q 2172 3584 2450 3431 
Q 2728 3278 2906 2969 
L 2906 3500 
L 3481 3500 
L 3481 434 
z
" transform="scale(0.015625)"/>
     </defs>
     <use xlink:href="#DejaVuSans-41"/>
     <use xlink:href="#DejaVuSans-76" transform="translate(62.533203 0)"/>
     <use xlink:href="#DejaVuSans-65" transform="translate(121.712891 0)"/>
     <use xlink:href="#DejaVuSans-72" transform="translate(183.236328 0)"/>
     <use xlink:href="#DejaVuSans-61" transform="translate(224.349609 0)"/>
     <use xlink:href="#DejaVuSans-67" transform="translate(285.628906 0)"/>
     <use xlink:href="#DejaVuSans-65" transform="translate(349.105469 0)"/>
     <use xlink:href="#DejaVuSans-20" transform="translate(410.628906 0)"/>
     <use xlink:href="#DejaVuSans-6e" transform="translate(442.416016 0)"/>
     <use xlink:href="#DejaVuSans-75" transform="translate(505.794922 0)"/>
     <use xlink:href="#DejaVuSans-6d" transform="translate(569.173828 0)"/>
     <use xlink:href="#DejaVuSans-62" transform="translate(666.585938 0)"/>
     <use xlink:href="#DejaVuSans-65" transform="translate(730.0625 0)"/>
     <use xlink:href="#DejaVuSans-72" transform="translate(791.585938 0)"/>
     <use xlink:href="#DejaVuSans-20" transform="translate(832.699219 0)"/>
     <use xlink:href="#DejaVuSans-6f" transform="translate(864.486328 0)"/>
     <use xlink:href="#DejaVuSans-66" transform="translate(925.667969 0)"/>
     <use xlink:href="#DejaVuSans-20" transform="translate(960.873047 0)"/>
     <use xlink:href="#DejaVuSans-62" transform="translate(992.660156 0)"/>
     <use xlink:href="#DejaVuSans-61" transform="translate(1056.136719 0)"/>
     <use xlink:href="#DejaVuSans-72" transform="translate(1117.416016 0)"/>
     <use xlink:href="#DejaVuSans-63" transform="translate(1156.279297 0)"/>
     <use xlink:href="#DejaVuSans-6f" transform="translate(1211.259766 0)"/>
     <use xlink:href="#DejaVuSans-64" transform="translate(1272.441406 0)"/>
     <use xlink:href="#DejaVuSans-65" transform="translate(1335.917969 0)"/>
     <use xlink:href="#DejaVuSans-73" transform="translate(1397.441406 0)"/>
     <use xlink:href="#DejaVuSans-3a" transform="translate(1449.541016 0)"/>
     <use xlink:href="#DejaVuSans-20" transform="translate(1483.232422 0)"/>
     <use xlink:href="#DejaVuSans-31" transform="translate(1515.019531 0)"/>
     <use xlink:href="#DejaVuSans-38" transform="translate(1578.642578 0)"/>
     <use xlink:href="#DejaVuSans-31" transform="translate(1642.265625 0)"/>
    </g>
   </g>
  </g>
 </g>
 <defs>
  <clipPath id="p159dc9d2fb">
   <rect x="89.016563" y="14.038594" width="446.4" height="443.52"/>
  </clipPath>
 </defs>
</svg>
