<?xml version="1.0" encoding="utf-8" standalone="no"?>
<!DOCTYPE svg PUBLIC "-//W3C//DTD SVG 1.1//EN"
  "http://www.w3.org/Graphics/SVG/1.1/DTD/svg11.dtd">
<svg xmlns:xlink="http://www.w3.org/1999/xlink" width="555.565082pt" height="531.727507pt" viewBox="0 0 555.565082 531.727507" xmlns="http://www.w3.org/2000/svg" version="1.1">
 <metadata>
  <rdf:RDF xmlns:dc="http://purl.org/dc/elements/1.1/" xmlns:cc="http://creativecommons.org/ns#" xmlns:rdf="http://www.w3.org/1999/02/22-rdf-syntax-ns#">
   <cc:Work>
    <dc:type rdf:resource="http://purl.org/dc/dcmitype/StillImage"/>
    <dc:date>2026-01-06T15:38:44.832137</dc:date>
    <dc:format>image/svg+xml</dc:format>
    <dc:creator>
     <cc:Agent>
      <dc:title>Matplotlib v3.10.6, https://matplotlib.org/</dc:title>
     </cc:Agent>
    </dc:creator>
   </cc:Work>
  </rdf:RDF>
 </metadata>
 <defs>
  <style type="text/css">*{stroke-linejoin: round; stroke-linecap: butt}</style>
 </defs>
 <g id="figure_1">
  <g id="patch_1">
   <path d="M 0 531.727507 
L 555.565082 531.727507 
L 555.565082 0 
L 0 0 
L 0 531.727507 
z
" style="fill: none"/>
  </g>
  <g id="axes_1">
   <g id="patch_2">
    <path d="M 94.81875 215.638594 
L 541.21875 215.638594 
L 541.21875 14.038594 
L 94.81875 14.038594 
L 94.81875 215.638594 
z
" style="fill: none"/>
   </g>
   <g id="matplotlib.axis_1">
    <g id="xtick_1">
     <g id="line2d_1">
      <defs>
       <path id="m877969aea1" d="M 0 0 
L 0 3.5 
" style="stroke: #000000; stroke-width: 0.8"/>
      </defs>
      <g>
       <use xlink:href="#m877969aea1" x="105.97875" y="215.638594" style="stroke: #000000; stroke-width: 0.8"/>
      </g>
     </g>
    </g>
    <g id="xtick_2">
     <g id="line2d_2">
      <g>
       <use xlink:href="#m877969aea1" x="530.05875" y="215.638594" style="stroke: #000000; stroke-width: 0.8"/>
      </g>
     </g>
    </g>
   </g>
   <g id="matplotlib.axis_2">
    <g id="ytick_1">
     <g id="line2d_3">
      <defs>
       <path id="m6ca16d269f" d="M 0 0 
L -3.5 0 
" style="stroke: #000000; stroke-width: 0.8"/>
      </defs>
      <g>
       <use xlink:href="#m6ca16d269f" x="94.81875" y="215.638594" style="stroke: #000000; stroke-width: 0.8"/>
      </g>
     </g>
     <g id="text_1">
      <!-- 0 -->
      <g transform="translate(76.36625 222.477187) scale(0.18 -0.18)">
       <defs>
        <path id="DejaVuSans-30" d="M 2034 4250 
Q 1547 4250 1301 3770 
Q 1056 3291 1056 2328 
Q 1056 1369 1301 889 
Q 1547 409 2034 409 
Q 2525 409 2770 889 
Q 3016 1369 3016 2328 
Q 3016 3291 2770 3770 
Q 2525 4250 2034 4250 
z
M 2034 4750 
Q 2819 4750 3233 4129 
Q 3647 3509 3647 2328 
Q 3647 1150 3233 529 
Q 2819 -91 2034 -91 
Q 1250 -91 836 529 
Q 422 1150 422 2328 
Q 422 3509 836 4129 
Q 1250 4750 2034 4750 
z
" transform="scale(0.015625)"/>
       </defs>
       <use xlink:href="#DejaVuSans-30"/>
      </g>
     </g>
    </g>
    <g id="ytick_2">
     <g id="line2d_4">
      <g>
       <use xlink:href="#m6ca16d269f" x="94.81875" y="14.038594" style="stroke: #000000; stroke-width: 0.8"/>
      </g>
     </g>
     <g id="text_2">
      <!-- 2000 -->
      <g transform="translate(42.00875 20.877187) scale(0.18 -0.18)">
       <defs>
        <path id="DejaVuSans-32" d="M 1228 531 
L 3431 531 
L 3431 0 
L 469 0 
L 469 531 
Q 828 903 1448 1529 
Q 2069 2156 2228 2338 
Q 2531 2678 2651 2914 
Q 2772 3150 2772 3378 
Q 2772 3750 2511 3984 
Q 2250 4219 1831 4219 
Q 1534 4219 1204 4116 
Q 875 4013 500 3803 
L 500 4441 
Q 881 4594 1212 4672 
Q 1544 4750 1819 4750 
Q 2544 4750 2975 4387 
Q 3406 4025 3406 3419 
Q 3406 3131 3298 2873 
Q 3191 2616 2906 2266 
Q 2828 2175 2409 1742 
Q 1991 1309 1228 531 
z
" transform="scale(0.015625)"/>
       </defs>
       <use xlink:href="#DejaVuSans-32"/>
       <use xlink:href="#DejaVuSans-30" transform="translate(63.623047 0)"/>
       <use xlink:href="#DejaVuSans-30" transform="translate(127.246094 0)"/>
       <use xlink:href="#DejaVuSans-30" transform="translate(190.869141 0)"/>
      </g>
     </g>
    </g>
    <g id="text_3">
     <!-- DNA reads -->
     <g transform="translate(33.849375 174.301094) rotate(-90) scale(0.2 -0.2)">
      <defs>
       <path id="DejaVuSans-Bold-44" d="M 1791 3756 
L 1791 909 
L 2222 909 
Q 2959 909 3348 1275 
Q 3738 1641 3738 2338 
Q 3738 3031 3350 3393 
Q 2963 3756 2222 3756 
L 1791 3756 
z
M 588 4666 
L 1856 4666 
Q 2919 4666 3439 4514 
Q 3959 4363 4331 4000 
Q 4659 3684 4818 3271 
Q 4978 2859 4978 2338 
Q 4978 1809 4818 1395 
Q 4659 981 4331 666 
Q 3956 303 3431 151 
Q 2906 0 1856 0 
L 588 0 
L 588 4666 
z
" transform="scale(0.015625)"/>
       <path id="DejaVuSans-Bold-4e" d="M 588 4666 
L 1931 4666 
L 3628 1466 
L 3628 4666 
L 4769 4666 
L 4769 0 
L 3425 0 
L 1728 3200 
L 1728 0 
L 588 0 
L 588 4666 
z
" transform="scale(0.015625)"/>
       <path id="DejaVuSans-Bold-41" d="M 3419 850 
L 1538 850 
L 1241 0 
L 31 0 
L 1759 4666 
L 3194 4666 
L 4922 0 
L 3713 0 
L 3419 850 
z
M 1838 1716 
L 3116 1716 
L 2478 3572 
L 1838 1716 
z
" transform="scale(0.015625)"/>
       <path id="DejaVuSans-Bold-20" transform="scale(0.015625)"/>
       <path id="DejaVuSans-Bold-72" d="M 3138 2547 
Q 2991 2616 2845 2648 
Q 2700 2681 2553 2681 
Q 2122 2681 1889 2404 
Q 1656 2128 1656 1613 
L 1656 0 
L 538 0 
L 538 3500 
L 1656 3500 
L 1656 2925 
Q 1872 3269 2151 3426 
Q 2431 3584 2822 3584 
Q 2878 3584 2943 3579 
Q 3009 3575 3134 3559 
L 3138 2547 
z
" transform="scale(0.015625)"/>
       <path id="DejaVuSans-Bold-65" d="M 4031 1759 
L 4031 1441 
L 1416 1441 
Q 1456 1047 1700 850 
Q 1944 653 2381 653 
Q 2734 653 3104 758 
Q 3475 863 3866 1075 
L 3866 213 
Q 3469 63 3072 -14 
Q 2675 -91 2278 -91 
Q 1328 -91 801 392 
Q 275 875 275 1747 
Q 275 2603 792 3093 
Q 1309 3584 2216 3584 
Q 3041 3584 3536 3087 
Q 4031 2591 4031 1759 
z
M 2881 2131 
Q 2881 2450 2695 2645 
Q 2509 2841 2209 2841 
Q 1884 2841 1681 2658 
Q 1478 2475 1428 2131 
L 2881 2131 
z
" transform="scale(0.015625)"/>
       <path id="DejaVuSans-Bold-61" d="M 2106 1575 
Q 1756 1575 1579 1456 
Q 1403 1338 1403 1106 
Q 1403 894 1545 773 
Q 1688 653 1941 653 
Q 2256 653 2472 879 
Q 2688 1106 2688 1447 
L 2688 1575 
L 2106 1575 
z
M 3816 1997 
L 3816 0 
L 2688 0 
L 2688 519 
Q 2463 200 2181 54 
Q 1900 -91 1497 -91 
Q 953 -91 614 226 
Q 275 544 275 1050 
Q 275 1666 698 1953 
Q 1122 2241 2028 2241 
L 2688 2241 
L 2688 2328 
Q 2688 2594 2478 2717 
Q 2269 2841 1825 2841 
Q 1466 2841 1156 2769 
Q 847 2697 581 2553 
L 581 3406 
Q 941 3494 1303 3539 
Q 1666 3584 2028 3584 
Q 2975 3584 3395 3211 
Q 3816 2838 3816 1997 
z
" transform="scale(0.015625)"/>
       <path id="DejaVuSans-Bold-64" d="M 2919 2988 
L 2919 4863 
L 4044 4863 
L 4044 0 
L 2919 0 
L 2919 506 
Q 2688 197 2409 53 
Q 2131 -91 1766 -91 
Q 1119 -91 703 423 
Q 288 938 288 1747 
Q 288 2556 703 3070 
Q 1119 3584 1766 3584 
Q 2128 3584 2408 3439 
Q 2688 3294 2919 2988 
z
M 2181 722 
Q 2541 722 2730 984 
Q 2919 1247 2919 1747 
Q 2919 2247 2730 2509 
Q 2541 2772 2181 2772 
Q 1825 2772 1636 2509 
Q 1447 2247 1447 1747 
Q 1447 1247 1636 984 
Q 1825 722 2181 722 
z
" transform="scale(0.015625)"/>
       <path id="DejaVuSans-Bold-73" d="M 3272 3391 
L 3272 2541 
Q 2913 2691 2578 2766 
Q 2244 2841 1947 2841 
Q 1628 2841 1473 2761 
Q 1319 2681 1319 2516 
Q 1319 2381 1436 2309 
Q 1553 2238 1856 2203 
L 2053 2175 
Q 2913 2066 3209 1816 
Q 3506 1566 3506 1031 
Q 3506 472 3093 190 
Q 2681 -91 1863 -91 
Q 1516 -91 1145 -36 
Q 775 19 384 128 
L 384 978 
Q 719 816 1070 734 
Q 1422 653 1784 653 
Q 2113 653 2278 743 
Q 2444 834 2444 1013 
Q 2444 1163 2330 1236 
Q 2216 1309 1875 1350 
L 1678 1375 
Q 931 1469 631 1722 
Q 331 1975 331 2491 
Q 331 3047 712 3315 
Q 1094 3584 1881 3584 
Q 2191 3584 2531 3537 
Q 2872 3491 3272 3391 
z
" transform="scale(0.015625)"/>
      </defs>
      <use xlink:href="#DejaVuSans-Bold-44"/>
      <use xlink:href="#DejaVuSans-Bold-4e" transform="translate(83.007812 0)"/>
      <use xlink:href="#DejaVuSans-Bold-41" transform="translate(166.699219 0)"/>
      <use xlink:href="#DejaVuSans-Bold-20" transform="translate(244.091797 0)"/>
      <use xlink:href="#DejaVuSans-Bold-72" transform="translate(278.90625 0)"/>
      <use xlink:href="#DejaVuSans-Bold-65" transform="translate(328.222656 0)"/>
      <use xlink:href="#DejaVuSans-Bold-61" transform="translate(396.044922 0)"/>
      <use xlink:href="#DejaVuSans-Bold-64" transform="translate(463.525391 0)"/>
      <use xlink:href="#DejaVuSans-Bold-73" transform="translate(535.107422 0)"/>
     </g>
    </g>
   </g>
   <g id="patch_3">
    <path d="M 97.05075 213.695147 
L 114.90675 213.695147 
L 114.90675 191.434361 
L 97.05075 191.434361 
L 97.05075 213.695147 
z
" clip-path="url(#pd91c3da2ba)" style="fill: #ebbd73; stroke: #696969; stroke-linejoin: miter"/>
   </g>
   <g id="line2d_5">
    <path d="M 105.97875 213.695147 
L 105.97875 214.28831 
" clip-path="url(#pd91c3da2ba)" style="fill: none; stroke: #696969"/>
   </g>
   <g id="line2d_6">
    <path d="M 105.97875 191.434361 
L 105.97875 185.00624 
" clip-path="url(#pd91c3da2ba)" style="fill: none; stroke: #696969"/>
   </g>
   <g id="line2d_7">
    <path d="M 101.51475 214.28831 
L 110.44275 214.28831 
" clip-path="url(#pd91c3da2ba)" style="fill: none; stroke: #696969; stroke-linecap: square"/>
   </g>
   <g id="line2d_8">
    <path d="M 101.51475 185.00624 
L 110.44275 185.00624 
" clip-path="url(#pd91c3da2ba)" style="fill: none; stroke: #696969; stroke-linecap: square"/>
   </g>
   <g id="patch_4">
    <path d="M 119.37075 200.223976 
L 137.22675 200.223976 
L 137.22675 190.169219 
L 119.37075 190.169219 
L 119.37075 200.223976 
z
" clip-path="url(#pd91c3da2ba)" style="fill: #ebbd73; stroke: #696969; stroke-linejoin: miter"/>
   </g>
   <g id="line2d_9">
    <path d="M 128.29875 200.223976 
L 128.29875 206.54351 
" clip-path="url(#pd91c3da2ba)" style="fill: none; stroke: #696969"/>
   </g>
   <g id="line2d_10">
    <path d="M 128.29875 190.169219 
L 128.29875 185.563642 
" clip-path="url(#pd91c3da2ba)" style="fill: none; stroke: #696969"/>
   </g>
   <g id="line2d_11">
    <path d="M 123.83475 206.54351 
L 132.76275 206.54351 
" clip-path="url(#pd91c3da2ba)" style="fill: none; stroke: #696969; stroke-linecap: square"/>
   </g>
   <g id="line2d_12">
    <path d="M 123.83475 185.563642 
L 132.76275 185.563642 
" clip-path="url(#pd91c3da2ba)" style="fill: none; stroke: #696969; stroke-linecap: square"/>
   </g>
   <g id="patch_5">
    <path d="M 141.69075 165.811129 
L 159.54675 165.811129 
L 159.54675 110.157692 
L 141.69075 110.157692 
L 141.69075 165.811129 
z
" clip-path="url(#pd91c3da2ba)" style="fill: #ebbd73; stroke: #696969; stroke-linejoin: miter"/>
   </g>
   <g id="line2d_13">
    <path d="M 150.61875 165.811129 
L 150.61875 193.408282 
" clip-path="url(#pd91c3da2ba)" style="fill: none; stroke: #696969"/>
   </g>
   <g id="line2d_14">
    <path d="M 150.61875 110.157692 
L 150.61875 85.944385 
" clip-path="url(#pd91c3da2ba)" style="fill: none; stroke: #696969"/>
   </g>
   <g id="line2d_15">
    <path d="M 146.15475 193.408282 
L 155.08275 193.408282 
" clip-path="url(#pd91c3da2ba)" style="fill: none; stroke: #696969; stroke-linecap: square"/>
   </g>
   <g id="line2d_16">
    <path d="M 146.15475 85.944385 
L 155.08275 85.944385 
" clip-path="url(#pd91c3da2ba)" style="fill: none; stroke: #696969; stroke-linecap: square"/>
   </g>
   <g id="patch_6">
    <path d="M 164.01075 195.754308 
L 181.86675 195.754308 
L 181.86675 132.38098 
L 164.01075 132.38098 
L 164.01075 195.754308 
z
" clip-path="url(#pd91c3da2ba)" style="fill: #ebbd73; stroke: #696969; stroke-linejoin: miter"/>
   </g>
   <g id="line2d_17">
    <path d="M 172.93875 195.754308 
L 172.93875 213.435376 
" clip-path="url(#pd91c3da2ba)" style="fill: none; stroke: #696969"/>
   </g>
   <g id="line2d_18">
    <path d="M 172.93875 132.38098 
L 172.93875 63.278663 
" clip-path="url(#pd91c3da2ba)" style="fill: none; stroke: #696969"/>
   </g>
   <g id="line2d_19">
    <path d="M 168.47475 213.435376 
L 177.40275 213.435376 
" clip-path="url(#pd91c3da2ba)" style="fill: none; stroke: #696969; stroke-linecap: square"/>
   </g>
   <g id="line2d_20">
    <path d="M 168.47475 63.278663 
L 177.40275 63.278663 
" clip-path="url(#pd91c3da2ba)" style="fill: none; stroke: #696969; stroke-linecap: square"/>
   </g>
   <g id="patch_7">
    <path d="M 186.33075 205.188538 
L 204.18675 205.188538 
L 204.18675 182.230122 
L 186.33075 182.230122 
L 186.33075 205.188538 
z
" clip-path="url(#pd91c3da2ba)" style="fill: #ebbd73; stroke: #696969; stroke-linejoin: miter"/>
   </g>
   <g id="line2d_21">
    <path d="M 195.25875 205.188538 
L 195.25875 215.130242 
" clip-path="url(#pd91c3da2ba)" style="fill: none; stroke: #696969"/>
   </g>
   <g id="line2d_22">
    <path d="M 195.25875 182.230122 
L 195.25875 147.90608 
" clip-path="url(#pd91c3da2ba)" style="fill: none; stroke: #696969"/>
   </g>
   <g id="line2d_23">
    <path d="M 190.79475 215.130242 
L 199.72275 215.130242 
" clip-path="url(#pd91c3da2ba)" style="fill: none; stroke: #696969; stroke-linecap: square"/>
   </g>
   <g id="line2d_24">
    <path d="M 190.79475 147.90608 
L 199.72275 147.90608 
" clip-path="url(#pd91c3da2ba)" style="fill: none; stroke: #696969; stroke-linecap: square"/>
   </g>
   <g id="patch_8">
    <path d="M 208.65075 203.514186 
L 226.50675 203.514186 
L 226.50675 180.929415 
L 208.65075 180.929415 
L 208.65075 203.514186 
z
" clip-path="url(#pd91c3da2ba)" style="fill: #ebbd73; stroke: #696969; stroke-linejoin: miter"/>
   </g>
   <g id="line2d_25">
    <path d="M 217.57875 203.514186 
L 217.57875 215.133366 
" clip-path="url(#pd91c3da2ba)" style="fill: none; stroke: #696969"/>
   </g>
   <g id="line2d_26">
    <path d="M 217.57875 180.929415 
L 217.57875 147.230563 
" clip-path="url(#pd91c3da2ba)" style="fill: none; stroke: #696969"/>
   </g>
   <g id="line2d_27">
    <path d="M 213.11475 215.133366 
L 222.04275 215.133366 
" clip-path="url(#pd91c3da2ba)" style="fill: none; stroke: #696969; stroke-linecap: square"/>
   </g>
   <g id="line2d_28">
    <path d="M 213.11475 147.230563 
L 222.04275 147.230563 
" clip-path="url(#pd91c3da2ba)" style="fill: none; stroke: #696969; stroke-linecap: square"/>
   </g>
   <g id="patch_9">
    <path d="M 230.97075 202.318897 
L 248.82675 202.318897 
L 248.82675 173.986142 
L 230.97075 173.986142 
L 230.97075 202.318897 
z
" clip-path="url(#pd91c3da2ba)" style="fill: #ebbd73; stroke: #696969; stroke-linejoin: miter"/>
   </g>
   <g id="line2d_29">
    <path d="M 239.89875 202.318897 
L 239.89875 215.132492 
" clip-path="url(#pd91c3da2ba)" style="fill: none; stroke: #696969"/>
   </g>
   <g id="line2d_30">
    <path d="M 239.89875 173.986142 
L 239.89875 131.554945 
" clip-path="url(#pd91c3da2ba)" style="fill: none; stroke: #696969"/>
   </g>
   <g id="line2d_31">
    <path d="M 235.43475 215.132492 
L 244.36275 215.132492 
" clip-path="url(#pd91c3da2ba)" style="fill: none; stroke: #696969; stroke-linecap: square"/>
   </g>
   <g id="line2d_32">
    <path d="M 235.43475 131.554945 
L 244.36275 131.554945 
" clip-path="url(#pd91c3da2ba)" style="fill: none; stroke: #696969; stroke-linecap: square"/>
   </g>
   <g id="patch_10">
    <path d="M 253.29075 200.911961 
L 271.14675 200.911961 
L 271.14675 164.405081 
L 253.29075 164.405081 
L 253.29075 200.911961 
z
" clip-path="url(#pd91c3da2ba)" style="fill: #ebbd73; stroke: #696969; stroke-linejoin: miter"/>
   </g>
   <g id="line2d_33">
    <path d="M 262.21875 200.911961 
L 262.21875 215.134298 
" clip-path="url(#pd91c3da2ba)" style="fill: none; stroke: #696969"/>
   </g>
   <g id="line2d_34">
    <path d="M 262.21875 164.405081 
L 262.21875 109.857283 
" clip-path="url(#pd91c3da2ba)" style="fill: none; stroke: #696969"/>
   </g>
   <g id="line2d_35">
    <path d="M 257.75475 215.134298 
L 266.68275 215.134298 
" clip-path="url(#pd91c3da2ba)" style="fill: none; stroke: #696969; stroke-linecap: square"/>
   </g>
   <g id="line2d_36">
    <path d="M 257.75475 109.857283 
L 266.68275 109.857283 
" clip-path="url(#pd91c3da2ba)" style="fill: none; stroke: #696969; stroke-linecap: square"/>
   </g>
   <g id="patch_11">
    <path d="M 275.61075 199.444696 
L 293.46675 199.444696 
L 293.46675 156.871645 
L 275.61075 156.871645 
L 275.61075 199.444696 
z
" clip-path="url(#pd91c3da2ba)" style="fill: #ebbd73; stroke: #696969; stroke-linejoin: miter"/>
   </g>
   <g id="line2d_37">
    <path d="M 284.53875 199.444696 
L 284.53875 215.131519 
" clip-path="url(#pd91c3da2ba)" style="fill: none; stroke: #696969"/>
   </g>
   <g id="line2d_38">
    <path d="M 284.53875 156.871645 
L 284.53875 93.139669 
" clip-path="url(#pd91c3da2ba)" style="fill: none; stroke: #696969"/>
   </g>
   <g id="line2d_39">
    <path d="M 280.07475 215.131519 
L 289.00275 215.131519 
" clip-path="url(#pd91c3da2ba)" style="fill: none; stroke: #696969; stroke-linecap: square"/>
   </g>
   <g id="line2d_40">
    <path d="M 280.07475 93.139669 
L 289.00275 93.139669 
" clip-path="url(#pd91c3da2ba)" style="fill: none; stroke: #696969; stroke-linecap: square"/>
   </g>
   <g id="patch_12">
    <path d="M 297.93075 195.908832 
L 315.78675 195.908832 
L 315.78675 148.855225 
L 297.93075 148.855225 
L 297.93075 195.908832 
z
" clip-path="url(#pd91c3da2ba)" style="fill: #ebbd73; stroke: #696969; stroke-linejoin: miter"/>
   </g>
   <g id="line2d_41">
    <path d="M 306.85875 195.908832 
L 306.85875 215.131665 
" clip-path="url(#pd91c3da2ba)" style="fill: none; stroke: #696969"/>
   </g>
   <g id="line2d_42">
    <path d="M 306.85875 148.855225 
L 306.85875 78.335549 
" clip-path="url(#pd91c3da2ba)" style="fill: none; stroke: #696969"/>
   </g>
   <g id="line2d_43">
    <path d="M 302.39475 215.131665 
L 311.32275 215.131665 
" clip-path="url(#pd91c3da2ba)" style="fill: none; stroke: #696969; stroke-linecap: square"/>
   </g>
   <g id="line2d_44">
    <path d="M 302.39475 78.335549 
L 311.32275 78.335549 
" clip-path="url(#pd91c3da2ba)" style="fill: none; stroke: #696969; stroke-linecap: square"/>
   </g>
   <g id="patch_13">
    <path d="M 320.25075 193.175646 
L 338.10675 193.175646 
L 338.10675 146.010034 
L 320.25075 146.010034 
L 320.25075 193.175646 
z
" clip-path="url(#pd91c3da2ba)" style="fill: #ebbd73; stroke: #696969; stroke-linejoin: miter"/>
   </g>
   <g id="line2d_45">
    <path d="M 329.17875 193.175646 
L 329.17875 215.120997 
" clip-path="url(#pd91c3da2ba)" style="fill: none; stroke: #696969"/>
   </g>
   <g id="line2d_46">
    <path d="M 329.17875 146.010034 
L 329.17875 75.568889 
" clip-path="url(#pd91c3da2ba)" style="fill: none; stroke: #696969"/>
   </g>
   <g id="line2d_47">
    <path d="M 324.71475 215.120997 
L 333.64275 215.120997 
" clip-path="url(#pd91c3da2ba)" style="fill: none; stroke: #696969; stroke-linecap: square"/>
   </g>
   <g id="line2d_48">
    <path d="M 324.71475 75.568889 
L 333.64275 75.568889 
" clip-path="url(#pd91c3da2ba)" style="fill: none; stroke: #696969; stroke-linecap: square"/>
   </g>
   <g id="patch_14">
    <path d="M 342.57075 196.534581 
L 360.42675 196.534581 
L 360.42675 141.52515 
L 342.57075 141.52515 
L 342.57075 196.534581 
z
" clip-path="url(#pd91c3da2ba)" style="fill: #ebbd73; stroke: #696969; stroke-linejoin: miter"/>
   </g>
   <g id="line2d_49">
    <path d="M 351.49875 196.534581 
L 351.49875 215.124115 
" clip-path="url(#pd91c3da2ba)" style="fill: none; stroke: #696969"/>
   </g>
   <g id="line2d_50">
    <path d="M 351.49875 141.52515 
L 351.49875 59.247678 
" clip-path="url(#pd91c3da2ba)" style="fill: none; stroke: #696969"/>
   </g>
   <g id="line2d_51">
    <path d="M 347.03475 215.124115 
L 355.96275 215.124115 
" clip-path="url(#pd91c3da2ba)" style="fill: none; stroke: #696969; stroke-linecap: square"/>
   </g>
   <g id="line2d_52">
    <path d="M 347.03475 59.247678 
L 355.96275 59.247678 
" clip-path="url(#pd91c3da2ba)" style="fill: none; stroke: #696969; stroke-linecap: square"/>
   </g>
   <g id="patch_15">
    <path d="M 364.89075 201.34926 
L 382.74675 201.34926 
L 382.74675 145.929873 
L 364.89075 145.929873 
L 364.89075 201.34926 
z
" clip-path="url(#pd91c3da2ba)" style="fill: #ebbd73; stroke: #696969; stroke-linejoin: miter"/>
   </g>
   <g id="line2d_53">
    <path d="M 373.81875 201.34926 
L 373.81875 215.124104 
" clip-path="url(#pd91c3da2ba)" style="fill: none; stroke: #696969"/>
   </g>
   <g id="line2d_54">
    <path d="M 373.81875 145.929873 
L 373.81875 63.787447 
" clip-path="url(#pd91c3da2ba)" style="fill: none; stroke: #696969"/>
   </g>
   <g id="line2d_55">
    <path d="M 369.35475 215.124104 
L 378.28275 215.124104 
" clip-path="url(#pd91c3da2ba)" style="fill: none; stroke: #696969; stroke-linecap: square"/>
   </g>
   <g id="line2d_56">
    <path d="M 369.35475 63.787447 
L 378.28275 63.787447 
" clip-path="url(#pd91c3da2ba)" style="fill: none; stroke: #696969; stroke-linecap: square"/>
   </g>
   <g id="patch_16">
    <path d="M 387.21075 203.060046 
L 405.06675 203.060046 
L 405.06675 157.335905 
L 387.21075 157.335905 
L 387.21075 203.060046 
z
" clip-path="url(#pd91c3da2ba)" style="fill: #ebbd73; stroke: #696969; stroke-linejoin: miter"/>
   </g>
   <g id="line2d_57">
    <path d="M 396.13875 203.060046 
L 396.13875 215.05283 
" clip-path="url(#pd91c3da2ba)" style="fill: none; stroke: #696969"/>
   </g>
   <g id="line2d_58">
    <path d="M 396.13875 157.335905 
L 396.13875 89.225668 
" clip-path="url(#pd91c3da2ba)" style="fill: none; stroke: #696969"/>
   </g>
   <g id="line2d_59">
    <path d="M 391.67475 215.05283 
L 400.60275 215.05283 
" clip-path="url(#pd91c3da2ba)" style="fill: none; stroke: #696969; stroke-linecap: square"/>
   </g>
   <g id="line2d_60">
    <path d="M 391.67475 89.225668 
L 400.60275 89.225668 
" clip-path="url(#pd91c3da2ba)" style="fill: none; stroke: #696969; stroke-linecap: square"/>
   </g>
   <g id="patch_17">
    <path d="M 409.53075 208.481463 
L 427.38675 208.481463 
L 427.38675 173.830561 
L 409.53075 173.830561 
L 409.53075 208.481463 
z
" clip-path="url(#pd91c3da2ba)" style="fill: #ebbd73; stroke: #696969; stroke-linejoin: miter"/>
   </g>
   <g id="line2d_61">
    <path d="M 418.45875 208.481463 
L 418.45875 215.089416 
" clip-path="url(#pd91c3da2ba)" style="fill: none; stroke: #696969"/>
   </g>
   <g id="line2d_62">
    <path d="M 418.45875 173.830561 
L 418.45875 122.845331 
" clip-path="url(#pd91c3da2ba)" style="fill: none; stroke: #696969"/>
   </g>
   <g id="line2d_63">
    <path d="M 413.99475 215.089416 
L 422.92275 215.089416 
" clip-path="url(#pd91c3da2ba)" style="fill: none; stroke: #696969; stroke-linecap: square"/>
   </g>
   <g id="line2d_64">
    <path d="M 413.99475 122.845331 
L 422.92275 122.845331 
" clip-path="url(#pd91c3da2ba)" style="fill: none; stroke: #696969; stroke-linecap: square"/>
   </g>
   <g id="patch_18">
    <path d="M 431.85075 213.584495 
L 449.70675 213.584495 
L 449.70675 203.229497 
L 431.85075 203.229497 
L 431.85075 213.584495 
z
" clip-path="url(#pd91c3da2ba)" style="fill: #ebbd73; stroke: #696969; stroke-linejoin: miter"/>
   </g>
   <g id="line2d_65">
    <path d="M 440.77875 213.584495 
L 440.77875 215.123884 
" clip-path="url(#pd91c3da2ba)" style="fill: none; stroke: #696969"/>
   </g>
   <g id="line2d_66">
    <path d="M 440.77875 203.229497 
L 440.77875 187.958605 
" clip-path="url(#pd91c3da2ba)" style="fill: none; stroke: #696969"/>
   </g>
   <g id="line2d_67">
    <path d="M 436.31475 215.123884 
L 445.24275 215.123884 
" clip-path="url(#pd91c3da2ba)" style="fill: none; stroke: #696969; stroke-linecap: square"/>
   </g>
   <g id="line2d_68">
    <path d="M 436.31475 187.958605 
L 445.24275 187.958605 
" clip-path="url(#pd91c3da2ba)" style="fill: none; stroke: #696969; stroke-linecap: square"/>
   </g>
   <g id="patch_19">
    <path d="M 454.17075 214.439512 
L 472.02675 214.439512 
L 472.02675 211.235851 
L 454.17075 211.235851 
L 454.17075 214.439512 
z
" clip-path="url(#pd91c3da2ba)" style="fill: #ebbd73; stroke: #696969; stroke-linejoin: miter"/>
   </g>
   <g id="line2d_69">
    <path d="M 463.09875 214.439512 
L 463.09875 215.028249 
" clip-path="url(#pd91c3da2ba)" style="fill: none; stroke: #696969"/>
   </g>
   <g id="line2d_70">
    <path d="M 463.09875 211.235851 
L 463.09875 207.821288 
" clip-path="url(#pd91c3da2ba)" style="fill: none; stroke: #696969"/>
   </g>
   <g id="line2d_71">
    <path d="M 458.63475 215.028249 
L 467.56275 215.028249 
" clip-path="url(#pd91c3da2ba)" style="fill: none; stroke: #696969; stroke-linecap: square"/>
   </g>
   <g id="line2d_72">
    <path d="M 458.63475 207.821288 
L 467.56275 207.821288 
" clip-path="url(#pd91c3da2ba)" style="fill: none; stroke: #696969; stroke-linecap: square"/>
   </g>
   <g id="line2d_73">
    <path d="M 97.05075 203.537247 
L 114.90675 203.537247 
" clip-path="url(#pd91c3da2ba)" style="fill: none; stroke: #696969"/>
   </g>
   <g id="line2d_74">
    <path d="M 119.37075 196.318688 
L 137.22675 196.318688 
" clip-path="url(#pd91c3da2ba)" style="fill: none; stroke: #696969"/>
   </g>
   <g id="line2d_75">
    <path d="M 141.69075 153.972758 
L 159.54675 153.972758 
" clip-path="url(#pd91c3da2ba)" style="fill: none; stroke: #696969"/>
   </g>
   <g id="line2d_76">
    <path d="M 164.01075 161.405426 
L 181.86675 161.405426 
" clip-path="url(#pd91c3da2ba)" style="fill: none; stroke: #696969"/>
   </g>
   <g id="line2d_77">
    <path d="M 186.33075 195.657636 
L 204.18675 195.657636 
" clip-path="url(#pd91c3da2ba)" style="fill: none; stroke: #696969"/>
   </g>
   <g id="line2d_78">
    <path d="M 208.65075 193.739455 
L 226.50675 193.739455 
" clip-path="url(#pd91c3da2ba)" style="fill: none; stroke: #696969"/>
   </g>
   <g id="line2d_79">
    <path d="M 230.97075 189.931859 
L 248.82675 189.931859 
" clip-path="url(#pd91c3da2ba)" style="fill: none; stroke: #696969"/>
   </g>
   <g id="line2d_80">
    <path d="M 253.29075 184.528144 
L 271.14675 184.528144 
" clip-path="url(#pd91c3da2ba)" style="fill: none; stroke: #696969"/>
   </g>
   <g id="line2d_81">
    <path d="M 275.61075 180.437161 
L 293.46675 180.437161 
" clip-path="url(#pd91c3da2ba)" style="fill: none; stroke: #696969"/>
   </g>
   <g id="line2d_82">
    <path d="M 297.93075 175.374542 
L 315.78675 175.374542 
" clip-path="url(#pd91c3da2ba)" style="fill: none; stroke: #696969"/>
   </g>
   <g id="line2d_83">
    <path d="M 320.25075 172.875246 
L 338.10675 172.875246 
" clip-path="url(#pd91c3da2ba)" style="fill: none; stroke: #696969"/>
   </g>
   <g id="line2d_84">
    <path d="M 342.57075 175.146677 
L 360.42675 175.146677 
" clip-path="url(#pd91c3da2ba)" style="fill: none; stroke: #696969"/>
   </g>
   <g id="line2d_85">
    <path d="M 364.89075 182.286186 
L 382.74675 182.286186 
" clip-path="url(#pd91c3da2ba)" style="fill: none; stroke: #696969"/>
   </g>
   <g id="line2d_86">
    <path d="M 387.21075 186.512047 
L 405.06675 186.512047 
" clip-path="url(#pd91c3da2ba)" style="fill: none; stroke: #696969"/>
   </g>
   <g id="line2d_87">
    <path d="M 409.53075 197.856109 
L 427.38675 197.856109 
" clip-path="url(#pd91c3da2ba)" style="fill: none; stroke: #696969"/>
   </g>
   <g id="line2d_88">
    <path d="M 431.85075 210.190681 
L 449.70675 210.190681 
" clip-path="url(#pd91c3da2ba)" style="fill: none; stroke: #696969"/>
   </g>
   <g id="line2d_89">
    <path d="M 454.17075 213.791349 
L 472.02675 213.791349 
" clip-path="url(#pd91c3da2ba)" style="fill: none; stroke: #696969"/>
   </g>
   <g id="patch_20">
    <path d="M 94.81875 215.638594 
L 94.81875 14.038594 
" style="fill: none; stroke: #000000; stroke-linejoin: miter; stroke-linecap: square"/>
   </g>
   <g id="patch_21">
    <path d="M 94.81875 215.638594 
L 541.21875 215.638594 
" style="fill: none; stroke: #000000; stroke-linejoin: miter; stroke-linecap: square"/>
   </g>
  </g>
  <g id="axes_2">
   <g id="patch_22">
    <path d="M 94.81875 457.558594 
L 541.21875 457.558594 
L 541.21875 255.958594 
L 94.81875 255.958594 
L 94.81875 457.558594 
z
" style="fill: none"/>
   </g>
   <g id="patch_23">
    <path d="M 94.81875 457.558594 
L 117.13875 457.558594 
L 117.13875 457.494082 
L 94.81875 457.494082 
z
" clip-path="url(#p2dcecaaf5e)" style="fill: #3d9f95; fill-opacity: 0.75; stroke: #000000; stroke-linejoin: miter"/>
   </g>
   <g id="patch_24">
    <path d="M 117.13875 457.558594 
L 139.45875 457.558594 
L 139.45875 457.381186 
L 117.13875 457.381186 
z
" clip-path="url(#p2dcecaaf5e)" style="fill: #3d9f95; fill-opacity: 0.75; stroke: #000000; stroke-linejoin: miter"/>
   </g>
   <g id="patch_25">
    <path d="M 139.45875 457.558594 
L 161.77875 457.558594 
L 161.77875 457.381186 
L 139.45875 457.381186 
z
" clip-path="url(#p2dcecaaf5e)" style="fill: #3d9f95; fill-opacity: 0.75; stroke: #000000; stroke-linejoin: miter"/>
   </g>
   <g id="patch_26">
    <path d="M 161.77875 457.558594 
L 184.09875 457.558594 
L 184.09875 456.607042 
L 161.77875 456.607042 
z
" clip-path="url(#p2dcecaaf5e)" style="fill: #3d9f95; fill-opacity: 0.75; stroke: #000000; stroke-linejoin: miter"/>
   </g>
   <g id="patch_27">
    <path d="M 184.09875 457.558594 
L 206.41875 457.558594 
L 206.41875 447.946306 
L 184.09875 447.946306 
z
" clip-path="url(#p2dcecaaf5e)" style="fill: #3d9f95; fill-opacity: 0.75; stroke: #000000; stroke-linejoin: miter"/>
   </g>
   <g id="patch_28">
    <path d="M 206.41875 457.558594 
L 228.73875 457.558594 
L 228.73875 409.061698 
L 206.41875 409.061698 
z
" clip-path="url(#p2dcecaaf5e)" style="fill: #3d9f95; fill-opacity: 0.75; stroke: #000000; stroke-linejoin: miter"/>
   </g>
   <g id="patch_29">
    <path d="M 228.73875 457.558594 
L 251.05875 457.558594 
L 251.05875 350.758978 
L 228.73875 350.758978 
z
" clip-path="url(#p2dcecaaf5e)" style="fill: #3d9f95; fill-opacity: 0.75; stroke: #000000; stroke-linejoin: miter"/>
   </g>
   <g id="patch_30">
    <path d="M 251.05875 457.558594 
L 273.37875 457.558594 
L 273.37875 320.244802 
L 251.05875 320.244802 
z
" clip-path="url(#p2dcecaaf5e)" style="fill: #3d9f95; fill-opacity: 0.75; stroke: #000000; stroke-linejoin: miter"/>
   </g>
   <g id="patch_31">
    <path d="M 273.37875 457.558594 
L 295.69875 457.558594 
L 295.69875 314.970946 
L 273.37875 314.970946 
z
" clip-path="url(#p2dcecaaf5e)" style="fill: #3d9f95; fill-opacity: 0.75; stroke: #000000; stroke-linejoin: miter"/>
   </g>
   <g id="patch_32">
    <path d="M 295.69875 457.558594 
L 318.01875 457.558594 
L 318.01875 300.939586 
L 295.69875 300.939586 
z
" clip-path="url(#p2dcecaaf5e)" style="fill: #3d9f95; fill-opacity: 0.75; stroke: #000000; stroke-linejoin: miter"/>
   </g>
   <g id="patch_33">
    <path d="M 318.01875 457.558594 
L 340.33875 457.558594 
L 340.33875 323.825218 
L 318.01875 323.825218 
z
" clip-path="url(#p2dcecaaf5e)" style="fill: #3d9f95; fill-opacity: 0.75; stroke: #000000; stroke-linejoin: miter"/>
   </g>
   <g id="patch_34">
    <path d="M 340.33875 457.558594 
L 362.65875 457.558594 
L 362.65875 367.257922 
L 340.33875 367.257922 
z
" clip-path="url(#p2dcecaaf5e)" style="fill: #3d9f95; fill-opacity: 0.75; stroke: #000000; stroke-linejoin: miter"/>
   </g>
   <g id="patch_35">
    <path d="M 362.65875 457.558594 
L 384.97875 457.558594 
L 384.97875 412.142146 
L 362.65875 412.142146 
z
" clip-path="url(#p2dcecaaf5e)" style="fill: #3d9f95; fill-opacity: 0.75; stroke: #000000; stroke-linejoin: miter"/>
   </g>
   <g id="patch_36">
    <path d="M 384.97875 457.558594 
L 407.29875 457.558594 
L 407.29875 434.818114 
L 384.97875 434.818114 
z
" clip-path="url(#p2dcecaaf5e)" style="fill: #3d9f95; fill-opacity: 0.75; stroke: #000000; stroke-linejoin: miter"/>
   </g>
   <g id="patch_37">
    <path d="M 407.29875 457.558594 
L 429.61875 457.558594 
L 429.61875 449.349442 
L 407.29875 449.349442 
z
" clip-path="url(#p2dcecaaf5e)" style="fill: #3d9f95; fill-opacity: 0.75; stroke: #000000; stroke-linejoin: miter"/>
   </g>
   <g id="patch_38">
    <path d="M 429.61875 457.558594 
L 451.93875 457.558594 
L 451.93875 453.365314 
L 429.61875 453.365314 
z
" clip-path="url(#p2dcecaaf5e)" style="fill: #3d9f95; fill-opacity: 0.75; stroke: #000000; stroke-linejoin: miter"/>
   </g>
   <g id="patch_39">
    <path d="M 451.93875 457.558594 
L 474.25875 457.558594 
L 474.25875 456.913474 
L 451.93875 456.913474 
z
" clip-path="url(#p2dcecaaf5e)" style="fill: #3d9f95; fill-opacity: 0.75; stroke: #000000; stroke-linejoin: miter"/>
   </g>
   <g id="matplotlib.axis_3">
    <g id="xtick_3">
     <g id="line2d_90">
      <g>
       <use xlink:href="#m877969aea1" x="105.97875" y="457.558594" style="stroke: #000000; stroke-width: 0.8"/>
      </g>
     </g>
     <g id="text_4">
      <!-- 0 -->
      <g transform="translate(105.441791 482.327966) rotate(-45) scale(0.18 -0.18)">
       <use xlink:href="#DejaVuSans-30"/>
      </g>
     </g>
    </g>
    <g id="xtick_4">
     <g id="line2d_91">
      <g>
       <use xlink:href="#m877969aea1" x="530.05875" y="457.558594" style="stroke: #000000; stroke-width: 0.8"/>
      </g>
     </g>
     <g id="text_5">
      <!-- 100 -->
      <g transform="translate(521.42365 498.524247) rotate(-45) scale(0.18 -0.18)">
       <defs>
        <path id="DejaVuSans-31" d="M 794 531 
L 1825 531 
L 1825 4091 
L 703 3866 
L 703 4441 
L 1819 4666 
L 2450 4666 
L 2450 531 
L 3481 531 
L 3481 0 
L 794 0 
L 794 531 
z
" transform="scale(0.015625)"/>
       </defs>
       <use xlink:href="#DejaVuSans-31"/>
       <use xlink:href="#DejaVuSans-30" transform="translate(63.623047 0)"/>
       <use xlink:href="#DejaVuSans-30" transform="translate(127.246094 0)"/>
      </g>
     </g>
    </g>
    <g id="text_6">
     <!-- %GC -->
     <g transform="translate(292.451562 520.368132) scale(0.2 -0.2)">
      <defs>
       <path id="DejaVuSans-Bold-25" d="M 4959 1925 
Q 4738 1925 4616 1733 
Q 4494 1541 4494 1184 
Q 4494 825 4614 633 
Q 4734 441 4959 441 
Q 5184 441 5303 633 
Q 5422 825 5422 1184 
Q 5422 1541 5301 1733 
Q 5181 1925 4959 1925 
z
M 4959 2450 
Q 5541 2450 5875 2112 
Q 6209 1775 6209 1184 
Q 6209 594 5875 251 
Q 5541 -91 4959 -91 
Q 4378 -91 4042 251 
Q 3706 594 3706 1184 
Q 3706 1772 4042 2111 
Q 4378 2450 4959 2450 
z
M 2094 -91 
L 1403 -91 
L 4319 4750 
L 5013 4750 
L 2094 -91 
z
M 1453 4750 
Q 2034 4750 2367 4411 
Q 2700 4072 2700 3481 
Q 2700 2891 2367 2550 
Q 2034 2209 1453 2209 
Q 872 2209 539 2550 
Q 206 2891 206 3481 
Q 206 4072 539 4411 
Q 872 4750 1453 4750 
z
M 1453 4225 
Q 1228 4225 1106 4031 
Q 984 3838 984 3481 
Q 984 3122 1106 2926 
Q 1228 2731 1453 2731 
Q 1678 2731 1798 2926 
Q 1919 3122 1919 3481 
Q 1919 3838 1797 4031 
Q 1675 4225 1453 4225 
z
" transform="scale(0.015625)"/>
       <path id="DejaVuSans-Bold-47" d="M 4781 347 
Q 4331 128 3847 18 
Q 3363 -91 2847 -91 
Q 1681 -91 1000 561 
Q 319 1213 319 2328 
Q 319 3456 1012 4103 
Q 1706 4750 2913 4750 
Q 3378 4750 3804 4662 
Q 4231 4575 4609 4403 
L 4609 3438 
Q 4219 3659 3833 3768 
Q 3447 3878 3059 3878 
Q 2341 3878 1952 3476 
Q 1563 3075 1563 2328 
Q 1563 1588 1938 1184 
Q 2313 781 3003 781 
Q 3191 781 3352 804 
Q 3513 828 3641 878 
L 3641 1784 
L 2906 1784 
L 2906 2591 
L 4781 2591 
L 4781 347 
z
" transform="scale(0.015625)"/>
       <path id="DejaVuSans-Bold-43" d="M 4288 256 
Q 3956 84 3597 -3 
Q 3238 -91 2847 -91 
Q 1681 -91 1000 561 
Q 319 1213 319 2328 
Q 319 3447 1000 4098 
Q 1681 4750 2847 4750 
Q 3238 4750 3597 4662 
Q 3956 4575 4288 4403 
L 4288 3438 
Q 3953 3666 3628 3772 
Q 3303 3878 2944 3878 
Q 2300 3878 1931 3465 
Q 1563 3053 1563 2328 
Q 1563 1606 1931 1193 
Q 2300 781 2944 781 
Q 3303 781 3628 887 
Q 3953 994 4288 1222 
L 4288 256 
z
" transform="scale(0.015625)"/>
      </defs>
      <use xlink:href="#DejaVuSans-Bold-25"/>
      <use xlink:href="#DejaVuSans-Bold-47" transform="translate(100.195312 0)"/>
      <use xlink:href="#DejaVuSans-Bold-43" transform="translate(182.275391 0)"/>
     </g>
    </g>
   </g>
   <g id="matplotlib.axis_4">
    <g id="ytick_3">
     <g id="line2d_92">
      <g>
       <use xlink:href="#m6ca16d269f" x="94.81875" y="457.558594" style="stroke: #000000; stroke-width: 0.8"/>
      </g>
     </g>
     <g id="text_7">
      <!-- 0 -->
      <g transform="translate(76.36625 464.397187) scale(0.18 -0.18)">
       <use xlink:href="#DejaVuSans-30"/>
      </g>
     </g>
    </g>
    <g id="ytick_4">
     <g id="line2d_93">
      <g>
       <use xlink:href="#m6ca16d269f" x="94.81875" y="255.958594" style="stroke: #000000; stroke-width: 0.8"/>
      </g>
     </g>
     <g id="text_8">
      <!-- 12500 -->
      <g transform="translate(30.55625 262.797187) scale(0.18 -0.18)">
       <defs>
        <path id="DejaVuSans-35" d="M 691 4666 
L 3169 4666 
L 3169 4134 
L 1269 4134 
L 1269 2991 
Q 1406 3038 1543 3061 
Q 1681 3084 1819 3084 
Q 2600 3084 3056 2656 
Q 3513 2228 3513 1497 
Q 3513 744 3044 326 
Q 2575 -91 1722 -91 
Q 1428 -91 1123 -41 
Q 819 9 494 109 
L 494 744 
Q 775 591 1075 516 
Q 1375 441 1709 441 
Q 2250 441 2565 725 
Q 2881 1009 2881 1497 
Q 2881 1984 2565 2268 
Q 2250 2553 1709 2553 
Q 1456 2553 1204 2497 
Q 953 2441 691 2322 
L 691 4666 
z
" transform="scale(0.015625)"/>
       </defs>
       <use xlink:href="#DejaVuSans-31"/>
       <use xlink:href="#DejaVuSans-32" transform="translate(63.623047 0)"/>
       <use xlink:href="#DejaVuSans-35" transform="translate(127.246094 0)"/>
       <use xlink:href="#DejaVuSans-30" transform="translate(190.869141 0)"/>
       <use xlink:href="#DejaVuSans-30" transform="translate(254.492188 0)"/>
      </g>
     </g>
    </g>
    <g id="text_9">
     <!-- cCREs -->
     <g transform="translate(22.396875 390.508594) rotate(-90) scale(0.2 -0.2)">
      <defs>
       <path id="DejaVuSans-Bold-63" d="M 3366 3391 
L 3366 2478 
Q 3138 2634 2908 2709 
Q 2678 2784 2431 2784 
Q 1963 2784 1702 2511 
Q 1441 2238 1441 1747 
Q 1441 1256 1702 982 
Q 1963 709 2431 709 
Q 2694 709 2930 787 
Q 3166 866 3366 1019 
L 3366 103 
Q 3103 6 2833 -42 
Q 2563 -91 2291 -91 
Q 1344 -91 809 395 
Q 275 881 275 1747 
Q 275 2613 809 3098 
Q 1344 3584 2291 3584 
Q 2566 3584 2833 3536 
Q 3100 3488 3366 3391 
z
" transform="scale(0.015625)"/>
       <path id="DejaVuSans-Bold-52" d="M 2297 2597 
Q 2675 2597 2839 2737 
Q 3003 2878 3003 3200 
Q 3003 3519 2839 3656 
Q 2675 3794 2297 3794 
L 1791 3794 
L 1791 2597 
L 2297 2597 
z
M 1791 1766 
L 1791 0 
L 588 0 
L 588 4666 
L 2425 4666 
Q 3347 4666 3776 4356 
Q 4206 4047 4206 3378 
Q 4206 2916 3982 2619 
Q 3759 2322 3309 2181 
Q 3556 2125 3751 1926 
Q 3947 1728 4147 1325 
L 4800 0 
L 3519 0 
L 2950 1159 
Q 2778 1509 2601 1637 
Q 2425 1766 2131 1766 
L 1791 1766 
z
" transform="scale(0.015625)"/>
       <path id="DejaVuSans-Bold-45" d="M 588 4666 
L 3834 4666 
L 3834 3756 
L 1791 3756 
L 1791 2888 
L 3713 2888 
L 3713 1978 
L 1791 1978 
L 1791 909 
L 3903 909 
L 3903 0 
L 588 0 
L 588 4666 
z
" transform="scale(0.015625)"/>
      </defs>
      <use xlink:href="#DejaVuSans-Bold-63"/>
      <use xlink:href="#DejaVuSans-Bold-43" transform="translate(59.277344 0)"/>
      <use xlink:href="#DejaVuSans-Bold-52" transform="translate(132.666016 0)"/>
      <use xlink:href="#DejaVuSans-Bold-45" transform="translate(209.667969 0)"/>
      <use xlink:href="#DejaVuSans-Bold-73" transform="translate(277.978516 0)"/>
     </g>
    </g>
   </g>
   <g id="patch_40">
    <path d="M 94.81875 457.558594 
L 94.81875 255.958594 
" style="fill: none; stroke: #000000; stroke-linejoin: miter; stroke-linecap: square"/>
   </g>
   <g id="patch_41">
    <path d="M 94.81875 457.558594 
L 541.21875 457.558594 
" style="fill: none; stroke: #000000; stroke-linejoin: miter; stroke-linecap: square"/>
   </g>
  </g>
 </g>
 <defs>
  <clipPath id="pd91c3da2ba">
   <rect x="94.81875" y="14.038594" width="446.4" height="201.6"/>
  </clipPath>
  <clipPath id="p2dcecaaf5e">
   <rect x="94.81875" y="255.958594" width="446.4" height="201.6"/>
  </clipPath>
 </defs>
</svg>
