<?xml version="1.0" encoding="utf-8" standalone="no"?>
<!DOCTYPE svg PUBLIC "-//W3C//DTD SVG 1.1//EN"
  "http://www.w3.org/Graphics/SVG/1.1/DTD/svg11.dtd">
<svg xmlns:xlink="http://www.w3.org/1999/xlink" width="567.982187pt" height="565.441219pt" viewBox="0 0 567.982187 565.441219" xmlns="http://www.w3.org/2000/svg" version="1.1">
 <metadata>
  <rdf:RDF xmlns:dc="http://purl.org/dc/elements/1.1/" xmlns:cc="http://creativecommons.org/ns#" xmlns:rdf="http://www.w3.org/1999/02/22-rdf-syntax-ns#">
   <cc:Work>
    <dc:type rdf:resource="http://purl.org/dc/dcmitype/StillImage"/>
    <dc:date>2026-05-04T13:34:30.590850</dc:date>
    <dc:format>image/svg+xml</dc:format>
    <dc:creator>
     <cc:Agent>
      <dc:title>Matplotlib v3.10.8, https://matplotlib.org/</dc:title>
     </cc:Agent>
    </dc:creator>
   </cc:Work>
  </rdf:RDF>
 </metadata>
 <defs>
  <style type="text/css">*{stroke-linejoin: round; stroke-linecap: butt}</style>
 </defs>
 <g id="figure_1">
  <g id="patch_1">
   <path d="M 0 565.441219 
L 567.982187 565.441219 
L 567.982187 0 
L 0 0 
L 0 565.441219 
z
" style="fill: none"/>
  </g>
  <g id="axes_1">
   <g id="patch_2">
    <path d="M 64.092188 503.020594 
L 560.782187 503.020594 
L 560.782187 14.038594 
L 64.092188 14.038594 
L 64.092188 503.020594 
z
" style="fill: none"/>
   </g>
   <g id="PathCollection_1">
    <path d="M 0 568.684793 
C 0.860206 568.684793 1.685296 568.34303 2.293554 567.734772 
C 2.901811 567.126515 3.243575 566.301425 3.243575 565.441219 
C 3.243575 564.581013 2.901811 563.755923 2.293554 563.147665 
C 1.685296 562.539408 0.860206 562.197644 0 562.197644 
C -0.860206 562.197644 -1.685296 562.539408 -2.293554 563.147665 
C -2.901811 563.755923 -3.243575 564.581013 -3.243575 565.441219 
C -3.243575 566.301425 -2.901811 567.126515 -2.293554 567.734772 
C -1.685296 568.34303 -0.860206 568.684793 0 568.684793 
" clip-path="url(#pe6794b26fc)" style="fill: none; stroke: #000000"/>
   </g>
   <g id="PathCollection_2">
    <path d="M 0 569.57069 
C 1.095149 569.57069 2.14559 569.135583 2.919977 568.361196 
C 3.694364 567.586809 4.129471 566.536367 4.129471 565.441219 
C 4.129471 564.34607 3.694364 563.295629 2.919977 562.521242 
C 2.14559 561.746855 1.095149 561.311748 0 561.311748 
C -1.095149 561.311748 -2.14559 561.746855 -2.919977 562.521242 
C -3.694364 563.295629 -4.129471 564.34607 -4.129471 565.441219 
C -4.129471 566.536367 -3.694364 567.586809 -2.919977 568.361196 
C -2.14559 569.135583 -1.095149 569.57069 0 569.57069 
" clip-path="url(#pe6794b26fc)" style="fill: none; stroke: #000000"/>
   </g>
   <g id="PathCollection_3">
    <path d="M 0 571.581883 
C 1.628523 571.581883 3.190566 570.934864 4.342105 569.783324 
C 5.493645 568.631784 6.140664 567.069742 6.140664 565.441219 
C 6.140664 563.812696 5.493645 562.250653 4.342105 561.099113 
C 3.190566 559.947574 1.628523 559.300554 0 559.300554 
C -1.628523 559.300554 -3.190566 559.947574 -4.342105 561.099113 
C -5.493645 562.250653 -6.140664 563.812696 -6.140664 565.441219 
C -6.140664 567.069742 -5.493645 568.631784 -4.342105 569.783324 
C -3.190566 570.934864 -1.628523 571.581883 0 571.581883 
" clip-path="url(#pe6794b26fc)" style="fill: none; stroke: #000000"/>
   </g>
   <g id="matplotlib.axis_1">
    <g id="xtick_1">
     <g id="line2d_1">
      <defs>
       <path id="md7e6fba1ec" d="M 0 0 
L 0 3.5 
" style="stroke: #000000; stroke-width: 0.8"/>
      </defs>
      <g>
       <use xlink:href="#md7e6fba1ec" x="86.685131" y="503.020594" style="stroke: #000000; stroke-width: 0.8"/>
      </g>
     </g>
     <g id="text_1">
      <!-- −8 -->
      <g transform="translate(73.417163 523.697781) scale(0.18 -0.18)">
       <defs>
        <path id="DejaVuSans-2212" d="M 678 2272 
L 4684 2272 
L 4684 1741 
L 678 1741 
L 678 2272 
z
" transform="scale(0.015625)"/>
        <path id="DejaVuSans-38" d="M 2034 2216 
Q 1584 2216 1326 1975 
Q 1069 1734 1069 1313 
Q 1069 891 1326 650 
Q 1584 409 2034 409 
Q 2484 409 2743 651 
Q 3003 894 3003 1313 
Q 3003 1734 2745 1975 
Q 2488 2216 2034 2216 
z
M 1403 2484 
Q 997 2584 770 2862 
Q 544 3141 544 3541 
Q 544 4100 942 4425 
Q 1341 4750 2034 4750 
Q 2731 4750 3128 4425 
Q 3525 4100 3525 3541 
Q 3525 3141 3298 2862 
Q 3072 2584 2669 2484 
Q 3125 2378 3379 2068 
Q 3634 1759 3634 1313 
Q 3634 634 3220 271 
Q 2806 -91 2034 -91 
Q 1263 -91 848 271 
Q 434 634 434 1313 
Q 434 1759 690 2068 
Q 947 2378 1403 2484 
z
M 1172 3481 
Q 1172 3119 1398 2916 
Q 1625 2713 2034 2713 
Q 2441 2713 2670 2916 
Q 2900 3119 2900 3481 
Q 2900 3844 2670 4047 
Q 2441 4250 2034 4250 
Q 1625 4250 1398 4047 
Q 1172 3844 1172 3481 
z
" transform="scale(0.015625)"/>
       </defs>
       <use xlink:href="#DejaVuSans-2212"/>
       <use xlink:href="#DejaVuSans-38" transform="translate(83.789062 0)"/>
      </g>
     </g>
    </g>
    <g id="xtick_2">
     <g id="line2d_2">
      <g>
       <use xlink:href="#md7e6fba1ec" x="538.205369" y="503.020594" style="stroke: #000000; stroke-width: 0.8"/>
      </g>
     </g>
     <g id="text_2">
      <!-- 6 -->
      <g transform="translate(532.479119 523.697781) scale(0.18 -0.18)">
       <defs>
        <path id="DejaVuSans-36" d="M 2113 2584 
Q 1688 2584 1439 2293 
Q 1191 2003 1191 1497 
Q 1191 994 1439 701 
Q 1688 409 2113 409 
Q 2538 409 2786 701 
Q 3034 994 3034 1497 
Q 3034 2003 2786 2293 
Q 2538 2584 2113 2584 
z
M 3366 4563 
L 3366 3988 
Q 3128 4100 2886 4159 
Q 2644 4219 2406 4219 
Q 1781 4219 1451 3797 
Q 1122 3375 1075 2522 
Q 1259 2794 1537 2939 
Q 1816 3084 2150 3084 
Q 2853 3084 3261 2657 
Q 3669 2231 3669 1497 
Q 3669 778 3244 343 
Q 2819 -91 2113 -91 
Q 1303 -91 875 529 
Q 447 1150 447 2328 
Q 447 3434 972 4092 
Q 1497 4750 2381 4750 
Q 2619 4750 2861 4703 
Q 3103 4656 3366 4563 
z
" transform="scale(0.015625)"/>
       </defs>
       <use xlink:href="#DejaVuSans-36"/>
      </g>
     </g>
    </g>
    <g id="text_3">
     <!-- $\log_{2}\!\left(\frac{\mathrm{RNA}}{\mathrm{DNA}}\right)$ rep1 -->
     <g transform="translate(236.237188 550.441219) scale(0.2 -0.2)">
      <defs>
       <path id="DejaVuSans-6c" d="M 603 4863 
L 1178 4863 
L 1178 0 
L 603 0 
L 603 4863 
z
" transform="scale(0.015625)"/>
       <path id="DejaVuSans-6f" d="M 1959 3097 
Q 1497 3097 1228 2736 
Q 959 2375 959 1747 
Q 959 1119 1226 758 
Q 1494 397 1959 397 
Q 2419 397 2687 759 
Q 2956 1122 2956 1747 
Q 2956 2369 2687 2733 
Q 2419 3097 1959 3097 
z
M 1959 3584 
Q 2709 3584 3137 3096 
Q 3566 2609 3566 1747 
Q 3566 888 3137 398 
Q 2709 -91 1959 -91 
Q 1206 -91 779 398 
Q 353 888 353 1747 
Q 353 2609 779 3096 
Q 1206 3584 1959 3584 
z
" transform="scale(0.015625)"/>
       <path id="DejaVuSans-67" d="M 2906 1791 
Q 2906 2416 2648 2759 
Q 2391 3103 1925 3103 
Q 1463 3103 1205 2759 
Q 947 2416 947 1791 
Q 947 1169 1205 825 
Q 1463 481 1925 481 
Q 2391 481 2648 825 
Q 2906 1169 2906 1791 
z
M 3481 434 
Q 3481 -459 3084 -895 
Q 2688 -1331 1869 -1331 
Q 1566 -1331 1297 -1286 
Q 1028 -1241 775 -1147 
L 775 -588 
Q 1028 -725 1275 -790 
Q 1522 -856 1778 -856 
Q 2344 -856 2625 -561 
Q 2906 -266 2906 331 
L 2906 616 
Q 2728 306 2450 153 
Q 2172 0 1784 0 
Q 1141 0 747 490 
Q 353 981 353 1791 
Q 353 2603 747 3093 
Q 1141 3584 1784 3584 
Q 2172 3584 2450 3431 
Q 2728 3278 2906 2969 
L 2906 3500 
L 3481 3500 
L 3481 434 
z
" transform="scale(0.015625)"/>
       <path id="DejaVuSans-32" d="M 1228 531 
L 3431 531 
L 3431 0 
L 469 0 
L 469 531 
Q 828 903 1448 1529 
Q 2069 2156 2228 2338 
Q 2531 2678 2651 2914 
Q 2772 3150 2772 3378 
Q 2772 3750 2511 3984 
Q 2250 4219 1831 4219 
Q 1534 4219 1204 4116 
Q 875 4013 500 3803 
L 500 4441 
Q 881 4594 1212 4672 
Q 1544 4750 1819 4750 
Q 2544 4750 2975 4387 
Q 3406 4025 3406 3419 
Q 3406 3131 3298 2873 
Q 3191 2616 2906 2266 
Q 2828 2175 2409 1742 
Q 1991 1309 1228 531 
z
" transform="scale(0.015625)"/>
       <path id="STIXSizeOneSym-Regular-28" d="M 2445 -858 
L 2445 -1050 
Q 1728 -371 1309 630 
Q 890 1632 890 2886 
Q 890 4122 1309 5136 
Q 1728 6150 2445 6822 
L 2445 6630 
Q 1408 5363 1408 2886 
Q 1408 410 2445 -858 
z
" transform="scale(0.015625)"/>
       <path id="DejaVuSans-52" d="M 2841 2188 
Q 3044 2119 3236 1894 
Q 3428 1669 3622 1275 
L 4263 0 
L 3584 0 
L 2988 1197 
Q 2756 1666 2539 1819 
Q 2322 1972 1947 1972 
L 1259 1972 
L 1259 0 
L 628 0 
L 628 4666 
L 2053 4666 
Q 2853 4666 3247 4331 
Q 3641 3997 3641 3322 
Q 3641 2881 3436 2590 
Q 3231 2300 2841 2188 
z
M 1259 4147 
L 1259 2491 
L 2053 2491 
Q 2509 2491 2742 2702 
Q 2975 2913 2975 3322 
Q 2975 3731 2742 3939 
Q 2509 4147 2053 4147 
L 1259 4147 
z
" transform="scale(0.015625)"/>
       <path id="DejaVuSans-4e" d="M 628 4666 
L 1478 4666 
L 3547 763 
L 3547 4666 
L 4159 4666 
L 4159 0 
L 3309 0 
L 1241 3903 
L 1241 0 
L 628 0 
L 628 4666 
z
" transform="scale(0.015625)"/>
       <path id="DejaVuSans-41" d="M 2188 4044 
L 1331 1722 
L 3047 1722 
L 2188 4044 
z
M 1831 4666 
L 2547 4666 
L 4325 0 
L 3669 0 
L 3244 1197 
L 1141 1197 
L 716 0 
L 50 0 
L 1831 4666 
z
" transform="scale(0.015625)"/>
       <path id="DejaVuSans-44" d="M 1259 4147 
L 1259 519 
L 2022 519 
Q 2988 519 3436 956 
Q 3884 1394 3884 2338 
Q 3884 3275 3436 3711 
Q 2988 4147 2022 4147 
L 1259 4147 
z
M 628 4666 
L 1925 4666 
Q 3281 4666 3915 4102 
Q 4550 3538 4550 2338 
Q 4550 1131 3912 565 
Q 3275 0 1925 0 
L 628 0 
L 628 4666 
z
" transform="scale(0.015625)"/>
       <path id="STIXSizeOneSym-Regular-29" d="M 550 6630 
L 550 6822 
Q 1267 6144 1686 5142 
Q 2106 4141 2106 2886 
Q 2106 1651 1686 636 
Q 1267 -378 550 -1050 
L 550 -858 
Q 1587 410 1587 2886 
Q 1587 5363 550 6630 
z
" transform="scale(0.015625)"/>
       <path id="DejaVuSans-Bold-20" transform="scale(0.015625)"/>
       <path id="DejaVuSans-Bold-72" d="M 3138 2547 
Q 2991 2616 2845 2648 
Q 2700 2681 2553 2681 
Q 2122 2681 1889 2404 
Q 1656 2128 1656 1613 
L 1656 0 
L 538 0 
L 538 3500 
L 1656 3500 
L 1656 2925 
Q 1872 3269 2151 3426 
Q 2431 3584 2822 3584 
Q 2878 3584 2943 3579 
Q 3009 3575 3134 3559 
L 3138 2547 
z
" transform="scale(0.015625)"/>
       <path id="DejaVuSans-Bold-65" d="M 4031 1759 
L 4031 1441 
L 1416 1441 
Q 1456 1047 1700 850 
Q 1944 653 2381 653 
Q 2734 653 3104 758 
Q 3475 863 3866 1075 
L 3866 213 
Q 3469 63 3072 -14 
Q 2675 -91 2278 -91 
Q 1328 -91 801 392 
Q 275 875 275 1747 
Q 275 2603 792 3093 
Q 1309 3584 2216 3584 
Q 3041 3584 3536 3087 
Q 4031 2591 4031 1759 
z
M 2881 2131 
Q 2881 2450 2695 2645 
Q 2509 2841 2209 2841 
Q 1884 2841 1681 2658 
Q 1478 2475 1428 2131 
L 2881 2131 
z
" transform="scale(0.015625)"/>
       <path id="DejaVuSans-Bold-70" d="M 1656 506 
L 1656 -1331 
L 538 -1331 
L 538 3500 
L 1656 3500 
L 1656 2988 
Q 1888 3294 2169 3439 
Q 2450 3584 2816 3584 
Q 3463 3584 3878 3070 
Q 4294 2556 4294 1747 
Q 4294 938 3878 423 
Q 3463 -91 2816 -91 
Q 2450 -91 2169 54 
Q 1888 200 1656 506 
z
M 2400 2772 
Q 2041 2772 1848 2508 
Q 1656 2244 1656 1747 
Q 1656 1250 1848 986 
Q 2041 722 2400 722 
Q 2759 722 2948 984 
Q 3138 1247 3138 1747 
Q 3138 2247 2948 2509 
Q 2759 2772 2400 2772 
z
" transform="scale(0.015625)"/>
       <path id="DejaVuSans-Bold-31" d="M 750 831 
L 1813 831 
L 1813 3847 
L 722 3622 
L 722 4441 
L 1806 4666 
L 2950 4666 
L 2950 831 
L 4013 831 
L 4013 0 
L 750 0 
L 750 831 
z
" transform="scale(0.015625)"/>
      </defs>
      <use xlink:href="#DejaVuSans-6c" transform="translate(0 0.16875)"/>
      <use xlink:href="#DejaVuSans-6f" transform="translate(27.783203 0.16875)"/>
      <use xlink:href="#DejaVuSans-67" transform="translate(88.964844 0.16875)"/>
      <use xlink:href="#DejaVuSans-32" transform="translate(153.398438 -16.2375) scale(0.7)"/>
      <use xlink:href="#STIXSizeOneSym-Regular-28" transform="translate(200.668945 -20.5375) scale(1.083892)"/>
      <use xlink:href="#DejaVuSans-52" transform="translate(254.388443 43.965625) scale(0.7)"/>
      <use xlink:href="#DejaVuSans-4e" transform="translate(303.026138 43.965625) scale(0.7)"/>
      <use xlink:href="#DejaVuSans-41" transform="translate(355.38942 43.965625) scale(0.7)"/>
      <use xlink:href="#DejaVuSans-44" transform="translate(251.388443 -38.31875) scale(0.7)"/>
      <use xlink:href="#DejaVuSans-4e" transform="translate(305.28981 -38.31875) scale(0.7)"/>
      <use xlink:href="#DejaVuSans-41" transform="translate(357.653091 -38.31875) scale(0.7)"/>
      <use xlink:href="#STIXSizeOneSym-Regular-29" transform="translate(418.038834 -20.5375) scale(1.083892)"/>
      <use xlink:href="#DejaVuSans-Bold-20" transform="translate(468.758331 0.16875)"/>
      <use xlink:href="#DejaVuSans-Bold-72" transform="translate(503.572784 0.16875)"/>
      <use xlink:href="#DejaVuSans-Bold-65" transform="translate(552.889191 0.16875)"/>
      <use xlink:href="#DejaVuSans-Bold-70" transform="translate(620.711456 0.16875)"/>
      <use xlink:href="#DejaVuSans-Bold-31" transform="translate(692.293488 0.16875)"/>
      <path d="M 251.388443 18.965625 
L 251.388443 25.215625 
L 405.538834 25.215625 
L 405.538834 18.965625 
L 251.388443 18.965625 
z
"/>
     </g>
    </g>
   </g>
   <g id="matplotlib.axis_2">
    <g id="ytick_1">
     <g id="line2d_3">
      <defs>
       <path id="m8f2db812d1" d="M 0 0 
L -3.5 0 
" style="stroke: #000000; stroke-width: 0.8"/>
      </defs>
      <g>
       <use xlink:href="#m8f2db812d1" x="64.092188" y="503.020594" style="stroke: #000000; stroke-width: 0.8"/>
      </g>
     </g>
     <g id="text_4">
      <!-- −1 -->
      <g transform="translate(30.55625 509.859187) scale(0.18 -0.18)">
       <defs>
        <path id="DejaVuSans-31" d="M 794 531 
L 1825 531 
L 1825 4091 
L 703 3866 
L 703 4441 
L 1819 4666 
L 2450 4666 
L 2450 531 
L 3481 531 
L 3481 0 
L 794 0 
L 794 531 
z
" transform="scale(0.015625)"/>
       </defs>
       <use xlink:href="#DejaVuSans-2212"/>
       <use xlink:href="#DejaVuSans-31" transform="translate(83.789062 0)"/>
      </g>
     </g>
    </g>
    <g id="ytick_2">
     <g id="line2d_4">
      <g>
       <use xlink:href="#m8f2db812d1" x="64.092188" y="14.038594" style="stroke: #000000; stroke-width: 0.8"/>
      </g>
     </g>
     <g id="text_5">
      <!-- 1 -->
      <g transform="translate(45.639688 20.877187) scale(0.18 -0.18)">
       <use xlink:href="#DejaVuSans-31"/>
      </g>
     </g>
    </g>
    <g id="text_6">
     <!-- Pearson's correlation (r) -->
     <g transform="translate(22.396875 396.126469) rotate(-90) scale(0.2 -0.2)">
      <defs>
       <path id="DejaVuSans-Bold-50" d="M 588 4666 
L 2584 4666 
Q 3475 4666 3951 4270 
Q 4428 3875 4428 3144 
Q 4428 2409 3951 2014 
Q 3475 1619 2584 1619 
L 1791 1619 
L 1791 0 
L 588 0 
L 588 4666 
z
M 1791 3794 
L 1791 2491 
L 2456 2491 
Q 2806 2491 2997 2661 
Q 3188 2831 3188 3144 
Q 3188 3456 2997 3625 
Q 2806 3794 2456 3794 
L 1791 3794 
z
" transform="scale(0.015625)"/>
       <path id="DejaVuSans-Bold-61" d="M 2106 1575 
Q 1756 1575 1579 1456 
Q 1403 1338 1403 1106 
Q 1403 894 1545 773 
Q 1688 653 1941 653 
Q 2256 653 2472 879 
Q 2688 1106 2688 1447 
L 2688 1575 
L 2106 1575 
z
M 3816 1997 
L 3816 0 
L 2688 0 
L 2688 519 
Q 2463 200 2181 54 
Q 1900 -91 1497 -91 
Q 953 -91 614 226 
Q 275 544 275 1050 
Q 275 1666 698 1953 
Q 1122 2241 2028 2241 
L 2688 2241 
L 2688 2328 
Q 2688 2594 2478 2717 
Q 2269 2841 1825 2841 
Q 1466 2841 1156 2769 
Q 847 2697 581 2553 
L 581 3406 
Q 941 3494 1303 3539 
Q 1666 3584 2028 3584 
Q 2975 3584 3395 3211 
Q 3816 2838 3816 1997 
z
" transform="scale(0.015625)"/>
       <path id="DejaVuSans-Bold-73" d="M 3272 3391 
L 3272 2541 
Q 2913 2691 2578 2766 
Q 2244 2841 1947 2841 
Q 1628 2841 1473 2761 
Q 1319 2681 1319 2516 
Q 1319 2381 1436 2309 
Q 1553 2238 1856 2203 
L 2053 2175 
Q 2913 2066 3209 1816 
Q 3506 1566 3506 1031 
Q 3506 472 3093 190 
Q 2681 -91 1863 -91 
Q 1516 -91 1145 -36 
Q 775 19 384 128 
L 384 978 
Q 719 816 1070 734 
Q 1422 653 1784 653 
Q 2113 653 2278 743 
Q 2444 834 2444 1013 
Q 2444 1163 2330 1236 
Q 2216 1309 1875 1350 
L 1678 1375 
Q 931 1469 631 1722 
Q 331 1975 331 2491 
Q 331 3047 712 3315 
Q 1094 3584 1881 3584 
Q 2191 3584 2531 3537 
Q 2872 3491 3272 3391 
z
" transform="scale(0.015625)"/>
       <path id="DejaVuSans-Bold-6f" d="M 2203 2784 
Q 1831 2784 1636 2517 
Q 1441 2250 1441 1747 
Q 1441 1244 1636 976 
Q 1831 709 2203 709 
Q 2569 709 2762 976 
Q 2956 1244 2956 1747 
Q 2956 2250 2762 2517 
Q 2569 2784 2203 2784 
z
M 2203 3584 
Q 3106 3584 3614 3096 
Q 4122 2609 4122 1747 
Q 4122 884 3614 396 
Q 3106 -91 2203 -91 
Q 1297 -91 786 396 
Q 275 884 275 1747 
Q 275 2609 786 3096 
Q 1297 3584 2203 3584 
z
" transform="scale(0.015625)"/>
       <path id="DejaVuSans-Bold-6e" d="M 4056 2131 
L 4056 0 
L 2931 0 
L 2931 347 
L 2931 1631 
Q 2931 2084 2911 2256 
Q 2891 2428 2841 2509 
Q 2775 2619 2662 2680 
Q 2550 2741 2406 2741 
Q 2056 2741 1856 2470 
Q 1656 2200 1656 1722 
L 1656 0 
L 538 0 
L 538 3500 
L 1656 3500 
L 1656 2988 
Q 1909 3294 2193 3439 
Q 2478 3584 2822 3584 
Q 3428 3584 3742 3212 
Q 4056 2841 4056 2131 
z
" transform="scale(0.015625)"/>
       <path id="DejaVuSans-Bold-27" d="M 1350 4666 
L 1350 2931 
L 609 2931 
L 609 4666 
L 1350 4666 
z
" transform="scale(0.015625)"/>
       <path id="DejaVuSans-Bold-63" d="M 3366 3391 
L 3366 2478 
Q 3138 2634 2908 2709 
Q 2678 2784 2431 2784 
Q 1963 2784 1702 2511 
Q 1441 2238 1441 1747 
Q 1441 1256 1702 982 
Q 1963 709 2431 709 
Q 2694 709 2930 787 
Q 3166 866 3366 1019 
L 3366 103 
Q 3103 6 2833 -42 
Q 2563 -91 2291 -91 
Q 1344 -91 809 395 
Q 275 881 275 1747 
Q 275 2613 809 3098 
Q 1344 3584 2291 3584 
Q 2566 3584 2833 3536 
Q 3100 3488 3366 3391 
z
" transform="scale(0.015625)"/>
       <path id="DejaVuSans-Bold-6c" d="M 538 4863 
L 1656 4863 
L 1656 0 
L 538 0 
L 538 4863 
z
" transform="scale(0.015625)"/>
       <path id="DejaVuSans-Bold-74" d="M 1759 4494 
L 1759 3500 
L 2913 3500 
L 2913 2700 
L 1759 2700 
L 1759 1216 
Q 1759 972 1856 886 
Q 1953 800 2241 800 
L 2816 800 
L 2816 0 
L 1856 0 
Q 1194 0 917 276 
Q 641 553 641 1216 
L 641 2700 
L 84 2700 
L 84 3500 
L 641 3500 
L 641 4494 
L 1759 4494 
z
" transform="scale(0.015625)"/>
       <path id="DejaVuSans-Bold-69" d="M 538 3500 
L 1656 3500 
L 1656 0 
L 538 0 
L 538 3500 
z
M 538 4863 
L 1656 4863 
L 1656 3950 
L 538 3950 
L 538 4863 
z
" transform="scale(0.015625)"/>
       <path id="DejaVuSans-Bold-28" d="M 2413 -844 
L 1484 -844 
Q 1006 -72 778 623 
Q 550 1319 550 2003 
Q 550 2688 779 3389 
Q 1009 4091 1484 4856 
L 2413 4856 
Q 2013 4116 1813 3408 
Q 1613 2700 1613 2009 
Q 1613 1319 1811 609 
Q 2009 -100 2413 -844 
z
" transform="scale(0.015625)"/>
       <path id="DejaVuSans-Bold-29" d="M 513 -844 
Q 913 -100 1113 609 
Q 1313 1319 1313 2009 
Q 1313 2700 1113 3408 
Q 913 4116 513 4856 
L 1441 4856 
Q 1916 4091 2145 3389 
Q 2375 2688 2375 2003 
Q 2375 1319 2147 623 
Q 1919 -72 1441 -844 
L 513 -844 
z
" transform="scale(0.015625)"/>
      </defs>
      <use xlink:href="#DejaVuSans-Bold-50"/>
      <use xlink:href="#DejaVuSans-Bold-65" transform="translate(73.291016 0)"/>
      <use xlink:href="#DejaVuSans-Bold-61" transform="translate(141.113281 0)"/>
      <use xlink:href="#DejaVuSans-Bold-72" transform="translate(208.59375 0)"/>
      <use xlink:href="#DejaVuSans-Bold-73" transform="translate(257.910156 0)"/>
      <use xlink:href="#DejaVuSans-Bold-6f" transform="translate(317.431641 0)"/>
      <use xlink:href="#DejaVuSans-Bold-6e" transform="translate(386.132812 0)"/>
      <use xlink:href="#DejaVuSans-Bold-27" transform="translate(457.324219 0)"/>
      <use xlink:href="#DejaVuSans-Bold-73" transform="translate(487.939453 0)"/>
      <use xlink:href="#DejaVuSans-Bold-20" transform="translate(547.460938 0)"/>
      <use xlink:href="#DejaVuSans-Bold-63" transform="translate(582.275391 0)"/>
      <use xlink:href="#DejaVuSans-Bold-6f" transform="translate(641.552734 0)"/>
      <use xlink:href="#DejaVuSans-Bold-72" transform="translate(710.253906 0)"/>
      <use xlink:href="#DejaVuSans-Bold-72" transform="translate(759.570312 0)"/>
      <use xlink:href="#DejaVuSans-Bold-65" transform="translate(808.886719 0)"/>
      <use xlink:href="#DejaVuSans-Bold-6c" transform="translate(876.708984 0)"/>
      <use xlink:href="#DejaVuSans-Bold-61" transform="translate(910.986328 0)"/>
      <use xlink:href="#DejaVuSans-Bold-74" transform="translate(978.466797 0)"/>
      <use xlink:href="#DejaVuSans-Bold-69" transform="translate(1026.269531 0)"/>
      <use xlink:href="#DejaVuSans-Bold-6f" transform="translate(1060.546875 0)"/>
      <use xlink:href="#DejaVuSans-Bold-6e" transform="translate(1129.248047 0)"/>
      <use xlink:href="#DejaVuSans-Bold-20" transform="translate(1200.439453 0)"/>
      <use xlink:href="#DejaVuSans-Bold-28" transform="translate(1235.253906 0)"/>
      <use xlink:href="#DejaVuSans-Bold-72" transform="translate(1280.957031 0)"/>
      <use xlink:href="#DejaVuSans-Bold-29" transform="translate(1330.273438 0)"/>
     </g>
    </g>
   </g>
   <g id="line2d_5">
    <path d="M 280.177679 282.844619 
L 328.570973 184.919207 
L 360.822419 169.265714 
L 393.073864 142.15185 
L 425.32531 121.392508 
L 457.576755 126.468338 
L 538.205369 70.562683 
" clip-path="url(#pe6794b26fc)" style="fill: none; stroke: #ff0000; stroke-width: 2; stroke-linecap: square"/>
   </g>
   <g id="line2d_6">
    <path d="M 86.669006 284.376182 
L 135.0623 230.824705 
L 167.313745 246.191739 
L 199.565191 245.799126 
L 231.816636 241.024166 
L 264.068082 243.41377 
L 296.319528 230.756607 
L 473.702478 256.879101 
" clip-path="url(#pe6794b26fc)" style="fill: none; stroke: #808080; stroke-width: 2; stroke-linecap: square"/>
   </g>
   <g id="line2d_7">
    <path d="M 64.092188 258.529594 
L 560.782187 258.529594 
" clip-path="url(#pe6794b26fc)" style="fill: none; stroke-dasharray: 3.7,1.6; stroke-dashoffset: 0; stroke: #808080"/>
   </g>
   <g id="patch_3">
    <path d="M 64.092188 503.020594 
L 64.092188 14.038594 
" style="fill: none; stroke: #000000; stroke-linejoin: miter; stroke-linecap: square"/>
   </g>
   <g id="patch_4">
    <path d="M 64.092188 503.020594 
L 560.782187 503.020594 
" style="fill: none; stroke: #000000; stroke-linejoin: miter; stroke-linecap: square"/>
   </g>
   <g id="PathCollection_4">
    <path d="M 280.177679 287.298101 
C 281.358756 287.298101 282.491618 286.828854 283.326766 285.993706 
C 284.161914 285.158559 284.631161 284.025697 284.631161 282.844619 
C 284.631161 281.663542 284.161914 280.53068 283.326766 279.695532 
C 282.491618 278.860385 281.358756 278.391138 280.177679 278.391138 
C 278.996602 278.391138 277.86374 278.860385 277.028592 279.695532 
C 276.193444 280.53068 275.724197 281.663542 275.724197 282.844619 
C 275.724197 284.025697 276.193444 285.158559 277.028592 285.993706 
C 277.86374 286.828854 278.996602 287.298101 280.177679 287.298101 
z
" clip-path="url(#pe6794b26fc)" style="fill: #ff0000; fill-opacity: 0.8; stroke: #000000; stroke-opacity: 0.8"/>
    <path d="M 328.570973 190.964456 
C 330.174192 190.964456 331.711963 190.327491 332.84561 189.193844 
C 333.979257 188.060197 334.616222 186.522426 334.616222 184.919207 
C 334.616222 183.315988 333.979257 181.778217 332.84561 180.64457 
C 331.711963 179.510923 330.174192 178.873958 328.570973 178.873958 
C 326.967754 178.873958 325.429983 179.510923 324.296336 180.64457 
C 323.162689 181.778217 322.525724 183.315988 322.525724 184.919207 
C 322.525724 186.522426 323.162689 188.060197 324.296336 189.193844 
C 325.429983 190.327491 326.967754 190.964456 328.570973 190.964456 
z
" clip-path="url(#pe6794b26fc)" style="fill: #ff0000; fill-opacity: 0.8; stroke: #000000; stroke-opacity: 0.8"/>
    <path d="M 360.822419 173.851147 
C 362.03849 173.851147 363.204917 173.367997 364.06481 172.508105 
C 364.924702 171.648213 365.407852 170.481785 365.407852 169.265714 
C 365.407852 168.049643 364.924702 166.883215 364.06481 166.023323 
C 363.204917 165.163431 362.03849 164.680281 360.822419 164.680281 
C 359.606348 164.680281 358.43992 165.163431 357.580028 166.023323 
C 356.720136 166.883215 356.236986 168.049643 356.236986 169.265714 
C 356.236986 170.481785 356.720136 171.648213 357.580028 172.508105 
C 358.43992 173.367997 359.606348 173.851147 360.822419 173.851147 
z
" clip-path="url(#pe6794b26fc)" style="fill: #ff0000; fill-opacity: 0.8; stroke: #000000; stroke-opacity: 0.8"/>
    <path d="M 393.073864 146.085687 
C 394.11713 146.085687 395.117807 145.671193 395.855507 144.933493 
C 396.593208 144.195793 397.007702 143.195116 397.007702 142.15185 
C 397.007702 141.108584 396.593208 140.107907 395.855507 139.370207 
C 395.117807 138.632506 394.11713 138.218013 393.073864 138.218013 
C 392.030598 138.218013 391.029922 138.632506 390.292221 139.370207 
C 389.554521 140.107907 389.140027 141.108584 389.140027 142.15185 
C 389.140027 143.195116 389.554521 144.195793 390.292221 144.933493 
C 391.029922 145.671193 392.030598 146.085687 393.073864 146.085687 
z
" clip-path="url(#pe6794b26fc)" style="fill: #ff0000; fill-opacity: 0.8; stroke: #000000; stroke-opacity: 0.8"/>
    <path d="M 425.32531 125.023425 
C 426.28824 125.023425 427.211861 124.640848 427.892756 123.959954 
C 428.57365 123.279059 428.956227 122.355438 428.956227 121.392508 
C 428.956227 120.429578 428.57365 119.505957 427.892756 118.825062 
C 427.211861 118.144168 426.28824 117.761591 425.32531 117.761591 
C 424.362379 117.761591 423.438759 118.144168 422.757864 118.825062 
C 422.076969 119.505957 421.694393 120.429578 421.694393 121.392508 
C 421.694393 122.355438 422.076969 123.279059 422.757864 123.959954 
C 423.438759 124.640848 424.362379 125.023425 425.32531 125.023425 
z
" clip-path="url(#pe6794b26fc)" style="fill: #ff0000; fill-opacity: 0.8; stroke: #000000; stroke-opacity: 0.8"/>
    <path d="M 457.576755 129.834781 
C 458.469546 129.834781 459.325891 129.480071 459.95719 128.848773 
C 460.588488 128.217474 460.943198 127.361129 460.943198 126.468338 
C 460.943198 125.575547 460.588488 124.719203 459.95719 124.087904 
C 459.325891 123.456605 458.469546 123.101896 457.576755 123.101896 
C 456.683964 123.101896 455.82762 123.456605 455.196321 124.087904 
C 454.565023 124.719203 454.210313 125.575547 454.210313 126.468338 
C 454.210313 127.361129 454.565023 128.217474 455.196321 128.848773 
C 455.82762 129.480071 456.683964 129.834781 457.576755 129.834781 
z
" clip-path="url(#pe6794b26fc)" style="fill: #ff0000; fill-opacity: 0.8; stroke: #000000; stroke-opacity: 0.8"/>
    <path d="M 538.205369 73.826696 
C 539.070996 73.826696 539.901285 73.482779 540.513375 72.870689 
C 541.125466 72.258599 541.469383 71.428309 541.469383 70.562683 
C 541.469383 69.697057 541.125466 68.866767 540.513375 68.254677 
C 539.901285 67.642587 539.070996 67.29867 538.205369 67.29867 
C 537.339743 67.29867 536.509454 67.642587 535.897363 68.254677 
C 535.285273 68.866767 534.941356 69.697057 534.941356 70.562683 
C 534.941356 71.428309 535.285273 72.258599 535.897363 72.870689 
C 536.509454 73.482779 537.339743 73.826696 538.205369 73.826696 
z
" clip-path="url(#pe6794b26fc)" style="fill: #ff0000; fill-opacity: 0.8; stroke: #000000; stroke-opacity: 0.8"/>
   </g>
   <g id="PathCollection_5">
    <path d="M 86.669006 287.572852 
C 87.516772 287.572852 88.329931 287.23603 88.929393 286.636569 
C 89.528854 286.037107 89.865676 285.223948 89.865676 284.376182 
C 89.865676 283.528415 89.528854 282.715256 88.929393 282.115795 
C 88.329931 281.516333 87.516772 281.179512 86.669006 281.179512 
C 85.821239 281.179512 85.00808 281.516333 84.408619 282.115795 
C 83.809157 282.715256 83.472336 283.528415 83.472336 284.376182 
C 83.472336 285.223948 83.809157 286.037107 84.408619 286.636569 
C 85.00808 287.23603 85.821239 287.572852 86.669006 287.572852 
z
" clip-path="url(#pe6794b26fc)" style="fill: #808080; fill-opacity: 0.8; stroke: #000000; stroke-opacity: 0.8"/>
    <path d="M 135.0623 234.38801 
C 136.007299 234.38801 136.913721 234.012557 137.581937 233.344342 
C 138.250152 232.676126 138.625604 231.769704 138.625604 230.824705 
C 138.625604 229.879706 138.250152 228.973284 137.581937 228.305068 
C 136.913721 227.636853 136.007299 227.2614 135.0623 227.2614 
C 134.1173 227.2614 133.210878 227.636853 132.542663 228.305068 
C 131.874447 228.973284 131.498995 229.879706 131.498995 230.824705 
C 131.498995 231.769704 131.874447 232.676126 132.542663 233.344342 
C 133.210878 234.012557 134.1173 234.38801 135.0623 234.38801 
z
" clip-path="url(#pe6794b26fc)" style="fill: #808080; fill-opacity: 0.8; stroke: #000000; stroke-opacity: 0.8"/>
    <path d="M 167.313745 250.069083 
C 168.342029 250.069083 169.328335 249.660542 170.055441 248.933435 
C 170.782548 248.206329 171.191089 247.220023 171.191089 246.191739 
C 171.191089 245.163456 170.782548 244.17715 170.055441 243.450043 
C 169.328335 242.722937 168.342029 242.314396 167.313745 242.314396 
C 166.285462 242.314396 165.299156 242.722937 164.572049 243.450043 
C 163.844943 244.17715 163.436402 245.163456 163.436402 246.191739 
C 163.436402 247.220023 163.844943 248.206329 164.572049 248.933435 
C 165.299156 249.660542 166.285462 250.069083 167.313745 250.069083 
z
" clip-path="url(#pe6794b26fc)" style="fill: #808080; fill-opacity: 0.8; stroke: #000000; stroke-opacity: 0.8"/>
    <path d="M 199.565191 249.909308 
C 200.655224 249.909308 201.700759 249.476233 202.471528 248.705464 
C 203.242298 247.934694 203.675373 246.889159 203.675373 245.799126 
C 203.675373 244.709093 203.242298 243.663559 202.471528 242.892789 
C 201.700759 242.122019 200.655224 241.688945 199.565191 241.688945 
C 198.475158 241.688945 197.429623 242.122019 196.658854 242.892789 
C 195.888084 243.663559 195.455009 244.709093 195.455009 245.799126 
C 195.455009 246.889159 195.888084 247.934694 196.658854 248.705464 
C 197.429623 249.476233 198.475158 249.909308 199.565191 249.909308 
z
" clip-path="url(#pe6794b26fc)" style="fill: #808080; fill-opacity: 0.8; stroke: #000000; stroke-opacity: 0.8"/>
    <path d="M 231.816636 245.674625 
C 233.049953 245.674625 234.232921 245.184623 235.105008 244.312537 
C 235.977094 243.440451 236.467096 242.257482 236.467096 241.024166 
C 236.467096 239.79085 235.977094 238.607881 235.105008 237.735795 
C 234.232921 236.863708 233.049953 236.373707 231.816636 236.373707 
C 230.58332 236.373707 229.400351 236.863708 228.528265 237.735795 
C 227.656179 238.607881 227.166177 239.79085 227.166177 241.024166 
C 227.166177 242.257482 227.656179 243.440451 228.528265 244.312537 
C 229.400351 245.184623 230.58332 245.674625 231.816636 245.674625 
z
" clip-path="url(#pe6794b26fc)" style="fill: #808080; fill-opacity: 0.8; stroke: #000000; stroke-opacity: 0.8"/>
    <path d="M 264.068082 249.756741 
C 265.750258 249.756741 267.363762 249.088405 268.55324 247.898927 
C 269.742718 246.70945 270.411053 245.095945 270.411053 243.41377 
C 270.411053 241.731594 269.742718 240.118089 268.55324 238.928612 
C 267.363762 237.739134 265.750258 237.070799 264.068082 237.070799 
C 262.385906 237.070799 260.772402 237.739134 259.582924 238.928612 
C 258.393446 240.118089 257.725111 241.731594 257.725111 243.41377 
C 257.725111 245.095945 258.393446 246.70945 259.582924 247.898927 
C 260.772402 249.088405 262.385906 249.756741 264.068082 249.756741 
z
" clip-path="url(#pe6794b26fc)" style="fill: #808080; fill-opacity: 0.8; stroke: #000000; stroke-opacity: 0.8"/>
    <path d="M 296.319528 238.339483 
C 298.33053 238.339483 300.259437 237.540503 301.68143 236.11851 
C 303.103423 234.696517 303.902403 232.76761 303.902403 230.756607 
C 303.902403 228.745605 303.103423 226.816698 301.68143 225.394705 
C 300.259437 223.972712 298.33053 223.173732 296.319528 223.173732 
C 294.308526 223.173732 292.379618 223.972712 290.957625 225.394705 
C 289.535632 226.816698 288.736652 228.745605 288.736652 230.756607 
C 288.736652 232.76761 289.535632 234.696517 290.957625 236.11851 
C 292.379618 237.540503 294.308526 238.339483 296.319528 238.339483 
z
" clip-path="url(#pe6794b26fc)" style="fill: #808080; fill-opacity: 0.8; stroke: #000000; stroke-opacity: 0.8"/>
    <path d="M 473.702478 259.972794 
C 474.522935 259.972794 475.309899 259.646823 475.89005 259.066673 
C 476.470201 258.486522 476.796172 257.699558 476.796172 256.879101 
C 476.796172 256.058644 476.470201 255.27168 475.89005 254.691529 
C 475.309899 254.111378 474.522935 253.785407 473.702478 253.785407 
C 472.882021 253.785407 472.095057 254.111378 471.514907 254.691529 
C 470.934756 255.27168 470.608785 256.058644 470.608785 256.879101 
C 470.608785 257.699558 470.934756 258.486522 471.514907 259.066673 
C 472.095057 259.646823 472.882021 259.972794 473.702478 259.972794 
z
" clip-path="url(#pe6794b26fc)" style="fill: #808080; fill-opacity: 0.8; stroke: #000000; stroke-opacity: 0.8"/>
   </g>
   <g id="legend_1">
    <g id="text_7">
     <!-- Number of cCREs -->
     <g transform="translate(80.292188 43.915781) scale(0.18 -0.18)">
      <defs>
       <path id="DejaVuSans-75" d="M 544 1381 
L 544 3500 
L 1119 3500 
L 1119 1403 
Q 1119 906 1312 657 
Q 1506 409 1894 409 
Q 2359 409 2629 706 
Q 2900 1003 2900 1516 
L 2900 3500 
L 3475 3500 
L 3475 0 
L 2900 0 
L 2900 538 
Q 2691 219 2414 64 
Q 2138 -91 1772 -91 
Q 1169 -91 856 284 
Q 544 659 544 1381 
z
M 1991 3584 
L 1991 3584 
z
" transform="scale(0.015625)"/>
       <path id="DejaVuSans-6d" d="M 3328 2828 
Q 3544 3216 3844 3400 
Q 4144 3584 4550 3584 
Q 5097 3584 5394 3201 
Q 5691 2819 5691 2113 
L 5691 0 
L 5113 0 
L 5113 2094 
Q 5113 2597 4934 2840 
Q 4756 3084 4391 3084 
Q 3944 3084 3684 2787 
Q 3425 2491 3425 1978 
L 3425 0 
L 2847 0 
L 2847 2094 
Q 2847 2600 2669 2842 
Q 2491 3084 2119 3084 
Q 1678 3084 1418 2786 
Q 1159 2488 1159 1978 
L 1159 0 
L 581 0 
L 581 3500 
L 1159 3500 
L 1159 2956 
Q 1356 3278 1631 3431 
Q 1906 3584 2284 3584 
Q 2666 3584 2933 3390 
Q 3200 3197 3328 2828 
z
" transform="scale(0.015625)"/>
       <path id="DejaVuSans-62" d="M 3116 1747 
Q 3116 2381 2855 2742 
Q 2594 3103 2138 3103 
Q 1681 3103 1420 2742 
Q 1159 2381 1159 1747 
Q 1159 1113 1420 752 
Q 1681 391 2138 391 
Q 2594 391 2855 752 
Q 3116 1113 3116 1747 
z
M 1159 2969 
Q 1341 3281 1617 3432 
Q 1894 3584 2278 3584 
Q 2916 3584 3314 3078 
Q 3713 2572 3713 1747 
Q 3713 922 3314 415 
Q 2916 -91 2278 -91 
Q 1894 -91 1617 61 
Q 1341 213 1159 525 
L 1159 0 
L 581 0 
L 581 4863 
L 1159 4863 
L 1159 2969 
z
" transform="scale(0.015625)"/>
       <path id="DejaVuSans-65" d="M 3597 1894 
L 3597 1613 
L 953 1613 
Q 991 1019 1311 708 
Q 1631 397 2203 397 
Q 2534 397 2845 478 
Q 3156 559 3463 722 
L 3463 178 
Q 3153 47 2828 -22 
Q 2503 -91 2169 -91 
Q 1331 -91 842 396 
Q 353 884 353 1716 
Q 353 2575 817 3079 
Q 1281 3584 2069 3584 
Q 2775 3584 3186 3129 
Q 3597 2675 3597 1894 
z
M 3022 2063 
Q 3016 2534 2758 2815 
Q 2500 3097 2075 3097 
Q 1594 3097 1305 2825 
Q 1016 2553 972 2059 
L 3022 2063 
z
" transform="scale(0.015625)"/>
       <path id="DejaVuSans-72" d="M 2631 2963 
Q 2534 3019 2420 3045 
Q 2306 3072 2169 3072 
Q 1681 3072 1420 2755 
Q 1159 2438 1159 1844 
L 1159 0 
L 581 0 
L 581 3500 
L 1159 3500 
L 1159 2956 
Q 1341 3275 1631 3429 
Q 1922 3584 2338 3584 
Q 2397 3584 2469 3576 
Q 2541 3569 2628 3553 
L 2631 2963 
z
" transform="scale(0.015625)"/>
       <path id="DejaVuSans-20" transform="scale(0.015625)"/>
       <path id="DejaVuSans-66" d="M 2375 4863 
L 2375 4384 
L 1825 4384 
Q 1516 4384 1395 4259 
Q 1275 4134 1275 3809 
L 1275 3500 
L 2222 3500 
L 2222 3053 
L 1275 3053 
L 1275 0 
L 697 0 
L 697 3053 
L 147 3053 
L 147 3500 
L 697 3500 
L 697 3744 
Q 697 4328 969 4595 
Q 1241 4863 1831 4863 
L 2375 4863 
z
" transform="scale(0.015625)"/>
       <path id="DejaVuSans-63" d="M 3122 3366 
L 3122 2828 
Q 2878 2963 2633 3030 
Q 2388 3097 2138 3097 
Q 1578 3097 1268 2742 
Q 959 2388 959 1747 
Q 959 1106 1268 751 
Q 1578 397 2138 397 
Q 2388 397 2633 464 
Q 2878 531 3122 666 
L 3122 134 
Q 2881 22 2623 -34 
Q 2366 -91 2075 -91 
Q 1284 -91 818 406 
Q 353 903 353 1747 
Q 353 2603 823 3093 
Q 1294 3584 2113 3584 
Q 2378 3584 2631 3529 
Q 2884 3475 3122 3366 
z
" transform="scale(0.015625)"/>
       <path id="DejaVuSans-43" d="M 4122 4306 
L 4122 3641 
Q 3803 3938 3442 4084 
Q 3081 4231 2675 4231 
Q 1875 4231 1450 3742 
Q 1025 3253 1025 2328 
Q 1025 1406 1450 917 
Q 1875 428 2675 428 
Q 3081 428 3442 575 
Q 3803 722 4122 1019 
L 4122 359 
Q 3791 134 3420 21 
Q 3050 -91 2638 -91 
Q 1578 -91 968 557 
Q 359 1206 359 2328 
Q 359 3453 968 4101 
Q 1578 4750 2638 4750 
Q 3056 4750 3426 4639 
Q 3797 4528 4122 4306 
z
" transform="scale(0.015625)"/>
       <path id="DejaVuSans-45" d="M 628 4666 
L 3578 4666 
L 3578 4134 
L 1259 4134 
L 1259 2753 
L 3481 2753 
L 3481 2222 
L 1259 2222 
L 1259 531 
L 3634 531 
L 3634 0 
L 628 0 
L 628 4666 
z
" transform="scale(0.015625)"/>
       <path id="DejaVuSans-73" d="M 2834 3397 
L 2834 2853 
Q 2591 2978 2328 3040 
Q 2066 3103 1784 3103 
Q 1356 3103 1142 2972 
Q 928 2841 928 2578 
Q 928 2378 1081 2264 
Q 1234 2150 1697 2047 
L 1894 2003 
Q 2506 1872 2764 1633 
Q 3022 1394 3022 966 
Q 3022 478 2636 193 
Q 2250 -91 1575 -91 
Q 1294 -91 989 -36 
Q 684 19 347 128 
L 347 722 
Q 666 556 975 473 
Q 1284 391 1588 391 
Q 1994 391 2212 530 
Q 2431 669 2431 922 
Q 2431 1156 2273 1281 
Q 2116 1406 1581 1522 
L 1381 1569 
Q 847 1681 609 1914 
Q 372 2147 372 2553 
Q 372 3047 722 3315 
Q 1072 3584 1716 3584 
Q 2034 3584 2315 3537 
Q 2597 3491 2834 3397 
z
" transform="scale(0.015625)"/>
      </defs>
      <use xlink:href="#DejaVuSans-4e"/>
      <use xlink:href="#DejaVuSans-75" transform="translate(74.804688 0)"/>
      <use xlink:href="#DejaVuSans-6d" transform="translate(138.183594 0)"/>
      <use xlink:href="#DejaVuSans-62" transform="translate(235.595703 0)"/>
      <use xlink:href="#DejaVuSans-65" transform="translate(299.072266 0)"/>
      <use xlink:href="#DejaVuSans-72" transform="translate(360.595703 0)"/>
      <use xlink:href="#DejaVuSans-20" transform="translate(401.708984 0)"/>
      <use xlink:href="#DejaVuSans-6f" transform="translate(433.496094 0)"/>
      <use xlink:href="#DejaVuSans-66" transform="translate(494.677734 0)"/>
      <use xlink:href="#DejaVuSans-20" transform="translate(529.882812 0)"/>
      <use xlink:href="#DejaVuSans-63" transform="translate(561.669922 0)"/>
      <use xlink:href="#DejaVuSans-43" transform="translate(616.650391 0)"/>
      <use xlink:href="#DejaVuSans-52" transform="translate(686.474609 0)"/>
      <use xlink:href="#DejaVuSans-45" transform="translate(755.957031 0)"/>
      <use xlink:href="#DejaVuSans-73" transform="translate(819.140625 0)"/>
     </g>
    </g>
    <g id="PathCollection_6">
     <path d="M 102.956719 68.854981 
C 103.816925 68.854981 104.642015 68.513217 105.250272 67.90496 
C 105.85853 67.296702 106.200293 66.471612 106.200293 65.611406 
C 106.200293 64.7512 105.85853 63.92611 105.250272 63.317853 
C 104.642015 62.709595 103.816925 62.367832 102.956719 62.367832 
C 102.096513 62.367832 101.271423 62.709595 100.663165 63.317853 
C 100.054908 63.92611 99.713144 64.7512 99.713144 65.611406 
C 99.713144 66.471612 100.054908 67.296702 100.663165 67.90496 
C 101.271423 68.513217 102.096513 68.854981 102.956719 68.854981 
L 102.956719 68.854981 
z
" style="fill: none; stroke: #000000"/>
    </g>
    <g id="text_8">
     <!-- 100 -->
     <g transform="translate(135.356719 70.336406) scale(0.18 -0.18)">
      <defs>
       <path id="DejaVuSans-30" d="M 2034 4250 
Q 1547 4250 1301 3770 
Q 1056 3291 1056 2328 
Q 1056 1369 1301 889 
Q 1547 409 2034 409 
Q 2525 409 2770 889 
Q 3016 1369 3016 2328 
Q 3016 3291 2770 3770 
Q 2525 4250 2034 4250 
z
M 2034 4750 
Q 2819 4750 3233 4129 
Q 3647 3509 3647 2328 
Q 3647 1150 3233 529 
Q 2819 -91 2034 -91 
Q 1250 -91 836 529 
Q 422 1150 422 2328 
Q 422 3509 836 4129 
Q 1250 4750 2034 4750 
z
" transform="scale(0.015625)"/>
      </defs>
      <use xlink:href="#DejaVuSans-31"/>
      <use xlink:href="#DejaVuSans-30" transform="translate(63.623047 0)"/>
      <use xlink:href="#DejaVuSans-30" transform="translate(127.246094 0)"/>
     </g>
    </g>
    <g id="PathCollection_7">
     <path d="M 102.956719 96.161502 
C 104.051867 96.161502 105.102309 95.726395 105.876696 94.952008 
C 106.651083 94.177621 107.08619 93.12718 107.08619 92.032031 
C 107.08619 90.936883 106.651083 89.886441 105.876696 89.112054 
C 105.102309 88.337667 104.051867 87.90256 102.956719 87.90256 
C 101.86157 87.90256 100.811129 88.337667 100.036742 89.112054 
C 99.262355 89.886441 98.827248 90.936883 98.827248 92.032031 
C 98.827248 93.12718 99.262355 94.177621 100.036742 94.952008 
C 100.811129 95.726395 101.86157 96.161502 102.956719 96.161502 
L 102.956719 96.161502 
z
" style="fill: none; stroke: #000000"/>
    </g>
    <g id="text_9">
     <!-- 1000 -->
     <g transform="translate(135.356719 96.757031) scale(0.18 -0.18)">
      <use xlink:href="#DejaVuSans-31"/>
      <use xlink:href="#DejaVuSans-30" transform="translate(63.623047 0)"/>
      <use xlink:href="#DejaVuSans-30" transform="translate(127.246094 0)"/>
      <use xlink:href="#DejaVuSans-30" transform="translate(190.869141 0)"/>
     </g>
    </g>
    <g id="PathCollection_8">
     <path d="M 102.956719 124.593321 
C 104.585242 124.593321 106.147284 123.946301 107.298824 122.794762 
C 108.450364 121.643222 109.097383 120.081179 109.097383 118.452656 
C 109.097383 116.824133 108.450364 115.262091 107.298824 114.110551 
C 106.147284 112.959011 104.585242 112.311992 102.956719 112.311992 
C 101.328196 112.311992 99.766153 112.959011 98.614613 114.110551 
C 97.463074 115.262091 96.816054 116.824133 96.816054 118.452656 
C 96.816054 120.081179 97.463074 121.643222 98.614613 122.794762 
C 99.766153 123.946301 101.328196 124.593321 102.956719 124.593321 
L 102.956719 124.593321 
z
" style="fill: none; stroke: #000000"/>
    </g>
    <g id="text_10">
     <!-- 10000 -->
     <g transform="translate(135.356719 123.177656) scale(0.18 -0.18)">
      <use xlink:href="#DejaVuSans-31"/>
      <use xlink:href="#DejaVuSans-30" transform="translate(63.623047 0)"/>
      <use xlink:href="#DejaVuSans-30" transform="translate(127.246094 0)"/>
      <use xlink:href="#DejaVuSans-30" transform="translate(190.869141 0)"/>
      <use xlink:href="#DejaVuSans-30" transform="translate(254.492188 0)"/>
     </g>
    </g>
    <g id="line2d_8">
     <path d="M 84.956719 143.298281 
L 102.956719 143.298281 
L 120.956719 143.298281 
" style="fill: none; stroke: #ff0000; stroke-width: 2; stroke-linecap: square"/>
    </g>
    <g id="text_11">
     <!-- Active -->
     <g transform="translate(135.356719 149.598281) scale(0.18 -0.18)">
      <defs>
       <path id="DejaVuSans-74" d="M 1172 4494 
L 1172 3500 
L 2356 3500 
L 2356 3053 
L 1172 3053 
L 1172 1153 
Q 1172 725 1289 603 
Q 1406 481 1766 481 
L 2356 481 
L 2356 0 
L 1766 0 
Q 1100 0 847 248 
Q 594 497 594 1153 
L 594 3053 
L 172 3053 
L 172 3500 
L 594 3500 
L 594 4494 
L 1172 4494 
z
" transform="scale(0.015625)"/>
       <path id="DejaVuSans-69" d="M 603 3500 
L 1178 3500 
L 1178 0 
L 603 0 
L 603 3500 
z
M 603 4863 
L 1178 4863 
L 1178 4134 
L 603 4134 
L 603 4863 
z
" transform="scale(0.015625)"/>
       <path id="DejaVuSans-76" d="M 191 3500 
L 800 3500 
L 1894 563 
L 2988 3500 
L 3597 3500 
L 2284 0 
L 1503 0 
L 191 3500 
z
" transform="scale(0.015625)"/>
      </defs>
      <use xlink:href="#DejaVuSans-41"/>
      <use xlink:href="#DejaVuSans-63" transform="translate(66.658203 0)"/>
      <use xlink:href="#DejaVuSans-74" transform="translate(121.638672 0)"/>
      <use xlink:href="#DejaVuSans-69" transform="translate(160.847656 0)"/>
      <use xlink:href="#DejaVuSans-76" transform="translate(188.630859 0)"/>
      <use xlink:href="#DejaVuSans-65" transform="translate(247.810547 0)"/>
     </g>
    </g>
    <g id="line2d_9">
     <path d="M 84.956719 169.718906 
L 102.956719 169.718906 
L 120.956719 169.718906 
" style="fill: none; stroke: #808080; stroke-width: 2; stroke-linecap: square"/>
    </g>
    <g id="text_12">
     <!-- Non-active -->
     <g transform="translate(135.356719 176.018906) scale(0.18 -0.18)">
      <defs>
       <path id="DejaVuSans-6e" d="M 3513 2113 
L 3513 0 
L 2938 0 
L 2938 2094 
Q 2938 2591 2744 2837 
Q 2550 3084 2163 3084 
Q 1697 3084 1428 2787 
Q 1159 2491 1159 1978 
L 1159 0 
L 581 0 
L 581 3500 
L 1159 3500 
L 1159 2956 
Q 1366 3272 1645 3428 
Q 1925 3584 2291 3584 
Q 2894 3584 3203 3211 
Q 3513 2838 3513 2113 
z
" transform="scale(0.015625)"/>
       <path id="DejaVuSans-2d" d="M 313 2009 
L 1997 2009 
L 1997 1497 
L 313 1497 
L 313 2009 
z
" transform="scale(0.015625)"/>
       <path id="DejaVuSans-61" d="M 2194 1759 
Q 1497 1759 1228 1600 
Q 959 1441 959 1056 
Q 959 750 1161 570 
Q 1363 391 1709 391 
Q 2188 391 2477 730 
Q 2766 1069 2766 1631 
L 2766 1759 
L 2194 1759 
z
M 3341 1997 
L 3341 0 
L 2766 0 
L 2766 531 
Q 2569 213 2275 61 
Q 1981 -91 1556 -91 
Q 1019 -91 701 211 
Q 384 513 384 1019 
Q 384 1609 779 1909 
Q 1175 2209 1959 2209 
L 2766 2209 
L 2766 2266 
Q 2766 2663 2505 2880 
Q 2244 3097 1772 3097 
Q 1472 3097 1187 3025 
Q 903 2953 641 2809 
L 641 3341 
Q 956 3463 1253 3523 
Q 1550 3584 1831 3584 
Q 2591 3584 2966 3190 
Q 3341 2797 3341 1997 
z
" transform="scale(0.015625)"/>
      </defs>
      <use xlink:href="#DejaVuSans-4e"/>
      <use xlink:href="#DejaVuSans-6f" transform="translate(74.804688 0)"/>
      <use xlink:href="#DejaVuSans-6e" transform="translate(135.986328 0)"/>
      <use xlink:href="#DejaVuSans-2d" transform="translate(199.365234 0)"/>
      <use xlink:href="#DejaVuSans-61" transform="translate(235.449219 0)"/>
      <use xlink:href="#DejaVuSans-63" transform="translate(296.728516 0)"/>
      <use xlink:href="#DejaVuSans-74" transform="translate(351.708984 0)"/>
      <use xlink:href="#DejaVuSans-69" transform="translate(390.917969 0)"/>
      <use xlink:href="#DejaVuSans-76" transform="translate(418.701172 0)"/>
      <use xlink:href="#DejaVuSans-65" transform="translate(477.880859 0)"/>
     </g>
    </g>
   </g>
  </g>
 </g>
 <defs>
  <clipPath id="pe6794b26fc">
   <rect x="64.092188" y="14.038594" width="496.69" height="488.982"/>
  </clipPath>
 </defs>
</svg>
