<?xml version="1.0" encoding="utf-8" standalone="no"?>
<!DOCTYPE svg PUBLIC "-//W3C//DTD SVG 1.1//EN"
  "http://www.w3.org/Graphics/SVG/1.1/DTD/svg11.dtd">
<svg xmlns:xlink="http://www.w3.org/1999/xlink" width="852.850509pt" height="426.529087pt" viewBox="0 0 852.850509 426.529087" xmlns="http://www.w3.org/2000/svg" version="1.1">
 <metadata>
  <rdf:RDF xmlns:dc="http://purl.org/dc/elements/1.1/" xmlns:cc="http://creativecommons.org/ns#" xmlns:rdf="http://www.w3.org/1999/02/22-rdf-syntax-ns#">
   <cc:Work>
    <dc:type rdf:resource="http://purl.org/dc/dcmitype/StillImage"/>
    <dc:date>2025-12-21T10:15:49.703338</dc:date>
    <dc:format>image/svg+xml</dc:format>
    <dc:creator>
     <cc:Agent>
      <dc:title>Matplotlib v3.10.6, https://matplotlib.org/</dc:title>
     </cc:Agent>
    </dc:creator>
   </cc:Work>
  </rdf:RDF>
 </metadata>
 <defs>
  <style type="text/css">*{stroke-linejoin: round; stroke-linecap: butt}</style>
 </defs>
 <g id="figure_1">
  <g id="patch_1">
   <path d="M 0 426.529087 
L 852.850509 426.529087 
L 852.850509 0 
L 0 0 
L 0 426.529087 
z
" style="fill: none"/>
  </g>
  <g id="axes_1">
   <g id="patch_2">
    <path d="M 85.701593 282.758841 
L 845.650509 282.758841 
L 845.650509 17.05164 
L 85.701593 17.05164 
L 85.701593 282.758841 
z
" style="fill: none"/>
   </g>
   <g id="patch_3">
    <path d="M 92.034501 282.758841 
L 142.697762 282.758841 
L 142.697762 30.037188 
L 92.034501 30.037188 
z
" clip-path="url(#pcca85891cf)" style="fill: #49938b"/>
   </g>
   <g id="patch_4">
    <path d="M 155.363577 282.758841 
L 206.026838 282.758841 
L 206.026838 30.14957 
L 155.363577 30.14957 
z
" clip-path="url(#pcca85891cf)" style="fill: #49938b"/>
   </g>
   <g id="patch_5">
    <path d="M 218.692654 282.758841 
L 269.355915 282.758841 
L 269.355915 29.704364 
L 218.692654 29.704364 
z
" clip-path="url(#pcca85891cf)" style="fill: #49938b"/>
   </g>
   <g id="patch_6">
    <path d="M 282.02173 282.758841 
L 332.684991 282.758841 
L 332.684991 43.121071 
L 282.02173 43.121071 
z
" clip-path="url(#pcca85891cf)" style="fill: #49938b"/>
   </g>
   <g id="patch_7">
    <path d="M 345.350806 282.758841 
L 396.014067 282.758841 
L 396.014067 44.071997 
L 345.350806 44.071997 
z
" clip-path="url(#pcca85891cf)" style="fill: #49938b"/>
   </g>
   <g id="patch_8">
    <path d="M 408.679883 282.758841 
L 459.343144 282.758841 
L 459.343144 39.758249 
L 408.679883 39.758249 
z
" clip-path="url(#pcca85891cf)" style="fill: #49938b"/>
   </g>
   <g id="patch_9">
    <path d="M 472.008959 282.758841 
L 522.67222 282.758841 
L 522.67222 30.037188 
L 472.008959 30.037188 
z
" clip-path="url(#pcca85891cf)" style="fill: #31758e"/>
   </g>
   <g id="patch_10">
    <path d="M 535.338035 282.758841 
L 586.001296 282.758841 
L 586.001296 30.14957 
L 535.338035 30.14957 
z
" clip-path="url(#pcca85891cf)" style="fill: #31758e"/>
   </g>
   <g id="patch_11">
    <path d="M 598.667112 282.758841 
L 649.330373 282.758841 
L 649.330373 29.704364 
L 598.667112 29.704364 
z
" clip-path="url(#pcca85891cf)" style="fill: #31758e"/>
   </g>
   <g id="patch_12">
    <path d="M 661.996188 282.758841 
L 712.659449 282.758841 
L 712.659449 43.121071 
L 661.996188 43.121071 
z
" clip-path="url(#pcca85891cf)" style="fill: #31758e"/>
   </g>
   <g id="patch_13">
    <path d="M 725.325264 282.758841 
L 775.988525 282.758841 
L 775.988525 44.071997 
L 725.325264 44.071997 
z
" clip-path="url(#pcca85891cf)" style="fill: #31758e"/>
   </g>
   <g id="patch_14">
    <path d="M 788.654341 282.758841 
L 839.317602 282.758841 
L 839.317602 39.758249 
L 788.654341 39.758249 
z
" clip-path="url(#pcca85891cf)" style="fill: #31758e"/>
   </g>
   <g id="matplotlib.axis_1">
    <g id="xtick_1">
     <g id="line2d_1">
      <defs>
       <path id="m6a9f1df193" d="M 0 0 
L 0 3.5 
" style="stroke: #000000; stroke-width: 0.8"/>
      </defs>
      <g>
       <use xlink:href="#m6a9f1df193" x="117.366132" y="282.758841" style="stroke: #000000; stroke-width: 0.8"/>
      </g>
     </g>
     <g id="text_1">
      <!-- cCRE DNA rep1 -->
      <g transform="translate(16.871232 397.277962) rotate(-45) scale(0.18 -0.18)">
       <defs>
        <path id="DejaVuSans-63" d="M 3122 3366 
L 3122 2828 
Q 2878 2963 2633 3030 
Q 2388 3097 2138 3097 
Q 1578 3097 1268 2742 
Q 959 2388 959 1747 
Q 959 1106 1268 751 
Q 1578 397 2138 397 
Q 2388 397 2633 464 
Q 2878 531 3122 666 
L 3122 134 
Q 2881 22 2623 -34 
Q 2366 -91 2075 -91 
Q 1284 -91 818 406 
Q 353 903 353 1747 
Q 353 2603 823 3093 
Q 1294 3584 2113 3584 
Q 2378 3584 2631 3529 
Q 2884 3475 3122 3366 
z
" transform="scale(0.015625)"/>
        <path id="DejaVuSans-43" d="M 4122 4306 
L 4122 3641 
Q 3803 3938 3442 4084 
Q 3081 4231 2675 4231 
Q 1875 4231 1450 3742 
Q 1025 3253 1025 2328 
Q 1025 1406 1450 917 
Q 1875 428 2675 428 
Q 3081 428 3442 575 
Q 3803 722 4122 1019 
L 4122 359 
Q 3791 134 3420 21 
Q 3050 -91 2638 -91 
Q 1578 -91 968 557 
Q 359 1206 359 2328 
Q 359 3453 968 4101 
Q 1578 4750 2638 4750 
Q 3056 4750 3426 4639 
Q 3797 4528 4122 4306 
z
" transform="scale(0.015625)"/>
        <path id="DejaVuSans-52" d="M 2841 2188 
Q 3044 2119 3236 1894 
Q 3428 1669 3622 1275 
L 4263 0 
L 3584 0 
L 2988 1197 
Q 2756 1666 2539 1819 
Q 2322 1972 1947 1972 
L 1259 1972 
L 1259 0 
L 628 0 
L 628 4666 
L 2053 4666 
Q 2853 4666 3247 4331 
Q 3641 3997 3641 3322 
Q 3641 2881 3436 2590 
Q 3231 2300 2841 2188 
z
M 1259 4147 
L 1259 2491 
L 2053 2491 
Q 2509 2491 2742 2702 
Q 2975 2913 2975 3322 
Q 2975 3731 2742 3939 
Q 2509 4147 2053 4147 
L 1259 4147 
z
" transform="scale(0.015625)"/>
        <path id="DejaVuSans-45" d="M 628 4666 
L 3578 4666 
L 3578 4134 
L 1259 4134 
L 1259 2753 
L 3481 2753 
L 3481 2222 
L 1259 2222 
L 1259 531 
L 3634 531 
L 3634 0 
L 628 0 
L 628 4666 
z
" transform="scale(0.015625)"/>
        <path id="DejaVuSans-20" transform="scale(0.015625)"/>
        <path id="DejaVuSans-44" d="M 1259 4147 
L 1259 519 
L 2022 519 
Q 2988 519 3436 956 
Q 3884 1394 3884 2338 
Q 3884 3275 3436 3711 
Q 2988 4147 2022 4147 
L 1259 4147 
z
M 628 4666 
L 1925 4666 
Q 3281 4666 3915 4102 
Q 4550 3538 4550 2338 
Q 4550 1131 3912 565 
Q 3275 0 1925 0 
L 628 0 
L 628 4666 
z
" transform="scale(0.015625)"/>
        <path id="DejaVuSans-4e" d="M 628 4666 
L 1478 4666 
L 3547 763 
L 3547 4666 
L 4159 4666 
L 4159 0 
L 3309 0 
L 1241 3903 
L 1241 0 
L 628 0 
L 628 4666 
z
" transform="scale(0.015625)"/>
        <path id="DejaVuSans-41" d="M 2188 4044 
L 1331 1722 
L 3047 1722 
L 2188 4044 
z
M 1831 4666 
L 2547 4666 
L 4325 0 
L 3669 0 
L 3244 1197 
L 1141 1197 
L 716 0 
L 50 0 
L 1831 4666 
z
" transform="scale(0.015625)"/>
        <path id="DejaVuSans-72" d="M 2631 2963 
Q 2534 3019 2420 3045 
Q 2306 3072 2169 3072 
Q 1681 3072 1420 2755 
Q 1159 2438 1159 1844 
L 1159 0 
L 581 0 
L 581 3500 
L 1159 3500 
L 1159 2956 
Q 1341 3275 1631 3429 
Q 1922 3584 2338 3584 
Q 2397 3584 2469 3576 
Q 2541 3569 2628 3553 
L 2631 2963 
z
" transform="scale(0.015625)"/>
        <path id="DejaVuSans-65" d="M 3597 1894 
L 3597 1613 
L 953 1613 
Q 991 1019 1311 708 
Q 1631 397 2203 397 
Q 2534 397 2845 478 
Q 3156 559 3463 722 
L 3463 178 
Q 3153 47 2828 -22 
Q 2503 -91 2169 -91 
Q 1331 -91 842 396 
Q 353 884 353 1716 
Q 353 2575 817 3079 
Q 1281 3584 2069 3584 
Q 2775 3584 3186 3129 
Q 3597 2675 3597 1894 
z
M 3022 2063 
Q 3016 2534 2758 2815 
Q 2500 3097 2075 3097 
Q 1594 3097 1305 2825 
Q 1016 2553 972 2059 
L 3022 2063 
z
" transform="scale(0.015625)"/>
        <path id="DejaVuSans-70" d="M 1159 525 
L 1159 -1331 
L 581 -1331 
L 581 3500 
L 1159 3500 
L 1159 2969 
Q 1341 3281 1617 3432 
Q 1894 3584 2278 3584 
Q 2916 3584 3314 3078 
Q 3713 2572 3713 1747 
Q 3713 922 3314 415 
Q 2916 -91 2278 -91 
Q 1894 -91 1617 61 
Q 1341 213 1159 525 
z
M 3116 1747 
Q 3116 2381 2855 2742 
Q 2594 3103 2138 3103 
Q 1681 3103 1420 2742 
Q 1159 2381 1159 1747 
Q 1159 1113 1420 752 
Q 1681 391 2138 391 
Q 2594 391 2855 752 
Q 3116 1113 3116 1747 
z
" transform="scale(0.015625)"/>
        <path id="DejaVuSans-31" d="M 794 531 
L 1825 531 
L 1825 4091 
L 703 3866 
L 703 4441 
L 1819 4666 
L 2450 4666 
L 2450 531 
L 3481 531 
L 3481 0 
L 794 0 
L 794 531 
z
" transform="scale(0.015625)"/>
       </defs>
       <use xlink:href="#DejaVuSans-63"/>
       <use xlink:href="#DejaVuSans-43" transform="translate(54.980469 0)"/>
       <use xlink:href="#DejaVuSans-52" transform="translate(124.804688 0)"/>
       <use xlink:href="#DejaVuSans-45" transform="translate(194.287109 0)"/>
       <use xlink:href="#DejaVuSans-20" transform="translate(257.470703 0)"/>
       <use xlink:href="#DejaVuSans-44" transform="translate(289.257812 0)"/>
       <use xlink:href="#DejaVuSans-4e" transform="translate(366.259766 0)"/>
       <use xlink:href="#DejaVuSans-41" transform="translate(441.064453 0)"/>
       <use xlink:href="#DejaVuSans-20" transform="translate(509.472656 0)"/>
       <use xlink:href="#DejaVuSans-72" transform="translate(541.259766 0)"/>
       <use xlink:href="#DejaVuSans-65" transform="translate(580.123047 0)"/>
       <use xlink:href="#DejaVuSans-70" transform="translate(641.646484 0)"/>
       <use xlink:href="#DejaVuSans-31" transform="translate(705.123047 0)"/>
      </g>
     </g>
    </g>
    <g id="xtick_2">
     <g id="line2d_2">
      <g>
       <use xlink:href="#m6a9f1df193" x="180.695208" y="282.758841" style="stroke: #000000; stroke-width: 0.8"/>
      </g>
     </g>
     <g id="text_2">
      <!-- cCRE DNA rep2 -->
      <g transform="translate(80.200308 397.277962) rotate(-45) scale(0.18 -0.18)">
       <defs>
        <path id="DejaVuSans-32" d="M 1228 531 
L 3431 531 
L 3431 0 
L 469 0 
L 469 531 
Q 828 903 1448 1529 
Q 2069 2156 2228 2338 
Q 2531 2678 2651 2914 
Q 2772 3150 2772 3378 
Q 2772 3750 2511 3984 
Q 2250 4219 1831 4219 
Q 1534 4219 1204 4116 
Q 875 4013 500 3803 
L 500 4441 
Q 881 4594 1212 4672 
Q 1544 4750 1819 4750 
Q 2544 4750 2975 4387 
Q 3406 4025 3406 3419 
Q 3406 3131 3298 2873 
Q 3191 2616 2906 2266 
Q 2828 2175 2409 1742 
Q 1991 1309 1228 531 
z
" transform="scale(0.015625)"/>
       </defs>
       <use xlink:href="#DejaVuSans-63"/>
       <use xlink:href="#DejaVuSans-43" transform="translate(54.980469 0)"/>
       <use xlink:href="#DejaVuSans-52" transform="translate(124.804688 0)"/>
       <use xlink:href="#DejaVuSans-45" transform="translate(194.287109 0)"/>
       <use xlink:href="#DejaVuSans-20" transform="translate(257.470703 0)"/>
       <use xlink:href="#DejaVuSans-44" transform="translate(289.257812 0)"/>
       <use xlink:href="#DejaVuSans-4e" transform="translate(366.259766 0)"/>
       <use xlink:href="#DejaVuSans-41" transform="translate(441.064453 0)"/>
       <use xlink:href="#DejaVuSans-20" transform="translate(509.472656 0)"/>
       <use xlink:href="#DejaVuSans-72" transform="translate(541.259766 0)"/>
       <use xlink:href="#DejaVuSans-65" transform="translate(580.123047 0)"/>
       <use xlink:href="#DejaVuSans-70" transform="translate(641.646484 0)"/>
       <use xlink:href="#DejaVuSans-32" transform="translate(705.123047 0)"/>
      </g>
     </g>
    </g>
    <g id="xtick_3">
     <g id="line2d_3">
      <g>
       <use xlink:href="#m6a9f1df193" x="244.024284" y="282.758841" style="stroke: #000000; stroke-width: 0.8"/>
      </g>
     </g>
     <g id="text_3">
      <!-- cCRE DNA rep3 -->
      <g transform="translate(143.529385 397.277962) rotate(-45) scale(0.18 -0.18)">
       <defs>
        <path id="DejaVuSans-33" d="M 2597 2516 
Q 3050 2419 3304 2112 
Q 3559 1806 3559 1356 
Q 3559 666 3084 287 
Q 2609 -91 1734 -91 
Q 1441 -91 1130 -33 
Q 819 25 488 141 
L 488 750 
Q 750 597 1062 519 
Q 1375 441 1716 441 
Q 2309 441 2620 675 
Q 2931 909 2931 1356 
Q 2931 1769 2642 2001 
Q 2353 2234 1838 2234 
L 1294 2234 
L 1294 2753 
L 1863 2753 
Q 2328 2753 2575 2939 
Q 2822 3125 2822 3475 
Q 2822 3834 2567 4026 
Q 2313 4219 1838 4219 
Q 1578 4219 1281 4162 
Q 984 4106 628 3988 
L 628 4550 
Q 988 4650 1302 4700 
Q 1616 4750 1894 4750 
Q 2613 4750 3031 4423 
Q 3450 4097 3450 3541 
Q 3450 3153 3228 2886 
Q 3006 2619 2597 2516 
z
" transform="scale(0.015625)"/>
       </defs>
       <use xlink:href="#DejaVuSans-63"/>
       <use xlink:href="#DejaVuSans-43" transform="translate(54.980469 0)"/>
       <use xlink:href="#DejaVuSans-52" transform="translate(124.804688 0)"/>
       <use xlink:href="#DejaVuSans-45" transform="translate(194.287109 0)"/>
       <use xlink:href="#DejaVuSans-20" transform="translate(257.470703 0)"/>
       <use xlink:href="#DejaVuSans-44" transform="translate(289.257812 0)"/>
       <use xlink:href="#DejaVuSans-4e" transform="translate(366.259766 0)"/>
       <use xlink:href="#DejaVuSans-41" transform="translate(441.064453 0)"/>
       <use xlink:href="#DejaVuSans-20" transform="translate(509.472656 0)"/>
       <use xlink:href="#DejaVuSans-72" transform="translate(541.259766 0)"/>
       <use xlink:href="#DejaVuSans-65" transform="translate(580.123047 0)"/>
       <use xlink:href="#DejaVuSans-70" transform="translate(641.646484 0)"/>
       <use xlink:href="#DejaVuSans-33" transform="translate(705.123047 0)"/>
      </g>
     </g>
    </g>
    <g id="xtick_4">
     <g id="line2d_4">
      <g>
       <use xlink:href="#m6a9f1df193" x="307.353361" y="282.758841" style="stroke: #000000; stroke-width: 0.8"/>
      </g>
     </g>
     <g id="text_4">
      <!-- cCRE RNA rep1 -->
      <g transform="translate(207.815044 396.321379) rotate(-45) scale(0.18 -0.18)">
       <use xlink:href="#DejaVuSans-63"/>
       <use xlink:href="#DejaVuSans-43" transform="translate(54.980469 0)"/>
       <use xlink:href="#DejaVuSans-52" transform="translate(124.804688 0)"/>
       <use xlink:href="#DejaVuSans-45" transform="translate(194.287109 0)"/>
       <use xlink:href="#DejaVuSans-20" transform="translate(257.470703 0)"/>
       <use xlink:href="#DejaVuSans-52" transform="translate(289.257812 0)"/>
       <use xlink:href="#DejaVuSans-4e" transform="translate(358.740234 0)"/>
       <use xlink:href="#DejaVuSans-41" transform="translate(433.544922 0)"/>
       <use xlink:href="#DejaVuSans-20" transform="translate(501.953125 0)"/>
       <use xlink:href="#DejaVuSans-72" transform="translate(533.740234 0)"/>
       <use xlink:href="#DejaVuSans-65" transform="translate(572.603516 0)"/>
       <use xlink:href="#DejaVuSans-70" transform="translate(634.126953 0)"/>
       <use xlink:href="#DejaVuSans-31" transform="translate(697.603516 0)"/>
      </g>
     </g>
    </g>
    <g id="xtick_5">
     <g id="line2d_5">
      <g>
       <use xlink:href="#m6a9f1df193" x="370.682437" y="282.758841" style="stroke: #000000; stroke-width: 0.8"/>
      </g>
     </g>
     <g id="text_5">
      <!-- cCRE RNA rep2 -->
      <g transform="translate(271.14412 396.321379) rotate(-45) scale(0.18 -0.18)">
       <use xlink:href="#DejaVuSans-63"/>
       <use xlink:href="#DejaVuSans-43" transform="translate(54.980469 0)"/>
       <use xlink:href="#DejaVuSans-52" transform="translate(124.804688 0)"/>
       <use xlink:href="#DejaVuSans-45" transform="translate(194.287109 0)"/>
       <use xlink:href="#DejaVuSans-20" transform="translate(257.470703 0)"/>
       <use xlink:href="#DejaVuSans-52" transform="translate(289.257812 0)"/>
       <use xlink:href="#DejaVuSans-4e" transform="translate(358.740234 0)"/>
       <use xlink:href="#DejaVuSans-41" transform="translate(433.544922 0)"/>
       <use xlink:href="#DejaVuSans-20" transform="translate(501.953125 0)"/>
       <use xlink:href="#DejaVuSans-72" transform="translate(533.740234 0)"/>
       <use xlink:href="#DejaVuSans-65" transform="translate(572.603516 0)"/>
       <use xlink:href="#DejaVuSans-70" transform="translate(634.126953 0)"/>
       <use xlink:href="#DejaVuSans-32" transform="translate(697.603516 0)"/>
      </g>
     </g>
    </g>
    <g id="xtick_6">
     <g id="line2d_6">
      <g>
       <use xlink:href="#m6a9f1df193" x="434.011513" y="282.758841" style="stroke: #000000; stroke-width: 0.8"/>
      </g>
     </g>
     <g id="text_6">
      <!-- cCRE RNA rep3 -->
      <g transform="translate(334.473196 396.321379) rotate(-45) scale(0.18 -0.18)">
       <use xlink:href="#DejaVuSans-63"/>
       <use xlink:href="#DejaVuSans-43" transform="translate(54.980469 0)"/>
       <use xlink:href="#DejaVuSans-52" transform="translate(124.804688 0)"/>
       <use xlink:href="#DejaVuSans-45" transform="translate(194.287109 0)"/>
       <use xlink:href="#DejaVuSans-20" transform="translate(257.470703 0)"/>
       <use xlink:href="#DejaVuSans-52" transform="translate(289.257812 0)"/>
       <use xlink:href="#DejaVuSans-4e" transform="translate(358.740234 0)"/>
       <use xlink:href="#DejaVuSans-41" transform="translate(433.544922 0)"/>
       <use xlink:href="#DejaVuSans-20" transform="translate(501.953125 0)"/>
       <use xlink:href="#DejaVuSans-72" transform="translate(533.740234 0)"/>
       <use xlink:href="#DejaVuSans-65" transform="translate(572.603516 0)"/>
       <use xlink:href="#DejaVuSans-70" transform="translate(634.126953 0)"/>
       <use xlink:href="#DejaVuSans-33" transform="translate(697.603516 0)"/>
      </g>
     </g>
    </g>
    <g id="xtick_7">
     <g id="line2d_7">
      <g>
       <use xlink:href="#m6a9f1df193" x="497.34059" y="282.758841" style="stroke: #000000; stroke-width: 0.8"/>
      </g>
     </g>
     <g id="text_7">
      <!-- Barcode DNA rep1 -->
      <g transform="translate(377.441575 416.682077) rotate(-45) scale(0.18 -0.18)">
       <defs>
        <path id="DejaVuSans-42" d="M 1259 2228 
L 1259 519 
L 2272 519 
Q 2781 519 3026 730 
Q 3272 941 3272 1375 
Q 3272 1813 3026 2020 
Q 2781 2228 2272 2228 
L 1259 2228 
z
M 1259 4147 
L 1259 2741 
L 2194 2741 
Q 2656 2741 2882 2914 
Q 3109 3088 3109 3444 
Q 3109 3797 2882 3972 
Q 2656 4147 2194 4147 
L 1259 4147 
z
M 628 4666 
L 2241 4666 
Q 2963 4666 3353 4366 
Q 3744 4066 3744 3513 
Q 3744 3084 3544 2831 
Q 3344 2578 2956 2516 
Q 3422 2416 3680 2098 
Q 3938 1781 3938 1306 
Q 3938 681 3513 340 
Q 3088 0 2303 0 
L 628 0 
L 628 4666 
z
" transform="scale(0.015625)"/>
        <path id="DejaVuSans-61" d="M 2194 1759 
Q 1497 1759 1228 1600 
Q 959 1441 959 1056 
Q 959 750 1161 570 
Q 1363 391 1709 391 
Q 2188 391 2477 730 
Q 2766 1069 2766 1631 
L 2766 1759 
L 2194 1759 
z
M 3341 1997 
L 3341 0 
L 2766 0 
L 2766 531 
Q 2569 213 2275 61 
Q 1981 -91 1556 -91 
Q 1019 -91 701 211 
Q 384 513 384 1019 
Q 384 1609 779 1909 
Q 1175 2209 1959 2209 
L 2766 2209 
L 2766 2266 
Q 2766 2663 2505 2880 
Q 2244 3097 1772 3097 
Q 1472 3097 1187 3025 
Q 903 2953 641 2809 
L 641 3341 
Q 956 3463 1253 3523 
Q 1550 3584 1831 3584 
Q 2591 3584 2966 3190 
Q 3341 2797 3341 1997 
z
" transform="scale(0.015625)"/>
        <path id="DejaVuSans-6f" d="M 1959 3097 
Q 1497 3097 1228 2736 
Q 959 2375 959 1747 
Q 959 1119 1226 758 
Q 1494 397 1959 397 
Q 2419 397 2687 759 
Q 2956 1122 2956 1747 
Q 2956 2369 2687 2733 
Q 2419 3097 1959 3097 
z
M 1959 3584 
Q 2709 3584 3137 3096 
Q 3566 2609 3566 1747 
Q 3566 888 3137 398 
Q 2709 -91 1959 -91 
Q 1206 -91 779 398 
Q 353 888 353 1747 
Q 353 2609 779 3096 
Q 1206 3584 1959 3584 
z
" transform="scale(0.015625)"/>
        <path id="DejaVuSans-64" d="M 2906 2969 
L 2906 4863 
L 3481 4863 
L 3481 0 
L 2906 0 
L 2906 525 
Q 2725 213 2448 61 
Q 2172 -91 1784 -91 
Q 1150 -91 751 415 
Q 353 922 353 1747 
Q 353 2572 751 3078 
Q 1150 3584 1784 3584 
Q 2172 3584 2448 3432 
Q 2725 3281 2906 2969 
z
M 947 1747 
Q 947 1113 1208 752 
Q 1469 391 1925 391 
Q 2381 391 2643 752 
Q 2906 1113 2906 1747 
Q 2906 2381 2643 2742 
Q 2381 3103 1925 3103 
Q 1469 3103 1208 2742 
Q 947 2381 947 1747 
z
" transform="scale(0.015625)"/>
       </defs>
       <use xlink:href="#DejaVuSans-42"/>
       <use xlink:href="#DejaVuSans-61" transform="translate(68.603516 0)"/>
       <use xlink:href="#DejaVuSans-72" transform="translate(129.882812 0)"/>
       <use xlink:href="#DejaVuSans-63" transform="translate(168.746094 0)"/>
       <use xlink:href="#DejaVuSans-6f" transform="translate(223.726562 0)"/>
       <use xlink:href="#DejaVuSans-64" transform="translate(284.908203 0)"/>
       <use xlink:href="#DejaVuSans-65" transform="translate(348.384766 0)"/>
       <use xlink:href="#DejaVuSans-20" transform="translate(409.908203 0)"/>
       <use xlink:href="#DejaVuSans-44" transform="translate(441.695312 0)"/>
       <use xlink:href="#DejaVuSans-4e" transform="translate(518.697266 0)"/>
       <use xlink:href="#DejaVuSans-41" transform="translate(593.501953 0)"/>
       <use xlink:href="#DejaVuSans-20" transform="translate(661.910156 0)"/>
       <use xlink:href="#DejaVuSans-72" transform="translate(693.697266 0)"/>
       <use xlink:href="#DejaVuSans-65" transform="translate(732.560547 0)"/>
       <use xlink:href="#DejaVuSans-70" transform="translate(794.083984 0)"/>
       <use xlink:href="#DejaVuSans-31" transform="translate(857.560547 0)"/>
      </g>
     </g>
    </g>
    <g id="xtick_8">
     <g id="line2d_8">
      <g>
       <use xlink:href="#m6a9f1df193" x="560.669666" y="282.758841" style="stroke: #000000; stroke-width: 0.8"/>
      </g>
     </g>
     <g id="text_8">
      <!-- Barcode DNA rep2 -->
      <g transform="translate(440.770651 416.682077) rotate(-45) scale(0.18 -0.18)">
       <use xlink:href="#DejaVuSans-42"/>
       <use xlink:href="#DejaVuSans-61" transform="translate(68.603516 0)"/>
       <use xlink:href="#DejaVuSans-72" transform="translate(129.882812 0)"/>
       <use xlink:href="#DejaVuSans-63" transform="translate(168.746094 0)"/>
       <use xlink:href="#DejaVuSans-6f" transform="translate(223.726562 0)"/>
       <use xlink:href="#DejaVuSans-64" transform="translate(284.908203 0)"/>
       <use xlink:href="#DejaVuSans-65" transform="translate(348.384766 0)"/>
       <use xlink:href="#DejaVuSans-20" transform="translate(409.908203 0)"/>
       <use xlink:href="#DejaVuSans-44" transform="translate(441.695312 0)"/>
       <use xlink:href="#DejaVuSans-4e" transform="translate(518.697266 0)"/>
       <use xlink:href="#DejaVuSans-41" transform="translate(593.501953 0)"/>
       <use xlink:href="#DejaVuSans-20" transform="translate(661.910156 0)"/>
       <use xlink:href="#DejaVuSans-72" transform="translate(693.697266 0)"/>
       <use xlink:href="#DejaVuSans-65" transform="translate(732.560547 0)"/>
       <use xlink:href="#DejaVuSans-70" transform="translate(794.083984 0)"/>
       <use xlink:href="#DejaVuSans-32" transform="translate(857.560547 0)"/>
      </g>
     </g>
    </g>
    <g id="xtick_9">
     <g id="line2d_9">
      <g>
       <use xlink:href="#m6a9f1df193" x="623.998742" y="282.758841" style="stroke: #000000; stroke-width: 0.8"/>
      </g>
     </g>
     <g id="text_9">
      <!-- Barcode DNA rep3 -->
      <g transform="translate(504.099728 416.682077) rotate(-45) scale(0.18 -0.18)">
       <use xlink:href="#DejaVuSans-42"/>
       <use xlink:href="#DejaVuSans-61" transform="translate(68.603516 0)"/>
       <use xlink:href="#DejaVuSans-72" transform="translate(129.882812 0)"/>
       <use xlink:href="#DejaVuSans-63" transform="translate(168.746094 0)"/>
       <use xlink:href="#DejaVuSans-6f" transform="translate(223.726562 0)"/>
       <use xlink:href="#DejaVuSans-64" transform="translate(284.908203 0)"/>
       <use xlink:href="#DejaVuSans-65" transform="translate(348.384766 0)"/>
       <use xlink:href="#DejaVuSans-20" transform="translate(409.908203 0)"/>
       <use xlink:href="#DejaVuSans-44" transform="translate(441.695312 0)"/>
       <use xlink:href="#DejaVuSans-4e" transform="translate(518.697266 0)"/>
       <use xlink:href="#DejaVuSans-41" transform="translate(593.501953 0)"/>
       <use xlink:href="#DejaVuSans-20" transform="translate(661.910156 0)"/>
       <use xlink:href="#DejaVuSans-72" transform="translate(693.697266 0)"/>
       <use xlink:href="#DejaVuSans-65" transform="translate(732.560547 0)"/>
       <use xlink:href="#DejaVuSans-70" transform="translate(794.083984 0)"/>
       <use xlink:href="#DejaVuSans-33" transform="translate(857.560547 0)"/>
      </g>
     </g>
    </g>
    <g id="xtick_10">
     <g id="line2d_10">
      <g>
       <use xlink:href="#m6a9f1df193" x="687.327818" y="282.758841" style="stroke: #000000; stroke-width: 0.8"/>
      </g>
     </g>
     <g id="text_10">
      <!-- Barcode RNA rep1 -->
      <g transform="translate(568.385387 415.725494) rotate(-45) scale(0.18 -0.18)">
       <use xlink:href="#DejaVuSans-42"/>
       <use xlink:href="#DejaVuSans-61" transform="translate(68.603516 0)"/>
       <use xlink:href="#DejaVuSans-72" transform="translate(129.882812 0)"/>
       <use xlink:href="#DejaVuSans-63" transform="translate(168.746094 0)"/>
       <use xlink:href="#DejaVuSans-6f" transform="translate(223.726562 0)"/>
       <use xlink:href="#DejaVuSans-64" transform="translate(284.908203 0)"/>
       <use xlink:href="#DejaVuSans-65" transform="translate(348.384766 0)"/>
       <use xlink:href="#DejaVuSans-20" transform="translate(409.908203 0)"/>
       <use xlink:href="#DejaVuSans-52" transform="translate(441.695312 0)"/>
       <use xlink:href="#DejaVuSans-4e" transform="translate(511.177734 0)"/>
       <use xlink:href="#DejaVuSans-41" transform="translate(585.982422 0)"/>
       <use xlink:href="#DejaVuSans-20" transform="translate(654.390625 0)"/>
       <use xlink:href="#DejaVuSans-72" transform="translate(686.177734 0)"/>
       <use xlink:href="#DejaVuSans-65" transform="translate(725.041016 0)"/>
       <use xlink:href="#DejaVuSans-70" transform="translate(786.564453 0)"/>
       <use xlink:href="#DejaVuSans-31" transform="translate(850.041016 0)"/>
      </g>
     </g>
    </g>
    <g id="xtick_11">
     <g id="line2d_11">
      <g>
       <use xlink:href="#m6a9f1df193" x="750.656895" y="282.758841" style="stroke: #000000; stroke-width: 0.8"/>
      </g>
     </g>
     <g id="text_11">
      <!-- Barcode RNA rep2 -->
      <g transform="translate(631.714463 415.725494) rotate(-45) scale(0.18 -0.18)">
       <use xlink:href="#DejaVuSans-42"/>
       <use xlink:href="#DejaVuSans-61" transform="translate(68.603516 0)"/>
       <use xlink:href="#DejaVuSans-72" transform="translate(129.882812 0)"/>
       <use xlink:href="#DejaVuSans-63" transform="translate(168.746094 0)"/>
       <use xlink:href="#DejaVuSans-6f" transform="translate(223.726562 0)"/>
       <use xlink:href="#DejaVuSans-64" transform="translate(284.908203 0)"/>
       <use xlink:href="#DejaVuSans-65" transform="translate(348.384766 0)"/>
       <use xlink:href="#DejaVuSans-20" transform="translate(409.908203 0)"/>
       <use xlink:href="#DejaVuSans-52" transform="translate(441.695312 0)"/>
       <use xlink:href="#DejaVuSans-4e" transform="translate(511.177734 0)"/>
       <use xlink:href="#DejaVuSans-41" transform="translate(585.982422 0)"/>
       <use xlink:href="#DejaVuSans-20" transform="translate(654.390625 0)"/>
       <use xlink:href="#DejaVuSans-72" transform="translate(686.177734 0)"/>
       <use xlink:href="#DejaVuSans-65" transform="translate(725.041016 0)"/>
       <use xlink:href="#DejaVuSans-70" transform="translate(786.564453 0)"/>
       <use xlink:href="#DejaVuSans-32" transform="translate(850.041016 0)"/>
      </g>
     </g>
    </g>
    <g id="xtick_12">
     <g id="line2d_12">
      <g>
       <use xlink:href="#m6a9f1df193" x="813.985971" y="282.758841" style="stroke: #000000; stroke-width: 0.8"/>
      </g>
     </g>
     <g id="text_12">
      <!-- Barcode RNA rep3 -->
      <g transform="translate(695.043539 415.725494) rotate(-45) scale(0.18 -0.18)">
       <use xlink:href="#DejaVuSans-42"/>
       <use xlink:href="#DejaVuSans-61" transform="translate(68.603516 0)"/>
       <use xlink:href="#DejaVuSans-72" transform="translate(129.882812 0)"/>
       <use xlink:href="#DejaVuSans-63" transform="translate(168.746094 0)"/>
       <use xlink:href="#DejaVuSans-6f" transform="translate(223.726562 0)"/>
       <use xlink:href="#DejaVuSans-64" transform="translate(284.908203 0)"/>
       <use xlink:href="#DejaVuSans-65" transform="translate(348.384766 0)"/>
       <use xlink:href="#DejaVuSans-20" transform="translate(409.908203 0)"/>
       <use xlink:href="#DejaVuSans-52" transform="translate(441.695312 0)"/>
       <use xlink:href="#DejaVuSans-4e" transform="translate(511.177734 0)"/>
       <use xlink:href="#DejaVuSans-41" transform="translate(585.982422 0)"/>
       <use xlink:href="#DejaVuSans-20" transform="translate(654.390625 0)"/>
       <use xlink:href="#DejaVuSans-72" transform="translate(686.177734 0)"/>
       <use xlink:href="#DejaVuSans-65" transform="translate(725.041016 0)"/>
       <use xlink:href="#DejaVuSans-70" transform="translate(786.564453 0)"/>
       <use xlink:href="#DejaVuSans-33" transform="translate(850.041016 0)"/>
      </g>
     </g>
    </g>
   </g>
   <g id="matplotlib.axis_2">
    <g id="ytick_1">
     <g id="line2d_13">
      <defs>
       <path id="ma45b2481ad" d="M 0 0 
L -3.5 0 
" style="stroke: #000000; stroke-width: 0.8"/>
      </defs>
      <g>
       <use xlink:href="#ma45b2481ad" x="85.701593" y="282.758841" style="stroke: #000000; stroke-width: 0.8"/>
      </g>
     </g>
     <g id="text_13">
      <!-- 0 -->
      <g transform="translate(67.249093 289.597434) scale(0.18 -0.18)">
       <defs>
        <path id="DejaVuSans-30" d="M 2034 4250 
Q 1547 4250 1301 3770 
Q 1056 3291 1056 2328 
Q 1056 1369 1301 889 
Q 1547 409 2034 409 
Q 2525 409 2770 889 
Q 3016 1369 3016 2328 
Q 3016 3291 2770 3770 
Q 2525 4250 2034 4250 
z
M 2034 4750 
Q 2819 4750 3233 4129 
Q 3647 3509 3647 2328 
Q 3647 1150 3233 529 
Q 2819 -91 2034 -91 
Q 1250 -91 836 529 
Q 422 1150 422 2328 
Q 422 3509 836 4129 
Q 1250 4750 2034 4750 
z
" transform="scale(0.015625)"/>
       </defs>
       <use xlink:href="#DejaVuSans-30"/>
      </g>
     </g>
    </g>
    <g id="ytick_2">
     <g id="line2d_14">
      <g>
       <use xlink:href="#ma45b2481ad" x="85.701593" y="28.571897" style="stroke: #000000; stroke-width: 0.8"/>
      </g>
     </g>
     <g id="text_14">
      <!-- 1 -->
      <g transform="translate(67.249093 35.410491) scale(0.18 -0.18)">
       <use xlink:href="#DejaVuSans-31"/>
      </g>
     </g>
    </g>
    <g id="text_15">
     <!-- Percentage retained -->
     <g transform="translate(58.933468 265.458365) rotate(-90) scale(0.2 -0.2)">
      <defs>
       <path id="DejaVuSans-Bold-50" d="M 588 4666 
L 2584 4666 
Q 3475 4666 3951 4270 
Q 4428 3875 4428 3144 
Q 4428 2409 3951 2014 
Q 3475 1619 2584 1619 
L 1791 1619 
L 1791 0 
L 588 0 
L 588 4666 
z
M 1791 3794 
L 1791 2491 
L 2456 2491 
Q 2806 2491 2997 2661 
Q 3188 2831 3188 3144 
Q 3188 3456 2997 3625 
Q 2806 3794 2456 3794 
L 1791 3794 
z
" transform="scale(0.015625)"/>
       <path id="DejaVuSans-Bold-65" d="M 4031 1759 
L 4031 1441 
L 1416 1441 
Q 1456 1047 1700 850 
Q 1944 653 2381 653 
Q 2734 653 3104 758 
Q 3475 863 3866 1075 
L 3866 213 
Q 3469 63 3072 -14 
Q 2675 -91 2278 -91 
Q 1328 -91 801 392 
Q 275 875 275 1747 
Q 275 2603 792 3093 
Q 1309 3584 2216 3584 
Q 3041 3584 3536 3087 
Q 4031 2591 4031 1759 
z
M 2881 2131 
Q 2881 2450 2695 2645 
Q 2509 2841 2209 2841 
Q 1884 2841 1681 2658 
Q 1478 2475 1428 2131 
L 2881 2131 
z
" transform="scale(0.015625)"/>
       <path id="DejaVuSans-Bold-72" d="M 3138 2547 
Q 2991 2616 2845 2648 
Q 2700 2681 2553 2681 
Q 2122 2681 1889 2404 
Q 1656 2128 1656 1613 
L 1656 0 
L 538 0 
L 538 3500 
L 1656 3500 
L 1656 2925 
Q 1872 3269 2151 3426 
Q 2431 3584 2822 3584 
Q 2878 3584 2943 3579 
Q 3009 3575 3134 3559 
L 3138 2547 
z
" transform="scale(0.015625)"/>
       <path id="DejaVuSans-Bold-63" d="M 3366 3391 
L 3366 2478 
Q 3138 2634 2908 2709 
Q 2678 2784 2431 2784 
Q 1963 2784 1702 2511 
Q 1441 2238 1441 1747 
Q 1441 1256 1702 982 
Q 1963 709 2431 709 
Q 2694 709 2930 787 
Q 3166 866 3366 1019 
L 3366 103 
Q 3103 6 2833 -42 
Q 2563 -91 2291 -91 
Q 1344 -91 809 395 
Q 275 881 275 1747 
Q 275 2613 809 3098 
Q 1344 3584 2291 3584 
Q 2566 3584 2833 3536 
Q 3100 3488 3366 3391 
z
" transform="scale(0.015625)"/>
       <path id="DejaVuSans-Bold-6e" d="M 4056 2131 
L 4056 0 
L 2931 0 
L 2931 347 
L 2931 1631 
Q 2931 2084 2911 2256 
Q 2891 2428 2841 2509 
Q 2775 2619 2662 2680 
Q 2550 2741 2406 2741 
Q 2056 2741 1856 2470 
Q 1656 2200 1656 1722 
L 1656 0 
L 538 0 
L 538 3500 
L 1656 3500 
L 1656 2988 
Q 1909 3294 2193 3439 
Q 2478 3584 2822 3584 
Q 3428 3584 3742 3212 
Q 4056 2841 4056 2131 
z
" transform="scale(0.015625)"/>
       <path id="DejaVuSans-Bold-74" d="M 1759 4494 
L 1759 3500 
L 2913 3500 
L 2913 2700 
L 1759 2700 
L 1759 1216 
Q 1759 972 1856 886 
Q 1953 800 2241 800 
L 2816 800 
L 2816 0 
L 1856 0 
Q 1194 0 917 276 
Q 641 553 641 1216 
L 641 2700 
L 84 2700 
L 84 3500 
L 641 3500 
L 641 4494 
L 1759 4494 
z
" transform="scale(0.015625)"/>
       <path id="DejaVuSans-Bold-61" d="M 2106 1575 
Q 1756 1575 1579 1456 
Q 1403 1338 1403 1106 
Q 1403 894 1545 773 
Q 1688 653 1941 653 
Q 2256 653 2472 879 
Q 2688 1106 2688 1447 
L 2688 1575 
L 2106 1575 
z
M 3816 1997 
L 3816 0 
L 2688 0 
L 2688 519 
Q 2463 200 2181 54 
Q 1900 -91 1497 -91 
Q 953 -91 614 226 
Q 275 544 275 1050 
Q 275 1666 698 1953 
Q 1122 2241 2028 2241 
L 2688 2241 
L 2688 2328 
Q 2688 2594 2478 2717 
Q 2269 2841 1825 2841 
Q 1466 2841 1156 2769 
Q 847 2697 581 2553 
L 581 3406 
Q 941 3494 1303 3539 
Q 1666 3584 2028 3584 
Q 2975 3584 3395 3211 
Q 3816 2838 3816 1997 
z
" transform="scale(0.015625)"/>
       <path id="DejaVuSans-Bold-67" d="M 2919 594 
Q 2688 288 2409 144 
Q 2131 0 1766 0 
Q 1125 0 706 504 
Q 288 1009 288 1791 
Q 288 2575 706 3076 
Q 1125 3578 1766 3578 
Q 2131 3578 2409 3434 
Q 2688 3291 2919 2981 
L 2919 3500 
L 4044 3500 
L 4044 353 
Q 4044 -491 3511 -936 
Q 2978 -1381 1966 -1381 
Q 1638 -1381 1331 -1331 
Q 1025 -1281 716 -1178 
L 716 -306 
Q 1009 -475 1290 -558 
Q 1572 -641 1856 -641 
Q 2406 -641 2662 -400 
Q 2919 -159 2919 353 
L 2919 594 
z
M 2181 2772 
Q 1834 2772 1640 2515 
Q 1447 2259 1447 1791 
Q 1447 1309 1634 1061 
Q 1822 813 2181 813 
Q 2531 813 2725 1069 
Q 2919 1325 2919 1791 
Q 2919 2259 2725 2515 
Q 2531 2772 2181 2772 
z
" transform="scale(0.015625)"/>
       <path id="DejaVuSans-Bold-20" transform="scale(0.015625)"/>
       <path id="DejaVuSans-Bold-69" d="M 538 3500 
L 1656 3500 
L 1656 0 
L 538 0 
L 538 3500 
z
M 538 4863 
L 1656 4863 
L 1656 3950 
L 538 3950 
L 538 4863 
z
" transform="scale(0.015625)"/>
       <path id="DejaVuSans-Bold-64" d="M 2919 2988 
L 2919 4863 
L 4044 4863 
L 4044 0 
L 2919 0 
L 2919 506 
Q 2688 197 2409 53 
Q 2131 -91 1766 -91 
Q 1119 -91 703 423 
Q 288 938 288 1747 
Q 288 2556 703 3070 
Q 1119 3584 1766 3584 
Q 2128 3584 2408 3439 
Q 2688 3294 2919 2988 
z
M 2181 722 
Q 2541 722 2730 984 
Q 2919 1247 2919 1747 
Q 2919 2247 2730 2509 
Q 2541 2772 2181 2772 
Q 1825 2772 1636 2509 
Q 1447 2247 1447 1747 
Q 1447 1247 1636 984 
Q 1825 722 2181 722 
z
" transform="scale(0.015625)"/>
      </defs>
      <use xlink:href="#DejaVuSans-Bold-50"/>
      <use xlink:href="#DejaVuSans-Bold-65" transform="translate(73.291016 0)"/>
      <use xlink:href="#DejaVuSans-Bold-72" transform="translate(141.113281 0)"/>
      <use xlink:href="#DejaVuSans-Bold-63" transform="translate(190.429688 0)"/>
      <use xlink:href="#DejaVuSans-Bold-65" transform="translate(249.707031 0)"/>
      <use xlink:href="#DejaVuSans-Bold-6e" transform="translate(317.529297 0)"/>
      <use xlink:href="#DejaVuSans-Bold-74" transform="translate(388.720703 0)"/>
      <use xlink:href="#DejaVuSans-Bold-61" transform="translate(436.523438 0)"/>
      <use xlink:href="#DejaVuSans-Bold-67" transform="translate(504.003906 0)"/>
      <use xlink:href="#DejaVuSans-Bold-65" transform="translate(575.585938 0)"/>
      <use xlink:href="#DejaVuSans-Bold-20" transform="translate(643.408203 0)"/>
      <use xlink:href="#DejaVuSans-Bold-72" transform="translate(678.222656 0)"/>
      <use xlink:href="#DejaVuSans-Bold-65" transform="translate(727.539062 0)"/>
      <use xlink:href="#DejaVuSans-Bold-74" transform="translate(795.361328 0)"/>
      <use xlink:href="#DejaVuSans-Bold-61" transform="translate(843.164062 0)"/>
      <use xlink:href="#DejaVuSans-Bold-69" transform="translate(910.644531 0)"/>
      <use xlink:href="#DejaVuSans-Bold-6e" transform="translate(944.921875 0)"/>
      <use xlink:href="#DejaVuSans-Bold-65" transform="translate(1016.113281 0)"/>
      <use xlink:href="#DejaVuSans-Bold-64" transform="translate(1083.935547 0)"/>
     </g>
    </g>
   </g>
   <g id="patch_15">
    <path d="M 85.701593 282.758841 
L 85.701593 17.05164 
" style="fill: none; stroke: #000000; stroke-linejoin: miter; stroke-linecap: square"/>
   </g>
   <g id="patch_16">
    <path d="M 85.701593 282.758841 
L 845.650509 282.758841 
" style="fill: none; stroke: #000000; stroke-linejoin: miter; stroke-linecap: square"/>
   </g>
   <g id="text_16">
    <!-- 99% -->
    <g transform="translate(95.823788 21.210012) scale(0.18 -0.18)">
     <defs>
      <path id="DejaVuSans-Bold-39" d="M 641 103 
L 641 966 
Q 928 831 1190 764 
Q 1453 697 1709 697 
Q 2247 697 2547 995 
Q 2847 1294 2900 1881 
Q 2688 1725 2447 1647 
Q 2206 1569 1925 1569 
Q 1209 1569 770 1986 
Q 331 2403 331 3084 
Q 331 3838 820 4291 
Q 1309 4744 2131 4744 
Q 3044 4744 3544 4128 
Q 4044 3513 4044 2388 
Q 4044 1231 3459 570 
Q 2875 -91 1856 -91 
Q 1528 -91 1228 -42 
Q 928 6 641 103 
z
M 2125 2350 
Q 2441 2350 2600 2554 
Q 2759 2759 2759 3169 
Q 2759 3575 2600 3781 
Q 2441 3988 2125 3988 
Q 1809 3988 1650 3781 
Q 1491 3575 1491 3169 
Q 1491 2759 1650 2554 
Q 1809 2350 2125 2350 
z
" transform="scale(0.015625)"/>
      <path id="DejaVuSans-Bold-25" d="M 4959 1925 
Q 4738 1925 4616 1733 
Q 4494 1541 4494 1184 
Q 4494 825 4614 633 
Q 4734 441 4959 441 
Q 5184 441 5303 633 
Q 5422 825 5422 1184 
Q 5422 1541 5301 1733 
Q 5181 1925 4959 1925 
z
M 4959 2450 
Q 5541 2450 5875 2112 
Q 6209 1775 6209 1184 
Q 6209 594 5875 251 
Q 5541 -91 4959 -91 
Q 4378 -91 4042 251 
Q 3706 594 3706 1184 
Q 3706 1772 4042 2111 
Q 4378 2450 4959 2450 
z
M 2094 -91 
L 1403 -91 
L 4319 4750 
L 5013 4750 
L 2094 -91 
z
M 1453 4750 
Q 2034 4750 2367 4411 
Q 2700 4072 2700 3481 
Q 2700 2891 2367 2550 
Q 2034 2209 1453 2209 
Q 872 2209 539 2550 
Q 206 2891 206 3481 
Q 206 4072 539 4411 
Q 872 4750 1453 4750 
z
M 1453 4225 
Q 1228 4225 1106 4031 
Q 984 3838 984 3481 
Q 984 3122 1106 2926 
Q 1228 2731 1453 2731 
Q 1678 2731 1798 2926 
Q 1919 3122 1919 3481 
Q 1919 3838 1797 4031 
Q 1675 4225 1453 4225 
z
" transform="scale(0.015625)"/>
     </defs>
     <use xlink:href="#DejaVuSans-Bold-39"/>
     <use xlink:href="#DejaVuSans-Bold-39" transform="translate(69.580078 0)"/>
     <use xlink:href="#DejaVuSans-Bold-25" transform="translate(139.160156 0)"/>
    </g>
   </g>
   <g id="text_17">
    <!-- 99% -->
    <g transform="translate(159.152864 21.322394) scale(0.18 -0.18)">
     <use xlink:href="#DejaVuSans-Bold-39"/>
     <use xlink:href="#DejaVuSans-Bold-39" transform="translate(69.580078 0)"/>
     <use xlink:href="#DejaVuSans-Bold-25" transform="translate(139.160156 0)"/>
    </g>
   </g>
   <g id="text_18">
    <!-- 100% -->
    <g transform="translate(216.219909 20.877187) scale(0.18 -0.18)">
     <defs>
      <path id="DejaVuSans-Bold-31" d="M 750 831 
L 1813 831 
L 1813 3847 
L 722 3622 
L 722 4441 
L 1806 4666 
L 2950 4666 
L 2950 831 
L 4013 831 
L 4013 0 
L 750 0 
L 750 831 
z
" transform="scale(0.015625)"/>
      <path id="DejaVuSans-Bold-30" d="M 2944 2338 
Q 2944 3213 2780 3570 
Q 2616 3928 2228 3928 
Q 1841 3928 1675 3570 
Q 1509 3213 1509 2338 
Q 1509 1453 1675 1090 
Q 1841 728 2228 728 
Q 2613 728 2778 1090 
Q 2944 1453 2944 2338 
z
M 4147 2328 
Q 4147 1169 3647 539 
Q 3147 -91 2228 -91 
Q 1306 -91 806 539 
Q 306 1169 306 2328 
Q 306 3491 806 4120 
Q 1306 4750 2228 4750 
Q 3147 4750 3647 4120 
Q 4147 3491 4147 2328 
z
" transform="scale(0.015625)"/>
     </defs>
     <use xlink:href="#DejaVuSans-Bold-31"/>
     <use xlink:href="#DejaVuSans-Bold-30" transform="translate(69.580078 0)"/>
     <use xlink:href="#DejaVuSans-Bold-30" transform="translate(139.160156 0)"/>
     <use xlink:href="#DejaVuSans-Bold-25" transform="translate(208.740234 0)"/>
    </g>
   </g>
   <g id="text_19">
    <!-- 94% -->
    <g transform="translate(285.811017 34.293894) scale(0.18 -0.18)">
     <defs>
      <path id="DejaVuSans-Bold-34" d="M 2356 3675 
L 1038 1722 
L 2356 1722 
L 2356 3675 
z
M 2156 4666 
L 3494 4666 
L 3494 1722 
L 4159 1722 
L 4159 850 
L 3494 850 
L 3494 0 
L 2356 0 
L 2356 850 
L 288 850 
L 288 1881 
L 2156 4666 
z
" transform="scale(0.015625)"/>
     </defs>
     <use xlink:href="#DejaVuSans-Bold-39"/>
     <use xlink:href="#DejaVuSans-Bold-34" transform="translate(69.580078 0)"/>
     <use xlink:href="#DejaVuSans-Bold-25" transform="translate(139.160156 0)"/>
    </g>
   </g>
   <g id="text_20">
    <!-- 94% -->
    <g transform="translate(349.140093 35.244821) scale(0.18 -0.18)">
     <use xlink:href="#DejaVuSans-Bold-39"/>
     <use xlink:href="#DejaVuSans-Bold-34" transform="translate(69.580078 0)"/>
     <use xlink:href="#DejaVuSans-Bold-25" transform="translate(139.160156 0)"/>
    </g>
   </g>
   <g id="text_21">
    <!-- 96% -->
    <g transform="translate(412.469169 30.931073) scale(0.18 -0.18)">
     <defs>
      <path id="DejaVuSans-Bold-36" d="M 2316 2303 
Q 2000 2303 1842 2098 
Q 1684 1894 1684 1484 
Q 1684 1075 1842 870 
Q 2000 666 2316 666 
Q 2634 666 2792 870 
Q 2950 1075 2950 1484 
Q 2950 1894 2792 2098 
Q 2634 2303 2316 2303 
z
M 3803 4544 
L 3803 3681 
Q 3506 3822 3243 3889 
Q 2981 3956 2731 3956 
Q 2194 3956 1894 3657 
Q 1594 3359 1544 2772 
Q 1750 2925 1990 3001 
Q 2231 3078 2516 3078 
Q 3231 3078 3670 2659 
Q 4109 2241 4109 1563 
Q 4109 813 3618 361 
Q 3128 -91 2303 -91 
Q 1394 -91 895 523 
Q 397 1138 397 2266 
Q 397 3422 980 4083 
Q 1563 4744 2578 4744 
Q 2900 4744 3203 4694 
Q 3506 4644 3803 4544 
z
" transform="scale(0.015625)"/>
     </defs>
     <use xlink:href="#DejaVuSans-Bold-39"/>
     <use xlink:href="#DejaVuSans-Bold-36" transform="translate(69.580078 0)"/>
     <use xlink:href="#DejaVuSans-Bold-25" transform="translate(139.160156 0)"/>
    </g>
   </g>
   <g id="text_22">
    <!-- 99% -->
    <g transform="translate(475.798246 21.210012) scale(0.18 -0.18)">
     <use xlink:href="#DejaVuSans-Bold-39"/>
     <use xlink:href="#DejaVuSans-Bold-39" transform="translate(69.580078 0)"/>
     <use xlink:href="#DejaVuSans-Bold-25" transform="translate(139.160156 0)"/>
    </g>
   </g>
   <g id="text_23">
    <!-- 99% -->
    <g transform="translate(539.127322 21.322394) scale(0.18 -0.18)">
     <use xlink:href="#DejaVuSans-Bold-39"/>
     <use xlink:href="#DejaVuSans-Bold-39" transform="translate(69.580078 0)"/>
     <use xlink:href="#DejaVuSans-Bold-25" transform="translate(139.160156 0)"/>
    </g>
   </g>
   <g id="text_24">
    <!-- 100% -->
    <g transform="translate(596.194367 20.877187) scale(0.18 -0.18)">
     <use xlink:href="#DejaVuSans-Bold-31"/>
     <use xlink:href="#DejaVuSans-Bold-30" transform="translate(69.580078 0)"/>
     <use xlink:href="#DejaVuSans-Bold-30" transform="translate(139.160156 0)"/>
     <use xlink:href="#DejaVuSans-Bold-25" transform="translate(208.740234 0)"/>
    </g>
   </g>
   <g id="text_25">
    <!-- 94% -->
    <g transform="translate(665.785475 34.293894) scale(0.18 -0.18)">
     <use xlink:href="#DejaVuSans-Bold-39"/>
     <use xlink:href="#DejaVuSans-Bold-34" transform="translate(69.580078 0)"/>
     <use xlink:href="#DejaVuSans-Bold-25" transform="translate(139.160156 0)"/>
    </g>
   </g>
   <g id="text_26">
    <!-- 94% -->
    <g transform="translate(729.114551 35.244821) scale(0.18 -0.18)">
     <use xlink:href="#DejaVuSans-Bold-39"/>
     <use xlink:href="#DejaVuSans-Bold-34" transform="translate(69.580078 0)"/>
     <use xlink:href="#DejaVuSans-Bold-25" transform="translate(139.160156 0)"/>
    </g>
   </g>
   <g id="text_27">
    <!-- 96% -->
    <g transform="translate(792.443627 30.931073) scale(0.18 -0.18)">
     <use xlink:href="#DejaVuSans-Bold-39"/>
     <use xlink:href="#DejaVuSans-Bold-36" transform="translate(69.580078 0)"/>
     <use xlink:href="#DejaVuSans-Bold-25" transform="translate(139.160156 0)"/>
    </g>
   </g>
  </g>
 </g>
 <defs>
  <clipPath id="pcca85891cf">
   <rect x="85.701593" y="17.05164" width="759.948916" height="265.707201"/>
  </clipPath>
 </defs>
</svg>
