<?xml version="1.0" encoding="utf-8" standalone="no"?>
<!DOCTYPE svg PUBLIC "-//W3C//DTD SVG 1.1//EN"
  "http://www.w3.org/Graphics/SVG/1.1/DTD/svg11.dtd">
<svg xmlns:xlink="http://www.w3.org/1999/xlink" width="567.982187pt" height="565.441219pt" viewBox="0 0 567.982187 565.441219" xmlns="http://www.w3.org/2000/svg" version="1.1">
 <metadata>
  <rdf:RDF xmlns:dc="http://purl.org/dc/elements/1.1/" xmlns:cc="http://creativecommons.org/ns#" xmlns:rdf="http://www.w3.org/1999/02/22-rdf-syntax-ns#">
   <cc:Work>
    <dc:type rdf:resource="http://purl.org/dc/dcmitype/StillImage"/>
    <dc:date>2025-12-21T10:16:28.592983</dc:date>
    <dc:format>image/svg+xml</dc:format>
    <dc:creator>
     <cc:Agent>
      <dc:title>Matplotlib v3.10.6, https://matplotlib.org/</dc:title>
     </cc:Agent>
    </dc:creator>
   </cc:Work>
  </rdf:RDF>
 </metadata>
 <defs>
  <style type="text/css">*{stroke-linejoin: round; stroke-linecap: butt}</style>
 </defs>
 <g id="figure_1">
  <g id="patch_1">
   <path d="M 0 565.441219 
L 567.982187 565.441219 
L 567.982187 0 
L 0 0 
L 0 565.441219 
z
" style="fill: none"/>
  </g>
  <g id="axes_1">
   <g id="patch_2">
    <path d="M 64.092188 503.020594 
L 560.782187 503.020594 
L 560.782187 14.038594 
L 64.092188 14.038594 
L 64.092188 503.020594 
z
" style="fill: none"/>
   </g>
   <g id="PathCollection_1">
    <path d="M 0 568.697777 
C 0.863649 568.697777 1.692042 568.354645 2.302734 567.743953 
C 2.913427 567.133261 3.256558 566.304868 3.256558 565.441219 
C 3.256558 564.577569 2.913427 563.749177 2.302734 563.138484 
C 1.692042 562.527792 0.863649 562.184661 0 562.184661 
C -0.863649 562.184661 -1.692042 562.527792 -2.302734 563.138484 
C -2.913427 563.749177 -3.256558 564.577569 -3.256558 565.441219 
C -3.256558 566.304868 -2.913427 567.133261 -2.302734 567.743953 
C -1.692042 568.354645 -0.863649 568.697777 0 568.697777 
" clip-path="url(#p4f898c4297)" style="fill: none; stroke: #000000"/>
   </g>
   <g id="PathCollection_2">
    <path d="M 0 569.602879 
C 1.103685 569.602879 2.162315 569.16438 2.942738 568.383957 
C 3.723161 567.603533 4.16166 566.544904 4.16166 565.441219 
C 4.16166 564.337534 3.723161 563.278904 2.942738 562.498481 
C 2.162315 561.718058 1.103685 561.279559 0 561.279559 
C -1.103685 561.279559 -2.162315 561.718058 -2.942738 562.498481 
C -3.723161 563.278904 -4.16166 564.337534 -4.16166 565.441219 
C -4.16166 566.544904 -3.723161 567.603533 -2.942738 568.383957 
C -2.162315 569.16438 -1.103685 569.602879 0 569.602879 
" clip-path="url(#p4f898c4297)" style="fill: none; stroke: #000000"/>
   </g>
   <g id="PathCollection_3">
    <path d="M 0 571.650221 
C 1.646647 571.650221 3.226073 570.996001 4.390428 569.831646 
C 5.554783 568.667291 6.209002 567.087865 6.209002 565.441219 
C 6.209002 563.794572 5.554783 562.215146 4.390428 561.050791 
C 3.226073 559.886436 1.646647 559.232217 0 559.232217 
C -1.646647 559.232217 -3.226073 559.886436 -4.390428 561.050791 
C -5.554783 562.215146 -6.209002 563.794572 -6.209002 565.441219 
C -6.209002 567.087865 -5.554783 568.667291 -4.390428 569.831646 
C -3.226073 570.996001 -1.646647 571.650221 0 571.650221 
" clip-path="url(#p4f898c4297)" style="fill: none; stroke: #000000"/>
   </g>
   <g id="matplotlib.axis_1">
    <g id="xtick_1">
     <g id="line2d_1">
      <defs>
       <path id="me45ae0c182" d="M 0 0 
L 0 3.5 
" style="stroke: #000000; stroke-width: 0.8"/>
      </defs>
      <g>
       <use xlink:href="#me45ae0c182" x="128.153223" y="503.020594" style="stroke: #000000; stroke-width: 0.8"/>
      </g>
     </g>
     <g id="text_1">
      <!-- −6 -->
      <g transform="translate(114.885254 523.697781) scale(0.18 -0.18)">
       <defs>
        <path id="DejaVuSans-2212" d="M 678 2272 
L 4684 2272 
L 4684 1741 
L 678 1741 
L 678 2272 
z
" transform="scale(0.015625)"/>
        <path id="DejaVuSans-36" d="M 2113 2584 
Q 1688 2584 1439 2293 
Q 1191 2003 1191 1497 
Q 1191 994 1439 701 
Q 1688 409 2113 409 
Q 2538 409 2786 701 
Q 3034 994 3034 1497 
Q 3034 2003 2786 2293 
Q 2538 2584 2113 2584 
z
M 3366 4563 
L 3366 3988 
Q 3128 4100 2886 4159 
Q 2644 4219 2406 4219 
Q 1781 4219 1451 3797 
Q 1122 3375 1075 2522 
Q 1259 2794 1537 2939 
Q 1816 3084 2150 3084 
Q 2853 3084 3261 2657 
Q 3669 2231 3669 1497 
Q 3669 778 3244 343 
Q 2819 -91 2113 -91 
Q 1303 -91 875 529 
Q 447 1150 447 2328 
Q 447 3434 972 4092 
Q 1497 4750 2381 4750 
Q 2619 4750 2861 4703 
Q 3103 4656 3366 4563 
z
" transform="scale(0.015625)"/>
       </defs>
       <use xlink:href="#DejaVuSans-2212"/>
       <use xlink:href="#DejaVuSans-36" transform="translate(83.789062 0)"/>
      </g>
     </g>
    </g>
    <g id="xtick_2">
     <g id="line2d_2">
      <g>
       <use xlink:href="#me45ae0c182" x="498.898552" y="503.020594" style="stroke: #000000; stroke-width: 0.8"/>
      </g>
     </g>
     <g id="text_2">
      <!-- 4 -->
      <g transform="translate(493.172302 523.697781) scale(0.18 -0.18)">
       <defs>
        <path id="DejaVuSans-34" d="M 2419 4116 
L 825 1625 
L 2419 1625 
L 2419 4116 
z
M 2253 4666 
L 3047 4666 
L 3047 1625 
L 3713 1625 
L 3713 1100 
L 3047 1100 
L 3047 0 
L 2419 0 
L 2419 1100 
L 313 1100 
L 313 1709 
L 2253 4666 
z
" transform="scale(0.015625)"/>
       </defs>
       <use xlink:href="#DejaVuSans-34"/>
      </g>
     </g>
    </g>
    <g id="text_3">
     <!-- $\log_{2}\!\left(\frac{\mathrm{RNA}}{\mathrm{DNA}}\right)$ replicate 1 -->
     <g transform="translate(201.637187 550.441219) scale(0.2 -0.2)">
      <defs>
       <path id="DejaVuSans-6c" d="M 603 4863 
L 1178 4863 
L 1178 0 
L 603 0 
L 603 4863 
z
" transform="scale(0.015625)"/>
       <path id="DejaVuSans-6f" d="M 1959 3097 
Q 1497 3097 1228 2736 
Q 959 2375 959 1747 
Q 959 1119 1226 758 
Q 1494 397 1959 397 
Q 2419 397 2687 759 
Q 2956 1122 2956 1747 
Q 2956 2369 2687 2733 
Q 2419 3097 1959 3097 
z
M 1959 3584 
Q 2709 3584 3137 3096 
Q 3566 2609 3566 1747 
Q 3566 888 3137 398 
Q 2709 -91 1959 -91 
Q 1206 -91 779 398 
Q 353 888 353 1747 
Q 353 2609 779 3096 
Q 1206 3584 1959 3584 
z
" transform="scale(0.015625)"/>
       <path id="DejaVuSans-67" d="M 2906 1791 
Q 2906 2416 2648 2759 
Q 2391 3103 1925 3103 
Q 1463 3103 1205 2759 
Q 947 2416 947 1791 
Q 947 1169 1205 825 
Q 1463 481 1925 481 
Q 2391 481 2648 825 
Q 2906 1169 2906 1791 
z
M 3481 434 
Q 3481 -459 3084 -895 
Q 2688 -1331 1869 -1331 
Q 1566 -1331 1297 -1286 
Q 1028 -1241 775 -1147 
L 775 -588 
Q 1028 -725 1275 -790 
Q 1522 -856 1778 -856 
Q 2344 -856 2625 -561 
Q 2906 -266 2906 331 
L 2906 616 
Q 2728 306 2450 153 
Q 2172 0 1784 0 
Q 1141 0 747 490 
Q 353 981 353 1791 
Q 353 2603 747 3093 
Q 1141 3584 1784 3584 
Q 2172 3584 2450 3431 
Q 2728 3278 2906 2969 
L 2906 3500 
L 3481 3500 
L 3481 434 
z
" transform="scale(0.015625)"/>
       <path id="DejaVuSans-32" d="M 1228 531 
L 3431 531 
L 3431 0 
L 469 0 
L 469 531 
Q 828 903 1448 1529 
Q 2069 2156 2228 2338 
Q 2531 2678 2651 2914 
Q 2772 3150 2772 3378 
Q 2772 3750 2511 3984 
Q 2250 4219 1831 4219 
Q 1534 4219 1204 4116 
Q 875 4013 500 3803 
L 500 4441 
Q 881 4594 1212 4672 
Q 1544 4750 1819 4750 
Q 2544 4750 2975 4387 
Q 3406 4025 3406 3419 
Q 3406 3131 3298 2873 
Q 3191 2616 2906 2266 
Q 2828 2175 2409 1742 
Q 1991 1309 1228 531 
z
" transform="scale(0.015625)"/>
       <path id="STIXSizeOneSym-Regular-28" d="M 2445 -858 
L 2445 -1050 
Q 1728 -371 1309 630 
Q 890 1632 890 2886 
Q 890 4122 1309 5136 
Q 1728 6150 2445 6822 
L 2445 6630 
Q 1408 5363 1408 2886 
Q 1408 410 2445 -858 
z
" transform="scale(0.015625)"/>
       <path id="DejaVuSans-52" d="M 2841 2188 
Q 3044 2119 3236 1894 
Q 3428 1669 3622 1275 
L 4263 0 
L 3584 0 
L 2988 1197 
Q 2756 1666 2539 1819 
Q 2322 1972 1947 1972 
L 1259 1972 
L 1259 0 
L 628 0 
L 628 4666 
L 2053 4666 
Q 2853 4666 3247 4331 
Q 3641 3997 3641 3322 
Q 3641 2881 3436 2590 
Q 3231 2300 2841 2188 
z
M 1259 4147 
L 1259 2491 
L 2053 2491 
Q 2509 2491 2742 2702 
Q 2975 2913 2975 3322 
Q 2975 3731 2742 3939 
Q 2509 4147 2053 4147 
L 1259 4147 
z
" transform="scale(0.015625)"/>
       <path id="DejaVuSans-4e" d="M 628 4666 
L 1478 4666 
L 3547 763 
L 3547 4666 
L 4159 4666 
L 4159 0 
L 3309 0 
L 1241 3903 
L 1241 0 
L 628 0 
L 628 4666 
z
" transform="scale(0.015625)"/>
       <path id="DejaVuSans-41" d="M 2188 4044 
L 1331 1722 
L 3047 1722 
L 2188 4044 
z
M 1831 4666 
L 2547 4666 
L 4325 0 
L 3669 0 
L 3244 1197 
L 1141 1197 
L 716 0 
L 50 0 
L 1831 4666 
z
" transform="scale(0.015625)"/>
       <path id="DejaVuSans-44" d="M 1259 4147 
L 1259 519 
L 2022 519 
Q 2988 519 3436 956 
Q 3884 1394 3884 2338 
Q 3884 3275 3436 3711 
Q 2988 4147 2022 4147 
L 1259 4147 
z
M 628 4666 
L 1925 4666 
Q 3281 4666 3915 4102 
Q 4550 3538 4550 2338 
Q 4550 1131 3912 565 
Q 3275 0 1925 0 
L 628 0 
L 628 4666 
z
" transform="scale(0.015625)"/>
       <path id="STIXSizeOneSym-Regular-29" d="M 550 6630 
L 550 6822 
Q 1267 6144 1686 5142 
Q 2106 4141 2106 2886 
Q 2106 1651 1686 636 
Q 1267 -378 550 -1050 
L 550 -858 
Q 1587 410 1587 2886 
Q 1587 5363 550 6630 
z
" transform="scale(0.015625)"/>
       <path id="DejaVuSans-Bold-20" transform="scale(0.015625)"/>
       <path id="DejaVuSans-Bold-72" d="M 3138 2547 
Q 2991 2616 2845 2648 
Q 2700 2681 2553 2681 
Q 2122 2681 1889 2404 
Q 1656 2128 1656 1613 
L 1656 0 
L 538 0 
L 538 3500 
L 1656 3500 
L 1656 2925 
Q 1872 3269 2151 3426 
Q 2431 3584 2822 3584 
Q 2878 3584 2943 3579 
Q 3009 3575 3134 3559 
L 3138 2547 
z
" transform="scale(0.015625)"/>
       <path id="DejaVuSans-Bold-65" d="M 4031 1759 
L 4031 1441 
L 1416 1441 
Q 1456 1047 1700 850 
Q 1944 653 2381 653 
Q 2734 653 3104 758 
Q 3475 863 3866 1075 
L 3866 213 
Q 3469 63 3072 -14 
Q 2675 -91 2278 -91 
Q 1328 -91 801 392 
Q 275 875 275 1747 
Q 275 2603 792 3093 
Q 1309 3584 2216 3584 
Q 3041 3584 3536 3087 
Q 4031 2591 4031 1759 
z
M 2881 2131 
Q 2881 2450 2695 2645 
Q 2509 2841 2209 2841 
Q 1884 2841 1681 2658 
Q 1478 2475 1428 2131 
L 2881 2131 
z
" transform="scale(0.015625)"/>
       <path id="DejaVuSans-Bold-70" d="M 1656 506 
L 1656 -1331 
L 538 -1331 
L 538 3500 
L 1656 3500 
L 1656 2988 
Q 1888 3294 2169 3439 
Q 2450 3584 2816 3584 
Q 3463 3584 3878 3070 
Q 4294 2556 4294 1747 
Q 4294 938 3878 423 
Q 3463 -91 2816 -91 
Q 2450 -91 2169 54 
Q 1888 200 1656 506 
z
M 2400 2772 
Q 2041 2772 1848 2508 
Q 1656 2244 1656 1747 
Q 1656 1250 1848 986 
Q 2041 722 2400 722 
Q 2759 722 2948 984 
Q 3138 1247 3138 1747 
Q 3138 2247 2948 2509 
Q 2759 2772 2400 2772 
z
" transform="scale(0.015625)"/>
       <path id="DejaVuSans-Bold-6c" d="M 538 4863 
L 1656 4863 
L 1656 0 
L 538 0 
L 538 4863 
z
" transform="scale(0.015625)"/>
       <path id="DejaVuSans-Bold-69" d="M 538 3500 
L 1656 3500 
L 1656 0 
L 538 0 
L 538 3500 
z
M 538 4863 
L 1656 4863 
L 1656 3950 
L 538 3950 
L 538 4863 
z
" transform="scale(0.015625)"/>
       <path id="DejaVuSans-Bold-63" d="M 3366 3391 
L 3366 2478 
Q 3138 2634 2908 2709 
Q 2678 2784 2431 2784 
Q 1963 2784 1702 2511 
Q 1441 2238 1441 1747 
Q 1441 1256 1702 982 
Q 1963 709 2431 709 
Q 2694 709 2930 787 
Q 3166 866 3366 1019 
L 3366 103 
Q 3103 6 2833 -42 
Q 2563 -91 2291 -91 
Q 1344 -91 809 395 
Q 275 881 275 1747 
Q 275 2613 809 3098 
Q 1344 3584 2291 3584 
Q 2566 3584 2833 3536 
Q 3100 3488 3366 3391 
z
" transform="scale(0.015625)"/>
       <path id="DejaVuSans-Bold-61" d="M 2106 1575 
Q 1756 1575 1579 1456 
Q 1403 1338 1403 1106 
Q 1403 894 1545 773 
Q 1688 653 1941 653 
Q 2256 653 2472 879 
Q 2688 1106 2688 1447 
L 2688 1575 
L 2106 1575 
z
M 3816 1997 
L 3816 0 
L 2688 0 
L 2688 519 
Q 2463 200 2181 54 
Q 1900 -91 1497 -91 
Q 953 -91 614 226 
Q 275 544 275 1050 
Q 275 1666 698 1953 
Q 1122 2241 2028 2241 
L 2688 2241 
L 2688 2328 
Q 2688 2594 2478 2717 
Q 2269 2841 1825 2841 
Q 1466 2841 1156 2769 
Q 847 2697 581 2553 
L 581 3406 
Q 941 3494 1303 3539 
Q 1666 3584 2028 3584 
Q 2975 3584 3395 3211 
Q 3816 2838 3816 1997 
z
" transform="scale(0.015625)"/>
       <path id="DejaVuSans-Bold-74" d="M 1759 4494 
L 1759 3500 
L 2913 3500 
L 2913 2700 
L 1759 2700 
L 1759 1216 
Q 1759 972 1856 886 
Q 1953 800 2241 800 
L 2816 800 
L 2816 0 
L 1856 0 
Q 1194 0 917 276 
Q 641 553 641 1216 
L 641 2700 
L 84 2700 
L 84 3500 
L 641 3500 
L 641 4494 
L 1759 4494 
z
" transform="scale(0.015625)"/>
       <path id="DejaVuSans-Bold-31" d="M 750 831 
L 1813 831 
L 1813 3847 
L 722 3622 
L 722 4441 
L 1806 4666 
L 2950 4666 
L 2950 831 
L 4013 831 
L 4013 0 
L 750 0 
L 750 831 
z
" transform="scale(0.015625)"/>
      </defs>
      <use xlink:href="#DejaVuSans-6c" transform="translate(0 0.16875)"/>
      <use xlink:href="#DejaVuSans-6f" transform="translate(27.783203 0.16875)"/>
      <use xlink:href="#DejaVuSans-67" transform="translate(88.964844 0.16875)"/>
      <use xlink:href="#DejaVuSans-32" transform="translate(153.398438 -16.2375) scale(0.7)"/>
      <use xlink:href="#STIXSizeOneSym-Regular-28" transform="translate(200.668945 -20.5375) scale(1.083892)"/>
      <use xlink:href="#DejaVuSans-52" transform="translate(254.388443 43.965625) scale(0.7)"/>
      <use xlink:href="#DejaVuSans-4e" transform="translate(303.026138 43.965625) scale(0.7)"/>
      <use xlink:href="#DejaVuSans-41" transform="translate(355.38942 43.965625) scale(0.7)"/>
      <use xlink:href="#DejaVuSans-44" transform="translate(251.388443 -38.31875) scale(0.7)"/>
      <use xlink:href="#DejaVuSans-4e" transform="translate(305.28981 -38.31875) scale(0.7)"/>
      <use xlink:href="#DejaVuSans-41" transform="translate(357.653091 -38.31875) scale(0.7)"/>
      <use xlink:href="#STIXSizeOneSym-Regular-29" transform="translate(418.038834 -20.5375) scale(1.083892)"/>
      <use xlink:href="#DejaVuSans-Bold-20" transform="translate(468.758331 0.16875)"/>
      <use xlink:href="#DejaVuSans-Bold-72" transform="translate(503.572784 0.16875)"/>
      <use xlink:href="#DejaVuSans-Bold-65" transform="translate(552.889191 0.16875)"/>
      <use xlink:href="#DejaVuSans-Bold-70" transform="translate(620.711456 0.16875)"/>
      <use xlink:href="#DejaVuSans-Bold-6c" transform="translate(692.293488 0.16875)"/>
      <use xlink:href="#DejaVuSans-Bold-69" transform="translate(726.570831 0.16875)"/>
      <use xlink:href="#DejaVuSans-Bold-63" transform="translate(760.848175 0.16875)"/>
      <use xlink:href="#DejaVuSans-Bold-61" transform="translate(820.125519 0.16875)"/>
      <use xlink:href="#DejaVuSans-Bold-74" transform="translate(887.605988 0.16875)"/>
      <use xlink:href="#DejaVuSans-Bold-65" transform="translate(935.408722 0.16875)"/>
      <use xlink:href="#DejaVuSans-Bold-20" transform="translate(1003.230988 0.16875)"/>
      <use xlink:href="#DejaVuSans-Bold-31" transform="translate(1038.045441 0.16875)"/>
      <path d="M 251.388443 18.965625 
L 251.388443 25.215625 
L 405.538834 25.215625 
L 405.538834 18.965625 
L 251.388443 18.965625 
z
"/>
     </g>
    </g>
   </g>
   <g id="matplotlib.axis_2">
    <g id="ytick_1">
     <g id="line2d_3">
      <defs>
       <path id="m45e05699b9" d="M 0 0 
L -3.5 0 
" style="stroke: #000000; stroke-width: 0.8"/>
      </defs>
      <g>
       <use xlink:href="#m45e05699b9" x="64.092188" y="503.020594" style="stroke: #000000; stroke-width: 0.8"/>
      </g>
     </g>
     <g id="text_4">
      <!-- −1 -->
      <g transform="translate(30.55625 509.859187) scale(0.18 -0.18)">
       <defs>
        <path id="DejaVuSans-31" d="M 794 531 
L 1825 531 
L 1825 4091 
L 703 3866 
L 703 4441 
L 1819 4666 
L 2450 4666 
L 2450 531 
L 3481 531 
L 3481 0 
L 794 0 
L 794 531 
z
" transform="scale(0.015625)"/>
       </defs>
       <use xlink:href="#DejaVuSans-2212"/>
       <use xlink:href="#DejaVuSans-31" transform="translate(83.789062 0)"/>
      </g>
     </g>
    </g>
    <g id="ytick_2">
     <g id="line2d_4">
      <g>
       <use xlink:href="#m45e05699b9" x="64.092188" y="14.038594" style="stroke: #000000; stroke-width: 0.8"/>
      </g>
     </g>
     <g id="text_5">
      <!-- 1 -->
      <g transform="translate(45.639688 20.877187) scale(0.18 -0.18)">
       <use xlink:href="#DejaVuSans-31"/>
      </g>
     </g>
    </g>
    <g id="text_6">
     <!-- Pearson's correlation (r) -->
     <g transform="translate(22.396875 396.126469) rotate(-90) scale(0.2 -0.2)">
      <defs>
       <path id="DejaVuSans-Bold-50" d="M 588 4666 
L 2584 4666 
Q 3475 4666 3951 4270 
Q 4428 3875 4428 3144 
Q 4428 2409 3951 2014 
Q 3475 1619 2584 1619 
L 1791 1619 
L 1791 0 
L 588 0 
L 588 4666 
z
M 1791 3794 
L 1791 2491 
L 2456 2491 
Q 2806 2491 2997 2661 
Q 3188 2831 3188 3144 
Q 3188 3456 2997 3625 
Q 2806 3794 2456 3794 
L 1791 3794 
z
" transform="scale(0.015625)"/>
       <path id="DejaVuSans-Bold-73" d="M 3272 3391 
L 3272 2541 
Q 2913 2691 2578 2766 
Q 2244 2841 1947 2841 
Q 1628 2841 1473 2761 
Q 1319 2681 1319 2516 
Q 1319 2381 1436 2309 
Q 1553 2238 1856 2203 
L 2053 2175 
Q 2913 2066 3209 1816 
Q 3506 1566 3506 1031 
Q 3506 472 3093 190 
Q 2681 -91 1863 -91 
Q 1516 -91 1145 -36 
Q 775 19 384 128 
L 384 978 
Q 719 816 1070 734 
Q 1422 653 1784 653 
Q 2113 653 2278 743 
Q 2444 834 2444 1013 
Q 2444 1163 2330 1236 
Q 2216 1309 1875 1350 
L 1678 1375 
Q 931 1469 631 1722 
Q 331 1975 331 2491 
Q 331 3047 712 3315 
Q 1094 3584 1881 3584 
Q 2191 3584 2531 3537 
Q 2872 3491 3272 3391 
z
" transform="scale(0.015625)"/>
       <path id="DejaVuSans-Bold-6f" d="M 2203 2784 
Q 1831 2784 1636 2517 
Q 1441 2250 1441 1747 
Q 1441 1244 1636 976 
Q 1831 709 2203 709 
Q 2569 709 2762 976 
Q 2956 1244 2956 1747 
Q 2956 2250 2762 2517 
Q 2569 2784 2203 2784 
z
M 2203 3584 
Q 3106 3584 3614 3096 
Q 4122 2609 4122 1747 
Q 4122 884 3614 396 
Q 3106 -91 2203 -91 
Q 1297 -91 786 396 
Q 275 884 275 1747 
Q 275 2609 786 3096 
Q 1297 3584 2203 3584 
z
" transform="scale(0.015625)"/>
       <path id="DejaVuSans-Bold-6e" d="M 4056 2131 
L 4056 0 
L 2931 0 
L 2931 347 
L 2931 1631 
Q 2931 2084 2911 2256 
Q 2891 2428 2841 2509 
Q 2775 2619 2662 2680 
Q 2550 2741 2406 2741 
Q 2056 2741 1856 2470 
Q 1656 2200 1656 1722 
L 1656 0 
L 538 0 
L 538 3500 
L 1656 3500 
L 1656 2988 
Q 1909 3294 2193 3439 
Q 2478 3584 2822 3584 
Q 3428 3584 3742 3212 
Q 4056 2841 4056 2131 
z
" transform="scale(0.015625)"/>
       <path id="DejaVuSans-Bold-27" d="M 1350 4666 
L 1350 2931 
L 609 2931 
L 609 4666 
L 1350 4666 
z
" transform="scale(0.015625)"/>
       <path id="DejaVuSans-Bold-28" d="M 2413 -844 
L 1484 -844 
Q 1006 -72 778 623 
Q 550 1319 550 2003 
Q 550 2688 779 3389 
Q 1009 4091 1484 4856 
L 2413 4856 
Q 2013 4116 1813 3408 
Q 1613 2700 1613 2009 
Q 1613 1319 1811 609 
Q 2009 -100 2413 -844 
z
" transform="scale(0.015625)"/>
       <path id="DejaVuSans-Bold-29" d="M 513 -844 
Q 913 -100 1113 609 
Q 1313 1319 1313 2009 
Q 1313 2700 1113 3408 
Q 913 4116 513 4856 
L 1441 4856 
Q 1916 4091 2145 3389 
Q 2375 2688 2375 2003 
Q 2375 1319 2147 623 
Q 1919 -72 1441 -844 
L 513 -844 
z
" transform="scale(0.015625)"/>
      </defs>
      <use xlink:href="#DejaVuSans-Bold-50"/>
      <use xlink:href="#DejaVuSans-Bold-65" transform="translate(73.291016 0)"/>
      <use xlink:href="#DejaVuSans-Bold-61" transform="translate(141.113281 0)"/>
      <use xlink:href="#DejaVuSans-Bold-72" transform="translate(208.59375 0)"/>
      <use xlink:href="#DejaVuSans-Bold-73" transform="translate(257.910156 0)"/>
      <use xlink:href="#DejaVuSans-Bold-6f" transform="translate(317.431641 0)"/>
      <use xlink:href="#DejaVuSans-Bold-6e" transform="translate(386.132812 0)"/>
      <use xlink:href="#DejaVuSans-Bold-27" transform="translate(457.324219 0)"/>
      <use xlink:href="#DejaVuSans-Bold-73" transform="translate(487.939453 0)"/>
      <use xlink:href="#DejaVuSans-Bold-20" transform="translate(547.460938 0)"/>
      <use xlink:href="#DejaVuSans-Bold-63" transform="translate(582.275391 0)"/>
      <use xlink:href="#DejaVuSans-Bold-6f" transform="translate(641.552734 0)"/>
      <use xlink:href="#DejaVuSans-Bold-72" transform="translate(710.253906 0)"/>
      <use xlink:href="#DejaVuSans-Bold-72" transform="translate(759.570312 0)"/>
      <use xlink:href="#DejaVuSans-Bold-65" transform="translate(808.886719 0)"/>
      <use xlink:href="#DejaVuSans-Bold-6c" transform="translate(876.708984 0)"/>
      <use xlink:href="#DejaVuSans-Bold-61" transform="translate(910.986328 0)"/>
      <use xlink:href="#DejaVuSans-Bold-74" transform="translate(978.466797 0)"/>
      <use xlink:href="#DejaVuSans-Bold-69" transform="translate(1026.269531 0)"/>
      <use xlink:href="#DejaVuSans-Bold-6f" transform="translate(1060.546875 0)"/>
      <use xlink:href="#DejaVuSans-Bold-6e" transform="translate(1129.248047 0)"/>
      <use xlink:href="#DejaVuSans-Bold-20" transform="translate(1200.439453 0)"/>
      <use xlink:href="#DejaVuSans-Bold-28" transform="translate(1235.253906 0)"/>
      <use xlink:href="#DejaVuSans-Bold-72" transform="translate(1280.957031 0)"/>
      <use xlink:href="#DejaVuSans-Bold-29" transform="translate(1330.273438 0)"/>
     </g>
    </g>
   </g>
   <g id="line2d_5">
    <path d="M 311.769428 242.952291 
L 336.719881 134.605414 
L 378.336266 115.418645 
L 422.151404 106.997998 
L 461.04956 90.808419 
L 504.659816 69.945727 
L 538.205369 81.128867 
" clip-path="url(#p4f898c4297)" style="fill: none; stroke: #ff0000; stroke-width: 2; stroke-linecap: square"/>
   </g>
   <g id="line2d_6">
    <path d="M 86.669006 289.705837 
L 123.360116 255.237645 
L 159.425425 251.821605 
L 202.302289 251.584229 
L 246.519048 243.889023 
L 282.97353 234.058885 
L 307.971854 249.071269 
L 349.064655 273.252427 
L 392.328952 253.969487 
" clip-path="url(#p4f898c4297)" style="fill: none; stroke: #808080; stroke-width: 2; stroke-linecap: square"/>
   </g>
   <g id="line2d_7">
    <path d="M 64.092188 258.529594 
L 560.782187 258.529594 
" clip-path="url(#p4f898c4297)" style="fill: none; stroke-dasharray: 3.7,1.6; stroke-dashoffset: 0; stroke: #808080"/>
   </g>
   <g id="patch_3">
    <path d="M 64.092188 503.020594 
L 64.092188 14.038594 
" style="fill: none; stroke: #000000; stroke-linejoin: miter; stroke-linecap: square"/>
   </g>
   <g id="patch_4">
    <path d="M 64.092188 503.020594 
L 560.782187 503.020594 
" style="fill: none; stroke: #000000; stroke-linejoin: miter; stroke-linecap: square"/>
   </g>
   <g id="PathCollection_4">
    <path d="M 311.769428 247.85319 
C 313.069162 247.85319 314.315836 247.3368 315.234887 246.41775 
C 316.153937 245.4987 316.670327 244.252025 316.670327 242.952291 
C 316.670327 241.652558 316.153937 240.405883 315.234887 239.486833 
C 314.315836 238.567782 313.069162 238.051393 311.769428 238.051393 
C 310.469695 238.051393 309.22302 238.567782 308.303969 239.486833 
C 307.384919 240.405883 306.868529 241.652558 306.868529 242.952291 
C 306.868529 244.252025 307.384919 245.4987 308.303969 246.41775 
C 309.22302 247.3368 310.469695 247.85319 311.769428 247.85319 
z
" clip-path="url(#p4f898c4297)" style="fill: #ff0000; fill-opacity: 0.8; stroke: #000000; stroke-opacity: 0.8"/>
    <path d="M 336.719881 139.714225 
C 338.074753 139.714225 339.374316 139.175929 340.332355 138.217889 
C 341.290395 137.25985 341.828691 135.960287 341.828691 134.605414 
C 341.828691 133.250542 341.290395 131.950979 340.332355 130.99294 
C 339.374316 130.0349 338.074753 129.496604 336.719881 129.496604 
C 335.365008 129.496604 334.065445 130.0349 333.107406 130.99294 
C 332.149366 131.950979 331.61107 133.250542 331.61107 134.605414 
C 331.61107 135.960287 332.149366 137.25985 333.107406 138.217889 
C 334.065445 139.175929 335.365008 139.714225 336.719881 139.714225 
z
" clip-path="url(#p4f898c4297)" style="fill: #ff0000; fill-opacity: 0.8; stroke: #000000; stroke-opacity: 0.8"/>
    <path d="M 378.336266 119.656172 
C 379.460071 119.656172 380.538 119.20968 381.33265 118.415029 
C 382.127301 117.620379 382.573793 116.54245 382.573793 115.418645 
C 382.573793 114.29484 382.127301 113.216911 381.33265 112.422261 
C 380.538 111.62761 379.460071 111.181118 378.336266 111.181118 
C 377.212461 111.181118 376.134532 111.62761 375.339882 112.422261 
C 374.545231 113.216911 374.098739 114.29484 374.098739 115.418645 
C 374.098739 116.54245 374.545231 117.620379 375.339882 118.415029 
C 376.134532 119.20968 377.212461 119.656172 378.336266 119.656172 
z
" clip-path="url(#p4f898c4297)" style="fill: #ff0000; fill-opacity: 0.8; stroke: #000000; stroke-opacity: 0.8"/>
    <path d="M 422.151404 110.794779 
C 423.158322 110.794779 424.124135 110.394726 424.836133 109.682727 
C 425.548132 108.970729 425.948184 108.004916 425.948184 106.997998 
C 425.948184 105.99108 425.548132 105.025267 424.836133 104.313268 
C 424.124135 103.60127 423.158322 103.201217 422.151404 103.201217 
C 421.144486 103.201217 420.178673 103.60127 419.466674 104.313268 
C 418.754676 105.025267 418.354623 105.99108 418.354623 106.997998 
C 418.354623 108.004916 418.754676 108.970729 419.466674 109.682727 
C 420.178673 110.394726 421.144486 110.794779 422.151404 110.794779 
z
" clip-path="url(#p4f898c4297)" style="fill: #ff0000; fill-opacity: 0.8; stroke: #000000; stroke-opacity: 0.8"/>
    <path d="M 461.04956 94.321321 
C 461.981192 94.321321 462.874793 93.951179 463.533557 93.292416 
C 464.19232 92.633652 464.562462 91.740051 464.562462 90.808419 
C 464.562462 89.876786 464.19232 88.983185 463.533557 88.324422 
C 462.874793 87.665658 461.981192 87.295516 461.04956 87.295516 
C 460.117927 87.295516 459.224326 87.665658 458.565563 88.324422 
C 457.906799 88.983185 457.536658 89.876786 457.536658 90.808419 
C 457.536658 91.740051 457.906799 92.633652 458.565563 93.292416 
C 459.224326 93.951179 460.117927 94.321321 461.04956 94.321321 
z
" clip-path="url(#p4f898c4297)" style="fill: #ff0000; fill-opacity: 0.8; stroke: #000000; stroke-opacity: 0.8"/>
    <path d="M 504.659816 73.211713 
C 505.525965 73.211713 506.356756 72.867588 506.969217 72.255128 
C 507.581677 71.642668 507.925802 70.811877 507.925802 69.945727 
C 507.925802 69.079577 507.581677 68.248786 506.969217 67.636326 
C 506.356756 67.023866 505.525965 66.679741 504.659816 66.679741 
C 503.793666 66.679741 502.962875 67.023866 502.350415 67.636326 
C 501.737955 68.248786 501.39383 69.079577 501.39383 69.945727 
C 501.39383 70.811877 501.737955 71.642668 502.350415 72.255128 
C 502.962875 72.867588 503.793666 73.211713 504.659816 73.211713 
z
" clip-path="url(#p4f898c4297)" style="fill: #ff0000; fill-opacity: 0.8; stroke: #000000; stroke-opacity: 0.8"/>
    <path d="M 538.205369 84.180196 
C 539.014591 84.180196 539.790779 83.858689 540.362985 83.286482 
C 540.935191 82.714276 541.256699 81.938089 541.256699 81.128867 
C 541.256699 80.319645 540.935191 79.543457 540.362985 78.971251 
C 539.790779 78.399045 539.014591 78.077537 538.205369 78.077537 
C 537.396147 78.077537 536.61996 78.399045 536.047754 78.971251 
C 535.475547 79.543457 535.15404 80.319645 535.15404 81.128867 
C 535.15404 81.938089 535.475547 82.714276 536.047754 83.286482 
C 536.61996 83.858689 537.396147 84.180196 538.205369 84.180196 
z
" clip-path="url(#p4f898c4297)" style="fill: #ff0000; fill-opacity: 0.8; stroke: #000000; stroke-opacity: 0.8"/>
   </g>
   <g id="PathCollection_5">
    <path d="M 86.669006 292.978758 
C 87.536995 292.978758 88.36955 292.633903 88.983311 292.020142 
C 89.597071 291.406381 89.941927 290.573826 89.941927 289.705837 
C 89.941927 288.837848 89.597071 288.005293 88.983311 287.391532 
C 88.36955 286.777771 87.536995 286.432916 86.669006 286.432916 
C 85.801017 286.432916 84.968462 286.777771 84.354701 287.391532 
C 83.74094 288.005293 83.396084 288.837848 83.396084 289.705837 
C 83.396084 290.573826 83.74094 291.406381 84.354701 292.020142 
C 84.968462 292.633903 85.801017 292.978758 86.669006 292.978758 
z
" clip-path="url(#p4f898c4297)" style="fill: #808080; fill-opacity: 0.8; stroke: #000000; stroke-opacity: 0.8"/>
    <path d="M 123.360116 258.961045 
C 124.347573 258.961045 125.294719 258.568724 125.992957 257.870487 
C 126.691195 257.172249 127.083516 256.225103 127.083516 255.237645 
C 127.083516 254.250188 126.691195 253.303042 125.992957 252.604804 
C 125.294719 251.906566 124.347573 251.514246 123.360116 251.514246 
C 122.372659 251.514246 121.425512 251.906566 120.727274 252.604804 
C 120.029037 253.303042 119.636716 254.250188 119.636716 255.237645 
C 119.636716 256.225103 120.029037 257.172249 120.727274 257.870487 
C 121.425512 258.568724 122.372659 258.961045 123.360116 258.961045 
z
" clip-path="url(#p4f898c4297)" style="fill: #808080; fill-opacity: 0.8; stroke: #000000; stroke-opacity: 0.8"/>
    <path d="M 159.425425 255.782176 
C 160.475781 255.782176 161.483258 255.364865 162.225971 254.622151 
C 162.968685 253.879438 163.385996 252.871961 163.385996 251.821605 
C 163.385996 250.77125 162.968685 249.763773 162.225971 249.021059 
C 161.483258 248.278346 160.475781 247.861035 159.425425 247.861035 
C 158.37507 247.861035 157.367593 248.278346 156.624879 249.021059 
C 155.882166 249.763773 155.464855 250.77125 155.464855 251.821605 
C 155.464855 252.871961 155.882166 253.879438 156.624879 254.622151 
C 157.367593 255.364865 158.37507 255.782176 159.425425 255.782176 
z
" clip-path="url(#p4f898c4297)" style="fill: #808080; fill-opacity: 0.8; stroke: #000000; stroke-opacity: 0.8"/>
    <path d="M 202.302289 255.937539 
C 203.4568 255.937539 204.564181 255.478847 205.380544 254.662484 
C 206.196906 253.846121 206.655598 252.738741 206.655598 251.584229 
C 206.655598 250.429718 206.196906 249.322337 205.380544 248.505975 
C 204.564181 247.689612 203.4568 247.23092 202.302289 247.23092 
C 201.147778 247.23092 200.040397 247.689612 199.224034 248.505975 
C 198.407672 249.322337 197.948979 250.429718 197.948979 251.584229 
C 197.948979 252.738741 198.407672 253.846121 199.224034 254.662484 
C 200.040397 255.478847 201.147778 255.937539 202.302289 255.937539 
z
" clip-path="url(#p4f898c4297)" style="fill: #808080; fill-opacity: 0.8; stroke: #000000; stroke-opacity: 0.8"/>
    <path d="M 246.519048 249.22956 
C 247.935375 249.22956 249.293884 248.666847 250.295378 247.665353 
C 251.296873 246.663858 251.859586 245.30535 251.859586 243.889023 
C 251.859586 242.472696 251.296873 241.114187 250.295378 240.112692 
C 249.293884 239.111198 247.935375 238.548485 246.519048 238.548485 
C 245.102721 238.548485 243.744212 239.111198 242.742718 240.112692 
C 241.741223 241.114187 241.17851 242.472696 241.17851 243.889023 
C 241.17851 245.30535 241.741223 246.663858 242.742718 247.665353 
C 243.744212 248.666847 245.102721 249.22956 246.519048 249.22956 
z
" clip-path="url(#p4f898c4297)" style="fill: #808080; fill-opacity: 0.8; stroke: #000000; stroke-opacity: 0.8"/>
    <path d="M 282.97353 241.64176 
C 284.984532 241.64176 286.91344 240.842781 288.335433 239.420787 
C 289.757426 237.998794 290.556406 236.069887 290.556406 234.058885 
C 290.556406 232.047883 289.757426 230.118975 288.335433 228.696982 
C 286.91344 227.274989 284.984532 226.476009 282.97353 226.476009 
C 280.962528 226.476009 279.033621 227.274989 277.611628 228.696982 
C 276.189634 230.118975 275.390655 232.047883 275.390655 234.058885 
C 275.390655 236.069887 276.189634 237.998794 277.611628 239.420787 
C 279.033621 240.842781 280.962528 241.64176 282.97353 241.64176 
z
" clip-path="url(#p4f898c4297)" style="fill: #808080; fill-opacity: 0.8; stroke: #000000; stroke-opacity: 0.8"/>
    <path d="M 307.971854 255.687416 
C 309.726477 255.687416 311.409471 254.990297 312.650176 253.749591 
C 313.890882 252.508886 314.588001 250.825892 314.588001 249.071269 
C 314.588001 247.316647 313.890882 245.633653 312.650176 244.392947 
C 311.409471 243.152242 309.726477 242.455123 307.971854 242.455123 
C 306.217232 242.455123 304.534238 243.152242 303.293532 244.392947 
C 302.052827 245.633653 301.355708 247.316647 301.355708 249.071269 
C 301.355708 250.825892 302.052827 252.508886 303.293532 253.749591 
C 304.534238 254.990297 306.217232 255.687416 307.971854 255.687416 
z
" clip-path="url(#p4f898c4297)" style="fill: #808080; fill-opacity: 0.8; stroke: #000000; stroke-opacity: 0.8"/>
    <path d="M 349.064655 277.399819 
C 350.164556 277.399819 351.219557 276.962824 351.997304 276.185076 
C 352.775052 275.407328 353.212048 274.352328 353.212048 273.252427 
C 353.212048 272.152526 352.775052 271.097525 351.997304 270.319778 
C 351.219557 269.54203 350.164556 269.105034 349.064655 269.105034 
C 347.964754 269.105034 346.909754 269.54203 346.132006 270.319778 
C 345.354258 271.097525 344.917263 272.152526 344.917263 273.252427 
C 344.917263 274.352328 345.354258 275.407328 346.132006 276.185076 
C 346.909754 276.962824 347.964754 277.399819 349.064655 277.399819 
z
" clip-path="url(#p4f898c4297)" style="fill: #808080; fill-opacity: 0.8; stroke: #000000; stroke-opacity: 0.8"/>
    <path d="M 392.328952 257.34634 
C 393.224504 257.34634 394.083497 256.990534 394.716748 256.357283 
C 395.349999 255.724032 395.705805 254.865039 395.705805 253.969487 
C 395.705805 253.073935 395.349999 252.214942 394.716748 251.581691 
C 394.083497 250.94844 393.224504 250.592633 392.328952 250.592633 
C 391.4334 250.592633 390.574407 250.94844 389.941156 251.581691 
C 389.307905 252.214942 388.952098 253.073935 388.952098 253.969487 
C 388.952098 254.865039 389.307905 255.724032 389.941156 256.357283 
C 390.574407 256.990534 391.4334 257.34634 392.328952 257.34634 
z
" clip-path="url(#p4f898c4297)" style="fill: #808080; fill-opacity: 0.8; stroke: #000000; stroke-opacity: 0.8"/>
   </g>
   <g id="legend_1">
    <g id="text_7">
     <!-- Number of cCREs -->
     <g transform="translate(80.292188 43.915781) scale(0.18 -0.18)">
      <defs>
       <path id="DejaVuSans-75" d="M 544 1381 
L 544 3500 
L 1119 3500 
L 1119 1403 
Q 1119 906 1312 657 
Q 1506 409 1894 409 
Q 2359 409 2629 706 
Q 2900 1003 2900 1516 
L 2900 3500 
L 3475 3500 
L 3475 0 
L 2900 0 
L 2900 538 
Q 2691 219 2414 64 
Q 2138 -91 1772 -91 
Q 1169 -91 856 284 
Q 544 659 544 1381 
z
M 1991 3584 
L 1991 3584 
z
" transform="scale(0.015625)"/>
       <path id="DejaVuSans-6d" d="M 3328 2828 
Q 3544 3216 3844 3400 
Q 4144 3584 4550 3584 
Q 5097 3584 5394 3201 
Q 5691 2819 5691 2113 
L 5691 0 
L 5113 0 
L 5113 2094 
Q 5113 2597 4934 2840 
Q 4756 3084 4391 3084 
Q 3944 3084 3684 2787 
Q 3425 2491 3425 1978 
L 3425 0 
L 2847 0 
L 2847 2094 
Q 2847 2600 2669 2842 
Q 2491 3084 2119 3084 
Q 1678 3084 1418 2786 
Q 1159 2488 1159 1978 
L 1159 0 
L 581 0 
L 581 3500 
L 1159 3500 
L 1159 2956 
Q 1356 3278 1631 3431 
Q 1906 3584 2284 3584 
Q 2666 3584 2933 3390 
Q 3200 3197 3328 2828 
z
" transform="scale(0.015625)"/>
       <path id="DejaVuSans-62" d="M 3116 1747 
Q 3116 2381 2855 2742 
Q 2594 3103 2138 3103 
Q 1681 3103 1420 2742 
Q 1159 2381 1159 1747 
Q 1159 1113 1420 752 
Q 1681 391 2138 391 
Q 2594 391 2855 752 
Q 3116 1113 3116 1747 
z
M 1159 2969 
Q 1341 3281 1617 3432 
Q 1894 3584 2278 3584 
Q 2916 3584 3314 3078 
Q 3713 2572 3713 1747 
Q 3713 922 3314 415 
Q 2916 -91 2278 -91 
Q 1894 -91 1617 61 
Q 1341 213 1159 525 
L 1159 0 
L 581 0 
L 581 4863 
L 1159 4863 
L 1159 2969 
z
" transform="scale(0.015625)"/>
       <path id="DejaVuSans-65" d="M 3597 1894 
L 3597 1613 
L 953 1613 
Q 991 1019 1311 708 
Q 1631 397 2203 397 
Q 2534 397 2845 478 
Q 3156 559 3463 722 
L 3463 178 
Q 3153 47 2828 -22 
Q 2503 -91 2169 -91 
Q 1331 -91 842 396 
Q 353 884 353 1716 
Q 353 2575 817 3079 
Q 1281 3584 2069 3584 
Q 2775 3584 3186 3129 
Q 3597 2675 3597 1894 
z
M 3022 2063 
Q 3016 2534 2758 2815 
Q 2500 3097 2075 3097 
Q 1594 3097 1305 2825 
Q 1016 2553 972 2059 
L 3022 2063 
z
" transform="scale(0.015625)"/>
       <path id="DejaVuSans-72" d="M 2631 2963 
Q 2534 3019 2420 3045 
Q 2306 3072 2169 3072 
Q 1681 3072 1420 2755 
Q 1159 2438 1159 1844 
L 1159 0 
L 581 0 
L 581 3500 
L 1159 3500 
L 1159 2956 
Q 1341 3275 1631 3429 
Q 1922 3584 2338 3584 
Q 2397 3584 2469 3576 
Q 2541 3569 2628 3553 
L 2631 2963 
z
" transform="scale(0.015625)"/>
       <path id="DejaVuSans-20" transform="scale(0.015625)"/>
       <path id="DejaVuSans-66" d="M 2375 4863 
L 2375 4384 
L 1825 4384 
Q 1516 4384 1395 4259 
Q 1275 4134 1275 3809 
L 1275 3500 
L 2222 3500 
L 2222 3053 
L 1275 3053 
L 1275 0 
L 697 0 
L 697 3053 
L 147 3053 
L 147 3500 
L 697 3500 
L 697 3744 
Q 697 4328 969 4595 
Q 1241 4863 1831 4863 
L 2375 4863 
z
" transform="scale(0.015625)"/>
       <path id="DejaVuSans-63" d="M 3122 3366 
L 3122 2828 
Q 2878 2963 2633 3030 
Q 2388 3097 2138 3097 
Q 1578 3097 1268 2742 
Q 959 2388 959 1747 
Q 959 1106 1268 751 
Q 1578 397 2138 397 
Q 2388 397 2633 464 
Q 2878 531 3122 666 
L 3122 134 
Q 2881 22 2623 -34 
Q 2366 -91 2075 -91 
Q 1284 -91 818 406 
Q 353 903 353 1747 
Q 353 2603 823 3093 
Q 1294 3584 2113 3584 
Q 2378 3584 2631 3529 
Q 2884 3475 3122 3366 
z
" transform="scale(0.015625)"/>
       <path id="DejaVuSans-43" d="M 4122 4306 
L 4122 3641 
Q 3803 3938 3442 4084 
Q 3081 4231 2675 4231 
Q 1875 4231 1450 3742 
Q 1025 3253 1025 2328 
Q 1025 1406 1450 917 
Q 1875 428 2675 428 
Q 3081 428 3442 575 
Q 3803 722 4122 1019 
L 4122 359 
Q 3791 134 3420 21 
Q 3050 -91 2638 -91 
Q 1578 -91 968 557 
Q 359 1206 359 2328 
Q 359 3453 968 4101 
Q 1578 4750 2638 4750 
Q 3056 4750 3426 4639 
Q 3797 4528 4122 4306 
z
" transform="scale(0.015625)"/>
       <path id="DejaVuSans-45" d="M 628 4666 
L 3578 4666 
L 3578 4134 
L 1259 4134 
L 1259 2753 
L 3481 2753 
L 3481 2222 
L 1259 2222 
L 1259 531 
L 3634 531 
L 3634 0 
L 628 0 
L 628 4666 
z
" transform="scale(0.015625)"/>
       <path id="DejaVuSans-73" d="M 2834 3397 
L 2834 2853 
Q 2591 2978 2328 3040 
Q 2066 3103 1784 3103 
Q 1356 3103 1142 2972 
Q 928 2841 928 2578 
Q 928 2378 1081 2264 
Q 1234 2150 1697 2047 
L 1894 2003 
Q 2506 1872 2764 1633 
Q 3022 1394 3022 966 
Q 3022 478 2636 193 
Q 2250 -91 1575 -91 
Q 1294 -91 989 -36 
Q 684 19 347 128 
L 347 722 
Q 666 556 975 473 
Q 1284 391 1588 391 
Q 1994 391 2212 530 
Q 2431 669 2431 922 
Q 2431 1156 2273 1281 
Q 2116 1406 1581 1522 
L 1381 1569 
Q 847 1681 609 1914 
Q 372 2147 372 2553 
Q 372 3047 722 3315 
Q 1072 3584 1716 3584 
Q 2034 3584 2315 3537 
Q 2597 3491 2834 3397 
z
" transform="scale(0.015625)"/>
      </defs>
      <use xlink:href="#DejaVuSans-4e"/>
      <use xlink:href="#DejaVuSans-75" transform="translate(74.804688 0)"/>
      <use xlink:href="#DejaVuSans-6d" transform="translate(138.183594 0)"/>
      <use xlink:href="#DejaVuSans-62" transform="translate(235.595703 0)"/>
      <use xlink:href="#DejaVuSans-65" transform="translate(299.072266 0)"/>
      <use xlink:href="#DejaVuSans-72" transform="translate(360.595703 0)"/>
      <use xlink:href="#DejaVuSans-20" transform="translate(401.708984 0)"/>
      <use xlink:href="#DejaVuSans-6f" transform="translate(433.496094 0)"/>
      <use xlink:href="#DejaVuSans-66" transform="translate(494.677734 0)"/>
      <use xlink:href="#DejaVuSans-20" transform="translate(529.882812 0)"/>
      <use xlink:href="#DejaVuSans-63" transform="translate(561.669922 0)"/>
      <use xlink:href="#DejaVuSans-43" transform="translate(616.650391 0)"/>
      <use xlink:href="#DejaVuSans-52" transform="translate(686.474609 0)"/>
      <use xlink:href="#DejaVuSans-45" transform="translate(755.957031 0)"/>
      <use xlink:href="#DejaVuSans-73" transform="translate(819.140625 0)"/>
     </g>
    </g>
    <g id="PathCollection_6">
     <path d="M 102.956719 68.867964 
C 103.820368 68.867964 104.648761 68.524833 105.259453 67.914141 
C 105.870145 67.303448 106.213277 66.475056 106.213277 65.611406 
C 106.213277 64.747757 105.870145 63.919364 105.259453 63.308672 
C 104.648761 62.69798 103.820368 62.354848 102.956719 62.354848 
C 102.093069 62.354848 101.264677 62.69798 100.653984 63.308672 
C 100.043292 63.919364 99.700161 64.747757 99.700161 65.611406 
C 99.700161 66.475056 100.043292 67.303448 100.653984 67.914141 
C 101.264677 68.524833 102.093069 68.867964 102.956719 68.867964 
L 102.956719 68.867964 
z
" style="fill: none; stroke: #000000"/>
    </g>
    <g id="text_8">
     <!-- 100 -->
     <g transform="translate(135.356719 70.336406) scale(0.18 -0.18)">
      <defs>
       <path id="DejaVuSans-30" d="M 2034 4250 
Q 1547 4250 1301 3770 
Q 1056 3291 1056 2328 
Q 1056 1369 1301 889 
Q 1547 409 2034 409 
Q 2525 409 2770 889 
Q 3016 1369 3016 2328 
Q 3016 3291 2770 3770 
Q 2525 4250 2034 4250 
z
M 2034 4750 
Q 2819 4750 3233 4129 
Q 3647 3509 3647 2328 
Q 3647 1150 3233 529 
Q 2819 -91 2034 -91 
Q 1250 -91 836 529 
Q 422 1150 422 2328 
Q 422 3509 836 4129 
Q 1250 4750 2034 4750 
z
" transform="scale(0.015625)"/>
      </defs>
      <use xlink:href="#DejaVuSans-31"/>
      <use xlink:href="#DejaVuSans-30" transform="translate(63.623047 0)"/>
      <use xlink:href="#DejaVuSans-30" transform="translate(127.246094 0)"/>
     </g>
    </g>
    <g id="PathCollection_7">
     <path d="M 102.956719 96.193691 
C 104.060404 96.193691 105.119033 95.755192 105.899457 94.974769 
C 106.67988 94.194346 107.118379 93.135716 107.118379 92.032031 
C 107.118379 90.928346 106.67988 89.869717 105.899457 89.089293 
C 105.119033 88.30887 104.060404 87.870371 102.956719 87.870371 
C 101.853034 87.870371 100.794404 88.30887 100.013981 89.089293 
C 99.233558 89.869717 98.795059 90.928346 98.795059 92.032031 
C 98.795059 93.135716 99.233558 94.194346 100.013981 94.974769 
C 100.794404 95.755192 101.853034 96.193691 102.956719 96.193691 
L 102.956719 96.193691 
z
" style="fill: none; stroke: #000000"/>
    </g>
    <g id="text_9">
     <!-- 1000 -->
     <g transform="translate(135.356719 96.757031) scale(0.18 -0.18)">
      <use xlink:href="#DejaVuSans-31"/>
      <use xlink:href="#DejaVuSans-30" transform="translate(63.623047 0)"/>
      <use xlink:href="#DejaVuSans-30" transform="translate(127.246094 0)"/>
      <use xlink:href="#DejaVuSans-30" transform="translate(190.869141 0)"/>
     </g>
    </g>
    <g id="PathCollection_8">
     <path d="M 102.956719 124.661658 
C 104.603365 124.661658 106.182791 124.007439 107.347146 122.843084 
C 108.511501 121.678729 109.165721 120.099303 109.165721 118.452656 
C 109.165721 116.80601 108.511501 115.226584 107.347146 114.062229 
C 106.182791 112.897874 104.603365 112.243654 102.956719 112.243654 
C 101.310072 112.243654 99.730646 112.897874 98.566291 114.062229 
C 97.401936 115.226584 96.747717 116.80601 96.747717 118.452656 
C 96.747717 120.099303 97.401936 121.678729 98.566291 122.843084 
C 99.730646 124.007439 101.310072 124.661658 102.956719 124.661658 
L 102.956719 124.661658 
z
" style="fill: none; stroke: #000000"/>
    </g>
    <g id="text_10">
     <!-- 10000 -->
     <g transform="translate(135.356719 123.177656) scale(0.18 -0.18)">
      <use xlink:href="#DejaVuSans-31"/>
      <use xlink:href="#DejaVuSans-30" transform="translate(63.623047 0)"/>
      <use xlink:href="#DejaVuSans-30" transform="translate(127.246094 0)"/>
      <use xlink:href="#DejaVuSans-30" transform="translate(190.869141 0)"/>
      <use xlink:href="#DejaVuSans-30" transform="translate(254.492188 0)"/>
     </g>
    </g>
    <g id="line2d_8">
     <path d="M 84.956719 143.298281 
L 102.956719 143.298281 
L 120.956719 143.298281 
" style="fill: none; stroke: #ff0000; stroke-width: 2; stroke-linecap: square"/>
    </g>
    <g id="text_11">
     <!-- Active -->
     <g transform="translate(135.356719 149.598281) scale(0.18 -0.18)">
      <defs>
       <path id="DejaVuSans-74" d="M 1172 4494 
L 1172 3500 
L 2356 3500 
L 2356 3053 
L 1172 3053 
L 1172 1153 
Q 1172 725 1289 603 
Q 1406 481 1766 481 
L 2356 481 
L 2356 0 
L 1766 0 
Q 1100 0 847 248 
Q 594 497 594 1153 
L 594 3053 
L 172 3053 
L 172 3500 
L 594 3500 
L 594 4494 
L 1172 4494 
z
" transform="scale(0.015625)"/>
       <path id="DejaVuSans-69" d="M 603 3500 
L 1178 3500 
L 1178 0 
L 603 0 
L 603 3500 
z
M 603 4863 
L 1178 4863 
L 1178 4134 
L 603 4134 
L 603 4863 
z
" transform="scale(0.015625)"/>
       <path id="DejaVuSans-76" d="M 191 3500 
L 800 3500 
L 1894 563 
L 2988 3500 
L 3597 3500 
L 2284 0 
L 1503 0 
L 191 3500 
z
" transform="scale(0.015625)"/>
      </defs>
      <use xlink:href="#DejaVuSans-41"/>
      <use xlink:href="#DejaVuSans-63" transform="translate(66.658203 0)"/>
      <use xlink:href="#DejaVuSans-74" transform="translate(121.638672 0)"/>
      <use xlink:href="#DejaVuSans-69" transform="translate(160.847656 0)"/>
      <use xlink:href="#DejaVuSans-76" transform="translate(188.630859 0)"/>
      <use xlink:href="#DejaVuSans-65" transform="translate(247.810547 0)"/>
     </g>
    </g>
    <g id="line2d_9">
     <path d="M 84.956719 169.718906 
L 102.956719 169.718906 
L 120.956719 169.718906 
" style="fill: none; stroke: #808080; stroke-width: 2; stroke-linecap: square"/>
    </g>
    <g id="text_12">
     <!-- Non-active -->
     <g transform="translate(135.356719 176.018906) scale(0.18 -0.18)">
      <defs>
       <path id="DejaVuSans-6e" d="M 3513 2113 
L 3513 0 
L 2938 0 
L 2938 2094 
Q 2938 2591 2744 2837 
Q 2550 3084 2163 3084 
Q 1697 3084 1428 2787 
Q 1159 2491 1159 1978 
L 1159 0 
L 581 0 
L 581 3500 
L 1159 3500 
L 1159 2956 
Q 1366 3272 1645 3428 
Q 1925 3584 2291 3584 
Q 2894 3584 3203 3211 
Q 3513 2838 3513 2113 
z
" transform="scale(0.015625)"/>
       <path id="DejaVuSans-2d" d="M 313 2009 
L 1997 2009 
L 1997 1497 
L 313 1497 
L 313 2009 
z
" transform="scale(0.015625)"/>
       <path id="DejaVuSans-61" d="M 2194 1759 
Q 1497 1759 1228 1600 
Q 959 1441 959 1056 
Q 959 750 1161 570 
Q 1363 391 1709 391 
Q 2188 391 2477 730 
Q 2766 1069 2766 1631 
L 2766 1759 
L 2194 1759 
z
M 3341 1997 
L 3341 0 
L 2766 0 
L 2766 531 
Q 2569 213 2275 61 
Q 1981 -91 1556 -91 
Q 1019 -91 701 211 
Q 384 513 384 1019 
Q 384 1609 779 1909 
Q 1175 2209 1959 2209 
L 2766 2209 
L 2766 2266 
Q 2766 2663 2505 2880 
Q 2244 3097 1772 3097 
Q 1472 3097 1187 3025 
Q 903 2953 641 2809 
L 641 3341 
Q 956 3463 1253 3523 
Q 1550 3584 1831 3584 
Q 2591 3584 2966 3190 
Q 3341 2797 3341 1997 
z
" transform="scale(0.015625)"/>
      </defs>
      <use xlink:href="#DejaVuSans-4e"/>
      <use xlink:href="#DejaVuSans-6f" transform="translate(74.804688 0)"/>
      <use xlink:href="#DejaVuSans-6e" transform="translate(135.986328 0)"/>
      <use xlink:href="#DejaVuSans-2d" transform="translate(199.365234 0)"/>
      <use xlink:href="#DejaVuSans-61" transform="translate(235.449219 0)"/>
      <use xlink:href="#DejaVuSans-63" transform="translate(296.728516 0)"/>
      <use xlink:href="#DejaVuSans-74" transform="translate(351.708984 0)"/>
      <use xlink:href="#DejaVuSans-69" transform="translate(390.917969 0)"/>
      <use xlink:href="#DejaVuSans-76" transform="translate(418.701172 0)"/>
      <use xlink:href="#DejaVuSans-65" transform="translate(477.880859 0)"/>
     </g>
    </g>
   </g>
  </g>
 </g>
 <defs>
  <clipPath id="p4f898c4297">
   <rect x="64.092188" y="14.038594" width="496.69" height="488.982"/>
  </clipPath>
 </defs>
</svg>
