<?xml version="1.0" encoding="utf-8" standalone="no"?>
<!DOCTYPE svg PUBLIC "-//W3C//DTD SVG 1.1//EN"
  "http://www.w3.org/Graphics/SVG/1.1/DTD/svg11.dtd">
<svg xmlns:xlink="http://www.w3.org/1999/xlink" width="553.353153pt" height="512.691719pt" viewBox="0 0 553.353153 512.691719" xmlns="http://www.w3.org/2000/svg" version="1.1">
 <metadata>
  <rdf:RDF xmlns:dc="http://purl.org/dc/elements/1.1/" xmlns:cc="http://creativecommons.org/ns#" xmlns:rdf="http://www.w3.org/1999/02/22-rdf-syntax-ns#">
   <cc:Work>
    <dc:type rdf:resource="http://purl.org/dc/dcmitype/StillImage"/>
    <dc:date>2026-01-19T11:50:25.566453</dc:date>
    <dc:format>image/svg+xml</dc:format>
    <dc:creator>
     <cc:Agent>
      <dc:title>Matplotlib v3.10.6, https://matplotlib.org/</dc:title>
     </cc:Agent>
    </dc:creator>
   </cc:Work>
  </rdf:RDF>
 </metadata>
 <defs>
  <style type="text/css">*{stroke-linejoin: round; stroke-linecap: butt}</style>
 </defs>
 <g id="figure_1">
  <g id="patch_1">
   <path d="M 0 512.691719 
L 553.353153 512.691719 
L 553.353153 0 
L 0 0 
L 0 512.691719 
z
" style="fill: none"/>
  </g>
  <g id="axes_1">
   <g id="patch_2">
    <path d="M 89.016563 457.558594 
L 535.416562 457.558594 
L 535.416562 14.038594 
L 89.016563 14.038594 
L 89.016563 457.558594 
z
" style="fill: none"/>
   </g>
   <g id="FillBetweenPolyCollection_1">
    <defs>
     <path id="m408d840a81" d="M 109.307472 -324.467926 
L 109.307472 -313.465117 
L 123.301202 -382.531435 
L 137.294932 -413.954802 
L 151.288663 -431.149284 
L 165.282393 -441.734291 
L 179.276124 -448.681129 
L 193.269854 -453.593005 
L 207.263584 -457.198439 
L 221.257315 -459.911427 
L 235.251045 -462.021882 
L 235.251045 -463.25537 
L 235.251045 -463.25537 
L 221.257315 -461.370247 
L 207.263584 -458.95529 
L 193.269854 -455.762203 
L 179.276124 -451.333725 
L 165.282393 -444.982569 
L 151.288663 -435.438072 
L 137.294932 -419.920889 
L 123.301202 -390.723054 
L 109.307472 -324.467926 
z
" style="stroke: #227c9d; stroke-opacity: 0.2"/>
    </defs>
    <g clip-path="url(#p3f7b1539e4)">
     <use xlink:href="#m408d840a81" x="0" y="512.691719" style="fill: #227c9d; fill-opacity: 0.2; stroke: #227c9d; stroke-opacity: 0.2"/>
    </g>
   </g>
   <g id="FillBetweenPolyCollection_2">
    <defs>
     <path id="m6e7a962226" d="M 109.307472 -239.573199 
L 109.307472 -223.564119 
L 123.301202 -303.865049 
L 137.294932 -349.537599 
L 151.288663 -377.952102 
L 165.282393 -396.945305 
L 179.276124 -410.397454 
L 193.269854 -420.11742 
L 207.263584 -427.587876 
L 221.257315 -433.239565 
L 235.251045 -437.806211 
L 235.251045 -446.506349 
L 235.251045 -446.506349 
L 221.257315 -442.469791 
L 207.263584 -437.392469 
L 193.269854 -430.684791 
L 179.276124 -421.601869 
L 165.282393 -409.134531 
L 151.288663 -391.21381 
L 137.294932 -364.100928 
L 123.301202 -320.504956 
L 109.307472 -239.573199 
z
" style="stroke: #227c9d; stroke-opacity: 0.2"/>
    </defs>
    <g clip-path="url(#p3f7b1539e4)">
     <use xlink:href="#m6e7a962226" x="0" y="512.691719" style="fill: #227c9d; fill-opacity: 0.2; stroke: #227c9d; stroke-opacity: 0.2"/>
    </g>
   </g>
   <g id="PathCollection_1">
    <defs>
     <path id="m10758ad63d" d="M -2.738613 2.738613 
L 2.738613 2.738613 
L 2.738613 -2.738613 
L -2.738613 -2.738613 
z
" style="stroke: #d3d3d3; stroke-opacity: 0.5"/>
    </defs>
    <g clip-path="url(#p3f7b1539e4)">
     <use xlink:href="#m10758ad63d" x="109.307472" y="280.296082" style="fill: #d3d3d3; fill-opacity: 0.5; stroke: #d3d3d3; stroke-opacity: 0.5"/>
     <use xlink:href="#m10758ad63d" x="123.301202" y="197.262999" style="fill: #d3d3d3; fill-opacity: 0.5; stroke: #d3d3d3; stroke-opacity: 0.5"/>
     <use xlink:href="#m10758ad63d" x="137.294932" y="153.251231" style="fill: #d3d3d3; fill-opacity: 0.5; stroke: #d3d3d3; stroke-opacity: 0.5"/>
     <use xlink:href="#m10758ad63d" x="151.288663" y="126.550663" style="fill: #d3d3d3; fill-opacity: 0.5; stroke: #d3d3d3; stroke-opacity: 0.5"/>
     <use xlink:href="#m10758ad63d" x="165.282393" y="108.809418" style="fill: #d3d3d3; fill-opacity: 0.5; stroke: #d3d3d3; stroke-opacity: 0.5"/>
     <use xlink:href="#m10758ad63d" x="179.276124" y="96.244165" style="fill: #d3d3d3; fill-opacity: 0.5; stroke: #d3d3d3; stroke-opacity: 0.5"/>
     <use xlink:href="#m10758ad63d" x="193.269854" y="86.917216" style="fill: #d3d3d3; fill-opacity: 0.5; stroke: #d3d3d3; stroke-opacity: 0.5"/>
     <use xlink:href="#m10758ad63d" x="207.263584" y="79.741302" style="fill: #d3d3d3; fill-opacity: 0.5; stroke: #d3d3d3; stroke-opacity: 0.5"/>
     <use xlink:href="#m10758ad63d" x="221.257315" y="74.062223" style="fill: #d3d3d3; fill-opacity: 0.5; stroke: #d3d3d3; stroke-opacity: 0.5"/>
     <use xlink:href="#m10758ad63d" x="235.251045" y="69.464114" style="fill: #d3d3d3; fill-opacity: 0.5; stroke: #d3d3d3; stroke-opacity: 0.5"/>
     <use xlink:href="#m10758ad63d" x="263.238506" y="62.49137" style="fill: #d3d3d3; fill-opacity: 0.5; stroke: #d3d3d3; stroke-opacity: 0.5"/>
     <use xlink:href="#m10758ad63d" x="305.219697" y="55.45737" style="fill: #d3d3d3; fill-opacity: 0.5; stroke: #d3d3d3; stroke-opacity: 0.5"/>
     <use xlink:href="#m10758ad63d" x="340.204023" y="51.428781" style="fill: #d3d3d3; fill-opacity: 0.5; stroke: #d3d3d3; stroke-opacity: 0.5"/>
     <use xlink:href="#m10758ad63d" x="375.188349" y="48.412743" style="fill: #d3d3d3; fill-opacity: 0.5; stroke: #d3d3d3; stroke-opacity: 0.5"/>
     <use xlink:href="#m10758ad63d" x="445.157001" y="44.214211" style="fill: #d3d3d3; fill-opacity: 0.5; stroke: #d3d3d3; stroke-opacity: 0.5"/>
     <use xlink:href="#m10758ad63d" x="515.125653" y="41.443617" style="fill: #d3d3d3; fill-opacity: 0.5; stroke: #d3d3d3; stroke-opacity: 0.5"/>
    </g>
   </g>
   <g id="PathCollection_2">
    <g clip-path="url(#p3f7b1539e4)">
     <use xlink:href="#m10758ad63d" x="109.307472" y="194.784372" style="fill: #d3d3d3; fill-opacity: 0.5; stroke: #d3d3d3; stroke-opacity: 0.5"/>
     <use xlink:href="#m10758ad63d" x="123.301202" y="125.628989" style="fill: #d3d3d3; fill-opacity: 0.5; stroke: #d3d3d3; stroke-opacity: 0.5"/>
     <use xlink:href="#m10758ad63d" x="137.294932" y="96.11238" style="fill: #d3d3d3; fill-opacity: 0.5; stroke: #d3d3d3; stroke-opacity: 0.5"/>
     <use xlink:href="#m10758ad63d" x="151.288663" y="80.048523" style="fill: #d3d3d3; fill-opacity: 0.5; stroke: #d3d3d3; stroke-opacity: 0.5"/>
     <use xlink:href="#m10758ad63d" x="165.282393" y="70.041054" style="fill: #d3d3d3; fill-opacity: 0.5; stroke: #d3d3d3; stroke-opacity: 0.5"/>
     <use xlink:href="#m10758ad63d" x="179.276124" y="63.24687" style="fill: #d3d3d3; fill-opacity: 0.5; stroke: #d3d3d3; stroke-opacity: 0.5"/>
     <use xlink:href="#m10758ad63d" x="193.269854" y="58.351307" style="fill: #d3d3d3; fill-opacity: 0.5; stroke: #d3d3d3; stroke-opacity: 0.5"/>
     <use xlink:href="#m10758ad63d" x="207.263584" y="54.666359" style="fill: #d3d3d3; fill-opacity: 0.5; stroke: #d3d3d3; stroke-opacity: 0.5"/>
     <use xlink:href="#m10758ad63d" x="221.257315" y="51.798448" style="fill: #d3d3d3; fill-opacity: 0.5; stroke: #d3d3d3; stroke-opacity: 0.5"/>
     <use xlink:href="#m10758ad63d" x="235.251045" y="49.506764" style="fill: #d3d3d3; fill-opacity: 0.5; stroke: #d3d3d3; stroke-opacity: 0.5"/>
     <use xlink:href="#m10758ad63d" x="263.238506" y="46.081658" style="fill: #d3d3d3; fill-opacity: 0.5; stroke: #d3d3d3; stroke-opacity: 0.5"/>
     <use xlink:href="#m10758ad63d" x="305.219697" y="42.685208" style="fill: #d3d3d3; fill-opacity: 0.5; stroke: #d3d3d3; stroke-opacity: 0.5"/>
     <use xlink:href="#m10758ad63d" x="340.204023" y="40.765348" style="fill: #d3d3d3; fill-opacity: 0.5; stroke: #d3d3d3; stroke-opacity: 0.5"/>
     <use xlink:href="#m10758ad63d" x="375.188349" y="39.339619" style="fill: #d3d3d3; fill-opacity: 0.5; stroke: #d3d3d3; stroke-opacity: 0.5"/>
     <use xlink:href="#m10758ad63d" x="445.157001" y="37.370702" style="fill: #d3d3d3; fill-opacity: 0.5; stroke: #d3d3d3; stroke-opacity: 0.5"/>
     <use xlink:href="#m10758ad63d" x="515.125653" y="36.080968" style="fill: #d3d3d3; fill-opacity: 0.5; stroke: #d3d3d3; stroke-opacity: 0.5"/>
    </g>
   </g>
   <g id="matplotlib.axis_1">
    <g id="xtick_1">
     <g id="line2d_1">
      <defs>
       <path id="me962e881ca" d="M 0 0 
L 0 3.5 
" style="stroke: #000000; stroke-width: 0.8"/>
      </defs>
      <g>
       <use xlink:href="#me962e881ca" x="95.313741" y="457.558594" style="stroke: #000000; stroke-width: 0.8"/>
      </g>
     </g>
     <g id="text_1">
      <!-- 0.0 -->
      <g transform="translate(81.000929 478.235781) scale(0.18 -0.18)">
       <defs>
        <path id="DejaVuSans-30" d="M 2034 4250 
Q 1547 4250 1301 3770 
Q 1056 3291 1056 2328 
Q 1056 1369 1301 889 
Q 1547 409 2034 409 
Q 2525 409 2770 889 
Q 3016 1369 3016 2328 
Q 3016 3291 2770 3770 
Q 2525 4250 2034 4250 
z
M 2034 4750 
Q 2819 4750 3233 4129 
Q 3647 3509 3647 2328 
Q 3647 1150 3233 529 
Q 2819 -91 2034 -91 
Q 1250 -91 836 529 
Q 422 1150 422 2328 
Q 422 3509 836 4129 
Q 1250 4750 2034 4750 
z
" transform="scale(0.015625)"/>
        <path id="DejaVuSans-2e" d="M 684 794 
L 1344 794 
L 1344 0 
L 684 0 
L 684 794 
z
" transform="scale(0.015625)"/>
       </defs>
       <use xlink:href="#DejaVuSans-30"/>
       <use xlink:href="#DejaVuSans-2e" transform="translate(63.623047 0)"/>
       <use xlink:href="#DejaVuSans-30" transform="translate(95.410156 0)"/>
      </g>
     </g>
    </g>
    <g id="xtick_2">
     <g id="line2d_2">
      <g>
       <use xlink:href="#me962e881ca" x="165.282393" y="457.558594" style="stroke: #000000; stroke-width: 0.8"/>
      </g>
     </g>
     <g id="text_2">
      <!-- 0.5 -->
      <g transform="translate(150.969581 478.235781) scale(0.18 -0.18)">
       <defs>
        <path id="DejaVuSans-35" d="M 691 4666 
L 3169 4666 
L 3169 4134 
L 1269 4134 
L 1269 2991 
Q 1406 3038 1543 3061 
Q 1681 3084 1819 3084 
Q 2600 3084 3056 2656 
Q 3513 2228 3513 1497 
Q 3513 744 3044 326 
Q 2575 -91 1722 -91 
Q 1428 -91 1123 -41 
Q 819 9 494 109 
L 494 744 
Q 775 591 1075 516 
Q 1375 441 1709 441 
Q 2250 441 2565 725 
Q 2881 1009 2881 1497 
Q 2881 1984 2565 2268 
Q 2250 2553 1709 2553 
Q 1456 2553 1204 2497 
Q 953 2441 691 2322 
L 691 4666 
z
" transform="scale(0.015625)"/>
       </defs>
       <use xlink:href="#DejaVuSans-30"/>
       <use xlink:href="#DejaVuSans-2e" transform="translate(63.623047 0)"/>
       <use xlink:href="#DejaVuSans-35" transform="translate(95.410156 0)"/>
      </g>
     </g>
    </g>
    <g id="xtick_3">
     <g id="line2d_3">
      <g>
       <use xlink:href="#me962e881ca" x="235.251045" y="457.558594" style="stroke: #000000; stroke-width: 0.8"/>
      </g>
     </g>
     <g id="text_3">
      <!-- 1.0 -->
      <g transform="translate(220.938233 478.235781) scale(0.18 -0.18)">
       <defs>
        <path id="DejaVuSans-31" d="M 794 531 
L 1825 531 
L 1825 4091 
L 703 3866 
L 703 4441 
L 1819 4666 
L 2450 4666 
L 2450 531 
L 3481 531 
L 3481 0 
L 794 0 
L 794 531 
z
" transform="scale(0.015625)"/>
       </defs>
       <use xlink:href="#DejaVuSans-31"/>
       <use xlink:href="#DejaVuSans-2e" transform="translate(63.623047 0)"/>
       <use xlink:href="#DejaVuSans-30" transform="translate(95.410156 0)"/>
      </g>
     </g>
    </g>
    <g id="xtick_4">
     <g id="line2d_4">
      <g>
       <use xlink:href="#me962e881ca" x="305.219697" y="457.558594" style="stroke: #000000; stroke-width: 0.8"/>
      </g>
     </g>
     <g id="text_4">
      <!-- 1.5 -->
      <g transform="translate(290.906885 478.235781) scale(0.18 -0.18)">
       <use xlink:href="#DejaVuSans-31"/>
       <use xlink:href="#DejaVuSans-2e" transform="translate(63.623047 0)"/>
       <use xlink:href="#DejaVuSans-35" transform="translate(95.410156 0)"/>
      </g>
     </g>
    </g>
    <g id="xtick_5">
     <g id="line2d_5">
      <g>
       <use xlink:href="#me962e881ca" x="375.188349" y="457.558594" style="stroke: #000000; stroke-width: 0.8"/>
      </g>
     </g>
     <g id="text_5">
      <!-- 2.0 -->
      <g transform="translate(360.875537 478.235781) scale(0.18 -0.18)">
       <defs>
        <path id="DejaVuSans-32" d="M 1228 531 
L 3431 531 
L 3431 0 
L 469 0 
L 469 531 
Q 828 903 1448 1529 
Q 2069 2156 2228 2338 
Q 2531 2678 2651 2914 
Q 2772 3150 2772 3378 
Q 2772 3750 2511 3984 
Q 2250 4219 1831 4219 
Q 1534 4219 1204 4116 
Q 875 4013 500 3803 
L 500 4441 
Q 881 4594 1212 4672 
Q 1544 4750 1819 4750 
Q 2544 4750 2975 4387 
Q 3406 4025 3406 3419 
Q 3406 3131 3298 2873 
Q 3191 2616 2906 2266 
Q 2828 2175 2409 1742 
Q 1991 1309 1228 531 
z
" transform="scale(0.015625)"/>
       </defs>
       <use xlink:href="#DejaVuSans-32"/>
       <use xlink:href="#DejaVuSans-2e" transform="translate(63.623047 0)"/>
       <use xlink:href="#DejaVuSans-30" transform="translate(95.410156 0)"/>
      </g>
     </g>
    </g>
    <g id="xtick_6">
     <g id="line2d_6">
      <g>
       <use xlink:href="#me962e881ca" x="445.157001" y="457.558594" style="stroke: #000000; stroke-width: 0.8"/>
      </g>
     </g>
     <g id="text_6">
      <!-- 2.5 -->
      <g transform="translate(430.844189 478.235781) scale(0.18 -0.18)">
       <use xlink:href="#DejaVuSans-32"/>
       <use xlink:href="#DejaVuSans-2e" transform="translate(63.623047 0)"/>
       <use xlink:href="#DejaVuSans-35" transform="translate(95.410156 0)"/>
      </g>
     </g>
    </g>
    <g id="xtick_7">
     <g id="line2d_7">
      <g>
       <use xlink:href="#me962e881ca" x="515.125653" y="457.558594" style="stroke: #000000; stroke-width: 0.8"/>
      </g>
     </g>
     <g id="text_7">
      <!-- 3.0 -->
      <g transform="translate(500.812841 478.235781) scale(0.18 -0.18)">
       <defs>
        <path id="DejaVuSans-33" d="M 2597 2516 
Q 3050 2419 3304 2112 
Q 3559 1806 3559 1356 
Q 3559 666 3084 287 
Q 2609 -91 1734 -91 
Q 1441 -91 1130 -33 
Q 819 25 488 141 
L 488 750 
Q 750 597 1062 519 
Q 1375 441 1716 441 
Q 2309 441 2620 675 
Q 2931 909 2931 1356 
Q 2931 1769 2642 2001 
Q 2353 2234 1838 2234 
L 1294 2234 
L 1294 2753 
L 1863 2753 
Q 2328 2753 2575 2939 
Q 2822 3125 2822 3475 
Q 2822 3834 2567 4026 
Q 2313 4219 1838 4219 
Q 1578 4219 1281 4162 
Q 984 4106 628 3988 
L 628 4550 
Q 988 4650 1302 4700 
Q 1616 4750 1894 4750 
Q 2613 4750 3031 4423 
Q 3450 4097 3450 3541 
Q 3450 3153 3228 2886 
Q 3006 2619 2597 2516 
z
" transform="scale(0.015625)"/>
       </defs>
       <use xlink:href="#DejaVuSans-33"/>
       <use xlink:href="#DejaVuSans-2e" transform="translate(63.623047 0)"/>
       <use xlink:href="#DejaVuSans-30" transform="translate(95.410156 0)"/>
      </g>
     </g>
    </g>
    <g id="text_8">
     <!-- Sampling parameter -->
     <g transform="translate(196.791562 501.176094) scale(0.2 -0.2)">
      <defs>
       <path id="DejaVuSans-Bold-53" d="M 3834 4519 
L 3834 3531 
Q 3450 3703 3084 3790 
Q 2719 3878 2394 3878 
Q 1963 3878 1756 3759 
Q 1550 3641 1550 3391 
Q 1550 3203 1689 3098 
Q 1828 2994 2194 2919 
L 2706 2816 
Q 3484 2659 3812 2340 
Q 4141 2022 4141 1434 
Q 4141 663 3683 286 
Q 3225 -91 2284 -91 
Q 1841 -91 1394 -6 
Q 947 78 500 244 
L 500 1259 
Q 947 1022 1364 901 
Q 1781 781 2169 781 
Q 2563 781 2772 912 
Q 2981 1044 2981 1288 
Q 2981 1506 2839 1625 
Q 2697 1744 2272 1838 
L 1806 1941 
Q 1106 2091 782 2419 
Q 459 2747 459 3303 
Q 459 4000 909 4375 
Q 1359 4750 2203 4750 
Q 2588 4750 2994 4692 
Q 3400 4634 3834 4519 
z
" transform="scale(0.015625)"/>
       <path id="DejaVuSans-Bold-61" d="M 2106 1575 
Q 1756 1575 1579 1456 
Q 1403 1338 1403 1106 
Q 1403 894 1545 773 
Q 1688 653 1941 653 
Q 2256 653 2472 879 
Q 2688 1106 2688 1447 
L 2688 1575 
L 2106 1575 
z
M 3816 1997 
L 3816 0 
L 2688 0 
L 2688 519 
Q 2463 200 2181 54 
Q 1900 -91 1497 -91 
Q 953 -91 614 226 
Q 275 544 275 1050 
Q 275 1666 698 1953 
Q 1122 2241 2028 2241 
L 2688 2241 
L 2688 2328 
Q 2688 2594 2478 2717 
Q 2269 2841 1825 2841 
Q 1466 2841 1156 2769 
Q 847 2697 581 2553 
L 581 3406 
Q 941 3494 1303 3539 
Q 1666 3584 2028 3584 
Q 2975 3584 3395 3211 
Q 3816 2838 3816 1997 
z
" transform="scale(0.015625)"/>
       <path id="DejaVuSans-Bold-6d" d="M 3781 2919 
Q 3994 3244 4286 3414 
Q 4578 3584 4928 3584 
Q 5531 3584 5847 3212 
Q 6163 2841 6163 2131 
L 6163 0 
L 5038 0 
L 5038 1825 
Q 5041 1866 5042 1909 
Q 5044 1953 5044 2034 
Q 5044 2406 4934 2573 
Q 4825 2741 4581 2741 
Q 4263 2741 4089 2478 
Q 3916 2216 3909 1719 
L 3909 0 
L 2784 0 
L 2784 1825 
Q 2784 2406 2684 2573 
Q 2584 2741 2328 2741 
Q 2006 2741 1831 2477 
Q 1656 2213 1656 1722 
L 1656 0 
L 531 0 
L 531 3500 
L 1656 3500 
L 1656 2988 
Q 1863 3284 2130 3434 
Q 2397 3584 2719 3584 
Q 3081 3584 3359 3409 
Q 3638 3234 3781 2919 
z
" transform="scale(0.015625)"/>
       <path id="DejaVuSans-Bold-70" d="M 1656 506 
L 1656 -1331 
L 538 -1331 
L 538 3500 
L 1656 3500 
L 1656 2988 
Q 1888 3294 2169 3439 
Q 2450 3584 2816 3584 
Q 3463 3584 3878 3070 
Q 4294 2556 4294 1747 
Q 4294 938 3878 423 
Q 3463 -91 2816 -91 
Q 2450 -91 2169 54 
Q 1888 200 1656 506 
z
M 2400 2772 
Q 2041 2772 1848 2508 
Q 1656 2244 1656 1747 
Q 1656 1250 1848 986 
Q 2041 722 2400 722 
Q 2759 722 2948 984 
Q 3138 1247 3138 1747 
Q 3138 2247 2948 2509 
Q 2759 2772 2400 2772 
z
" transform="scale(0.015625)"/>
       <path id="DejaVuSans-Bold-6c" d="M 538 4863 
L 1656 4863 
L 1656 0 
L 538 0 
L 538 4863 
z
" transform="scale(0.015625)"/>
       <path id="DejaVuSans-Bold-69" d="M 538 3500 
L 1656 3500 
L 1656 0 
L 538 0 
L 538 3500 
z
M 538 4863 
L 1656 4863 
L 1656 3950 
L 538 3950 
L 538 4863 
z
" transform="scale(0.015625)"/>
       <path id="DejaVuSans-Bold-6e" d="M 4056 2131 
L 4056 0 
L 2931 0 
L 2931 347 
L 2931 1631 
Q 2931 2084 2911 2256 
Q 2891 2428 2841 2509 
Q 2775 2619 2662 2680 
Q 2550 2741 2406 2741 
Q 2056 2741 1856 2470 
Q 1656 2200 1656 1722 
L 1656 0 
L 538 0 
L 538 3500 
L 1656 3500 
L 1656 2988 
Q 1909 3294 2193 3439 
Q 2478 3584 2822 3584 
Q 3428 3584 3742 3212 
Q 4056 2841 4056 2131 
z
" transform="scale(0.015625)"/>
       <path id="DejaVuSans-Bold-67" d="M 2919 594 
Q 2688 288 2409 144 
Q 2131 0 1766 0 
Q 1125 0 706 504 
Q 288 1009 288 1791 
Q 288 2575 706 3076 
Q 1125 3578 1766 3578 
Q 2131 3578 2409 3434 
Q 2688 3291 2919 2981 
L 2919 3500 
L 4044 3500 
L 4044 353 
Q 4044 -491 3511 -936 
Q 2978 -1381 1966 -1381 
Q 1638 -1381 1331 -1331 
Q 1025 -1281 716 -1178 
L 716 -306 
Q 1009 -475 1290 -558 
Q 1572 -641 1856 -641 
Q 2406 -641 2662 -400 
Q 2919 -159 2919 353 
L 2919 594 
z
M 2181 2772 
Q 1834 2772 1640 2515 
Q 1447 2259 1447 1791 
Q 1447 1309 1634 1061 
Q 1822 813 2181 813 
Q 2531 813 2725 1069 
Q 2919 1325 2919 1791 
Q 2919 2259 2725 2515 
Q 2531 2772 2181 2772 
z
" transform="scale(0.015625)"/>
       <path id="DejaVuSans-Bold-20" transform="scale(0.015625)"/>
       <path id="DejaVuSans-Bold-72" d="M 3138 2547 
Q 2991 2616 2845 2648 
Q 2700 2681 2553 2681 
Q 2122 2681 1889 2404 
Q 1656 2128 1656 1613 
L 1656 0 
L 538 0 
L 538 3500 
L 1656 3500 
L 1656 2925 
Q 1872 3269 2151 3426 
Q 2431 3584 2822 3584 
Q 2878 3584 2943 3579 
Q 3009 3575 3134 3559 
L 3138 2547 
z
" transform="scale(0.015625)"/>
       <path id="DejaVuSans-Bold-65" d="M 4031 1759 
L 4031 1441 
L 1416 1441 
Q 1456 1047 1700 850 
Q 1944 653 2381 653 
Q 2734 653 3104 758 
Q 3475 863 3866 1075 
L 3866 213 
Q 3469 63 3072 -14 
Q 2675 -91 2278 -91 
Q 1328 -91 801 392 
Q 275 875 275 1747 
Q 275 2603 792 3093 
Q 1309 3584 2216 3584 
Q 3041 3584 3536 3087 
Q 4031 2591 4031 1759 
z
M 2881 2131 
Q 2881 2450 2695 2645 
Q 2509 2841 2209 2841 
Q 1884 2841 1681 2658 
Q 1478 2475 1428 2131 
L 2881 2131 
z
" transform="scale(0.015625)"/>
       <path id="DejaVuSans-Bold-74" d="M 1759 4494 
L 1759 3500 
L 2913 3500 
L 2913 2700 
L 1759 2700 
L 1759 1216 
Q 1759 972 1856 886 
Q 1953 800 2241 800 
L 2816 800 
L 2816 0 
L 1856 0 
Q 1194 0 917 276 
Q 641 553 641 1216 
L 641 2700 
L 84 2700 
L 84 3500 
L 641 3500 
L 641 4494 
L 1759 4494 
z
" transform="scale(0.015625)"/>
      </defs>
      <use xlink:href="#DejaVuSans-Bold-53"/>
      <use xlink:href="#DejaVuSans-Bold-61" transform="translate(72.021484 0)"/>
      <use xlink:href="#DejaVuSans-Bold-6d" transform="translate(139.501953 0)"/>
      <use xlink:href="#DejaVuSans-Bold-70" transform="translate(243.701172 0)"/>
      <use xlink:href="#DejaVuSans-Bold-6c" transform="translate(315.283203 0)"/>
      <use xlink:href="#DejaVuSans-Bold-69" transform="translate(349.560547 0)"/>
      <use xlink:href="#DejaVuSans-Bold-6e" transform="translate(383.837891 0)"/>
      <use xlink:href="#DejaVuSans-Bold-67" transform="translate(455.029297 0)"/>
      <use xlink:href="#DejaVuSans-Bold-20" transform="translate(526.611328 0)"/>
      <use xlink:href="#DejaVuSans-Bold-70" transform="translate(561.425781 0)"/>
      <use xlink:href="#DejaVuSans-Bold-61" transform="translate(633.007812 0)"/>
      <use xlink:href="#DejaVuSans-Bold-72" transform="translate(700.488281 0)"/>
      <use xlink:href="#DejaVuSans-Bold-61" transform="translate(749.804688 0)"/>
      <use xlink:href="#DejaVuSans-Bold-6d" transform="translate(817.285156 0)"/>
      <use xlink:href="#DejaVuSans-Bold-65" transform="translate(921.484375 0)"/>
      <use xlink:href="#DejaVuSans-Bold-74" transform="translate(989.306641 0)"/>
      <use xlink:href="#DejaVuSans-Bold-65" transform="translate(1037.109375 0)"/>
      <use xlink:href="#DejaVuSans-Bold-72" transform="translate(1104.931641 0)"/>
     </g>
    </g>
   </g>
   <g id="matplotlib.axis_2">
    <g id="ytick_1">
     <g id="line2d_8">
      <defs>
       <path id="m687948c907" d="M 0 0 
L -3.5 0 
" style="stroke: #000000; stroke-width: 0.8"/>
      </defs>
      <g>
       <use xlink:href="#m687948c907" x="89.016563" y="457.558594" style="stroke: #000000; stroke-width: 0.8"/>
      </g>
     </g>
     <g id="text_9">
      <!-- 0% -->
      <g transform="translate(53.46125 464.397187) scale(0.18 -0.18)">
       <defs>
        <path id="DejaVuSans-25" d="M 4653 2053 
Q 4381 2053 4226 1822 
Q 4072 1591 4072 1178 
Q 4072 772 4226 539 
Q 4381 306 4653 306 
Q 4919 306 5073 539 
Q 5228 772 5228 1178 
Q 5228 1588 5073 1820 
Q 4919 2053 4653 2053 
z
M 4653 2450 
Q 5147 2450 5437 2106 
Q 5728 1763 5728 1178 
Q 5728 594 5436 251 
Q 5144 -91 4653 -91 
Q 4153 -91 3862 251 
Q 3572 594 3572 1178 
Q 3572 1766 3864 2108 
Q 4156 2450 4653 2450 
z
M 1428 4353 
Q 1159 4353 1004 4120 
Q 850 3888 850 3481 
Q 850 3069 1003 2837 
Q 1156 2606 1428 2606 
Q 1700 2606 1854 2837 
Q 2009 3069 2009 3481 
Q 2009 3884 1853 4118 
Q 1697 4353 1428 4353 
z
M 4250 4750 
L 4750 4750 
L 1831 -91 
L 1331 -91 
L 4250 4750 
z
M 1428 4750 
Q 1922 4750 2215 4408 
Q 2509 4066 2509 3481 
Q 2509 2891 2217 2550 
Q 1925 2209 1428 2209 
Q 931 2209 642 2551 
Q 353 2894 353 3481 
Q 353 4063 643 4406 
Q 934 4750 1428 4750 
z
" transform="scale(0.015625)"/>
       </defs>
       <use xlink:href="#DejaVuSans-30"/>
       <use xlink:href="#DejaVuSans-25" transform="translate(63.623047 0)"/>
      </g>
     </g>
    </g>
    <g id="ytick_2">
     <g id="line2d_9">
      <g>
       <use xlink:href="#m687948c907" x="89.016563" y="368.854594" style="stroke: #000000; stroke-width: 0.8"/>
      </g>
     </g>
     <g id="text_10">
      <!-- 20% -->
      <g transform="translate(42.00875 375.693187) scale(0.18 -0.18)">
       <use xlink:href="#DejaVuSans-32"/>
       <use xlink:href="#DejaVuSans-30" transform="translate(63.623047 0)"/>
       <use xlink:href="#DejaVuSans-25" transform="translate(127.246094 0)"/>
      </g>
     </g>
    </g>
    <g id="ytick_3">
     <g id="line2d_10">
      <g>
       <use xlink:href="#m687948c907" x="89.016563" y="280.150594" style="stroke: #000000; stroke-width: 0.8"/>
      </g>
     </g>
     <g id="text_11">
      <!-- 40% -->
      <g transform="translate(42.00875 286.989187) scale(0.18 -0.18)">
       <defs>
        <path id="DejaVuSans-34" d="M 2419 4116 
L 825 1625 
L 2419 1625 
L 2419 4116 
z
M 2253 4666 
L 3047 4666 
L 3047 1625 
L 3713 1625 
L 3713 1100 
L 3047 1100 
L 3047 0 
L 2419 0 
L 2419 1100 
L 313 1100 
L 313 1709 
L 2253 4666 
z
" transform="scale(0.015625)"/>
       </defs>
       <use xlink:href="#DejaVuSans-34"/>
       <use xlink:href="#DejaVuSans-30" transform="translate(63.623047 0)"/>
       <use xlink:href="#DejaVuSans-25" transform="translate(127.246094 0)"/>
      </g>
     </g>
    </g>
    <g id="ytick_4">
     <g id="line2d_11">
      <g>
       <use xlink:href="#m687948c907" x="89.016563" y="191.446594" style="stroke: #000000; stroke-width: 0.8"/>
      </g>
     </g>
     <g id="text_12">
      <!-- 60% -->
      <g transform="translate(42.00875 198.285187) scale(0.18 -0.18)">
       <defs>
        <path id="DejaVuSans-36" d="M 2113 2584 
Q 1688 2584 1439 2293 
Q 1191 2003 1191 1497 
Q 1191 994 1439 701 
Q 1688 409 2113 409 
Q 2538 409 2786 701 
Q 3034 994 3034 1497 
Q 3034 2003 2786 2293 
Q 2538 2584 2113 2584 
z
M 3366 4563 
L 3366 3988 
Q 3128 4100 2886 4159 
Q 2644 4219 2406 4219 
Q 1781 4219 1451 3797 
Q 1122 3375 1075 2522 
Q 1259 2794 1537 2939 
Q 1816 3084 2150 3084 
Q 2853 3084 3261 2657 
Q 3669 2231 3669 1497 
Q 3669 778 3244 343 
Q 2819 -91 2113 -91 
Q 1303 -91 875 529 
Q 447 1150 447 2328 
Q 447 3434 972 4092 
Q 1497 4750 2381 4750 
Q 2619 4750 2861 4703 
Q 3103 4656 3366 4563 
z
" transform="scale(0.015625)"/>
       </defs>
       <use xlink:href="#DejaVuSans-36"/>
       <use xlink:href="#DejaVuSans-30" transform="translate(63.623047 0)"/>
       <use xlink:href="#DejaVuSans-25" transform="translate(127.246094 0)"/>
      </g>
     </g>
    </g>
    <g id="ytick_5">
     <g id="line2d_12">
      <g>
       <use xlink:href="#m687948c907" x="89.016563" y="102.742594" style="stroke: #000000; stroke-width: 0.8"/>
      </g>
     </g>
     <g id="text_13">
      <!-- 80% -->
      <g transform="translate(42.00875 109.581187) scale(0.18 -0.18)">
       <defs>
        <path id="DejaVuSans-38" d="M 2034 2216 
Q 1584 2216 1326 1975 
Q 1069 1734 1069 1313 
Q 1069 891 1326 650 
Q 1584 409 2034 409 
Q 2484 409 2743 651 
Q 3003 894 3003 1313 
Q 3003 1734 2745 1975 
Q 2488 2216 2034 2216 
z
M 1403 2484 
Q 997 2584 770 2862 
Q 544 3141 544 3541 
Q 544 4100 942 4425 
Q 1341 4750 2034 4750 
Q 2731 4750 3128 4425 
Q 3525 4100 3525 3541 
Q 3525 3141 3298 2862 
Q 3072 2584 2669 2484 
Q 3125 2378 3379 2068 
Q 3634 1759 3634 1313 
Q 3634 634 3220 271 
Q 2806 -91 2034 -91 
Q 1263 -91 848 271 
Q 434 634 434 1313 
Q 434 1759 690 2068 
Q 947 2378 1403 2484 
z
M 1172 3481 
Q 1172 3119 1398 2916 
Q 1625 2713 2034 2713 
Q 2441 2713 2670 2916 
Q 2900 3119 2900 3481 
Q 2900 3844 2670 4047 
Q 2441 4250 2034 4250 
Q 1625 4250 1398 4047 
Q 1172 3844 1172 3481 
z
" transform="scale(0.015625)"/>
       </defs>
       <use xlink:href="#DejaVuSans-38"/>
       <use xlink:href="#DejaVuSans-30" transform="translate(63.623047 0)"/>
       <use xlink:href="#DejaVuSans-25" transform="translate(127.246094 0)"/>
      </g>
     </g>
    </g>
    <g id="ytick_6">
     <g id="line2d_13">
      <g>
       <use xlink:href="#m687948c907" x="89.016563" y="14.038594" style="stroke: #000000; stroke-width: 0.8"/>
      </g>
     </g>
     <g id="text_14">
      <!-- 100% -->
      <g transform="translate(30.55625 20.877187) scale(0.18 -0.18)">
       <use xlink:href="#DejaVuSans-31"/>
       <use xlink:href="#DejaVuSans-30" transform="translate(63.623047 0)"/>
       <use xlink:href="#DejaVuSans-30" transform="translate(127.246094 0)"/>
       <use xlink:href="#DejaVuSans-25" transform="translate(190.869141 0)"/>
      </g>
     </g>
    </g>
    <g id="text_15">
     <!-- Retained barcodes -->
     <g transform="translate(22.396875 341.306406) rotate(-90) scale(0.2 -0.2)">
      <defs>
       <path id="DejaVuSans-Bold-52" d="M 2297 2597 
Q 2675 2597 2839 2737 
Q 3003 2878 3003 3200 
Q 3003 3519 2839 3656 
Q 2675 3794 2297 3794 
L 1791 3794 
L 1791 2597 
L 2297 2597 
z
M 1791 1766 
L 1791 0 
L 588 0 
L 588 4666 
L 2425 4666 
Q 3347 4666 3776 4356 
Q 4206 4047 4206 3378 
Q 4206 2916 3982 2619 
Q 3759 2322 3309 2181 
Q 3556 2125 3751 1926 
Q 3947 1728 4147 1325 
L 4800 0 
L 3519 0 
L 2950 1159 
Q 2778 1509 2601 1637 
Q 2425 1766 2131 1766 
L 1791 1766 
z
" transform="scale(0.015625)"/>
       <path id="DejaVuSans-Bold-64" d="M 2919 2988 
L 2919 4863 
L 4044 4863 
L 4044 0 
L 2919 0 
L 2919 506 
Q 2688 197 2409 53 
Q 2131 -91 1766 -91 
Q 1119 -91 703 423 
Q 288 938 288 1747 
Q 288 2556 703 3070 
Q 1119 3584 1766 3584 
Q 2128 3584 2408 3439 
Q 2688 3294 2919 2988 
z
M 2181 722 
Q 2541 722 2730 984 
Q 2919 1247 2919 1747 
Q 2919 2247 2730 2509 
Q 2541 2772 2181 2772 
Q 1825 2772 1636 2509 
Q 1447 2247 1447 1747 
Q 1447 1247 1636 984 
Q 1825 722 2181 722 
z
" transform="scale(0.015625)"/>
       <path id="DejaVuSans-Bold-62" d="M 2400 722 
Q 2759 722 2948 984 
Q 3138 1247 3138 1747 
Q 3138 2247 2948 2509 
Q 2759 2772 2400 2772 
Q 2041 2772 1848 2508 
Q 1656 2244 1656 1747 
Q 1656 1250 1848 986 
Q 2041 722 2400 722 
z
M 1656 2988 
Q 1888 3294 2169 3439 
Q 2450 3584 2816 3584 
Q 3463 3584 3878 3070 
Q 4294 2556 4294 1747 
Q 4294 938 3878 423 
Q 3463 -91 2816 -91 
Q 2450 -91 2169 54 
Q 1888 200 1656 506 
L 1656 0 
L 538 0 
L 538 4863 
L 1656 4863 
L 1656 2988 
z
" transform="scale(0.015625)"/>
       <path id="DejaVuSans-Bold-63" d="M 3366 3391 
L 3366 2478 
Q 3138 2634 2908 2709 
Q 2678 2784 2431 2784 
Q 1963 2784 1702 2511 
Q 1441 2238 1441 1747 
Q 1441 1256 1702 982 
Q 1963 709 2431 709 
Q 2694 709 2930 787 
Q 3166 866 3366 1019 
L 3366 103 
Q 3103 6 2833 -42 
Q 2563 -91 2291 -91 
Q 1344 -91 809 395 
Q 275 881 275 1747 
Q 275 2613 809 3098 
Q 1344 3584 2291 3584 
Q 2566 3584 2833 3536 
Q 3100 3488 3366 3391 
z
" transform="scale(0.015625)"/>
       <path id="DejaVuSans-Bold-6f" d="M 2203 2784 
Q 1831 2784 1636 2517 
Q 1441 2250 1441 1747 
Q 1441 1244 1636 976 
Q 1831 709 2203 709 
Q 2569 709 2762 976 
Q 2956 1244 2956 1747 
Q 2956 2250 2762 2517 
Q 2569 2784 2203 2784 
z
M 2203 3584 
Q 3106 3584 3614 3096 
Q 4122 2609 4122 1747 
Q 4122 884 3614 396 
Q 3106 -91 2203 -91 
Q 1297 -91 786 396 
Q 275 884 275 1747 
Q 275 2609 786 3096 
Q 1297 3584 2203 3584 
z
" transform="scale(0.015625)"/>
       <path id="DejaVuSans-Bold-73" d="M 3272 3391 
L 3272 2541 
Q 2913 2691 2578 2766 
Q 2244 2841 1947 2841 
Q 1628 2841 1473 2761 
Q 1319 2681 1319 2516 
Q 1319 2381 1436 2309 
Q 1553 2238 1856 2203 
L 2053 2175 
Q 2913 2066 3209 1816 
Q 3506 1566 3506 1031 
Q 3506 472 3093 190 
Q 2681 -91 1863 -91 
Q 1516 -91 1145 -36 
Q 775 19 384 128 
L 384 978 
Q 719 816 1070 734 
Q 1422 653 1784 653 
Q 2113 653 2278 743 
Q 2444 834 2444 1013 
Q 2444 1163 2330 1236 
Q 2216 1309 1875 1350 
L 1678 1375 
Q 931 1469 631 1722 
Q 331 1975 331 2491 
Q 331 3047 712 3315 
Q 1094 3584 1881 3584 
Q 2191 3584 2531 3537 
Q 2872 3491 3272 3391 
z
" transform="scale(0.015625)"/>
      </defs>
      <use xlink:href="#DejaVuSans-Bold-52"/>
      <use xlink:href="#DejaVuSans-Bold-65" transform="translate(77.001953 0)"/>
      <use xlink:href="#DejaVuSans-Bold-74" transform="translate(144.824219 0)"/>
      <use xlink:href="#DejaVuSans-Bold-61" transform="translate(192.626953 0)"/>
      <use xlink:href="#DejaVuSans-Bold-69" transform="translate(260.107422 0)"/>
      <use xlink:href="#DejaVuSans-Bold-6e" transform="translate(294.384766 0)"/>
      <use xlink:href="#DejaVuSans-Bold-65" transform="translate(365.576172 0)"/>
      <use xlink:href="#DejaVuSans-Bold-64" transform="translate(433.398438 0)"/>
      <use xlink:href="#DejaVuSans-Bold-20" transform="translate(504.980469 0)"/>
      <use xlink:href="#DejaVuSans-Bold-62" transform="translate(539.794922 0)"/>
      <use xlink:href="#DejaVuSans-Bold-61" transform="translate(611.376953 0)"/>
      <use xlink:href="#DejaVuSans-Bold-72" transform="translate(678.857422 0)"/>
      <use xlink:href="#DejaVuSans-Bold-63" transform="translate(728.173828 0)"/>
      <use xlink:href="#DejaVuSans-Bold-6f" transform="translate(787.451172 0)"/>
      <use xlink:href="#DejaVuSans-Bold-64" transform="translate(856.152344 0)"/>
      <use xlink:href="#DejaVuSans-Bold-65" transform="translate(927.734375 0)"/>
      <use xlink:href="#DejaVuSans-Bold-73" transform="translate(995.556641 0)"/>
     </g>
    </g>
   </g>
   <g id="line2d_14">
    <path d="M 109.307472 194.469726 
L 123.301202 126.532477 
L 137.294932 96.144545 
L 151.288663 79.646823 
L 165.282393 69.541112 
L 179.276124 62.821296 
L 193.269854 58.130777 
L 207.263584 54.693031 
L 221.257315 52.099433 
L 235.251045 50.093736 
" clip-path="url(#p3f7b1539e4)" style="fill: none; stroke: #227c9d; stroke-opacity: 0.9; stroke-width: 1.5; stroke-linecap: square"/>
    <defs>
     <path id="m38486cb8c6" d="M 0 3 
C 0.795609 3 1.55874 2.683901 2.12132 2.12132 
C 2.683901 1.55874 3 0.795609 3 0 
C 3 -0.795609 2.683901 -1.55874 2.12132 -2.12132 
C 1.55874 -2.683901 0.795609 -3 0 -3 
C -0.795609 -3 -1.55874 -2.683901 -2.12132 -2.12132 
C -2.683901 -1.55874 -3 -0.795609 -3 0 
C -3 0.795609 -2.683901 1.55874 -2.12132 2.12132 
C -1.55874 2.683901 -0.795609 3 0 3 
z
" style="stroke: #ffffff; stroke-opacity: 0.9; stroke-width: 0.75"/>
    </defs>
    <g clip-path="url(#p3f7b1539e4)">
     <use xlink:href="#m38486cb8c6" x="109.307472" y="194.469726" style="fill: #227c9d; fill-opacity: 0.9; stroke: #ffffff; stroke-opacity: 0.9; stroke-width: 0.75"/>
     <use xlink:href="#m38486cb8c6" x="123.301202" y="126.532477" style="fill: #227c9d; fill-opacity: 0.9; stroke: #ffffff; stroke-opacity: 0.9; stroke-width: 0.75"/>
     <use xlink:href="#m38486cb8c6" x="137.294932" y="96.144545" style="fill: #227c9d; fill-opacity: 0.9; stroke: #ffffff; stroke-opacity: 0.9; stroke-width: 0.75"/>
     <use xlink:href="#m38486cb8c6" x="151.288663" y="79.646823" style="fill: #227c9d; fill-opacity: 0.9; stroke: #ffffff; stroke-opacity: 0.9; stroke-width: 0.75"/>
     <use xlink:href="#m38486cb8c6" x="165.282393" y="69.541112" style="fill: #227c9d; fill-opacity: 0.9; stroke: #ffffff; stroke-opacity: 0.9; stroke-width: 0.75"/>
     <use xlink:href="#m38486cb8c6" x="179.276124" y="62.821296" style="fill: #227c9d; fill-opacity: 0.9; stroke: #ffffff; stroke-opacity: 0.9; stroke-width: 0.75"/>
     <use xlink:href="#m38486cb8c6" x="193.269854" y="58.130777" style="fill: #227c9d; fill-opacity: 0.9; stroke: #ffffff; stroke-opacity: 0.9; stroke-width: 0.75"/>
     <use xlink:href="#m38486cb8c6" x="207.263584" y="54.693031" style="fill: #227c9d; fill-opacity: 0.9; stroke: #ffffff; stroke-opacity: 0.9; stroke-width: 0.75"/>
     <use xlink:href="#m38486cb8c6" x="221.257315" y="52.099433" style="fill: #227c9d; fill-opacity: 0.9; stroke: #ffffff; stroke-opacity: 0.9; stroke-width: 0.75"/>
     <use xlink:href="#m38486cb8c6" x="235.251045" y="50.093736" style="fill: #227c9d; fill-opacity: 0.9; stroke: #ffffff; stroke-opacity: 0.9; stroke-width: 0.75"/>
    </g>
   </g>
   <g id="line2d_15">
    <path d="M 109.307472 279.692259 
L 123.301202 198.40047 
L 137.294932 153.557308 
L 151.288663 126.225268 
L 165.282393 108.209729 
L 179.276124 95.601643 
L 193.269854 86.494192 
L 207.263584 79.639592 
L 221.257315 74.430699 
L 235.251045 70.290526 
" clip-path="url(#p3f7b1539e4)" style="fill: none; stroke: #227c9d; stroke-opacity: 0.9; stroke-width: 1.5; stroke-linecap: square"/>
    <defs>
     <path id="m05e28325c9" d="M -0 4.242641 
L 4.242641 0 
L 0 -4.242641 
L -4.242641 -0 
z
" style="stroke: #ffffff; stroke-opacity: 0.9; stroke-width: 0.75; stroke-linejoin: miter"/>
    </defs>
    <g clip-path="url(#p3f7b1539e4)">
     <use xlink:href="#m05e28325c9" x="109.307472" y="279.692259" style="fill: #227c9d; fill-opacity: 0.9; stroke: #ffffff; stroke-opacity: 0.9; stroke-width: 0.75; stroke-linejoin: miter"/>
     <use xlink:href="#m05e28325c9" x="123.301202" y="198.40047" style="fill: #227c9d; fill-opacity: 0.9; stroke: #ffffff; stroke-opacity: 0.9; stroke-width: 0.75; stroke-linejoin: miter"/>
     <use xlink:href="#m05e28325c9" x="137.294932" y="153.557308" style="fill: #227c9d; fill-opacity: 0.9; stroke: #ffffff; stroke-opacity: 0.9; stroke-width: 0.75; stroke-linejoin: miter"/>
     <use xlink:href="#m05e28325c9" x="151.288663" y="126.225268" style="fill: #227c9d; fill-opacity: 0.9; stroke: #ffffff; stroke-opacity: 0.9; stroke-width: 0.75; stroke-linejoin: miter"/>
     <use xlink:href="#m05e28325c9" x="165.282393" y="108.209729" style="fill: #227c9d; fill-opacity: 0.9; stroke: #ffffff; stroke-opacity: 0.9; stroke-width: 0.75; stroke-linejoin: miter"/>
     <use xlink:href="#m05e28325c9" x="179.276124" y="95.601643" style="fill: #227c9d; fill-opacity: 0.9; stroke: #ffffff; stroke-opacity: 0.9; stroke-width: 0.75; stroke-linejoin: miter"/>
     <use xlink:href="#m05e28325c9" x="193.269854" y="86.494192" style="fill: #227c9d; fill-opacity: 0.9; stroke: #ffffff; stroke-opacity: 0.9; stroke-width: 0.75; stroke-linejoin: miter"/>
     <use xlink:href="#m05e28325c9" x="207.263584" y="79.639592" style="fill: #227c9d; fill-opacity: 0.9; stroke: #ffffff; stroke-opacity: 0.9; stroke-width: 0.75; stroke-linejoin: miter"/>
     <use xlink:href="#m05e28325c9" x="221.257315" y="74.430699" style="fill: #227c9d; fill-opacity: 0.9; stroke: #ffffff; stroke-opacity: 0.9; stroke-width: 0.75; stroke-linejoin: miter"/>
     <use xlink:href="#m05e28325c9" x="235.251045" y="70.290526" style="fill: #227c9d; fill-opacity: 0.9; stroke: #ffffff; stroke-opacity: 0.9; stroke-width: 0.75; stroke-linejoin: miter"/>
    </g>
   </g>
   <g id="line2d_16"/>
   <g id="line2d_17"/>
   <g id="line2d_18">
    <path d="M 109.307472 280.296082 
L 113.406645 249.48648 
L 117.505819 224.746568 
L 121.604992 204.55487 
L 125.704166 187.826151 
L 129.803339 173.77883 
L 133.902513 161.841335 
L 138.001686 151.588696 
L 142.10086 142.699774 
L 146.200034 134.928165 
L 150.299207 128.08212 
L 154.398381 122.010469 
L 158.497554 116.592615 
L 162.596728 111.731298 
L 166.695901 107.34729 
L 170.795075 103.375461 
L 174.894248 99.761819 
L 178.993422 96.461252 
L 183.092596 93.435802 
L 187.191769 90.653311 
L 191.290943 88.086371 
L 195.390116 85.711487 
L 199.48929 83.508408 
L 203.588463 81.459593 
L 207.687637 79.549776 
L 211.78681 77.765613 
L 215.885984 76.095394 
L 219.985158 74.528797 
L 224.084331 73.056695 
L 228.183505 71.670989 
L 232.282678 70.364465 
L 236.381852 69.130683 
L 240.481025 67.963871 
L 244.580199 66.858846 
L 248.679372 65.810939 
L 252.778546 64.815933 
L 256.87772 63.870013 
L 260.976893 62.969715 
L 265.076067 62.111891 
L 269.17524 61.293672 
L 273.274414 60.51244 
L 277.373587 59.765796 
L 281.472761 59.051546 
L 285.571934 58.367673 
L 289.671108 57.712323 
L 293.770282 57.083787 
L 297.869455 56.480489 
L 301.968629 55.900972 
L 306.067802 55.343889 
L 310.166976 54.80799 
L 314.266149 54.292116 
L 318.365323 53.79519 
L 322.464496 53.31621 
L 326.56367 52.854242 
L 330.662843 52.408415 
L 334.762017 51.977917 
L 338.861191 51.561987 
L 342.960364 51.159915 
L 347.059538 50.771034 
L 351.158711 50.394719 
L 355.257885 50.030386 
L 359.357058 49.677482 
L 363.456232 49.33549 
L 367.555405 49.003922 
L 371.654579 48.68232 
L 375.753753 48.37025 
L 379.852926 48.067305 
L 383.9521 47.773097 
L 388.051273 47.487263 
L 392.150447 47.209458 
L 396.24962 46.939356 
L 400.348794 46.676647 
L 404.447967 46.421039 
L 408.547141 46.172253 
L 412.646315 45.930027 
L 416.745488 45.694109 
L 420.844662 45.464262 
L 424.943835 45.240259 
L 429.043009 45.021885 
L 433.142182 44.808935 
L 437.241356 44.601213 
L 441.340529 44.398535 
L 445.439703 44.200721 
L 449.538877 44.007603 
L 453.63805 43.819019 
L 457.737224 43.634815 
L 461.836397 43.454843 
L 465.935571 43.278962 
L 470.034744 43.107037 
L 474.133918 42.938939 
L 478.233091 42.774544 
L 482.332265 42.613734 
L 486.431439 42.456395 
L 490.530612 42.302419 
L 494.629786 42.151701 
L 498.728959 42.004142 
L 502.828133 41.859644 
L 506.927306 41.718115 
L 511.02648 41.579468 
L 515.125653 41.443617 
" clip-path="url(#p3f7b1539e4)" style="fill: none; stroke: #d3d3d3; stroke-opacity: 0.5; stroke-width: 1.5; stroke-linecap: square"/>
   </g>
   <g id="line2d_19">
    <path d="M 109.307472 194.784372 
L 113.406645 166.698896 
L 117.505819 146.319821 
L 121.604992 130.934297 
L 125.704166 118.948429 
L 129.803339 109.371692 
L 133.902513 101.559203 
L 138.001686 95.074508 
L 142.10086 89.612421 
L 146.200034 84.95354 
L 150.299207 80.936326 
L 154.398381 77.439351 
L 158.497554 74.369676 
L 162.596728 71.655011 
L 166.695901 69.238331 
L 170.795075 67.074072 
L 174.894248 65.125412 
L 178.993422 63.362283 
L 183.092596 61.759903 
L 187.191769 60.297667 
L 191.290943 58.958314 
L 195.390116 57.727276 
L 199.48929 56.592174 
L 203.588463 55.542431 
L 207.687637 54.568951 
L 211.78681 53.663874 
L 215.885984 52.820372 
L 219.985158 52.03249 
L 224.084331 51.295006 
L 228.183505 50.603328 
L 232.282678 49.953397 
L 236.381852 49.341618 
L 240.481025 48.764791 
L 244.580199 48.220061 
L 248.679372 47.704874 
L 252.778546 47.216934 
L 256.87772 46.754179 
L 260.976893 46.314743 
L 265.076067 45.896942 
L 269.17524 45.499247 
L 273.274414 45.120268 
L 277.373587 44.75874 
L 281.472761 44.413507 
L 285.571934 44.083514 
L 289.671108 43.767792 
L 293.770282 43.465453 
L 297.869455 43.17568 
L 301.968629 42.89772 
L 306.067802 42.63088 
L 310.166976 42.374518 
L 314.266149 42.12804 
L 318.365323 41.890897 
L 322.464496 41.662578 
L 326.56367 41.442609 
L 330.662843 41.23055 
L 334.762017 41.025989 
L 338.861191 40.828543 
L 342.960364 40.637854 
L 347.059538 40.453589 
L 351.158711 40.275433 
L 355.257885 40.103095 
L 359.357058 39.936298 
L 363.456232 39.774786 
L 367.555405 39.618315 
L 371.654579 39.466658 
L 375.753753 39.319601 
L 379.852926 39.176941 
L 383.9521 39.038487 
L 388.051273 38.904061 
L 392.150447 38.773491 
L 396.24962 38.646618 
L 400.348794 38.52329 
L 404.447967 38.403363 
L 408.547141 38.286702 
L 412.646315 38.173176 
L 416.745488 38.062665 
L 420.844662 37.95505 
L 424.943835 37.850224 
L 429.043009 37.748079 
L 433.142182 37.648518 
L 437.241356 37.551445 
L 441.340529 37.456769 
L 445.439703 37.364405 
L 449.538877 37.27427 
L 453.63805 37.186287 
L 457.737224 37.10038 
L 461.836397 37.016479 
L 465.935571 36.934516 
L 470.034744 36.854425 
L 474.133918 36.776144 
L 478.233091 36.699614 
L 482.332265 36.624777 
L 486.431439 36.55158 
L 490.530612 36.479969 
L 494.629786 36.409896 
L 498.728959 36.341311 
L 502.828133 36.274169 
L 506.927306 36.208426 
L 511.02648 36.14404 
L 515.125653 36.080968 
" clip-path="url(#p3f7b1539e4)" style="fill: none; stroke: #d3d3d3; stroke-opacity: 0.5; stroke-width: 1.5; stroke-linecap: square"/>
   </g>
   <g id="patch_3">
    <path d="M 89.016563 457.558594 
L 89.016563 14.038594 
" style="fill: none; stroke: #000000; stroke-linejoin: miter; stroke-linecap: square"/>
   </g>
   <g id="patch_4">
    <path d="M 89.016563 457.558594 
L 535.416562 457.558594 
" style="fill: none; stroke: #000000; stroke-linejoin: miter; stroke-linecap: square"/>
   </g>
   <g id="text_16">
    <!-- +1.6% -->
    <g transform="translate(267.238506 56.82762) scale(0.08 -0.08)">
     <defs>
      <path id="DejaVuSans-2b" d="M 2944 4013 
L 2944 2272 
L 4684 2272 
L 4684 1741 
L 2944 1741 
L 2944 0 
L 2419 0 
L 2419 1741 
L 678 1741 
L 678 2272 
L 2419 2272 
L 2419 4013 
L 2944 4013 
z
" transform="scale(0.015625)"/>
     </defs>
     <use xlink:href="#DejaVuSans-2b"/>
     <use xlink:href="#DejaVuSans-31" transform="translate(83.789062 0)"/>
     <use xlink:href="#DejaVuSans-2e" transform="translate(147.412109 0)"/>
     <use xlink:href="#DejaVuSans-36" transform="translate(179.199219 0)"/>
     <use xlink:href="#DejaVuSans-25" transform="translate(242.822266 0)"/>
    </g>
   </g>
   <g id="text_17">
    <!-- +0.8% -->
    <g transform="translate(267.238506 40.417908) scale(0.08 -0.08)">
     <use xlink:href="#DejaVuSans-2b"/>
     <use xlink:href="#DejaVuSans-30" transform="translate(83.789062 0)"/>
     <use xlink:href="#DejaVuSans-2e" transform="translate(147.412109 0)"/>
     <use xlink:href="#DejaVuSans-38" transform="translate(179.199219 0)"/>
     <use xlink:href="#DejaVuSans-25" transform="translate(242.822266 0)"/>
    </g>
   </g>
   <g id="text_18">
    <!-- +3.2% -->
    <g transform="translate(309.219697 49.79362) scale(0.08 -0.08)">
     <use xlink:href="#DejaVuSans-2b"/>
     <use xlink:href="#DejaVuSans-33" transform="translate(83.789062 0)"/>
     <use xlink:href="#DejaVuSans-2e" transform="translate(147.412109 0)"/>
     <use xlink:href="#DejaVuSans-32" transform="translate(179.199219 0)"/>
     <use xlink:href="#DejaVuSans-25" transform="translate(242.822266 0)"/>
    </g>
   </g>
   <g id="text_19">
    <!-- +1.5% -->
    <g transform="translate(309.219697 37.021458) scale(0.08 -0.08)">
     <use xlink:href="#DejaVuSans-2b"/>
     <use xlink:href="#DejaVuSans-31" transform="translate(83.789062 0)"/>
     <use xlink:href="#DejaVuSans-2e" transform="translate(147.412109 0)"/>
     <use xlink:href="#DejaVuSans-35" transform="translate(179.199219 0)"/>
     <use xlink:href="#DejaVuSans-25" transform="translate(242.822266 0)"/>
    </g>
   </g>
   <g id="text_20">
    <!-- +4.1% -->
    <g transform="translate(344.204023 45.765031) scale(0.08 -0.08)">
     <use xlink:href="#DejaVuSans-2b"/>
     <use xlink:href="#DejaVuSans-34" transform="translate(83.789062 0)"/>
     <use xlink:href="#DejaVuSans-2e" transform="translate(147.412109 0)"/>
     <use xlink:href="#DejaVuSans-31" transform="translate(179.199219 0)"/>
     <use xlink:href="#DejaVuSans-25" transform="translate(242.822266 0)"/>
    </g>
   </g>
   <g id="text_21">
    <!-- +2.0% -->
    <g transform="translate(344.204023 35.101598) scale(0.08 -0.08)">
     <use xlink:href="#DejaVuSans-2b"/>
     <use xlink:href="#DejaVuSans-32" transform="translate(83.789062 0)"/>
     <use xlink:href="#DejaVuSans-2e" transform="translate(147.412109 0)"/>
     <use xlink:href="#DejaVuSans-30" transform="translate(179.199219 0)"/>
     <use xlink:href="#DejaVuSans-25" transform="translate(242.822266 0)"/>
    </g>
   </g>
   <g id="text_22">
    <!-- +4.8% -->
    <g transform="translate(379.188349 42.748993) scale(0.08 -0.08)">
     <use xlink:href="#DejaVuSans-2b"/>
     <use xlink:href="#DejaVuSans-34" transform="translate(83.789062 0)"/>
     <use xlink:href="#DejaVuSans-2e" transform="translate(147.412109 0)"/>
     <use xlink:href="#DejaVuSans-38" transform="translate(179.199219 0)"/>
     <use xlink:href="#DejaVuSans-25" transform="translate(242.822266 0)"/>
    </g>
   </g>
   <g id="text_23">
    <!-- +2.3% -->
    <g transform="translate(379.188349 33.675869) scale(0.08 -0.08)">
     <use xlink:href="#DejaVuSans-2b"/>
     <use xlink:href="#DejaVuSans-32" transform="translate(83.789062 0)"/>
     <use xlink:href="#DejaVuSans-2e" transform="translate(147.412109 0)"/>
     <use xlink:href="#DejaVuSans-33" transform="translate(179.199219 0)"/>
     <use xlink:href="#DejaVuSans-25" transform="translate(242.822266 0)"/>
    </g>
   </g>
   <g id="text_24">
    <!-- +5.8% -->
    <g transform="translate(449.157001 38.550461) scale(0.08 -0.08)">
     <use xlink:href="#DejaVuSans-2b"/>
     <use xlink:href="#DejaVuSans-35" transform="translate(83.789062 0)"/>
     <use xlink:href="#DejaVuSans-2e" transform="translate(147.412109 0)"/>
     <use xlink:href="#DejaVuSans-38" transform="translate(179.199219 0)"/>
     <use xlink:href="#DejaVuSans-25" transform="translate(242.822266 0)"/>
    </g>
   </g>
   <g id="text_25">
    <!-- +2.7% -->
    <g transform="translate(449.157001 31.706952) scale(0.08 -0.08)">
     <defs>
      <path id="DejaVuSans-37" d="M 525 4666 
L 3525 4666 
L 3525 4397 
L 1831 0 
L 1172 0 
L 2766 4134 
L 525 4134 
L 525 4666 
z
" transform="scale(0.015625)"/>
     </defs>
     <use xlink:href="#DejaVuSans-2b"/>
     <use xlink:href="#DejaVuSans-32" transform="translate(83.789062 0)"/>
     <use xlink:href="#DejaVuSans-2e" transform="translate(147.412109 0)"/>
     <use xlink:href="#DejaVuSans-37" transform="translate(179.199219 0)"/>
     <use xlink:href="#DejaVuSans-25" transform="translate(242.822266 0)"/>
    </g>
   </g>
   <g id="text_26">
    <!-- +6.4% -->
    <g transform="translate(519.125653 35.779867) scale(0.08 -0.08)">
     <use xlink:href="#DejaVuSans-2b"/>
     <use xlink:href="#DejaVuSans-36" transform="translate(83.789062 0)"/>
     <use xlink:href="#DejaVuSans-2e" transform="translate(147.412109 0)"/>
     <use xlink:href="#DejaVuSans-34" transform="translate(179.199219 0)"/>
     <use xlink:href="#DejaVuSans-25" transform="translate(242.822266 0)"/>
    </g>
   </g>
   <g id="text_27">
    <!-- +3.0% -->
    <g transform="translate(519.125653 30.417218) scale(0.08 -0.08)">
     <use xlink:href="#DejaVuSans-2b"/>
     <use xlink:href="#DejaVuSans-33" transform="translate(83.789062 0)"/>
     <use xlink:href="#DejaVuSans-2e" transform="translate(147.412109 0)"/>
     <use xlink:href="#DejaVuSans-30" transform="translate(179.199219 0)"/>
     <use xlink:href="#DejaVuSans-25" transform="translate(242.822266 0)"/>
    </g>
   </g>
   <g id="legend_1">
    <g id="line2d_20">
     <path d="M 318.747187 208.044844 
L 336.747187 208.044844 
L 354.747187 208.044844 
" style="fill: none; stroke: #d3d3d3; stroke-width: 1.5; stroke-linecap: square"/>
     <defs>
      <path id="mf09acfdf9e" d="M -3 3 
L 3 3 
L 3 -3 
L -3 -3 
z
" style="stroke: #d3d3d3; stroke-linejoin: miter"/>
     </defs>
     <g>
      <use xlink:href="#mf09acfdf9e" x="336.747187" y="208.044844" style="fill: #d3d3d3; stroke: #d3d3d3; stroke-linejoin: miter"/>
     </g>
    </g>
    <g id="text_28">
     <!-- Model prediction -->
     <g transform="translate(369.147187 214.344844) scale(0.18 -0.18)">
      <defs>
       <path id="DejaVuSans-4d" d="M 628 4666 
L 1569 4666 
L 2759 1491 
L 3956 4666 
L 4897 4666 
L 4897 0 
L 4281 0 
L 4281 4097 
L 3078 897 
L 2444 897 
L 1241 4097 
L 1241 0 
L 628 0 
L 628 4666 
z
" transform="scale(0.015625)"/>
       <path id="DejaVuSans-6f" d="M 1959 3097 
Q 1497 3097 1228 2736 
Q 959 2375 959 1747 
Q 959 1119 1226 758 
Q 1494 397 1959 397 
Q 2419 397 2687 759 
Q 2956 1122 2956 1747 
Q 2956 2369 2687 2733 
Q 2419 3097 1959 3097 
z
M 1959 3584 
Q 2709 3584 3137 3096 
Q 3566 2609 3566 1747 
Q 3566 888 3137 398 
Q 2709 -91 1959 -91 
Q 1206 -91 779 398 
Q 353 888 353 1747 
Q 353 2609 779 3096 
Q 1206 3584 1959 3584 
z
" transform="scale(0.015625)"/>
       <path id="DejaVuSans-64" d="M 2906 2969 
L 2906 4863 
L 3481 4863 
L 3481 0 
L 2906 0 
L 2906 525 
Q 2725 213 2448 61 
Q 2172 -91 1784 -91 
Q 1150 -91 751 415 
Q 353 922 353 1747 
Q 353 2572 751 3078 
Q 1150 3584 1784 3584 
Q 2172 3584 2448 3432 
Q 2725 3281 2906 2969 
z
M 947 1747 
Q 947 1113 1208 752 
Q 1469 391 1925 391 
Q 2381 391 2643 752 
Q 2906 1113 2906 1747 
Q 2906 2381 2643 2742 
Q 2381 3103 1925 3103 
Q 1469 3103 1208 2742 
Q 947 2381 947 1747 
z
" transform="scale(0.015625)"/>
       <path id="DejaVuSans-65" d="M 3597 1894 
L 3597 1613 
L 953 1613 
Q 991 1019 1311 708 
Q 1631 397 2203 397 
Q 2534 397 2845 478 
Q 3156 559 3463 722 
L 3463 178 
Q 3153 47 2828 -22 
Q 2503 -91 2169 -91 
Q 1331 -91 842 396 
Q 353 884 353 1716 
Q 353 2575 817 3079 
Q 1281 3584 2069 3584 
Q 2775 3584 3186 3129 
Q 3597 2675 3597 1894 
z
M 3022 2063 
Q 3016 2534 2758 2815 
Q 2500 3097 2075 3097 
Q 1594 3097 1305 2825 
Q 1016 2553 972 2059 
L 3022 2063 
z
" transform="scale(0.015625)"/>
       <path id="DejaVuSans-6c" d="M 603 4863 
L 1178 4863 
L 1178 0 
L 603 0 
L 603 4863 
z
" transform="scale(0.015625)"/>
       <path id="DejaVuSans-20" transform="scale(0.015625)"/>
       <path id="DejaVuSans-70" d="M 1159 525 
L 1159 -1331 
L 581 -1331 
L 581 3500 
L 1159 3500 
L 1159 2969 
Q 1341 3281 1617 3432 
Q 1894 3584 2278 3584 
Q 2916 3584 3314 3078 
Q 3713 2572 3713 1747 
Q 3713 922 3314 415 
Q 2916 -91 2278 -91 
Q 1894 -91 1617 61 
Q 1341 213 1159 525 
z
M 3116 1747 
Q 3116 2381 2855 2742 
Q 2594 3103 2138 3103 
Q 1681 3103 1420 2742 
Q 1159 2381 1159 1747 
Q 1159 1113 1420 752 
Q 1681 391 2138 391 
Q 2594 391 2855 752 
Q 3116 1113 3116 1747 
z
" transform="scale(0.015625)"/>
       <path id="DejaVuSans-72" d="M 2631 2963 
Q 2534 3019 2420 3045 
Q 2306 3072 2169 3072 
Q 1681 3072 1420 2755 
Q 1159 2438 1159 1844 
L 1159 0 
L 581 0 
L 581 3500 
L 1159 3500 
L 1159 2956 
Q 1341 3275 1631 3429 
Q 1922 3584 2338 3584 
Q 2397 3584 2469 3576 
Q 2541 3569 2628 3553 
L 2631 2963 
z
" transform="scale(0.015625)"/>
       <path id="DejaVuSans-69" d="M 603 3500 
L 1178 3500 
L 1178 0 
L 603 0 
L 603 3500 
z
M 603 4863 
L 1178 4863 
L 1178 4134 
L 603 4134 
L 603 4863 
z
" transform="scale(0.015625)"/>
       <path id="DejaVuSans-63" d="M 3122 3366 
L 3122 2828 
Q 2878 2963 2633 3030 
Q 2388 3097 2138 3097 
Q 1578 3097 1268 2742 
Q 959 2388 959 1747 
Q 959 1106 1268 751 
Q 1578 397 2138 397 
Q 2388 397 2633 464 
Q 2878 531 3122 666 
L 3122 134 
Q 2881 22 2623 -34 
Q 2366 -91 2075 -91 
Q 1284 -91 818 406 
Q 353 903 353 1747 
Q 353 2603 823 3093 
Q 1294 3584 2113 3584 
Q 2378 3584 2631 3529 
Q 2884 3475 3122 3366 
z
" transform="scale(0.015625)"/>
       <path id="DejaVuSans-74" d="M 1172 4494 
L 1172 3500 
L 2356 3500 
L 2356 3053 
L 1172 3053 
L 1172 1153 
Q 1172 725 1289 603 
Q 1406 481 1766 481 
L 2356 481 
L 2356 0 
L 1766 0 
Q 1100 0 847 248 
Q 594 497 594 1153 
L 594 3053 
L 172 3053 
L 172 3500 
L 594 3500 
L 594 4494 
L 1172 4494 
z
" transform="scale(0.015625)"/>
       <path id="DejaVuSans-6e" d="M 3513 2113 
L 3513 0 
L 2938 0 
L 2938 2094 
Q 2938 2591 2744 2837 
Q 2550 3084 2163 3084 
Q 1697 3084 1428 2787 
Q 1159 2491 1159 1978 
L 1159 0 
L 581 0 
L 581 3500 
L 1159 3500 
L 1159 2956 
Q 1366 3272 1645 3428 
Q 1925 3584 2291 3584 
Q 2894 3584 3203 3211 
Q 3513 2838 3513 2113 
z
" transform="scale(0.015625)"/>
      </defs>
      <use xlink:href="#DejaVuSans-4d"/>
      <use xlink:href="#DejaVuSans-6f" transform="translate(86.279297 0)"/>
      <use xlink:href="#DejaVuSans-64" transform="translate(147.460938 0)"/>
      <use xlink:href="#DejaVuSans-65" transform="translate(210.9375 0)"/>
      <use xlink:href="#DejaVuSans-6c" transform="translate(272.460938 0)"/>
      <use xlink:href="#DejaVuSans-20" transform="translate(300.244141 0)"/>
      <use xlink:href="#DejaVuSans-70" transform="translate(332.03125 0)"/>
      <use xlink:href="#DejaVuSans-72" transform="translate(395.507812 0)"/>
      <use xlink:href="#DejaVuSans-65" transform="translate(434.371094 0)"/>
      <use xlink:href="#DejaVuSans-64" transform="translate(495.894531 0)"/>
      <use xlink:href="#DejaVuSans-69" transform="translate(559.371094 0)"/>
      <use xlink:href="#DejaVuSans-63" transform="translate(587.154297 0)"/>
      <use xlink:href="#DejaVuSans-74" transform="translate(642.134766 0)"/>
      <use xlink:href="#DejaVuSans-69" transform="translate(681.34375 0)"/>
      <use xlink:href="#DejaVuSans-6f" transform="translate(709.126953 0)"/>
      <use xlink:href="#DejaVuSans-6e" transform="translate(770.308594 0)"/>
     </g>
    </g>
    <g id="line2d_21">
     <path d="M 318.747187 234.465469 
L 336.747187 234.465469 
L 354.747187 234.465469 
" style="fill: none; stroke: #227c9d; stroke-width: 1.5; stroke-linecap: square"/>
     <defs>
      <path id="ma4b60e1b76" d="M 0 3 
C 0.795609 3 1.55874 2.683901 2.12132 2.12132 
C 2.683901 1.55874 3 0.795609 3 0 
C 3 -0.795609 2.683901 -1.55874 2.12132 -2.12132 
C 1.55874 -2.683901 0.795609 -3 0 -3 
C -0.795609 -3 -1.55874 -2.683901 -2.12132 -2.12132 
C -2.683901 -1.55874 -3 -0.795609 -3 0 
C -3 0.795609 -2.683901 1.55874 -2.12132 2.12132 
C -1.55874 2.683901 -0.795609 3 0 3 
z
" style="stroke: #227c9d"/>
     </defs>
     <g>
      <use xlink:href="#ma4b60e1b76" x="336.747187" y="234.465469" style="fill: #227c9d; stroke: #227c9d"/>
     </g>
    </g>
    <g id="text_29">
     <!-- RNA -->
     <g transform="translate(369.147187 240.765469) scale(0.18 -0.18)">
      <defs>
       <path id="DejaVuSans-52" d="M 2841 2188 
Q 3044 2119 3236 1894 
Q 3428 1669 3622 1275 
L 4263 0 
L 3584 0 
L 2988 1197 
Q 2756 1666 2539 1819 
Q 2322 1972 1947 1972 
L 1259 1972 
L 1259 0 
L 628 0 
L 628 4666 
L 2053 4666 
Q 2853 4666 3247 4331 
Q 3641 3997 3641 3322 
Q 3641 2881 3436 2590 
Q 3231 2300 2841 2188 
z
M 1259 4147 
L 1259 2491 
L 2053 2491 
Q 2509 2491 2742 2702 
Q 2975 2913 2975 3322 
Q 2975 3731 2742 3939 
Q 2509 4147 2053 4147 
L 1259 4147 
z
" transform="scale(0.015625)"/>
       <path id="DejaVuSans-4e" d="M 628 4666 
L 1478 4666 
L 3547 763 
L 3547 4666 
L 4159 4666 
L 4159 0 
L 3309 0 
L 1241 3903 
L 1241 0 
L 628 0 
L 628 4666 
z
" transform="scale(0.015625)"/>
       <path id="DejaVuSans-41" d="M 2188 4044 
L 1331 1722 
L 3047 1722 
L 2188 4044 
z
M 1831 4666 
L 2547 4666 
L 4325 0 
L 3669 0 
L 3244 1197 
L 1141 1197 
L 716 0 
L 50 0 
L 1831 4666 
z
" transform="scale(0.015625)"/>
      </defs>
      <use xlink:href="#DejaVuSans-52"/>
      <use xlink:href="#DejaVuSans-4e" transform="translate(69.482422 0)"/>
      <use xlink:href="#DejaVuSans-41" transform="translate(144.287109 0)"/>
     </g>
    </g>
    <g id="line2d_22">
     <path d="M 318.747187 260.886094 
L 336.747187 260.886094 
L 354.747187 260.886094 
" style="fill: none; stroke: #227c9d; stroke-width: 1.5; stroke-linecap: square"/>
     <defs>
      <path id="mf58ae808eb" d="M -0 4.242641 
L 4.242641 0 
L 0 -4.242641 
L -4.242641 -0 
z
" style="stroke: #227c9d; stroke-linejoin: miter"/>
     </defs>
     <g>
      <use xlink:href="#mf58ae808eb" x="336.747187" y="260.886094" style="fill: #227c9d; stroke: #227c9d; stroke-linejoin: miter"/>
     </g>
    </g>
    <g id="text_30">
     <!-- DNA -->
     <g transform="translate(369.147187 267.186094) scale(0.18 -0.18)">
      <defs>
       <path id="DejaVuSans-44" d="M 1259 4147 
L 1259 519 
L 2022 519 
Q 2988 519 3436 956 
Q 3884 1394 3884 2338 
Q 3884 3275 3436 3711 
Q 2988 4147 2022 4147 
L 1259 4147 
z
M 628 4666 
L 1925 4666 
Q 3281 4666 3915 4102 
Q 4550 3538 4550 2338 
Q 4550 1131 3912 565 
Q 3275 0 1925 0 
L 628 0 
L 628 4666 
z
" transform="scale(0.015625)"/>
      </defs>
      <use xlink:href="#DejaVuSans-44"/>
      <use xlink:href="#DejaVuSans-4e" transform="translate(77.001953 0)"/>
      <use xlink:href="#DejaVuSans-41" transform="translate(151.806641 0)"/>
     </g>
    </g>
   </g>
  </g>
 </g>
 <defs>
  <clipPath id="p3f7b1539e4">
   <rect x="89.016563" y="14.038594" width="446.4" height="443.52"/>
  </clipPath>
 </defs>
</svg>
