<?xml version="1.0" encoding="utf-8" standalone="no"?>
<!DOCTYPE svg PUBLIC "-//W3C//DTD SVG 1.1//EN"
  "http://www.w3.org/Graphics/SVG/1.1/DTD/svg11.dtd">
<svg xmlns:xlink="http://www.w3.org/1999/xlink" width="553.353153pt" height="516.197592pt" viewBox="0 0 553.353153 516.197592" xmlns="http://www.w3.org/2000/svg" version="1.1">
 <metadata>
  <rdf:RDF xmlns:dc="http://purl.org/dc/elements/1.1/" xmlns:cc="http://creativecommons.org/ns#" xmlns:rdf="http://www.w3.org/1999/02/22-rdf-syntax-ns#">
   <cc:Work>
    <dc:type rdf:resource="http://purl.org/dc/dcmitype/StillImage"/>
    <dc:date>2026-01-06T15:12:33.317470</dc:date>
    <dc:format>image/svg+xml</dc:format>
    <dc:creator>
     <cc:Agent>
      <dc:title>Matplotlib v3.10.6, https://matplotlib.org/</dc:title>
     </cc:Agent>
    </dc:creator>
   </cc:Work>
  </rdf:RDF>
 </metadata>
 <defs>
  <style type="text/css">*{stroke-linejoin: round; stroke-linecap: butt}</style>
 </defs>
 <g id="figure_1">
  <g id="patch_1">
   <path d="M 0 516.197592 
L 553.353153 516.197592 
L 553.353153 0 
L 0 0 
L 0 516.197592 
z
" style="fill: none"/>
  </g>
  <g id="axes_1">
   <g id="patch_2">
    <path d="M 89.016563 461.064467 
L 535.416562 461.064467 
L 535.416562 17.544467 
L 89.016563 17.544467 
L 89.016563 461.064467 
z
" style="fill: none"/>
   </g>
   <g id="FillBetweenPolyCollection_1">
    <defs>
     <path id="m2230ce2fc8" d="M 109.307472 -496.271436 
L 109.307472 -496.023988 
L 123.301202 -496.487953 
L 137.294932 -496.673539 
L 151.288663 -496.719936 
L 165.282393 -496.735401 
L 179.276124 -496.719936 
L 193.269854 -496.689005 
L 207.263584 -496.735401 
L 221.257315 -496.766332 
L 235.251045 -496.781798 
L 235.251045 -496.812729 
L 235.251045 -496.812729 
L 221.257315 -496.797263 
L 207.263584 -496.812729 
L 193.269854 -496.812729 
L 179.276124 -496.812729 
L 165.282393 -496.812729 
L 151.288663 -496.750867 
L 137.294932 -496.719936 
L 123.301202 -496.611677 
L 109.307472 -496.271436 
z
" style="stroke: #3d9f95; stroke-opacity: 0.2"/>
    </defs>
    <g clip-path="url(#p087031fea2)">
     <use xlink:href="#m2230ce2fc8" x="0" y="516.197592" style="fill: #3d9f95; fill-opacity: 0.2; stroke: #3d9f95; stroke-opacity: 0.2"/>
    </g>
   </g>
   <g id="FillBetweenPolyCollection_2">
    <defs>
     <path id="m344972ce36" d="M 109.307472 -496.116781 
L 109.307472 -495.699212 
L 123.301202 -496.39516 
L 137.294932 -496.627143 
L 151.288663 -496.70447 
L 165.282393 -496.719936 
L 179.276124 -496.70447 
L 193.269854 -496.689005 
L 207.263584 -496.719936 
L 221.257315 -496.766332 
L 235.251045 -496.781798 
L 235.251045 -496.812729 
L 235.251045 -496.812729 
L 221.257315 -496.797263 
L 207.263584 -496.797263 
L 193.269854 -496.797263 
L 179.276124 -496.812729 
L 165.282393 -496.797263 
L 151.288663 -496.735401 
L 137.294932 -496.673539 
L 123.301202 -496.518884 
L 109.307472 -496.116781 
z
" style="stroke: #3d9f95; stroke-opacity: 0.2"/>
    </defs>
    <g clip-path="url(#p087031fea2)">
     <use xlink:href="#m344972ce36" x="0" y="516.197592" style="fill: #3d9f95; fill-opacity: 0.2; stroke: #3d9f95; stroke-opacity: 0.2"/>
    </g>
   </g>
   <g id="PathCollection_1">
    <defs>
     <path id="m672a2cbd4d" d="M -2.738613 2.738613 
L 2.738613 2.738613 
L 2.738613 -2.738613 
L -2.738613 -2.738613 
z
" style="stroke: #d3d3d3; stroke-opacity: 0.5"/>
    </defs>
    <g clip-path="url(#p087031fea2)">
     <use xlink:href="#m672a2cbd4d" x="109.307472" y="20.058181" style="fill: #d3d3d3; fill-opacity: 0.5; stroke: #d3d3d3; stroke-opacity: 0.5"/>
     <use xlink:href="#m672a2cbd4d" x="123.301202" y="19.830811" style="fill: #d3d3d3; fill-opacity: 0.5; stroke: #d3d3d3; stroke-opacity: 0.5"/>
     <use xlink:href="#m672a2cbd4d" x="137.294932" y="19.697808" style="fill: #d3d3d3; fill-opacity: 0.5; stroke: #d3d3d3; stroke-opacity: 0.5"/>
     <use xlink:href="#m672a2cbd4d" x="151.288663" y="19.60344" style="fill: #d3d3d3; fill-opacity: 0.5; stroke: #d3d3d3; stroke-opacity: 0.5"/>
     <use xlink:href="#m672a2cbd4d" x="165.282393" y="19.530243" style="fill: #d3d3d3; fill-opacity: 0.5; stroke: #d3d3d3; stroke-opacity: 0.5"/>
     <use xlink:href="#m672a2cbd4d" x="179.276124" y="19.470437" style="fill: #d3d3d3; fill-opacity: 0.5; stroke: #d3d3d3; stroke-opacity: 0.5"/>
     <use xlink:href="#m672a2cbd4d" x="193.269854" y="19.419872" style="fill: #d3d3d3; fill-opacity: 0.5; stroke: #d3d3d3; stroke-opacity: 0.5"/>
     <use xlink:href="#m672a2cbd4d" x="207.263584" y="19.37607" style="fill: #d3d3d3; fill-opacity: 0.5; stroke: #d3d3d3; stroke-opacity: 0.5"/>
     <use xlink:href="#m672a2cbd4d" x="221.257315" y="19.337434" style="fill: #d3d3d3; fill-opacity: 0.5; stroke: #d3d3d3; stroke-opacity: 0.5"/>
     <use xlink:href="#m672a2cbd4d" x="235.251045" y="19.302873" style="fill: #d3d3d3; fill-opacity: 0.5; stroke: #d3d3d3; stroke-opacity: 0.5"/>
     <use xlink:href="#m672a2cbd4d" x="263.238506" y="19.243067" style="fill: #d3d3d3; fill-opacity: 0.5; stroke: #d3d3d3; stroke-opacity: 0.5"/>
     <use xlink:href="#m672a2cbd4d" x="305.219697" y="19.16987" style="fill: #d3d3d3; fill-opacity: 0.5; stroke: #d3d3d3; stroke-opacity: 0.5"/>
     <use xlink:href="#m672a2cbd4d" x="340.204023" y="19.119305" style="fill: #d3d3d3; fill-opacity: 0.5; stroke: #d3d3d3; stroke-opacity: 0.5"/>
     <use xlink:href="#m672a2cbd4d" x="375.188349" y="19.075503" style="fill: #d3d3d3; fill-opacity: 0.5; stroke: #d3d3d3; stroke-opacity: 0.5"/>
     <use xlink:href="#m672a2cbd4d" x="445.157001" y="19.002306" style="fill: #d3d3d3; fill-opacity: 0.5; stroke: #d3d3d3; stroke-opacity: 0.5"/>
     <use xlink:href="#m672a2cbd4d" x="515.125653" y="18.9425" style="fill: #d3d3d3; fill-opacity: 0.5; stroke: #d3d3d3; stroke-opacity: 0.5"/>
    </g>
   </g>
   <g id="PathCollection_2">
    <g clip-path="url(#p087031fea2)">
     <use xlink:href="#m672a2cbd4d" x="109.307472" y="19.889632" style="fill: #d3d3d3; fill-opacity: 0.5; stroke: #d3d3d3; stroke-opacity: 0.5"/>
     <use xlink:href="#m672a2cbd4d" x="123.301202" y="19.72092" style="fill: #d3d3d3; fill-opacity: 0.5; stroke: #d3d3d3; stroke-opacity: 0.5"/>
     <use xlink:href="#m672a2cbd4d" x="137.294932" y="19.62223" style="fill: #d3d3d3; fill-opacity: 0.5; stroke: #d3d3d3; stroke-opacity: 0.5"/>
     <use xlink:href="#m672a2cbd4d" x="151.288663" y="19.552208" style="fill: #d3d3d3; fill-opacity: 0.5; stroke: #d3d3d3; stroke-opacity: 0.5"/>
     <use xlink:href="#m672a2cbd4d" x="165.282393" y="19.497895" style="fill: #d3d3d3; fill-opacity: 0.5; stroke: #d3d3d3; stroke-opacity: 0.5"/>
     <use xlink:href="#m672a2cbd4d" x="179.276124" y="19.453518" style="fill: #d3d3d3; fill-opacity: 0.5; stroke: #d3d3d3; stroke-opacity: 0.5"/>
     <use xlink:href="#m672a2cbd4d" x="193.269854" y="19.415998" style="fill: #d3d3d3; fill-opacity: 0.5; stroke: #d3d3d3; stroke-opacity: 0.5"/>
     <use xlink:href="#m672a2cbd4d" x="207.263584" y="19.383497" style="fill: #d3d3d3; fill-opacity: 0.5; stroke: #d3d3d3; stroke-opacity: 0.5"/>
     <use xlink:href="#m672a2cbd4d" x="221.257315" y="19.354828" style="fill: #d3d3d3; fill-opacity: 0.5; stroke: #d3d3d3; stroke-opacity: 0.5"/>
     <use xlink:href="#m672a2cbd4d" x="235.251045" y="19.329184" style="fill: #d3d3d3; fill-opacity: 0.5; stroke: #d3d3d3; stroke-opacity: 0.5"/>
     <use xlink:href="#m672a2cbd4d" x="263.238506" y="19.284807" style="fill: #d3d3d3; fill-opacity: 0.5; stroke: #d3d3d3; stroke-opacity: 0.5"/>
     <use xlink:href="#m672a2cbd4d" x="305.219697" y="19.230494" style="fill: #d3d3d3; fill-opacity: 0.5; stroke: #d3d3d3; stroke-opacity: 0.5"/>
     <use xlink:href="#m672a2cbd4d" x="340.204023" y="19.192973" style="fill: #d3d3d3; fill-opacity: 0.5; stroke: #d3d3d3; stroke-opacity: 0.5"/>
     <use xlink:href="#m672a2cbd4d" x="375.188349" y="19.160472" style="fill: #d3d3d3; fill-opacity: 0.5; stroke: #d3d3d3; stroke-opacity: 0.5"/>
     <use xlink:href="#m672a2cbd4d" x="445.157001" y="19.106159" style="fill: #d3d3d3; fill-opacity: 0.5; stroke: #d3d3d3; stroke-opacity: 0.5"/>
     <use xlink:href="#m672a2cbd4d" x="515.125653" y="19.061782" style="fill: #d3d3d3; fill-opacity: 0.5; stroke: #d3d3d3; stroke-opacity: 0.5"/>
    </g>
   </g>
   <g id="matplotlib.axis_1">
    <g id="xtick_1">
     <g id="line2d_1">
      <defs>
       <path id="m06c63a9272" d="M 0 0 
L 0 3.5 
" style="stroke: #000000; stroke-width: 0.8"/>
      </defs>
      <g>
       <use xlink:href="#m06c63a9272" x="95.313741" y="461.064467" style="stroke: #000000; stroke-width: 0.8"/>
      </g>
     </g>
     <g id="text_1">
      <!-- 0.0 -->
      <g transform="translate(81.000929 481.741655) scale(0.18 -0.18)">
       <defs>
        <path id="DejaVuSans-30" d="M 2034 4250 
Q 1547 4250 1301 3770 
Q 1056 3291 1056 2328 
Q 1056 1369 1301 889 
Q 1547 409 2034 409 
Q 2525 409 2770 889 
Q 3016 1369 3016 2328 
Q 3016 3291 2770 3770 
Q 2525 4250 2034 4250 
z
M 2034 4750 
Q 2819 4750 3233 4129 
Q 3647 3509 3647 2328 
Q 3647 1150 3233 529 
Q 2819 -91 2034 -91 
Q 1250 -91 836 529 
Q 422 1150 422 2328 
Q 422 3509 836 4129 
Q 1250 4750 2034 4750 
z
" transform="scale(0.015625)"/>
        <path id="DejaVuSans-2e" d="M 684 794 
L 1344 794 
L 1344 0 
L 684 0 
L 684 794 
z
" transform="scale(0.015625)"/>
       </defs>
       <use xlink:href="#DejaVuSans-30"/>
       <use xlink:href="#DejaVuSans-2e" transform="translate(63.623047 0)"/>
       <use xlink:href="#DejaVuSans-30" transform="translate(95.410156 0)"/>
      </g>
     </g>
    </g>
    <g id="xtick_2">
     <g id="line2d_2">
      <g>
       <use xlink:href="#m06c63a9272" x="165.282393" y="461.064467" style="stroke: #000000; stroke-width: 0.8"/>
      </g>
     </g>
     <g id="text_2">
      <!-- 0.5 -->
      <g transform="translate(150.969581 481.741655) scale(0.18 -0.18)">
       <defs>
        <path id="DejaVuSans-35" d="M 691 4666 
L 3169 4666 
L 3169 4134 
L 1269 4134 
L 1269 2991 
Q 1406 3038 1543 3061 
Q 1681 3084 1819 3084 
Q 2600 3084 3056 2656 
Q 3513 2228 3513 1497 
Q 3513 744 3044 326 
Q 2575 -91 1722 -91 
Q 1428 -91 1123 -41 
Q 819 9 494 109 
L 494 744 
Q 775 591 1075 516 
Q 1375 441 1709 441 
Q 2250 441 2565 725 
Q 2881 1009 2881 1497 
Q 2881 1984 2565 2268 
Q 2250 2553 1709 2553 
Q 1456 2553 1204 2497 
Q 953 2441 691 2322 
L 691 4666 
z
" transform="scale(0.015625)"/>
       </defs>
       <use xlink:href="#DejaVuSans-30"/>
       <use xlink:href="#DejaVuSans-2e" transform="translate(63.623047 0)"/>
       <use xlink:href="#DejaVuSans-35" transform="translate(95.410156 0)"/>
      </g>
     </g>
    </g>
    <g id="xtick_3">
     <g id="line2d_3">
      <g>
       <use xlink:href="#m06c63a9272" x="235.251045" y="461.064467" style="stroke: #000000; stroke-width: 0.8"/>
      </g>
     </g>
     <g id="text_3">
      <!-- 1.0 -->
      <g transform="translate(220.938233 481.741655) scale(0.18 -0.18)">
       <defs>
        <path id="DejaVuSans-31" d="M 794 531 
L 1825 531 
L 1825 4091 
L 703 3866 
L 703 4441 
L 1819 4666 
L 2450 4666 
L 2450 531 
L 3481 531 
L 3481 0 
L 794 0 
L 794 531 
z
" transform="scale(0.015625)"/>
       </defs>
       <use xlink:href="#DejaVuSans-31"/>
       <use xlink:href="#DejaVuSans-2e" transform="translate(63.623047 0)"/>
       <use xlink:href="#DejaVuSans-30" transform="translate(95.410156 0)"/>
      </g>
     </g>
    </g>
    <g id="xtick_4">
     <g id="line2d_4">
      <g>
       <use xlink:href="#m06c63a9272" x="305.219697" y="461.064467" style="stroke: #000000; stroke-width: 0.8"/>
      </g>
     </g>
     <g id="text_4">
      <!-- 1.5 -->
      <g transform="translate(290.906885 481.741655) scale(0.18 -0.18)">
       <use xlink:href="#DejaVuSans-31"/>
       <use xlink:href="#DejaVuSans-2e" transform="translate(63.623047 0)"/>
       <use xlink:href="#DejaVuSans-35" transform="translate(95.410156 0)"/>
      </g>
     </g>
    </g>
    <g id="xtick_5">
     <g id="line2d_5">
      <g>
       <use xlink:href="#m06c63a9272" x="375.188349" y="461.064467" style="stroke: #000000; stroke-width: 0.8"/>
      </g>
     </g>
     <g id="text_5">
      <!-- 2.0 -->
      <g transform="translate(360.875537 481.741655) scale(0.18 -0.18)">
       <defs>
        <path id="DejaVuSans-32" d="M 1228 531 
L 3431 531 
L 3431 0 
L 469 0 
L 469 531 
Q 828 903 1448 1529 
Q 2069 2156 2228 2338 
Q 2531 2678 2651 2914 
Q 2772 3150 2772 3378 
Q 2772 3750 2511 3984 
Q 2250 4219 1831 4219 
Q 1534 4219 1204 4116 
Q 875 4013 500 3803 
L 500 4441 
Q 881 4594 1212 4672 
Q 1544 4750 1819 4750 
Q 2544 4750 2975 4387 
Q 3406 4025 3406 3419 
Q 3406 3131 3298 2873 
Q 3191 2616 2906 2266 
Q 2828 2175 2409 1742 
Q 1991 1309 1228 531 
z
" transform="scale(0.015625)"/>
       </defs>
       <use xlink:href="#DejaVuSans-32"/>
       <use xlink:href="#DejaVuSans-2e" transform="translate(63.623047 0)"/>
       <use xlink:href="#DejaVuSans-30" transform="translate(95.410156 0)"/>
      </g>
     </g>
    </g>
    <g id="xtick_6">
     <g id="line2d_6">
      <g>
       <use xlink:href="#m06c63a9272" x="445.157001" y="461.064467" style="stroke: #000000; stroke-width: 0.8"/>
      </g>
     </g>
     <g id="text_6">
      <!-- 2.5 -->
      <g transform="translate(430.844189 481.741655) scale(0.18 -0.18)">
       <use xlink:href="#DejaVuSans-32"/>
       <use xlink:href="#DejaVuSans-2e" transform="translate(63.623047 0)"/>
       <use xlink:href="#DejaVuSans-35" transform="translate(95.410156 0)"/>
      </g>
     </g>
    </g>
    <g id="xtick_7">
     <g id="line2d_7">
      <g>
       <use xlink:href="#m06c63a9272" x="515.125653" y="461.064467" style="stroke: #000000; stroke-width: 0.8"/>
      </g>
     </g>
     <g id="text_7">
      <!-- 3.0 -->
      <g transform="translate(500.812841 481.741655) scale(0.18 -0.18)">
       <defs>
        <path id="DejaVuSans-33" d="M 2597 2516 
Q 3050 2419 3304 2112 
Q 3559 1806 3559 1356 
Q 3559 666 3084 287 
Q 2609 -91 1734 -91 
Q 1441 -91 1130 -33 
Q 819 25 488 141 
L 488 750 
Q 750 597 1062 519 
Q 1375 441 1716 441 
Q 2309 441 2620 675 
Q 2931 909 2931 1356 
Q 2931 1769 2642 2001 
Q 2353 2234 1838 2234 
L 1294 2234 
L 1294 2753 
L 1863 2753 
Q 2328 2753 2575 2939 
Q 2822 3125 2822 3475 
Q 2822 3834 2567 4026 
Q 2313 4219 1838 4219 
Q 1578 4219 1281 4162 
Q 984 4106 628 3988 
L 628 4550 
Q 988 4650 1302 4700 
Q 1616 4750 1894 4750 
Q 2613 4750 3031 4423 
Q 3450 4097 3450 3541 
Q 3450 3153 3228 2886 
Q 3006 2619 2597 2516 
z
" transform="scale(0.015625)"/>
       </defs>
       <use xlink:href="#DejaVuSans-33"/>
       <use xlink:href="#DejaVuSans-2e" transform="translate(63.623047 0)"/>
       <use xlink:href="#DejaVuSans-30" transform="translate(95.410156 0)"/>
      </g>
     </g>
    </g>
    <g id="text_8">
     <!-- Sampling parameter -->
     <g transform="translate(196.791562 504.681967) scale(0.2 -0.2)">
      <defs>
       <path id="DejaVuSans-Bold-53" d="M 3834 4519 
L 3834 3531 
Q 3450 3703 3084 3790 
Q 2719 3878 2394 3878 
Q 1963 3878 1756 3759 
Q 1550 3641 1550 3391 
Q 1550 3203 1689 3098 
Q 1828 2994 2194 2919 
L 2706 2816 
Q 3484 2659 3812 2340 
Q 4141 2022 4141 1434 
Q 4141 663 3683 286 
Q 3225 -91 2284 -91 
Q 1841 -91 1394 -6 
Q 947 78 500 244 
L 500 1259 
Q 947 1022 1364 901 
Q 1781 781 2169 781 
Q 2563 781 2772 912 
Q 2981 1044 2981 1288 
Q 2981 1506 2839 1625 
Q 2697 1744 2272 1838 
L 1806 1941 
Q 1106 2091 782 2419 
Q 459 2747 459 3303 
Q 459 4000 909 4375 
Q 1359 4750 2203 4750 
Q 2588 4750 2994 4692 
Q 3400 4634 3834 4519 
z
" transform="scale(0.015625)"/>
       <path id="DejaVuSans-Bold-61" d="M 2106 1575 
Q 1756 1575 1579 1456 
Q 1403 1338 1403 1106 
Q 1403 894 1545 773 
Q 1688 653 1941 653 
Q 2256 653 2472 879 
Q 2688 1106 2688 1447 
L 2688 1575 
L 2106 1575 
z
M 3816 1997 
L 3816 0 
L 2688 0 
L 2688 519 
Q 2463 200 2181 54 
Q 1900 -91 1497 -91 
Q 953 -91 614 226 
Q 275 544 275 1050 
Q 275 1666 698 1953 
Q 1122 2241 2028 2241 
L 2688 2241 
L 2688 2328 
Q 2688 2594 2478 2717 
Q 2269 2841 1825 2841 
Q 1466 2841 1156 2769 
Q 847 2697 581 2553 
L 581 3406 
Q 941 3494 1303 3539 
Q 1666 3584 2028 3584 
Q 2975 3584 3395 3211 
Q 3816 2838 3816 1997 
z
" transform="scale(0.015625)"/>
       <path id="DejaVuSans-Bold-6d" d="M 3781 2919 
Q 3994 3244 4286 3414 
Q 4578 3584 4928 3584 
Q 5531 3584 5847 3212 
Q 6163 2841 6163 2131 
L 6163 0 
L 5038 0 
L 5038 1825 
Q 5041 1866 5042 1909 
Q 5044 1953 5044 2034 
Q 5044 2406 4934 2573 
Q 4825 2741 4581 2741 
Q 4263 2741 4089 2478 
Q 3916 2216 3909 1719 
L 3909 0 
L 2784 0 
L 2784 1825 
Q 2784 2406 2684 2573 
Q 2584 2741 2328 2741 
Q 2006 2741 1831 2477 
Q 1656 2213 1656 1722 
L 1656 0 
L 531 0 
L 531 3500 
L 1656 3500 
L 1656 2988 
Q 1863 3284 2130 3434 
Q 2397 3584 2719 3584 
Q 3081 3584 3359 3409 
Q 3638 3234 3781 2919 
z
" transform="scale(0.015625)"/>
       <path id="DejaVuSans-Bold-70" d="M 1656 506 
L 1656 -1331 
L 538 -1331 
L 538 3500 
L 1656 3500 
L 1656 2988 
Q 1888 3294 2169 3439 
Q 2450 3584 2816 3584 
Q 3463 3584 3878 3070 
Q 4294 2556 4294 1747 
Q 4294 938 3878 423 
Q 3463 -91 2816 -91 
Q 2450 -91 2169 54 
Q 1888 200 1656 506 
z
M 2400 2772 
Q 2041 2772 1848 2508 
Q 1656 2244 1656 1747 
Q 1656 1250 1848 986 
Q 2041 722 2400 722 
Q 2759 722 2948 984 
Q 3138 1247 3138 1747 
Q 3138 2247 2948 2509 
Q 2759 2772 2400 2772 
z
" transform="scale(0.015625)"/>
       <path id="DejaVuSans-Bold-6c" d="M 538 4863 
L 1656 4863 
L 1656 0 
L 538 0 
L 538 4863 
z
" transform="scale(0.015625)"/>
       <path id="DejaVuSans-Bold-69" d="M 538 3500 
L 1656 3500 
L 1656 0 
L 538 0 
L 538 3500 
z
M 538 4863 
L 1656 4863 
L 1656 3950 
L 538 3950 
L 538 4863 
z
" transform="scale(0.015625)"/>
       <path id="DejaVuSans-Bold-6e" d="M 4056 2131 
L 4056 0 
L 2931 0 
L 2931 347 
L 2931 1631 
Q 2931 2084 2911 2256 
Q 2891 2428 2841 2509 
Q 2775 2619 2662 2680 
Q 2550 2741 2406 2741 
Q 2056 2741 1856 2470 
Q 1656 2200 1656 1722 
L 1656 0 
L 538 0 
L 538 3500 
L 1656 3500 
L 1656 2988 
Q 1909 3294 2193 3439 
Q 2478 3584 2822 3584 
Q 3428 3584 3742 3212 
Q 4056 2841 4056 2131 
z
" transform="scale(0.015625)"/>
       <path id="DejaVuSans-Bold-67" d="M 2919 594 
Q 2688 288 2409 144 
Q 2131 0 1766 0 
Q 1125 0 706 504 
Q 288 1009 288 1791 
Q 288 2575 706 3076 
Q 1125 3578 1766 3578 
Q 2131 3578 2409 3434 
Q 2688 3291 2919 2981 
L 2919 3500 
L 4044 3500 
L 4044 353 
Q 4044 -491 3511 -936 
Q 2978 -1381 1966 -1381 
Q 1638 -1381 1331 -1331 
Q 1025 -1281 716 -1178 
L 716 -306 
Q 1009 -475 1290 -558 
Q 1572 -641 1856 -641 
Q 2406 -641 2662 -400 
Q 2919 -159 2919 353 
L 2919 594 
z
M 2181 2772 
Q 1834 2772 1640 2515 
Q 1447 2259 1447 1791 
Q 1447 1309 1634 1061 
Q 1822 813 2181 813 
Q 2531 813 2725 1069 
Q 2919 1325 2919 1791 
Q 2919 2259 2725 2515 
Q 2531 2772 2181 2772 
z
" transform="scale(0.015625)"/>
       <path id="DejaVuSans-Bold-20" transform="scale(0.015625)"/>
       <path id="DejaVuSans-Bold-72" d="M 3138 2547 
Q 2991 2616 2845 2648 
Q 2700 2681 2553 2681 
Q 2122 2681 1889 2404 
Q 1656 2128 1656 1613 
L 1656 0 
L 538 0 
L 538 3500 
L 1656 3500 
L 1656 2925 
Q 1872 3269 2151 3426 
Q 2431 3584 2822 3584 
Q 2878 3584 2943 3579 
Q 3009 3575 3134 3559 
L 3138 2547 
z
" transform="scale(0.015625)"/>
       <path id="DejaVuSans-Bold-65" d="M 4031 1759 
L 4031 1441 
L 1416 1441 
Q 1456 1047 1700 850 
Q 1944 653 2381 653 
Q 2734 653 3104 758 
Q 3475 863 3866 1075 
L 3866 213 
Q 3469 63 3072 -14 
Q 2675 -91 2278 -91 
Q 1328 -91 801 392 
Q 275 875 275 1747 
Q 275 2603 792 3093 
Q 1309 3584 2216 3584 
Q 3041 3584 3536 3087 
Q 4031 2591 4031 1759 
z
M 2881 2131 
Q 2881 2450 2695 2645 
Q 2509 2841 2209 2841 
Q 1884 2841 1681 2658 
Q 1478 2475 1428 2131 
L 2881 2131 
z
" transform="scale(0.015625)"/>
       <path id="DejaVuSans-Bold-74" d="M 1759 4494 
L 1759 3500 
L 2913 3500 
L 2913 2700 
L 1759 2700 
L 1759 1216 
Q 1759 972 1856 886 
Q 1953 800 2241 800 
L 2816 800 
L 2816 0 
L 1856 0 
Q 1194 0 917 276 
Q 641 553 641 1216 
L 641 2700 
L 84 2700 
L 84 3500 
L 641 3500 
L 641 4494 
L 1759 4494 
z
" transform="scale(0.015625)"/>
      </defs>
      <use xlink:href="#DejaVuSans-Bold-53"/>
      <use xlink:href="#DejaVuSans-Bold-61" transform="translate(72.021484 0)"/>
      <use xlink:href="#DejaVuSans-Bold-6d" transform="translate(139.501953 0)"/>
      <use xlink:href="#DejaVuSans-Bold-70" transform="translate(243.701172 0)"/>
      <use xlink:href="#DejaVuSans-Bold-6c" transform="translate(315.283203 0)"/>
      <use xlink:href="#DejaVuSans-Bold-69" transform="translate(349.560547 0)"/>
      <use xlink:href="#DejaVuSans-Bold-6e" transform="translate(383.837891 0)"/>
      <use xlink:href="#DejaVuSans-Bold-67" transform="translate(455.029297 0)"/>
      <use xlink:href="#DejaVuSans-Bold-20" transform="translate(526.611328 0)"/>
      <use xlink:href="#DejaVuSans-Bold-70" transform="translate(561.425781 0)"/>
      <use xlink:href="#DejaVuSans-Bold-61" transform="translate(633.007812 0)"/>
      <use xlink:href="#DejaVuSans-Bold-72" transform="translate(700.488281 0)"/>
      <use xlink:href="#DejaVuSans-Bold-61" transform="translate(749.804688 0)"/>
      <use xlink:href="#DejaVuSans-Bold-6d" transform="translate(817.285156 0)"/>
      <use xlink:href="#DejaVuSans-Bold-65" transform="translate(921.484375 0)"/>
      <use xlink:href="#DejaVuSans-Bold-74" transform="translate(989.306641 0)"/>
      <use xlink:href="#DejaVuSans-Bold-65" transform="translate(1037.109375 0)"/>
      <use xlink:href="#DejaVuSans-Bold-72" transform="translate(1104.931641 0)"/>
     </g>
    </g>
   </g>
   <g id="matplotlib.axis_2">
    <g id="ytick_1">
     <g id="line2d_8">
      <defs>
       <path id="m51ddab9bb1" d="M 0 0 
L -3.5 0 
" style="stroke: #000000; stroke-width: 0.8"/>
      </defs>
      <g>
       <use xlink:href="#m51ddab9bb1" x="89.016563" y="461.064467" style="stroke: #000000; stroke-width: 0.8"/>
      </g>
     </g>
     <g id="text_9">
      <!-- 0% -->
      <g transform="translate(53.46125 467.903061) scale(0.18 -0.18)">
       <defs>
        <path id="DejaVuSans-25" d="M 4653 2053 
Q 4381 2053 4226 1822 
Q 4072 1591 4072 1178 
Q 4072 772 4226 539 
Q 4381 306 4653 306 
Q 4919 306 5073 539 
Q 5228 772 5228 1178 
Q 5228 1588 5073 1820 
Q 4919 2053 4653 2053 
z
M 4653 2450 
Q 5147 2450 5437 2106 
Q 5728 1763 5728 1178 
Q 5728 594 5436 251 
Q 5144 -91 4653 -91 
Q 4153 -91 3862 251 
Q 3572 594 3572 1178 
Q 3572 1766 3864 2108 
Q 4156 2450 4653 2450 
z
M 1428 4353 
Q 1159 4353 1004 4120 
Q 850 3888 850 3481 
Q 850 3069 1003 2837 
Q 1156 2606 1428 2606 
Q 1700 2606 1854 2837 
Q 2009 3069 2009 3481 
Q 2009 3884 1853 4118 
Q 1697 4353 1428 4353 
z
M 4250 4750 
L 4750 4750 
L 1831 -91 
L 1331 -91 
L 4250 4750 
z
M 1428 4750 
Q 1922 4750 2215 4408 
Q 2509 4066 2509 3481 
Q 2509 2891 2217 2550 
Q 1925 2209 1428 2209 
Q 931 2209 642 2551 
Q 353 2894 353 3481 
Q 353 4063 643 4406 
Q 934 4750 1428 4750 
z
" transform="scale(0.015625)"/>
       </defs>
       <use xlink:href="#DejaVuSans-30"/>
       <use xlink:href="#DejaVuSans-25" transform="translate(63.623047 0)"/>
      </g>
     </g>
    </g>
    <g id="ytick_2">
     <g id="line2d_9">
      <g>
       <use xlink:href="#m51ddab9bb1" x="89.016563" y="372.360467" style="stroke: #000000; stroke-width: 0.8"/>
      </g>
     </g>
     <g id="text_10">
      <!-- 20% -->
      <g transform="translate(42.00875 379.199061) scale(0.18 -0.18)">
       <use xlink:href="#DejaVuSans-32"/>
       <use xlink:href="#DejaVuSans-30" transform="translate(63.623047 0)"/>
       <use xlink:href="#DejaVuSans-25" transform="translate(127.246094 0)"/>
      </g>
     </g>
    </g>
    <g id="ytick_3">
     <g id="line2d_10">
      <g>
       <use xlink:href="#m51ddab9bb1" x="89.016563" y="283.656467" style="stroke: #000000; stroke-width: 0.8"/>
      </g>
     </g>
     <g id="text_11">
      <!-- 40% -->
      <g transform="translate(42.00875 290.495061) scale(0.18 -0.18)">
       <defs>
        <path id="DejaVuSans-34" d="M 2419 4116 
L 825 1625 
L 2419 1625 
L 2419 4116 
z
M 2253 4666 
L 3047 4666 
L 3047 1625 
L 3713 1625 
L 3713 1100 
L 3047 1100 
L 3047 0 
L 2419 0 
L 2419 1100 
L 313 1100 
L 313 1709 
L 2253 4666 
z
" transform="scale(0.015625)"/>
       </defs>
       <use xlink:href="#DejaVuSans-34"/>
       <use xlink:href="#DejaVuSans-30" transform="translate(63.623047 0)"/>
       <use xlink:href="#DejaVuSans-25" transform="translate(127.246094 0)"/>
      </g>
     </g>
    </g>
    <g id="ytick_4">
     <g id="line2d_11">
      <g>
       <use xlink:href="#m51ddab9bb1" x="89.016563" y="194.952467" style="stroke: #000000; stroke-width: 0.8"/>
      </g>
     </g>
     <g id="text_12">
      <!-- 60% -->
      <g transform="translate(42.00875 201.791061) scale(0.18 -0.18)">
       <defs>
        <path id="DejaVuSans-36" d="M 2113 2584 
Q 1688 2584 1439 2293 
Q 1191 2003 1191 1497 
Q 1191 994 1439 701 
Q 1688 409 2113 409 
Q 2538 409 2786 701 
Q 3034 994 3034 1497 
Q 3034 2003 2786 2293 
Q 2538 2584 2113 2584 
z
M 3366 4563 
L 3366 3988 
Q 3128 4100 2886 4159 
Q 2644 4219 2406 4219 
Q 1781 4219 1451 3797 
Q 1122 3375 1075 2522 
Q 1259 2794 1537 2939 
Q 1816 3084 2150 3084 
Q 2853 3084 3261 2657 
Q 3669 2231 3669 1497 
Q 3669 778 3244 343 
Q 2819 -91 2113 -91 
Q 1303 -91 875 529 
Q 447 1150 447 2328 
Q 447 3434 972 4092 
Q 1497 4750 2381 4750 
Q 2619 4750 2861 4703 
Q 3103 4656 3366 4563 
z
" transform="scale(0.015625)"/>
       </defs>
       <use xlink:href="#DejaVuSans-36"/>
       <use xlink:href="#DejaVuSans-30" transform="translate(63.623047 0)"/>
       <use xlink:href="#DejaVuSans-25" transform="translate(127.246094 0)"/>
      </g>
     </g>
    </g>
    <g id="ytick_5">
     <g id="line2d_12">
      <g>
       <use xlink:href="#m51ddab9bb1" x="89.016563" y="106.248467" style="stroke: #000000; stroke-width: 0.8"/>
      </g>
     </g>
     <g id="text_13">
      <!-- 80% -->
      <g transform="translate(42.00875 113.087061) scale(0.18 -0.18)">
       <defs>
        <path id="DejaVuSans-38" d="M 2034 2216 
Q 1584 2216 1326 1975 
Q 1069 1734 1069 1313 
Q 1069 891 1326 650 
Q 1584 409 2034 409 
Q 2484 409 2743 651 
Q 3003 894 3003 1313 
Q 3003 1734 2745 1975 
Q 2488 2216 2034 2216 
z
M 1403 2484 
Q 997 2584 770 2862 
Q 544 3141 544 3541 
Q 544 4100 942 4425 
Q 1341 4750 2034 4750 
Q 2731 4750 3128 4425 
Q 3525 4100 3525 3541 
Q 3525 3141 3298 2862 
Q 3072 2584 2669 2484 
Q 3125 2378 3379 2068 
Q 3634 1759 3634 1313 
Q 3634 634 3220 271 
Q 2806 -91 2034 -91 
Q 1263 -91 848 271 
Q 434 634 434 1313 
Q 434 1759 690 2068 
Q 947 2378 1403 2484 
z
M 1172 3481 
Q 1172 3119 1398 2916 
Q 1625 2713 2034 2713 
Q 2441 2713 2670 2916 
Q 2900 3119 2900 3481 
Q 2900 3844 2670 4047 
Q 2441 4250 2034 4250 
Q 1625 4250 1398 4047 
Q 1172 3844 1172 3481 
z
" transform="scale(0.015625)"/>
       </defs>
       <use xlink:href="#DejaVuSans-38"/>
       <use xlink:href="#DejaVuSans-30" transform="translate(63.623047 0)"/>
       <use xlink:href="#DejaVuSans-25" transform="translate(127.246094 0)"/>
      </g>
     </g>
    </g>
    <g id="ytick_6">
     <g id="line2d_13">
      <g>
       <use xlink:href="#m51ddab9bb1" x="89.016563" y="17.544467" style="stroke: #000000; stroke-width: 0.8"/>
      </g>
     </g>
     <g id="text_14">
      <!-- 100% -->
      <g transform="translate(30.55625 24.383061) scale(0.18 -0.18)">
       <use xlink:href="#DejaVuSans-31"/>
       <use xlink:href="#DejaVuSans-30" transform="translate(63.623047 0)"/>
       <use xlink:href="#DejaVuSans-30" transform="translate(127.246094 0)"/>
       <use xlink:href="#DejaVuSans-25" transform="translate(190.869141 0)"/>
      </g>
     </g>
    </g>
    <g id="text_15">
     <!-- Retained cCREs -->
     <g transform="translate(22.396875 327.034155) rotate(-90) scale(0.2 -0.2)">
      <defs>
       <path id="DejaVuSans-Bold-52" d="M 2297 2597 
Q 2675 2597 2839 2737 
Q 3003 2878 3003 3200 
Q 3003 3519 2839 3656 
Q 2675 3794 2297 3794 
L 1791 3794 
L 1791 2597 
L 2297 2597 
z
M 1791 1766 
L 1791 0 
L 588 0 
L 588 4666 
L 2425 4666 
Q 3347 4666 3776 4356 
Q 4206 4047 4206 3378 
Q 4206 2916 3982 2619 
Q 3759 2322 3309 2181 
Q 3556 2125 3751 1926 
Q 3947 1728 4147 1325 
L 4800 0 
L 3519 0 
L 2950 1159 
Q 2778 1509 2601 1637 
Q 2425 1766 2131 1766 
L 1791 1766 
z
" transform="scale(0.015625)"/>
       <path id="DejaVuSans-Bold-64" d="M 2919 2988 
L 2919 4863 
L 4044 4863 
L 4044 0 
L 2919 0 
L 2919 506 
Q 2688 197 2409 53 
Q 2131 -91 1766 -91 
Q 1119 -91 703 423 
Q 288 938 288 1747 
Q 288 2556 703 3070 
Q 1119 3584 1766 3584 
Q 2128 3584 2408 3439 
Q 2688 3294 2919 2988 
z
M 2181 722 
Q 2541 722 2730 984 
Q 2919 1247 2919 1747 
Q 2919 2247 2730 2509 
Q 2541 2772 2181 2772 
Q 1825 2772 1636 2509 
Q 1447 2247 1447 1747 
Q 1447 1247 1636 984 
Q 1825 722 2181 722 
z
" transform="scale(0.015625)"/>
       <path id="DejaVuSans-Bold-63" d="M 3366 3391 
L 3366 2478 
Q 3138 2634 2908 2709 
Q 2678 2784 2431 2784 
Q 1963 2784 1702 2511 
Q 1441 2238 1441 1747 
Q 1441 1256 1702 982 
Q 1963 709 2431 709 
Q 2694 709 2930 787 
Q 3166 866 3366 1019 
L 3366 103 
Q 3103 6 2833 -42 
Q 2563 -91 2291 -91 
Q 1344 -91 809 395 
Q 275 881 275 1747 
Q 275 2613 809 3098 
Q 1344 3584 2291 3584 
Q 2566 3584 2833 3536 
Q 3100 3488 3366 3391 
z
" transform="scale(0.015625)"/>
       <path id="DejaVuSans-Bold-43" d="M 4288 256 
Q 3956 84 3597 -3 
Q 3238 -91 2847 -91 
Q 1681 -91 1000 561 
Q 319 1213 319 2328 
Q 319 3447 1000 4098 
Q 1681 4750 2847 4750 
Q 3238 4750 3597 4662 
Q 3956 4575 4288 4403 
L 4288 3438 
Q 3953 3666 3628 3772 
Q 3303 3878 2944 3878 
Q 2300 3878 1931 3465 
Q 1563 3053 1563 2328 
Q 1563 1606 1931 1193 
Q 2300 781 2944 781 
Q 3303 781 3628 887 
Q 3953 994 4288 1222 
L 4288 256 
z
" transform="scale(0.015625)"/>
       <path id="DejaVuSans-Bold-45" d="M 588 4666 
L 3834 4666 
L 3834 3756 
L 1791 3756 
L 1791 2888 
L 3713 2888 
L 3713 1978 
L 1791 1978 
L 1791 909 
L 3903 909 
L 3903 0 
L 588 0 
L 588 4666 
z
" transform="scale(0.015625)"/>
       <path id="DejaVuSans-Bold-73" d="M 3272 3391 
L 3272 2541 
Q 2913 2691 2578 2766 
Q 2244 2841 1947 2841 
Q 1628 2841 1473 2761 
Q 1319 2681 1319 2516 
Q 1319 2381 1436 2309 
Q 1553 2238 1856 2203 
L 2053 2175 
Q 2913 2066 3209 1816 
Q 3506 1566 3506 1031 
Q 3506 472 3093 190 
Q 2681 -91 1863 -91 
Q 1516 -91 1145 -36 
Q 775 19 384 128 
L 384 978 
Q 719 816 1070 734 
Q 1422 653 1784 653 
Q 2113 653 2278 743 
Q 2444 834 2444 1013 
Q 2444 1163 2330 1236 
Q 2216 1309 1875 1350 
L 1678 1375 
Q 931 1469 631 1722 
Q 331 1975 331 2491 
Q 331 3047 712 3315 
Q 1094 3584 1881 3584 
Q 2191 3584 2531 3537 
Q 2872 3491 3272 3391 
z
" transform="scale(0.015625)"/>
      </defs>
      <use xlink:href="#DejaVuSans-Bold-52"/>
      <use xlink:href="#DejaVuSans-Bold-65" transform="translate(77.001953 0)"/>
      <use xlink:href="#DejaVuSans-Bold-74" transform="translate(144.824219 0)"/>
      <use xlink:href="#DejaVuSans-Bold-61" transform="translate(192.626953 0)"/>
      <use xlink:href="#DejaVuSans-Bold-69" transform="translate(260.107422 0)"/>
      <use xlink:href="#DejaVuSans-Bold-6e" transform="translate(294.384766 0)"/>
      <use xlink:href="#DejaVuSans-Bold-65" transform="translate(365.576172 0)"/>
      <use xlink:href="#DejaVuSans-Bold-64" transform="translate(433.398438 0)"/>
      <use xlink:href="#DejaVuSans-Bold-20" transform="translate(504.980469 0)"/>
      <use xlink:href="#DejaVuSans-Bold-63" transform="translate(539.794922 0)"/>
      <use xlink:href="#DejaVuSans-Bold-43" transform="translate(599.072266 0)"/>
      <use xlink:href="#DejaVuSans-Bold-52" transform="translate(672.460938 0)"/>
      <use xlink:href="#DejaVuSans-Bold-45" transform="translate(749.462891 0)"/>
      <use xlink:href="#DejaVuSans-Bold-73" transform="translate(817.773438 0)"/>
     </g>
    </g>
   </g>
   <g id="line2d_14">
    <path d="M 109.307472 20.055036 
L 123.301202 19.632312 
L 137.294932 19.508588 
L 151.288663 19.467346 
L 165.282393 19.436415 
L 179.276124 19.44157 
L 193.269854 19.44157 
L 207.263584 19.426105 
L 221.257315 19.415795 
L 235.251045 19.395174 
" clip-path="url(#p087031fea2)" style="fill: none; stroke: #3d9f95; stroke-opacity: 0.9; stroke-width: 1.5; stroke-linecap: square"/>
    <defs>
     <path id="m7498505c7e" d="M 0 3 
C 0.795609 3 1.55874 2.683901 2.12132 2.12132 
C 2.683901 1.55874 3 0.795609 3 0 
C 3 -0.795609 2.683901 -1.55874 2.12132 -2.12132 
C 1.55874 -2.683901 0.795609 -3 0 -3 
C -0.795609 -3 -1.55874 -2.683901 -2.12132 -2.12132 
C -2.683901 -1.55874 -3 -0.795609 -3 0 
C -3 0.795609 -2.683901 1.55874 -2.12132 2.12132 
C -1.55874 2.683901 -0.795609 3 0 3 
z
" style="stroke: #ffffff; stroke-opacity: 0.9; stroke-width: 0.75"/>
    </defs>
    <g clip-path="url(#p087031fea2)">
     <use xlink:href="#m7498505c7e" x="109.307472" y="20.055036" style="fill: #3d9f95; fill-opacity: 0.9; stroke: #ffffff; stroke-opacity: 0.9; stroke-width: 0.75"/>
     <use xlink:href="#m7498505c7e" x="123.301202" y="19.632312" style="fill: #3d9f95; fill-opacity: 0.9; stroke: #ffffff; stroke-opacity: 0.9; stroke-width: 0.75"/>
     <use xlink:href="#m7498505c7e" x="137.294932" y="19.508588" style="fill: #3d9f95; fill-opacity: 0.9; stroke: #ffffff; stroke-opacity: 0.9; stroke-width: 0.75"/>
     <use xlink:href="#m7498505c7e" x="151.288663" y="19.467346" style="fill: #3d9f95; fill-opacity: 0.9; stroke: #ffffff; stroke-opacity: 0.9; stroke-width: 0.75"/>
     <use xlink:href="#m7498505c7e" x="165.282393" y="19.436415" style="fill: #3d9f95; fill-opacity: 0.9; stroke: #ffffff; stroke-opacity: 0.9; stroke-width: 0.75"/>
     <use xlink:href="#m7498505c7e" x="179.276124" y="19.44157" style="fill: #3d9f95; fill-opacity: 0.9; stroke: #ffffff; stroke-opacity: 0.9; stroke-width: 0.75"/>
     <use xlink:href="#m7498505c7e" x="193.269854" y="19.44157" style="fill: #3d9f95; fill-opacity: 0.9; stroke: #ffffff; stroke-opacity: 0.9; stroke-width: 0.75"/>
     <use xlink:href="#m7498505c7e" x="207.263584" y="19.426105" style="fill: #3d9f95; fill-opacity: 0.9; stroke: #ffffff; stroke-opacity: 0.9; stroke-width: 0.75"/>
     <use xlink:href="#m7498505c7e" x="221.257315" y="19.415795" style="fill: #3d9f95; fill-opacity: 0.9; stroke: #ffffff; stroke-opacity: 0.9; stroke-width: 0.75"/>
     <use xlink:href="#m7498505c7e" x="235.251045" y="19.395174" style="fill: #3d9f95; fill-opacity: 0.9; stroke: #ffffff; stroke-opacity: 0.9; stroke-width: 0.75"/>
    </g>
   </g>
   <g id="line2d_15">
    <path d="M 109.307472 20.276708 
L 123.301202 19.725105 
L 137.294932 19.539519 
L 151.288663 19.482812 
L 165.282393 19.451881 
L 179.276124 19.451881 
L 193.269854 19.446726 
L 207.263584 19.436415 
L 221.257315 19.42095 
L 235.251045 19.395174 
" clip-path="url(#p087031fea2)" style="fill: none; stroke: #3d9f95; stroke-opacity: 0.9; stroke-width: 1.5; stroke-linecap: square"/>
    <defs>
     <path id="m6d1155dc3b" d="M -0 4.242641 
L 4.242641 0 
L 0 -4.242641 
L -4.242641 -0 
z
" style="stroke: #ffffff; stroke-opacity: 0.9; stroke-width: 0.75; stroke-linejoin: miter"/>
    </defs>
    <g clip-path="url(#p087031fea2)">
     <use xlink:href="#m6d1155dc3b" x="109.307472" y="20.276708" style="fill: #3d9f95; fill-opacity: 0.9; stroke: #ffffff; stroke-opacity: 0.9; stroke-width: 0.75; stroke-linejoin: miter"/>
     <use xlink:href="#m6d1155dc3b" x="123.301202" y="19.725105" style="fill: #3d9f95; fill-opacity: 0.9; stroke: #ffffff; stroke-opacity: 0.9; stroke-width: 0.75; stroke-linejoin: miter"/>
     <use xlink:href="#m6d1155dc3b" x="137.294932" y="19.539519" style="fill: #3d9f95; fill-opacity: 0.9; stroke: #ffffff; stroke-opacity: 0.9; stroke-width: 0.75; stroke-linejoin: miter"/>
     <use xlink:href="#m6d1155dc3b" x="151.288663" y="19.482812" style="fill: #3d9f95; fill-opacity: 0.9; stroke: #ffffff; stroke-opacity: 0.9; stroke-width: 0.75; stroke-linejoin: miter"/>
     <use xlink:href="#m6d1155dc3b" x="165.282393" y="19.451881" style="fill: #3d9f95; fill-opacity: 0.9; stroke: #ffffff; stroke-opacity: 0.9; stroke-width: 0.75; stroke-linejoin: miter"/>
     <use xlink:href="#m6d1155dc3b" x="179.276124" y="19.451881" style="fill: #3d9f95; fill-opacity: 0.9; stroke: #ffffff; stroke-opacity: 0.9; stroke-width: 0.75; stroke-linejoin: miter"/>
     <use xlink:href="#m6d1155dc3b" x="193.269854" y="19.446726" style="fill: #3d9f95; fill-opacity: 0.9; stroke: #ffffff; stroke-opacity: 0.9; stroke-width: 0.75; stroke-linejoin: miter"/>
     <use xlink:href="#m6d1155dc3b" x="207.263584" y="19.436415" style="fill: #3d9f95; fill-opacity: 0.9; stroke: #ffffff; stroke-opacity: 0.9; stroke-width: 0.75; stroke-linejoin: miter"/>
     <use xlink:href="#m6d1155dc3b" x="221.257315" y="19.42095" style="fill: #3d9f95; fill-opacity: 0.9; stroke: #ffffff; stroke-opacity: 0.9; stroke-width: 0.75; stroke-linejoin: miter"/>
     <use xlink:href="#m6d1155dc3b" x="235.251045" y="19.395174" style="fill: #3d9f95; fill-opacity: 0.9; stroke: #ffffff; stroke-opacity: 0.9; stroke-width: 0.75; stroke-linejoin: miter"/>
    </g>
   </g>
   <g id="line2d_16"/>
   <g id="line2d_17"/>
   <g id="line2d_18">
    <path d="M 109.307472 20.058181 
L 113.406645 19.973908 
L 117.505819 19.90692 
L 121.604992 19.851319 
L 125.704166 19.803791 
L 129.803339 19.762286 
L 133.902513 19.725447 
L 138.001686 19.692331 
L 142.10086 19.662254 
L 146.200034 19.634705 
L 150.299207 19.609291 
L 154.398381 19.585705 
L 158.497554 19.563702 
L 162.596728 19.543082 
L 166.695901 19.523683 
L 170.795075 19.505367 
L 174.894248 19.488019 
L 178.993422 19.471544 
L 183.092596 19.455856 
L 187.191769 19.440884 
L 191.290943 19.426566 
L 195.390116 19.412847 
L 199.48929 19.399679 
L 203.588463 19.387019 
L 207.687637 19.37483 
L 211.78681 19.363077 
L 215.885984 19.351731 
L 219.985158 19.340764 
L 224.084331 19.330152 
L 228.183505 19.319873 
L 232.282678 19.309906 
L 236.381852 19.300233 
L 240.481025 19.290837 
L 244.580199 19.281703 
L 248.679372 19.272816 
L 252.778546 19.264164 
L 256.87772 19.255734 
L 260.976893 19.247515 
L 265.076067 19.239497 
L 269.17524 19.23167 
L 273.274414 19.224026 
L 277.373587 19.216556 
L 281.472761 19.209252 
L 285.571934 19.202108 
L 289.671108 19.195115 
L 293.770282 19.188269 
L 297.869455 19.181562 
L 301.968629 19.17499 
L 306.067802 19.168547 
L 310.166976 19.162228 
L 314.266149 19.156029 
L 318.365323 19.149945 
L 322.464496 19.143971 
L 326.56367 19.138104 
L 330.662843 19.13234 
L 334.762017 19.126676 
L 338.861191 19.121108 
L 342.960364 19.115633 
L 347.059538 19.110248 
L 351.158711 19.10495 
L 355.257885 19.099736 
L 359.357058 19.094603 
L 363.456232 19.08955 
L 367.555405 19.084573 
L 371.654579 19.079671 
L 375.753753 19.074841 
L 379.852926 19.070081 
L 383.9521 19.065389 
L 388.051273 19.060763 
L 392.150447 19.056202 
L 396.24962 19.051703 
L 400.348794 19.047265 
L 404.447967 19.042886 
L 408.547141 19.038565 
L 412.646315 19.0343 
L 416.745488 19.03009 
L 420.844662 19.025933 
L 424.943835 19.021828 
L 429.043009 19.017774 
L 433.142182 19.01377 
L 437.241356 19.009813 
L 441.340529 19.005904 
L 445.439703 19.002041 
L 449.538877 18.998223 
L 453.63805 18.994449 
L 457.737224 18.990718 
L 461.836397 18.987028 
L 465.935571 18.98338 
L 470.034744 18.979772 
L 474.133918 18.976203 
L 478.233091 18.972673 
L 482.332265 18.96918 
L 486.431439 18.965724 
L 490.530612 18.962304 
L 494.629786 18.958919 
L 498.728959 18.955569 
L 502.828133 18.952252 
L 506.927306 18.948969 
L 511.02648 18.945719 
L 515.125653 18.9425 
" clip-path="url(#p087031fea2)" style="fill: none; stroke: #d3d3d3; stroke-opacity: 0.5; stroke-width: 1.5; stroke-linecap: square"/>
   </g>
   <g id="line2d_19">
    <path d="M 109.307472 19.889632 
L 113.406645 19.8271 
L 117.505819 19.777394 
L 121.604992 19.736138 
L 125.704166 19.700871 
L 129.803339 19.670074 
L 133.902513 19.642739 
L 138.001686 19.618167 
L 142.10086 19.595849 
L 146.200034 19.575407 
L 150.299207 19.556549 
L 154.398381 19.539048 
L 158.497554 19.522722 
L 162.596728 19.507422 
L 166.695901 19.493027 
L 170.795075 19.479436 
L 174.894248 19.466564 
L 178.993422 19.454339 
L 183.092596 19.442699 
L 187.191769 19.43159 
L 191.290943 19.420966 
L 195.390116 19.410786 
L 199.48929 19.401015 
L 203.588463 19.391621 
L 207.687637 19.382576 
L 211.78681 19.373856 
L 215.885984 19.365437 
L 219.985158 19.357299 
L 224.084331 19.349425 
L 228.183505 19.341798 
L 232.282678 19.334402 
L 236.381852 19.327225 
L 240.481025 19.320253 
L 244.580199 19.313475 
L 248.679372 19.306881 
L 252.778546 19.300461 
L 256.87772 19.294205 
L 260.976893 19.288107 
L 265.076067 19.282158 
L 269.17524 19.27635 
L 273.274414 19.270678 
L 277.373587 19.265135 
L 281.472761 19.259716 
L 285.571934 19.254414 
L 289.671108 19.249226 
L 293.770282 19.244146 
L 297.869455 19.239169 
L 301.968629 19.234293 
L 306.067802 19.229512 
L 310.166976 19.224823 
L 314.266149 19.220223 
L 318.365323 19.215709 
L 322.464496 19.211276 
L 326.56367 19.206923 
L 330.662843 19.202646 
L 334.762017 19.198443 
L 338.861191 19.194312 
L 342.960364 19.190249 
L 347.059538 19.186253 
L 351.158711 19.182322 
L 355.257885 19.178453 
L 359.357058 19.174645 
L 363.456232 19.170895 
L 367.555405 19.167202 
L 371.654579 19.163565 
L 375.753753 19.159981 
L 379.852926 19.156449 
L 383.9521 19.152967 
L 388.051273 19.149535 
L 392.150447 19.14615 
L 396.24962 19.142812 
L 400.348794 19.139519 
L 404.447967 19.13627 
L 408.547141 19.133063 
L 412.646315 19.129899 
L 416.745488 19.126775 
L 420.844662 19.12369 
L 424.943835 19.120645 
L 429.043009 19.117636 
L 433.142182 19.114665 
L 437.241356 19.111729 
L 441.340529 19.108829 
L 445.439703 19.105962 
L 449.538877 19.103129 
L 453.63805 19.100329 
L 457.737224 19.09756 
L 461.836397 19.094823 
L 465.935571 19.092115 
L 470.034744 19.089438 
L 474.133918 19.08679 
L 478.233091 19.08417 
L 482.332265 19.081579 
L 486.431439 19.079014 
L 490.530612 19.076476 
L 494.629786 19.073965 
L 498.728959 19.071479 
L 502.828133 19.069018 
L 506.927306 19.066582 
L 511.02648 19.06417 
L 515.125653 19.061782 
" clip-path="url(#p087031fea2)" style="fill: none; stroke: #d3d3d3; stroke-opacity: 0.5; stroke-width: 1.5; stroke-linecap: square"/>
   </g>
   <g id="patch_3">
    <path d="M 89.016563 461.064467 
L 89.016563 17.544467 
" style="fill: none; stroke: #000000; stroke-linejoin: miter; stroke-linecap: square"/>
   </g>
   <g id="patch_4">
    <path d="M 89.016563 461.064467 
L 535.416562 461.064467 
" style="fill: none; stroke: #000000; stroke-linejoin: miter; stroke-linecap: square"/>
   </g>
   <g id="text_16">
    <!-- +0.0% -->
    <g transform="translate(267.238506 13.579317) scale(0.08 -0.08)">
     <defs>
      <path id="DejaVuSans-2b" d="M 2944 4013 
L 2944 2272 
L 4684 2272 
L 4684 1741 
L 2944 1741 
L 2944 0 
L 2419 0 
L 2419 1741 
L 678 1741 
L 678 2272 
L 2419 2272 
L 2419 4013 
L 2944 4013 
z
" transform="scale(0.015625)"/>
     </defs>
     <use xlink:href="#DejaVuSans-2b"/>
     <use xlink:href="#DejaVuSans-30" transform="translate(83.789062 0)"/>
     <use xlink:href="#DejaVuSans-2e" transform="translate(147.412109 0)"/>
     <use xlink:href="#DejaVuSans-30" transform="translate(179.199219 0)"/>
     <use xlink:href="#DejaVuSans-25" transform="translate(242.822266 0)"/>
    </g>
   </g>
   <g id="text_17">
    <!-- +0.0% -->
    <g transform="translate(267.238506 13.621057) scale(0.08 -0.08)">
     <use xlink:href="#DejaVuSans-2b"/>
     <use xlink:href="#DejaVuSans-30" transform="translate(83.789062 0)"/>
     <use xlink:href="#DejaVuSans-2e" transform="translate(147.412109 0)"/>
     <use xlink:href="#DejaVuSans-30" transform="translate(179.199219 0)"/>
     <use xlink:href="#DejaVuSans-25" transform="translate(242.822266 0)"/>
    </g>
   </g>
   <g id="text_18">
    <!-- +0.0% -->
    <g transform="translate(309.219697 13.50612) scale(0.08 -0.08)">
     <use xlink:href="#DejaVuSans-2b"/>
     <use xlink:href="#DejaVuSans-30" transform="translate(83.789062 0)"/>
     <use xlink:href="#DejaVuSans-2e" transform="translate(147.412109 0)"/>
     <use xlink:href="#DejaVuSans-30" transform="translate(179.199219 0)"/>
     <use xlink:href="#DejaVuSans-25" transform="translate(242.822266 0)"/>
    </g>
   </g>
   <g id="text_19">
    <!-- +0.0% -->
    <g transform="translate(309.219697 13.566744) scale(0.08 -0.08)">
     <use xlink:href="#DejaVuSans-2b"/>
     <use xlink:href="#DejaVuSans-30" transform="translate(83.789062 0)"/>
     <use xlink:href="#DejaVuSans-2e" transform="translate(147.412109 0)"/>
     <use xlink:href="#DejaVuSans-30" transform="translate(179.199219 0)"/>
     <use xlink:href="#DejaVuSans-25" transform="translate(242.822266 0)"/>
    </g>
   </g>
   <g id="text_20">
    <!-- +0.1% -->
    <g transform="translate(344.204023 13.455555) scale(0.08 -0.08)">
     <use xlink:href="#DejaVuSans-2b"/>
     <use xlink:href="#DejaVuSans-30" transform="translate(83.789062 0)"/>
     <use xlink:href="#DejaVuSans-2e" transform="translate(147.412109 0)"/>
     <use xlink:href="#DejaVuSans-31" transform="translate(179.199219 0)"/>
     <use xlink:href="#DejaVuSans-25" transform="translate(242.822266 0)"/>
    </g>
   </g>
   <g id="text_21">
    <!-- +0.0% -->
    <g transform="translate(344.204023 13.529223) scale(0.08 -0.08)">
     <use xlink:href="#DejaVuSans-2b"/>
     <use xlink:href="#DejaVuSans-30" transform="translate(83.789062 0)"/>
     <use xlink:href="#DejaVuSans-2e" transform="translate(147.412109 0)"/>
     <use xlink:href="#DejaVuSans-30" transform="translate(179.199219 0)"/>
     <use xlink:href="#DejaVuSans-25" transform="translate(242.822266 0)"/>
    </g>
   </g>
   <g id="text_22">
    <!-- +0.1% -->
    <g transform="translate(379.188349 13.411753) scale(0.08 -0.08)">
     <use xlink:href="#DejaVuSans-2b"/>
     <use xlink:href="#DejaVuSans-30" transform="translate(83.789062 0)"/>
     <use xlink:href="#DejaVuSans-2e" transform="translate(147.412109 0)"/>
     <use xlink:href="#DejaVuSans-31" transform="translate(179.199219 0)"/>
     <use xlink:href="#DejaVuSans-25" transform="translate(242.822266 0)"/>
    </g>
   </g>
   <g id="text_23">
    <!-- +0.1% -->
    <g transform="translate(379.188349 13.496722) scale(0.08 -0.08)">
     <use xlink:href="#DejaVuSans-2b"/>
     <use xlink:href="#DejaVuSans-30" transform="translate(83.789062 0)"/>
     <use xlink:href="#DejaVuSans-2e" transform="translate(147.412109 0)"/>
     <use xlink:href="#DejaVuSans-31" transform="translate(179.199219 0)"/>
     <use xlink:href="#DejaVuSans-25" transform="translate(242.822266 0)"/>
    </g>
   </g>
   <g id="text_24">
    <!-- +0.1% -->
    <g transform="translate(449.157001 13.338556) scale(0.08 -0.08)">
     <use xlink:href="#DejaVuSans-2b"/>
     <use xlink:href="#DejaVuSans-30" transform="translate(83.789062 0)"/>
     <use xlink:href="#DejaVuSans-2e" transform="translate(147.412109 0)"/>
     <use xlink:href="#DejaVuSans-31" transform="translate(179.199219 0)"/>
     <use xlink:href="#DejaVuSans-25" transform="translate(242.822266 0)"/>
    </g>
   </g>
   <g id="text_25">
    <!-- +0.1% -->
    <g transform="translate(449.157001 13.442409) scale(0.08 -0.08)">
     <use xlink:href="#DejaVuSans-2b"/>
     <use xlink:href="#DejaVuSans-30" transform="translate(83.789062 0)"/>
     <use xlink:href="#DejaVuSans-2e" transform="translate(147.412109 0)"/>
     <use xlink:href="#DejaVuSans-31" transform="translate(179.199219 0)"/>
     <use xlink:href="#DejaVuSans-25" transform="translate(242.822266 0)"/>
    </g>
   </g>
   <g id="text_26">
    <!-- +0.1% -->
    <g transform="translate(519.125653 13.27875) scale(0.08 -0.08)">
     <use xlink:href="#DejaVuSans-2b"/>
     <use xlink:href="#DejaVuSans-30" transform="translate(83.789062 0)"/>
     <use xlink:href="#DejaVuSans-2e" transform="translate(147.412109 0)"/>
     <use xlink:href="#DejaVuSans-31" transform="translate(179.199219 0)"/>
     <use xlink:href="#DejaVuSans-25" transform="translate(242.822266 0)"/>
    </g>
   </g>
   <g id="text_27">
    <!-- +0.1% -->
    <g transform="translate(519.125653 13.398032) scale(0.08 -0.08)">
     <use xlink:href="#DejaVuSans-2b"/>
     <use xlink:href="#DejaVuSans-30" transform="translate(83.789062 0)"/>
     <use xlink:href="#DejaVuSans-2e" transform="translate(147.412109 0)"/>
     <use xlink:href="#DejaVuSans-31" transform="translate(179.199219 0)"/>
     <use xlink:href="#DejaVuSans-25" transform="translate(242.822266 0)"/>
    </g>
   </g>
   <g id="legend_1">
    <g id="line2d_20">
     <path d="M 318.747187 381.97978 
L 336.747187 381.97978 
L 354.747187 381.97978 
" style="fill: none; stroke: #d3d3d3; stroke-width: 1.5; stroke-linecap: square"/>
     <defs>
      <path id="m922d6d9ab5" d="M -3 3 
L 3 3 
L 3 -3 
L -3 -3 
z
" style="stroke: #d3d3d3; stroke-linejoin: miter"/>
     </defs>
     <g>
      <use xlink:href="#m922d6d9ab5" x="336.747187" y="381.97978" style="fill: #d3d3d3; stroke: #d3d3d3; stroke-linejoin: miter"/>
     </g>
    </g>
    <g id="text_28">
     <!-- Model prediction -->
     <g transform="translate(369.147187 388.27978) scale(0.18 -0.18)">
      <defs>
       <path id="DejaVuSans-4d" d="M 628 4666 
L 1569 4666 
L 2759 1491 
L 3956 4666 
L 4897 4666 
L 4897 0 
L 4281 0 
L 4281 4097 
L 3078 897 
L 2444 897 
L 1241 4097 
L 1241 0 
L 628 0 
L 628 4666 
z
" transform="scale(0.015625)"/>
       <path id="DejaVuSans-6f" d="M 1959 3097 
Q 1497 3097 1228 2736 
Q 959 2375 959 1747 
Q 959 1119 1226 758 
Q 1494 397 1959 397 
Q 2419 397 2687 759 
Q 2956 1122 2956 1747 
Q 2956 2369 2687 2733 
Q 2419 3097 1959 3097 
z
M 1959 3584 
Q 2709 3584 3137 3096 
Q 3566 2609 3566 1747 
Q 3566 888 3137 398 
Q 2709 -91 1959 -91 
Q 1206 -91 779 398 
Q 353 888 353 1747 
Q 353 2609 779 3096 
Q 1206 3584 1959 3584 
z
" transform="scale(0.015625)"/>
       <path id="DejaVuSans-64" d="M 2906 2969 
L 2906 4863 
L 3481 4863 
L 3481 0 
L 2906 0 
L 2906 525 
Q 2725 213 2448 61 
Q 2172 -91 1784 -91 
Q 1150 -91 751 415 
Q 353 922 353 1747 
Q 353 2572 751 3078 
Q 1150 3584 1784 3584 
Q 2172 3584 2448 3432 
Q 2725 3281 2906 2969 
z
M 947 1747 
Q 947 1113 1208 752 
Q 1469 391 1925 391 
Q 2381 391 2643 752 
Q 2906 1113 2906 1747 
Q 2906 2381 2643 2742 
Q 2381 3103 1925 3103 
Q 1469 3103 1208 2742 
Q 947 2381 947 1747 
z
" transform="scale(0.015625)"/>
       <path id="DejaVuSans-65" d="M 3597 1894 
L 3597 1613 
L 953 1613 
Q 991 1019 1311 708 
Q 1631 397 2203 397 
Q 2534 397 2845 478 
Q 3156 559 3463 722 
L 3463 178 
Q 3153 47 2828 -22 
Q 2503 -91 2169 -91 
Q 1331 -91 842 396 
Q 353 884 353 1716 
Q 353 2575 817 3079 
Q 1281 3584 2069 3584 
Q 2775 3584 3186 3129 
Q 3597 2675 3597 1894 
z
M 3022 2063 
Q 3016 2534 2758 2815 
Q 2500 3097 2075 3097 
Q 1594 3097 1305 2825 
Q 1016 2553 972 2059 
L 3022 2063 
z
" transform="scale(0.015625)"/>
       <path id="DejaVuSans-6c" d="M 603 4863 
L 1178 4863 
L 1178 0 
L 603 0 
L 603 4863 
z
" transform="scale(0.015625)"/>
       <path id="DejaVuSans-20" transform="scale(0.015625)"/>
       <path id="DejaVuSans-70" d="M 1159 525 
L 1159 -1331 
L 581 -1331 
L 581 3500 
L 1159 3500 
L 1159 2969 
Q 1341 3281 1617 3432 
Q 1894 3584 2278 3584 
Q 2916 3584 3314 3078 
Q 3713 2572 3713 1747 
Q 3713 922 3314 415 
Q 2916 -91 2278 -91 
Q 1894 -91 1617 61 
Q 1341 213 1159 525 
z
M 3116 1747 
Q 3116 2381 2855 2742 
Q 2594 3103 2138 3103 
Q 1681 3103 1420 2742 
Q 1159 2381 1159 1747 
Q 1159 1113 1420 752 
Q 1681 391 2138 391 
Q 2594 391 2855 752 
Q 3116 1113 3116 1747 
z
" transform="scale(0.015625)"/>
       <path id="DejaVuSans-72" d="M 2631 2963 
Q 2534 3019 2420 3045 
Q 2306 3072 2169 3072 
Q 1681 3072 1420 2755 
Q 1159 2438 1159 1844 
L 1159 0 
L 581 0 
L 581 3500 
L 1159 3500 
L 1159 2956 
Q 1341 3275 1631 3429 
Q 1922 3584 2338 3584 
Q 2397 3584 2469 3576 
Q 2541 3569 2628 3553 
L 2631 2963 
z
" transform="scale(0.015625)"/>
       <path id="DejaVuSans-69" d="M 603 3500 
L 1178 3500 
L 1178 0 
L 603 0 
L 603 3500 
z
M 603 4863 
L 1178 4863 
L 1178 4134 
L 603 4134 
L 603 4863 
z
" transform="scale(0.015625)"/>
       <path id="DejaVuSans-63" d="M 3122 3366 
L 3122 2828 
Q 2878 2963 2633 3030 
Q 2388 3097 2138 3097 
Q 1578 3097 1268 2742 
Q 959 2388 959 1747 
Q 959 1106 1268 751 
Q 1578 397 2138 397 
Q 2388 397 2633 464 
Q 2878 531 3122 666 
L 3122 134 
Q 2881 22 2623 -34 
Q 2366 -91 2075 -91 
Q 1284 -91 818 406 
Q 353 903 353 1747 
Q 353 2603 823 3093 
Q 1294 3584 2113 3584 
Q 2378 3584 2631 3529 
Q 2884 3475 3122 3366 
z
" transform="scale(0.015625)"/>
       <path id="DejaVuSans-74" d="M 1172 4494 
L 1172 3500 
L 2356 3500 
L 2356 3053 
L 1172 3053 
L 1172 1153 
Q 1172 725 1289 603 
Q 1406 481 1766 481 
L 2356 481 
L 2356 0 
L 1766 0 
Q 1100 0 847 248 
Q 594 497 594 1153 
L 594 3053 
L 172 3053 
L 172 3500 
L 594 3500 
L 594 4494 
L 1172 4494 
z
" transform="scale(0.015625)"/>
       <path id="DejaVuSans-6e" d="M 3513 2113 
L 3513 0 
L 2938 0 
L 2938 2094 
Q 2938 2591 2744 2837 
Q 2550 3084 2163 3084 
Q 1697 3084 1428 2787 
Q 1159 2491 1159 1978 
L 1159 0 
L 581 0 
L 581 3500 
L 1159 3500 
L 1159 2956 
Q 1366 3272 1645 3428 
Q 1925 3584 2291 3584 
Q 2894 3584 3203 3211 
Q 3513 2838 3513 2113 
z
" transform="scale(0.015625)"/>
      </defs>
      <use xlink:href="#DejaVuSans-4d"/>
      <use xlink:href="#DejaVuSans-6f" transform="translate(86.279297 0)"/>
      <use xlink:href="#DejaVuSans-64" transform="translate(147.460938 0)"/>
      <use xlink:href="#DejaVuSans-65" transform="translate(210.9375 0)"/>
      <use xlink:href="#DejaVuSans-6c" transform="translate(272.460938 0)"/>
      <use xlink:href="#DejaVuSans-20" transform="translate(300.244141 0)"/>
      <use xlink:href="#DejaVuSans-70" transform="translate(332.03125 0)"/>
      <use xlink:href="#DejaVuSans-72" transform="translate(395.507812 0)"/>
      <use xlink:href="#DejaVuSans-65" transform="translate(434.371094 0)"/>
      <use xlink:href="#DejaVuSans-64" transform="translate(495.894531 0)"/>
      <use xlink:href="#DejaVuSans-69" transform="translate(559.371094 0)"/>
      <use xlink:href="#DejaVuSans-63" transform="translate(587.154297 0)"/>
      <use xlink:href="#DejaVuSans-74" transform="translate(642.134766 0)"/>
      <use xlink:href="#DejaVuSans-69" transform="translate(681.34375 0)"/>
      <use xlink:href="#DejaVuSans-6f" transform="translate(709.126953 0)"/>
      <use xlink:href="#DejaVuSans-6e" transform="translate(770.308594 0)"/>
     </g>
    </g>
    <g id="line2d_21">
     <path d="M 318.747187 408.400405 
L 336.747187 408.400405 
L 354.747187 408.400405 
" style="fill: none; stroke: #3d9f95; stroke-width: 1.5; stroke-linecap: square"/>
     <defs>
      <path id="mf692e73572" d="M 0 3 
C 0.795609 3 1.55874 2.683901 2.12132 2.12132 
C 2.683901 1.55874 3 0.795609 3 0 
C 3 -0.795609 2.683901 -1.55874 2.12132 -2.12132 
C 1.55874 -2.683901 0.795609 -3 0 -3 
C -0.795609 -3 -1.55874 -2.683901 -2.12132 -2.12132 
C -2.683901 -1.55874 -3 -0.795609 -3 0 
C -3 0.795609 -2.683901 1.55874 -2.12132 2.12132 
C -1.55874 2.683901 -0.795609 3 0 3 
z
" style="stroke: #3d9f95"/>
     </defs>
     <g>
      <use xlink:href="#mf692e73572" x="336.747187" y="408.400405" style="fill: #3d9f95; stroke: #3d9f95"/>
     </g>
    </g>
    <g id="text_29">
     <!-- RNA -->
     <g transform="translate(369.147187 414.700405) scale(0.18 -0.18)">
      <defs>
       <path id="DejaVuSans-52" d="M 2841 2188 
Q 3044 2119 3236 1894 
Q 3428 1669 3622 1275 
L 4263 0 
L 3584 0 
L 2988 1197 
Q 2756 1666 2539 1819 
Q 2322 1972 1947 1972 
L 1259 1972 
L 1259 0 
L 628 0 
L 628 4666 
L 2053 4666 
Q 2853 4666 3247 4331 
Q 3641 3997 3641 3322 
Q 3641 2881 3436 2590 
Q 3231 2300 2841 2188 
z
M 1259 4147 
L 1259 2491 
L 2053 2491 
Q 2509 2491 2742 2702 
Q 2975 2913 2975 3322 
Q 2975 3731 2742 3939 
Q 2509 4147 2053 4147 
L 1259 4147 
z
" transform="scale(0.015625)"/>
       <path id="DejaVuSans-4e" d="M 628 4666 
L 1478 4666 
L 3547 763 
L 3547 4666 
L 4159 4666 
L 4159 0 
L 3309 0 
L 1241 3903 
L 1241 0 
L 628 0 
L 628 4666 
z
" transform="scale(0.015625)"/>
       <path id="DejaVuSans-41" d="M 2188 4044 
L 1331 1722 
L 3047 1722 
L 2188 4044 
z
M 1831 4666 
L 2547 4666 
L 4325 0 
L 3669 0 
L 3244 1197 
L 1141 1197 
L 716 0 
L 50 0 
L 1831 4666 
z
" transform="scale(0.015625)"/>
      </defs>
      <use xlink:href="#DejaVuSans-52"/>
      <use xlink:href="#DejaVuSans-4e" transform="translate(69.482422 0)"/>
      <use xlink:href="#DejaVuSans-41" transform="translate(144.287109 0)"/>
     </g>
    </g>
    <g id="line2d_22">
     <path d="M 318.747187 434.82103 
L 336.747187 434.82103 
L 354.747187 434.82103 
" style="fill: none; stroke: #3d9f95; stroke-width: 1.5; stroke-linecap: square"/>
     <defs>
      <path id="me94d7693cc" d="M -0 4.242641 
L 4.242641 0 
L 0 -4.242641 
L -4.242641 -0 
z
" style="stroke: #3d9f95; stroke-linejoin: miter"/>
     </defs>
     <g>
      <use xlink:href="#me94d7693cc" x="336.747187" y="434.82103" style="fill: #3d9f95; stroke: #3d9f95; stroke-linejoin: miter"/>
     </g>
    </g>
    <g id="text_30">
     <!-- DNA -->
     <g transform="translate(369.147187 441.12103) scale(0.18 -0.18)">
      <defs>
       <path id="DejaVuSans-44" d="M 1259 4147 
L 1259 519 
L 2022 519 
Q 2988 519 3436 956 
Q 3884 1394 3884 2338 
Q 3884 3275 3436 3711 
Q 2988 4147 2022 4147 
L 1259 4147 
z
M 628 4666 
L 1925 4666 
Q 3281 4666 3915 4102 
Q 4550 3538 4550 2338 
Q 4550 1131 3912 565 
Q 3275 0 1925 0 
L 628 0 
L 628 4666 
z
" transform="scale(0.015625)"/>
      </defs>
      <use xlink:href="#DejaVuSans-44"/>
      <use xlink:href="#DejaVuSans-4e" transform="translate(77.001953 0)"/>
      <use xlink:href="#DejaVuSans-41" transform="translate(151.806641 0)"/>
     </g>
    </g>
   </g>
  </g>
 </g>
 <defs>
  <clipPath id="p087031fea2">
   <rect x="89.016563" y="17.544467" width="446.4" height="443.52"/>
  </clipPath>
 </defs>
</svg>
