<?xml version="1.0" encoding="utf-8" standalone="no"?>
<!DOCTYPE svg PUBLIC "-//W3C//DTD SVG 1.1//EN"
  "http://www.w3.org/Graphics/SVG/1.1/DTD/svg11.dtd">
<svg xmlns:xlink="http://www.w3.org/1999/xlink" width="517.692187pt" height="512.691719pt" viewBox="0 0 517.692187 512.691719" xmlns="http://www.w3.org/2000/svg" version="1.1">
 <metadata>
  <rdf:RDF xmlns:dc="http://purl.org/dc/elements/1.1/" xmlns:cc="http://creativecommons.org/ns#" xmlns:rdf="http://www.w3.org/1999/02/22-rdf-syntax-ns#">
   <cc:Work>
    <dc:type rdf:resource="http://purl.org/dc/dcmitype/StillImage"/>
    <dc:date>2026-01-04T15:45:58.541570</dc:date>
    <dc:format>image/svg+xml</dc:format>
    <dc:creator>
     <cc:Agent>
      <dc:title>Matplotlib v3.10.6, https://matplotlib.org/</dc:title>
     </cc:Agent>
    </dc:creator>
   </cc:Work>
  </rdf:RDF>
 </metadata>
 <defs>
  <style type="text/css">*{stroke-linejoin: round; stroke-linecap: butt}</style>
 </defs>
 <g id="figure_1">
  <g id="patch_1">
   <path d="M 0 512.691719 
L 517.692187 512.691719 
L 517.692187 0 
L 0 0 
L 0 512.691719 
z
" style="fill: none"/>
  </g>
  <g id="axes_1">
   <g id="patch_2">
    <path d="M 64.092188 457.558594 
L 510.492188 457.558594 
L 510.492188 14.038594 
L 64.092188 14.038594 
L 64.092188 457.558594 
z
" style="fill: none"/>
   </g>
   <g id="FillBetweenPolyCollection_1"/>
   <g id="FillBetweenPolyCollection_2"/>
   <g id="matplotlib.axis_1">
    <g id="xtick_1">
     <g id="line2d_1">
      <defs>
       <path id="m7dcfbb8be2" d="M 0 0 
L 0 3.5 
" style="stroke: #000000; stroke-width: 0.8"/>
      </defs>
      <g>
       <use xlink:href="#m7dcfbb8be2" x="84.383097" y="457.558594" style="stroke: #000000; stroke-width: 0.8"/>
      </g>
     </g>
     <g id="text_1">
      <!-- 0.1 -->
      <g transform="translate(70.070284 478.235781) scale(0.18 -0.18)">
       <defs>
        <path id="DejaVuSans-30" d="M 2034 4250 
Q 1547 4250 1301 3770 
Q 1056 3291 1056 2328 
Q 1056 1369 1301 889 
Q 1547 409 2034 409 
Q 2525 409 2770 889 
Q 3016 1369 3016 2328 
Q 3016 3291 2770 3770 
Q 2525 4250 2034 4250 
z
M 2034 4750 
Q 2819 4750 3233 4129 
Q 3647 3509 3647 2328 
Q 3647 1150 3233 529 
Q 2819 -91 2034 -91 
Q 1250 -91 836 529 
Q 422 1150 422 2328 
Q 422 3509 836 4129 
Q 1250 4750 2034 4750 
z
" transform="scale(0.015625)"/>
        <path id="DejaVuSans-2e" d="M 684 794 
L 1344 794 
L 1344 0 
L 684 0 
L 684 794 
z
" transform="scale(0.015625)"/>
        <path id="DejaVuSans-31" d="M 794 531 
L 1825 531 
L 1825 4091 
L 703 3866 
L 703 4441 
L 1819 4666 
L 2450 4666 
L 2450 531 
L 3481 531 
L 3481 0 
L 794 0 
L 794 531 
z
" transform="scale(0.015625)"/>
       </defs>
       <use xlink:href="#DejaVuSans-30"/>
       <use xlink:href="#DejaVuSans-2e" transform="translate(63.623047 0)"/>
       <use xlink:href="#DejaVuSans-31" transform="translate(95.410156 0)"/>
      </g>
     </g>
    </g>
    <g id="xtick_2">
     <g id="line2d_2">
      <g>
       <use xlink:href="#m7dcfbb8be2" x="490.201278" y="457.558594" style="stroke: #000000; stroke-width: 0.8"/>
      </g>
     </g>
     <g id="text_2">
      <!-- 1.0 -->
      <g transform="translate(475.888466 478.235781) scale(0.18 -0.18)">
       <use xlink:href="#DejaVuSans-31"/>
       <use xlink:href="#DejaVuSans-2e" transform="translate(63.623047 0)"/>
       <use xlink:href="#DejaVuSans-30" transform="translate(95.410156 0)"/>
      </g>
     </g>
    </g>
    <g id="text_3">
     <!-- Sampling parameter -->
     <g transform="translate(171.867188 501.176094) scale(0.2 -0.2)">
      <defs>
       <path id="DejaVuSans-Bold-53" d="M 3834 4519 
L 3834 3531 
Q 3450 3703 3084 3790 
Q 2719 3878 2394 3878 
Q 1963 3878 1756 3759 
Q 1550 3641 1550 3391 
Q 1550 3203 1689 3098 
Q 1828 2994 2194 2919 
L 2706 2816 
Q 3484 2659 3812 2340 
Q 4141 2022 4141 1434 
Q 4141 663 3683 286 
Q 3225 -91 2284 -91 
Q 1841 -91 1394 -6 
Q 947 78 500 244 
L 500 1259 
Q 947 1022 1364 901 
Q 1781 781 2169 781 
Q 2563 781 2772 912 
Q 2981 1044 2981 1288 
Q 2981 1506 2839 1625 
Q 2697 1744 2272 1838 
L 1806 1941 
Q 1106 2091 782 2419 
Q 459 2747 459 3303 
Q 459 4000 909 4375 
Q 1359 4750 2203 4750 
Q 2588 4750 2994 4692 
Q 3400 4634 3834 4519 
z
" transform="scale(0.015625)"/>
       <path id="DejaVuSans-Bold-61" d="M 2106 1575 
Q 1756 1575 1579 1456 
Q 1403 1338 1403 1106 
Q 1403 894 1545 773 
Q 1688 653 1941 653 
Q 2256 653 2472 879 
Q 2688 1106 2688 1447 
L 2688 1575 
L 2106 1575 
z
M 3816 1997 
L 3816 0 
L 2688 0 
L 2688 519 
Q 2463 200 2181 54 
Q 1900 -91 1497 -91 
Q 953 -91 614 226 
Q 275 544 275 1050 
Q 275 1666 698 1953 
Q 1122 2241 2028 2241 
L 2688 2241 
L 2688 2328 
Q 2688 2594 2478 2717 
Q 2269 2841 1825 2841 
Q 1466 2841 1156 2769 
Q 847 2697 581 2553 
L 581 3406 
Q 941 3494 1303 3539 
Q 1666 3584 2028 3584 
Q 2975 3584 3395 3211 
Q 3816 2838 3816 1997 
z
" transform="scale(0.015625)"/>
       <path id="DejaVuSans-Bold-6d" d="M 3781 2919 
Q 3994 3244 4286 3414 
Q 4578 3584 4928 3584 
Q 5531 3584 5847 3212 
Q 6163 2841 6163 2131 
L 6163 0 
L 5038 0 
L 5038 1825 
Q 5041 1866 5042 1909 
Q 5044 1953 5044 2034 
Q 5044 2406 4934 2573 
Q 4825 2741 4581 2741 
Q 4263 2741 4089 2478 
Q 3916 2216 3909 1719 
L 3909 0 
L 2784 0 
L 2784 1825 
Q 2784 2406 2684 2573 
Q 2584 2741 2328 2741 
Q 2006 2741 1831 2477 
Q 1656 2213 1656 1722 
L 1656 0 
L 531 0 
L 531 3500 
L 1656 3500 
L 1656 2988 
Q 1863 3284 2130 3434 
Q 2397 3584 2719 3584 
Q 3081 3584 3359 3409 
Q 3638 3234 3781 2919 
z
" transform="scale(0.015625)"/>
       <path id="DejaVuSans-Bold-70" d="M 1656 506 
L 1656 -1331 
L 538 -1331 
L 538 3500 
L 1656 3500 
L 1656 2988 
Q 1888 3294 2169 3439 
Q 2450 3584 2816 3584 
Q 3463 3584 3878 3070 
Q 4294 2556 4294 1747 
Q 4294 938 3878 423 
Q 3463 -91 2816 -91 
Q 2450 -91 2169 54 
Q 1888 200 1656 506 
z
M 2400 2772 
Q 2041 2772 1848 2508 
Q 1656 2244 1656 1747 
Q 1656 1250 1848 986 
Q 2041 722 2400 722 
Q 2759 722 2948 984 
Q 3138 1247 3138 1747 
Q 3138 2247 2948 2509 
Q 2759 2772 2400 2772 
z
" transform="scale(0.015625)"/>
       <path id="DejaVuSans-Bold-6c" d="M 538 4863 
L 1656 4863 
L 1656 0 
L 538 0 
L 538 4863 
z
" transform="scale(0.015625)"/>
       <path id="DejaVuSans-Bold-69" d="M 538 3500 
L 1656 3500 
L 1656 0 
L 538 0 
L 538 3500 
z
M 538 4863 
L 1656 4863 
L 1656 3950 
L 538 3950 
L 538 4863 
z
" transform="scale(0.015625)"/>
       <path id="DejaVuSans-Bold-6e" d="M 4056 2131 
L 4056 0 
L 2931 0 
L 2931 347 
L 2931 1631 
Q 2931 2084 2911 2256 
Q 2891 2428 2841 2509 
Q 2775 2619 2662 2680 
Q 2550 2741 2406 2741 
Q 2056 2741 1856 2470 
Q 1656 2200 1656 1722 
L 1656 0 
L 538 0 
L 538 3500 
L 1656 3500 
L 1656 2988 
Q 1909 3294 2193 3439 
Q 2478 3584 2822 3584 
Q 3428 3584 3742 3212 
Q 4056 2841 4056 2131 
z
" transform="scale(0.015625)"/>
       <path id="DejaVuSans-Bold-67" d="M 2919 594 
Q 2688 288 2409 144 
Q 2131 0 1766 0 
Q 1125 0 706 504 
Q 288 1009 288 1791 
Q 288 2575 706 3076 
Q 1125 3578 1766 3578 
Q 2131 3578 2409 3434 
Q 2688 3291 2919 2981 
L 2919 3500 
L 4044 3500 
L 4044 353 
Q 4044 -491 3511 -936 
Q 2978 -1381 1966 -1381 
Q 1638 -1381 1331 -1331 
Q 1025 -1281 716 -1178 
L 716 -306 
Q 1009 -475 1290 -558 
Q 1572 -641 1856 -641 
Q 2406 -641 2662 -400 
Q 2919 -159 2919 353 
L 2919 594 
z
M 2181 2772 
Q 1834 2772 1640 2515 
Q 1447 2259 1447 1791 
Q 1447 1309 1634 1061 
Q 1822 813 2181 813 
Q 2531 813 2725 1069 
Q 2919 1325 2919 1791 
Q 2919 2259 2725 2515 
Q 2531 2772 2181 2772 
z
" transform="scale(0.015625)"/>
       <path id="DejaVuSans-Bold-20" transform="scale(0.015625)"/>
       <path id="DejaVuSans-Bold-72" d="M 3138 2547 
Q 2991 2616 2845 2648 
Q 2700 2681 2553 2681 
Q 2122 2681 1889 2404 
Q 1656 2128 1656 1613 
L 1656 0 
L 538 0 
L 538 3500 
L 1656 3500 
L 1656 2925 
Q 1872 3269 2151 3426 
Q 2431 3584 2822 3584 
Q 2878 3584 2943 3579 
Q 3009 3575 3134 3559 
L 3138 2547 
z
" transform="scale(0.015625)"/>
       <path id="DejaVuSans-Bold-65" d="M 4031 1759 
L 4031 1441 
L 1416 1441 
Q 1456 1047 1700 850 
Q 1944 653 2381 653 
Q 2734 653 3104 758 
Q 3475 863 3866 1075 
L 3866 213 
Q 3469 63 3072 -14 
Q 2675 -91 2278 -91 
Q 1328 -91 801 392 
Q 275 875 275 1747 
Q 275 2603 792 3093 
Q 1309 3584 2216 3584 
Q 3041 3584 3536 3087 
Q 4031 2591 4031 1759 
z
M 2881 2131 
Q 2881 2450 2695 2645 
Q 2509 2841 2209 2841 
Q 1884 2841 1681 2658 
Q 1478 2475 1428 2131 
L 2881 2131 
z
" transform="scale(0.015625)"/>
       <path id="DejaVuSans-Bold-74" d="M 1759 4494 
L 1759 3500 
L 2913 3500 
L 2913 2700 
L 1759 2700 
L 1759 1216 
Q 1759 972 1856 886 
Q 1953 800 2241 800 
L 2816 800 
L 2816 0 
L 1856 0 
Q 1194 0 917 276 
Q 641 553 641 1216 
L 641 2700 
L 84 2700 
L 84 3500 
L 641 3500 
L 641 4494 
L 1759 4494 
z
" transform="scale(0.015625)"/>
      </defs>
      <use xlink:href="#DejaVuSans-Bold-53"/>
      <use xlink:href="#DejaVuSans-Bold-61" transform="translate(72.021484 0)"/>
      <use xlink:href="#DejaVuSans-Bold-6d" transform="translate(139.501953 0)"/>
      <use xlink:href="#DejaVuSans-Bold-70" transform="translate(243.701172 0)"/>
      <use xlink:href="#DejaVuSans-Bold-6c" transform="translate(315.283203 0)"/>
      <use xlink:href="#DejaVuSans-Bold-69" transform="translate(349.560547 0)"/>
      <use xlink:href="#DejaVuSans-Bold-6e" transform="translate(383.837891 0)"/>
      <use xlink:href="#DejaVuSans-Bold-67" transform="translate(455.029297 0)"/>
      <use xlink:href="#DejaVuSans-Bold-20" transform="translate(526.611328 0)"/>
      <use xlink:href="#DejaVuSans-Bold-70" transform="translate(561.425781 0)"/>
      <use xlink:href="#DejaVuSans-Bold-61" transform="translate(633.007812 0)"/>
      <use xlink:href="#DejaVuSans-Bold-72" transform="translate(700.488281 0)"/>
      <use xlink:href="#DejaVuSans-Bold-61" transform="translate(749.804688 0)"/>
      <use xlink:href="#DejaVuSans-Bold-6d" transform="translate(817.285156 0)"/>
      <use xlink:href="#DejaVuSans-Bold-65" transform="translate(921.484375 0)"/>
      <use xlink:href="#DejaVuSans-Bold-74" transform="translate(989.306641 0)"/>
      <use xlink:href="#DejaVuSans-Bold-65" transform="translate(1037.109375 0)"/>
      <use xlink:href="#DejaVuSans-Bold-72" transform="translate(1104.931641 0)"/>
     </g>
    </g>
   </g>
   <g id="matplotlib.axis_2">
    <g id="ytick_1">
     <g id="line2d_3">
      <defs>
       <path id="m9b13526b40" d="M 0 0 
L -3.5 0 
" style="stroke: #000000; stroke-width: 0.8"/>
      </defs>
      <g>
       <use xlink:href="#m9b13526b40" x="64.092188" y="457.558594" style="stroke: #000000; stroke-width: 0.8"/>
      </g>
     </g>
     <g id="text_4">
      <!-- −1 -->
      <g transform="translate(30.55625 464.397187) scale(0.18 -0.18)">
       <defs>
        <path id="DejaVuSans-2212" d="M 678 2272 
L 4684 2272 
L 4684 1741 
L 678 1741 
L 678 2272 
z
" transform="scale(0.015625)"/>
       </defs>
       <use xlink:href="#DejaVuSans-2212"/>
       <use xlink:href="#DejaVuSans-31" transform="translate(83.789062 0)"/>
      </g>
     </g>
    </g>
    <g id="ytick_2">
     <g id="line2d_4">
      <g>
       <use xlink:href="#m9b13526b40" x="64.092188" y="235.798594" style="stroke: #000000; stroke-width: 0.8"/>
      </g>
     </g>
     <g id="text_5">
      <!-- 0 -->
      <g transform="translate(45.639688 242.637187) scale(0.18 -0.18)">
       <use xlink:href="#DejaVuSans-30"/>
      </g>
     </g>
    </g>
    <g id="ytick_3">
     <g id="line2d_5">
      <g>
       <use xlink:href="#m9b13526b40" x="64.092188" y="14.038594" style="stroke: #000000; stroke-width: 0.8"/>
      </g>
     </g>
     <g id="text_6">
      <!-- 1 -->
      <g transform="translate(45.639688 20.877187) scale(0.18 -0.18)">
       <use xlink:href="#DejaVuSans-31"/>
      </g>
     </g>
    </g>
    <g id="text_7">
     <!-- Correlation between replicates -->
     <g transform="translate(22.396875 410.551719) rotate(-90) scale(0.2 -0.2)">
      <defs>
       <path id="DejaVuSans-Bold-43" d="M 4288 256 
Q 3956 84 3597 -3 
Q 3238 -91 2847 -91 
Q 1681 -91 1000 561 
Q 319 1213 319 2328 
Q 319 3447 1000 4098 
Q 1681 4750 2847 4750 
Q 3238 4750 3597 4662 
Q 3956 4575 4288 4403 
L 4288 3438 
Q 3953 3666 3628 3772 
Q 3303 3878 2944 3878 
Q 2300 3878 1931 3465 
Q 1563 3053 1563 2328 
Q 1563 1606 1931 1193 
Q 2300 781 2944 781 
Q 3303 781 3628 887 
Q 3953 994 4288 1222 
L 4288 256 
z
" transform="scale(0.015625)"/>
       <path id="DejaVuSans-Bold-6f" d="M 2203 2784 
Q 1831 2784 1636 2517 
Q 1441 2250 1441 1747 
Q 1441 1244 1636 976 
Q 1831 709 2203 709 
Q 2569 709 2762 976 
Q 2956 1244 2956 1747 
Q 2956 2250 2762 2517 
Q 2569 2784 2203 2784 
z
M 2203 3584 
Q 3106 3584 3614 3096 
Q 4122 2609 4122 1747 
Q 4122 884 3614 396 
Q 3106 -91 2203 -91 
Q 1297 -91 786 396 
Q 275 884 275 1747 
Q 275 2609 786 3096 
Q 1297 3584 2203 3584 
z
" transform="scale(0.015625)"/>
       <path id="DejaVuSans-Bold-62" d="M 2400 722 
Q 2759 722 2948 984 
Q 3138 1247 3138 1747 
Q 3138 2247 2948 2509 
Q 2759 2772 2400 2772 
Q 2041 2772 1848 2508 
Q 1656 2244 1656 1747 
Q 1656 1250 1848 986 
Q 2041 722 2400 722 
z
M 1656 2988 
Q 1888 3294 2169 3439 
Q 2450 3584 2816 3584 
Q 3463 3584 3878 3070 
Q 4294 2556 4294 1747 
Q 4294 938 3878 423 
Q 3463 -91 2816 -91 
Q 2450 -91 2169 54 
Q 1888 200 1656 506 
L 1656 0 
L 538 0 
L 538 4863 
L 1656 4863 
L 1656 2988 
z
" transform="scale(0.015625)"/>
       <path id="DejaVuSans-Bold-77" d="M 225 3500 
L 1313 3500 
L 1900 1088 
L 2491 3500 
L 3425 3500 
L 4013 1113 
L 4603 3500 
L 5691 3500 
L 4769 0 
L 3547 0 
L 2956 2406 
L 2369 0 
L 1147 0 
L 225 3500 
z
" transform="scale(0.015625)"/>
       <path id="DejaVuSans-Bold-63" d="M 3366 3391 
L 3366 2478 
Q 3138 2634 2908 2709 
Q 2678 2784 2431 2784 
Q 1963 2784 1702 2511 
Q 1441 2238 1441 1747 
Q 1441 1256 1702 982 
Q 1963 709 2431 709 
Q 2694 709 2930 787 
Q 3166 866 3366 1019 
L 3366 103 
Q 3103 6 2833 -42 
Q 2563 -91 2291 -91 
Q 1344 -91 809 395 
Q 275 881 275 1747 
Q 275 2613 809 3098 
Q 1344 3584 2291 3584 
Q 2566 3584 2833 3536 
Q 3100 3488 3366 3391 
z
" transform="scale(0.015625)"/>
       <path id="DejaVuSans-Bold-73" d="M 3272 3391 
L 3272 2541 
Q 2913 2691 2578 2766 
Q 2244 2841 1947 2841 
Q 1628 2841 1473 2761 
Q 1319 2681 1319 2516 
Q 1319 2381 1436 2309 
Q 1553 2238 1856 2203 
L 2053 2175 
Q 2913 2066 3209 1816 
Q 3506 1566 3506 1031 
Q 3506 472 3093 190 
Q 2681 -91 1863 -91 
Q 1516 -91 1145 -36 
Q 775 19 384 128 
L 384 978 
Q 719 816 1070 734 
Q 1422 653 1784 653 
Q 2113 653 2278 743 
Q 2444 834 2444 1013 
Q 2444 1163 2330 1236 
Q 2216 1309 1875 1350 
L 1678 1375 
Q 931 1469 631 1722 
Q 331 1975 331 2491 
Q 331 3047 712 3315 
Q 1094 3584 1881 3584 
Q 2191 3584 2531 3537 
Q 2872 3491 3272 3391 
z
" transform="scale(0.015625)"/>
      </defs>
      <use xlink:href="#DejaVuSans-Bold-43"/>
      <use xlink:href="#DejaVuSans-Bold-6f" transform="translate(73.388672 0)"/>
      <use xlink:href="#DejaVuSans-Bold-72" transform="translate(142.089844 0)"/>
      <use xlink:href="#DejaVuSans-Bold-72" transform="translate(191.40625 0)"/>
      <use xlink:href="#DejaVuSans-Bold-65" transform="translate(240.722656 0)"/>
      <use xlink:href="#DejaVuSans-Bold-6c" transform="translate(308.544922 0)"/>
      <use xlink:href="#DejaVuSans-Bold-61" transform="translate(342.822266 0)"/>
      <use xlink:href="#DejaVuSans-Bold-74" transform="translate(410.302734 0)"/>
      <use xlink:href="#DejaVuSans-Bold-69" transform="translate(458.105469 0)"/>
      <use xlink:href="#DejaVuSans-Bold-6f" transform="translate(492.382812 0)"/>
      <use xlink:href="#DejaVuSans-Bold-6e" transform="translate(561.083984 0)"/>
      <use xlink:href="#DejaVuSans-Bold-20" transform="translate(632.275391 0)"/>
      <use xlink:href="#DejaVuSans-Bold-62" transform="translate(667.089844 0)"/>
      <use xlink:href="#DejaVuSans-Bold-65" transform="translate(738.671875 0)"/>
      <use xlink:href="#DejaVuSans-Bold-74" transform="translate(806.494141 0)"/>
      <use xlink:href="#DejaVuSans-Bold-77" transform="translate(854.296875 0)"/>
      <use xlink:href="#DejaVuSans-Bold-65" transform="translate(946.679688 0)"/>
      <use xlink:href="#DejaVuSans-Bold-65" transform="translate(1014.501953 0)"/>
      <use xlink:href="#DejaVuSans-Bold-6e" transform="translate(1082.324219 0)"/>
      <use xlink:href="#DejaVuSans-Bold-20" transform="translate(1153.515625 0)"/>
      <use xlink:href="#DejaVuSans-Bold-72" transform="translate(1188.330078 0)"/>
      <use xlink:href="#DejaVuSans-Bold-65" transform="translate(1237.646484 0)"/>
      <use xlink:href="#DejaVuSans-Bold-70" transform="translate(1305.46875 0)"/>
      <use xlink:href="#DejaVuSans-Bold-6c" transform="translate(1377.050781 0)"/>
      <use xlink:href="#DejaVuSans-Bold-69" transform="translate(1411.328125 0)"/>
      <use xlink:href="#DejaVuSans-Bold-63" transform="translate(1445.605469 0)"/>
      <use xlink:href="#DejaVuSans-Bold-61" transform="translate(1504.882812 0)"/>
      <use xlink:href="#DejaVuSans-Bold-74" transform="translate(1572.363281 0)"/>
      <use xlink:href="#DejaVuSans-Bold-65" transform="translate(1620.166016 0)"/>
      <use xlink:href="#DejaVuSans-Bold-73" transform="translate(1687.988281 0)"/>
     </g>
    </g>
   </g>
   <g id="line2d_6">
    <path d="M 84.383097 50.701407 
L 129.474006 44.2585 
L 174.564915 40.384141 
L 219.655824 36.225339 
L 264.746733 39.092447 
L 309.837642 36.884575 
L 354.928551 39.998365 
L 400.01946 40.618113 
L 445.110369 36.946979 
L 490.201278 37.256341 
" clip-path="url(#pabebe23214)" style="fill: none; stroke: #ff0000; stroke-opacity: 0.6; stroke-width: 1.5; stroke-linecap: square"/>
    <defs>
     <path id="m2776d61bfa" d="M 0 3 
C 0.795609 3 1.55874 2.683901 2.12132 2.12132 
C 2.683901 1.55874 3 0.795609 3 0 
C 3 -0.795609 2.683901 -1.55874 2.12132 -2.12132 
C 1.55874 -2.683901 0.795609 -3 0 -3 
C -0.795609 -3 -1.55874 -2.683901 -2.12132 -2.12132 
C -2.683901 -1.55874 -3 -0.795609 -3 0 
C -3 0.795609 -2.683901 1.55874 -2.12132 2.12132 
C -1.55874 2.683901 -0.795609 3 0 3 
z
" style="stroke: #ffffff; stroke-opacity: 0.6; stroke-width: 0.75"/>
    </defs>
    <g clip-path="url(#pabebe23214)">
     <use xlink:href="#m2776d61bfa" x="84.383097" y="50.701407" style="fill: #ff0000; fill-opacity: 0.6; stroke: #ffffff; stroke-opacity: 0.6; stroke-width: 0.75"/>
     <use xlink:href="#m2776d61bfa" x="129.474006" y="44.2585" style="fill: #ff0000; fill-opacity: 0.6; stroke: #ffffff; stroke-opacity: 0.6; stroke-width: 0.75"/>
     <use xlink:href="#m2776d61bfa" x="174.564915" y="40.384141" style="fill: #ff0000; fill-opacity: 0.6; stroke: #ffffff; stroke-opacity: 0.6; stroke-width: 0.75"/>
     <use xlink:href="#m2776d61bfa" x="219.655824" y="36.225339" style="fill: #ff0000; fill-opacity: 0.6; stroke: #ffffff; stroke-opacity: 0.6; stroke-width: 0.75"/>
     <use xlink:href="#m2776d61bfa" x="264.746733" y="39.092447" style="fill: #ff0000; fill-opacity: 0.6; stroke: #ffffff; stroke-opacity: 0.6; stroke-width: 0.75"/>
     <use xlink:href="#m2776d61bfa" x="309.837642" y="36.884575" style="fill: #ff0000; fill-opacity: 0.6; stroke: #ffffff; stroke-opacity: 0.6; stroke-width: 0.75"/>
     <use xlink:href="#m2776d61bfa" x="354.928551" y="39.998365" style="fill: #ff0000; fill-opacity: 0.6; stroke: #ffffff; stroke-opacity: 0.6; stroke-width: 0.75"/>
     <use xlink:href="#m2776d61bfa" x="400.01946" y="40.618113" style="fill: #ff0000; fill-opacity: 0.6; stroke: #ffffff; stroke-opacity: 0.6; stroke-width: 0.75"/>
     <use xlink:href="#m2776d61bfa" x="445.110369" y="36.946979" style="fill: #ff0000; fill-opacity: 0.6; stroke: #ffffff; stroke-opacity: 0.6; stroke-width: 0.75"/>
     <use xlink:href="#m2776d61bfa" x="490.201278" y="37.256341" style="fill: #ff0000; fill-opacity: 0.6; stroke: #ffffff; stroke-opacity: 0.6; stroke-width: 0.75"/>
    </g>
   </g>
   <g id="line2d_7">
    <path d="M 84.383097 92.505115 
L 129.474006 72.843899 
L 174.564915 62.516214 
L 219.655824 58.390374 
L 264.746733 53.582895 
L 309.837642 52.052695 
L 354.928551 50.409622 
L 400.01946 49.030929 
L 445.110369 47.84489 
L 490.201278 47.319738 
" clip-path="url(#pabebe23214)" style="fill: none; stroke: #808080; stroke-opacity: 0.6; stroke-width: 1.5; stroke-linecap: square"/>
    <defs>
     <path id="m3be0e17b6f" d="M 0 3 
C 0.795609 3 1.55874 2.683901 2.12132 2.12132 
C 2.683901 1.55874 3 0.795609 3 0 
C 3 -0.795609 2.683901 -1.55874 2.12132 -2.12132 
C 1.55874 -2.683901 0.795609 -3 0 -3 
C -0.795609 -3 -1.55874 -2.683901 -2.12132 -2.12132 
C -2.683901 -1.55874 -3 -0.795609 -3 0 
C -3 0.795609 -2.683901 1.55874 -2.12132 2.12132 
C -1.55874 2.683901 -0.795609 3 0 3 
z
" style="stroke: #ffffff; stroke-opacity: 0.6; stroke-width: 0.75"/>
    </defs>
    <g clip-path="url(#pabebe23214)">
     <use xlink:href="#m3be0e17b6f" x="84.383097" y="92.505115" style="fill: #808080; fill-opacity: 0.6; stroke: #ffffff; stroke-opacity: 0.6; stroke-width: 0.75"/>
     <use xlink:href="#m3be0e17b6f" x="129.474006" y="72.843899" style="fill: #808080; fill-opacity: 0.6; stroke: #ffffff; stroke-opacity: 0.6; stroke-width: 0.75"/>
     <use xlink:href="#m3be0e17b6f" x="174.564915" y="62.516214" style="fill: #808080; fill-opacity: 0.6; stroke: #ffffff; stroke-opacity: 0.6; stroke-width: 0.75"/>
     <use xlink:href="#m3be0e17b6f" x="219.655824" y="58.390374" style="fill: #808080; fill-opacity: 0.6; stroke: #ffffff; stroke-opacity: 0.6; stroke-width: 0.75"/>
     <use xlink:href="#m3be0e17b6f" x="264.746733" y="53.582895" style="fill: #808080; fill-opacity: 0.6; stroke: #ffffff; stroke-opacity: 0.6; stroke-width: 0.75"/>
     <use xlink:href="#m3be0e17b6f" x="309.837642" y="52.052695" style="fill: #808080; fill-opacity: 0.6; stroke: #ffffff; stroke-opacity: 0.6; stroke-width: 0.75"/>
     <use xlink:href="#m3be0e17b6f" x="354.928551" y="50.409622" style="fill: #808080; fill-opacity: 0.6; stroke: #ffffff; stroke-opacity: 0.6; stroke-width: 0.75"/>
     <use xlink:href="#m3be0e17b6f" x="400.01946" y="49.030929" style="fill: #808080; fill-opacity: 0.6; stroke: #ffffff; stroke-opacity: 0.6; stroke-width: 0.75"/>
     <use xlink:href="#m3be0e17b6f" x="445.110369" y="47.84489" style="fill: #808080; fill-opacity: 0.6; stroke: #ffffff; stroke-opacity: 0.6; stroke-width: 0.75"/>
     <use xlink:href="#m3be0e17b6f" x="490.201278" y="47.319738" style="fill: #808080; fill-opacity: 0.6; stroke: #ffffff; stroke-opacity: 0.6; stroke-width: 0.75"/>
    </g>
   </g>
   <g id="patch_3">
    <path d="M 64.092188 457.558594 
L 64.092188 14.038594 
" style="fill: none; stroke: #000000; stroke-linejoin: miter; stroke-linecap: square"/>
   </g>
   <g id="patch_4">
    <path d="M 64.092188 457.558594 
L 510.492188 457.558594 
" style="fill: none; stroke: #000000; stroke-linejoin: miter; stroke-linecap: square"/>
   </g>
   <g id="legend_1">
    <g id="patch_5">
     <path d="M 76.692188 448.558594 
L 226.26375 448.558594 
Q 229.86375 448.558594 229.86375 444.958594 
L 229.86375 393.917344 
Q 229.86375 390.317344 226.26375 390.317344 
L 76.692188 390.317344 
Q 73.092188 390.317344 73.092188 393.917344 
L 73.092188 444.958594 
Q 73.092188 448.558594 76.692188 448.558594 
L 76.692188 448.558594 
z
" style="fill: none; opacity: 0.8; stroke: #cccccc; stroke-linejoin: miter"/>
    </g>
    <g id="line2d_8">
     <path d="M 80.292188 404.894531 
L 98.292188 404.894531 
L 116.292188 404.894531 
" style="fill: none; stroke: #ff0000; stroke-opacity: 0.6; stroke-width: 1.5; stroke-linecap: square"/>
     <g>
      <use xlink:href="#m2776d61bfa" x="98.292188" y="404.894531" style="fill: #ff0000; fill-opacity: 0.6; stroke: #ffffff; stroke-opacity: 0.6; stroke-width: 0.75"/>
     </g>
    </g>
    <g id="text_8">
     <!-- Active -->
     <g transform="translate(130.692188 411.194531) scale(0.18 -0.18)">
      <defs>
       <path id="DejaVuSans-41" d="M 2188 4044 
L 1331 1722 
L 3047 1722 
L 2188 4044 
z
M 1831 4666 
L 2547 4666 
L 4325 0 
L 3669 0 
L 3244 1197 
L 1141 1197 
L 716 0 
L 50 0 
L 1831 4666 
z
" transform="scale(0.015625)"/>
       <path id="DejaVuSans-63" d="M 3122 3366 
L 3122 2828 
Q 2878 2963 2633 3030 
Q 2388 3097 2138 3097 
Q 1578 3097 1268 2742 
Q 959 2388 959 1747 
Q 959 1106 1268 751 
Q 1578 397 2138 397 
Q 2388 397 2633 464 
Q 2878 531 3122 666 
L 3122 134 
Q 2881 22 2623 -34 
Q 2366 -91 2075 -91 
Q 1284 -91 818 406 
Q 353 903 353 1747 
Q 353 2603 823 3093 
Q 1294 3584 2113 3584 
Q 2378 3584 2631 3529 
Q 2884 3475 3122 3366 
z
" transform="scale(0.015625)"/>
       <path id="DejaVuSans-74" d="M 1172 4494 
L 1172 3500 
L 2356 3500 
L 2356 3053 
L 1172 3053 
L 1172 1153 
Q 1172 725 1289 603 
Q 1406 481 1766 481 
L 2356 481 
L 2356 0 
L 1766 0 
Q 1100 0 847 248 
Q 594 497 594 1153 
L 594 3053 
L 172 3053 
L 172 3500 
L 594 3500 
L 594 4494 
L 1172 4494 
z
" transform="scale(0.015625)"/>
       <path id="DejaVuSans-69" d="M 603 3500 
L 1178 3500 
L 1178 0 
L 603 0 
L 603 3500 
z
M 603 4863 
L 1178 4863 
L 1178 4134 
L 603 4134 
L 603 4863 
z
" transform="scale(0.015625)"/>
       <path id="DejaVuSans-76" d="M 191 3500 
L 800 3500 
L 1894 563 
L 2988 3500 
L 3597 3500 
L 2284 0 
L 1503 0 
L 191 3500 
z
" transform="scale(0.015625)"/>
       <path id="DejaVuSans-65" d="M 3597 1894 
L 3597 1613 
L 953 1613 
Q 991 1019 1311 708 
Q 1631 397 2203 397 
Q 2534 397 2845 478 
Q 3156 559 3463 722 
L 3463 178 
Q 3153 47 2828 -22 
Q 2503 -91 2169 -91 
Q 1331 -91 842 396 
Q 353 884 353 1716 
Q 353 2575 817 3079 
Q 1281 3584 2069 3584 
Q 2775 3584 3186 3129 
Q 3597 2675 3597 1894 
z
M 3022 2063 
Q 3016 2534 2758 2815 
Q 2500 3097 2075 3097 
Q 1594 3097 1305 2825 
Q 1016 2553 972 2059 
L 3022 2063 
z
" transform="scale(0.015625)"/>
      </defs>
      <use xlink:href="#DejaVuSans-41"/>
      <use xlink:href="#DejaVuSans-63" transform="translate(66.658203 0)"/>
      <use xlink:href="#DejaVuSans-74" transform="translate(121.638672 0)"/>
      <use xlink:href="#DejaVuSans-69" transform="translate(160.847656 0)"/>
      <use xlink:href="#DejaVuSans-76" transform="translate(188.630859 0)"/>
      <use xlink:href="#DejaVuSans-65" transform="translate(247.810547 0)"/>
     </g>
    </g>
    <g id="line2d_9">
     <path d="M 80.292188 431.315156 
L 98.292188 431.315156 
L 116.292188 431.315156 
" style="fill: none; stroke: #808080; stroke-opacity: 0.6; stroke-width: 1.5; stroke-linecap: square"/>
     <g>
      <use xlink:href="#m3be0e17b6f" x="98.292188" y="431.315156" style="fill: #808080; fill-opacity: 0.6; stroke: #ffffff; stroke-opacity: 0.6; stroke-width: 0.75"/>
     </g>
    </g>
    <g id="text_9">
     <!-- Not active -->
     <g transform="translate(130.692188 437.615156) scale(0.18 -0.18)">
      <defs>
       <path id="DejaVuSans-4e" d="M 628 4666 
L 1478 4666 
L 3547 763 
L 3547 4666 
L 4159 4666 
L 4159 0 
L 3309 0 
L 1241 3903 
L 1241 0 
L 628 0 
L 628 4666 
z
" transform="scale(0.015625)"/>
       <path id="DejaVuSans-6f" d="M 1959 3097 
Q 1497 3097 1228 2736 
Q 959 2375 959 1747 
Q 959 1119 1226 758 
Q 1494 397 1959 397 
Q 2419 397 2687 759 
Q 2956 1122 2956 1747 
Q 2956 2369 2687 2733 
Q 2419 3097 1959 3097 
z
M 1959 3584 
Q 2709 3584 3137 3096 
Q 3566 2609 3566 1747 
Q 3566 888 3137 398 
Q 2709 -91 1959 -91 
Q 1206 -91 779 398 
Q 353 888 353 1747 
Q 353 2609 779 3096 
Q 1206 3584 1959 3584 
z
" transform="scale(0.015625)"/>
       <path id="DejaVuSans-20" transform="scale(0.015625)"/>
       <path id="DejaVuSans-61" d="M 2194 1759 
Q 1497 1759 1228 1600 
Q 959 1441 959 1056 
Q 959 750 1161 570 
Q 1363 391 1709 391 
Q 2188 391 2477 730 
Q 2766 1069 2766 1631 
L 2766 1759 
L 2194 1759 
z
M 3341 1997 
L 3341 0 
L 2766 0 
L 2766 531 
Q 2569 213 2275 61 
Q 1981 -91 1556 -91 
Q 1019 -91 701 211 
Q 384 513 384 1019 
Q 384 1609 779 1909 
Q 1175 2209 1959 2209 
L 2766 2209 
L 2766 2266 
Q 2766 2663 2505 2880 
Q 2244 3097 1772 3097 
Q 1472 3097 1187 3025 
Q 903 2953 641 2809 
L 641 3341 
Q 956 3463 1253 3523 
Q 1550 3584 1831 3584 
Q 2591 3584 2966 3190 
Q 3341 2797 3341 1997 
z
" transform="scale(0.015625)"/>
      </defs>
      <use xlink:href="#DejaVuSans-4e"/>
      <use xlink:href="#DejaVuSans-6f" transform="translate(74.804688 0)"/>
      <use xlink:href="#DejaVuSans-74" transform="translate(135.986328 0)"/>
      <use xlink:href="#DejaVuSans-20" transform="translate(175.195312 0)"/>
      <use xlink:href="#DejaVuSans-61" transform="translate(206.982422 0)"/>
      <use xlink:href="#DejaVuSans-63" transform="translate(268.261719 0)"/>
      <use xlink:href="#DejaVuSans-74" transform="translate(323.242188 0)"/>
      <use xlink:href="#DejaVuSans-69" transform="translate(362.451172 0)"/>
      <use xlink:href="#DejaVuSans-76" transform="translate(390.234375 0)"/>
      <use xlink:href="#DejaVuSans-65" transform="translate(449.414062 0)"/>
     </g>
    </g>
   </g>
  </g>
 </g>
 <defs>
  <clipPath id="pabebe23214">
   <rect x="64.092188" y="14.038594" width="446.4" height="443.52"/>
  </clipPath>
 </defs>
</svg>
